<?xml version="1.0" encoding="utf-8" standalone="no"?>
<!DOCTYPE svg PUBLIC "-//W3C//DTD SVG 1.1//EN"
  "http://www.w3.org/Graphics/SVG/1.1/DTD/svg11.dtd">
<svg xmlns:xlink="http://www.w3.org/1999/xlink" width="663.634752pt" height="397.86493pt" viewBox="0 0 663.634752 397.86493" xmlns="http://www.w3.org/2000/svg" version="1.1">
 <metadata>
  <rdf:RDF xmlns:dc="http://purl.org/dc/elements/1.1/" xmlns:cc="http://creativecommons.org/ns#" xmlns:rdf="http://www.w3.org/1999/02/22-rdf-syntax-ns#">
   <cc:Work>
    <dc:type rdf:resource="http://purl.org/dc/dcmitype/StillImage"/>
    <dc:date>2024-10-08T20:59:37.490761</dc:date>
    <dc:format>image/svg+xml</dc:format>
    <dc:creator>
     <cc:Agent>
      <dc:title>Matplotlib v3.7.1, https://matplotlib.org/</dc:title>
     </cc:Agent>
    </dc:creator>
   </cc:Work>
  </rdf:RDF>
 </metadata>
 <defs>
  <style type="text/css">*{stroke-linejoin: round; stroke-linecap: butt}</style>
 </defs>
 <g id="figure_1">
  <g id="patch_1">
   <path d="M 0 397.86493 
L 663.634752 397.86493 
L 663.634752 0 
L 0 0 
z
" style="fill: #ffffff"/>
  </g>
  <g id="axes_1">
   <g id="patch_2">
    <path d="M 42.634752 363.744514 
L 656.434752 363.744514 
L 656.434752 31.104514 
L 42.634752 31.104514 
z
" style="fill: #ffffff"/>
   </g>
   <g id="PathCollection_1">
    <defs>
     <path id="m28d905b034" d="M 0 3 
C 0.795609 3 1.55874 2.683901 2.12132 2.12132 
C 2.683901 1.55874 3 0.795609 3 0 
C 3 -0.795609 2.683901 -1.55874 2.12132 -2.12132 
C 1.55874 -2.683901 0.795609 -3 0 -3 
C -0.795609 -3 -1.55874 -2.683901 -2.12132 -2.12132 
C -2.683901 -1.55874 -3 -0.795609 -3 0 
C -3 0.795609 -2.683901 1.55874 -2.12132 2.12132 
C -1.55874 2.683901 -0.795609 3 0 3 
z
" style="stroke: #0000ff"/>
    </defs>
    <g clip-path="url(#p8d1d5aa35a)">
     <use xlink:href="#m28d905b034" x="70.534752" y="348.624514" style="fill: #0000ff; stroke: #0000ff"/>
     <use xlink:href="#m28d905b034" x="93.784752" y="348.056464" style="fill: #0000ff; stroke: #0000ff"/>
     <use xlink:href="#m28d905b034" x="117.034752" y="347.312842" style="fill: #0000ff; stroke: #0000ff"/>
     <use xlink:href="#m28d905b034" x="140.284752" y="346.313597" style="fill: #0000ff; stroke: #0000ff"/>
     <use xlink:href="#m28d905b034" x="163.534752" y="344.927692" style="fill: #0000ff; stroke: #0000ff"/>
     <use xlink:href="#m28d905b034" x="186.784752" y="342.929034" style="fill: #0000ff; stroke: #0000ff"/>
     <use xlink:href="#m28d905b034" x="210.034752" y="339.901437" style="fill: #0000ff; stroke: #0000ff"/>
     <use xlink:href="#m28d905b034" x="233.284752" y="335.014227" style="fill: #0000ff; stroke: #0000ff"/>
     <use xlink:href="#m28d905b034" x="256.534752" y="326.430019" style="fill: #0000ff; stroke: #0000ff"/>
     <use xlink:href="#m28d905b034" x="279.784752" y="309.521066" style="fill: #0000ff; stroke: #0000ff"/>
     <use xlink:href="#m28d905b034" x="303.034752" y="270.800985" style="fill: #0000ff; stroke: #0000ff"/>
     <use xlink:href="#m28d905b034" x="326.284752" y="171.398284" style="fill: #0000ff; stroke: #0000ff"/>
     <use xlink:href="#m28d905b034" x="349.534752" y="46.224514" style="fill: #0000ff; stroke: #0000ff"/>
     <use xlink:href="#m28d905b034" x="372.784752" y="171.398284" style="fill: #0000ff; stroke: #0000ff"/>
     <use xlink:href="#m28d905b034" x="396.034752" y="270.800985" style="fill: #0000ff; stroke: #0000ff"/>
     <use xlink:href="#m28d905b034" x="419.284752" y="309.521066" style="fill: #0000ff; stroke: #0000ff"/>
     <use xlink:href="#m28d905b034" x="442.534752" y="326.430019" style="fill: #0000ff; stroke: #0000ff"/>
     <use xlink:href="#m28d905b034" x="465.784752" y="335.014227" style="fill: #0000ff; stroke: #0000ff"/>
     <use xlink:href="#m28d905b034" x="489.034752" y="339.901437" style="fill: #0000ff; stroke: #0000ff"/>
     <use xlink:href="#m28d905b034" x="512.284752" y="342.929034" style="fill: #0000ff; stroke: #0000ff"/>
     <use xlink:href="#m28d905b034" x="535.534752" y="344.927692" style="fill: #0000ff; stroke: #0000ff"/>
     <use xlink:href="#m28d905b034" x="558.784752" y="346.313597" style="fill: #0000ff; stroke: #0000ff"/>
     <use xlink:href="#m28d905b034" x="582.034752" y="347.312842" style="fill: #0000ff; stroke: #0000ff"/>
     <use xlink:href="#m28d905b034" x="605.284752" y="348.056464" style="fill: #0000ff; stroke: #0000ff"/>
     <use xlink:href="#m28d905b034" x="628.534752" y="348.624514" style="fill: #0000ff; stroke: #0000ff"/>
    </g>
   </g>
   <g id="PathCollection_2">
    <defs>
     <path id="mcca4a9cc10" d="M 0 3 
C 0.795609 3 1.55874 2.683901 2.12132 2.12132 
C 2.683901 1.55874 3 0.795609 3 0 
C 3 -0.795609 2.683901 -1.55874 2.12132 -2.12132 
C 1.55874 -2.683901 0.795609 -3 0 -3 
C -0.795609 -3 -1.55874 -2.683901 -2.12132 -2.12132 
C -2.683901 -1.55874 -3 -0.795609 -3 0 
C -3 0.795609 -2.683901 1.55874 -2.12132 2.12132 
C -1.55874 2.683901 -0.795609 3 0 3 
z
" style="stroke: #0000ff; stroke-width: 1.5"/>
    </defs>
    <g clip-path="url(#p8d1d5aa35a)">
     <use xlink:href="#mcca4a9cc10" x="82.159752" y="348.358735" style="fill: #ffffff; stroke: #0000ff; stroke-width: 1.5"/>
     <use xlink:href="#mcca4a9cc10" x="105.409752" y="347.710735" style="fill: #ffffff; stroke: #0000ff; stroke-width: 1.5"/>
     <use xlink:href="#mcca4a9cc10" x="128.659752" y="346.851802" style="fill: #ffffff; stroke: #0000ff; stroke-width: 1.5"/>
     <use xlink:href="#mcca4a9cc10" x="151.909752" y="345.680125" style="fill: #ffffff; stroke: #0000ff; stroke-width: 1.5"/>
     <use xlink:href="#mcca4a9cc10" x="175.159752" y="344.024826" style="fill: #ffffff; stroke: #0000ff; stroke-width: 1.5"/>
     <use xlink:href="#mcca4a9cc10" x="198.409752" y="341.581896" style="fill: #ffffff; stroke: #0000ff; stroke-width: 1.5"/>
     <use xlink:href="#mcca4a9cc10" x="221.659752" y="337.769986" style="fill: #ffffff; stroke: #0000ff; stroke-width: 1.5"/>
     <use xlink:href="#mcca4a9cc10" x="244.909752" y="331.371402" style="fill: #ffffff; stroke: #0000ff; stroke-width: 1.5"/>
     <use xlink:href="#mcca4a9cc10" x="268.159752" y="319.522103" style="fill: #ffffff; stroke: #0000ff; stroke-width: 1.5"/>
     <use xlink:href="#mcca4a9cc10" x="291.409752" y="294.455983" style="fill: #ffffff; stroke: #0000ff; stroke-width: 1.5"/>
     <use xlink:href="#mcca4a9cc10" x="314.659752" y="232.45866" style="fill: #ffffff; stroke: #0000ff; stroke-width: 1.5"/>
     <use xlink:href="#mcca4a9cc10" x="337.909752" y="91.405579" style="fill: #ffffff; stroke: #0000ff; stroke-width: 1.5"/>
     <use xlink:href="#mcca4a9cc10" x="361.159752" y="91.405579" style="fill: #ffffff; stroke: #0000ff; stroke-width: 1.5"/>
     <use xlink:href="#mcca4a9cc10" x="384.409752" y="232.45866" style="fill: #ffffff; stroke: #0000ff; stroke-width: 1.5"/>
     <use xlink:href="#mcca4a9cc10" x="407.659752" y="294.455983" style="fill: #ffffff; stroke: #0000ff; stroke-width: 1.5"/>
     <use xlink:href="#mcca4a9cc10" x="430.909752" y="319.522103" style="fill: #ffffff; stroke: #0000ff; stroke-width: 1.5"/>
     <use xlink:href="#mcca4a9cc10" x="454.159752" y="331.371402" style="fill: #ffffff; stroke: #0000ff; stroke-width: 1.5"/>
     <use xlink:href="#mcca4a9cc10" x="477.409752" y="337.769986" style="fill: #ffffff; stroke: #0000ff; stroke-width: 1.5"/>
     <use xlink:href="#mcca4a9cc10" x="500.659752" y="341.581896" style="fill: #ffffff; stroke: #0000ff; stroke-width: 1.5"/>
     <use xlink:href="#mcca4a9cc10" x="523.909752" y="344.024826" style="fill: #ffffff; stroke: #0000ff; stroke-width: 1.5"/>
     <use xlink:href="#mcca4a9cc10" x="547.159752" y="345.680125" style="fill: #ffffff; stroke: #0000ff; stroke-width: 1.5"/>
     <use xlink:href="#mcca4a9cc10" x="570.409752" y="346.851802" style="fill: #ffffff; stroke: #0000ff; stroke-width: 1.5"/>
     <use xlink:href="#mcca4a9cc10" x="593.659752" y="347.710735" style="fill: #ffffff; stroke: #0000ff; stroke-width: 1.5"/>
     <use xlink:href="#mcca4a9cc10" x="616.909752" y="348.358735" style="fill: #ffffff; stroke: #0000ff; stroke-width: 1.5"/>
    </g>
   </g>
   <g id="matplotlib.axis_1">
    <g id="xtick_1">
     <g id="line2d_1">
      <path d="M 70.534752 363.744514 
L 70.534752 31.104514 
" clip-path="url(#p8d1d5aa35a)" style="fill: none; stroke-dasharray: 0.8,1.32; stroke-dashoffset: 0; stroke: #b0b0b0; stroke-width: 0.8"/>
     </g>
     <g id="line2d_2">
      <defs>
       <path id="m13f1d5432e" d="M 0 0 
L 0 3.5 
" style="stroke: #000000; stroke-width: 0.8"/>
      </defs>
      <g>
       <use xlink:href="#m13f1d5432e" x="70.534752" y="363.744514" style="stroke: #000000; stroke-width: 0.8"/>
      </g>
     </g>
     <g id="text_1">
      <!-- $\mathdefault{−2}$ -->
      <g transform="translate(55.753397 385.352819) scale(0.24 -0.24)">
       <defs>
        <path id="CMSY10-0" d="M 4218 1472 
C 4326 1472 4442 1472 4442 1600 
C 4442 1728 4326 1728 4218 1728 
L 755 1728 
C 646 1728 531 1728 531 1600 
C 531 1472 646 1472 755 1472 
L 4218 1472 
z
" transform="scale(0.015625)"/>
        <path id="CMR17-32" d="M 2669 989 
L 2554 989 
C 2490 536 2438 459 2413 420 
C 2381 369 1920 369 1830 369 
L 602 369 
C 832 619 1280 1072 1824 1597 
C 2214 1967 2669 2402 2669 3035 
C 2669 3790 2067 4224 1395 4224 
C 691 4224 262 3604 262 3030 
C 262 2780 448 2748 525 2748 
C 589 2748 781 2787 781 3010 
C 781 3207 614 3264 525 3264 
C 486 3264 448 3258 422 3245 
C 544 3790 915 4058 1306 4058 
C 1862 4058 2227 3617 2227 3035 
C 2227 2479 1901 2000 1536 1584 
L 262 146 
L 262 0 
L 2515 0 
L 2669 989 
z
" transform="scale(0.015625)"/>
       </defs>
       <use xlink:href="#CMSY10-0" transform="scale(0.996264)"/>
       <use xlink:href="#CMR17-32" transform="translate(77.487468 0) scale(0.996264)"/>
      </g>
     </g>
    </g>
    <g id="xtick_2">
     <g id="line2d_3">
      <path d="M 210.034752 363.744514 
L 210.034752 31.104514 
" clip-path="url(#p8d1d5aa35a)" style="fill: none; stroke-dasharray: 0.8,1.32; stroke-dashoffset: 0; stroke: #b0b0b0; stroke-width: 0.8"/>
     </g>
     <g id="line2d_4">
      <g>
       <use xlink:href="#m13f1d5432e" x="210.034752" y="363.744514" style="stroke: #000000; stroke-width: 0.8"/>
      </g>
     </g>
     <g id="text_2">
      <!-- $\mathdefault{−1}$ -->
      <g transform="translate(195.253397 385.352819) scale(0.24 -0.24)">
       <defs>
        <path id="CMR17-31" d="M 1702 4058 
C 1702 4192 1696 4192 1606 4192 
C 1357 3916 979 3827 621 3827 
C 602 3827 570 3827 563 3808 
C 557 3795 557 3782 557 3648 
C 755 3648 1088 3686 1344 3839 
L 1344 461 
C 1344 236 1331 160 781 160 
L 589 160 
L 589 0 
C 896 0 1216 0 1523 0 
C 1830 0 2150 0 2458 0 
L 2458 160 
L 2266 160 
C 1715 160 1702 230 1702 458 
L 1702 4058 
z
" transform="scale(0.015625)"/>
       </defs>
       <use xlink:href="#CMSY10-0" transform="scale(0.996264)"/>
       <use xlink:href="#CMR17-31" transform="translate(77.487468 0) scale(0.996264)"/>
      </g>
     </g>
    </g>
    <g id="xtick_3">
     <g id="line2d_5">
      <path d="M 349.534752 363.744514 
L 349.534752 31.104514 
" clip-path="url(#p8d1d5aa35a)" style="fill: none; stroke-dasharray: 0.8,1.32; stroke-dashoffset: 0; stroke: #b0b0b0; stroke-width: 0.8"/>
     </g>
     <g id="line2d_6">
      <g>
       <use xlink:href="#m13f1d5432e" x="349.534752" y="363.744514" style="stroke: #000000; stroke-width: 0.8"/>
      </g>
     </g>
     <g id="text_3">
      <!-- $\mathdefault{0}$ -->
      <g transform="translate(344.051894 385.352819) scale(0.24 -0.24)">
       <defs>
        <path id="CMR17-30" d="M 2688 2025 
C 2688 2416 2682 3080 2413 3591 
C 2176 4039 1798 4198 1466 4198 
C 1158 4198 768 4058 525 3597 
C 269 3118 243 2524 243 2025 
C 243 1661 250 1106 448 619 
C 723 -39 1216 -128 1466 -128 
C 1760 -128 2208 -7 2470 600 
C 2662 1042 2688 1559 2688 2025 
z
M 1466 -26 
C 1056 -26 813 325 723 812 
C 653 1188 653 1738 653 2096 
C 653 2588 653 2997 736 3387 
C 858 3929 1216 4096 1466 4096 
C 1728 4096 2067 3923 2189 3400 
C 2272 3036 2278 2607 2278 2096 
C 2278 1680 2278 1169 2202 792 
C 2067 95 1690 -26 1466 -26 
z
" transform="scale(0.015625)"/>
       </defs>
       <use xlink:href="#CMR17-30" transform="scale(0.996264)"/>
      </g>
     </g>
    </g>
    <g id="xtick_4">
     <g id="line2d_7">
      <path d="M 489.034752 363.744514 
L 489.034752 31.104514 
" clip-path="url(#p8d1d5aa35a)" style="fill: none; stroke-dasharray: 0.8,1.32; stroke-dashoffset: 0; stroke: #b0b0b0; stroke-width: 0.8"/>
     </g>
     <g id="line2d_8">
      <g>
       <use xlink:href="#m13f1d5432e" x="489.034752" y="363.744514" style="stroke: #000000; stroke-width: 0.8"/>
      </g>
     </g>
     <g id="text_4">
      <!-- $\mathdefault{1}$ -->
      <g transform="translate(483.551894 385.352819) scale(0.24 -0.24)">
       <use xlink:href="#CMR17-31" transform="scale(0.996264)"/>
      </g>
     </g>
    </g>
    <g id="xtick_5">
     <g id="line2d_9">
      <path d="M 628.534752 363.744514 
L 628.534752 31.104514 
" clip-path="url(#p8d1d5aa35a)" style="fill: none; stroke-dasharray: 0.8,1.32; stroke-dashoffset: 0; stroke: #b0b0b0; stroke-width: 0.8"/>
     </g>
     <g id="line2d_10">
      <g>
       <use xlink:href="#m13f1d5432e" x="628.534752" y="363.744514" style="stroke: #000000; stroke-width: 0.8"/>
      </g>
     </g>
     <g id="text_5">
      <!-- $\mathdefault{2}$ -->
      <g transform="translate(623.051894 385.352819) scale(0.24 -0.24)">
       <use xlink:href="#CMR17-32" transform="scale(0.996264)"/>
      </g>
     </g>
    </g>
   </g>
   <g id="matplotlib.axis_2">
    <g id="ytick_1">
     <g id="line2d_11">
      <path d="M 42.634752 351.648514 
L 656.434752 351.648514 
" clip-path="url(#p8d1d5aa35a)" style="fill: none; stroke-dasharray: 0.8,1.32; stroke-dashoffset: 0; stroke: #b0b0b0; stroke-width: 0.8"/>
     </g>
     <g id="line2d_12">
      <defs>
       <path id="me823386e6b" d="M 0 0 
L -3.5 0 
" style="stroke: #000000; stroke-width: 0.8"/>
      </defs>
      <g>
       <use xlink:href="#me823386e6b" x="42.634752" y="351.648514" style="stroke: #000000; stroke-width: 0.8"/>
      </g>
     </g>
     <g id="text_6">
      <!-- $\mathdefault{0.0}$ -->
      <g transform="translate(7.2 358.952666) scale(0.24 -0.24)">
       <defs>
        <path id="CMMI12-3a" d="M 1178 307 
C 1178 492 1024 619 870 619 
C 685 619 557 466 557 313 
C 557 128 710 0 864 0 
C 1050 0 1178 153 1178 307 
z
" transform="scale(0.015625)"/>
       </defs>
       <use xlink:href="#CMR17-30" transform="scale(0.996264)"/>
       <use xlink:href="#CMMI12-3a" transform="translate(45.690477 0) scale(0.996264)"/>
       <use xlink:href="#CMR17-30" transform="translate(72.787654 0) scale(0.996264)"/>
      </g>
     </g>
    </g>
    <g id="ytick_2">
     <g id="line2d_13">
      <path d="M 42.634752 290.563714 
L 656.434752 290.563714 
" clip-path="url(#p8d1d5aa35a)" style="fill: none; stroke-dasharray: 0.8,1.32; stroke-dashoffset: 0; stroke: #b0b0b0; stroke-width: 0.8"/>
     </g>
     <g id="line2d_14">
      <g>
       <use xlink:href="#me823386e6b" x="42.634752" y="290.563714" style="stroke: #000000; stroke-width: 0.8"/>
      </g>
     </g>
     <g id="text_7">
      <!-- $\mathdefault{0.2}$ -->
      <g transform="translate(7.2 297.867866) scale(0.24 -0.24)">
       <use xlink:href="#CMR17-30" transform="scale(0.996264)"/>
       <use xlink:href="#CMMI12-3a" transform="translate(45.690477 0) scale(0.996264)"/>
       <use xlink:href="#CMR17-32" transform="translate(72.787654 0) scale(0.996264)"/>
      </g>
     </g>
    </g>
    <g id="ytick_3">
     <g id="line2d_15">
      <path d="M 42.634752 229.478914 
L 656.434752 229.478914 
" clip-path="url(#p8d1d5aa35a)" style="fill: none; stroke-dasharray: 0.8,1.32; stroke-dashoffset: 0; stroke: #b0b0b0; stroke-width: 0.8"/>
     </g>
     <g id="line2d_16">
      <g>
       <use xlink:href="#me823386e6b" x="42.634752" y="229.478914" style="stroke: #000000; stroke-width: 0.8"/>
      </g>
     </g>
     <g id="text_8">
      <!-- $\mathdefault{0.4}$ -->
      <g transform="translate(7.2 236.783066) scale(0.24 -0.24)">
       <defs>
        <path id="CMR17-34" d="M 2150 4122 
C 2150 4256 2144 4256 2029 4256 
L 128 1254 
L 128 1088 
L 1779 1088 
L 1779 457 
C 1779 224 1766 160 1318 160 
L 1197 160 
L 1197 0 
C 1402 0 1747 0 1965 0 
C 2182 0 2528 0 2733 0 
L 2733 160 
L 2611 160 
C 2163 160 2150 224 2150 457 
L 2150 1088 
L 2803 1088 
L 2803 1254 
L 2150 1254 
L 2150 4122 
z
M 1798 3703 
L 1798 1254 
L 256 1254 
L 1798 3703 
z
" transform="scale(0.015625)"/>
       </defs>
       <use xlink:href="#CMR17-30" transform="scale(0.996264)"/>
       <use xlink:href="#CMMI12-3a" transform="translate(45.690477 0) scale(0.996264)"/>
       <use xlink:href="#CMR17-34" transform="translate(72.787654 0) scale(0.996264)"/>
      </g>
     </g>
    </g>
    <g id="ytick_4">
     <g id="line2d_17">
      <path d="M 42.634752 168.394114 
L 656.434752 168.394114 
" clip-path="url(#p8d1d5aa35a)" style="fill: none; stroke-dasharray: 0.8,1.32; stroke-dashoffset: 0; stroke: #b0b0b0; stroke-width: 0.8"/>
     </g>
     <g id="line2d_18">
      <g>
       <use xlink:href="#me823386e6b" x="42.634752" y="168.394114" style="stroke: #000000; stroke-width: 0.8"/>
      </g>
     </g>
     <g id="text_9">
      <!-- $\mathdefault{0.6}$ -->
      <g transform="translate(7.2 175.698266) scale(0.24 -0.24)">
       <defs>
        <path id="CMR17-36" d="M 678 2176 
C 678 3690 1395 4032 1811 4032 
C 1946 4032 2272 4009 2400 3776 
C 2298 3776 2106 3776 2106 3553 
C 2106 3381 2246 3323 2336 3323 
C 2394 3323 2566 3348 2566 3560 
C 2566 3954 2246 4179 1805 4179 
C 1043 4179 243 3390 243 1984 
C 243 253 966 -128 1478 -128 
C 2099 -128 2688 427 2688 1283 
C 2688 2081 2170 2662 1517 2662 
C 1126 2662 838 2407 678 1960 
L 678 2176 
z
M 1478 25 
C 691 25 691 1200 691 1436 
C 691 1896 909 2560 1504 2560 
C 1613 2560 1926 2560 2138 2120 
C 2253 1870 2253 1609 2253 1289 
C 2253 944 2253 690 2118 434 
C 1978 171 1773 25 1478 25 
z
" transform="scale(0.015625)"/>
       </defs>
       <use xlink:href="#CMR17-30" transform="scale(0.996264)"/>
       <use xlink:href="#CMMI12-3a" transform="translate(45.690477 0) scale(0.996264)"/>
       <use xlink:href="#CMR17-36" transform="translate(72.787654 0) scale(0.996264)"/>
      </g>
     </g>
    </g>
    <g id="ytick_5">
     <g id="line2d_19">
      <path d="M 42.634752 107.309314 
L 656.434752 107.309314 
" clip-path="url(#p8d1d5aa35a)" style="fill: none; stroke-dasharray: 0.8,1.32; stroke-dashoffset: 0; stroke: #b0b0b0; stroke-width: 0.8"/>
     </g>
     <g id="line2d_20">
      <g>
       <use xlink:href="#me823386e6b" x="42.634752" y="107.309314" style="stroke: #000000; stroke-width: 0.8"/>
      </g>
     </g>
     <g id="text_10">
      <!-- $\mathdefault{0.8}$ -->
      <g transform="translate(7.2 114.613466) scale(0.24 -0.24)">
       <defs>
        <path id="CMR17-38" d="M 1741 2264 
C 2144 2467 2554 2773 2554 3263 
C 2554 3841 1990 4179 1472 4179 
C 890 4179 378 3759 378 3180 
C 378 3021 416 2747 666 2505 
C 730 2442 998 2251 1171 2130 
C 883 1983 211 1634 211 934 
C 211 279 838 -128 1459 -128 
C 2144 -128 2720 362 2720 1010 
C 2720 1590 2330 1857 2074 2029 
L 1741 2264 
z
M 902 2822 
C 851 2854 595 3051 595 3351 
C 595 3739 998 4032 1459 4032 
C 1965 4032 2336 3676 2336 3262 
C 2336 2669 1670 2331 1638 2331 
C 1632 2331 1626 2331 1574 2370 
L 902 2822 
z
M 2080 1519 
C 2176 1449 2483 1240 2483 851 
C 2483 381 2010 25 1472 25 
C 890 25 448 438 448 940 
C 448 1443 838 1862 1280 2060 
L 2080 1519 
z
" transform="scale(0.015625)"/>
       </defs>
       <use xlink:href="#CMR17-30" transform="scale(0.996264)"/>
       <use xlink:href="#CMMI12-3a" transform="translate(45.690477 0) scale(0.996264)"/>
       <use xlink:href="#CMR17-38" transform="translate(72.787654 0) scale(0.996264)"/>
      </g>
     </g>
    </g>
    <g id="ytick_6">
     <g id="line2d_21">
      <path d="M 42.634752 46.224514 
L 656.434752 46.224514 
" clip-path="url(#p8d1d5aa35a)" style="fill: none; stroke-dasharray: 0.8,1.32; stroke-dashoffset: 0; stroke: #b0b0b0; stroke-width: 0.8"/>
     </g>
     <g id="line2d_22">
      <g>
       <use xlink:href="#me823386e6b" x="42.634752" y="46.224514" style="stroke: #000000; stroke-width: 0.8"/>
      </g>
     </g>
     <g id="text_11">
      <!-- $\mathdefault{1.0}$ -->
      <g transform="translate(7.2 53.528666) scale(0.24 -0.24)">
       <use xlink:href="#CMR17-31" transform="scale(0.996264)"/>
       <use xlink:href="#CMMI12-3a" transform="translate(45.690477 0) scale(0.996264)"/>
       <use xlink:href="#CMR17-30" transform="translate(72.787654 0) scale(0.996264)"/>
      </g>
     </g>
    </g>
   </g>
   <g id="line2d_23">
    <path d="M 70.534752 348.624514 
L 99.6089 347.889184 
L 123.091866 347.081305 
L 142.101886 346.221387 
L 158.875433 345.245362 
L 173.412507 344.171655 
L 185.713108 343.039533 
L 195.777236 341.912756 
L 204.723128 340.71711 
L 213.66902 339.290356 
L 221.496675 337.803715 
L 228.206094 336.309184 
L 234.915513 334.564191 
L 240.506695 332.877475 
L 246.097878 330.934675 
L 250.570824 329.160901 
L 255.04377 327.156273 
L 259.516715 324.880412 
L 262.871425 322.966314 
L 266.226134 320.847473 
L 269.580844 318.494999 
L 272.935553 315.875032 
L 276.290263 312.947765 
L 279.644972 309.666268 
L 282.999681 305.975079 
L 286.354391 301.80853 
L 288.590864 298.728864 
L 290.827337 295.377093 
L 293.06381 291.723511 
L 295.300283 287.734893 
L 297.536756 283.374151 
L 299.773228 278.6 
L 302.009701 273.366679 
L 304.246174 267.623768 
L 306.482647 261.316181 
L 308.71912 254.384434 
L 310.955593 246.765358 
L 313.192066 238.393461 
L 315.428539 229.203241 
L 317.665012 219.132834 
L 319.901485 208.129477 
L 322.137958 196.157355 
L 324.374431 183.208397 
L 327.72914 162.043199 
L 331.08385 139.157123 
L 337.793269 92.178634 
L 340.029741 77.986737 
L 342.266214 65.636497 
L 343.384451 60.37854 
L 344.502687 55.846936 
L 345.620924 52.118849 
L 346.73916 49.260526 
L 347.857397 47.324476 
L 348.975633 46.347124 
L 350.09387 46.347124 
L 351.212106 47.324476 
L 352.330343 49.260526 
L 353.448579 52.118849 
L 354.566816 55.846936 
L 355.685052 60.37854 
L 356.803289 65.636497 
L 359.039762 77.986737 
L 361.276234 92.178634 
L 364.630944 115.393015 
L 370.222126 154.57496 
L 373.576836 176.376087 
L 375.813309 189.804037 
L 378.049782 202.265815 
L 380.286255 213.75052 
L 382.522727 224.281651 
L 384.7592 233.904647 
L 386.995673 242.677641 
L 389.232146 250.664872 
L 391.468619 257.932201 
L 393.705092 264.54418 
L 395.941565 270.562257 
L 398.178038 276.043776 
L 400.414511 281.041504 
L 402.650984 285.603516 
L 404.887457 289.773305 
L 407.12393 293.590018 
L 409.360403 297.08877 
L 411.596876 300.300982 
L 414.951585 304.642621 
L 418.306295 308.484408 
L 421.661004 311.895839 
L 425.015713 314.935579 
L 428.370423 317.653231 
L 431.725132 320.090835 
L 435.079842 322.284117 
L 438.434551 324.263525 
L 442.907497 326.614492 
L 447.380443 328.682831 
L 451.853389 330.510945 
L 457.444571 332.510926 
L 463.035754 334.245172 
L 468.626936 335.757905 
L 475.336355 337.330361 
L 482.045774 338.683603 
L 489.873429 340.036099 
L 498.819321 341.340585 
L 508.883449 342.564016 
L 520.065814 343.686322 
L 532.366415 344.698087 
L 546.903489 345.66492 
L 563.677036 346.550553 
L 583.805293 347.377217 
L 607.288259 348.111445 
L 628.534752 348.624514 
L 628.534752 348.624514 
" clip-path="url(#p8d1d5aa35a)" style="fill: none; stroke: #ff0000; stroke-width: 2; stroke-linecap: square"/>
   </g>
   <g id="patch_3">
    <path d="M 42.634752 363.744514 
L 42.634752 31.104514 
" style="fill: none; stroke: #000000; stroke-width: 0.8; stroke-linejoin: miter; stroke-linecap: square"/>
   </g>
   <g id="patch_4">
    <path d="M 656.434752 363.744514 
L 656.434752 31.104514 
" style="fill: none; stroke: #000000; stroke-width: 0.8; stroke-linejoin: miter; stroke-linecap: square"/>
   </g>
   <g id="patch_5">
    <path d="M 42.634752 363.744514 
L 656.434752 363.744514 
" style="fill: none; stroke: #000000; stroke-width: 0.8; stroke-linejoin: miter; stroke-linecap: square"/>
   </g>
   <g id="patch_6">
    <path d="M 42.634752 31.104514 
L 656.434752 31.104514 
" style="fill: none; stroke: #000000; stroke-width: 0.8; stroke-linejoin: miter; stroke-linecap: square"/>
   </g>
   <g id="text_12">
    <!-- $N = 25$ -->
    <g transform="translate(305.331784 24.729966) scale(0.288 -0.288)">
     <defs>
      <path id="CMMI12-4e" d="M 4736 3698 
C 4806 3974 4909 4166 5395 4166 
C 5414 4166 5491 4166 5491 4279 
C 5491 4352 5434 4352 5408 4352 
C 5280 4352 4954 4352 4826 4352 
L 4518 4352 
C 4429 4352 4314 4352 4224 4352 
C 4186 4352 4109 4352 4109 4230 
C 4109 4166 4160 4166 4205 4166 
C 4589 4166 4614 4019 4614 3903 
C 4614 3846 4608 3826 4589 3737 
L 3866 850 
L 2496 4249 
C 2451 4352 2445 4352 2304 4352 
L 1523 4352 
C 1395 4352 1338 4352 1338 4230 
C 1338 4166 1382 4166 1504 4166 
C 1536 4166 1914 4166 1914 4115 
C 1914 4102 1901 4051 1894 4032 
L 1043 635 
C 966 320 813 186 390 186 
C 358 186 294 186 294 67 
C 294 0 358 0 378 0 
C 506 0 832 0 960 0 
L 1267 0 
C 1357 0 1466 0 1555 0 
C 1600 0 1670 0 1670 122 
C 1670 180 1606 186 1581 186 
C 1370 186 1165 224 1165 454 
C 1165 505 1178 562 1190 613 
L 2054 4032 
C 2093 3968 2093 3956 2118 3898 
L 3642 115 
C 3674 38 3686 0 3744 0 
C 3808 0 3814 19 3840 128 
L 4736 3698 
z
" transform="scale(0.015625)"/>
      <path id="CMR17-3d" d="M 4115 2017 
C 4211 2017 4307 2017 4307 2125 
C 4307 2240 4198 2240 4090 2240 
L 512 2240 
C 403 2240 294 2240 294 2125 
C 294 2017 390 2017 486 2017 
L 4115 2017 
z
M 4090 896 
C 4198 896 4307 896 4307 1011 
C 4307 1119 4211 1119 4115 1119 
L 486 1119 
C 390 1119 294 1119 294 1011 
C 294 896 403 896 512 896 
L 4090 896 
z
" transform="scale(0.015625)"/>
      <path id="CMR17-35" d="M 730 3692 
C 794 3666 1056 3584 1325 3584 
C 1920 3584 2246 3911 2432 4100 
C 2432 4157 2432 4192 2394 4192 
C 2387 4192 2374 4192 2323 4163 
C 2099 4058 1837 3973 1517 3973 
C 1325 3973 1037 3999 723 4139 
C 653 4171 640 4171 634 4171 
C 602 4171 595 4164 595 4037 
L 595 2203 
C 595 2089 595 2057 659 2057 
C 691 2057 704 2070 736 2114 
C 941 2401 1222 2522 1542 2522 
C 1766 2522 2246 2382 2246 1289 
C 2246 1085 2246 715 2054 421 
C 1894 159 1645 25 1370 25 
C 947 25 518 320 403 814 
C 429 807 480 795 506 795 
C 589 795 749 840 749 1038 
C 749 1210 627 1280 506 1280 
C 358 1280 262 1190 262 1011 
C 262 454 704 -128 1382 -128 
C 2042 -128 2669 440 2669 1264 
C 2669 2030 2170 2624 1549 2624 
C 1222 2624 947 2503 730 2274 
L 730 3692 
z
" transform="scale(0.015625)"/>
     </defs>
     <use xlink:href="#CMMI12-4e" transform="scale(0.996264)"/>
     <use xlink:href="#CMR17-3d" transform="translate(116.195781 0) scale(0.996264)"/>
     <use xlink:href="#CMR17-32" transform="translate(215.584578 0) scale(0.996264)"/>
     <use xlink:href="#CMR17-35" transform="translate(261.275056 0) scale(0.996264)"/>
    </g>
   </g>
   <g id="legend_1">
    <g id="patch_7">
     <path d="M 465.878057 160.252887 
L 639.634752 160.252887 
Q 644.434752 160.252887 644.434752 155.452887 
L 644.434752 47.904514 
Q 644.434752 43.104514 639.634752 43.104514 
L 465.878057 43.104514 
Q 461.078057 43.104514 461.078057 47.904514 
L 461.078057 155.452887 
Q 461.078057 160.252887 465.878057 160.252887 
z
" style="fill: #ffffff; opacity: 0.8; stroke: #cccccc; stroke-linejoin: miter"/>
    </g>
    <g id="line2d_24">
     <path d="M 470.678057 64.504946 
L 494.678057 64.504946 
L 518.678057 64.504946 
" style="fill: none; stroke: #ff0000; stroke-width: 2; stroke-linecap: square"/>
    </g>
    <g id="text_13">
     <!-- $y=\frac 1{1+25x^2}$ -->
     <g transform="translate(537.878057 72.904946) scale(0.24 -0.24)">
      <defs>
       <path id="CMMI12-79" d="M 1683 -700 
C 1510 -939 1261 -1152 947 -1152 
C 870 -1152 563 -1152 467 -889 
C 486 -895 518 -895 531 -895 
C 723 -895 851 -729 851 -582 
C 851 -435 730 -384 634 -384 
C 531 -384 307 -458 307 -759 
C 307 -1071 582 -1286 947 -1286 
C 1587 -1286 2234 -700 2413 6 
L 3040 2485 
C 3046 2517 3059 2556 3059 2594 
C 3059 2689 2982 2753 2886 2753 
C 2829 2753 2694 2727 2643 2535 
L 2170 658 
C 2138 543 2138 530 2086 460 
C 1958 281 1747 64 1440 64 
C 1082 64 1050 415 1050 588 
C 1050 952 1222 1443 1395 1903 
C 1466 2088 1504 2178 1504 2305 
C 1504 2574 1312 2816 998 2816 
C 410 2816 173 1890 173 1839 
C 173 1814 198 1782 243 1782 
C 301 1782 307 1807 333 1897 
C 486 2433 730 2689 979 2689 
C 1037 2689 1146 2689 1146 2478 
C 1146 2312 1075 2127 979 1884 
C 666 1047 666 837 666 683 
C 666 77 1101 -64 1421 -64 
C 1606 -64 1837 -6 2061 230 
L 2067 224 
C 1971 -147 1907 -392 1683 -700 
z
" transform="scale(0.015625)"/>
       <path id="CMR17-2b" d="M 2413 1472 
L 4109 1472 
C 4198 1472 4307 1472 4307 1580 
C 4307 1695 4205 1695 4109 1695 
L 2413 1695 
L 2413 3386 
C 2413 3475 2413 3584 2304 3584 
C 2189 3584 2189 3482 2189 3386 
L 2189 1695 
L 493 1695 
C 403 1695 294 1695 294 1587 
C 294 1472 397 1472 493 1472 
L 2189 1472 
L 2189 -218 
C 2189 -307 2189 -416 2298 -416 
C 2413 -416 2413 -314 2413 -218 
L 2413 1472 
z
" transform="scale(0.015625)"/>
       <path id="CMMI12-78" d="M 3034 2606 
C 2829 2567 2752 2414 2752 2293 
C 2752 2139 2874 2088 2963 2088 
C 3155 2088 3290 2254 3290 2427 
C 3290 2695 2982 2816 2714 2816 
C 2323 2816 2106 2433 2048 2312 
C 1901 2816 1504 2816 1389 2816 
C 736 2816 390 1980 390 1839 
C 390 1814 416 1782 461 1782 
C 512 1782 525 1820 538 1846 
C 755 2555 1184 2689 1370 2689 
C 1658 2689 1715 2420 1715 2267 
C 1715 2127 1677 1980 1600 1673 
L 1382 798 
C 1286 415 1101 64 762 64 
C 730 64 570 64 435 147 
C 666 192 717 383 717 460 
C 717 588 621 664 499 664 
C 346 664 179 530 179 326 
C 179 57 480 -64 755 -64 
C 1062 -64 1280 179 1414 441 
C 1517 64 1837 -64 2074 -64 
C 2726 -64 3072 773 3072 913 
C 3072 945 3046 971 3008 971 
C 2950 971 2944 939 2925 888 
C 2752 326 2381 64 2093 64 
C 1869 64 1747 230 1747 492 
C 1747 632 1773 734 1875 1156 
L 2099 2024 
C 2195 2408 2413 2689 2707 2689 
C 2720 2689 2899 2689 3034 2606 
z
" transform="scale(0.015625)"/>
      </defs>
      <use xlink:href="#CMMI12-79" transform="scale(0.996264)"/>
      <use xlink:href="#CMR17-3d" transform="translate(78.812789 0) scale(0.996264)"/>
      <use xlink:href="#CMR17-31" transform="translate(267.553863 39.226102) scale(0.697382)"/>
      <use xlink:href="#CMR17-31" transform="translate(179.3971 -34.355253) scale(0.697382)"/>
      <use xlink:href="#CMR17-2b" transform="translate(211.380282 -34.355253) scale(0.697382)"/>
      <use xlink:href="#CMR17-32" transform="translate(261.580414 -34.355253) scale(0.697382)"/>
      <use xlink:href="#CMR17-35" transform="translate(293.563596 -34.355253) scale(0.697382)"/>
      <use xlink:href="#CMMI12-78" transform="translate(325.546778 -34.355253) scale(0.697382)"/>
      <use xlink:href="#CMR17-32" transform="translate(364.350437 -14.20868) scale(0.498132)"/>
      <path d="M 179.3971 22.914133 
L 387.693808 22.914133 
L 387.693808 26.899083 
L 179.3971 26.899083 
L 179.3971 22.914133 
z
"/>
     </g>
    </g>
    <g id="PathCollection_3">
     <g>
      <use xlink:href="#m28d905b034" x="494.678057" y="104.928665" style="fill: #0000ff; stroke: #0000ff"/>
     </g>
    </g>
    <g id="text_14">
     <!-- train -->
     <g transform="translate(537.878057 111.228665) scale(0.24 -0.24)">
      <defs>
       <path id="SFTT3583-74" d="M 960 2752 
L 486 2752 
C 442 2752 397 2752 352 2752 
C 224 2752 147 2709 147 2602 
C 147 2483 237 2459 320 2459 
L 960 2459 
L 960 637 
C 998 242 1261 -32 1683 -32 
C 2125 -32 2669 191 2669 751 
L 2669 898 
C 2669 993 2624 1076 2515 1076 
C 2413 1076 2362 1006 2362 904 
L 2362 783 
C 2362 407 2080 261 1786 261 
C 1370 261 1267 535 1267 809 
L 1267 2459 
L 2227 2459 
C 2259 2459 2304 2459 2342 2459 
C 2451 2459 2534 2490 2534 2627 
C 2534 2739 2432 2752 2355 2752 
L 1267 2752 
L 1267 3351 
C 1267 3439 1235 3520 1120 3520 
C 1011 3520 954 3451 954 3333 
C 954 3290 960 3239 960 3201 
L 960 2752 
z
" transform="scale(0.015625)"/>
       <path id="SFTT3583-72" d="M 1274 2100 
L 1267 2599 
C 1267 2707 1210 2752 1101 2752 
L 486 2752 
C 384 2752 320 2714 320 2605 
C 320 2497 390 2459 499 2459 
L 960 2459 
L 960 293 
L 486 293 
C 378 293 320 236 320 147 
C 320 51 378 0 480 0 
L 1952 0 
C 2029 13 2067 77 2067 147 
C 2067 242 2016 293 1894 293 
L 1267 293 
L 1267 1232 
C 1267 1845 1632 2496 2336 2496 
L 2426 2496 
C 2598 2496 2509 2318 2714 2318 
C 2810 2318 2893 2393 2893 2494 
C 2893 2751 2573 2789 2362 2789 
L 2298 2789 
C 1882 2789 1408 2473 1274 2100 
z
" transform="scale(0.015625)"/>
       <path id="SFTT3583-61" d="M 2093 1625 
C 1472 1625 365 1490 365 716 
C 365 294 717 -32 1158 -32 
C 1498 -32 1882 77 2112 326 
C 2144 114 2349 -32 2554 -32 
C 2842 -32 3078 194 3078 490 
L 3078 580 
C 3078 613 3085 652 3085 691 
C 3085 789 3027 861 2925 861 
C 2829 861 2771 795 2771 704 
L 2771 665 
C 2771 619 2778 574 2778 528 
C 2778 410 2714 267 2586 267 
C 2470 267 2400 377 2400 506 
L 2400 1938 
C 2355 2462 1888 2816 1376 2816 
C 1037 2816 544 2646 544 2216 
C 544 2096 627 2026 730 2026 
C 838 2026 909 2108 909 2208 
L 909 2234 
C 902 2252 890 2277 890 2303 
L 890 2316 
C 934 2473 1248 2523 1370 2523 
C 1632 2523 1888 2397 2016 2158 
C 2086 2026 2093 1882 2093 1744 
L 2093 1625 
z
M 2093 1408 
L 2093 870 
C 2093 434 1702 261 1299 261 
C 1037 261 672 389 672 723 
C 672 1113 1171 1286 1478 1351 
C 1683 1389 1888 1408 2093 1408 
z
" transform="scale(0.015625)"/>
       <path id="SFTT3583-69" d="M 1478 2432 
L 1478 293 
L 813 293 
C 691 293 621 249 621 147 
C 621 77 659 13 736 0 
L 2394 0 
C 2490 0 2554 38 2554 144 
C 2554 249 2470 293 2368 293 
C 2323 293 2278 293 2240 293 
L 1786 293 
L 1786 2548 
C 1786 2713 1715 2732 1613 2732 
L 864 2732 
C 774 2732 666 2719 666 2585 
C 666 2471 749 2432 858 2432 
C 902 2432 954 2432 998 2432 
L 1478 2432 
z
M 1549 3898 
C 1523 3898 1498 3885 1472 3872 
L 1414 3814 
C 1389 3782 1382 3743 1382 3705 
C 1382 3602 1466 3499 1581 3499 
C 1619 3499 1658 3512 1696 3531 
L 1754 3589 
C 1779 3621 1786 3660 1786 3698 
C 1786 3801 1702 3904 1587 3904 
C 1574 3904 1562 3898 1549 3898 
z
" transform="scale(0.015625)"/>
       <path id="SFTT3583-6e" d="M 941 2312 
L 934 2573 
C 934 2688 902 2752 774 2752 
L 346 2752 
C 250 2752 173 2707 173 2605 
C 173 2503 250 2459 352 2459 
L 627 2459 
L 627 293 
L 333 293 
C 237 293 173 236 173 147 
C 173 39 256 0 352 0 
L 1203 0 
C 1299 0 1382 32 1382 147 
C 1382 236 1331 293 1229 293 
L 934 293 
L 934 1641 
C 960 2037 1178 2496 1619 2496 
C 2061 2496 2176 2189 2176 1819 
L 2176 293 
L 1882 293 
C 1786 293 1722 236 1722 147 
C 1722 39 1805 0 1901 0 
L 2752 0 
C 2848 0 2931 32 2931 147 
C 2931 236 2880 293 2778 293 
L 2483 293 
L 2483 1864 
C 2483 2291 2355 2789 1734 2789 
C 1414 2789 1082 2619 941 2312 
z
" transform="scale(0.015625)"/>
      </defs>
      <use xlink:href="#SFTT3583-74" transform="scale(0.996264)"/>
      <use xlink:href="#SFTT3583-72" transform="translate(48.495008 0) scale(0.996264)"/>
      <use xlink:href="#SFTT3583-61" transform="translate(96.990017 0) scale(0.996264)"/>
      <use xlink:href="#SFTT3583-69" transform="translate(145.485025 0) scale(0.996264)"/>
      <use xlink:href="#SFTT3583-6e" transform="translate(193.980033 0) scale(0.996264)"/>
     </g>
    </g>
    <g id="PathCollection_4">
     <g>
      <use xlink:href="#mcca4a9cc10" x="494.678057" y="139.040776" style="fill: #ffffff; stroke: #0000ff; stroke-width: 1.5"/>
     </g>
    </g>
    <g id="text_15">
     <!-- test -->
     <g transform="translate(537.878057 145.340776) scale(0.24 -0.24)">
      <defs>
       <path id="SFTT3583-65" d="M 691 1287 
L 2573 1287 
C 2675 1287 2733 1338 2733 1447 
L 2733 1511 
C 2733 2163 2362 2816 1606 2816 
C 858 2816 378 2098 378 1405 
C 378 743 806 38 1606 -32 
L 1683 -32 
C 2106 -32 2592 208 2714 632 
C 2720 656 2726 682 2726 707 
C 2726 789 2662 827 2573 827 
C 2413 827 2419 689 2368 601 
C 2240 393 2003 261 1754 261 
C 1210 261 691 758 691 1287 
z
M 691 1536 
C 710 1620 717 1702 742 1786 
C 864 2177 1184 2516 1619 2516 
C 2157 2516 2419 2023 2419 1536 
L 691 1536 
z
" transform="scale(0.015625)"/>
       <path id="SFTT3583-73" d="M 730 350 
C 966 82 1254 -32 1587 -32 
C 2061 -32 2720 133 2720 777 
C 2720 1503 1830 1586 1434 1656 
C 1274 1681 723 1752 723 2089 
C 723 2516 1376 2516 1536 2516 
C 1837 2516 2170 2389 2221 2056 
C 2253 1955 2202 1809 2362 1809 
L 2413 1809 
C 2515 1809 2554 1854 2554 1943 
C 2554 1975 2547 2013 2547 2039 
L 2547 2676 
C 2547 2758 2528 2816 2438 2816 
C 2330 2816 2291 2669 2278 2580 
C 2189 2637 2112 2701 2010 2739 
C 1862 2797 1702 2816 1549 2816 
C 1050 2816 429 2660 429 2105 
C 429 1355 1638 1355 2048 1203 
C 2234 1136 2426 990 2426 790 
L 2426 758 
C 2368 344 1933 261 1613 261 
C 1210 261 922 465 774 923 
C 749 1051 742 1159 602 1159 
L 563 1159 
C 474 1159 422 1134 422 993 
C 422 936 429 885 429 834 
L 429 114 
C 429 38 442 -32 538 -32 
C 666 -32 698 216 730 350 
z
" transform="scale(0.015625)"/>
      </defs>
      <use xlink:href="#SFTT3583-74" transform="scale(0.996264)"/>
      <use xlink:href="#SFTT3583-65" transform="translate(48.495008 0) scale(0.996264)"/>
      <use xlink:href="#SFTT3583-73" transform="translate(96.990017 0) scale(0.996264)"/>
      <use xlink:href="#SFTT3583-74" transform="translate(145.485025 0) scale(0.996264)"/>
     </g>
    </g>
   </g>
  </g>
 </g>
 <defs>
  <clipPath id="p8d1d5aa35a">
   <rect x="42.634752" y="31.104514" width="613.8" height="332.64"/>
  </clipPath>
 </defs>
</svg>