<?xml version="1.0" encoding="utf-8" standalone="no"?>
<!DOCTYPE svg PUBLIC "-//W3C//DTD SVG 1.1//EN"
  "http://www.w3.org/Graphics/SVG/1.1/DTD/svg11.dtd">
<svg xmlns:xlink="http://www.w3.org/1999/xlink" width="606.109668pt" height="337.395585pt" viewBox="0 0 606.109668 337.395585" xmlns="http://www.w3.org/2000/svg" version="1.1">
 <metadata>
  <rdf:RDF xmlns:dc="http://purl.org/dc/elements/1.1/" xmlns:cc="http://creativecommons.org/ns#" xmlns:rdf="http://www.w3.org/1999/02/22-rdf-syntax-ns#">
   <cc:Work>
    <dc:type rdf:resource="http://purl.org/dc/dcmitype/StillImage"/>
    <dc:date>2024-10-15T18:22:33.728044</dc:date>
    <dc:format>image/svg+xml</dc:format>
    <dc:creator>
     <cc:Agent>
      <dc:title>Matplotlib v3.7.1, https://matplotlib.org/</dc:title>
     </cc:Agent>
    </dc:creator>
   </cc:Work>
  </rdf:RDF>
 </metadata>
 <defs>
  <style type="text/css">*{stroke-linejoin: round; stroke-linecap: butt}</style>
 </defs>
 <g id="figure_1">
  <g id="patch_1">
   <path d="M 0 337.395585 
L 606.109668 337.395585 
L 606.109668 0 
L 0 0 
z
" style="fill: #ffffff"/>
  </g>
  <g id="axes_1">
   <g id="patch_2">
    <path d="M 39.65 284.4 
L 597.65 284.4 
L 597.65 7.2 
L 39.65 7.2 
z
" style="fill: #ffffff"/>
   </g>
   <g id="patch_3">
    <path d="M 45.23 284.4 
L 56.39 284.4 
L 56.39 284.4 
L 45.23 284.4 
z
" clip-path="url(#p341a02710f)" style="fill: #1f77b4"/>
   </g>
   <g id="patch_4">
    <path d="M 67.55 284.4 
L 78.71 284.4 
L 78.71 284.4 
L 67.55 284.4 
z
" clip-path="url(#p341a02710f)" style="fill: #1f77b4"/>
   </g>
   <g id="patch_5">
    <path d="M 89.87 284.4 
L 101.03 284.4 
L 101.03 284.394601 
L 89.87 284.394601 
z
" clip-path="url(#p341a02710f)" style="fill: #1f77b4"/>
   </g>
   <g id="patch_6">
    <path d="M 112.19 284.4 
L 123.35 284.4 
L 123.35 284.294723 
L 112.19 284.294723 
z
" clip-path="url(#p341a02710f)" style="fill: #1f77b4"/>
   </g>
   <g id="patch_7">
    <path d="M 134.51 284.4 
L 145.67 284.4 
L 145.67 282.264763 
L 134.51 282.264763 
z
" clip-path="url(#p341a02710f)" style="fill: #1f77b4"/>
   </g>
   <g id="patch_8">
    <path d="M 156.83 284.4 
L 167.99 284.4 
L 167.99 280.259099 
L 156.83 280.259099 
z
" clip-path="url(#p341a02710f)" style="fill: #1f77b4"/>
   </g>
   <g id="patch_9">
    <path d="M 179.15 284.4 
L 190.31 284.4 
L 190.31 279.505962 
L 179.15 279.505962 
z
" clip-path="url(#p341a02710f)" style="fill: #1f77b4"/>
   </g>
   <g id="patch_10">
    <path d="M 201.47 284.4 
L 212.63 284.4 
L 212.63 278.104966 
L 201.47 278.104966 
z
" clip-path="url(#p341a02710f)" style="fill: #1f77b4"/>
   </g>
   <g id="patch_11">
    <path d="M 223.79 284.4 
L 234.95 284.4 
L 234.95 273.780505 
L 223.79 273.780505 
z
" clip-path="url(#p341a02710f)" style="fill: #1f77b4"/>
   </g>
   <g id="patch_12">
    <path d="M 246.11 284.4 
L 257.27 284.4 
L 257.27 246.791763 
L 246.11 246.791763 
z
" clip-path="url(#p341a02710f)" style="fill: #1f77b4"/>
   </g>
   <g id="patch_13">
    <path d="M 268.43 284.4 
L 279.59 284.4 
L 279.59 240.194395 
L 268.43 240.194395 
z
" clip-path="url(#p341a02710f)" style="fill: #1f77b4"/>
   </g>
   <g id="patch_14">
    <path d="M 290.75 284.4 
L 301.91 284.4 
L 301.91 245.776783 
L 290.75 245.776783 
z
" clip-path="url(#p341a02710f)" style="fill: #1f77b4"/>
   </g>
   <g id="patch_15">
    <path d="M 313.07 284.4 
L 324.23 284.4 
L 324.23 237.462588 
L 313.07 237.462588 
z
" clip-path="url(#p341a02710f)" style="fill: #1f77b4"/>
   </g>
   <g id="patch_16">
    <path d="M 335.39 284.4 
L 346.55 284.4 
L 346.55 236.309938 
L 335.39 236.309938 
z
" clip-path="url(#p341a02710f)" style="fill: #1f77b4"/>
   </g>
   <g id="patch_17">
    <path d="M 357.71 284.4 
L 368.87 284.4 
L 368.87 223.476923 
L 357.71 223.476923 
z
" clip-path="url(#p341a02710f)" style="fill: #1f77b4"/>
   </g>
   <g id="patch_18">
    <path d="M 380.03 284.4 
L 391.19 284.4 
L 391.19 220.799104 
L 380.03 220.799104 
z
" clip-path="url(#p341a02710f)" style="fill: #1f77b4"/>
   </g>
   <g id="patch_19">
    <path d="M 402.35 284.4 
L 413.51 284.4 
L 413.51 215.227514 
L 402.35 215.227514 
z
" clip-path="url(#p341a02710f)" style="fill: #1f77b4"/>
   </g>
   <g id="patch_20">
    <path d="M 424.67 284.4 
L 435.83 284.4 
L 435.83 221.849176 
L 424.67 221.849176 
z
" clip-path="url(#p341a02710f)" style="fill: #1f77b4"/>
   </g>
   <g id="patch_21">
    <path d="M 446.99 284.4 
L 458.15 284.4 
L 458.15 226.837694 
L 446.99 226.837694 
z
" clip-path="url(#p341a02710f)" style="fill: #1f77b4"/>
   </g>
   <g id="patch_22">
    <path d="M 469.31 284.4 
L 480.47 284.4 
L 480.47 232.943768 
L 469.31 232.943768 
z
" clip-path="url(#p341a02710f)" style="fill: #1f77b4"/>
   </g>
   <g id="patch_23">
    <path d="M 491.63 284.4 
L 502.79 284.4 
L 502.79 248.244047 
L 491.63 248.244047 
z
" clip-path="url(#p341a02710f)" style="fill: #1f77b4"/>
   </g>
   <g id="patch_24">
    <path d="M 513.95 284.4 
L 525.11 284.4 
L 525.11 251.766783 
L 513.95 251.766783 
z
" clip-path="url(#p341a02710f)" style="fill: #1f77b4"/>
   </g>
   <g id="patch_25">
    <path d="M 536.27 284.4 
L 547.43 284.4 
L 547.43 262.972051 
L 536.27 262.972051 
z
" clip-path="url(#p341a02710f)" style="fill: #1f77b4"/>
   </g>
   <g id="patch_26">
    <path d="M 558.59 284.4 
L 569.75 284.4 
L 569.75 266.084475 
L 558.59 266.084475 
z
" clip-path="url(#p341a02710f)" style="fill: #1f77b4"/>
   </g>
   <g id="patch_27">
    <path d="M 580.91 284.4 
L 592.07 284.4 
L 592.07 275.081623 
L 580.91 275.081623 
z
" clip-path="url(#p341a02710f)" style="fill: #1f77b4"/>
   </g>
   <g id="patch_28">
    <path d="M 45.23 284.4 
L 56.39 284.4 
L 56.39 284.391902 
L 45.23 284.391902 
z
" clip-path="url(#p341a02710f)" style="fill: #ff7f0e"/>
   </g>
   <g id="patch_29">
    <path d="M 67.55 284.4 
L 78.71 284.4 
L 78.71 284.394601 
L 67.55 284.394601 
z
" clip-path="url(#p341a02710f)" style="fill: #ff7f0e"/>
   </g>
   <g id="patch_30">
    <path d="M 89.87 284.4 
L 101.03 284.4 
L 101.03 284.4 
L 89.87 284.4 
z
" clip-path="url(#p341a02710f)" style="fill: #ff7f0e"/>
   </g>
   <g id="patch_31">
    <path d="M 112.19 284.294723 
L 123.35 284.294723 
L 123.35 284.224538 
L 112.19 284.224538 
z
" clip-path="url(#p341a02710f)" style="fill: #ff7f0e"/>
   </g>
   <g id="patch_32">
    <path d="M 134.51 282.264763 
L 145.67 282.264763 
L 145.67 280.407567 
L 134.51 280.407567 
z
" clip-path="url(#p341a02710f)" style="fill: #ff7f0e"/>
   </g>
   <g id="patch_33">
    <path d="M 156.83 280.259099 
L 167.99 280.259099 
L 167.99 277.918707 
L 156.83 277.918707 
z
" clip-path="url(#p341a02710f)" style="fill: #ff7f0e"/>
   </g>
   <g id="patch_34">
    <path d="M 179.15 279.505962 
L 190.31 279.505962 
L 190.31 276.231573 
L 179.15 276.231573 
z
" clip-path="url(#p341a02710f)" style="fill: #ff7f0e"/>
   </g>
   <g id="patch_35">
    <path d="M 201.47 278.104966 
L 212.63 278.104966 
L 212.63 273.869586 
L 201.47 273.869586 
z
" clip-path="url(#p341a02710f)" style="fill: #ff7f0e"/>
   </g>
   <g id="patch_36">
    <path d="M 223.79 273.780505 
L 234.95 273.780505 
L 234.95 266.977981 
L 223.79 266.977981 
z
" clip-path="url(#p341a02710f)" style="fill: #ff7f0e"/>
   </g>
   <g id="patch_37">
    <path d="M 246.11 246.791763 
L 257.27 246.791763 
L 257.27 227.126531 
L 246.11 227.126531 
z
" clip-path="url(#p341a02710f)" style="fill: #ff7f0e"/>
   </g>
   <g id="patch_38">
    <path d="M 268.43 240.194395 
L 279.59 240.194395 
L 279.59 217.511218 
L 268.43 217.511218 
z
" clip-path="url(#p341a02710f)" style="fill: #ff7f0e"/>
   </g>
   <g id="patch_39">
    <path d="M 290.75 245.776783 
L 301.91 245.776783 
L 301.91 225.487987 
L 290.75 225.487987 
z
" clip-path="url(#p341a02710f)" style="fill: #ff7f0e"/>
   </g>
   <g id="patch_40">
    <path d="M 313.07 237.462588 
L 324.23 237.462588 
L 324.23 215.054751 
L 313.07 215.054751 
z
" clip-path="url(#p341a02710f)" style="fill: #ff7f0e"/>
   </g>
   <g id="patch_41">
    <path d="M 335.39 236.309938 
L 346.55 236.309938 
L 346.55 212.906017 
L 335.39 212.906017 
z
" clip-path="url(#p341a02710f)" style="fill: #ff7f0e"/>
   </g>
   <g id="patch_42">
    <path d="M 357.71 223.476923 
L 368.87 223.476923 
L 368.87 195.259947 
L 357.71 195.259947 
z
" clip-path="url(#p341a02710f)" style="fill: #ff7f0e"/>
   </g>
   <g id="patch_43">
    <path d="M 380.03 220.799104 
L 391.19 220.799104 
L 391.19 187.134711 
L 380.03 187.134711 
z
" clip-path="url(#p341a02710f)" style="fill: #ff7f0e"/>
   </g>
   <g id="patch_44">
    <path d="M 402.35 215.227514 
L 413.51 215.227514 
L 413.51 178.161859 
L 402.35 178.161859 
z
" clip-path="url(#p341a02710f)" style="fill: #ff7f0e"/>
   </g>
   <g id="patch_45">
    <path d="M 424.67 221.849176 
L 435.83 221.849176 
L 435.83 183.096387 
L 424.67 183.096387 
z
" clip-path="url(#p341a02710f)" style="fill: #ff7f0e"/>
   </g>
   <g id="patch_46">
    <path d="M 446.99 226.837694 
L 458.15 226.837694 
L 458.15 191.710218 
L 446.99 191.710218 
z
" clip-path="url(#p341a02710f)" style="fill: #ff7f0e"/>
   </g>
   <g id="patch_47">
    <path d="M 469.31 232.943768 
L 480.47 232.943768 
L 480.47 198.42906 
L 469.31 198.42906 
z
" clip-path="url(#p341a02710f)" style="fill: #ff7f0e"/>
   </g>
   <g id="patch_48">
    <path d="M 491.63 248.244047 
L 502.79 248.244047 
L 502.79 221.498253 
L 491.63 221.498253 
z
" clip-path="url(#p341a02710f)" style="fill: #ff7f0e"/>
   </g>
   <g id="patch_49">
    <path d="M 513.95 251.766783 
L 525.11 251.766783 
L 525.11 225.976581 
L 513.95 225.976581 
z
" clip-path="url(#p341a02710f)" style="fill: #ff7f0e"/>
   </g>
   <g id="patch_50">
    <path d="M 536.27 262.972051 
L 547.43 262.972051 
L 547.43 242.343128 
L 536.27 242.343128 
z
" clip-path="url(#p341a02710f)" style="fill: #ff7f0e"/>
   </g>
   <g id="patch_51">
    <path d="M 558.59 266.084475 
L 569.75 266.084475 
L 569.75 249.750321 
L 558.59 249.750321 
z
" clip-path="url(#p341a02710f)" style="fill: #ff7f0e"/>
   </g>
   <g id="patch_52">
    <path d="M 580.91 275.081623 
L 592.07 275.081623 
L 592.07 264.005926 
L 580.91 264.005926 
z
" clip-path="url(#p341a02710f)" style="fill: #ff7f0e"/>
   </g>
   <g id="patch_53">
    <path d="M 45.23 284.4 
L 56.39 284.4 
L 56.39 284.4 
L 45.23 284.4 
z
" clip-path="url(#p341a02710f)" style="fill: #2ca02c"/>
   </g>
   <g id="patch_54">
    <path d="M 67.55 284.4 
L 78.71 284.4 
L 78.71 284.4 
L 67.55 284.4 
z
" clip-path="url(#p341a02710f)" style="fill: #2ca02c"/>
   </g>
   <g id="patch_55">
    <path d="M 89.87 284.4 
L 101.03 284.4 
L 101.03 284.4 
L 89.87 284.4 
z
" clip-path="url(#p341a02710f)" style="fill: #2ca02c"/>
   </g>
   <g id="patch_56">
    <path d="M 112.19 284.224538 
L 123.35 284.224538 
L 123.35 284.081469 
L 112.19 284.081469 
z
" clip-path="url(#p341a02710f)" style="fill: #2ca02c"/>
   </g>
   <g id="patch_57">
    <path d="M 134.51 280.407567 
L 145.67 280.407567 
L 145.67 279.311604 
L 134.51 279.311604 
z
" clip-path="url(#p341a02710f)" style="fill: #2ca02c"/>
   </g>
   <g id="patch_58">
    <path d="M 156.83 277.918707 
L 167.99 277.918707 
L 167.99 275.486535 
L 156.83 275.486535 
z
" clip-path="url(#p341a02710f)" style="fill: #2ca02c"/>
   </g>
   <g id="patch_59">
    <path d="M 179.15 276.231573 
L 190.31 276.231573 
L 190.31 273.313506 
L 179.15 273.313506 
z
" clip-path="url(#p341a02710f)" style="fill: #2ca02c"/>
   </g>
   <g id="patch_60">
    <path d="M 201.47 273.869586 
L 212.63 273.869586 
L 212.63 271.259252 
L 201.47 271.259252 
z
" clip-path="url(#p341a02710f)" style="fill: #2ca02c"/>
   </g>
   <g id="patch_61">
    <path d="M 223.79 266.977981 
L 234.95 266.977981 
L 234.95 263.935742 
L 223.79 263.935742 
z
" clip-path="url(#p341a02710f)" style="fill: #2ca02c"/>
   </g>
   <g id="patch_62">
    <path d="M 246.11 227.126531 
L 257.27 227.126531 
L 257.27 220.764012 
L 246.11 220.764012 
z
" clip-path="url(#p341a02710f)" style="fill: #2ca02c"/>
   </g>
   <g id="patch_63">
    <path d="M 268.43 217.511218 
L 279.59 217.511218 
L 279.59 212.487608 
L 268.43 212.487608 
z
" clip-path="url(#p341a02710f)" style="fill: #2ca02c"/>
   </g>
   <g id="patch_64">
    <path d="M 290.75 225.487987 
L 301.91 225.487987 
L 301.91 220.834197 
L 290.75 220.834197 
z
" clip-path="url(#p341a02710f)" style="fill: #2ca02c"/>
   </g>
   <g id="patch_65">
    <path d="M 313.07 215.054751 
L 324.23 215.054751 
L 324.23 208.916283 
L 313.07 208.916283 
z
" clip-path="url(#p341a02710f)" style="fill: #2ca02c"/>
   </g>
   <g id="patch_66">
    <path d="M 335.39 212.906017 
L 346.55 212.906017 
L 346.55 202.586157 
L 335.39 202.586157 
z
" clip-path="url(#p341a02710f)" style="fill: #2ca02c"/>
   </g>
   <g id="patch_67">
    <path d="M 357.71 195.259947 
L 368.87 195.259947 
L 368.87 184.346216 
L 357.71 184.346216 
z
" clip-path="url(#p341a02710f)" style="fill: #2ca02c"/>
   </g>
   <g id="patch_68">
    <path d="M 380.03 187.134711 
L 391.19 187.134711 
L 391.19 177.675964 
L 380.03 177.675964 
z
" clip-path="url(#p341a02710f)" style="fill: #2ca02c"/>
   </g>
   <g id="patch_69">
    <path d="M 402.35 178.161859 
L 413.51 178.161859 
L 413.51 168.060651 
L 402.35 168.060651 
z
" clip-path="url(#p341a02710f)" style="fill: #2ca02c"/>
   </g>
   <g id="patch_70">
    <path d="M 424.67 183.096387 
L 435.83 183.096387 
L 435.83 173.842796 
L 424.67 173.842796 
z
" clip-path="url(#p341a02710f)" style="fill: #2ca02c"/>
   </g>
   <g id="patch_71">
    <path d="M 446.99 191.710218 
L 458.15 191.710218 
L 458.15 184.910394 
L 446.99 184.910394 
z
" clip-path="url(#p341a02710f)" style="fill: #2ca02c"/>
   </g>
   <g id="patch_72">
    <path d="M 469.31 198.42906 
L 480.47 198.42906 
L 480.47 192.177217 
L 469.31 192.177217 
z
" clip-path="url(#p341a02710f)" style="fill: #2ca02c"/>
   </g>
   <g id="patch_73">
    <path d="M 491.63 221.498253 
L 502.79 221.498253 
L 502.79 214.112656 
L 491.63 214.112656 
z
" clip-path="url(#p341a02710f)" style="fill: #2ca02c"/>
   </g>
   <g id="patch_74">
    <path d="M 513.95 225.976581 
L 525.11 225.976581 
L 525.11 220.834197 
L 513.95 220.834197 
z
" clip-path="url(#p341a02710f)" style="fill: #2ca02c"/>
   </g>
   <g id="patch_75">
    <path d="M 536.27 242.343128 
L 547.43 242.343128 
L 547.43 238.55855 
L 536.27 238.55855 
z
" clip-path="url(#p341a02710f)" style="fill: #2ca02c"/>
   </g>
   <g id="patch_76">
    <path d="M 558.59 249.750321 
L 569.75 249.750321 
L 569.75 246.551515 
L 558.59 246.551515 
z
" clip-path="url(#p341a02710f)" style="fill: #2ca02c"/>
   </g>
   <g id="patch_77">
    <path d="M 580.91 264.005926 
L 592.07 264.005926 
L 592.07 262.834381 
L 580.91 262.834381 
z
" clip-path="url(#p341a02710f)" style="fill: #2ca02c"/>
   </g>
   <g id="patch_78">
    <path d="M 45.23 284.391902 
L 56.39 284.391902 
L 56.39 284.389202 
L 45.23 284.389202 
z
" clip-path="url(#p341a02710f)" style="fill: #d62728"/>
   </g>
   <g id="patch_79">
    <path d="M 67.55 284.394601 
L 78.71 284.394601 
L 78.71 284.391902 
L 67.55 284.391902 
z
" clip-path="url(#p341a02710f)" style="fill: #d62728"/>
   </g>
   <g id="patch_80">
    <path d="M 89.87 284.4 
L 101.03 284.4 
L 101.03 284.4 
L 89.87 284.4 
z
" clip-path="url(#p341a02710f)" style="fill: #d62728"/>
   </g>
   <g id="patch_81">
    <path d="M 112.19 284.081469 
L 123.35 284.081469 
L 123.35 284.059874 
L 112.19 284.059874 
z
" clip-path="url(#p341a02710f)" style="fill: #d62728"/>
   </g>
   <g id="patch_82">
    <path d="M 134.51 279.311604 
L 145.67 279.311604 
L 145.67 278.976877 
L 134.51 278.976877 
z
" clip-path="url(#p341a02710f)" style="fill: #d62728"/>
   </g>
   <g id="patch_83">
    <path d="M 156.83 275.486535 
L 167.99 275.486535 
L 167.99 274.941253 
L 156.83 274.941253 
z
" clip-path="url(#p341a02710f)" style="fill: #d62728"/>
   </g>
   <g id="patch_84">
    <path d="M 179.15 273.313506 
L 190.31 273.313506 
L 190.31 272.735832 
L 179.15 272.735832 
z
" clip-path="url(#p341a02710f)" style="fill: #d62728"/>
   </g>
   <g id="patch_85">
    <path d="M 201.47 271.259252 
L 212.63 271.259252 
L 212.63 270.597896 
L 201.47 270.597896 
z
" clip-path="url(#p341a02710f)" style="fill: #d62728"/>
   </g>
   <g id="patch_86">
    <path d="M 223.79 263.935742 
L 234.95 263.935742 
L 234.95 262.453763 
L 223.79 262.453763 
z
" clip-path="url(#p341a02710f)" style="fill: #d62728"/>
   </g>
   <g id="patch_87">
    <path d="M 246.11 220.764012 
L 257.27 220.764012 
L 257.27 215.834882 
L 246.11 215.834882 
z
" clip-path="url(#p341a02710f)" style="fill: #d62728"/>
   </g>
   <g id="patch_88">
    <path d="M 268.43 212.487608 
L 279.59 212.487608 
L 279.59 206.467915 
L 268.43 206.467915 
z
" clip-path="url(#p341a02710f)" style="fill: #d62728"/>
   </g>
   <g id="patch_89">
    <path d="M 290.75 220.834197 
L 301.91 220.834197 
L 301.91 215.52175 
L 290.75 215.52175 
z
" clip-path="url(#p341a02710f)" style="fill: #d62728"/>
   </g>
   <g id="patch_90">
    <path d="M 313.07 208.916283 
L 324.23 208.916283 
L 324.23 197.540952 
L 313.07 197.540952 
z
" clip-path="url(#p341a02710f)" style="fill: #d62728"/>
   </g>
   <g id="patch_91">
    <path d="M 335.39 202.586157 
L 346.55 202.586157 
L 346.55 194.204477 
L 335.39 194.204477 
z
" clip-path="url(#p341a02710f)" style="fill: #d62728"/>
   </g>
   <g id="patch_92">
    <path d="M 357.71 184.346216 
L 368.87 184.346216 
L 368.87 171.955905 
L 357.71 171.955905 
z
" clip-path="url(#p341a02710f)" style="fill: #d62728"/>
   </g>
   <g id="patch_93">
    <path d="M 380.03 177.675964 
L 391.19 177.675964 
L 391.19 161.312116 
L 380.03 161.312116 
z
" clip-path="url(#p341a02710f)" style="fill: #d62728"/>
   </g>
   <g id="patch_94">
    <path d="M 402.35 168.060651 
L 413.51 168.060651 
L 413.51 152.433743 
L 402.35 152.433743 
z
" clip-path="url(#p341a02710f)" style="fill: #d62728"/>
   </g>
   <g id="patch_95">
    <path d="M 424.67 173.842796 
L 435.83 173.842796 
L 435.83 160.27824 
L 424.67 160.27824 
z
" clip-path="url(#p341a02710f)" style="fill: #d62728"/>
   </g>
   <g id="patch_96">
    <path d="M 446.99 184.910394 
L 458.15 184.910394 
L 458.15 172.968186 
L 446.99 172.968186 
z
" clip-path="url(#p341a02710f)" style="fill: #d62728"/>
   </g>
   <g id="patch_97">
    <path d="M 469.31 192.177217 
L 480.47 192.177217 
L 480.47 180.812683 
L 469.31 180.812683 
z
" clip-path="url(#p341a02710f)" style="fill: #d62728"/>
   </g>
   <g id="patch_98">
    <path d="M 491.63 214.112656 
L 502.79 214.112656 
L 502.79 205.590605 
L 491.63 205.590605 
z
" clip-path="url(#p341a02710f)" style="fill: #d62728"/>
   </g>
   <g id="patch_99">
    <path d="M 513.95 220.834197 
L 525.11 220.834197 
L 525.11 212.25006 
L 513.95 212.25006 
z
" clip-path="url(#p341a02710f)" style="fill: #d62728"/>
   </g>
   <g id="patch_100">
    <path d="M 536.27 238.55855 
L 547.43 238.55855 
L 547.43 232.463273 
L 536.27 232.463273 
z
" clip-path="url(#p341a02710f)" style="fill: #d62728"/>
   </g>
   <g id="patch_101">
    <path d="M 558.59 246.551515 
L 569.75 246.551515 
L 569.75 241.46042 
L 558.59 241.46042 
z
" clip-path="url(#p341a02710f)" style="fill: #d62728"/>
   </g>
   <g id="patch_102">
    <path d="M 580.91 262.834381 
L 592.07 262.834381 
L 592.07 259.70576 
L 580.91 259.70576 
z
" clip-path="url(#p341a02710f)" style="fill: #d62728"/>
   </g>
   <g id="patch_103">
    <path d="M 45.23 284.389202 
L 56.39 284.389202 
L 56.39 284.381104 
L 45.23 284.381104 
z
" clip-path="url(#p341a02710f)" style="fill: #9467bd"/>
   </g>
   <g id="patch_104">
    <path d="M 67.55 284.391902 
L 78.71 284.391902 
L 78.71 284.383804 
L 67.55 284.383804 
z
" clip-path="url(#p341a02710f)" style="fill: #9467bd"/>
   </g>
   <g id="patch_105">
    <path d="M 89.87 284.394601 
L 101.03 284.394601 
L 101.03 284.386503 
L 89.87 284.386503 
z
" clip-path="url(#p341a02710f)" style="fill: #9467bd"/>
   </g>
   <g id="patch_106">
    <path d="M 112.19 284.059874 
L 123.35 284.059874 
L 123.35 283.717048 
L 112.19 283.717048 
z
" clip-path="url(#p341a02710f)" style="fill: #9467bd"/>
   </g>
   <g id="patch_107">
    <path d="M 134.51 278.976877 
L 145.67 278.976877 
L 145.67 273.551055 
L 134.51 273.551055 
z
" clip-path="url(#p341a02710f)" style="fill: #9467bd"/>
   </g>
   <g id="patch_108">
    <path d="M 156.83 274.941253 
L 167.99 274.941253 
L 167.99 265.490604 
L 156.83 265.490604 
z
" clip-path="url(#p341a02710f)" style="fill: #9467bd"/>
   </g>
   <g id="patch_109">
    <path d="M 179.15 272.735832 
L 190.31 272.735832 
L 190.31 261.079762 
L 179.15 261.079762 
z
" clip-path="url(#p341a02710f)" style="fill: #9467bd"/>
   </g>
   <g id="patch_110">
    <path d="M 201.47 270.597896 
L 212.63 270.597896 
L 212.63 256.784994 
L 201.47 256.784994 
z
" clip-path="url(#p341a02710f)" style="fill: #9467bd"/>
   </g>
   <g id="patch_111">
    <path d="M 223.79 262.453763 
L 234.95 262.453763 
L 234.95 240.523723 
L 223.79 240.523723 
z
" clip-path="url(#p341a02710f)" style="fill: #9467bd"/>
   </g>
   <g id="patch_112">
    <path d="M 246.11 215.834882 
L 257.27 215.834882 
L 257.27 147.302156 
L 246.11 147.302156 
z
" clip-path="url(#p341a02710f)" style="fill: #9467bd"/>
   </g>
   <g id="patch_113">
    <path d="M 268.43 206.467915 
L 279.59 206.467915 
L 279.59 128.498038 
L 268.43 128.498038 
z
" clip-path="url(#p341a02710f)" style="fill: #9467bd"/>
   </g>
   <g id="patch_114">
    <path d="M 290.75 215.52175 
L 301.91 215.52175 
L 301.91 146.592211 
L 290.75 146.592211 
z
" clip-path="url(#p341a02710f)" style="fill: #9467bd"/>
   </g>
   <g id="patch_115">
    <path d="M 313.07 197.540952 
L 324.23 197.540952 
L 324.23 110.679205 
L 313.07 110.679205 
z
" clip-path="url(#p341a02710f)" style="fill: #9467bd"/>
   </g>
   <g id="patch_116">
    <path d="M 335.39 194.204477 
L 346.55 194.204477 
L 346.55 103.957664 
L 335.39 103.957664 
z
" clip-path="url(#p341a02710f)" style="fill: #9467bd"/>
   </g>
   <g id="patch_117">
    <path d="M 357.71 171.955905 
L 368.87 171.955905 
L 368.87 59.465921 
L 357.71 59.465921 
z
" clip-path="url(#p341a02710f)" style="fill: #9467bd"/>
   </g>
   <g id="patch_118">
    <path d="M 380.03 161.312116 
L 391.19 161.312116 
L 391.19 38.156746 
L 380.03 38.156746 
z
" clip-path="url(#p341a02710f)" style="fill: #9467bd"/>
   </g>
   <g id="patch_119">
    <path d="M 402.35 152.433743 
L 413.51 152.433743 
L 413.51 20.4 
L 402.35 20.4 
z
" clip-path="url(#p341a02710f)" style="fill: #9467bd"/>
   </g>
   <g id="patch_120">
    <path d="M 424.67 160.27824 
L 435.83 160.27824 
L 435.83 36.145682 
L 424.67 36.145682 
z
" clip-path="url(#p341a02710f)" style="fill: #9467bd"/>
   </g>
   <g id="patch_121">
    <path d="M 446.99 172.968186 
L 458.15 172.968186 
L 458.15 61.493181 
L 446.99 61.493181 
z
" clip-path="url(#p341a02710f)" style="fill: #9467bd"/>
   </g>
   <g id="patch_122">
    <path d="M 469.31 180.812683 
L 480.47 180.812683 
L 480.47 77.238863 
L 469.31 77.238863 
z
" clip-path="url(#p341a02710f)" style="fill: #9467bd"/>
   </g>
   <g id="patch_123">
    <path d="M 491.63 205.590605 
L 502.79 205.590605 
L 502.79 126.786609 
L 491.63 126.786609 
z
" clip-path="url(#p341a02710f)" style="fill: #9467bd"/>
   </g>
   <g id="patch_124">
    <path d="M 513.95 212.25006 
L 525.11 212.25006 
L 525.11 140.129813 
L 513.95 140.129813 
z
" clip-path="url(#p341a02710f)" style="fill: #9467bd"/>
   </g>
   <g id="patch_125">
    <path d="M 536.27 232.463273 
L 547.43 232.463273 
L 547.43 180.518447 
L 536.27 180.518447 
z
" clip-path="url(#p341a02710f)" style="fill: #9467bd"/>
   </g>
   <g id="patch_126">
    <path d="M 558.59 241.46042 
L 569.75 241.46042 
L 569.75 198.496545 
L 558.59 198.496545 
z
" clip-path="url(#p341a02710f)" style="fill: #9467bd"/>
   </g>
   <g id="patch_127">
    <path d="M 580.91 259.70576 
L 592.07 259.70576 
L 592.07 234.989924 
L 580.91 234.989924 
z
" clip-path="url(#p341a02710f)" style="fill: #9467bd"/>
   </g>
   <g id="matplotlib.axis_1">
    <g id="xtick_1">
     <g id="line2d_1">
      <defs>
       <path id="mb2ae9d5eb6" d="M 0 0 
L 0 3.5 
" style="stroke: #000000; stroke-width: 0.8"/>
      </defs>
      <g>
       <use xlink:href="#mb2ae9d5eb6" x="50.81" y="284.4" style="stroke: #000000; stroke-width: 0.8"/>
      </g>
     </g>
     <g id="text_1">
      <!-- 1985 -->
      <g transform="translate(43.763239 314.768774) rotate(-45) scale(0.1 -0.1)">
       <defs>
        <path id="DejaVuSans-31" d="M 794 531 
L 1825 531 
L 1825 4091 
L 703 3866 
L 703 4441 
L 1819 4666 
L 2450 4666 
L 2450 531 
L 3481 531 
L 3481 0 
L 794 0 
L 794 531 
z
" transform="scale(0.015625)"/>
        <path id="DejaVuSans-39" d="M 703 97 
L 703 672 
Q 941 559 1184 500 
Q 1428 441 1663 441 
Q 2288 441 2617 861 
Q 2947 1281 2994 2138 
Q 2813 1869 2534 1725 
Q 2256 1581 1919 1581 
Q 1219 1581 811 2004 
Q 403 2428 403 3163 
Q 403 3881 828 4315 
Q 1253 4750 1959 4750 
Q 2769 4750 3195 4129 
Q 3622 3509 3622 2328 
Q 3622 1225 3098 567 
Q 2575 -91 1691 -91 
Q 1453 -91 1209 -44 
Q 966 3 703 97 
z
M 1959 2075 
Q 2384 2075 2632 2365 
Q 2881 2656 2881 3163 
Q 2881 3666 2632 3958 
Q 2384 4250 1959 4250 
Q 1534 4250 1286 3958 
Q 1038 3666 1038 3163 
Q 1038 2656 1286 2365 
Q 1534 2075 1959 2075 
z
" transform="scale(0.015625)"/>
        <path id="DejaVuSans-38" d="M 2034 2216 
Q 1584 2216 1326 1975 
Q 1069 1734 1069 1313 
Q 1069 891 1326 650 
Q 1584 409 2034 409 
Q 2484 409 2743 651 
Q 3003 894 3003 1313 
Q 3003 1734 2745 1975 
Q 2488 2216 2034 2216 
z
M 1403 2484 
Q 997 2584 770 2862 
Q 544 3141 544 3541 
Q 544 4100 942 4425 
Q 1341 4750 2034 4750 
Q 2731 4750 3128 4425 
Q 3525 4100 3525 3541 
Q 3525 3141 3298 2862 
Q 3072 2584 2669 2484 
Q 3125 2378 3379 2068 
Q 3634 1759 3634 1313 
Q 3634 634 3220 271 
Q 2806 -91 2034 -91 
Q 1263 -91 848 271 
Q 434 634 434 1313 
Q 434 1759 690 2068 
Q 947 2378 1403 2484 
z
M 1172 3481 
Q 1172 3119 1398 2916 
Q 1625 2713 2034 2713 
Q 2441 2713 2670 2916 
Q 2900 3119 2900 3481 
Q 2900 3844 2670 4047 
Q 2441 4250 2034 4250 
Q 1625 4250 1398 4047 
Q 1172 3844 1172 3481 
z
" transform="scale(0.015625)"/>
        <path id="DejaVuSans-35" d="M 691 4666 
L 3169 4666 
L 3169 4134 
L 1269 4134 
L 1269 2991 
Q 1406 3038 1543 3061 
Q 1681 3084 1819 3084 
Q 2600 3084 3056 2656 
Q 3513 2228 3513 1497 
Q 3513 744 3044 326 
Q 2575 -91 1722 -91 
Q 1428 -91 1123 -41 
Q 819 9 494 109 
L 494 744 
Q 775 591 1075 516 
Q 1375 441 1709 441 
Q 2250 441 2565 725 
Q 2881 1009 2881 1497 
Q 2881 1984 2565 2268 
Q 2250 2553 1709 2553 
Q 1456 2553 1204 2497 
Q 953 2441 691 2322 
L 691 4666 
z
" transform="scale(0.015625)"/>
       </defs>
       <use xlink:href="#DejaVuSans-31"/>
       <use xlink:href="#DejaVuSans-39" x="63.623047"/>
       <use xlink:href="#DejaVuSans-38" x="127.246094"/>
       <use xlink:href="#DejaVuSans-35" x="190.869141"/>
      </g>
     </g>
    </g>
    <g id="xtick_2">
     <g id="line2d_2">
      <g>
       <use xlink:href="#mb2ae9d5eb6" x="73.13" y="284.4" style="stroke: #000000; stroke-width: 0.8"/>
      </g>
     </g>
     <g id="text_2">
      <!-- 1988 -->
      <g transform="translate(66.083239 314.768774) rotate(-45) scale(0.1 -0.1)">
       <use xlink:href="#DejaVuSans-31"/>
       <use xlink:href="#DejaVuSans-39" x="63.623047"/>
       <use xlink:href="#DejaVuSans-38" x="127.246094"/>
       <use xlink:href="#DejaVuSans-38" x="190.869141"/>
      </g>
     </g>
    </g>
    <g id="xtick_3">
     <g id="line2d_3">
      <g>
       <use xlink:href="#mb2ae9d5eb6" x="95.45" y="284.4" style="stroke: #000000; stroke-width: 0.8"/>
      </g>
     </g>
     <g id="text_3">
      <!-- 1992 -->
      <g transform="translate(88.403239 314.768774) rotate(-45) scale(0.1 -0.1)">
       <defs>
        <path id="DejaVuSans-32" d="M 1228 531 
L 3431 531 
L 3431 0 
L 469 0 
L 469 531 
Q 828 903 1448 1529 
Q 2069 2156 2228 2338 
Q 2531 2678 2651 2914 
Q 2772 3150 2772 3378 
Q 2772 3750 2511 3984 
Q 2250 4219 1831 4219 
Q 1534 4219 1204 4116 
Q 875 4013 500 3803 
L 500 4441 
Q 881 4594 1212 4672 
Q 1544 4750 1819 4750 
Q 2544 4750 2975 4387 
Q 3406 4025 3406 3419 
Q 3406 3131 3298 2873 
Q 3191 2616 2906 2266 
Q 2828 2175 2409 1742 
Q 1991 1309 1228 531 
z
" transform="scale(0.015625)"/>
       </defs>
       <use xlink:href="#DejaVuSans-31"/>
       <use xlink:href="#DejaVuSans-39" x="63.623047"/>
       <use xlink:href="#DejaVuSans-39" x="127.246094"/>
       <use xlink:href="#DejaVuSans-32" x="190.869141"/>
      </g>
     </g>
    </g>
    <g id="xtick_4">
     <g id="line2d_4">
      <g>
       <use xlink:href="#mb2ae9d5eb6" x="117.77" y="284.4" style="stroke: #000000; stroke-width: 0.8"/>
      </g>
     </g>
     <g id="text_4">
      <!-- 1994 -->
      <g transform="translate(110.723239 314.768774) rotate(-45) scale(0.1 -0.1)">
       <defs>
        <path id="DejaVuSans-34" d="M 2419 4116 
L 825 1625 
L 2419 1625 
L 2419 4116 
z
M 2253 4666 
L 3047 4666 
L 3047 1625 
L 3713 1625 
L 3713 1100 
L 3047 1100 
L 3047 0 
L 2419 0 
L 2419 1100 
L 313 1100 
L 313 1709 
L 2253 4666 
z
" transform="scale(0.015625)"/>
       </defs>
       <use xlink:href="#DejaVuSans-31"/>
       <use xlink:href="#DejaVuSans-39" x="63.623047"/>
       <use xlink:href="#DejaVuSans-39" x="127.246094"/>
       <use xlink:href="#DejaVuSans-34" x="190.869141"/>
      </g>
     </g>
    </g>
    <g id="xtick_5">
     <g id="line2d_5">
      <g>
       <use xlink:href="#mb2ae9d5eb6" x="140.09" y="284.4" style="stroke: #000000; stroke-width: 0.8"/>
      </g>
     </g>
     <g id="text_5">
      <!-- 1996 -->
      <g transform="translate(133.043239 314.768774) rotate(-45) scale(0.1 -0.1)">
       <defs>
        <path id="DejaVuSans-36" d="M 2113 2584 
Q 1688 2584 1439 2293 
Q 1191 2003 1191 1497 
Q 1191 994 1439 701 
Q 1688 409 2113 409 
Q 2538 409 2786 701 
Q 3034 994 3034 1497 
Q 3034 2003 2786 2293 
Q 2538 2584 2113 2584 
z
M 3366 4563 
L 3366 3988 
Q 3128 4100 2886 4159 
Q 2644 4219 2406 4219 
Q 1781 4219 1451 3797 
Q 1122 3375 1075 2522 
Q 1259 2794 1537 2939 
Q 1816 3084 2150 3084 
Q 2853 3084 3261 2657 
Q 3669 2231 3669 1497 
Q 3669 778 3244 343 
Q 2819 -91 2113 -91 
Q 1303 -91 875 529 
Q 447 1150 447 2328 
Q 447 3434 972 4092 
Q 1497 4750 2381 4750 
Q 2619 4750 2861 4703 
Q 3103 4656 3366 4563 
z
" transform="scale(0.015625)"/>
       </defs>
       <use xlink:href="#DejaVuSans-31"/>
       <use xlink:href="#DejaVuSans-39" x="63.623047"/>
       <use xlink:href="#DejaVuSans-39" x="127.246094"/>
       <use xlink:href="#DejaVuSans-36" x="190.869141"/>
      </g>
     </g>
    </g>
    <g id="xtick_6">
     <g id="line2d_6">
      <g>
       <use xlink:href="#mb2ae9d5eb6" x="162.41" y="284.4" style="stroke: #000000; stroke-width: 0.8"/>
      </g>
     </g>
     <g id="text_6">
      <!-- 1997 -->
      <g transform="translate(155.363239 314.768774) rotate(-45) scale(0.1 -0.1)">
       <defs>
        <path id="DejaVuSans-37" d="M 525 4666 
L 3525 4666 
L 3525 4397 
L 1831 0 
L 1172 0 
L 2766 4134 
L 525 4134 
L 525 4666 
z
" transform="scale(0.015625)"/>
       </defs>
       <use xlink:href="#DejaVuSans-31"/>
       <use xlink:href="#DejaVuSans-39" x="63.623047"/>
       <use xlink:href="#DejaVuSans-39" x="127.246094"/>
       <use xlink:href="#DejaVuSans-37" x="190.869141"/>
      </g>
     </g>
    </g>
    <g id="xtick_7">
     <g id="line2d_7">
      <g>
       <use xlink:href="#mb2ae9d5eb6" x="184.73" y="284.4" style="stroke: #000000; stroke-width: 0.8"/>
      </g>
     </g>
     <g id="text_7">
      <!-- 1998 -->
      <g transform="translate(177.683239 314.768774) rotate(-45) scale(0.1 -0.1)">
       <use xlink:href="#DejaVuSans-31"/>
       <use xlink:href="#DejaVuSans-39" x="63.623047"/>
       <use xlink:href="#DejaVuSans-39" x="127.246094"/>
       <use xlink:href="#DejaVuSans-38" x="190.869141"/>
      </g>
     </g>
    </g>
    <g id="xtick_8">
     <g id="line2d_8">
      <g>
       <use xlink:href="#mb2ae9d5eb6" x="207.05" y="284.4" style="stroke: #000000; stroke-width: 0.8"/>
      </g>
     </g>
     <g id="text_8">
      <!-- 1999 -->
      <g transform="translate(200.003239 314.768774) rotate(-45) scale(0.1 -0.1)">
       <use xlink:href="#DejaVuSans-31"/>
       <use xlink:href="#DejaVuSans-39" x="63.623047"/>
       <use xlink:href="#DejaVuSans-39" x="127.246094"/>
       <use xlink:href="#DejaVuSans-39" x="190.869141"/>
      </g>
     </g>
    </g>
    <g id="xtick_9">
     <g id="line2d_9">
      <g>
       <use xlink:href="#mb2ae9d5eb6" x="229.37" y="284.4" style="stroke: #000000; stroke-width: 0.8"/>
      </g>
     </g>
     <g id="text_9">
      <!-- 2000 -->
      <g transform="translate(222.323239 314.768774) rotate(-45) scale(0.1 -0.1)">
       <defs>
        <path id="DejaVuSans-30" d="M 2034 4250 
Q 1547 4250 1301 3770 
Q 1056 3291 1056 2328 
Q 1056 1369 1301 889 
Q 1547 409 2034 409 
Q 2525 409 2770 889 
Q 3016 1369 3016 2328 
Q 3016 3291 2770 3770 
Q 2525 4250 2034 4250 
z
M 2034 4750 
Q 2819 4750 3233 4129 
Q 3647 3509 3647 2328 
Q 3647 1150 3233 529 
Q 2819 -91 2034 -91 
Q 1250 -91 836 529 
Q 422 1150 422 2328 
Q 422 3509 836 4129 
Q 1250 4750 2034 4750 
z
" transform="scale(0.015625)"/>
       </defs>
       <use xlink:href="#DejaVuSans-32"/>
       <use xlink:href="#DejaVuSans-30" x="63.623047"/>
       <use xlink:href="#DejaVuSans-30" x="127.246094"/>
       <use xlink:href="#DejaVuSans-30" x="190.869141"/>
      </g>
     </g>
    </g>
    <g id="xtick_10">
     <g id="line2d_10">
      <g>
       <use xlink:href="#mb2ae9d5eb6" x="251.69" y="284.4" style="stroke: #000000; stroke-width: 0.8"/>
      </g>
     </g>
     <g id="text_10">
      <!-- 2001 -->
      <g transform="translate(244.643239 314.768774) rotate(-45) scale(0.1 -0.1)">
       <use xlink:href="#DejaVuSans-32"/>
       <use xlink:href="#DejaVuSans-30" x="63.623047"/>
       <use xlink:href="#DejaVuSans-30" x="127.246094"/>
       <use xlink:href="#DejaVuSans-31" x="190.869141"/>
      </g>
     </g>
    </g>
    <g id="xtick_11">
     <g id="line2d_11">
      <g>
       <use xlink:href="#mb2ae9d5eb6" x="274.01" y="284.4" style="stroke: #000000; stroke-width: 0.8"/>
      </g>
     </g>
     <g id="text_11">
      <!-- 2002 -->
      <g transform="translate(266.963239 314.768774) rotate(-45) scale(0.1 -0.1)">
       <use xlink:href="#DejaVuSans-32"/>
       <use xlink:href="#DejaVuSans-30" x="63.623047"/>
       <use xlink:href="#DejaVuSans-30" x="127.246094"/>
       <use xlink:href="#DejaVuSans-32" x="190.869141"/>
      </g>
     </g>
    </g>
    <g id="xtick_12">
     <g id="line2d_12">
      <g>
       <use xlink:href="#mb2ae9d5eb6" x="296.33" y="284.4" style="stroke: #000000; stroke-width: 0.8"/>
      </g>
     </g>
     <g id="text_12">
      <!-- 2003 -->
      <g transform="translate(289.283239 314.768774) rotate(-45) scale(0.1 -0.1)">
       <defs>
        <path id="DejaVuSans-33" d="M 2597 2516 
Q 3050 2419 3304 2112 
Q 3559 1806 3559 1356 
Q 3559 666 3084 287 
Q 2609 -91 1734 -91 
Q 1441 -91 1130 -33 
Q 819 25 488 141 
L 488 750 
Q 750 597 1062 519 
Q 1375 441 1716 441 
Q 2309 441 2620 675 
Q 2931 909 2931 1356 
Q 2931 1769 2642 2001 
Q 2353 2234 1838 2234 
L 1294 2234 
L 1294 2753 
L 1863 2753 
Q 2328 2753 2575 2939 
Q 2822 3125 2822 3475 
Q 2822 3834 2567 4026 
Q 2313 4219 1838 4219 
Q 1578 4219 1281 4162 
Q 984 4106 628 3988 
L 628 4550 
Q 988 4650 1302 4700 
Q 1616 4750 1894 4750 
Q 2613 4750 3031 4423 
Q 3450 4097 3450 3541 
Q 3450 3153 3228 2886 
Q 3006 2619 2597 2516 
z
" transform="scale(0.015625)"/>
       </defs>
       <use xlink:href="#DejaVuSans-32"/>
       <use xlink:href="#DejaVuSans-30" x="63.623047"/>
       <use xlink:href="#DejaVuSans-30" x="127.246094"/>
       <use xlink:href="#DejaVuSans-33" x="190.869141"/>
      </g>
     </g>
    </g>
    <g id="xtick_13">
     <g id="line2d_13">
      <g>
       <use xlink:href="#mb2ae9d5eb6" x="318.65" y="284.4" style="stroke: #000000; stroke-width: 0.8"/>
      </g>
     </g>
     <g id="text_13">
      <!-- 2004 -->
      <g transform="translate(311.603239 314.768774) rotate(-45) scale(0.1 -0.1)">
       <use xlink:href="#DejaVuSans-32"/>
       <use xlink:href="#DejaVuSans-30" x="63.623047"/>
       <use xlink:href="#DejaVuSans-30" x="127.246094"/>
       <use xlink:href="#DejaVuSans-34" x="190.869141"/>
      </g>
     </g>
    </g>
    <g id="xtick_14">
     <g id="line2d_14">
      <g>
       <use xlink:href="#mb2ae9d5eb6" x="340.97" y="284.4" style="stroke: #000000; stroke-width: 0.8"/>
      </g>
     </g>
     <g id="text_14">
      <!-- 2005 -->
      <g transform="translate(333.923239 314.768774) rotate(-45) scale(0.1 -0.1)">
       <use xlink:href="#DejaVuSans-32"/>
       <use xlink:href="#DejaVuSans-30" x="63.623047"/>
       <use xlink:href="#DejaVuSans-30" x="127.246094"/>
       <use xlink:href="#DejaVuSans-35" x="190.869141"/>
      </g>
     </g>
    </g>
    <g id="xtick_15">
     <g id="line2d_15">
      <g>
       <use xlink:href="#mb2ae9d5eb6" x="363.29" y="284.4" style="stroke: #000000; stroke-width: 0.8"/>
      </g>
     </g>
     <g id="text_15">
      <!-- 2006 -->
      <g transform="translate(356.243239 314.768774) rotate(-45) scale(0.1 -0.1)">
       <use xlink:href="#DejaVuSans-32"/>
       <use xlink:href="#DejaVuSans-30" x="63.623047"/>
       <use xlink:href="#DejaVuSans-30" x="127.246094"/>
       <use xlink:href="#DejaVuSans-36" x="190.869141"/>
      </g>
     </g>
    </g>
    <g id="xtick_16">
     <g id="line2d_16">
      <g>
       <use xlink:href="#mb2ae9d5eb6" x="385.61" y="284.4" style="stroke: #000000; stroke-width: 0.8"/>
      </g>
     </g>
     <g id="text_16">
      <!-- 2007 -->
      <g transform="translate(378.563239 314.768774) rotate(-45) scale(0.1 -0.1)">
       <use xlink:href="#DejaVuSans-32"/>
       <use xlink:href="#DejaVuSans-30" x="63.623047"/>
       <use xlink:href="#DejaVuSans-30" x="127.246094"/>
       <use xlink:href="#DejaVuSans-37" x="190.869141"/>
      </g>
     </g>
    </g>
    <g id="xtick_17">
     <g id="line2d_17">
      <g>
       <use xlink:href="#mb2ae9d5eb6" x="407.93" y="284.4" style="stroke: #000000; stroke-width: 0.8"/>
      </g>
     </g>
     <g id="text_17">
      <!-- 2008 -->
      <g transform="translate(400.883239 314.768774) rotate(-45) scale(0.1 -0.1)">
       <use xlink:href="#DejaVuSans-32"/>
       <use xlink:href="#DejaVuSans-30" x="63.623047"/>
       <use xlink:href="#DejaVuSans-30" x="127.246094"/>
       <use xlink:href="#DejaVuSans-38" x="190.869141"/>
      </g>
     </g>
    </g>
    <g id="xtick_18">
     <g id="line2d_18">
      <g>
       <use xlink:href="#mb2ae9d5eb6" x="430.25" y="284.4" style="stroke: #000000; stroke-width: 0.8"/>
      </g>
     </g>
     <g id="text_18">
      <!-- 2009 -->
      <g transform="translate(423.203239 314.768774) rotate(-45) scale(0.1 -0.1)">
       <use xlink:href="#DejaVuSans-32"/>
       <use xlink:href="#DejaVuSans-30" x="63.623047"/>
       <use xlink:href="#DejaVuSans-30" x="127.246094"/>
       <use xlink:href="#DejaVuSans-39" x="190.869141"/>
      </g>
     </g>
    </g>
    <g id="xtick_19">
     <g id="line2d_19">
      <g>
       <use xlink:href="#mb2ae9d5eb6" x="452.57" y="284.4" style="stroke: #000000; stroke-width: 0.8"/>
      </g>
     </g>
     <g id="text_19">
      <!-- 2010 -->
      <g transform="translate(445.523239 314.768774) rotate(-45) scale(0.1 -0.1)">
       <use xlink:href="#DejaVuSans-32"/>
       <use xlink:href="#DejaVuSans-30" x="63.623047"/>
       <use xlink:href="#DejaVuSans-31" x="127.246094"/>
       <use xlink:href="#DejaVuSans-30" x="190.869141"/>
      </g>
     </g>
    </g>
    <g id="xtick_20">
     <g id="line2d_20">
      <g>
       <use xlink:href="#mb2ae9d5eb6" x="474.89" y="284.4" style="stroke: #000000; stroke-width: 0.8"/>
      </g>
     </g>
     <g id="text_20">
      <!-- 2011 -->
      <g transform="translate(467.843239 314.768774) rotate(-45) scale(0.1 -0.1)">
       <use xlink:href="#DejaVuSans-32"/>
       <use xlink:href="#DejaVuSans-30" x="63.623047"/>
       <use xlink:href="#DejaVuSans-31" x="127.246094"/>
       <use xlink:href="#DejaVuSans-31" x="190.869141"/>
      </g>
     </g>
    </g>
    <g id="xtick_21">
     <g id="line2d_21">
      <g>
       <use xlink:href="#mb2ae9d5eb6" x="497.21" y="284.4" style="stroke: #000000; stroke-width: 0.8"/>
      </g>
     </g>
     <g id="text_21">
      <!-- 2012 -->
      <g transform="translate(490.163239 314.768774) rotate(-45) scale(0.1 -0.1)">
       <use xlink:href="#DejaVuSans-32"/>
       <use xlink:href="#DejaVuSans-30" x="63.623047"/>
       <use xlink:href="#DejaVuSans-31" x="127.246094"/>
       <use xlink:href="#DejaVuSans-32" x="190.869141"/>
      </g>
     </g>
    </g>
    <g id="xtick_22">
     <g id="line2d_22">
      <g>
       <use xlink:href="#mb2ae9d5eb6" x="519.53" y="284.4" style="stroke: #000000; stroke-width: 0.8"/>
      </g>
     </g>
     <g id="text_22">
      <!-- 2013 -->
      <g transform="translate(512.483239 314.768774) rotate(-45) scale(0.1 -0.1)">
       <use xlink:href="#DejaVuSans-32"/>
       <use xlink:href="#DejaVuSans-30" x="63.623047"/>
       <use xlink:href="#DejaVuSans-31" x="127.246094"/>
       <use xlink:href="#DejaVuSans-33" x="190.869141"/>
      </g>
     </g>
    </g>
    <g id="xtick_23">
     <g id="line2d_23">
      <g>
       <use xlink:href="#mb2ae9d5eb6" x="541.85" y="284.4" style="stroke: #000000; stroke-width: 0.8"/>
      </g>
     </g>
     <g id="text_23">
      <!-- 2014 -->
      <g transform="translate(534.803239 314.768774) rotate(-45) scale(0.1 -0.1)">
       <use xlink:href="#DejaVuSans-32"/>
       <use xlink:href="#DejaVuSans-30" x="63.623047"/>
       <use xlink:href="#DejaVuSans-31" x="127.246094"/>
       <use xlink:href="#DejaVuSans-34" x="190.869141"/>
      </g>
     </g>
    </g>
    <g id="xtick_24">
     <g id="line2d_24">
      <g>
       <use xlink:href="#mb2ae9d5eb6" x="564.17" y="284.4" style="stroke: #000000; stroke-width: 0.8"/>
      </g>
     </g>
     <g id="text_24">
      <!-- 2015 -->
      <g transform="translate(557.123239 314.768774) rotate(-45) scale(0.1 -0.1)">
       <use xlink:href="#DejaVuSans-32"/>
       <use xlink:href="#DejaVuSans-30" x="63.623047"/>
       <use xlink:href="#DejaVuSans-31" x="127.246094"/>
       <use xlink:href="#DejaVuSans-35" x="190.869141"/>
      </g>
     </g>
    </g>
    <g id="xtick_25">
     <g id="line2d_25">
      <g>
       <use xlink:href="#mb2ae9d5eb6" x="586.49" y="284.4" style="stroke: #000000; stroke-width: 0.8"/>
      </g>
     </g>
     <g id="text_25">
      <!-- 2016 -->
      <g transform="translate(579.443239 314.768774) rotate(-45) scale(0.1 -0.1)">
       <use xlink:href="#DejaVuSans-32"/>
       <use xlink:href="#DejaVuSans-30" x="63.623047"/>
       <use xlink:href="#DejaVuSans-31" x="127.246094"/>
       <use xlink:href="#DejaVuSans-36" x="190.869141"/>
      </g>
     </g>
    </g>
    <g id="text_26">
     <!-- Year_of_Release -->
     <g transform="translate(278.70625 327.837773) scale(0.1 -0.1)">
      <defs>
       <path id="DejaVuSans-59" d="M -13 4666 
L 666 4666 
L 1959 2747 
L 3244 4666 
L 3922 4666 
L 2272 2222 
L 2272 0 
L 1638 0 
L 1638 2222 
L -13 4666 
z
" transform="scale(0.015625)"/>
       <path id="DejaVuSans-65" d="M 3597 1894 
L 3597 1613 
L 953 1613 
Q 991 1019 1311 708 
Q 1631 397 2203 397 
Q 2534 397 2845 478 
Q 3156 559 3463 722 
L 3463 178 
Q 3153 47 2828 -22 
Q 2503 -91 2169 -91 
Q 1331 -91 842 396 
Q 353 884 353 1716 
Q 353 2575 817 3079 
Q 1281 3584 2069 3584 
Q 2775 3584 3186 3129 
Q 3597 2675 3597 1894 
z
M 3022 2063 
Q 3016 2534 2758 2815 
Q 2500 3097 2075 3097 
Q 1594 3097 1305 2825 
Q 1016 2553 972 2059 
L 3022 2063 
z
" transform="scale(0.015625)"/>
       <path id="DejaVuSans-61" d="M 2194 1759 
Q 1497 1759 1228 1600 
Q 959 1441 959 1056 
Q 959 750 1161 570 
Q 1363 391 1709 391 
Q 2188 391 2477 730 
Q 2766 1069 2766 1631 
L 2766 1759 
L 2194 1759 
z
M 3341 1997 
L 3341 0 
L 2766 0 
L 2766 531 
Q 2569 213 2275 61 
Q 1981 -91 1556 -91 
Q 1019 -91 701 211 
Q 384 513 384 1019 
Q 384 1609 779 1909 
Q 1175 2209 1959 2209 
L 2766 2209 
L 2766 2266 
Q 2766 2663 2505 2880 
Q 2244 3097 1772 3097 
Q 1472 3097 1187 3025 
Q 903 2953 641 2809 
L 641 3341 
Q 956 3463 1253 3523 
Q 1550 3584 1831 3584 
Q 2591 3584 2966 3190 
Q 3341 2797 3341 1997 
z
" transform="scale(0.015625)"/>
       <path id="DejaVuSans-72" d="M 2631 2963 
Q 2534 3019 2420 3045 
Q 2306 3072 2169 3072 
Q 1681 3072 1420 2755 
Q 1159 2438 1159 1844 
L 1159 0 
L 581 0 
L 581 3500 
L 1159 3500 
L 1159 2956 
Q 1341 3275 1631 3429 
Q 1922 3584 2338 3584 
Q 2397 3584 2469 3576 
Q 2541 3569 2628 3553 
L 2631 2963 
z
" transform="scale(0.015625)"/>
       <path id="DejaVuSans-5f" d="M 3263 -1063 
L 3263 -1509 
L -63 -1509 
L -63 -1063 
L 3263 -1063 
z
" transform="scale(0.015625)"/>
       <path id="DejaVuSans-6f" d="M 1959 3097 
Q 1497 3097 1228 2736 
Q 959 2375 959 1747 
Q 959 1119 1226 758 
Q 1494 397 1959 397 
Q 2419 397 2687 759 
Q 2956 1122 2956 1747 
Q 2956 2369 2687 2733 
Q 2419 3097 1959 3097 
z
M 1959 3584 
Q 2709 3584 3137 3096 
Q 3566 2609 3566 1747 
Q 3566 888 3137 398 
Q 2709 -91 1959 -91 
Q 1206 -91 779 398 
Q 353 888 353 1747 
Q 353 2609 779 3096 
Q 1206 3584 1959 3584 
z
" transform="scale(0.015625)"/>
       <path id="DejaVuSans-66" d="M 2375 4863 
L 2375 4384 
L 1825 4384 
Q 1516 4384 1395 4259 
Q 1275 4134 1275 3809 
L 1275 3500 
L 2222 3500 
L 2222 3053 
L 1275 3053 
L 1275 0 
L 697 0 
L 697 3053 
L 147 3053 
L 147 3500 
L 697 3500 
L 697 3744 
Q 697 4328 969 4595 
Q 1241 4863 1831 4863 
L 2375 4863 
z
" transform="scale(0.015625)"/>
       <path id="DejaVuSans-52" d="M 2841 2188 
Q 3044 2119 3236 1894 
Q 3428 1669 3622 1275 
L 4263 0 
L 3584 0 
L 2988 1197 
Q 2756 1666 2539 1819 
Q 2322 1972 1947 1972 
L 1259 1972 
L 1259 0 
L 628 0 
L 628 4666 
L 2053 4666 
Q 2853 4666 3247 4331 
Q 3641 3997 3641 3322 
Q 3641 2881 3436 2590 
Q 3231 2300 2841 2188 
z
M 1259 4147 
L 1259 2491 
L 2053 2491 
Q 2509 2491 2742 2702 
Q 2975 2913 2975 3322 
Q 2975 3731 2742 3939 
Q 2509 4147 2053 4147 
L 1259 4147 
z
" transform="scale(0.015625)"/>
       <path id="DejaVuSans-6c" d="M 603 4863 
L 1178 4863 
L 1178 0 
L 603 0 
L 603 4863 
z
" transform="scale(0.015625)"/>
       <path id="DejaVuSans-73" d="M 2834 3397 
L 2834 2853 
Q 2591 2978 2328 3040 
Q 2066 3103 1784 3103 
Q 1356 3103 1142 2972 
Q 928 2841 928 2578 
Q 928 2378 1081 2264 
Q 1234 2150 1697 2047 
L 1894 2003 
Q 2506 1872 2764 1633 
Q 3022 1394 3022 966 
Q 3022 478 2636 193 
Q 2250 -91 1575 -91 
Q 1294 -91 989 -36 
Q 684 19 347 128 
L 347 722 
Q 666 556 975 473 
Q 1284 391 1588 391 
Q 1994 391 2212 530 
Q 2431 669 2431 922 
Q 2431 1156 2273 1281 
Q 2116 1406 1581 1522 
L 1381 1569 
Q 847 1681 609 1914 
Q 372 2147 372 2553 
Q 372 3047 722 3315 
Q 1072 3584 1716 3584 
Q 2034 3584 2315 3537 
Q 2597 3491 2834 3397 
z
" transform="scale(0.015625)"/>
      </defs>
      <use xlink:href="#DejaVuSans-59"/>
      <use xlink:href="#DejaVuSans-65" x="47.833984"/>
      <use xlink:href="#DejaVuSans-61" x="109.357422"/>
      <use xlink:href="#DejaVuSans-72" x="170.636719"/>
      <use xlink:href="#DejaVuSans-5f" x="211.75"/>
      <use xlink:href="#DejaVuSans-6f" x="261.75"/>
      <use xlink:href="#DejaVuSans-66" x="322.931641"/>
      <use xlink:href="#DejaVuSans-5f" x="358.136719"/>
      <use xlink:href="#DejaVuSans-52" x="408.136719"/>
      <use xlink:href="#DejaVuSans-65" x="473.119141"/>
      <use xlink:href="#DejaVuSans-6c" x="534.642578"/>
      <use xlink:href="#DejaVuSans-65" x="562.425781"/>
      <use xlink:href="#DejaVuSans-61" x="623.949219"/>
      <use xlink:href="#DejaVuSans-73" x="685.228516"/>
      <use xlink:href="#DejaVuSans-65" x="737.328125"/>
     </g>
    </g>
   </g>
   <g id="matplotlib.axis_2">
    <g id="ytick_1">
     <g id="line2d_26">
      <defs>
       <path id="m568c3d021d" d="M 0 0 
L -3.5 0 
" style="stroke: #000000; stroke-width: 0.8"/>
      </defs>
      <g>
       <use xlink:href="#m568c3d021d" x="39.65" y="284.4" style="stroke: #000000; stroke-width: 0.8"/>
      </g>
     </g>
     <g id="text_27">
      <!-- 0 -->
      <g transform="translate(26.2875 288.199219) scale(0.1 -0.1)">
       <use xlink:href="#DejaVuSans-30"/>
      </g>
     </g>
    </g>
    <g id="ytick_2">
     <g id="line2d_27">
      <g>
       <use xlink:href="#m568c3d021d" x="39.65" y="230.411718" style="stroke: #000000; stroke-width: 0.8"/>
      </g>
     </g>
     <g id="text_28">
      <!-- 200 -->
      <g transform="translate(13.5625 234.210937) scale(0.1 -0.1)">
       <use xlink:href="#DejaVuSans-32"/>
       <use xlink:href="#DejaVuSans-30" x="63.623047"/>
       <use xlink:href="#DejaVuSans-30" x="127.246094"/>
      </g>
     </g>
    </g>
    <g id="ytick_3">
     <g id="line2d_28">
      <g>
       <use xlink:href="#m568c3d021d" x="39.65" y="176.423436" style="stroke: #000000; stroke-width: 0.8"/>
      </g>
     </g>
     <g id="text_29">
      <!-- 400 -->
      <g transform="translate(13.5625 180.222655) scale(0.1 -0.1)">
       <use xlink:href="#DejaVuSans-34"/>
       <use xlink:href="#DejaVuSans-30" x="63.623047"/>
       <use xlink:href="#DejaVuSans-30" x="127.246094"/>
      </g>
     </g>
    </g>
    <g id="ytick_4">
     <g id="line2d_29">
      <g>
       <use xlink:href="#m568c3d021d" x="39.65" y="122.435154" style="stroke: #000000; stroke-width: 0.8"/>
      </g>
     </g>
     <g id="text_30">
      <!-- 600 -->
      <g transform="translate(13.5625 126.234372) scale(0.1 -0.1)">
       <use xlink:href="#DejaVuSans-36"/>
       <use xlink:href="#DejaVuSans-30" x="63.623047"/>
       <use xlink:href="#DejaVuSans-30" x="127.246094"/>
      </g>
     </g>
    </g>
    <g id="ytick_5">
     <g id="line2d_30">
      <g>
       <use xlink:href="#m568c3d021d" x="39.65" y="68.446872" style="stroke: #000000; stroke-width: 0.8"/>
      </g>
     </g>
     <g id="text_31">
      <!-- 800 -->
      <g transform="translate(13.5625 72.24609) scale(0.1 -0.1)">
       <use xlink:href="#DejaVuSans-38"/>
       <use xlink:href="#DejaVuSans-30" x="63.623047"/>
       <use xlink:href="#DejaVuSans-30" x="127.246094"/>
      </g>
     </g>
    </g>
    <g id="ytick_6">
     <g id="line2d_31">
      <g>
       <use xlink:href="#m568c3d021d" x="39.65" y="14.45859" style="stroke: #000000; stroke-width: 0.8"/>
      </g>
     </g>
     <g id="text_32">
      <!-- 1000 -->
      <g transform="translate(7.2 18.257808) scale(0.1 -0.1)">
       <use xlink:href="#DejaVuSans-31"/>
       <use xlink:href="#DejaVuSans-30" x="63.623047"/>
       <use xlink:href="#DejaVuSans-30" x="127.246094"/>
       <use xlink:href="#DejaVuSans-30" x="190.869141"/>
      </g>
     </g>
    </g>
   </g>
   <g id="patch_128">
    <path d="M 39.65 284.4 
L 39.65 7.2 
" style="fill: none; stroke: #000000; stroke-width: 0.8; stroke-linejoin: miter; stroke-linecap: square"/>
   </g>
   <g id="patch_129">
    <path d="M 597.65 284.4 
L 597.65 7.2 
" style="fill: none; stroke: #000000; stroke-width: 0.8; stroke-linejoin: miter; stroke-linecap: square"/>
   </g>
   <g id="patch_130">
    <path d="M 39.65 284.4 
L 597.65 284.4 
" style="fill: none; stroke: #000000; stroke-width: 0.8; stroke-linejoin: miter; stroke-linecap: square"/>
   </g>
   <g id="patch_131">
    <path d="M 39.65 7.2 
L 597.65 7.2 
" style="fill: none; stroke: #000000; stroke-width: 0.8; stroke-linejoin: miter; stroke-linecap: square"/>
   </g>
   <g id="legend_1">
    <g id="patch_132">
     <path d="M 495.132812 89.98125 
L 590.65 89.98125 
Q 592.65 89.98125 592.65 87.98125 
L 592.65 14.2 
Q 592.65 12.2 590.65 12.2 
L 495.132812 12.2 
Q 493.132812 12.2 493.132812 14.2 
L 493.132812 87.98125 
Q 493.132812 89.98125 495.132812 89.98125 
z
" style="fill: #ffffff; opacity: 0.8; stroke: #cccccc; stroke-linejoin: miter"/>
    </g>
    <g id="patch_133">
     <path d="M 497.132812 23.798437 
L 517.132812 23.798437 
L 517.132812 16.798437 
L 497.132812 16.798437 
z
" style="fill: #1f77b4"/>
    </g>
    <g id="text_33">
     <!-- NA_Sales -->
     <g transform="translate(525.132812 23.798437) scale(0.1 -0.1)">
      <defs>
       <path id="DejaVuSans-4e" d="M 628 4666 
L 1478 4666 
L 3547 763 
L 3547 4666 
L 4159 4666 
L 4159 0 
L 3309 0 
L 1241 3903 
L 1241 0 
L 628 0 
L 628 4666 
z
" transform="scale(0.015625)"/>
       <path id="DejaVuSans-41" d="M 2188 4044 
L 1331 1722 
L 3047 1722 
L 2188 4044 
z
M 1831 4666 
L 2547 4666 
L 4325 0 
L 3669 0 
L 3244 1197 
L 1141 1197 
L 716 0 
L 50 0 
L 1831 4666 
z
" transform="scale(0.015625)"/>
       <path id="DejaVuSans-53" d="M 3425 4513 
L 3425 3897 
Q 3066 4069 2747 4153 
Q 2428 4238 2131 4238 
Q 1616 4238 1336 4038 
Q 1056 3838 1056 3469 
Q 1056 3159 1242 3001 
Q 1428 2844 1947 2747 
L 2328 2669 
Q 3034 2534 3370 2195 
Q 3706 1856 3706 1288 
Q 3706 609 3251 259 
Q 2797 -91 1919 -91 
Q 1588 -91 1214 -16 
Q 841 59 441 206 
L 441 856 
Q 825 641 1194 531 
Q 1563 422 1919 422 
Q 2459 422 2753 634 
Q 3047 847 3047 1241 
Q 3047 1584 2836 1778 
Q 2625 1972 2144 2069 
L 1759 2144 
Q 1053 2284 737 2584 
Q 422 2884 422 3419 
Q 422 4038 858 4394 
Q 1294 4750 2059 4750 
Q 2388 4750 2728 4690 
Q 3069 4631 3425 4513 
z
" transform="scale(0.015625)"/>
      </defs>
      <use xlink:href="#DejaVuSans-4e"/>
      <use xlink:href="#DejaVuSans-41" x="74.804688"/>
      <use xlink:href="#DejaVuSans-5f" x="143.212891"/>
      <use xlink:href="#DejaVuSans-53" x="193.212891"/>
      <use xlink:href="#DejaVuSans-61" x="256.689453"/>
      <use xlink:href="#DejaVuSans-6c" x="317.96875"/>
      <use xlink:href="#DejaVuSans-65" x="345.751953"/>
      <use xlink:href="#DejaVuSans-73" x="407.275391"/>
     </g>
    </g>
    <g id="patch_134">
     <path d="M 497.132812 38.754687 
L 517.132812 38.754687 
L 517.132812 31.754687 
L 497.132812 31.754687 
z
" style="fill: #ff7f0e"/>
    </g>
    <g id="text_34">
     <!-- EU_Sales -->
     <g transform="translate(525.132812 38.754687) scale(0.1 -0.1)">
      <defs>
       <path id="DejaVuSans-45" d="M 628 4666 
L 3578 4666 
L 3578 4134 
L 1259 4134 
L 1259 2753 
L 3481 2753 
L 3481 2222 
L 1259 2222 
L 1259 531 
L 3634 531 
L 3634 0 
L 628 0 
L 628 4666 
z
" transform="scale(0.015625)"/>
       <path id="DejaVuSans-55" d="M 556 4666 
L 1191 4666 
L 1191 1831 
Q 1191 1081 1462 751 
Q 1734 422 2344 422 
Q 2950 422 3222 751 
Q 3494 1081 3494 1831 
L 3494 4666 
L 4128 4666 
L 4128 1753 
Q 4128 841 3676 375 
Q 3225 -91 2344 -91 
Q 1459 -91 1007 375 
Q 556 841 556 1753 
L 556 4666 
z
" transform="scale(0.015625)"/>
      </defs>
      <use xlink:href="#DejaVuSans-45"/>
      <use xlink:href="#DejaVuSans-55" x="63.183594"/>
      <use xlink:href="#DejaVuSans-5f" x="136.376953"/>
      <use xlink:href="#DejaVuSans-53" x="186.376953"/>
      <use xlink:href="#DejaVuSans-61" x="249.853516"/>
      <use xlink:href="#DejaVuSans-6c" x="311.132812"/>
      <use xlink:href="#DejaVuSans-65" x="338.916016"/>
      <use xlink:href="#DejaVuSans-73" x="400.439453"/>
     </g>
    </g>
    <g id="patch_135">
     <path d="M 497.132812 53.710938 
L 517.132812 53.710938 
L 517.132812 46.710938 
L 497.132812 46.710938 
z
" style="fill: #2ca02c"/>
    </g>
    <g id="text_35">
     <!-- JP_Sales -->
     <g transform="translate(525.132812 53.710938) scale(0.1 -0.1)">
      <defs>
       <path id="DejaVuSans-4a" d="M 628 4666 
L 1259 4666 
L 1259 325 
Q 1259 -519 939 -900 
Q 619 -1281 -91 -1281 
L -331 -1281 
L -331 -750 
L -134 -750 
Q 284 -750 456 -515 
Q 628 -281 628 325 
L 628 4666 
z
" transform="scale(0.015625)"/>
       <path id="DejaVuSans-50" d="M 1259 4147 
L 1259 2394 
L 2053 2394 
Q 2494 2394 2734 2622 
Q 2975 2850 2975 3272 
Q 2975 3691 2734 3919 
Q 2494 4147 2053 4147 
L 1259 4147 
z
M 628 4666 
L 2053 4666 
Q 2838 4666 3239 4311 
Q 3641 3956 3641 3272 
Q 3641 2581 3239 2228 
Q 2838 1875 2053 1875 
L 1259 1875 
L 1259 0 
L 628 0 
L 628 4666 
z
" transform="scale(0.015625)"/>
      </defs>
      <use xlink:href="#DejaVuSans-4a"/>
      <use xlink:href="#DejaVuSans-50" x="29.492188"/>
      <use xlink:href="#DejaVuSans-5f" x="89.794922"/>
      <use xlink:href="#DejaVuSans-53" x="139.794922"/>
      <use xlink:href="#DejaVuSans-61" x="203.271484"/>
      <use xlink:href="#DejaVuSans-6c" x="264.550781"/>
      <use xlink:href="#DejaVuSans-65" x="292.333984"/>
      <use xlink:href="#DejaVuSans-73" x="353.857422"/>
     </g>
    </g>
    <g id="patch_136">
     <path d="M 497.132812 68.667188 
L 517.132812 68.667188 
L 517.132812 61.667188 
L 497.132812 61.667188 
z
" style="fill: #d62728"/>
    </g>
    <g id="text_36">
     <!-- Other_Sales -->
     <g transform="translate(525.132812 68.667188) scale(0.1 -0.1)">
      <defs>
       <path id="DejaVuSans-4f" d="M 2522 4238 
Q 1834 4238 1429 3725 
Q 1025 3213 1025 2328 
Q 1025 1447 1429 934 
Q 1834 422 2522 422 
Q 3209 422 3611 934 
Q 4013 1447 4013 2328 
Q 4013 3213 3611 3725 
Q 3209 4238 2522 4238 
z
M 2522 4750 
Q 3503 4750 4090 4092 
Q 4678 3434 4678 2328 
Q 4678 1225 4090 567 
Q 3503 -91 2522 -91 
Q 1538 -91 948 565 
Q 359 1222 359 2328 
Q 359 3434 948 4092 
Q 1538 4750 2522 4750 
z
" transform="scale(0.015625)"/>
       <path id="DejaVuSans-74" d="M 1172 4494 
L 1172 3500 
L 2356 3500 
L 2356 3053 
L 1172 3053 
L 1172 1153 
Q 1172 725 1289 603 
Q 1406 481 1766 481 
L 2356 481 
L 2356 0 
L 1766 0 
Q 1100 0 847 248 
Q 594 497 594 1153 
L 594 3053 
L 172 3053 
L 172 3500 
L 594 3500 
L 594 4494 
L 1172 4494 
z
" transform="scale(0.015625)"/>
       <path id="DejaVuSans-68" d="M 3513 2113 
L 3513 0 
L 2938 0 
L 2938 2094 
Q 2938 2591 2744 2837 
Q 2550 3084 2163 3084 
Q 1697 3084 1428 2787 
Q 1159 2491 1159 1978 
L 1159 0 
L 581 0 
L 581 4863 
L 1159 4863 
L 1159 2956 
Q 1366 3272 1645 3428 
Q 1925 3584 2291 3584 
Q 2894 3584 3203 3211 
Q 3513 2838 3513 2113 
z
" transform="scale(0.015625)"/>
      </defs>
      <use xlink:href="#DejaVuSans-4f"/>
      <use xlink:href="#DejaVuSans-74" x="78.710938"/>
      <use xlink:href="#DejaVuSans-68" x="117.919922"/>
      <use xlink:href="#DejaVuSans-65" x="181.298828"/>
      <use xlink:href="#DejaVuSans-72" x="242.822266"/>
      <use xlink:href="#DejaVuSans-5f" x="283.935547"/>
      <use xlink:href="#DejaVuSans-53" x="333.935547"/>
      <use xlink:href="#DejaVuSans-61" x="397.412109"/>
      <use xlink:href="#DejaVuSans-6c" x="458.691406"/>
      <use xlink:href="#DejaVuSans-65" x="486.474609"/>
      <use xlink:href="#DejaVuSans-73" x="547.998047"/>
     </g>
    </g>
    <g id="patch_137">
     <path d="M 497.132812 83.623437 
L 517.132812 83.623437 
L 517.132812 76.623437 
L 497.132812 76.623437 
z
" style="fill: #9467bd"/>
    </g>
    <g id="text_37">
     <!-- Global_Sales -->
     <g transform="translate(525.132812 83.623437) scale(0.1 -0.1)">
      <defs>
       <path id="DejaVuSans-47" d="M 3809 666 
L 3809 1919 
L 2778 1919 
L 2778 2438 
L 4434 2438 
L 4434 434 
Q 4069 175 3628 42 
Q 3188 -91 2688 -91 
Q 1594 -91 976 548 
Q 359 1188 359 2328 
Q 359 3472 976 4111 
Q 1594 4750 2688 4750 
Q 3144 4750 3555 4637 
Q 3966 4525 4313 4306 
L 4313 3634 
Q 3963 3931 3569 4081 
Q 3175 4231 2741 4231 
Q 1884 4231 1454 3753 
Q 1025 3275 1025 2328 
Q 1025 1384 1454 906 
Q 1884 428 2741 428 
Q 3075 428 3337 486 
Q 3600 544 3809 666 
z
" transform="scale(0.015625)"/>
       <path id="DejaVuSans-62" d="M 3116 1747 
Q 3116 2381 2855 2742 
Q 2594 3103 2138 3103 
Q 1681 3103 1420 2742 
Q 1159 2381 1159 1747 
Q 1159 1113 1420 752 
Q 1681 391 2138 391 
Q 2594 391 2855 752 
Q 3116 1113 3116 1747 
z
M 1159 2969 
Q 1341 3281 1617 3432 
Q 1894 3584 2278 3584 
Q 2916 3584 3314 3078 
Q 3713 2572 3713 1747 
Q 3713 922 3314 415 
Q 2916 -91 2278 -91 
Q 1894 -91 1617 61 
Q 1341 213 1159 525 
L 1159 0 
L 581 0 
L 581 4863 
L 1159 4863 
L 1159 2969 
z
" transform="scale(0.015625)"/>
      </defs>
      <use xlink:href="#DejaVuSans-47"/>
      <use xlink:href="#DejaVuSans-6c" x="77.490234"/>
      <use xlink:href="#DejaVuSans-6f" x="105.273438"/>
      <use xlink:href="#DejaVuSans-62" x="166.455078"/>
      <use xlink:href="#DejaVuSans-61" x="229.931641"/>
      <use xlink:href="#DejaVuSans-6c" x="291.210938"/>
      <use xlink:href="#DejaVuSans-5f" x="318.994141"/>
      <use xlink:href="#DejaVuSans-53" x="368.994141"/>
      <use xlink:href="#DejaVuSans-61" x="432.470703"/>
      <use xlink:href="#DejaVuSans-6c" x="493.75"/>
      <use xlink:href="#DejaVuSans-65" x="521.533203"/>
      <use xlink:href="#DejaVuSans-73" x="583.056641"/>
     </g>
    </g>
   </g>
  </g>
 </g>
 <defs>
  <clipPath id="p341a02710f">
   <rect x="39.65" y="7.2" width="558" height="277.2"/>
  </clipPath>
 </defs>
</svg>