<?xml version="1.0" encoding="utf-8" standalone="no"?>
<!DOCTYPE svg PUBLIC "-//W3C//DTD SVG 1.1//EN"
  "http://www.w3.org/Graphics/SVG/1.1/DTD/svg11.dtd">
<svg xmlns:xlink="http://www.w3.org/1999/xlink" width="598.4875pt" height="308.278125pt" viewBox="0 0 598.4875 308.278125" xmlns="http://www.w3.org/2000/svg" version="1.1">
 <metadata>
  <rdf:RDF xmlns:dc="http://purl.org/dc/elements/1.1/" xmlns:cc="http://creativecommons.org/ns#" xmlns:rdf="http://www.w3.org/1999/02/22-rdf-syntax-ns#">
   <cc:Work>
    <dc:type rdf:resource="http://purl.org/dc/dcmitype/StillImage"/>
    <dc:date>2024-10-15T18:22:37.124599</dc:date>
    <dc:format>image/svg+xml</dc:format>
    <dc:creator>
     <cc:Agent>
      <dc:title>Matplotlib v3.7.1, https://matplotlib.org/</dc:title>
     </cc:Agent>
    </dc:creator>
   </cc:Work>
  </rdf:RDF>
 </metadata>
 <defs>
  <style type="text/css">*{stroke-linejoin: round; stroke-linecap: butt}</style>
 </defs>
 <g id="figure_1">
  <g id="patch_1">
   <path d="M 0 308.278125 
L 598.4875 308.278125 
L 598.4875 0 
L 0 0 
z
" style="fill: #ffffff"/>
  </g>
  <g id="axes_1">
   <g id="patch_2">
    <path d="M 33.2875 284.4 
L 591.2875 284.4 
L 591.2875 7.2 
L 33.2875 7.2 
z
" style="fill: #ffffff"/>
   </g>
   <g id="patch_3">
    <path d="M 58.651136 284.4 
L 71.332955 284.4 
L 71.332955 283.963636 
L 58.651136 283.963636 
z
" clip-path="url(#pdfe6d5fd5c)" style="fill: #1f77b4"/>
   </g>
   <g id="patch_4">
    <path d="M 71.332955 284.4 
L 84.014773 284.4 
L 84.014773 283.963636 
L 71.332955 283.963636 
z
" clip-path="url(#pdfe6d5fd5c)" style="fill: #1f77b4"/>
   </g>
   <g id="patch_5">
    <path d="M 84.014773 284.4 
L 96.696591 284.4 
L 96.696591 281.781818 
L 84.014773 281.781818 
z
" clip-path="url(#pdfe6d5fd5c)" style="fill: #1f77b4"/>
   </g>
   <g id="patch_6">
    <path d="M 96.696591 284.4 
L 109.378409 284.4 
L 109.378409 282.654545 
L 96.696591 282.654545 
z
" clip-path="url(#pdfe6d5fd5c)" style="fill: #1f77b4"/>
   </g>
   <g id="patch_7">
    <path d="M 109.378409 284.4 
L 122.060227 284.4 
L 122.060227 283.090909 
L 109.378409 283.090909 
z
" clip-path="url(#pdfe6d5fd5c)" style="fill: #1f77b4"/>
   </g>
   <g id="patch_8">
    <path d="M 122.060227 284.4 
L 134.742045 284.4 
L 134.742045 279.6 
L 122.060227 279.6 
z
" clip-path="url(#pdfe6d5fd5c)" style="fill: #1f77b4"/>
   </g>
   <g id="patch_9">
    <path d="M 134.742045 284.4 
L 147.423864 284.4 
L 147.423864 278.290909 
L 134.742045 278.290909 
z
" clip-path="url(#pdfe6d5fd5c)" style="fill: #1f77b4"/>
   </g>
   <g id="patch_10">
    <path d="M 147.423864 284.4 
L 160.105682 284.4 
L 160.105682 279.163636 
L 147.423864 279.163636 
z
" clip-path="url(#pdfe6d5fd5c)" style="fill: #1f77b4"/>
   </g>
   <g id="patch_11">
    <path d="M 160.105682 284.4 
L 172.7875 284.4 
L 172.7875 271.309091 
L 160.105682 271.309091 
z
" clip-path="url(#pdfe6d5fd5c)" style="fill: #1f77b4"/>
   </g>
   <g id="patch_12">
    <path d="M 172.7875 284.4 
L 185.469318 284.4 
L 185.469318 274.363636 
L 172.7875 274.363636 
z
" clip-path="url(#pdfe6d5fd5c)" style="fill: #1f77b4"/>
   </g>
   <g id="patch_13">
    <path d="M 185.469318 284.4 
L 198.151136 284.4 
L 198.151136 266.509091 
L 185.469318 266.509091 
z
" clip-path="url(#pdfe6d5fd5c)" style="fill: #1f77b4"/>
   </g>
   <g id="patch_14">
    <path d="M 198.151136 284.4 
L 210.832955 284.4 
L 210.832955 264.327273 
L 198.151136 264.327273 
z
" clip-path="url(#pdfe6d5fd5c)" style="fill: #1f77b4"/>
   </g>
   <g id="patch_15">
    <path d="M 210.832955 284.4 
L 223.514773 284.4 
L 223.514773 261.709091 
L 210.832955 261.709091 
z
" clip-path="url(#pdfe6d5fd5c)" style="fill: #1f77b4"/>
   </g>
   <g id="patch_16">
    <path d="M 223.514773 284.4 
L 236.196591 284.4 
L 236.196591 263.018182 
L 223.514773 263.018182 
z
" clip-path="url(#pdfe6d5fd5c)" style="fill: #1f77b4"/>
   </g>
   <g id="patch_17">
    <path d="M 236.196591 284.4 
L 248.878409 284.4 
L 248.878409 250.363636 
L 236.196591 250.363636 
z
" clip-path="url(#pdfe6d5fd5c)" style="fill: #1f77b4"/>
   </g>
   <g id="patch_18">
    <path d="M 248.878409 284.4 
L 261.560227 284.4 
L 261.560227 251.672727 
L 248.878409 251.672727 
z
" clip-path="url(#pdfe6d5fd5c)" style="fill: #1f77b4"/>
   </g>
   <g id="patch_19">
    <path d="M 261.560227 284.4 
L 274.242045 284.4 
L 274.242045 215.018182 
L 261.560227 215.018182 
z
" clip-path="url(#pdfe6d5fd5c)" style="fill: #1f77b4"/>
   </g>
   <g id="patch_20">
    <path d="M 274.242045 284.4 
L 286.923864 284.4 
L 286.923864 228.109091 
L 274.242045 228.109091 
z
" clip-path="url(#pdfe6d5fd5c)" style="fill: #1f77b4"/>
   </g>
   <g id="patch_21">
    <path d="M 286.923864 284.4 
L 299.605682 284.4 
L 299.605682 232.909091 
L 286.923864 232.909091 
z
" clip-path="url(#pdfe6d5fd5c)" style="fill: #1f77b4"/>
   </g>
   <g id="patch_22">
    <path d="M 299.605682 284.4 
L 312.2875 284.4 
L 312.2875 222.872727 
L 299.605682 222.872727 
z
" clip-path="url(#pdfe6d5fd5c)" style="fill: #1f77b4"/>
   </g>
   <g id="patch_23">
    <path d="M 312.2875 284.4 
L 324.969318 284.4 
L 324.969318 209.781818 
L 312.2875 209.781818 
z
" clip-path="url(#pdfe6d5fd5c)" style="fill: #1f77b4"/>
   </g>
   <g id="patch_24">
    <path d="M 324.969318 284.4 
L 337.651136 284.4 
L 337.651136 183.163636 
L 324.969318 183.163636 
z
" clip-path="url(#pdfe6d5fd5c)" style="fill: #1f77b4"/>
   </g>
   <g id="patch_25">
    <path d="M 337.651136 284.4 
L 350.332955 284.4 
L 350.332955 178.8 
L 337.651136 178.8 
z
" clip-path="url(#pdfe6d5fd5c)" style="fill: #1f77b4"/>
   </g>
   <g id="patch_26">
    <path d="M 350.332955 284.4 
L 363.014773 284.4 
L 363.014773 170.509091 
L 350.332955 170.509091 
z
" clip-path="url(#pdfe6d5fd5c)" style="fill: #1f77b4"/>
   </g>
   <g id="patch_27">
    <path d="M 363.014773 284.4 
L 375.696591 284.4 
L 375.696591 96.763636 
L 363.014773 96.763636 
z
" clip-path="url(#pdfe6d5fd5c)" style="fill: #1f77b4"/>
   </g>
   <g id="patch_28">
    <path d="M 375.696591 284.4 
L 388.378409 284.4 
L 388.378409 146.072727 
L 375.696591 146.072727 
z
" clip-path="url(#pdfe6d5fd5c)" style="fill: #1f77b4"/>
   </g>
   <g id="patch_29">
    <path d="M 388.378409 284.4 
L 401.060227 284.4 
L 401.060227 117.272727 
L 388.378409 117.272727 
z
" clip-path="url(#pdfe6d5fd5c)" style="fill: #1f77b4"/>
   </g>
   <g id="patch_30">
    <path d="M 401.060227 284.4 
L 413.742045 284.4 
L 413.742045 105.490909 
L 401.060227 105.490909 
z
" clip-path="url(#pdfe6d5fd5c)" style="fill: #1f77b4"/>
   </g>
   <g id="patch_31">
    <path d="M 413.742045 284.4 
L 426.423864 284.4 
L 426.423864 100.690909 
L 413.742045 100.690909 
z
" clip-path="url(#pdfe6d5fd5c)" style="fill: #1f77b4"/>
   </g>
   <g id="patch_32">
    <path d="M 426.423864 284.4 
L 439.105682 284.4 
L 439.105682 104.618182 
L 426.423864 104.618182 
z
" clip-path="url(#pdfe6d5fd5c)" style="fill: #1f77b4"/>
   </g>
   <g id="patch_33">
    <path d="M 439.105682 284.4 
L 451.7875 284.4 
L 451.7875 102 
L 439.105682 102 
z
" clip-path="url(#pdfe6d5fd5c)" style="fill: #1f77b4"/>
   </g>
   <g id="patch_34">
    <path d="M 451.7875 284.4 
L 464.469318 284.4 
L 464.469318 94.581818 
L 451.7875 94.581818 
z
" clip-path="url(#pdfe6d5fd5c)" style="fill: #1f77b4"/>
   </g>
   <g id="patch_35">
    <path d="M 464.469318 284.4 
L 477.151136 284.4 
L 477.151136 20.4 
L 464.469318 20.4 
z
" clip-path="url(#pdfe6d5fd5c)" style="fill: #1f77b4"/>
   </g>
   <g id="patch_36">
    <path d="M 477.151136 284.4 
L 489.832955 284.4 
L 489.832955 144.763636 
L 477.151136 144.763636 
z
" clip-path="url(#pdfe6d5fd5c)" style="fill: #1f77b4"/>
   </g>
   <g id="patch_37">
    <path d="M 489.832955 284.4 
L 502.514773 284.4 
L 502.514773 180.109091 
L 489.832955 180.109091 
z
" clip-path="url(#pdfe6d5fd5c)" style="fill: #1f77b4"/>
   </g>
   <g id="patch_38">
    <path d="M 502.514773 284.4 
L 515.196591 284.4 
L 515.196591 192.327273 
L 502.514773 192.327273 
z
" clip-path="url(#pdfe6d5fd5c)" style="fill: #1f77b4"/>
   </g>
   <g id="patch_39">
    <path d="M 515.196591 284.4 
L 527.878409 284.4 
L 527.878409 222.436364 
L 515.196591 222.436364 
z
" clip-path="url(#pdfe6d5fd5c)" style="fill: #1f77b4"/>
   </g>
   <g id="patch_40">
    <path d="M 527.878409 284.4 
L 540.560227 284.4 
L 540.560227 241.636364 
L 527.878409 241.636364 
z
" clip-path="url(#pdfe6d5fd5c)" style="fill: #1f77b4"/>
   </g>
   <g id="patch_41">
    <path d="M 540.560227 284.4 
L 553.242045 284.4 
L 553.242045 261.709091 
L 540.560227 261.709091 
z
" clip-path="url(#pdfe6d5fd5c)" style="fill: #1f77b4"/>
   </g>
   <g id="patch_42">
    <path d="M 553.242045 284.4 
L 565.923864 284.4 
L 565.923864 270 
L 553.242045 270 
z
" clip-path="url(#pdfe6d5fd5c)" style="fill: #1f77b4"/>
   </g>
   <g id="matplotlib.axis_1">
    <g id="xtick_1">
     <g id="line2d_1">
      <path d="M 100.426537 284.4 
L 100.426537 7.2 
" clip-path="url(#pdfe6d5fd5c)" style="fill: none; stroke: #b0b0b0; stroke-width: 0.8; stroke-linecap: square"/>
     </g>
     <g id="line2d_2">
      <defs>
       <path id="ma37865f6a5" d="M 0 0 
L 0 3.5 
" style="stroke: #000000; stroke-width: 0.8"/>
      </defs>
      <g>
       <use xlink:href="#ma37865f6a5" x="100.426537" y="284.4" style="stroke: #000000; stroke-width: 0.8"/>
      </g>
     </g>
     <g id="text_1">
      <!-- 20 -->
      <g transform="translate(94.064037 298.998438) scale(0.1 -0.1)">
       <defs>
        <path id="DejaVuSans-32" d="M 1228 531 
L 3431 531 
L 3431 0 
L 469 0 
L 469 531 
Q 828 903 1448 1529 
Q 2069 2156 2228 2338 
Q 2531 2678 2651 2914 
Q 2772 3150 2772 3378 
Q 2772 3750 2511 3984 
Q 2250 4219 1831 4219 
Q 1534 4219 1204 4116 
Q 875 4013 500 3803 
L 500 4441 
Q 881 4594 1212 4672 
Q 1544 4750 1819 4750 
Q 2544 4750 2975 4387 
Q 3406 4025 3406 3419 
Q 3406 3131 3298 2873 
Q 3191 2616 2906 2266 
Q 2828 2175 2409 1742 
Q 1991 1309 1228 531 
z
" transform="scale(0.015625)"/>
        <path id="DejaVuSans-30" d="M 2034 4250 
Q 1547 4250 1301 3770 
Q 1056 3291 1056 2328 
Q 1056 1369 1301 889 
Q 1547 409 2034 409 
Q 2525 409 2770 889 
Q 3016 1369 3016 2328 
Q 3016 3291 2770 3770 
Q 2525 4250 2034 4250 
z
M 2034 4750 
Q 2819 4750 3233 4129 
Q 3647 3509 3647 2328 
Q 3647 1150 3233 529 
Q 2819 -91 2034 -91 
Q 1250 -91 836 529 
Q 422 1150 422 2328 
Q 422 3509 836 4129 
Q 1250 4750 2034 4750 
z
" transform="scale(0.015625)"/>
       </defs>
       <use xlink:href="#DejaVuSans-32"/>
       <use xlink:href="#DejaVuSans-30" x="63.623047"/>
      </g>
     </g>
    </g>
    <g id="xtick_2">
     <g id="line2d_3">
      <path d="M 219.784826 284.4 
L 219.784826 7.2 
" clip-path="url(#pdfe6d5fd5c)" style="fill: none; stroke: #b0b0b0; stroke-width: 0.8; stroke-linecap: square"/>
     </g>
     <g id="line2d_4">
      <g>
       <use xlink:href="#ma37865f6a5" x="219.784826" y="284.4" style="stroke: #000000; stroke-width: 0.8"/>
      </g>
     </g>
     <g id="text_2">
      <!-- 40 -->
      <g transform="translate(213.422326 298.998438) scale(0.1 -0.1)">
       <defs>
        <path id="DejaVuSans-34" d="M 2419 4116 
L 825 1625 
L 2419 1625 
L 2419 4116 
z
M 2253 4666 
L 3047 4666 
L 3047 1625 
L 3713 1625 
L 3713 1100 
L 3047 1100 
L 3047 0 
L 2419 0 
L 2419 1100 
L 313 1100 
L 313 1709 
L 2253 4666 
z
" transform="scale(0.015625)"/>
       </defs>
       <use xlink:href="#DejaVuSans-34"/>
       <use xlink:href="#DejaVuSans-30" x="63.623047"/>
      </g>
     </g>
    </g>
    <g id="xtick_3">
     <g id="line2d_5">
      <path d="M 339.143115 284.4 
L 339.143115 7.2 
" clip-path="url(#pdfe6d5fd5c)" style="fill: none; stroke: #b0b0b0; stroke-width: 0.8; stroke-linecap: square"/>
     </g>
     <g id="line2d_6">
      <g>
       <use xlink:href="#ma37865f6a5" x="339.143115" y="284.4" style="stroke: #000000; stroke-width: 0.8"/>
      </g>
     </g>
     <g id="text_3">
      <!-- 60 -->
      <g transform="translate(332.780615 298.998438) scale(0.1 -0.1)">
       <defs>
        <path id="DejaVuSans-36" d="M 2113 2584 
Q 1688 2584 1439 2293 
Q 1191 2003 1191 1497 
Q 1191 994 1439 701 
Q 1688 409 2113 409 
Q 2538 409 2786 701 
Q 3034 994 3034 1497 
Q 3034 2003 2786 2293 
Q 2538 2584 2113 2584 
z
M 3366 4563 
L 3366 3988 
Q 3128 4100 2886 4159 
Q 2644 4219 2406 4219 
Q 1781 4219 1451 3797 
Q 1122 3375 1075 2522 
Q 1259 2794 1537 2939 
Q 1816 3084 2150 3084 
Q 2853 3084 3261 2657 
Q 3669 2231 3669 1497 
Q 3669 778 3244 343 
Q 2819 -91 2113 -91 
Q 1303 -91 875 529 
Q 447 1150 447 2328 
Q 447 3434 972 4092 
Q 1497 4750 2381 4750 
Q 2619 4750 2861 4703 
Q 3103 4656 3366 4563 
z
" transform="scale(0.015625)"/>
       </defs>
       <use xlink:href="#DejaVuSans-36"/>
       <use xlink:href="#DejaVuSans-30" x="63.623047"/>
      </g>
     </g>
    </g>
    <g id="xtick_4">
     <g id="line2d_7">
      <path d="M 458.501404 284.4 
L 458.501404 7.2 
" clip-path="url(#pdfe6d5fd5c)" style="fill: none; stroke: #b0b0b0; stroke-width: 0.8; stroke-linecap: square"/>
     </g>
     <g id="line2d_8">
      <g>
       <use xlink:href="#ma37865f6a5" x="458.501404" y="284.4" style="stroke: #000000; stroke-width: 0.8"/>
      </g>
     </g>
     <g id="text_4">
      <!-- 80 -->
      <g transform="translate(452.138904 298.998438) scale(0.1 -0.1)">
       <defs>
        <path id="DejaVuSans-38" d="M 2034 2216 
Q 1584 2216 1326 1975 
Q 1069 1734 1069 1313 
Q 1069 891 1326 650 
Q 1584 409 2034 409 
Q 2484 409 2743 651 
Q 3003 894 3003 1313 
Q 3003 1734 2745 1975 
Q 2488 2216 2034 2216 
z
M 1403 2484 
Q 997 2584 770 2862 
Q 544 3141 544 3541 
Q 544 4100 942 4425 
Q 1341 4750 2034 4750 
Q 2731 4750 3128 4425 
Q 3525 4100 3525 3541 
Q 3525 3141 3298 2862 
Q 3072 2584 2669 2484 
Q 3125 2378 3379 2068 
Q 3634 1759 3634 1313 
Q 3634 634 3220 271 
Q 2806 -91 2034 -91 
Q 1263 -91 848 271 
Q 434 634 434 1313 
Q 434 1759 690 2068 
Q 947 2378 1403 2484 
z
M 1172 3481 
Q 1172 3119 1398 2916 
Q 1625 2713 2034 2713 
Q 2441 2713 2670 2916 
Q 2900 3119 2900 3481 
Q 2900 3844 2670 4047 
Q 2441 4250 2034 4250 
Q 1625 4250 1398 4047 
Q 1172 3844 1172 3481 
z
" transform="scale(0.015625)"/>
       </defs>
       <use xlink:href="#DejaVuSans-38"/>
       <use xlink:href="#DejaVuSans-30" x="63.623047"/>
      </g>
     </g>
    </g>
    <g id="xtick_5">
     <g id="line2d_9">
      <path d="M 577.859693 284.4 
L 577.859693 7.2 
" clip-path="url(#pdfe6d5fd5c)" style="fill: none; stroke: #b0b0b0; stroke-width: 0.8; stroke-linecap: square"/>
     </g>
     <g id="line2d_10">
      <g>
       <use xlink:href="#ma37865f6a5" x="577.859693" y="284.4" style="stroke: #000000; stroke-width: 0.8"/>
      </g>
     </g>
     <g id="text_5">
      <!-- 100 -->
      <g transform="translate(568.315943 298.998438) scale(0.1 -0.1)">
       <defs>
        <path id="DejaVuSans-31" d="M 794 531 
L 1825 531 
L 1825 4091 
L 703 3866 
L 703 4441 
L 1819 4666 
L 2450 4666 
L 2450 531 
L 3481 531 
L 3481 0 
L 794 0 
L 794 531 
z
" transform="scale(0.015625)"/>
       </defs>
       <use xlink:href="#DejaVuSans-31"/>
       <use xlink:href="#DejaVuSans-30" x="63.623047"/>
       <use xlink:href="#DejaVuSans-30" x="127.246094"/>
      </g>
     </g>
    </g>
   </g>
   <g id="matplotlib.axis_2">
    <g id="ytick_1">
     <g id="line2d_11">
      <path d="M 33.2875 284.4 
L 591.2875 284.4 
" clip-path="url(#pdfe6d5fd5c)" style="fill: none; stroke: #b0b0b0; stroke-width: 0.8; stroke-linecap: square"/>
     </g>
     <g id="line2d_12">
      <defs>
       <path id="m809625c3d3" d="M 0 0 
L -3.5 0 
" style="stroke: #000000; stroke-width: 0.8"/>
      </defs>
      <g>
       <use xlink:href="#m809625c3d3" x="33.2875" y="284.4" style="stroke: #000000; stroke-width: 0.8"/>
      </g>
     </g>
     <g id="text_6">
      <!-- 0 -->
      <g transform="translate(19.925 288.199219) scale(0.1 -0.1)">
       <use xlink:href="#DejaVuSans-30"/>
      </g>
     </g>
    </g>
    <g id="ytick_2">
     <g id="line2d_13">
      <path d="M 33.2875 240.763636 
L 591.2875 240.763636 
" clip-path="url(#pdfe6d5fd5c)" style="fill: none; stroke: #b0b0b0; stroke-width: 0.8; stroke-linecap: square"/>
     </g>
     <g id="line2d_14">
      <g>
       <use xlink:href="#m809625c3d3" x="33.2875" y="240.763636" style="stroke: #000000; stroke-width: 0.8"/>
      </g>
     </g>
     <g id="text_7">
      <!-- 100 -->
      <g transform="translate(7.2 244.562855) scale(0.1 -0.1)">
       <use xlink:href="#DejaVuSans-31"/>
       <use xlink:href="#DejaVuSans-30" x="63.623047"/>
       <use xlink:href="#DejaVuSans-30" x="127.246094"/>
      </g>
     </g>
    </g>
    <g id="ytick_3">
     <g id="line2d_15">
      <path d="M 33.2875 197.127273 
L 591.2875 197.127273 
" clip-path="url(#pdfe6d5fd5c)" style="fill: none; stroke: #b0b0b0; stroke-width: 0.8; stroke-linecap: square"/>
     </g>
     <g id="line2d_16">
      <g>
       <use xlink:href="#m809625c3d3" x="33.2875" y="197.127273" style="stroke: #000000; stroke-width: 0.8"/>
      </g>
     </g>
     <g id="text_8">
      <!-- 200 -->
      <g transform="translate(7.2 200.926491) scale(0.1 -0.1)">
       <use xlink:href="#DejaVuSans-32"/>
       <use xlink:href="#DejaVuSans-30" x="63.623047"/>
       <use xlink:href="#DejaVuSans-30" x="127.246094"/>
      </g>
     </g>
    </g>
    <g id="ytick_4">
     <g id="line2d_17">
      <path d="M 33.2875 153.490909 
L 591.2875 153.490909 
" clip-path="url(#pdfe6d5fd5c)" style="fill: none; stroke: #b0b0b0; stroke-width: 0.8; stroke-linecap: square"/>
     </g>
     <g id="line2d_18">
      <g>
       <use xlink:href="#m809625c3d3" x="33.2875" y="153.490909" style="stroke: #000000; stroke-width: 0.8"/>
      </g>
     </g>
     <g id="text_9">
      <!-- 300 -->
      <g transform="translate(7.2 157.290128) scale(0.1 -0.1)">
       <defs>
        <path id="DejaVuSans-33" d="M 2597 2516 
Q 3050 2419 3304 2112 
Q 3559 1806 3559 1356 
Q 3559 666 3084 287 
Q 2609 -91 1734 -91 
Q 1441 -91 1130 -33 
Q 819 25 488 141 
L 488 750 
Q 750 597 1062 519 
Q 1375 441 1716 441 
Q 2309 441 2620 675 
Q 2931 909 2931 1356 
Q 2931 1769 2642 2001 
Q 2353 2234 1838 2234 
L 1294 2234 
L 1294 2753 
L 1863 2753 
Q 2328 2753 2575 2939 
Q 2822 3125 2822 3475 
Q 2822 3834 2567 4026 
Q 2313 4219 1838 4219 
Q 1578 4219 1281 4162 
Q 984 4106 628 3988 
L 628 4550 
Q 988 4650 1302 4700 
Q 1616 4750 1894 4750 
Q 2613 4750 3031 4423 
Q 3450 4097 3450 3541 
Q 3450 3153 3228 2886 
Q 3006 2619 2597 2516 
z
" transform="scale(0.015625)"/>
       </defs>
       <use xlink:href="#DejaVuSans-33"/>
       <use xlink:href="#DejaVuSans-30" x="63.623047"/>
       <use xlink:href="#DejaVuSans-30" x="127.246094"/>
      </g>
     </g>
    </g>
    <g id="ytick_5">
     <g id="line2d_19">
      <path d="M 33.2875 109.854545 
L 591.2875 109.854545 
" clip-path="url(#pdfe6d5fd5c)" style="fill: none; stroke: #b0b0b0; stroke-width: 0.8; stroke-linecap: square"/>
     </g>
     <g id="line2d_20">
      <g>
       <use xlink:href="#m809625c3d3" x="33.2875" y="109.854545" style="stroke: #000000; stroke-width: 0.8"/>
      </g>
     </g>
     <g id="text_10">
      <!-- 400 -->
      <g transform="translate(7.2 113.653764) scale(0.1 -0.1)">
       <use xlink:href="#DejaVuSans-34"/>
       <use xlink:href="#DejaVuSans-30" x="63.623047"/>
       <use xlink:href="#DejaVuSans-30" x="127.246094"/>
      </g>
     </g>
    </g>
    <g id="ytick_6">
     <g id="line2d_21">
      <path d="M 33.2875 66.218182 
L 591.2875 66.218182 
" clip-path="url(#pdfe6d5fd5c)" style="fill: none; stroke: #b0b0b0; stroke-width: 0.8; stroke-linecap: square"/>
     </g>
     <g id="line2d_22">
      <g>
       <use xlink:href="#m809625c3d3" x="33.2875" y="66.218182" style="stroke: #000000; stroke-width: 0.8"/>
      </g>
     </g>
     <g id="text_11">
      <!-- 500 -->
      <g transform="translate(7.2 70.017401) scale(0.1 -0.1)">
       <defs>
        <path id="DejaVuSans-35" d="M 691 4666 
L 3169 4666 
L 3169 4134 
L 1269 4134 
L 1269 2991 
Q 1406 3038 1543 3061 
Q 1681 3084 1819 3084 
Q 2600 3084 3056 2656 
Q 3513 2228 3513 1497 
Q 3513 744 3044 326 
Q 2575 -91 1722 -91 
Q 1428 -91 1123 -41 
Q 819 9 494 109 
L 494 744 
Q 775 591 1075 516 
Q 1375 441 1709 441 
Q 2250 441 2565 725 
Q 2881 1009 2881 1497 
Q 2881 1984 2565 2268 
Q 2250 2553 1709 2553 
Q 1456 2553 1204 2497 
Q 953 2441 691 2322 
L 691 4666 
z
" transform="scale(0.015625)"/>
       </defs>
       <use xlink:href="#DejaVuSans-35"/>
       <use xlink:href="#DejaVuSans-30" x="63.623047"/>
       <use xlink:href="#DejaVuSans-30" x="127.246094"/>
      </g>
     </g>
    </g>
    <g id="ytick_7">
     <g id="line2d_23">
      <path d="M 33.2875 22.581818 
L 591.2875 22.581818 
" clip-path="url(#pdfe6d5fd5c)" style="fill: none; stroke: #b0b0b0; stroke-width: 0.8; stroke-linecap: square"/>
     </g>
     <g id="line2d_24">
      <g>
       <use xlink:href="#m809625c3d3" x="33.2875" y="22.581818" style="stroke: #000000; stroke-width: 0.8"/>
      </g>
     </g>
     <g id="text_12">
      <!-- 600 -->
      <g transform="translate(7.2 26.381037) scale(0.1 -0.1)">
       <use xlink:href="#DejaVuSans-36"/>
       <use xlink:href="#DejaVuSans-30" x="63.623047"/>
       <use xlink:href="#DejaVuSans-30" x="127.246094"/>
      </g>
     </g>
    </g>
   </g>
   <g id="patch_43">
    <path d="M 33.2875 284.4 
L 33.2875 7.2 
" style="fill: none; stroke: #000000; stroke-width: 0.8; stroke-linejoin: miter; stroke-linecap: square"/>
   </g>
   <g id="patch_44">
    <path d="M 591.2875 284.4 
L 591.2875 7.2 
" style="fill: none; stroke: #000000; stroke-width: 0.8; stroke-linejoin: miter; stroke-linecap: square"/>
   </g>
   <g id="patch_45">
    <path d="M 33.2875 284.4 
L 591.2875 284.4 
" style="fill: none; stroke: #000000; stroke-width: 0.8; stroke-linejoin: miter; stroke-linecap: square"/>
   </g>
   <g id="patch_46">
    <path d="M 33.2875 7.2 
L 591.2875 7.2 
" style="fill: none; stroke: #000000; stroke-width: 0.8; stroke-linejoin: miter; stroke-linecap: square"/>
   </g>
  </g>
 </g>
 <defs>
  <clipPath id="pdfe6d5fd5c">
   <rect x="33.2875" y="7.2" width="558" height="277.2"/>
  </clipPath>
 </defs>
</svg>