<?xml version="1.0" encoding="UTF-8" standalone="no"?>
<!DOCTYPE svg PUBLIC "-//W3C//DTD SVG 1.1//EN"
 "http://www.w3.org/Graphics/SVG/1.1/DTD/svg11.dtd">
<!-- Generated by graphviz version 11.0.0 (20240428.1522)
 -->
<!-- Title: Tree Pages: 1 -->
<svg width="809pt" height="671pt"
 viewBox="0.00 0.00 809.38 671.00" xmlns="http://www.w3.org/2000/svg" xmlns:xlink="http://www.w3.org/1999/xlink">
<g id="graph0" class="graph" transform="scale(1 1) rotate(0) translate(4 667)">
<title>Tree</title>
<polygon fill="white" stroke="none" points="-4,4 -4,-667 805.38,-667 805.38,4 -4,4"/>
<!-- 0 -->
<g id="node1" class="node">
<title>0</title>
<path fill="#ffffff" stroke="black" d="M485.88,-663C485.88,-663 378.38,-663 378.38,-663 372.38,-663 366.38,-657 366.38,-651 366.38,-651 366.38,-592 366.38,-592 366.38,-586 372.38,-580 378.38,-580 378.38,-580 485.88,-580 485.88,-580 491.88,-580 497.88,-586 497.88,-592 497.88,-592 497.88,-651 497.88,-651 497.88,-657 491.88,-663 485.88,-663"/>
<text text-anchor="start" x="381.12" y="-645.7" font-family="Helvetica,sans-Serif" font-size="14.00">petal_width ≤ 0.8</text>
<text text-anchor="start" x="396.88" y="-630.7" font-family="Helvetica,sans-Serif" font-size="14.00">gini = 0.667</text>
<text text-anchor="start" x="387.5" y="-615.7" font-family="Helvetica,sans-Serif" font-size="14.00">samples = 150</text>
<text text-anchor="start" x="374.38" y="-600.7" font-family="Helvetica,sans-Serif" font-size="14.00">value = [50, 50, 50]</text>
<text text-anchor="start" x="389" y="-585.7" font-family="Helvetica,sans-Serif" font-size="14.00">class = setosa</text>
</g>
<!-- 1 -->
<g id="node2" class="node">
<title>1</title>
<path fill="#e58139" stroke="black" d="M409.38,-536.5C409.38,-536.5 316.88,-536.5 316.88,-536.5 310.88,-536.5 304.88,-530.5 304.88,-524.5 304.88,-524.5 304.88,-480.5 304.88,-480.5 304.88,-474.5 310.88,-468.5 316.88,-468.5 316.88,-468.5 409.38,-468.5 409.38,-468.5 415.38,-468.5 421.38,-474.5 421.38,-480.5 421.38,-480.5 421.38,-524.5 421.38,-524.5 421.38,-530.5 415.38,-536.5 409.38,-536.5"/>
<text text-anchor="start" x="335.38" y="-519.2" font-family="Helvetica,sans-Serif" font-size="14.00">gini = 0.0</text>
<text text-anchor="start" x="322.25" y="-504.2" font-family="Helvetica,sans-Serif" font-size="14.00">samples = 50</text>
<text text-anchor="start" x="312.88" y="-489.2" font-family="Helvetica,sans-Serif" font-size="14.00">value = [50, 0, 0]</text>
<text text-anchor="start" x="320" y="-474.2" font-family="Helvetica,sans-Serif" font-size="14.00">class = setosa</text>
</g>
<!-- 0&#45;&gt;1 -->
<g id="edge1" class="edge">
<title>0&#45;&gt;1</title>
<path fill="none" stroke="black" d="M407.99,-579.58C401.68,-568.88 394.87,-557.32 388.5,-546.52"/>
<polygon fill="black" stroke="black" points="391.66,-545 383.57,-538.16 385.63,-548.56 391.66,-545"/>
<text text-anchor="middle" x="376.55" y="-555.27" font-family="Helvetica,sans-Serif" font-size="14.00">True</text>
</g>
<!-- 2 -->
<g id="node3" class="node">
<title>2</title>
<path fill="#ffffff" stroke="black" d="M552.88,-544C552.88,-544 451.38,-544 451.38,-544 445.38,-544 439.38,-538 439.38,-532 439.38,-532 439.38,-473 439.38,-473 439.38,-467 445.38,-461 451.38,-461 451.38,-461 552.88,-461 552.88,-461 558.88,-461 564.88,-467 564.88,-473 564.88,-473 564.88,-532 564.88,-532 564.88,-538 558.88,-544 552.88,-544"/>
<text text-anchor="start" x="447.38" y="-526.7" font-family="Helvetica,sans-Serif" font-size="14.00">petal_width ≤ 1.75</text>
<text text-anchor="start" x="474.38" y="-511.7" font-family="Helvetica,sans-Serif" font-size="14.00">gini = 0.5</text>
<text text-anchor="start" x="457.5" y="-496.7" font-family="Helvetica,sans-Serif" font-size="14.00">samples = 100</text>
<text text-anchor="start" x="448.12" y="-481.7" font-family="Helvetica,sans-Serif" font-size="14.00">value = [0, 50, 50]</text>
<text text-anchor="start" x="450" y="-466.7" font-family="Helvetica,sans-Serif" font-size="14.00">class = versicolor</text>
</g>
<!-- 0&#45;&gt;2 -->
<g id="edge2" class="edge">
<title>0&#45;&gt;2</title>
<path fill="none" stroke="black" d="M456.61,-579.58C461.54,-571.34 466.78,-562.58 471.88,-554.06"/>
<polygon fill="black" stroke="black" points="474.87,-555.88 477,-545.5 468.86,-552.28 474.87,-555.88"/>
<text text-anchor="middle" x="483.87" y="-562.65" font-family="Helvetica,sans-Serif" font-size="14.00">False</text>
</g>
<!-- 3 -->
<g id="node4" class="node">
<title>3</title>
<path fill="#4de88e" stroke="black" d="M450.5,-425C450.5,-425 343.75,-425 343.75,-425 337.75,-425 331.75,-419 331.75,-413 331.75,-413 331.75,-354 331.75,-354 331.75,-348 337.75,-342 343.75,-342 343.75,-342 450.5,-342 450.5,-342 456.5,-342 462.5,-348 462.5,-354 462.5,-354 462.5,-413 462.5,-413 462.5,-419 456.5,-425 450.5,-425"/>
<text text-anchor="start" x="339.75" y="-407.7" font-family="Helvetica,sans-Serif" font-size="14.00">petal_length ≤ 4.95</text>
<text text-anchor="start" x="361.88" y="-392.7" font-family="Helvetica,sans-Serif" font-size="14.00">gini = 0.168</text>
<text text-anchor="start" x="356.25" y="-377.7" font-family="Helvetica,sans-Serif" font-size="14.00">samples = 54</text>
<text text-anchor="start" x="346.88" y="-362.7" font-family="Helvetica,sans-Serif" font-size="14.00">value = [0, 49, 5]</text>
<text text-anchor="start" x="345" y="-347.7" font-family="Helvetica,sans-Serif" font-size="14.00">class = versicolor</text>
</g>
<!-- 2&#45;&gt;3 -->
<g id="edge3" class="edge">
<title>2&#45;&gt;3</title>
<path fill="none" stroke="black" d="M465.4,-460.58C457.6,-451.89 449.29,-442.63 441.25,-433.67"/>
<polygon fill="black" stroke="black" points="443.95,-431.43 434.66,-426.33 438.74,-436.11 443.95,-431.43"/>
</g>
<!-- 12 -->
<g id="node13" class="node">
<title>12</title>
<path fill="#843de6" stroke="black" d="M659.5,-425C659.5,-425 552.75,-425 552.75,-425 546.75,-425 540.75,-419 540.75,-413 540.75,-413 540.75,-354 540.75,-354 540.75,-348 546.75,-342 552.75,-342 552.75,-342 659.5,-342 659.5,-342 665.5,-342 671.5,-348 671.5,-354 671.5,-354 671.5,-413 671.5,-413 671.5,-419 665.5,-425 659.5,-425"/>
<text text-anchor="start" x="548.75" y="-407.7" font-family="Helvetica,sans-Serif" font-size="14.00">petal_length ≤ 4.85</text>
<text text-anchor="start" x="570.88" y="-392.7" font-family="Helvetica,sans-Serif" font-size="14.00">gini = 0.043</text>
<text text-anchor="start" x="565.25" y="-377.7" font-family="Helvetica,sans-Serif" font-size="14.00">samples = 46</text>
<text text-anchor="start" x="555.88" y="-362.7" font-family="Helvetica,sans-Serif" font-size="14.00">value = [0, 1, 45]</text>
<text text-anchor="start" x="558.12" y="-347.7" font-family="Helvetica,sans-Serif" font-size="14.00">class = virginica</text>
</g>
<!-- 2&#45;&gt;12 -->
<g id="edge12" class="edge">
<title>2&#45;&gt;12</title>
<path fill="none" stroke="black" d="M538.5,-460.58C546.22,-451.89 554.45,-442.63 562.42,-433.67"/>
<polygon fill="black" stroke="black" points="564.91,-436.13 568.94,-426.33 559.68,-431.48 564.91,-436.13"/>
</g>
<!-- 4 -->
<g id="node5" class="node">
<title>4</title>
<path fill="#3de684" stroke="black" d="M244.88,-306C244.88,-306 143.38,-306 143.38,-306 137.38,-306 131.38,-300 131.38,-294 131.38,-294 131.38,-235 131.38,-235 131.38,-229 137.38,-223 143.38,-223 143.38,-223 244.88,-223 244.88,-223 250.88,-223 256.88,-229 256.88,-235 256.88,-235 256.88,-294 256.88,-294 256.88,-300 250.88,-306 244.88,-306"/>
<text text-anchor="start" x="139.38" y="-288.7" font-family="Helvetica,sans-Serif" font-size="14.00">petal_width ≤ 1.65</text>
<text text-anchor="start" x="158.88" y="-273.7" font-family="Helvetica,sans-Serif" font-size="14.00">gini = 0.041</text>
<text text-anchor="start" x="153.25" y="-258.7" font-family="Helvetica,sans-Serif" font-size="14.00">samples = 48</text>
<text text-anchor="start" x="143.88" y="-243.7" font-family="Helvetica,sans-Serif" font-size="14.00">value = [0, 47, 1]</text>
<text text-anchor="start" x="142" y="-228.7" font-family="Helvetica,sans-Serif" font-size="14.00">class = versicolor</text>
</g>
<!-- 3&#45;&gt;4 -->
<g id="edge4" class="edge">
<title>3&#45;&gt;4</title>
<path fill="none" stroke="black" d="M331.5,-344.68C310.9,-332.8 288.03,-319.62 266.97,-307.48"/>
<polygon fill="black" stroke="black" points="268.83,-304.52 258.42,-302.56 265.33,-310.58 268.83,-304.52"/>
</g>
<!-- 7 -->
<g id="node8" class="node">
<title>7</title>
<path fill="#c09cf2" stroke="black" d="M447.88,-306C447.88,-306 346.38,-306 346.38,-306 340.38,-306 334.38,-300 334.38,-294 334.38,-294 334.38,-235 334.38,-235 334.38,-229 340.38,-223 346.38,-223 346.38,-223 447.88,-223 447.88,-223 453.88,-223 459.88,-229 459.88,-235 459.88,-235 459.88,-294 459.88,-294 459.88,-300 453.88,-306 447.88,-306"/>
<text text-anchor="start" x="342.38" y="-288.7" font-family="Helvetica,sans-Serif" font-size="14.00">petal_width ≤ 1.55</text>
<text text-anchor="start" x="361.88" y="-273.7" font-family="Helvetica,sans-Serif" font-size="14.00">gini = 0.444</text>
<text text-anchor="start" x="360" y="-258.7" font-family="Helvetica,sans-Serif" font-size="14.00">samples = 6</text>
<text text-anchor="start" x="350.62" y="-243.7" font-family="Helvetica,sans-Serif" font-size="14.00">value = [0, 2, 4]</text>
<text text-anchor="start" x="349.12" y="-228.7" font-family="Helvetica,sans-Serif" font-size="14.00">class = virginica</text>
</g>
<!-- 3&#45;&gt;7 -->
<g id="edge7" class="edge">
<title>3&#45;&gt;7</title>
<path fill="none" stroke="black" d="M397.12,-341.58C397.12,-333.79 397.12,-325.53 397.12,-317.45"/>
<polygon fill="black" stroke="black" points="400.63,-317.71 397.13,-307.71 393.63,-317.71 400.63,-317.71"/>
</g>
<!-- 5 -->
<g id="node6" class="node">
<title>5</title>
<path fill="#39e581" stroke="black" d="M108.25,-179.5C108.25,-179.5 12,-179.5 12,-179.5 6,-179.5 0,-173.5 0,-167.5 0,-167.5 0,-123.5 0,-123.5 0,-117.5 6,-111.5 12,-111.5 12,-111.5 108.25,-111.5 108.25,-111.5 114.25,-111.5 120.25,-117.5 120.25,-123.5 120.25,-123.5 120.25,-167.5 120.25,-167.5 120.25,-173.5 114.25,-179.5 108.25,-179.5"/>
<text text-anchor="start" x="32.38" y="-162.2" font-family="Helvetica,sans-Serif" font-size="14.00">gini = 0.0</text>
<text text-anchor="start" x="19.25" y="-147.2" font-family="Helvetica,sans-Serif" font-size="14.00">samples = 47</text>
<text text-anchor="start" x="9.88" y="-132.2" font-family="Helvetica,sans-Serif" font-size="14.00">value = [0, 47, 0]</text>
<text text-anchor="start" x="8" y="-117.2" font-family="Helvetica,sans-Serif" font-size="14.00">class = versicolor</text>
</g>
<!-- 4&#45;&gt;5 -->
<g id="edge5" class="edge">
<title>4&#45;&gt;5</title>
<path fill="none" stroke="black" d="M147.26,-222.58C134.13,-211.12 119.87,-198.67 106.76,-187.22"/>
<polygon fill="black" stroke="black" points="109.31,-184.8 99.47,-180.86 104.7,-190.07 109.31,-184.8"/>
</g>
<!-- 6 -->
<g id="node7" class="node">
<title>6</title>
<path fill="#8139e5" stroke="black" d="M238.12,-179.5C238.12,-179.5 150.12,-179.5 150.12,-179.5 144.12,-179.5 138.12,-173.5 138.12,-167.5 138.12,-167.5 138.12,-123.5 138.12,-123.5 138.12,-117.5 144.12,-111.5 150.12,-111.5 150.12,-111.5 238.12,-111.5 238.12,-111.5 244.12,-111.5 250.12,-117.5 250.12,-123.5 250.12,-123.5 250.12,-167.5 250.12,-167.5 250.12,-173.5 244.12,-179.5 238.12,-179.5"/>
<text text-anchor="start" x="166.38" y="-162.2" font-family="Helvetica,sans-Serif" font-size="14.00">gini = 0.0</text>
<text text-anchor="start" x="157" y="-147.2" font-family="Helvetica,sans-Serif" font-size="14.00">samples = 1</text>
<text text-anchor="start" x="147.62" y="-132.2" font-family="Helvetica,sans-Serif" font-size="14.00">value = [0, 0, 1]</text>
<text text-anchor="start" x="146.12" y="-117.2" font-family="Helvetica,sans-Serif" font-size="14.00">class = virginica</text>
</g>
<!-- 4&#45;&gt;6 -->
<g id="edge6" class="edge">
<title>4&#45;&gt;6</title>
<path fill="none" stroke="black" d="M194.12,-222.58C194.12,-212.43 194.12,-201.5 194.12,-191.18"/>
<polygon fill="black" stroke="black" points="197.63,-191.37 194.13,-181.37 190.63,-191.37 197.63,-191.37"/>
</g>
<!-- 8 -->
<g id="node9" class="node">
<title>8</title>
<path fill="#8139e5" stroke="black" d="M368.12,-179.5C368.12,-179.5 280.12,-179.5 280.12,-179.5 274.12,-179.5 268.12,-173.5 268.12,-167.5 268.12,-167.5 268.12,-123.5 268.12,-123.5 268.12,-117.5 274.12,-111.5 280.12,-111.5 280.12,-111.5 368.12,-111.5 368.12,-111.5 374.12,-111.5 380.12,-117.5 380.12,-123.5 380.12,-123.5 380.12,-167.5 380.12,-167.5 380.12,-173.5 374.12,-179.5 368.12,-179.5"/>
<text text-anchor="start" x="296.38" y="-162.2" font-family="Helvetica,sans-Serif" font-size="14.00">gini = 0.0</text>
<text text-anchor="start" x="287" y="-147.2" font-family="Helvetica,sans-Serif" font-size="14.00">samples = 3</text>
<text text-anchor="start" x="277.62" y="-132.2" font-family="Helvetica,sans-Serif" font-size="14.00">value = [0, 0, 3]</text>
<text text-anchor="start" x="276.12" y="-117.2" font-family="Helvetica,sans-Serif" font-size="14.00">class = virginica</text>
</g>
<!-- 7&#45;&gt;8 -->
<g id="edge8" class="edge">
<title>7&#45;&gt;8</title>
<path fill="none" stroke="black" d="M371.59,-222.58C364.92,-211.88 357.71,-200.32 350.97,-189.52"/>
<polygon fill="black" stroke="black" points="354,-187.78 345.74,-181.15 348.07,-191.48 354,-187.78"/>
</g>
<!-- 9 -->
<g id="node10" class="node">
<title>9</title>
<path fill="#9cf2c0" stroke="black" d="M520,-187C520,-187 410.25,-187 410.25,-187 404.25,-187 398.25,-181 398.25,-175 398.25,-175 398.25,-116 398.25,-116 398.25,-110 404.25,-104 410.25,-104 410.25,-104 520,-104 520,-104 526,-104 532,-110 532,-116 532,-116 532,-175 532,-175 532,-181 526,-187 520,-187"/>
<text text-anchor="start" x="406.25" y="-169.7" font-family="Helvetica,sans-Serif" font-size="14.00">sepal_length ≤ 6.95</text>
<text text-anchor="start" x="429.88" y="-154.7" font-family="Helvetica,sans-Serif" font-size="14.00">gini = 0.444</text>
<text text-anchor="start" x="428" y="-139.7" font-family="Helvetica,sans-Serif" font-size="14.00">samples = 3</text>
<text text-anchor="start" x="418.62" y="-124.7" font-family="Helvetica,sans-Serif" font-size="14.00">value = [0, 2, 1]</text>
<text text-anchor="start" x="413" y="-109.7" font-family="Helvetica,sans-Serif" font-size="14.00">class = versicolor</text>
</g>
<!-- 7&#45;&gt;9 -->
<g id="edge9" class="edge">
<title>7&#45;&gt;9</title>
<path fill="none" stroke="black" d="M420.91,-222.58C425.7,-214.34 430.79,-205.58 435.74,-197.06"/>
<polygon fill="black" stroke="black" points="438.71,-198.91 440.71,-188.51 432.66,-195.4 438.71,-198.91"/>
</g>
<!-- 10 -->
<g id="node11" class="node">
<title>10</title>
<path fill="#39e581" stroke="black" d="M446.25,-68C446.25,-68 350,-68 350,-68 344,-68 338,-62 338,-56 338,-56 338,-12 338,-12 338,-6 344,0 350,0 350,0 446.25,0 446.25,0 452.25,0 458.25,-6 458.25,-12 458.25,-12 458.25,-56 458.25,-56 458.25,-62 452.25,-68 446.25,-68"/>
<text text-anchor="start" x="370.38" y="-50.7" font-family="Helvetica,sans-Serif" font-size="14.00">gini = 0.0</text>
<text text-anchor="start" x="361" y="-35.7" font-family="Helvetica,sans-Serif" font-size="14.00">samples = 2</text>
<text text-anchor="start" x="351.62" y="-20.7" font-family="Helvetica,sans-Serif" font-size="14.00">value = [0, 2, 0]</text>
<text text-anchor="start" x="346" y="-5.7" font-family="Helvetica,sans-Serif" font-size="14.00">class = versicolor</text>
</g>
<!-- 9&#45;&gt;10 -->
<g id="edge10" class="edge">
<title>9&#45;&gt;10</title>
<path fill="none" stroke="black" d="M440.18,-103.73C435.04,-95.34 429.62,-86.47 424.44,-78.01"/>
<polygon fill="black" stroke="black" points="427.49,-76.29 419.29,-69.59 421.52,-79.95 427.49,-76.29"/>
</g>
<!-- 11 -->
<g id="node12" class="node">
<title>11</title>
<path fill="#8139e5" stroke="black" d="M576.12,-68C576.12,-68 488.12,-68 488.12,-68 482.12,-68 476.12,-62 476.12,-56 476.12,-56 476.12,-12 476.12,-12 476.12,-6 482.12,0 488.12,0 488.12,0 576.12,0 576.12,0 582.12,0 588.12,-6 588.12,-12 588.12,-12 588.12,-56 588.12,-56 588.12,-62 582.12,-68 576.12,-68"/>
<text text-anchor="start" x="504.38" y="-50.7" font-family="Helvetica,sans-Serif" font-size="14.00">gini = 0.0</text>
<text text-anchor="start" x="495" y="-35.7" font-family="Helvetica,sans-Serif" font-size="14.00">samples = 1</text>
<text text-anchor="start" x="485.62" y="-20.7" font-family="Helvetica,sans-Serif" font-size="14.00">value = [0, 0, 1]</text>
<text text-anchor="start" x="484.12" y="-5.7" font-family="Helvetica,sans-Serif" font-size="14.00">class = virginica</text>
</g>
<!-- 9&#45;&gt;11 -->
<g id="edge11" class="edge">
<title>9&#45;&gt;11</title>
<path fill="none" stroke="black" d="M490.07,-103.73C495.21,-95.34 500.63,-86.47 505.81,-78.01"/>
<polygon fill="black" stroke="black" points="508.73,-79.95 510.96,-69.59 502.76,-76.29 508.73,-79.95"/>
</g>
<!-- 13 -->
<g id="node14" class="node">
<title>13</title>
<path fill="#c09cf2" stroke="black" d="M654.62,-306C654.62,-306 557.62,-306 557.62,-306 551.62,-306 545.62,-300 545.62,-294 545.62,-294 545.62,-235 545.62,-235 545.62,-229 551.62,-223 557.62,-223 557.62,-223 654.62,-223 654.62,-223 660.62,-223 666.62,-229 666.62,-235 666.62,-235 666.62,-294 666.62,-294 666.62,-300 660.62,-306 654.62,-306"/>
<text text-anchor="start" x="553.62" y="-288.7" font-family="Helvetica,sans-Serif" font-size="14.00">sepal_width ≤ 3.1</text>
<text text-anchor="start" x="570.88" y="-273.7" font-family="Helvetica,sans-Serif" font-size="14.00">gini = 0.444</text>
<text text-anchor="start" x="569" y="-258.7" font-family="Helvetica,sans-Serif" font-size="14.00">samples = 3</text>
<text text-anchor="start" x="559.62" y="-243.7" font-family="Helvetica,sans-Serif" font-size="14.00">value = [0, 1, 2]</text>
<text text-anchor="start" x="558.12" y="-228.7" font-family="Helvetica,sans-Serif" font-size="14.00">class = virginica</text>
</g>
<!-- 12&#45;&gt;13 -->
<g id="edge13" class="edge">
<title>12&#45;&gt;13</title>
<path fill="none" stroke="black" d="M606.12,-341.58C606.12,-333.79 606.12,-325.53 606.12,-317.45"/>
<polygon fill="black" stroke="black" points="609.63,-317.71 606.13,-307.71 602.63,-317.71 609.63,-317.71"/>
</g>
<!-- 16 -->
<g id="node17" class="node">
<title>16</title>
<path fill="#8139e5" stroke="black" d="M789.38,-298.5C789.38,-298.5 696.88,-298.5 696.88,-298.5 690.88,-298.5 684.88,-292.5 684.88,-286.5 684.88,-286.5 684.88,-242.5 684.88,-242.5 684.88,-236.5 690.88,-230.5 696.88,-230.5 696.88,-230.5 789.38,-230.5 789.38,-230.5 795.38,-230.5 801.38,-236.5 801.38,-242.5 801.38,-242.5 801.38,-286.5 801.38,-286.5 801.38,-292.5 795.38,-298.5 789.38,-298.5"/>
<text text-anchor="start" x="715.38" y="-281.2" font-family="Helvetica,sans-Serif" font-size="14.00">gini = 0.0</text>
<text text-anchor="start" x="702.25" y="-266.2" font-family="Helvetica,sans-Serif" font-size="14.00">samples = 43</text>
<text text-anchor="start" x="692.88" y="-251.2" font-family="Helvetica,sans-Serif" font-size="14.00">value = [0, 0, 43]</text>
<text text-anchor="start" x="695.12" y="-236.2" font-family="Helvetica,sans-Serif" font-size="14.00">class = virginica</text>
</g>
<!-- 12&#45;&gt;16 -->
<g id="edge16" class="edge">
<title>12&#45;&gt;16</title>
<path fill="none" stroke="black" d="M654.04,-341.58C667.46,-330.12 682.04,-317.67 695.45,-306.22"/>
<polygon fill="black" stroke="black" points="697.58,-309 702.91,-299.84 693.03,-303.68 697.58,-309"/>
</g>
<!-- 14 -->
<g id="node15" class="node">
<title>14</title>
<path fill="#8139e5" stroke="black" d="M650.12,-179.5C650.12,-179.5 562.12,-179.5 562.12,-179.5 556.12,-179.5 550.12,-173.5 550.12,-167.5 550.12,-167.5 550.12,-123.5 550.12,-123.5 550.12,-117.5 556.12,-111.5 562.12,-111.5 562.12,-111.5 650.12,-111.5 650.12,-111.5 656.12,-111.5 662.12,-117.5 662.12,-123.5 662.12,-123.5 662.12,-167.5 662.12,-167.5 662.12,-173.5 656.12,-179.5 650.12,-179.5"/>
<text text-anchor="start" x="578.38" y="-162.2" font-family="Helvetica,sans-Serif" font-size="14.00">gini = 0.0</text>
<text text-anchor="start" x="569" y="-147.2" font-family="Helvetica,sans-Serif" font-size="14.00">samples = 2</text>
<text text-anchor="start" x="559.62" y="-132.2" font-family="Helvetica,sans-Serif" font-size="14.00">value = [0, 0, 2]</text>
<text text-anchor="start" x="558.12" y="-117.2" font-family="Helvetica,sans-Serif" font-size="14.00">class = virginica</text>
</g>
<!-- 13&#45;&gt;14 -->
<g id="edge14" class="edge">
<title>13&#45;&gt;14</title>
<path fill="none" stroke="black" d="M606.12,-222.58C606.12,-212.43 606.12,-201.5 606.12,-191.18"/>
<polygon fill="black" stroke="black" points="609.63,-191.37 606.13,-181.37 602.63,-191.37 609.63,-191.37"/>
</g>
<!-- 15 -->
<g id="node16" class="node">
<title>15</title>
<path fill="#39e581" stroke="black" d="M788.25,-179.5C788.25,-179.5 692,-179.5 692,-179.5 686,-179.5 680,-173.5 680,-167.5 680,-167.5 680,-123.5 680,-123.5 680,-117.5 686,-111.5 692,-111.5 692,-111.5 788.25,-111.5 788.25,-111.5 794.25,-111.5 800.25,-117.5 800.25,-123.5 800.25,-123.5 800.25,-167.5 800.25,-167.5 800.25,-173.5 794.25,-179.5 788.25,-179.5"/>
<text text-anchor="start" x="712.38" y="-162.2" font-family="Helvetica,sans-Serif" font-size="14.00">gini = 0.0</text>
<text text-anchor="start" x="703" y="-147.2" font-family="Helvetica,sans-Serif" font-size="14.00">samples = 1</text>
<text text-anchor="start" x="693.62" y="-132.2" font-family="Helvetica,sans-Serif" font-size="14.00">value = [0, 1, 0]</text>
<text text-anchor="start" x="688" y="-117.2" font-family="Helvetica,sans-Serif" font-size="14.00">class = versicolor</text>
</g>
<!-- 13&#45;&gt;15 -->
<g id="edge15" class="edge">
<title>13&#45;&gt;15</title>
<path fill="none" stroke="black" d="M652.99,-222.58C666.12,-211.12 680.38,-198.67 693.49,-187.22"/>
<polygon fill="black" stroke="black" points="695.55,-190.07 700.78,-180.86 690.94,-184.8 695.55,-190.07"/>
</g>
</g>
</svg>