<?xml version="1.0" encoding="utf-8" standalone="no"?>
<!DOCTYPE svg PUBLIC "-//W3C//DTD SVG 1.1//EN"
  "http://www.w3.org/Graphics/SVG/1.1/DTD/svg11.dtd">
<svg xmlns:xlink="http://www.w3.org/1999/xlink" width="394.423125pt" height="297.190125pt" viewBox="0 0 394.423125 297.190125" xmlns="http://www.w3.org/2000/svg" version="1.1">
 <metadata>
  <rdf:RDF xmlns:dc="http://purl.org/dc/elements/1.1/" xmlns:cc="http://creativecommons.org/ns#" xmlns:rdf="http://www.w3.org/1999/02/22-rdf-syntax-ns#">
   <cc:Work>
    <dc:type rdf:resource="http://purl.org/dc/dcmitype/StillImage"/>
    <dc:date>2024-11-01T21:27:56.977212</dc:date>
    <dc:format>image/svg+xml</dc:format>
    <dc:creator>
     <cc:Agent>
      <dc:title>Matplotlib v3.7.1, https://matplotlib.org/</dc:title>
     </cc:Agent>
    </dc:creator>
   </cc:Work>
  </rdf:RDF>
 </metadata>
 <defs>
  <style type="text/css">*{stroke-linejoin: round; stroke-linecap: butt}</style>
 </defs>
 <g id="figure_1">
  <g id="patch_1">
   <path d="M 0 297.190125 
L 394.423125 297.190125 
L 394.423125 0 
L 0 0 
z
" style="fill: #ffffff"/>
  </g>
  <g id="axes_1">
   <g id="patch_2">
    <path d="M 30.103125 273.312 
L 387.223125 273.312 
L 387.223125 7.2 
L 30.103125 7.2 
z
" style="fill: #ffffff"/>
   </g>
   <g id="PathCollection_1">
    <defs>
     <path id="mdff19d8e08" d="M 0 1.581139 
C 0.419323 1.581139 0.821528 1.41454 1.118034 1.118034 
C 1.41454 0.821528 1.581139 0.419323 1.581139 0 
C 1.581139 -0.419323 1.41454 -0.821528 1.118034 -1.118034 
C 0.821528 -1.41454 0.419323 -1.581139 0 -1.581139 
C -0.419323 -1.581139 -0.821528 -1.41454 -1.118034 -1.118034 
C -1.41454 -0.821528 -1.581139 -0.419323 -1.581139 0 
C -1.581139 0.419323 -1.41454 0.821528 -1.118034 1.118034 
C -0.821528 1.41454 -0.419323 1.581139 0 1.581139 
z
" style="stroke: #0000ff"/>
    </defs>
    <g clip-path="url(#pfe8454f0aa)">
     <use xlink:href="#mdff19d8e08" x="46.335852" y="73.142792" style="fill: #0000ff; stroke: #0000ff"/>
     <use xlink:href="#mdff19d8e08" x="49.615191" y="145.591874" style="fill: #0000ff; stroke: #0000ff"/>
     <use xlink:href="#mdff19d8e08" x="52.89453" y="206.370834" style="fill: #0000ff; stroke: #0000ff"/>
     <use xlink:href="#mdff19d8e08" x="56.173869" y="153.494948" style="fill: #0000ff; stroke: #0000ff"/>
     <use xlink:href="#mdff19d8e08" x="59.453208" y="180.635905" style="fill: #0000ff; stroke: #0000ff"/>
     <use xlink:href="#mdff19d8e08" x="62.732546" y="130.657132" style="fill: #0000ff; stroke: #0000ff"/>
     <use xlink:href="#mdff19d8e08" x="66.011885" y="125.588157" style="fill: #0000ff; stroke: #0000ff"/>
     <use xlink:href="#mdff19d8e08" x="69.291224" y="186.752135" style="fill: #0000ff; stroke: #0000ff"/>
     <use xlink:href="#mdff19d8e08" x="72.570563" y="168.813822" style="fill: #0000ff; stroke: #0000ff"/>
     <use xlink:href="#mdff19d8e08" x="75.849902" y="220.599779" style="fill: #0000ff; stroke: #0000ff"/>
     <use xlink:href="#mdff19d8e08" x="79.129241" y="86.337945" style="fill: #0000ff; stroke: #0000ff"/>
     <use xlink:href="#mdff19d8e08" x="82.40858" y="205.46785" style="fill: #0000ff; stroke: #0000ff"/>
     <use xlink:href="#mdff19d8e08" x="85.687918" y="182.274421" style="fill: #0000ff; stroke: #0000ff"/>
     <use xlink:href="#mdff19d8e08" x="88.967257" y="210.178576" style="fill: #0000ff; stroke: #0000ff"/>
     <use xlink:href="#mdff19d8e08" x="92.246596" y="101.503176" style="fill: #0000ff; stroke: #0000ff"/>
     <use xlink:href="#mdff19d8e08" x="95.525935" y="231.845321" style="fill: #0000ff; stroke: #0000ff"/>
     <use xlink:href="#mdff19d8e08" x="98.805274" y="141.136156" style="fill: #0000ff; stroke: #0000ff"/>
     <use xlink:href="#mdff19d8e08" x="102.084613" y="19.296" style="fill: #0000ff; stroke: #0000ff"/>
     <use xlink:href="#mdff19d8e08" x="105.363951" y="202.361049" style="fill: #0000ff; stroke: #0000ff"/>
     <use xlink:href="#mdff19d8e08" x="108.64329" y="68.915399" style="fill: #0000ff; stroke: #0000ff"/>
     <use xlink:href="#mdff19d8e08" x="111.922629" y="202.639079" style="fill: #0000ff; stroke: #0000ff"/>
     <use xlink:href="#mdff19d8e08" x="115.201968" y="169.527376" style="fill: #0000ff; stroke: #0000ff"/>
     <use xlink:href="#mdff19d8e08" x="118.481307" y="143.957155" style="fill: #0000ff; stroke: #0000ff"/>
     <use xlink:href="#mdff19d8e08" x="121.760646" y="191.670051" style="fill: #0000ff; stroke: #0000ff"/>
     <use xlink:href="#mdff19d8e08" x="125.039985" y="150.12821" style="fill: #0000ff; stroke: #0000ff"/>
     <use xlink:href="#mdff19d8e08" x="128.319323" y="112.822402" style="fill: #0000ff; stroke: #0000ff"/>
     <use xlink:href="#mdff19d8e08" x="131.598662" y="196.182546" style="fill: #0000ff; stroke: #0000ff"/>
     <use xlink:href="#mdff19d8e08" x="134.878001" y="242.248669" style="fill: #0000ff; stroke: #0000ff"/>
     <use xlink:href="#mdff19d8e08" x="138.15734" y="210.374604" style="fill: #0000ff; stroke: #0000ff"/>
     <use xlink:href="#mdff19d8e08" x="141.436679" y="193.892499" style="fill: #0000ff; stroke: #0000ff"/>
     <use xlink:href="#mdff19d8e08" x="144.716018" y="110.26327" style="fill: #0000ff; stroke: #0000ff"/>
     <use xlink:href="#mdff19d8e08" x="147.995356" y="154.626112" style="fill: #0000ff; stroke: #0000ff"/>
     <use xlink:href="#mdff19d8e08" x="151.274695" y="199.284867" style="fill: #0000ff; stroke: #0000ff"/>
     <use xlink:href="#mdff19d8e08" x="154.554034" y="161.87133" style="fill: #0000ff; stroke: #0000ff"/>
     <use xlink:href="#mdff19d8e08" x="157.833373" y="151.386302" style="fill: #0000ff; stroke: #0000ff"/>
     <use xlink:href="#mdff19d8e08" x="161.112712" y="132.516338" style="fill: #0000ff; stroke: #0000ff"/>
     <use xlink:href="#mdff19d8e08" x="164.392051" y="170.966185" style="fill: #0000ff; stroke: #0000ff"/>
     <use xlink:href="#mdff19d8e08" x="167.671389" y="78.68121" style="fill: #0000ff; stroke: #0000ff"/>
     <use xlink:href="#mdff19d8e08" x="170.950728" y="158.396078" style="fill: #0000ff; stroke: #0000ff"/>
     <use xlink:href="#mdff19d8e08" x="174.230067" y="93.287196" style="fill: #0000ff; stroke: #0000ff"/>
     <use xlink:href="#mdff19d8e08" x="177.509406" y="157.820654" style="fill: #0000ff; stroke: #0000ff"/>
     <use xlink:href="#mdff19d8e08" x="180.788745" y="207.54359" style="fill: #0000ff; stroke: #0000ff"/>
     <use xlink:href="#mdff19d8e08" x="184.068084" y="96.032951" style="fill: #0000ff; stroke: #0000ff"/>
     <use xlink:href="#mdff19d8e08" x="187.347423" y="105.039836" style="fill: #0000ff; stroke: #0000ff"/>
     <use xlink:href="#mdff19d8e08" x="190.626761" y="103.736528" style="fill: #0000ff; stroke: #0000ff"/>
     <use xlink:href="#mdff19d8e08" x="193.9061" y="75.266984" style="fill: #0000ff; stroke: #0000ff"/>
     <use xlink:href="#mdff19d8e08" x="197.185439" y="165.2485" style="fill: #0000ff; stroke: #0000ff"/>
     <use xlink:href="#mdff19d8e08" x="200.464778" y="45.934199" style="fill: #0000ff; stroke: #0000ff"/>
     <use xlink:href="#mdff19d8e08" x="203.744117" y="149.658019" style="fill: #0000ff; stroke: #0000ff"/>
     <use xlink:href="#mdff19d8e08" x="207.023456" y="170.717443" style="fill: #0000ff; stroke: #0000ff"/>
     <use xlink:href="#mdff19d8e08" x="210.302794" y="168.244214" style="fill: #0000ff; stroke: #0000ff"/>
     <use xlink:href="#mdff19d8e08" x="213.582133" y="181.710079" style="fill: #0000ff; stroke: #0000ff"/>
     <use xlink:href="#mdff19d8e08" x="216.861472" y="93.068982" style="fill: #0000ff; stroke: #0000ff"/>
     <use xlink:href="#mdff19d8e08" x="220.140811" y="195.827855" style="fill: #0000ff; stroke: #0000ff"/>
     <use xlink:href="#mdff19d8e08" x="223.42015" y="212.932672" style="fill: #0000ff; stroke: #0000ff"/>
     <use xlink:href="#mdff19d8e08" x="226.699489" y="176.238532" style="fill: #0000ff; stroke: #0000ff"/>
     <use xlink:href="#mdff19d8e08" x="229.978827" y="164.582498" style="fill: #0000ff; stroke: #0000ff"/>
     <use xlink:href="#mdff19d8e08" x="233.258166" y="208.080155" style="fill: #0000ff; stroke: #0000ff"/>
     <use xlink:href="#mdff19d8e08" x="236.537505" y="104.888865" style="fill: #0000ff; stroke: #0000ff"/>
     <use xlink:href="#mdff19d8e08" x="239.816844" y="101.838187" style="fill: #0000ff; stroke: #0000ff"/>
     <use xlink:href="#mdff19d8e08" x="243.096183" y="175.562312" style="fill: #0000ff; stroke: #0000ff"/>
     <use xlink:href="#mdff19d8e08" x="246.375522" y="180.052422" style="fill: #0000ff; stroke: #0000ff"/>
     <use xlink:href="#mdff19d8e08" x="249.654861" y="166.618338" style="fill: #0000ff; stroke: #0000ff"/>
     <use xlink:href="#mdff19d8e08" x="252.934199" y="183.521201" style="fill: #0000ff; stroke: #0000ff"/>
     <use xlink:href="#mdff19d8e08" x="256.213538" y="210.838029" style="fill: #0000ff; stroke: #0000ff"/>
     <use xlink:href="#mdff19d8e08" x="259.492877" y="123.741094" style="fill: #0000ff; stroke: #0000ff"/>
     <use xlink:href="#mdff19d8e08" x="262.772216" y="237.391605" style="fill: #0000ff; stroke: #0000ff"/>
     <use xlink:href="#mdff19d8e08" x="266.051555" y="59.718919" style="fill: #0000ff; stroke: #0000ff"/>
     <use xlink:href="#mdff19d8e08" x="269.330894" y="215.204897" style="fill: #0000ff; stroke: #0000ff"/>
     <use xlink:href="#mdff19d8e08" x="272.610232" y="147.744018" style="fill: #0000ff; stroke: #0000ff"/>
     <use xlink:href="#mdff19d8e08" x="275.889571" y="161.845314" style="fill: #0000ff; stroke: #0000ff"/>
     <use xlink:href="#mdff19d8e08" x="279.16891" y="223.94262" style="fill: #0000ff; stroke: #0000ff"/>
     <use xlink:href="#mdff19d8e08" x="282.448249" y="193.795181" style="fill: #0000ff; stroke: #0000ff"/>
     <use xlink:href="#mdff19d8e08" x="285.727588" y="83.190342" style="fill: #0000ff; stroke: #0000ff"/>
     <use xlink:href="#mdff19d8e08" x="289.006927" y="132.135612" style="fill: #0000ff; stroke: #0000ff"/>
     <use xlink:href="#mdff19d8e08" x="292.286265" y="207.197543" style="fill: #0000ff; stroke: #0000ff"/>
     <use xlink:href="#mdff19d8e08" x="295.565604" y="205.850685" style="fill: #0000ff; stroke: #0000ff"/>
     <use xlink:href="#mdff19d8e08" x="298.844943" y="203.880038" style="fill: #0000ff; stroke: #0000ff"/>
     <use xlink:href="#mdff19d8e08" x="302.124282" y="217.465357" style="fill: #0000ff; stroke: #0000ff"/>
     <use xlink:href="#mdff19d8e08" x="305.403621" y="129.903659" style="fill: #0000ff; stroke: #0000ff"/>
     <use xlink:href="#mdff19d8e08" x="308.68296" y="84.854314" style="fill: #0000ff; stroke: #0000ff"/>
     <use xlink:href="#mdff19d8e08" x="311.962299" y="169.912471" style="fill: #0000ff; stroke: #0000ff"/>
     <use xlink:href="#mdff19d8e08" x="315.241637" y="127.837658" style="fill: #0000ff; stroke: #0000ff"/>
     <use xlink:href="#mdff19d8e08" x="318.520976" y="258.424539" style="fill: #0000ff; stroke: #0000ff"/>
     <use xlink:href="#mdff19d8e08" x="321.800315" y="159.894565" style="fill: #0000ff; stroke: #0000ff"/>
     <use xlink:href="#mdff19d8e08" x="325.079654" y="149.702297" style="fill: #0000ff; stroke: #0000ff"/>
     <use xlink:href="#mdff19d8e08" x="328.358993" y="220.206349" style="fill: #0000ff; stroke: #0000ff"/>
     <use xlink:href="#mdff19d8e08" x="331.638332" y="120.310986" style="fill: #0000ff; stroke: #0000ff"/>
     <use xlink:href="#mdff19d8e08" x="334.91767" y="180.79285" style="fill: #0000ff; stroke: #0000ff"/>
     <use xlink:href="#mdff19d8e08" x="338.197009" y="240.871548" style="fill: #0000ff; stroke: #0000ff"/>
     <use xlink:href="#mdff19d8e08" x="341.476348" y="103.732223" style="fill: #0000ff; stroke: #0000ff"/>
     <use xlink:href="#mdff19d8e08" x="344.755687" y="144.458561" style="fill: #0000ff; stroke: #0000ff"/>
     <use xlink:href="#mdff19d8e08" x="348.035026" y="261.216" style="fill: #0000ff; stroke: #0000ff"/>
     <use xlink:href="#mdff19d8e08" x="351.314365" y="147.971051" style="fill: #0000ff; stroke: #0000ff"/>
     <use xlink:href="#mdff19d8e08" x="354.593704" y="175.376413" style="fill: #0000ff; stroke: #0000ff"/>
     <use xlink:href="#mdff19d8e08" x="357.873042" y="158.618566" style="fill: #0000ff; stroke: #0000ff"/>
     <use xlink:href="#mdff19d8e08" x="361.152381" y="257.489266" style="fill: #0000ff; stroke: #0000ff"/>
     <use xlink:href="#mdff19d8e08" x="364.43172" y="167.466089" style="fill: #0000ff; stroke: #0000ff"/>
     <use xlink:href="#mdff19d8e08" x="367.711059" y="153.233962" style="fill: #0000ff; stroke: #0000ff"/>
     <use xlink:href="#mdff19d8e08" x="370.990398" y="200.867718" style="fill: #0000ff; stroke: #0000ff"/>
    </g>
   </g>
   <g id="matplotlib.axis_1">
    <g id="xtick_1">
     <g id="line2d_1">
      <path d="M 46.335852 273.312 
L 46.335852 7.2 
" clip-path="url(#pfe8454f0aa)" style="fill: none; stroke-dasharray: 0.8,1.32; stroke-dashoffset: 0; stroke: #b0b0b0; stroke-width: 0.8"/>
     </g>
     <g id="line2d_2">
      <defs>
       <path id="md1880de0b4" d="M 0 0 
L 0 3.5 
" style="stroke: #000000; stroke-width: 0.8"/>
      </defs>
      <g>
       <use xlink:href="#md1880de0b4" x="46.335852" y="273.312" style="stroke: #000000; stroke-width: 0.8"/>
      </g>
     </g>
     <g id="text_1">
      <!-- 0.0 -->
      <g transform="translate(38.38429 287.910437) scale(0.1 -0.1)">
       <defs>
        <path id="DejaVuSans-30" d="M 2034 4250 
Q 1547 4250 1301 3770 
Q 1056 3291 1056 2328 
Q 1056 1369 1301 889 
Q 1547 409 2034 409 
Q 2525 409 2770 889 
Q 3016 1369 3016 2328 
Q 3016 3291 2770 3770 
Q 2525 4250 2034 4250 
z
M 2034 4750 
Q 2819 4750 3233 4129 
Q 3647 3509 3647 2328 
Q 3647 1150 3233 529 
Q 2819 -91 2034 -91 
Q 1250 -91 836 529 
Q 422 1150 422 2328 
Q 422 3509 836 4129 
Q 1250 4750 2034 4750 
z
" transform="scale(0.015625)"/>
        <path id="DejaVuSans-2e" d="M 684 794 
L 1344 794 
L 1344 0 
L 684 0 
L 684 794 
z
" transform="scale(0.015625)"/>
       </defs>
       <use xlink:href="#DejaVuSans-30"/>
       <use xlink:href="#DejaVuSans-2e" x="63.623047"/>
       <use xlink:href="#DejaVuSans-30" x="95.410156"/>
      </g>
     </g>
    </g>
    <g id="xtick_2">
     <g id="line2d_3">
      <path d="M 111.922629 273.312 
L 111.922629 7.2 
" clip-path="url(#pfe8454f0aa)" style="fill: none; stroke-dasharray: 0.8,1.32; stroke-dashoffset: 0; stroke: #b0b0b0; stroke-width: 0.8"/>
     </g>
     <g id="line2d_4">
      <g>
       <use xlink:href="#md1880de0b4" x="111.922629" y="273.312" style="stroke: #000000; stroke-width: 0.8"/>
      </g>
     </g>
     <g id="text_2">
      <!-- 0.2 -->
      <g transform="translate(103.971067 287.910437) scale(0.1 -0.1)">
       <defs>
        <path id="DejaVuSans-32" d="M 1228 531 
L 3431 531 
L 3431 0 
L 469 0 
L 469 531 
Q 828 903 1448 1529 
Q 2069 2156 2228 2338 
Q 2531 2678 2651 2914 
Q 2772 3150 2772 3378 
Q 2772 3750 2511 3984 
Q 2250 4219 1831 4219 
Q 1534 4219 1204 4116 
Q 875 4013 500 3803 
L 500 4441 
Q 881 4594 1212 4672 
Q 1544 4750 1819 4750 
Q 2544 4750 2975 4387 
Q 3406 4025 3406 3419 
Q 3406 3131 3298 2873 
Q 3191 2616 2906 2266 
Q 2828 2175 2409 1742 
Q 1991 1309 1228 531 
z
" transform="scale(0.015625)"/>
       </defs>
       <use xlink:href="#DejaVuSans-30"/>
       <use xlink:href="#DejaVuSans-2e" x="63.623047"/>
       <use xlink:href="#DejaVuSans-32" x="95.410156"/>
      </g>
     </g>
    </g>
    <g id="xtick_3">
     <g id="line2d_5">
      <path d="M 177.509406 273.312 
L 177.509406 7.2 
" clip-path="url(#pfe8454f0aa)" style="fill: none; stroke-dasharray: 0.8,1.32; stroke-dashoffset: 0; stroke: #b0b0b0; stroke-width: 0.8"/>
     </g>
     <g id="line2d_6">
      <g>
       <use xlink:href="#md1880de0b4" x="177.509406" y="273.312" style="stroke: #000000; stroke-width: 0.8"/>
      </g>
     </g>
     <g id="text_3">
      <!-- 0.4 -->
      <g transform="translate(169.557843 287.910437) scale(0.1 -0.1)">
       <defs>
        <path id="DejaVuSans-34" d="M 2419 4116 
L 825 1625 
L 2419 1625 
L 2419 4116 
z
M 2253 4666 
L 3047 4666 
L 3047 1625 
L 3713 1625 
L 3713 1100 
L 3047 1100 
L 3047 0 
L 2419 0 
L 2419 1100 
L 313 1100 
L 313 1709 
L 2253 4666 
z
" transform="scale(0.015625)"/>
       </defs>
       <use xlink:href="#DejaVuSans-30"/>
       <use xlink:href="#DejaVuSans-2e" x="63.623047"/>
       <use xlink:href="#DejaVuSans-34" x="95.410156"/>
      </g>
     </g>
    </g>
    <g id="xtick_4">
     <g id="line2d_7">
      <path d="M 243.096183 273.312 
L 243.096183 7.2 
" clip-path="url(#pfe8454f0aa)" style="fill: none; stroke-dasharray: 0.8,1.32; stroke-dashoffset: 0; stroke: #b0b0b0; stroke-width: 0.8"/>
     </g>
     <g id="line2d_8">
      <g>
       <use xlink:href="#md1880de0b4" x="243.096183" y="273.312" style="stroke: #000000; stroke-width: 0.8"/>
      </g>
     </g>
     <g id="text_4">
      <!-- 0.6 -->
      <g transform="translate(235.14462 287.910437) scale(0.1 -0.1)">
       <defs>
        <path id="DejaVuSans-36" d="M 2113 2584 
Q 1688 2584 1439 2293 
Q 1191 2003 1191 1497 
Q 1191 994 1439 701 
Q 1688 409 2113 409 
Q 2538 409 2786 701 
Q 3034 994 3034 1497 
Q 3034 2003 2786 2293 
Q 2538 2584 2113 2584 
z
M 3366 4563 
L 3366 3988 
Q 3128 4100 2886 4159 
Q 2644 4219 2406 4219 
Q 1781 4219 1451 3797 
Q 1122 3375 1075 2522 
Q 1259 2794 1537 2939 
Q 1816 3084 2150 3084 
Q 2853 3084 3261 2657 
Q 3669 2231 3669 1497 
Q 3669 778 3244 343 
Q 2819 -91 2113 -91 
Q 1303 -91 875 529 
Q 447 1150 447 2328 
Q 447 3434 972 4092 
Q 1497 4750 2381 4750 
Q 2619 4750 2861 4703 
Q 3103 4656 3366 4563 
z
" transform="scale(0.015625)"/>
       </defs>
       <use xlink:href="#DejaVuSans-30"/>
       <use xlink:href="#DejaVuSans-2e" x="63.623047"/>
       <use xlink:href="#DejaVuSans-36" x="95.410156"/>
      </g>
     </g>
    </g>
    <g id="xtick_5">
     <g id="line2d_9">
      <path d="M 308.68296 273.312 
L 308.68296 7.2 
" clip-path="url(#pfe8454f0aa)" style="fill: none; stroke-dasharray: 0.8,1.32; stroke-dashoffset: 0; stroke: #b0b0b0; stroke-width: 0.8"/>
     </g>
     <g id="line2d_10">
      <g>
       <use xlink:href="#md1880de0b4" x="308.68296" y="273.312" style="stroke: #000000; stroke-width: 0.8"/>
      </g>
     </g>
     <g id="text_5">
      <!-- 0.8 -->
      <g transform="translate(300.731397 287.910437) scale(0.1 -0.1)">
       <defs>
        <path id="DejaVuSans-38" d="M 2034 2216 
Q 1584 2216 1326 1975 
Q 1069 1734 1069 1313 
Q 1069 891 1326 650 
Q 1584 409 2034 409 
Q 2484 409 2743 651 
Q 3003 894 3003 1313 
Q 3003 1734 2745 1975 
Q 2488 2216 2034 2216 
z
M 1403 2484 
Q 997 2584 770 2862 
Q 544 3141 544 3541 
Q 544 4100 942 4425 
Q 1341 4750 2034 4750 
Q 2731 4750 3128 4425 
Q 3525 4100 3525 3541 
Q 3525 3141 3298 2862 
Q 3072 2584 2669 2484 
Q 3125 2378 3379 2068 
Q 3634 1759 3634 1313 
Q 3634 634 3220 271 
Q 2806 -91 2034 -91 
Q 1263 -91 848 271 
Q 434 634 434 1313 
Q 434 1759 690 2068 
Q 947 2378 1403 2484 
z
M 1172 3481 
Q 1172 3119 1398 2916 
Q 1625 2713 2034 2713 
Q 2441 2713 2670 2916 
Q 2900 3119 2900 3481 
Q 2900 3844 2670 4047 
Q 2441 4250 2034 4250 
Q 1625 4250 1398 4047 
Q 1172 3844 1172 3481 
z
" transform="scale(0.015625)"/>
       </defs>
       <use xlink:href="#DejaVuSans-30"/>
       <use xlink:href="#DejaVuSans-2e" x="63.623047"/>
       <use xlink:href="#DejaVuSans-38" x="95.410156"/>
      </g>
     </g>
    </g>
    <g id="xtick_6">
     <g id="line2d_11">
      <path d="M 374.269737 273.312 
L 374.269737 7.2 
" clip-path="url(#pfe8454f0aa)" style="fill: none; stroke-dasharray: 0.8,1.32; stroke-dashoffset: 0; stroke: #b0b0b0; stroke-width: 0.8"/>
     </g>
     <g id="line2d_12">
      <g>
       <use xlink:href="#md1880de0b4" x="374.269737" y="273.312" style="stroke: #000000; stroke-width: 0.8"/>
      </g>
     </g>
     <g id="text_6">
      <!-- 1.0 -->
      <g transform="translate(366.318174 287.910437) scale(0.1 -0.1)">
       <defs>
        <path id="DejaVuSans-31" d="M 794 531 
L 1825 531 
L 1825 4091 
L 703 3866 
L 703 4441 
L 1819 4666 
L 2450 4666 
L 2450 531 
L 3481 531 
L 3481 0 
L 794 0 
L 794 531 
z
" transform="scale(0.015625)"/>
       </defs>
       <use xlink:href="#DejaVuSans-31"/>
       <use xlink:href="#DejaVuSans-2e" x="63.623047"/>
       <use xlink:href="#DejaVuSans-30" x="95.410156"/>
      </g>
     </g>
    </g>
   </g>
   <g id="matplotlib.axis_2">
    <g id="ytick_1">
     <g id="line2d_13">
      <path d="M 30.103125 247.970327 
L 387.223125 247.970327 
" clip-path="url(#pfe8454f0aa)" style="fill: none; stroke-dasharray: 0.8,1.32; stroke-dashoffset: 0; stroke: #b0b0b0; stroke-width: 0.8"/>
     </g>
     <g id="line2d_14">
      <defs>
       <path id="m77a2b5f69c" d="M 0 0 
L -3.5 0 
" style="stroke: #000000; stroke-width: 0.8"/>
      </defs>
      <g>
       <use xlink:href="#m77a2b5f69c" x="30.103125" y="247.970327" style="stroke: #000000; stroke-width: 0.8"/>
      </g>
     </g>
     <g id="text_7">
      <!-- 0.5 -->
      <g transform="translate(7.2 251.769546) scale(0.1 -0.1)">
       <defs>
        <path id="DejaVuSans-35" d="M 691 4666 
L 3169 4666 
L 3169 4134 
L 1269 4134 
L 1269 2991 
Q 1406 3038 1543 3061 
Q 1681 3084 1819 3084 
Q 2600 3084 3056 2656 
Q 3513 2228 3513 1497 
Q 3513 744 3044 326 
Q 2575 -91 1722 -91 
Q 1428 -91 1123 -41 
Q 819 9 494 109 
L 494 744 
Q 775 591 1075 516 
Q 1375 441 1709 441 
Q 2250 441 2565 725 
Q 2881 1009 2881 1497 
Q 2881 1984 2565 2268 
Q 2250 2553 1709 2553 
Q 1456 2553 1204 2497 
Q 953 2441 691 2322 
L 691 4666 
z
" transform="scale(0.015625)"/>
       </defs>
       <use xlink:href="#DejaVuSans-30"/>
       <use xlink:href="#DejaVuSans-2e" x="63.623047"/>
       <use xlink:href="#DejaVuSans-35" x="95.410156"/>
      </g>
     </g>
    </g>
    <g id="ytick_2">
     <g id="line2d_15">
      <path d="M 30.103125 202.981721 
L 387.223125 202.981721 
" clip-path="url(#pfe8454f0aa)" style="fill: none; stroke-dasharray: 0.8,1.32; stroke-dashoffset: 0; stroke: #b0b0b0; stroke-width: 0.8"/>
     </g>
     <g id="line2d_16">
      <g>
       <use xlink:href="#m77a2b5f69c" x="30.103125" y="202.981721" style="stroke: #000000; stroke-width: 0.8"/>
      </g>
     </g>
     <g id="text_8">
      <!-- 1.0 -->
      <g transform="translate(7.2 206.78094) scale(0.1 -0.1)">
       <use xlink:href="#DejaVuSans-31"/>
       <use xlink:href="#DejaVuSans-2e" x="63.623047"/>
       <use xlink:href="#DejaVuSans-30" x="95.410156"/>
      </g>
     </g>
    </g>
    <g id="ytick_3">
     <g id="line2d_17">
      <path d="M 30.103125 157.993115 
L 387.223125 157.993115 
" clip-path="url(#pfe8454f0aa)" style="fill: none; stroke-dasharray: 0.8,1.32; stroke-dashoffset: 0; stroke: #b0b0b0; stroke-width: 0.8"/>
     </g>
     <g id="line2d_18">
      <g>
       <use xlink:href="#m77a2b5f69c" x="30.103125" y="157.993115" style="stroke: #000000; stroke-width: 0.8"/>
      </g>
     </g>
     <g id="text_9">
      <!-- 1.5 -->
      <g transform="translate(7.2 161.792334) scale(0.1 -0.1)">
       <use xlink:href="#DejaVuSans-31"/>
       <use xlink:href="#DejaVuSans-2e" x="63.623047"/>
       <use xlink:href="#DejaVuSans-35" x="95.410156"/>
      </g>
     </g>
    </g>
    <g id="ytick_4">
     <g id="line2d_19">
      <path d="M 30.103125 113.004509 
L 387.223125 113.004509 
" clip-path="url(#pfe8454f0aa)" style="fill: none; stroke-dasharray: 0.8,1.32; stroke-dashoffset: 0; stroke: #b0b0b0; stroke-width: 0.8"/>
     </g>
     <g id="line2d_20">
      <g>
       <use xlink:href="#m77a2b5f69c" x="30.103125" y="113.004509" style="stroke: #000000; stroke-width: 0.8"/>
      </g>
     </g>
     <g id="text_10">
      <!-- 2.0 -->
      <g transform="translate(7.2 116.803728) scale(0.1 -0.1)">
       <use xlink:href="#DejaVuSans-32"/>
       <use xlink:href="#DejaVuSans-2e" x="63.623047"/>
       <use xlink:href="#DejaVuSans-30" x="95.410156"/>
      </g>
     </g>
    </g>
    <g id="ytick_5">
     <g id="line2d_21">
      <path d="M 30.103125 68.015903 
L 387.223125 68.015903 
" clip-path="url(#pfe8454f0aa)" style="fill: none; stroke-dasharray: 0.8,1.32; stroke-dashoffset: 0; stroke: #b0b0b0; stroke-width: 0.8"/>
     </g>
     <g id="line2d_22">
      <g>
       <use xlink:href="#m77a2b5f69c" x="30.103125" y="68.015903" style="stroke: #000000; stroke-width: 0.8"/>
      </g>
     </g>
     <g id="text_11">
      <!-- 2.5 -->
      <g transform="translate(7.2 71.815122) scale(0.1 -0.1)">
       <use xlink:href="#DejaVuSans-32"/>
       <use xlink:href="#DejaVuSans-2e" x="63.623047"/>
       <use xlink:href="#DejaVuSans-35" x="95.410156"/>
      </g>
     </g>
    </g>
    <g id="ytick_6">
     <g id="line2d_23">
      <path d="M 30.103125 23.027297 
L 387.223125 23.027297 
" clip-path="url(#pfe8454f0aa)" style="fill: none; stroke-dasharray: 0.8,1.32; stroke-dashoffset: 0; stroke: #b0b0b0; stroke-width: 0.8"/>
     </g>
     <g id="line2d_24">
      <g>
       <use xlink:href="#m77a2b5f69c" x="30.103125" y="23.027297" style="stroke: #000000; stroke-width: 0.8"/>
      </g>
     </g>
     <g id="text_12">
      <!-- 3.0 -->
      <g transform="translate(7.2 26.826515) scale(0.1 -0.1)">
       <defs>
        <path id="DejaVuSans-33" d="M 2597 2516 
Q 3050 2419 3304 2112 
Q 3559 1806 3559 1356 
Q 3559 666 3084 287 
Q 2609 -91 1734 -91 
Q 1441 -91 1130 -33 
Q 819 25 488 141 
L 488 750 
Q 750 597 1062 519 
Q 1375 441 1716 441 
Q 2309 441 2620 675 
Q 2931 909 2931 1356 
Q 2931 1769 2642 2001 
Q 2353 2234 1838 2234 
L 1294 2234 
L 1294 2753 
L 1863 2753 
Q 2328 2753 2575 2939 
Q 2822 3125 2822 3475 
Q 2822 3834 2567 4026 
Q 2313 4219 1838 4219 
Q 1578 4219 1281 4162 
Q 984 4106 628 3988 
L 628 4550 
Q 988 4650 1302 4700 
Q 1616 4750 1894 4750 
Q 2613 4750 3031 4423 
Q 3450 4097 3450 3541 
Q 3450 3153 3228 2886 
Q 3006 2619 2597 2516 
z
" transform="scale(0.015625)"/>
       </defs>
       <use xlink:href="#DejaVuSans-33"/>
       <use xlink:href="#DejaVuSans-2e" x="63.623047"/>
       <use xlink:href="#DejaVuSans-30" x="95.410156"/>
      </g>
     </g>
    </g>
   </g>
   <g id="line2d_25">
    <path d="M 46.335852 139.997672 
L 49.615191 140.447558 
L 52.89453 140.897445 
L 56.173869 141.347331 
L 59.453208 141.797217 
L 62.732546 142.247103 
L 66.011885 142.696989 
L 69.291224 143.146875 
L 72.570563 143.596761 
L 75.849902 144.046647 
L 79.129241 144.496533 
L 82.40858 144.946419 
L 85.687918 145.396305 
L 88.967257 145.846191 
L 92.246596 146.296077 
L 95.525935 146.745963 
L 98.805274 147.195849 
L 102.084613 147.645735 
L 105.363951 148.095622 
L 108.64329 148.545508 
L 111.922629 148.995394 
L 115.201968 149.44528 
L 118.481307 149.895166 
L 121.760646 150.345052 
L 125.039985 150.794938 
L 128.319323 151.244824 
L 131.598662 151.69471 
L 134.878001 152.144596 
L 138.15734 152.594482 
L 141.436679 153.044368 
L 144.716018 153.494254 
L 147.995356 153.94414 
L 151.274695 154.394026 
L 154.554034 154.843912 
L 157.833373 155.293798 
L 161.112712 155.743685 
L 164.392051 156.193571 
L 167.671389 156.643457 
L 170.950728 157.093343 
L 174.230067 157.543229 
L 177.509406 157.993115 
L 180.788745 158.443001 
L 184.068084 158.892887 
L 187.347423 159.342773 
L 190.626761 159.792659 
L 193.9061 160.242545 
L 197.185439 160.692431 
L 200.464778 161.142317 
L 203.744117 161.592203 
L 207.023456 162.042089 
L 210.302794 162.491975 
L 213.582133 162.941861 
L 216.861472 163.391748 
L 220.140811 163.841634 
L 223.42015 164.29152 
L 226.699489 164.741406 
L 229.978827 165.191292 
L 233.258166 165.641178 
L 236.537505 166.091064 
L 239.816844 166.54095 
L 243.096183 166.990836 
L 246.375522 167.440722 
L 249.654861 167.890608 
L 252.934199 168.340494 
L 256.213538 168.79038 
L 259.492877 169.240266 
L 262.772216 169.690152 
L 266.051555 170.140038 
L 269.330894 170.589925 
L 272.610232 171.039811 
L 275.889571 171.489697 
L 279.16891 171.939583 
L 282.448249 172.389469 
L 285.727588 172.839355 
L 289.006927 173.289241 
L 292.286265 173.739127 
L 295.565604 174.189013 
L 298.844943 174.638899 
L 302.124282 175.088785 
L 305.403621 175.538671 
L 308.68296 175.988557 
L 311.962299 176.438443 
L 315.241637 176.888329 
L 318.520976 177.338215 
L 321.800315 177.788101 
L 325.079654 178.237988 
L 328.358993 178.687874 
L 331.638332 179.13776 
L 334.91767 179.587646 
L 338.197009 180.037532 
L 341.476348 180.487418 
L 344.755687 180.937304 
L 348.035026 181.38719 
L 351.314365 181.837076 
L 354.593704 182.286962 
L 357.873042 182.736848 
L 361.152381 183.186734 
L 364.43172 183.63662 
L 367.711059 184.086506 
L 370.990398 184.536392 
" clip-path="url(#pfe8454f0aa)" style="fill: none; stroke: #ff0000; stroke-width: 2; stroke-linecap: square"/>
   </g>
   <g id="patch_3">
    <path d="M 30.103125 273.312 
L 30.103125 7.2 
" style="fill: none; stroke: #000000; stroke-width: 0.8; stroke-linejoin: miter; stroke-linecap: square"/>
   </g>
   <g id="patch_4">
    <path d="M 387.223125 273.312 
L 387.223125 7.2 
" style="fill: none; stroke: #000000; stroke-width: 0.8; stroke-linejoin: miter; stroke-linecap: square"/>
   </g>
   <g id="patch_5">
    <path d="M 30.103125 273.312 
L 387.223125 273.312 
" style="fill: none; stroke: #000000; stroke-width: 0.8; stroke-linejoin: miter; stroke-linecap: square"/>
   </g>
   <g id="patch_6">
    <path d="M 30.103125 7.2 
L 387.223125 7.2 
" style="fill: none; stroke: #000000; stroke-width: 0.8; stroke-linejoin: miter; stroke-linecap: square"/>
   </g>
   <g id="legend_1">
    <g id="patch_7">
     <path d="M 283.641875 44.55625 
L 380.223125 44.55625 
Q 382.223125 44.55625 382.223125 42.55625 
L 382.223125 14.2 
Q 382.223125 12.2 380.223125 12.2 
L 283.641875 12.2 
Q 281.641875 12.2 281.641875 14.2 
L 281.641875 42.55625 
Q 281.641875 44.55625 283.641875 44.55625 
z
" style="fill: #ffffff; opacity: 0.8; stroke: #cccccc; stroke-linejoin: miter"/>
    </g>
    <g id="line2d_26">
     <path d="M 285.641875 20.298437 
L 295.641875 20.298437 
L 305.641875 20.298437 
" style="fill: none; stroke: #ff0000; stroke-width: 2; stroke-linecap: square"/>
    </g>
    <g id="text_13">
     <!-- Ground truth -->
     <g transform="translate(313.641875 23.798437) scale(0.1 -0.1)">
      <defs>
       <path id="DejaVuSans-47" d="M 3809 666 
L 3809 1919 
L 2778 1919 
L 2778 2438 
L 4434 2438 
L 4434 434 
Q 4069 175 3628 42 
Q 3188 -91 2688 -91 
Q 1594 -91 976 548 
Q 359 1188 359 2328 
Q 359 3472 976 4111 
Q 1594 4750 2688 4750 
Q 3144 4750 3555 4637 
Q 3966 4525 4313 4306 
L 4313 3634 
Q 3963 3931 3569 4081 
Q 3175 4231 2741 4231 
Q 1884 4231 1454 3753 
Q 1025 3275 1025 2328 
Q 1025 1384 1454 906 
Q 1884 428 2741 428 
Q 3075 428 3337 486 
Q 3600 544 3809 666 
z
" transform="scale(0.015625)"/>
       <path id="DejaVuSans-72" d="M 2631 2963 
Q 2534 3019 2420 3045 
Q 2306 3072 2169 3072 
Q 1681 3072 1420 2755 
Q 1159 2438 1159 1844 
L 1159 0 
L 581 0 
L 581 3500 
L 1159 3500 
L 1159 2956 
Q 1341 3275 1631 3429 
Q 1922 3584 2338 3584 
Q 2397 3584 2469 3576 
Q 2541 3569 2628 3553 
L 2631 2963 
z
" transform="scale(0.015625)"/>
       <path id="DejaVuSans-6f" d="M 1959 3097 
Q 1497 3097 1228 2736 
Q 959 2375 959 1747 
Q 959 1119 1226 758 
Q 1494 397 1959 397 
Q 2419 397 2687 759 
Q 2956 1122 2956 1747 
Q 2956 2369 2687 2733 
Q 2419 3097 1959 3097 
z
M 1959 3584 
Q 2709 3584 3137 3096 
Q 3566 2609 3566 1747 
Q 3566 888 3137 398 
Q 2709 -91 1959 -91 
Q 1206 -91 779 398 
Q 353 888 353 1747 
Q 353 2609 779 3096 
Q 1206 3584 1959 3584 
z
" transform="scale(0.015625)"/>
       <path id="DejaVuSans-75" d="M 544 1381 
L 544 3500 
L 1119 3500 
L 1119 1403 
Q 1119 906 1312 657 
Q 1506 409 1894 409 
Q 2359 409 2629 706 
Q 2900 1003 2900 1516 
L 2900 3500 
L 3475 3500 
L 3475 0 
L 2900 0 
L 2900 538 
Q 2691 219 2414 64 
Q 2138 -91 1772 -91 
Q 1169 -91 856 284 
Q 544 659 544 1381 
z
M 1991 3584 
L 1991 3584 
z
" transform="scale(0.015625)"/>
       <path id="DejaVuSans-6e" d="M 3513 2113 
L 3513 0 
L 2938 0 
L 2938 2094 
Q 2938 2591 2744 2837 
Q 2550 3084 2163 3084 
Q 1697 3084 1428 2787 
Q 1159 2491 1159 1978 
L 1159 0 
L 581 0 
L 581 3500 
L 1159 3500 
L 1159 2956 
Q 1366 3272 1645 3428 
Q 1925 3584 2291 3584 
Q 2894 3584 3203 3211 
Q 3513 2838 3513 2113 
z
" transform="scale(0.015625)"/>
       <path id="DejaVuSans-64" d="M 2906 2969 
L 2906 4863 
L 3481 4863 
L 3481 0 
L 2906 0 
L 2906 525 
Q 2725 213 2448 61 
Q 2172 -91 1784 -91 
Q 1150 -91 751 415 
Q 353 922 353 1747 
Q 353 2572 751 3078 
Q 1150 3584 1784 3584 
Q 2172 3584 2448 3432 
Q 2725 3281 2906 2969 
z
M 947 1747 
Q 947 1113 1208 752 
Q 1469 391 1925 391 
Q 2381 391 2643 752 
Q 2906 1113 2906 1747 
Q 2906 2381 2643 2742 
Q 2381 3103 1925 3103 
Q 1469 3103 1208 2742 
Q 947 2381 947 1747 
z
" transform="scale(0.015625)"/>
       <path id="DejaVuSans-20" transform="scale(0.015625)"/>
       <path id="DejaVuSans-74" d="M 1172 4494 
L 1172 3500 
L 2356 3500 
L 2356 3053 
L 1172 3053 
L 1172 1153 
Q 1172 725 1289 603 
Q 1406 481 1766 481 
L 2356 481 
L 2356 0 
L 1766 0 
Q 1100 0 847 248 
Q 594 497 594 1153 
L 594 3053 
L 172 3053 
L 172 3500 
L 594 3500 
L 594 4494 
L 1172 4494 
z
" transform="scale(0.015625)"/>
       <path id="DejaVuSans-68" d="M 3513 2113 
L 3513 0 
L 2938 0 
L 2938 2094 
Q 2938 2591 2744 2837 
Q 2550 3084 2163 3084 
Q 1697 3084 1428 2787 
Q 1159 2491 1159 1978 
L 1159 0 
L 581 0 
L 581 4863 
L 1159 4863 
L 1159 2956 
Q 1366 3272 1645 3428 
Q 1925 3584 2291 3584 
Q 2894 3584 3203 3211 
Q 3513 2838 3513 2113 
z
" transform="scale(0.015625)"/>
      </defs>
      <use xlink:href="#DejaVuSans-47"/>
      <use xlink:href="#DejaVuSans-72" x="77.490234"/>
      <use xlink:href="#DejaVuSans-6f" x="116.353516"/>
      <use xlink:href="#DejaVuSans-75" x="177.535156"/>
      <use xlink:href="#DejaVuSans-6e" x="240.914062"/>
      <use xlink:href="#DejaVuSans-64" x="304.292969"/>
      <use xlink:href="#DejaVuSans-20" x="367.769531"/>
      <use xlink:href="#DejaVuSans-74" x="399.556641"/>
      <use xlink:href="#DejaVuSans-72" x="438.765625"/>
      <use xlink:href="#DejaVuSans-75" x="479.878906"/>
      <use xlink:href="#DejaVuSans-74" x="543.257812"/>
      <use xlink:href="#DejaVuSans-68" x="582.466797"/>
     </g>
    </g>
    <g id="PathCollection_2">
     <g>
      <use xlink:href="#mdff19d8e08" x="295.641875" y="35.851562" style="fill: #0000ff; stroke: #0000ff"/>
     </g>
    </g>
    <g id="text_14">
     <!-- Data -->
     <g transform="translate(313.641875 38.476562) scale(0.1 -0.1)">
      <defs>
       <path id="DejaVuSans-44" d="M 1259 4147 
L 1259 519 
L 2022 519 
Q 2988 519 3436 956 
Q 3884 1394 3884 2338 
Q 3884 3275 3436 3711 
Q 2988 4147 2022 4147 
L 1259 4147 
z
M 628 4666 
L 1925 4666 
Q 3281 4666 3915 4102 
Q 4550 3538 4550 2338 
Q 4550 1131 3912 565 
Q 3275 0 1925 0 
L 628 0 
L 628 4666 
z
" transform="scale(0.015625)"/>
       <path id="DejaVuSans-61" d="M 2194 1759 
Q 1497 1759 1228 1600 
Q 959 1441 959 1056 
Q 959 750 1161 570 
Q 1363 391 1709 391 
Q 2188 391 2477 730 
Q 2766 1069 2766 1631 
L 2766 1759 
L 2194 1759 
z
M 3341 1997 
L 3341 0 
L 2766 0 
L 2766 531 
Q 2569 213 2275 61 
Q 1981 -91 1556 -91 
Q 1019 -91 701 211 
Q 384 513 384 1019 
Q 384 1609 779 1909 
Q 1175 2209 1959 2209 
L 2766 2209 
L 2766 2266 
Q 2766 2663 2505 2880 
Q 2244 3097 1772 3097 
Q 1472 3097 1187 3025 
Q 903 2953 641 2809 
L 641 3341 
Q 956 3463 1253 3523 
Q 1550 3584 1831 3584 
Q 2591 3584 2966 3190 
Q 3341 2797 3341 1997 
z
" transform="scale(0.015625)"/>
      </defs>
      <use xlink:href="#DejaVuSans-44"/>
      <use xlink:href="#DejaVuSans-61" x="77.001953"/>
      <use xlink:href="#DejaVuSans-74" x="138.28125"/>
      <use xlink:href="#DejaVuSans-61" x="177.490234"/>
     </g>
    </g>
   </g>
  </g>
 </g>
 <defs>
  <clipPath id="pfe8454f0aa">
   <rect x="30.103125" y="7.2" width="357.12" height="266.112"/>
  </clipPath>
 </defs>
</svg>