<?xml version="1.0" encoding="utf-8" standalone="no"?>
<!DOCTYPE svg PUBLIC "-//W3C//DTD SVG 1.1//EN"
  "http://www.w3.org/Graphics/SVG/1.1/DTD/svg11.dtd">
<svg xmlns:xlink="http://www.w3.org/1999/xlink" width="539.503125pt" height="338.89625pt" viewBox="0 0 539.503125 338.89625" xmlns="http://www.w3.org/2000/svg" version="1.1">
 <metadata>
  <rdf:RDF xmlns:dc="http://purl.org/dc/elements/1.1/" xmlns:cc="http://creativecommons.org/ns#" xmlns:rdf="http://www.w3.org/1999/02/22-rdf-syntax-ns#">
   <cc:Work>
    <dc:type rdf:resource="http://purl.org/dc/dcmitype/StillImage"/>
    <dc:date>2024-02-21T09:35:40.343264</dc:date>
    <dc:format>image/svg+xml</dc:format>
    <dc:creator>
     <cc:Agent>
      <dc:title>Matplotlib v3.7.1, https://matplotlib.org/</dc:title>
     </cc:Agent>
    </dc:creator>
   </cc:Work>
  </rdf:RDF>
 </metadata>
 <defs>
  <style type="text/css">*{stroke-linejoin: round; stroke-linecap: butt}</style>
 </defs>
 <g id="figure_1">
  <g id="patch_1">
   <path d="M 0 338.89625 
L 539.503125 338.89625 
L 539.503125 0 
L 0 0 
z
" style="fill: #ffffff"/>
  </g>
  <g id="axes_1">
   <g id="patch_2">
    <path d="M 30.103125 299.518125 
L 532.303125 299.518125 
L 532.303125 22.318125 
L 30.103125 22.318125 
z
" style="fill: #ffffff"/>
   </g>
   <g id="patch_3">
    <path d="M 221.284566 299.518125 
L 222.236714 299.518125 
L 222.236714 298.977078 
L 221.284566 298.977078 
z
" clip-path="url(#pacc3b17124)" style="fill: #ff0000"/>
   </g>
   <g id="patch_4">
    <path d="M 222.236714 299.518125 
L 223.188861 299.518125 
L 223.188861 298.43603 
L 222.236714 298.43603 
z
" clip-path="url(#pacc3b17124)" style="fill: #ff0000"/>
   </g>
   <g id="patch_5">
    <path d="M 223.188861 299.518125 
L 224.141008 299.518125 
L 224.141008 298.977078 
L 223.188861 298.977078 
z
" clip-path="url(#pacc3b17124)" style="fill: #ff0000"/>
   </g>
   <g id="patch_6">
    <path d="M 224.141008 299.518125 
L 225.093155 299.518125 
L 225.093155 296.812888 
L 224.141008 296.812888 
z
" clip-path="url(#pacc3b17124)" style="fill: #ff0000"/>
   </g>
   <g id="patch_7">
    <path d="M 225.093155 299.518125 
L 226.045302 299.518125 
L 226.045302 297.353935 
L 225.093155 297.353935 
z
" clip-path="url(#pacc3b17124)" style="fill: #ff0000"/>
   </g>
   <g id="patch_8">
    <path d="M 226.045302 299.518125 
L 226.997449 299.518125 
L 226.997449 297.353935 
L 226.045302 297.353935 
z
" clip-path="url(#pacc3b17124)" style="fill: #ff0000"/>
   </g>
   <g id="patch_9">
    <path d="M 226.997449 299.518125 
L 227.949596 299.518125 
L 227.949596 298.43603 
L 226.997449 298.43603 
z
" clip-path="url(#pacc3b17124)" style="fill: #ff0000"/>
   </g>
   <g id="patch_10">
    <path d="M 227.949596 299.518125 
L 228.901743 299.518125 
L 228.901743 296.27184 
L 227.949596 296.27184 
z
" clip-path="url(#pacc3b17124)" style="fill: #ff0000"/>
   </g>
   <g id="patch_11">
    <path d="M 228.901743 299.518125 
L 229.853891 299.518125 
L 229.853891 288.697177 
L 228.901743 288.697177 
z
" clip-path="url(#pacc3b17124)" style="fill: #ff0000"/>
   </g>
   <g id="patch_12">
    <path d="M 229.853891 299.518125 
L 230.806038 299.518125 
L 230.806038 291.943461 
L 229.853891 291.943461 
z
" clip-path="url(#pacc3b17124)" style="fill: #ff0000"/>
   </g>
   <g id="patch_13">
    <path d="M 230.806038 299.518125 
L 231.758185 299.518125 
L 231.758185 293.025556 
L 230.806038 293.025556 
z
" clip-path="url(#pacc3b17124)" style="fill: #ff0000"/>
   </g>
   <g id="patch_14">
    <path d="M 231.758185 299.518125 
L 232.710332 299.518125 
L 232.710332 284.368797 
L 231.758185 284.368797 
z
" clip-path="url(#pacc3b17124)" style="fill: #ff0000"/>
   </g>
   <g id="patch_15">
    <path d="M 232.710332 299.518125 
L 233.662479 299.518125 
L 233.662479 280.040418 
L 232.710332 280.040418 
z
" clip-path="url(#pacc3b17124)" style="fill: #ff0000"/>
   </g>
   <g id="patch_16">
    <path d="M 233.662479 299.518125 
L 234.614626 299.518125 
L 234.614626 274.088896 
L 233.662479 274.088896 
z
" clip-path="url(#pacc3b17124)" style="fill: #ff0000"/>
   </g>
   <g id="patch_17">
    <path d="M 234.614626 299.518125 
L 235.566773 299.518125 
L 235.566773 265.973185 
L 234.614626 265.973185 
z
" clip-path="url(#pacc3b17124)" style="fill: #ff0000"/>
   </g>
   <g id="patch_18">
    <path d="M 235.566773 299.518125 
L 236.518921 299.518125 
L 236.518921 269.21947 
L 235.566773 269.21947 
z
" clip-path="url(#pacc3b17124)" style="fill: #ff0000"/>
   </g>
   <g id="patch_19">
    <path d="M 236.518921 299.518125 
L 237.471068 299.518125 
L 237.471068 258.398521 
L 236.518921 258.398521 
z
" clip-path="url(#pacc3b17124)" style="fill: #ff0000"/>
   </g>
   <g id="patch_20">
    <path d="M 237.471068 299.518125 
L 238.423215 299.518125 
L 238.423215 242.167099 
L 237.471068 242.167099 
z
" clip-path="url(#pacc3b17124)" style="fill: #ff0000"/>
   </g>
   <g id="patch_21">
    <path d="M 238.423215 299.518125 
L 239.375362 299.518125 
L 239.375362 231.887198 
L 238.423215 231.887198 
z
" clip-path="url(#pacc3b17124)" style="fill: #ff0000"/>
   </g>
   <g id="patch_22">
    <path d="M 239.375362 299.518125 
L 240.327509 299.518125 
L 240.327509 221.06625 
L 239.375362 221.06625 
z
" clip-path="url(#pacc3b17124)" style="fill: #ff0000"/>
   </g>
   <g id="patch_23">
    <path d="M 240.327509 299.518125 
L 241.279656 299.518125 
L 241.279656 210.245301 
L 240.327509 210.245301 
z
" clip-path="url(#pacc3b17124)" style="fill: #ff0000"/>
   </g>
   <g id="patch_24">
    <path d="M 241.279656 299.518125 
L 242.231803 299.518125 
L 242.231803 216.196823 
L 241.279656 216.196823 
z
" clip-path="url(#pacc3b17124)" style="fill: #ff0000"/>
   </g>
   <g id="patch_25">
    <path d="M 242.231803 299.518125 
L 243.183951 299.518125 
L 243.183951 176.700361 
L 242.231803 176.700361 
z
" clip-path="url(#pacc3b17124)" style="fill: #ff0000"/>
   </g>
   <g id="patch_26">
    <path d="M 243.183951 299.518125 
L 244.136098 299.518125 
L 244.136098 178.323504 
L 243.183951 178.323504 
z
" clip-path="url(#pacc3b17124)" style="fill: #ff0000"/>
   </g>
   <g id="patch_27">
    <path d="M 244.136098 299.518125 
L 245.088245 299.518125 
L 245.088245 181.569788 
L 244.136098 181.569788 
z
" clip-path="url(#pacc3b17124)" style="fill: #ff0000"/>
   </g>
   <g id="patch_28">
    <path d="M 245.088245 299.518125 
L 246.040392 299.518125 
L 246.040392 157.763702 
L 245.088245 157.763702 
z
" clip-path="url(#pacc3b17124)" style="fill: #ff0000"/>
   </g>
   <g id="patch_29">
    <path d="M 246.040392 299.518125 
L 246.992539 299.518125 
L 246.992539 230.264056 
L 246.040392 230.264056 
z
" clip-path="url(#pacc3b17124)" style="fill: #ff0000"/>
   </g>
   <g id="patch_30">
    <path d="M 246.992539 299.518125 
L 247.944686 299.518125 
L 247.944686 138.827042 
L 246.992539 138.827042 
z
" clip-path="url(#pacc3b17124)" style="fill: #ff0000"/>
   </g>
   <g id="patch_31">
    <path d="M 247.944686 299.518125 
L 248.896833 299.518125 
L 248.896833 121.513525 
L 247.944686 121.513525 
z
" clip-path="url(#pacc3b17124)" style="fill: #ff0000"/>
   </g>
   <g id="patch_32">
    <path d="M 248.896833 299.518125 
L 249.84898 299.518125 
L 249.84898 110.151529 
L 248.896833 110.151529 
z
" clip-path="url(#pacc3b17124)" style="fill: #ff0000"/>
   </g>
   <g id="patch_33">
    <path d="M 249.84898 299.518125 
L 250.801128 299.518125 
L 250.801128 98.248486 
L 249.84898 98.248486 
z
" clip-path="url(#pacc3b17124)" style="fill: #ff0000"/>
   </g>
   <g id="patch_34">
    <path d="M 250.801128 299.518125 
L 251.753275 299.518125 
L 251.753275 100.412676 
L 250.801128 100.412676 
z
" clip-path="url(#pacc3b17124)" style="fill: #ff0000"/>
   </g>
   <g id="patch_35">
    <path d="M 251.753275 299.518125 
L 252.705422 299.518125 
L 252.705422 89.591727 
L 251.753275 89.591727 
z
" clip-path="url(#pacc3b17124)" style="fill: #ff0000"/>
   </g>
   <g id="patch_36">
    <path d="M 252.705422 299.518125 
L 253.657569 299.518125 
L 253.657569 94.461154 
L 252.705422 94.461154 
z
" clip-path="url(#pacc3b17124)" style="fill: #ff0000"/>
   </g>
   <g id="patch_37">
    <path d="M 253.657569 299.518125 
L 254.609716 299.518125 
L 254.609716 82.558111 
L 253.657569 82.558111 
z
" clip-path="url(#pacc3b17124)" style="fill: #ff0000"/>
   </g>
   <g id="patch_38">
    <path d="M 254.609716 299.518125 
L 255.561863 299.518125 
L 255.561863 77.688684 
L 254.609716 77.688684 
z
" clip-path="url(#pacc3b17124)" style="fill: #ff0000"/>
   </g>
   <g id="patch_39">
    <path d="M 255.561863 299.518125 
L 256.51401 299.518125 
L 256.51401 77.688684 
L 255.561863 77.688684 
z
" clip-path="url(#pacc3b17124)" style="fill: #ff0000"/>
   </g>
   <g id="patch_40">
    <path d="M 256.51401 299.518125 
L 257.466158 299.518125 
L 257.466158 87.968585 
L 256.51401 87.968585 
z
" clip-path="url(#pacc3b17124)" style="fill: #ff0000"/>
   </g>
   <g id="patch_41">
    <path d="M 257.466158 299.518125 
L 258.418305 299.518125 
L 258.418305 126.923999 
L 257.466158 126.923999 
z
" clip-path="url(#pacc3b17124)" style="fill: #ff0000"/>
   </g>
   <g id="patch_42">
    <path d="M 258.418305 299.518125 
L 259.370452 299.518125 
L 259.370452 111.774671 
L 258.418305 111.774671 
z
" clip-path="url(#pacc3b17124)" style="fill: #ff0000"/>
   </g>
   <g id="patch_43">
    <path d="M 259.370452 299.518125 
L 260.322599 299.518125 
L 260.322599 102.576865 
L 259.370452 102.576865 
z
" clip-path="url(#pacc3b17124)" style="fill: #ff0000"/>
   </g>
   <g id="patch_44">
    <path d="M 260.322599 299.518125 
L 261.274746 299.518125 
L 261.274746 134.498663 
L 260.322599 134.498663 
z
" clip-path="url(#pacc3b17124)" style="fill: #ff0000"/>
   </g>
   <g id="patch_45">
    <path d="M 261.274746 299.518125 
L 262.226893 299.518125 
L 262.226893 156.681607 
L 261.274746 156.681607 
z
" clip-path="url(#pacc3b17124)" style="fill: #ff0000"/>
   </g>
   <g id="patch_46">
    <path d="M 262.226893 299.518125 
L 263.17904 299.518125 
L 263.17904 159.386844 
L 262.226893 159.386844 
z
" clip-path="url(#pacc3b17124)" style="fill: #ff0000"/>
   </g>
   <g id="patch_47">
    <path d="M 263.17904 299.518125 
L 264.131188 299.518125 
L 264.131188 170.207792 
L 263.17904 170.207792 
z
" clip-path="url(#pacc3b17124)" style="fill: #ff0000"/>
   </g>
   <g id="patch_48">
    <path d="M 264.131188 299.518125 
L 265.083335 299.518125 
L 265.083335 170.207792 
L 264.131188 170.207792 
z
" clip-path="url(#pacc3b17124)" style="fill: #ff0000"/>
   </g>
   <g id="patch_49">
    <path d="M 265.083335 299.518125 
L 266.035482 299.518125 
L 266.035482 186.439215 
L 265.083335 186.439215 
z
" clip-path="url(#pacc3b17124)" style="fill: #ff0000"/>
   </g>
   <g id="patch_50">
    <path d="M 266.035482 299.518125 
L 266.987629 299.518125 
L 266.987629 194.013879 
L 266.035482 194.013879 
z
" clip-path="url(#pacc3b17124)" style="fill: #ff0000"/>
   </g>
   <g id="patch_51">
    <path d="M 266.987629 299.518125 
L 267.939776 299.518125 
L 267.939776 210.786349 
L 266.987629 210.786349 
z
" clip-path="url(#pacc3b17124)" style="fill: #ff0000"/>
   </g>
   <g id="patch_52">
    <path d="M 267.939776 299.518125 
L 268.891923 299.518125 
L 268.891923 225.935676 
L 267.939776 225.935676 
z
" clip-path="url(#pacc3b17124)" style="fill: #ff0000"/>
   </g>
   <g id="patch_53">
    <path d="M 268.891923 299.518125 
L 269.84407 299.518125 
L 269.84407 237.297672 
L 268.891923 237.297672 
z
" clip-path="url(#pacc3b17124)" style="fill: #ff0000"/>
   </g>
   <g id="patch_54">
    <path d="M 269.84407 299.518125 
L 270.796217 299.518125 
L 270.796217 235.67453 
L 269.84407 235.67453 
z
" clip-path="url(#pacc3b17124)" style="fill: #ff0000"/>
   </g>
   <g id="patch_55">
    <path d="M 270.796217 299.518125 
L 271.748365 299.518125 
L 271.748365 253.529095 
L 270.796217 253.529095 
z
" clip-path="url(#pacc3b17124)" style="fill: #ff0000"/>
   </g>
   <g id="patch_56">
    <path d="M 271.748365 299.518125 
L 272.700512 299.518125 
L 272.700512 271.924707 
L 271.748365 271.924707 
z
" clip-path="url(#pacc3b17124)" style="fill: #ff0000"/>
   </g>
   <g id="patch_57">
    <path d="M 272.700512 299.518125 
L 273.652659 299.518125 
L 273.652659 264.89109 
L 272.700512 264.89109 
z
" clip-path="url(#pacc3b17124)" style="fill: #ff0000"/>
   </g>
   <g id="patch_58">
    <path d="M 273.652659 299.518125 
L 274.604806 299.518125 
L 274.604806 270.301564 
L 273.652659 270.301564 
z
" clip-path="url(#pacc3b17124)" style="fill: #ff0000"/>
   </g>
   <g id="patch_59">
    <path d="M 274.604806 299.518125 
L 275.556953 299.518125 
L 275.556953 270.301564 
L 274.604806 270.301564 
z
" clip-path="url(#pacc3b17124)" style="fill: #ff0000"/>
   </g>
   <g id="patch_60">
    <path d="M 275.556953 299.518125 
L 276.5091 299.518125 
L 276.5091 277.335181 
L 275.556953 277.335181 
z
" clip-path="url(#pacc3b17124)" style="fill: #ff0000"/>
   </g>
   <g id="patch_61">
    <path d="M 276.5091 299.518125 
L 277.461247 299.518125 
L 277.461247 282.745655 
L 276.5091 282.745655 
z
" clip-path="url(#pacc3b17124)" style="fill: #ff0000"/>
   </g>
   <g id="patch_62">
    <path d="M 277.461247 299.518125 
L 278.413395 299.518125 
L 278.413395 284.909845 
L 277.461247 284.909845 
z
" clip-path="url(#pacc3b17124)" style="fill: #ff0000"/>
   </g>
   <g id="patch_63">
    <path d="M 278.413395 299.518125 
L 279.365542 299.518125 
L 279.365542 290.861366 
L 278.413395 290.861366 
z
" clip-path="url(#pacc3b17124)" style="fill: #ff0000"/>
   </g>
   <g id="patch_64">
    <path d="M 279.365542 299.518125 
L 280.317689 299.518125 
L 280.317689 287.074034 
L 279.365542 287.074034 
z
" clip-path="url(#pacc3b17124)" style="fill: #ff0000"/>
   </g>
   <g id="patch_65">
    <path d="M 280.317689 299.518125 
L 281.269836 299.518125 
L 281.269836 293.025556 
L 280.317689 293.025556 
z
" clip-path="url(#pacc3b17124)" style="fill: #ff0000"/>
   </g>
   <g id="patch_66">
    <path d="M 281.269836 299.518125 
L 282.221983 299.518125 
L 282.221983 292.484509 
L 281.269836 292.484509 
z
" clip-path="url(#pacc3b17124)" style="fill: #ff0000"/>
   </g>
   <g id="patch_67">
    <path d="M 282.221983 299.518125 
L 283.17413 299.518125 
L 283.17413 295.730793 
L 282.221983 295.730793 
z
" clip-path="url(#pacc3b17124)" style="fill: #ff0000"/>
   </g>
   <g id="patch_68">
    <path d="M 283.17413 299.518125 
L 284.126277 299.518125 
L 284.126277 295.189746 
L 283.17413 295.189746 
z
" clip-path="url(#pacc3b17124)" style="fill: #ff0000"/>
   </g>
   <g id="patch_69">
    <path d="M 284.126277 299.518125 
L 285.078424 299.518125 
L 285.078424 296.27184 
L 284.126277 296.27184 
z
" clip-path="url(#pacc3b17124)" style="fill: #ff0000"/>
   </g>
   <g id="patch_70">
    <path d="M 285.078424 299.518125 
L 286.030572 299.518125 
L 286.030572 297.353935 
L 285.078424 297.353935 
z
" clip-path="url(#pacc3b17124)" style="fill: #ff0000"/>
   </g>
   <g id="patch_71">
    <path d="M 286.030572 299.518125 
L 286.982719 299.518125 
L 286.982719 297.894983 
L 286.030572 297.894983 
z
" clip-path="url(#pacc3b17124)" style="fill: #ff0000"/>
   </g>
   <g id="patch_72">
    <path d="M 286.982719 299.518125 
L 287.934866 299.518125 
L 287.934866 299.518125 
L 286.982719 299.518125 
z
" clip-path="url(#pacc3b17124)" style="fill: #ff0000"/>
   </g>
   <g id="patch_73">
    <path d="M 287.934866 299.518125 
L 288.887013 299.518125 
L 288.887013 299.518125 
L 287.934866 299.518125 
z
" clip-path="url(#pacc3b17124)" style="fill: #ff0000"/>
   </g>
   <g id="patch_74">
    <path d="M 288.887013 299.518125 
L 289.83916 299.518125 
L 289.83916 299.518125 
L 288.887013 299.518125 
z
" clip-path="url(#pacc3b17124)" style="fill: #ff0000"/>
   </g>
   <g id="patch_75">
    <path d="M 289.83916 299.518125 
L 290.791307 299.518125 
L 290.791307 299.518125 
L 289.83916 299.518125 
z
" clip-path="url(#pacc3b17124)" style="fill: #ff0000"/>
   </g>
   <g id="patch_76">
    <path d="M 290.791307 299.518125 
L 291.743454 299.518125 
L 291.743454 298.977078 
L 290.791307 298.977078 
z
" clip-path="url(#pacc3b17124)" style="fill: #ff0000"/>
   </g>
   <g id="patch_77">
    <path d="M 291.743454 299.518125 
L 292.695602 299.518125 
L 292.695602 299.518125 
L 291.743454 299.518125 
z
" clip-path="url(#pacc3b17124)" style="fill: #ff0000"/>
   </g>
   <g id="patch_78">
    <path d="M 292.695602 299.518125 
L 293.647749 299.518125 
L 293.647749 299.518125 
L 292.695602 299.518125 
z
" clip-path="url(#pacc3b17124)" style="fill: #ff0000"/>
   </g>
   <g id="patch_79">
    <path d="M 293.647749 299.518125 
L 294.599896 299.518125 
L 294.599896 298.977078 
L 293.647749 298.977078 
z
" clip-path="url(#pacc3b17124)" style="fill: #ff0000"/>
   </g>
   <g id="patch_80">
    <path d="M 294.599896 299.518125 
L 295.552043 299.518125 
L 295.552043 299.518125 
L 294.599896 299.518125 
z
" clip-path="url(#pacc3b17124)" style="fill: #ff0000"/>
   </g>
   <g id="patch_81">
    <path d="M 295.552043 299.518125 
L 296.50419 299.518125 
L 296.50419 299.518125 
L 295.552043 299.518125 
z
" clip-path="url(#pacc3b17124)" style="fill: #ff0000"/>
   </g>
   <g id="patch_82">
    <path d="M 296.50419 299.518125 
L 297.456337 299.518125 
L 297.456337 298.977078 
L 296.50419 298.977078 
z
" clip-path="url(#pacc3b17124)" style="fill: #ff0000"/>
   </g>
   <g id="patch_83">
    <path d="M 397.886634 299.518125 
L 399.281499 299.518125 
L 399.281499 298.779478 
L 397.886634 298.779478 
z
" clip-path="url(#pacc3b17124)" style="fill: #ffa500"/>
   </g>
   <g id="patch_84">
    <path d="M 399.281499 299.518125 
L 400.676364 299.518125 
L 400.676364 299.148801 
L 399.281499 299.148801 
z
" clip-path="url(#pacc3b17124)" style="fill: #ffa500"/>
   </g>
   <g id="patch_85">
    <path d="M 400.676364 299.518125 
L 402.07123 299.518125 
L 402.07123 298.04083 
L 400.676364 298.04083 
z
" clip-path="url(#pacc3b17124)" style="fill: #ffa500"/>
   </g>
   <g id="patch_86">
    <path d="M 402.07123 299.518125 
L 403.466095 299.518125 
L 403.466095 298.410154 
L 402.07123 298.410154 
z
" clip-path="url(#pacc3b17124)" style="fill: #ffa500"/>
   </g>
   <g id="patch_87">
    <path d="M 403.466095 299.518125 
L 404.86096 299.518125 
L 404.86096 296.194212 
L 403.466095 296.194212 
z
" clip-path="url(#pacc3b17124)" style="fill: #ffa500"/>
   </g>
   <g id="patch_88">
    <path d="M 404.86096 299.518125 
L 406.255825 299.518125 
L 406.255825 297.302183 
L 404.86096 297.302183 
z
" clip-path="url(#pacc3b17124)" style="fill: #ffa500"/>
   </g>
   <g id="patch_89">
    <path d="M 406.255825 299.518125 
L 407.65069 299.518125 
L 407.65069 295.086241 
L 406.255825 295.086241 
z
" clip-path="url(#pacc3b17124)" style="fill: #ffa500"/>
   </g>
   <g id="patch_90">
    <path d="M 407.65069 299.518125 
L 409.045556 299.518125 
L 409.045556 296.932859 
L 407.65069 296.932859 
z
" clip-path="url(#pacc3b17124)" style="fill: #ffa500"/>
   </g>
   <g id="patch_91">
    <path d="M 409.045556 299.518125 
L 410.440421 299.518125 
L 410.440421 293.239623 
L 409.045556 293.239623 
z
" clip-path="url(#pacc3b17124)" style="fill: #ffa500"/>
   </g>
   <g id="patch_92">
    <path d="M 410.440421 299.518125 
L 411.835286 299.518125 
L 411.835286 294.347594 
L 410.440421 294.347594 
z
" clip-path="url(#pacc3b17124)" style="fill: #ffa500"/>
   </g>
   <g id="patch_93">
    <path d="M 411.835286 299.518125 
L 413.230151 299.518125 
L 413.230151 291.023681 
L 411.835286 291.023681 
z
" clip-path="url(#pacc3b17124)" style="fill: #ffa500"/>
   </g>
   <g id="patch_94">
    <path d="M 413.230151 299.518125 
L 414.625017 299.518125 
L 414.625017 289.546386 
L 413.230151 289.546386 
z
" clip-path="url(#pacc3b17124)" style="fill: #ffa500"/>
   </g>
   <g id="patch_95">
    <path d="M 414.625017 299.518125 
L 416.019882 299.518125 
L 416.019882 289.91571 
L 414.625017 289.91571 
z
" clip-path="url(#pacc3b17124)" style="fill: #ffa500"/>
   </g>
   <g id="patch_96">
    <path d="M 416.019882 299.518125 
L 417.414747 299.518125 
L 417.414747 286.591796 
L 416.019882 286.591796 
z
" clip-path="url(#pacc3b17124)" style="fill: #ffa500"/>
   </g>
   <g id="patch_97">
    <path d="M 417.414747 299.518125 
L 418.809612 299.518125 
L 418.809612 279.94397 
L 417.414747 279.94397 
z
" clip-path="url(#pacc3b17124)" style="fill: #ffa500"/>
   </g>
   <g id="patch_98">
    <path d="M 418.809612 299.518125 
L 420.204478 299.518125 
L 420.204478 287.699768 
L 418.809612 287.699768 
z
" clip-path="url(#pacc3b17124)" style="fill: #ffa500"/>
   </g>
   <g id="patch_99">
    <path d="M 420.204478 299.518125 
L 421.599343 299.518125 
L 421.599343 271.449526 
L 420.204478 271.449526 
z
" clip-path="url(#pacc3b17124)" style="fill: #ffa500"/>
   </g>
   <g id="patch_100">
    <path d="M 421.599343 299.518125 
L 422.994208 299.518125 
L 422.994208 265.909671 
L 421.599343 265.909671 
z
" clip-path="url(#pacc3b17124)" style="fill: #ffa500"/>
   </g>
   <g id="patch_101">
    <path d="M 422.994208 299.518125 
L 424.389073 299.518125 
L 424.389073 254.460637 
L 422.994208 254.460637 
z
" clip-path="url(#pacc3b17124)" style="fill: #ffa500"/>
   </g>
   <g id="patch_102">
    <path d="M 424.389073 299.518125 
L 425.783938 299.518125 
L 425.783938 254.091313 
L 424.389073 254.091313 
z
" clip-path="url(#pacc3b17124)" style="fill: #ffa500"/>
   </g>
   <g id="patch_103">
    <path d="M 425.783938 299.518125 
L 427.178804 299.518125 
L 427.178804 258.892521 
L 425.783938 258.892521 
z
" clip-path="url(#pacc3b17124)" style="fill: #ffa500"/>
   </g>
   <g id="patch_104">
    <path d="M 427.178804 299.518125 
L 428.573669 299.518125 
L 428.573669 249.290106 
L 427.178804 249.290106 
z
" clip-path="url(#pacc3b17124)" style="fill: #ffa500"/>
   </g>
   <g id="patch_105">
    <path d="M 428.573669 299.518125 
L 429.968534 299.518125 
L 429.968534 241.903632 
L 428.573669 241.903632 
z
" clip-path="url(#pacc3b17124)" style="fill: #ffa500"/>
   </g>
   <g id="patch_106">
    <path d="M 429.968534 299.518125 
L 431.363399 299.518125 
L 431.363399 255.199284 
L 429.968534 255.199284 
z
" clip-path="url(#pacc3b17124)" style="fill: #ffa500"/>
   </g>
   <g id="patch_107">
    <path d="M 431.363399 299.518125 
L 432.758265 299.518125 
L 432.758265 225.284067 
L 431.363399 225.284067 
z
" clip-path="url(#pacc3b17124)" style="fill: #ffa500"/>
   </g>
   <g id="patch_108">
    <path d="M 432.758265 299.518125 
L 434.15313 299.518125 
L 434.15313 213.46571 
L 432.758265 213.46571 
z
" clip-path="url(#pacc3b17124)" style="fill: #ffa500"/>
   </g>
   <g id="patch_109">
    <path d="M 434.15313 299.518125 
L 435.547995 299.518125 
L 435.547995 202.755323 
L 434.15313 202.755323 
z
" clip-path="url(#pacc3b17124)" style="fill: #ffa500"/>
   </g>
   <g id="patch_110">
    <path d="M 435.547995 299.518125 
L 436.94286 299.518125 
L 436.94286 194.999526 
L 435.547995 194.999526 
z
" clip-path="url(#pacc3b17124)" style="fill: #ffa500"/>
   </g>
   <g id="patch_111">
    <path d="M 436.94286 299.518125 
L 438.337726 299.518125 
L 438.337726 198.692763 
L 436.94286 198.692763 
z
" clip-path="url(#pacc3b17124)" style="fill: #ffa500"/>
   </g>
   <g id="patch_112">
    <path d="M 438.337726 299.518125 
L 439.732591 299.518125 
L 439.732591 183.550492 
L 438.337726 183.550492 
z
" clip-path="url(#pacc3b17124)" style="fill: #ffa500"/>
   </g>
   <g id="patch_113">
    <path d="M 439.732591 299.518125 
L 441.127456 299.518125 
L 441.127456 170.624164 
L 439.732591 170.624164 
z
" clip-path="url(#pacc3b17124)" style="fill: #ffa500"/>
   </g>
   <g id="patch_114">
    <path d="M 441.127456 299.518125 
L 442.522321 299.518125 
L 442.522321 220.113536 
L 441.127456 220.113536 
z
" clip-path="url(#pacc3b17124)" style="fill: #ffa500"/>
   </g>
   <g id="patch_115">
    <path d="M 442.522321 299.518125 
L 443.917186 299.518125 
L 443.917186 170.25484 
L 442.522321 170.25484 
z
" clip-path="url(#pacc3b17124)" style="fill: #ffa500"/>
   </g>
   <g id="patch_116">
    <path d="M 443.917186 299.518125 
L 445.312052 299.518125 
L 445.312052 166.19228 
L 443.917186 166.19228 
z
" clip-path="url(#pacc3b17124)" style="fill: #ffa500"/>
   </g>
   <g id="patch_117">
    <path d="M 445.312052 299.518125 
L 446.706917 299.518125 
L 446.706917 169.516193 
L 445.312052 169.516193 
z
" clip-path="url(#pacc3b17124)" style="fill: #ffa500"/>
   </g>
   <g id="patch_118">
    <path d="M 446.706917 299.518125 
L 448.101782 299.518125 
L 448.101782 164.714985 
L 446.706917 164.714985 
z
" clip-path="url(#pacc3b17124)" style="fill: #ffa500"/>
   </g>
   <g id="patch_119">
    <path d="M 448.101782 299.518125 
L 449.496647 299.518125 
L 449.496647 157.697835 
L 448.101782 157.697835 
z
" clip-path="url(#pacc3b17124)" style="fill: #ffa500"/>
   </g>
   <g id="patch_120">
    <path d="M 449.496647 299.518125 
L 450.891513 299.518125 
L 450.891513 158.436482 
L 449.496647 158.436482 
z
" clip-path="url(#pacc3b17124)" style="fill: #ffa500"/>
   </g>
   <g id="patch_121">
    <path d="M 450.891513 299.518125 
L 452.286378 299.518125 
L 452.286378 163.976338 
L 450.891513 163.976338 
z
" clip-path="url(#pacc3b17124)" style="fill: #ffa500"/>
   </g>
   <g id="patch_122">
    <path d="M 452.286378 299.518125 
L 453.681243 299.518125 
L 453.681243 203.863294 
L 452.286378 203.863294 
z
" clip-path="url(#pacc3b17124)" style="fill: #ffa500"/>
   </g>
   <g id="patch_123">
    <path d="M 453.681243 299.518125 
L 455.076108 299.518125 
L 455.076108 172.101458 
L 453.681243 172.101458 
z
" clip-path="url(#pacc3b17124)" style="fill: #ffa500"/>
   </g>
   <g id="patch_124">
    <path d="M 455.076108 299.518125 
L 456.470974 299.518125 
L 456.470974 166.19228 
L 455.076108 166.19228 
z
" clip-path="url(#pacc3b17124)" style="fill: #ffa500"/>
   </g>
   <g id="patch_125">
    <path d="M 456.470974 299.518125 
L 457.865839 299.518125 
L 457.865839 180.965226 
L 456.470974 180.965226 
z
" clip-path="url(#pacc3b17124)" style="fill: #ffa500"/>
   </g>
   <g id="patch_126">
    <path d="M 457.865839 299.518125 
L 459.260704 299.518125 
L 459.260704 189.459671 
L 457.865839 189.459671 
z
" clip-path="url(#pacc3b17124)" style="fill: #ffa500"/>
   </g>
   <g id="patch_127">
    <path d="M 459.260704 299.518125 
L 460.655569 299.518125 
L 460.655569 190.567642 
L 459.260704 190.567642 
z
" clip-path="url(#pacc3b17124)" style="fill: #ffa500"/>
   </g>
   <g id="patch_128">
    <path d="M 460.655569 299.518125 
L 462.050434 299.518125 
L 462.050434 208.295178 
L 460.655569 208.295178 
z
" clip-path="url(#pacc3b17124)" style="fill: #ffa500"/>
   </g>
   <g id="patch_129">
    <path d="M 462.050434 299.518125 
L 463.4453 299.518125 
L 463.4453 206.44856 
L 462.050434 206.44856 
z
" clip-path="url(#pacc3b17124)" style="fill: #ffa500"/>
   </g>
   <g id="patch_130">
    <path d="M 463.4453 299.518125 
L 464.840165 299.518125 
L 464.840165 237.841072 
L 463.4453 237.841072 
z
" clip-path="url(#pacc3b17124)" style="fill: #ffa500"/>
   </g>
   <g id="patch_131">
    <path d="M 464.840165 299.518125 
L 466.23503 299.518125 
L 466.23503 218.636241 
L 464.840165 218.636241 
z
" clip-path="url(#pacc3b17124)" style="fill: #ffa500"/>
   </g>
   <g id="patch_132">
    <path d="M 466.23503 299.518125 
L 467.629895 299.518125 
L 467.629895 228.60798 
L 466.23503 228.60798 
z
" clip-path="url(#pacc3b17124)" style="fill: #ffa500"/>
   </g>
   <g id="patch_133">
    <path d="M 467.629895 299.518125 
L 469.024761 299.518125 
L 469.024761 233.778511 
L 467.629895 233.778511 
z
" clip-path="url(#pacc3b17124)" style="fill: #ffa500"/>
   </g>
   <g id="patch_134">
    <path d="M 469.024761 299.518125 
L 470.419626 299.518125 
L 470.419626 249.659429 
L 469.024761 249.659429 
z
" clip-path="url(#pacc3b17124)" style="fill: #ffa500"/>
   </g>
   <g id="patch_135">
    <path d="M 470.419626 299.518125 
L 471.814491 299.518125 
L 471.814491 253.72199 
L 470.419626 253.72199 
z
" clip-path="url(#pacc3b17124)" style="fill: #ffa500"/>
   </g>
   <g id="patch_136">
    <path d="M 471.814491 299.518125 
L 473.209356 299.518125 
L 473.209356 252.983342 
L 471.814491 252.983342 
z
" clip-path="url(#pacc3b17124)" style="fill: #ffa500"/>
   </g>
   <g id="patch_137">
    <path d="M 473.209356 299.518125 
L 474.604222 299.518125 
L 474.604222 263.324405 
L 473.209356 263.324405 
z
" clip-path="url(#pacc3b17124)" style="fill: #ffa500"/>
   </g>
   <g id="patch_138">
    <path d="M 474.604222 299.518125 
L 475.999087 299.518125 
L 475.999087 274.034792 
L 474.604222 274.034792 
z
" clip-path="url(#pacc3b17124)" style="fill: #ffa500"/>
   </g>
   <g id="patch_139">
    <path d="M 475.999087 299.518125 
L 477.393952 299.518125 
L 477.393952 269.972231 
L 475.999087 269.972231 
z
" clip-path="url(#pacc3b17124)" style="fill: #ffa500"/>
   </g>
   <g id="patch_140">
    <path d="M 477.393952 299.518125 
L 478.788817 299.518125 
L 478.788817 272.188173 
L 477.393952 272.188173 
z
" clip-path="url(#pacc3b17124)" style="fill: #ffa500"/>
   </g>
   <g id="patch_141">
    <path d="M 478.788817 299.518125 
L 480.183682 299.518125 
L 480.183682 278.835999 
L 478.788817 278.835999 
z
" clip-path="url(#pacc3b17124)" style="fill: #ffa500"/>
   </g>
   <g id="patch_142">
    <path d="M 480.183682 299.518125 
L 481.578548 299.518125 
L 481.578548 285.483825 
L 480.183682 285.483825 
z
" clip-path="url(#pacc3b17124)" style="fill: #ffa500"/>
   </g>
   <g id="patch_143">
    <path d="M 481.578548 299.518125 
L 482.973413 299.518125 
L 482.973413 284.375854 
L 481.578548 284.375854 
z
" clip-path="url(#pacc3b17124)" style="fill: #ffa500"/>
   </g>
   <g id="patch_144">
    <path d="M 482.973413 299.518125 
L 484.368278 299.518125 
L 484.368278 288.069091 
L 482.973413 288.069091 
z
" clip-path="url(#pacc3b17124)" style="fill: #ffa500"/>
   </g>
   <g id="patch_145">
    <path d="M 484.368278 299.518125 
L 485.763143 299.518125 
L 485.763143 292.131652 
L 484.368278 292.131652 
z
" clip-path="url(#pacc3b17124)" style="fill: #ffa500"/>
   </g>
   <g id="patch_146">
    <path d="M 485.763143 299.518125 
L 487.158009 299.518125 
L 487.158009 295.086241 
L 485.763143 295.086241 
z
" clip-path="url(#pacc3b17124)" style="fill: #ffa500"/>
   </g>
   <g id="patch_147">
    <path d="M 487.158009 299.518125 
L 488.552874 299.518125 
L 488.552874 292.870299 
L 487.158009 292.870299 
z
" clip-path="url(#pacc3b17124)" style="fill: #ffa500"/>
   </g>
   <g id="patch_148">
    <path d="M 488.552874 299.518125 
L 489.947739 299.518125 
L 489.947739 295.086241 
L 488.552874 295.086241 
z
" clip-path="url(#pacc3b17124)" style="fill: #ffa500"/>
   </g>
   <g id="patch_149">
    <path d="M 489.947739 299.518125 
L 491.342604 299.518125 
L 491.342604 295.824888 
L 489.947739 295.824888 
z
" clip-path="url(#pacc3b17124)" style="fill: #ffa500"/>
   </g>
   <g id="patch_150">
    <path d="M 491.342604 299.518125 
L 492.73747 299.518125 
L 492.73747 296.932859 
L 491.342604 296.932859 
z
" clip-path="url(#pacc3b17124)" style="fill: #ffa500"/>
   </g>
   <g id="patch_151">
    <path d="M 492.73747 299.518125 
L 494.132335 299.518125 
L 494.132335 297.671507 
L 492.73747 297.671507 
z
" clip-path="url(#pacc3b17124)" style="fill: #ffa500"/>
   </g>
   <g id="patch_152">
    <path d="M 494.132335 299.518125 
L 495.5272 299.518125 
L 495.5272 298.410154 
L 494.132335 298.410154 
z
" clip-path="url(#pacc3b17124)" style="fill: #ffa500"/>
   </g>
   <g id="patch_153">
    <path d="M 495.5272 299.518125 
L 496.922065 299.518125 
L 496.922065 298.410154 
L 495.5272 298.410154 
z
" clip-path="url(#pacc3b17124)" style="fill: #ffa500"/>
   </g>
   <g id="patch_154">
    <path d="M 496.922065 299.518125 
L 498.31693 299.518125 
L 498.31693 299.148801 
L 496.922065 299.148801 
z
" clip-path="url(#pacc3b17124)" style="fill: #ffa500"/>
   </g>
   <g id="patch_155">
    <path d="M 498.31693 299.518125 
L 499.711796 299.518125 
L 499.711796 298.779478 
L 498.31693 298.779478 
z
" clip-path="url(#pacc3b17124)" style="fill: #ffa500"/>
   </g>
   <g id="patch_156">
    <path d="M 499.711796 299.518125 
L 501.106661 299.518125 
L 501.106661 298.410154 
L 499.711796 298.410154 
z
" clip-path="url(#pacc3b17124)" style="fill: #ffa500"/>
   </g>
   <g id="patch_157">
    <path d="M 501.106661 299.518125 
L 502.501526 299.518125 
L 502.501526 299.518125 
L 501.106661 299.518125 
z
" clip-path="url(#pacc3b17124)" style="fill: #ffa500"/>
   </g>
   <g id="patch_158">
    <path d="M 502.501526 299.518125 
L 503.896391 299.518125 
L 503.896391 299.518125 
L 502.501526 299.518125 
z
" clip-path="url(#pacc3b17124)" style="fill: #ffa500"/>
   </g>
   <g id="patch_159">
    <path d="M 503.896391 299.518125 
L 505.291257 299.518125 
L 505.291257 299.148801 
L 503.896391 299.148801 
z
" clip-path="url(#pacc3b17124)" style="fill: #ffa500"/>
   </g>
   <g id="patch_160">
    <path d="M 505.291257 299.518125 
L 506.686122 299.518125 
L 506.686122 299.518125 
L 505.291257 299.518125 
z
" clip-path="url(#pacc3b17124)" style="fill: #ffa500"/>
   </g>
   <g id="patch_161">
    <path d="M 506.686122 299.518125 
L 508.080987 299.518125 
L 508.080987 299.518125 
L 506.686122 299.518125 
z
" clip-path="url(#pacc3b17124)" style="fill: #ffa500"/>
   </g>
   <g id="patch_162">
    <path d="M 508.080987 299.518125 
L 509.475852 299.518125 
L 509.475852 299.148801 
L 508.080987 299.148801 
z
" clip-path="url(#pacc3b17124)" style="fill: #ffa500"/>
   </g>
   <g id="patch_163">
    <path d="M 52.930398 299.518125 
L 53.773381 299.518125 
L 53.773381 298.907014 
L 52.930398 298.907014 
z
" clip-path="url(#pacc3b17124)" style="fill: #bf00bf"/>
   </g>
   <g id="patch_164">
    <path d="M 53.773381 299.518125 
L 54.616365 299.518125 
L 54.616365 299.518125 
L 53.773381 299.518125 
z
" clip-path="url(#pacc3b17124)" style="fill: #bf00bf"/>
   </g>
   <g id="patch_165">
    <path d="M 54.616365 299.518125 
L 55.459349 299.518125 
L 55.459349 299.518125 
L 54.616365 299.518125 
z
" clip-path="url(#pacc3b17124)" style="fill: #bf00bf"/>
   </g>
   <g id="patch_166">
    <path d="M 55.459349 299.518125 
L 56.302333 299.518125 
L 56.302333 298.907014 
L 55.459349 298.907014 
z
" clip-path="url(#pacc3b17124)" style="fill: #bf00bf"/>
   </g>
   <g id="patch_167">
    <path d="M 56.302333 299.518125 
L 57.145317 299.518125 
L 57.145317 298.295903 
L 56.302333 298.295903 
z
" clip-path="url(#pacc3b17124)" style="fill: #bf00bf"/>
   </g>
   <g id="patch_168">
    <path d="M 57.145317 299.518125 
L 57.9883 299.518125 
L 57.9883 298.295903 
L 57.145317 298.295903 
z
" clip-path="url(#pacc3b17124)" style="fill: #bf00bf"/>
   </g>
   <g id="patch_169">
    <path d="M 57.9883 299.518125 
L 58.831284 299.518125 
L 58.831284 297.684792 
L 57.9883 297.684792 
z
" clip-path="url(#pacc3b17124)" style="fill: #bf00bf"/>
   </g>
   <g id="patch_170">
    <path d="M 58.831284 299.518125 
L 59.674268 299.518125 
L 59.674268 294.629236 
L 58.831284 294.629236 
z
" clip-path="url(#pacc3b17124)" style="fill: #bf00bf"/>
   </g>
   <g id="patch_171">
    <path d="M 59.674268 299.518125 
L 60.517252 299.518125 
L 60.517252 292.184792 
L 59.674268 292.184792 
z
" clip-path="url(#pacc3b17124)" style="fill: #bf00bf"/>
   </g>
   <g id="patch_172">
    <path d="M 60.517252 299.518125 
L 61.360235 299.518125 
L 61.360235 290.962569 
L 60.517252 290.962569 
z
" clip-path="url(#pacc3b17124)" style="fill: #bf00bf"/>
   </g>
   <g id="patch_173">
    <path d="M 61.360235 299.518125 
L 62.203219 299.518125 
L 62.203219 292.184792 
L 61.360235 292.184792 
z
" clip-path="url(#pacc3b17124)" style="fill: #bf00bf"/>
   </g>
   <g id="patch_174">
    <path d="M 62.203219 299.518125 
L 63.046203 299.518125 
L 63.046203 287.907014 
L 62.203219 287.907014 
z
" clip-path="url(#pacc3b17124)" style="fill: #bf00bf"/>
   </g>
   <g id="patch_175">
    <path d="M 63.046203 299.518125 
L 63.889187 299.518125 
L 63.889187 285.462569 
L 63.046203 285.462569 
z
" clip-path="url(#pacc3b17124)" style="fill: #bf00bf"/>
   </g>
   <g id="patch_176">
    <path d="M 63.889187 299.518125 
L 64.732171 299.518125 
L 64.732171 278.129236 
L 63.889187 278.129236 
z
" clip-path="url(#pacc3b17124)" style="fill: #bf00bf"/>
   </g>
   <g id="patch_177">
    <path d="M 64.732171 299.518125 
L 65.575154 299.518125 
L 65.575154 265.295903 
L 64.732171 265.295903 
z
" clip-path="url(#pacc3b17124)" style="fill: #bf00bf"/>
   </g>
   <g id="patch_178">
    <path d="M 65.575154 299.518125 
L 66.418138 299.518125 
L 66.418138 285.462569 
L 65.575154 285.462569 
z
" clip-path="url(#pacc3b17124)" style="fill: #bf00bf"/>
   </g>
   <g id="patch_179">
    <path d="M 66.418138 299.518125 
L 67.261122 299.518125 
L 67.261122 256.129236 
L 66.418138 256.129236 
z
" clip-path="url(#pacc3b17124)" style="fill: #bf00bf"/>
   </g>
   <g id="patch_180">
    <path d="M 67.261122 299.518125 
L 68.104106 299.518125 
L 68.104106 257.962569 
L 67.261122 257.962569 
z
" clip-path="url(#pacc3b17124)" style="fill: #bf00bf"/>
   </g>
   <g id="patch_181">
    <path d="M 68.104106 299.518125 
L 68.947089 299.518125 
L 68.947089 242.684792 
L 68.104106 242.684792 
z
" clip-path="url(#pacc3b17124)" style="fill: #bf00bf"/>
   </g>
   <g id="patch_182">
    <path d="M 68.947089 299.518125 
L 69.790073 299.518125 
L 69.790073 265.295903 
L 68.947089 265.295903 
z
" clip-path="url(#pacc3b17124)" style="fill: #bf00bf"/>
   </g>
   <g id="patch_183">
    <path d="M 69.790073 299.518125 
L 70.633057 299.518125 
L 70.633057 232.295903 
L 69.790073 232.295903 
z
" clip-path="url(#pacc3b17124)" style="fill: #bf00bf"/>
   </g>
   <g id="patch_184">
    <path d="M 70.633057 299.518125 
L 71.476041 299.518125 
L 71.476041 204.184792 
L 70.633057 204.184792 
z
" clip-path="url(#pacc3b17124)" style="fill: #bf00bf"/>
   </g>
   <g id="patch_185">
    <path d="M 71.476041 299.518125 
L 72.319024 299.518125 
L 72.319024 253.073681 
L 71.476041 253.073681 
z
" clip-path="url(#pacc3b17124)" style="fill: #bf00bf"/>
   </g>
   <g id="patch_186">
    <path d="M 72.319024 299.518125 
L 73.162008 299.518125 
L 73.162008 177.295903 
L 72.319024 177.295903 
z
" clip-path="url(#pacc3b17124)" style="fill: #bf00bf"/>
   </g>
   <g id="patch_187">
    <path d="M 73.162008 299.518125 
L 74.004992 299.518125 
L 74.004992 168.740347 
L 73.162008 168.740347 
z
" clip-path="url(#pacc3b17124)" style="fill: #bf00bf"/>
   </g>
   <g id="patch_188">
    <path d="M 74.004992 299.518125 
L 74.847976 299.518125 
L 74.847976 162.018125 
L 74.004992 162.018125 
z
" clip-path="url(#pacc3b17124)" style="fill: #bf00bf"/>
   </g>
   <g id="patch_189">
    <path d="M 74.847976 299.518125 
L 75.69096 299.518125 
L 75.69096 219.462569 
L 74.847976 219.462569 
z
" clip-path="url(#pacc3b17124)" style="fill: #bf00bf"/>
   </g>
   <g id="patch_190">
    <path d="M 75.69096 299.518125 
L 76.533943 299.518125 
L 76.533943 136.351458 
L 75.69096 136.351458 
z
" clip-path="url(#pacc3b17124)" style="fill: #bf00bf"/>
   </g>
   <g id="patch_191">
    <path d="M 76.533943 299.518125 
L 77.376927 299.518125 
L 77.376927 143.684792 
L 76.533943 143.684792 
z
" clip-path="url(#pacc3b17124)" style="fill: #bf00bf"/>
   </g>
   <g id="patch_192">
    <path d="M 77.376927 299.518125 
L 78.219911 299.518125 
L 78.219911 84.407014 
L 77.376927 84.407014 
z
" clip-path="url(#pacc3b17124)" style="fill: #bf00bf"/>
   </g>
   <g id="patch_193">
    <path d="M 78.219911 299.518125 
L 79.062895 299.518125 
L 79.062895 193.184792 
L 78.219911 193.184792 
z
" clip-path="url(#pacc3b17124)" style="fill: #bf00bf"/>
   </g>
   <g id="patch_194">
    <path d="M 79.062895 299.518125 
L 79.905878 299.518125 
L 79.905878 94.184792 
L 79.062895 94.184792 
z
" clip-path="url(#pacc3b17124)" style="fill: #bf00bf"/>
   </g>
   <g id="patch_195">
    <path d="M 79.905878 299.518125 
L 80.748862 299.518125 
L 80.748862 35.518125 
L 79.905878 35.518125 
z
" clip-path="url(#pacc3b17124)" style="fill: #bf00bf"/>
   </g>
   <g id="patch_196">
    <path d="M 80.748862 299.518125 
L 81.591846 299.518125 
L 81.591846 42.851458 
L 80.748862 42.851458 
z
" clip-path="url(#pacc3b17124)" style="fill: #bf00bf"/>
   </g>
   <g id="patch_197">
    <path d="M 81.591846 299.518125 
L 82.43483 299.518125 
L 82.43483 182.795903 
L 81.591846 182.795903 
z
" clip-path="url(#pacc3b17124)" style="fill: #bf00bf"/>
   </g>
   <g id="patch_198">
    <path d="M 82.43483 299.518125 
L 83.277813 299.518125 
L 83.277813 53.851458 
L 82.43483 53.851458 
z
" clip-path="url(#pacc3b17124)" style="fill: #bf00bf"/>
   </g>
   <g id="patch_199">
    <path d="M 83.277813 299.518125 
L 84.120797 299.518125 
L 84.120797 67.295903 
L 83.277813 67.295903 
z
" clip-path="url(#pacc3b17124)" style="fill: #bf00bf"/>
   </g>
   <g id="patch_200">
    <path d="M 84.120797 299.518125 
L 84.963781 299.518125 
L 84.963781 58.129236 
L 84.120797 58.129236 
z
" clip-path="url(#pacc3b17124)" style="fill: #bf00bf"/>
   </g>
   <g id="patch_201">
    <path d="M 84.963781 299.518125 
L 85.806765 299.518125 
L 85.806765 163.851458 
L 84.963781 163.851458 
z
" clip-path="url(#pacc3b17124)" style="fill: #bf00bf"/>
   </g>
   <g id="patch_202">
    <path d="M 85.806765 299.518125 
L 86.649749 299.518125 
L 86.649749 71.573681 
L 85.806765 71.573681 
z
" clip-path="url(#pacc3b17124)" style="fill: #bf00bf"/>
   </g>
   <g id="patch_203">
    <path d="M 86.649749 299.518125 
L 87.492732 299.518125 
L 87.492732 48.351458 
L 86.649749 48.351458 
z
" clip-path="url(#pacc3b17124)" style="fill: #bf00bf"/>
   </g>
   <g id="patch_204">
    <path d="M 87.492732 299.518125 
L 88.335716 299.518125 
L 88.335716 198.073681 
L 87.492732 198.073681 
z
" clip-path="url(#pacc3b17124)" style="fill: #bf00bf"/>
   </g>
   <g id="patch_205">
    <path d="M 88.335716 299.518125 
L 89.1787 299.518125 
L 89.1787 74.018125 
L 88.335716 74.018125 
z
" clip-path="url(#pacc3b17124)" style="fill: #bf00bf"/>
   </g>
   <g id="patch_206">
    <path d="M 89.1787 299.518125 
L 90.021684 299.518125 
L 90.021684 74.629236 
L 89.1787 74.629236 
z
" clip-path="url(#pacc3b17124)" style="fill: #bf00bf"/>
   </g>
   <g id="patch_207">
    <path d="M 90.021684 299.518125 
L 90.864667 299.518125 
L 90.864667 102.129236 
L 90.021684 102.129236 
z
" clip-path="url(#pacc3b17124)" style="fill: #bf00bf"/>
   </g>
   <g id="patch_208">
    <path d="M 90.864667 299.518125 
L 91.707651 299.518125 
L 91.707651 215.184792 
L 90.864667 215.184792 
z
" clip-path="url(#pacc3b17124)" style="fill: #bf00bf"/>
   </g>
   <g id="patch_209">
    <path d="M 91.707651 299.518125 
L 92.550635 299.518125 
L 92.550635 132.073681 
L 91.707651 132.073681 
z
" clip-path="url(#pacc3b17124)" style="fill: #bf00bf"/>
   </g>
   <g id="patch_210">
    <path d="M 92.550635 299.518125 
L 93.393619 299.518125 
L 93.393619 130.851458 
L 92.550635 130.851458 
z
" clip-path="url(#pacc3b17124)" style="fill: #bf00bf"/>
   </g>
   <g id="patch_211">
    <path d="M 93.393619 299.518125 
L 94.236602 299.518125 
L 94.236602 145.518125 
L 93.393619 145.518125 
z
" clip-path="url(#pacc3b17124)" style="fill: #bf00bf"/>
   </g>
   <g id="patch_212">
    <path d="M 94.236602 299.518125 
L 95.079586 299.518125 
L 95.079586 219.462569 
L 94.236602 219.462569 
z
" clip-path="url(#pacc3b17124)" style="fill: #bf00bf"/>
   </g>
   <g id="patch_213">
    <path d="M 95.079586 299.518125 
L 95.92257 299.518125 
L 95.92257 155.295903 
L 95.079586 155.295903 
z
" clip-path="url(#pacc3b17124)" style="fill: #bf00bf"/>
   </g>
   <g id="patch_214">
    <path d="M 95.92257 299.518125 
L 96.765554 299.518125 
L 96.765554 188.907014 
L 95.92257 188.907014 
z
" clip-path="url(#pacc3b17124)" style="fill: #bf00bf"/>
   </g>
   <g id="patch_215">
    <path d="M 96.765554 299.518125 
L 97.608538 299.518125 
L 97.608538 204.795903 
L 96.765554 204.795903 
z
" clip-path="url(#pacc3b17124)" style="fill: #bf00bf"/>
   </g>
   <g id="patch_216">
    <path d="M 97.608538 299.518125 
L 98.451521 299.518125 
L 98.451521 259.184792 
L 97.608538 259.184792 
z
" clip-path="url(#pacc3b17124)" style="fill: #bf00bf"/>
   </g>
   <g id="patch_217">
    <path d="M 98.451521 299.518125 
L 99.294505 299.518125 
L 99.294505 213.962569 
L 98.451521 213.962569 
z
" clip-path="url(#pacc3b17124)" style="fill: #bf00bf"/>
   </g>
   <g id="patch_218">
    <path d="M 99.294505 299.518125 
L 100.137489 299.518125 
L 100.137489 220.073681 
L 99.294505 220.073681 
z
" clip-path="url(#pacc3b17124)" style="fill: #bf00bf"/>
   </g>
   <g id="patch_219">
    <path d="M 100.137489 299.518125 
L 100.980473 299.518125 
L 100.980473 239.018125 
L 100.137489 239.018125 
z
" clip-path="url(#pacc3b17124)" style="fill: #bf00bf"/>
   </g>
   <g id="patch_220">
    <path d="M 100.980473 299.518125 
L 101.823456 299.518125 
L 101.823456 276.295903 
L 100.980473 276.295903 
z
" clip-path="url(#pacc3b17124)" style="fill: #bf00bf"/>
   </g>
   <g id="patch_221">
    <path d="M 101.823456 299.518125 
L 102.66644 299.518125 
L 102.66644 248.795903 
L 101.823456 248.795903 
z
" clip-path="url(#pacc3b17124)" style="fill: #bf00bf"/>
   </g>
   <g id="patch_222">
    <path d="M 102.66644 299.518125 
L 103.509424 299.518125 
L 103.509424 251.851458 
L 102.66644 251.851458 
z
" clip-path="url(#pacc3b17124)" style="fill: #bf00bf"/>
   </g>
   <g id="patch_223">
    <path d="M 103.509424 299.518125 
L 104.352408 299.518125 
L 104.352408 286.684792 
L 103.509424 286.684792 
z
" clip-path="url(#pacc3b17124)" style="fill: #bf00bf"/>
   </g>
   <g id="patch_224">
    <path d="M 104.352408 299.518125 
L 105.195391 299.518125 
L 105.195391 268.962569 
L 104.352408 268.962569 
z
" clip-path="url(#pacc3b17124)" style="fill: #bf00bf"/>
   </g>
   <g id="patch_225">
    <path d="M 105.195391 299.518125 
L 106.038375 299.518125 
L 106.038375 271.407014 
L 105.195391 271.407014 
z
" clip-path="url(#pacc3b17124)" style="fill: #bf00bf"/>
   </g>
   <g id="patch_226">
    <path d="M 106.038375 299.518125 
L 106.881359 299.518125 
L 106.881359 283.018125 
L 106.038375 283.018125 
z
" clip-path="url(#pacc3b17124)" style="fill: #bf00bf"/>
   </g>
   <g id="patch_227">
    <path d="M 106.881359 299.518125 
L 107.724343 299.518125 
L 107.724343 287.295903 
L 106.881359 287.295903 
z
" clip-path="url(#pacc3b17124)" style="fill: #bf00bf"/>
   </g>
   <g id="patch_228">
    <path d="M 107.724343 299.518125 
L 108.567327 299.518125 
L 108.567327 284.851458 
L 107.724343 284.851458 
z
" clip-path="url(#pacc3b17124)" style="fill: #bf00bf"/>
   </g>
   <g id="patch_229">
    <path d="M 108.567327 299.518125 
L 109.41031 299.518125 
L 109.41031 289.129236 
L 108.567327 289.129236 
z
" clip-path="url(#pacc3b17124)" style="fill: #bf00bf"/>
   </g>
   <g id="patch_230">
    <path d="M 109.41031 299.518125 
L 110.253294 299.518125 
L 110.253294 289.740347 
L 109.41031 289.740347 
z
" clip-path="url(#pacc3b17124)" style="fill: #bf00bf"/>
   </g>
   <g id="patch_231">
    <path d="M 110.253294 299.518125 
L 111.096278 299.518125 
L 111.096278 295.240347 
L 110.253294 295.240347 
z
" clip-path="url(#pacc3b17124)" style="fill: #bf00bf"/>
   </g>
   <g id="patch_232">
    <path d="M 111.096278 299.518125 
L 111.939262 299.518125 
L 111.939262 290.962569 
L 111.096278 290.962569 
z
" clip-path="url(#pacc3b17124)" style="fill: #bf00bf"/>
   </g>
   <g id="patch_233">
    <path d="M 111.939262 299.518125 
L 112.782245 299.518125 
L 112.782245 295.240347 
L 111.939262 295.240347 
z
" clip-path="url(#pacc3b17124)" style="fill: #bf00bf"/>
   </g>
   <g id="patch_234">
    <path d="M 112.782245 299.518125 
L 113.625229 299.518125 
L 113.625229 297.684792 
L 112.782245 297.684792 
z
" clip-path="url(#pacc3b17124)" style="fill: #bf00bf"/>
   </g>
   <g id="patch_235">
    <path d="M 113.625229 299.518125 
L 114.468213 299.518125 
L 114.468213 298.295903 
L 113.625229 298.295903 
z
" clip-path="url(#pacc3b17124)" style="fill: #bf00bf"/>
   </g>
   <g id="patch_236">
    <path d="M 114.468213 299.518125 
L 115.311197 299.518125 
L 115.311197 294.629236 
L 114.468213 294.629236 
z
" clip-path="url(#pacc3b17124)" style="fill: #bf00bf"/>
   </g>
   <g id="patch_237">
    <path d="M 115.311197 299.518125 
L 116.15418 299.518125 
L 116.15418 296.462569 
L 115.311197 296.462569 
z
" clip-path="url(#pacc3b17124)" style="fill: #bf00bf"/>
   </g>
   <g id="patch_238">
    <path d="M 116.15418 299.518125 
L 116.997164 299.518125 
L 116.997164 297.684792 
L 116.15418 297.684792 
z
" clip-path="url(#pacc3b17124)" style="fill: #bf00bf"/>
   </g>
   <g id="patch_239">
    <path d="M 116.997164 299.518125 
L 117.840148 299.518125 
L 117.840148 298.295903 
L 116.997164 298.295903 
z
" clip-path="url(#pacc3b17124)" style="fill: #bf00bf"/>
   </g>
   <g id="patch_240">
    <path d="M 117.840148 299.518125 
L 118.683132 299.518125 
L 118.683132 297.684792 
L 117.840148 297.684792 
z
" clip-path="url(#pacc3b17124)" style="fill: #bf00bf"/>
   </g>
   <g id="patch_241">
    <path d="M 118.683132 299.518125 
L 119.526116 299.518125 
L 119.526116 299.518125 
L 118.683132 299.518125 
z
" clip-path="url(#pacc3b17124)" style="fill: #bf00bf"/>
   </g>
   <g id="patch_242">
    <path d="M 119.526116 299.518125 
L 120.369099 299.518125 
L 120.369099 298.907014 
L 119.526116 298.907014 
z
" clip-path="url(#pacc3b17124)" style="fill: #bf00bf"/>
   </g>
   <g id="matplotlib.axis_1">
    <g id="xtick_1">
     <g id="line2d_1">
      <path d="M 60.693126 299.518125 
L 60.693126 22.318125 
" clip-path="url(#pacc3b17124)" style="fill: none; stroke-dasharray: 0.8,1.32; stroke-dashoffset: 0; stroke: #b0b0b0; stroke-width: 0.8"/>
     </g>
     <g id="line2d_2">
      <defs>
       <path id="mfa7dfe47b0" d="M 0 0 
L 0 3.5 
" style="stroke: #000000; stroke-width: 0.8"/>
      </defs>
      <g>
       <use xlink:href="#mfa7dfe47b0" x="60.693126" y="299.518125" style="stroke: #000000; stroke-width: 0.8"/>
      </g>
     </g>
     <g id="text_1">
      <!-- 2 -->
      <g transform="translate(57.511876 314.116563) scale(0.1 -0.1)">
       <defs>
        <path id="DejaVuSans-32" d="M 1228 531 
L 3431 531 
L 3431 0 
L 469 0 
L 469 531 
Q 828 903 1448 1529 
Q 2069 2156 2228 2338 
Q 2531 2678 2651 2914 
Q 2772 3150 2772 3378 
Q 2772 3750 2511 3984 
Q 2250 4219 1831 4219 
Q 1534 4219 1204 4116 
Q 875 4013 500 3803 
L 500 4441 
Q 881 4594 1212 4672 
Q 1544 4750 1819 4750 
Q 2544 4750 2975 4387 
Q 3406 4025 3406 3419 
Q 3406 3131 3298 2873 
Q 3191 2616 2906 2266 
Q 2828 2175 2409 1742 
Q 1991 1309 1228 531 
z
" transform="scale(0.015625)"/>
       </defs>
       <use xlink:href="#DejaVuSans-32"/>
      </g>
     </g>
    </g>
    <g id="xtick_2">
     <g id="line2d_3">
      <path d="M 157.727229 299.518125 
L 157.727229 22.318125 
" clip-path="url(#pacc3b17124)" style="fill: none; stroke-dasharray: 0.8,1.32; stroke-dashoffset: 0; stroke: #b0b0b0; stroke-width: 0.8"/>
     </g>
     <g id="line2d_4">
      <g>
       <use xlink:href="#mfa7dfe47b0" x="157.727229" y="299.518125" style="stroke: #000000; stroke-width: 0.8"/>
      </g>
     </g>
     <g id="text_2">
      <!-- 4 -->
      <g transform="translate(154.545979 314.116563) scale(0.1 -0.1)">
       <defs>
        <path id="DejaVuSans-34" d="M 2419 4116 
L 825 1625 
L 2419 1625 
L 2419 4116 
z
M 2253 4666 
L 3047 4666 
L 3047 1625 
L 3713 1625 
L 3713 1100 
L 3047 1100 
L 3047 0 
L 2419 0 
L 2419 1100 
L 313 1100 
L 313 1709 
L 2253 4666 
z
" transform="scale(0.015625)"/>
       </defs>
       <use xlink:href="#DejaVuSans-34"/>
      </g>
     </g>
    </g>
    <g id="xtick_3">
     <g id="line2d_5">
      <path d="M 254.761332 299.518125 
L 254.761332 22.318125 
" clip-path="url(#pacc3b17124)" style="fill: none; stroke-dasharray: 0.8,1.32; stroke-dashoffset: 0; stroke: #b0b0b0; stroke-width: 0.8"/>
     </g>
     <g id="line2d_6">
      <g>
       <use xlink:href="#mfa7dfe47b0" x="254.761332" y="299.518125" style="stroke: #000000; stroke-width: 0.8"/>
      </g>
     </g>
     <g id="text_3">
      <!-- 6 -->
      <g transform="translate(251.580082 314.116563) scale(0.1 -0.1)">
       <defs>
        <path id="DejaVuSans-36" d="M 2113 2584 
Q 1688 2584 1439 2293 
Q 1191 2003 1191 1497 
Q 1191 994 1439 701 
Q 1688 409 2113 409 
Q 2538 409 2786 701 
Q 3034 994 3034 1497 
Q 3034 2003 2786 2293 
Q 2538 2584 2113 2584 
z
M 3366 4563 
L 3366 3988 
Q 3128 4100 2886 4159 
Q 2644 4219 2406 4219 
Q 1781 4219 1451 3797 
Q 1122 3375 1075 2522 
Q 1259 2794 1537 2939 
Q 1816 3084 2150 3084 
Q 2853 3084 3261 2657 
Q 3669 2231 3669 1497 
Q 3669 778 3244 343 
Q 2819 -91 2113 -91 
Q 1303 -91 875 529 
Q 447 1150 447 2328 
Q 447 3434 972 4092 
Q 1497 4750 2381 4750 
Q 2619 4750 2861 4703 
Q 3103 4656 3366 4563 
z
" transform="scale(0.015625)"/>
       </defs>
       <use xlink:href="#DejaVuSans-36"/>
      </g>
     </g>
    </g>
    <g id="xtick_4">
     <g id="line2d_7">
      <path d="M 351.795435 299.518125 
L 351.795435 22.318125 
" clip-path="url(#pacc3b17124)" style="fill: none; stroke-dasharray: 0.8,1.32; stroke-dashoffset: 0; stroke: #b0b0b0; stroke-width: 0.8"/>
     </g>
     <g id="line2d_8">
      <g>
       <use xlink:href="#mfa7dfe47b0" x="351.795435" y="299.518125" style="stroke: #000000; stroke-width: 0.8"/>
      </g>
     </g>
     <g id="text_4">
      <!-- 8 -->
      <g transform="translate(348.614185 314.116563) scale(0.1 -0.1)">
       <defs>
        <path id="DejaVuSans-38" d="M 2034 2216 
Q 1584 2216 1326 1975 
Q 1069 1734 1069 1313 
Q 1069 891 1326 650 
Q 1584 409 2034 409 
Q 2484 409 2743 651 
Q 3003 894 3003 1313 
Q 3003 1734 2745 1975 
Q 2488 2216 2034 2216 
z
M 1403 2484 
Q 997 2584 770 2862 
Q 544 3141 544 3541 
Q 544 4100 942 4425 
Q 1341 4750 2034 4750 
Q 2731 4750 3128 4425 
Q 3525 4100 3525 3541 
Q 3525 3141 3298 2862 
Q 3072 2584 2669 2484 
Q 3125 2378 3379 2068 
Q 3634 1759 3634 1313 
Q 3634 634 3220 271 
Q 2806 -91 2034 -91 
Q 1263 -91 848 271 
Q 434 634 434 1313 
Q 434 1759 690 2068 
Q 947 2378 1403 2484 
z
M 1172 3481 
Q 1172 3119 1398 2916 
Q 1625 2713 2034 2713 
Q 2441 2713 2670 2916 
Q 2900 3119 2900 3481 
Q 2900 3844 2670 4047 
Q 2441 4250 2034 4250 
Q 1625 4250 1398 4047 
Q 1172 3844 1172 3481 
z
" transform="scale(0.015625)"/>
       </defs>
       <use xlink:href="#DejaVuSans-38"/>
      </g>
     </g>
    </g>
    <g id="xtick_5">
     <g id="line2d_9">
      <path d="M 448.829538 299.518125 
L 448.829538 22.318125 
" clip-path="url(#pacc3b17124)" style="fill: none; stroke-dasharray: 0.8,1.32; stroke-dashoffset: 0; stroke: #b0b0b0; stroke-width: 0.8"/>
     </g>
     <g id="line2d_10">
      <g>
       <use xlink:href="#mfa7dfe47b0" x="448.829538" y="299.518125" style="stroke: #000000; stroke-width: 0.8"/>
      </g>
     </g>
     <g id="text_5">
      <!-- 10 -->
      <g transform="translate(442.467038 314.116563) scale(0.1 -0.1)">
       <defs>
        <path id="DejaVuSans-31" d="M 794 531 
L 1825 531 
L 1825 4091 
L 703 3866 
L 703 4441 
L 1819 4666 
L 2450 4666 
L 2450 531 
L 3481 531 
L 3481 0 
L 794 0 
L 794 531 
z
" transform="scale(0.015625)"/>
        <path id="DejaVuSans-30" d="M 2034 4250 
Q 1547 4250 1301 3770 
Q 1056 3291 1056 2328 
Q 1056 1369 1301 889 
Q 1547 409 2034 409 
Q 2525 409 2770 889 
Q 3016 1369 3016 2328 
Q 3016 3291 2770 3770 
Q 2525 4250 2034 4250 
z
M 2034 4750 
Q 2819 4750 3233 4129 
Q 3647 3509 3647 2328 
Q 3647 1150 3233 529 
Q 2819 -91 2034 -91 
Q 1250 -91 836 529 
Q 422 1150 422 2328 
Q 422 3509 836 4129 
Q 1250 4750 2034 4750 
z
" transform="scale(0.015625)"/>
       </defs>
       <use xlink:href="#DejaVuSans-31"/>
       <use xlink:href="#DejaVuSans-30" x="63.623047"/>
      </g>
     </g>
    </g>
    <g id="text_6">
     <!-- $\overline{X}_n$ -->
     <g transform="translate(275.353125 329.616563) scale(0.1 -0.1)">
      <defs>
       <path id="DejaVuSans-Oblique-58" d="M 878 4666 
L 1516 4666 
L 2316 2981 
L 3763 4666 
L 4500 4666 
L 2578 2438 
L 3738 0 
L 3103 0 
L 2163 1966 
L 459 0 
L -275 0 
L 1906 2509 
L 878 4666 
z
" transform="scale(0.015625)"/>
       <path id="DejaVuSans-Oblique-6e" d="M 3566 2113 
L 3156 0 
L 2578 0 
L 2988 2091 
Q 3016 2238 3031 2350 
Q 3047 2463 3047 2528 
Q 3047 2791 2881 2937 
Q 2716 3084 2419 3084 
Q 1956 3084 1622 2776 
Q 1288 2469 1184 1941 
L 800 0 
L 225 0 
L 903 3500 
L 1478 3500 
L 1363 2950 
Q 1603 3253 1940 3418 
Q 2278 3584 2650 3584 
Q 3113 3584 3367 3334 
Q 3622 3084 3622 2631 
Q 3622 2519 3608 2391 
Q 3594 2263 3566 2113 
z
" transform="scale(0.015625)"/>
      </defs>
      <use xlink:href="#DejaVuSans-Oblique-58" transform="translate(0 0.84375)"/>
      <use xlink:href="#DejaVuSans-Oblique-6e" transform="translate(69.462891 -16.0625) scale(0.7)"/>
      <path d="M 0 85.5 
L 0 91.75 
L 68.505859 91.75 
L 68.505859 85.5 
L 0 85.5 
z
"/>
     </g>
    </g>
   </g>
   <g id="matplotlib.axis_2">
    <g id="ytick_1">
     <g id="line2d_11">
      <path d="M 30.103125 299.518125 
L 532.303125 299.518125 
" clip-path="url(#pacc3b17124)" style="fill: none; stroke-dasharray: 0.8,1.32; stroke-dashoffset: 0; stroke: #b0b0b0; stroke-width: 0.8"/>
     </g>
     <g id="line2d_12">
      <defs>
       <path id="m6d9f092671" d="M 0 0 
L -3.5 0 
" style="stroke: #000000; stroke-width: 0.8"/>
      </defs>
      <g>
       <use xlink:href="#m6d9f092671" x="30.103125" y="299.518125" style="stroke: #000000; stroke-width: 0.8"/>
      </g>
     </g>
     <g id="text_7">
      <!-- 0.0 -->
      <g transform="translate(7.2 303.317344) scale(0.1 -0.1)">
       <defs>
        <path id="DejaVuSans-2e" d="M 684 794 
L 1344 794 
L 1344 0 
L 684 0 
L 684 794 
z
" transform="scale(0.015625)"/>
       </defs>
       <use xlink:href="#DejaVuSans-30"/>
       <use xlink:href="#DejaVuSans-2e" x="63.623047"/>
       <use xlink:href="#DejaVuSans-30" x="95.410156"/>
      </g>
     </g>
    </g>
    <g id="ytick_2">
     <g id="line2d_13">
      <path d="M 30.103125 246.427847 
L 532.303125 246.427847 
" clip-path="url(#pacc3b17124)" style="fill: none; stroke-dasharray: 0.8,1.32; stroke-dashoffset: 0; stroke: #b0b0b0; stroke-width: 0.8"/>
     </g>
     <g id="line2d_14">
      <g>
       <use xlink:href="#m6d9f092671" x="30.103125" y="246.427847" style="stroke: #000000; stroke-width: 0.8"/>
      </g>
     </g>
     <g id="text_8">
      <!-- 0.5 -->
      <g transform="translate(7.2 250.227066) scale(0.1 -0.1)">
       <defs>
        <path id="DejaVuSans-35" d="M 691 4666 
L 3169 4666 
L 3169 4134 
L 1269 4134 
L 1269 2991 
Q 1406 3038 1543 3061 
Q 1681 3084 1819 3084 
Q 2600 3084 3056 2656 
Q 3513 2228 3513 1497 
Q 3513 744 3044 326 
Q 2575 -91 1722 -91 
Q 1428 -91 1123 -41 
Q 819 9 494 109 
L 494 744 
Q 775 591 1075 516 
Q 1375 441 1709 441 
Q 2250 441 2565 725 
Q 2881 1009 2881 1497 
Q 2881 1984 2565 2268 
Q 2250 2553 1709 2553 
Q 1456 2553 1204 2497 
Q 953 2441 691 2322 
L 691 4666 
z
" transform="scale(0.015625)"/>
       </defs>
       <use xlink:href="#DejaVuSans-30"/>
       <use xlink:href="#DejaVuSans-2e" x="63.623047"/>
       <use xlink:href="#DejaVuSans-35" x="95.410156"/>
      </g>
     </g>
    </g>
    <g id="ytick_3">
     <g id="line2d_15">
      <path d="M 30.103125 193.337569 
L 532.303125 193.337569 
" clip-path="url(#pacc3b17124)" style="fill: none; stroke-dasharray: 0.8,1.32; stroke-dashoffset: 0; stroke: #b0b0b0; stroke-width: 0.8"/>
     </g>
     <g id="line2d_16">
      <g>
       <use xlink:href="#m6d9f092671" x="30.103125" y="193.337569" style="stroke: #000000; stroke-width: 0.8"/>
      </g>
     </g>
     <g id="text_9">
      <!-- 1.0 -->
      <g transform="translate(7.2 197.136788) scale(0.1 -0.1)">
       <use xlink:href="#DejaVuSans-31"/>
       <use xlink:href="#DejaVuSans-2e" x="63.623047"/>
       <use xlink:href="#DejaVuSans-30" x="95.410156"/>
      </g>
     </g>
    </g>
    <g id="ytick_4">
     <g id="line2d_17">
      <path d="M 30.103125 140.247292 
L 532.303125 140.247292 
" clip-path="url(#pacc3b17124)" style="fill: none; stroke-dasharray: 0.8,1.32; stroke-dashoffset: 0; stroke: #b0b0b0; stroke-width: 0.8"/>
     </g>
     <g id="line2d_18">
      <g>
       <use xlink:href="#m6d9f092671" x="30.103125" y="140.247292" style="stroke: #000000; stroke-width: 0.8"/>
      </g>
     </g>
     <g id="text_10">
      <!-- 1.5 -->
      <g transform="translate(7.2 144.04651) scale(0.1 -0.1)">
       <use xlink:href="#DejaVuSans-31"/>
       <use xlink:href="#DejaVuSans-2e" x="63.623047"/>
       <use xlink:href="#DejaVuSans-35" x="95.410156"/>
      </g>
     </g>
    </g>
    <g id="ytick_5">
     <g id="line2d_19">
      <path d="M 30.103125 87.157014 
L 532.303125 87.157014 
" clip-path="url(#pacc3b17124)" style="fill: none; stroke-dasharray: 0.8,1.32; stroke-dashoffset: 0; stroke: #b0b0b0; stroke-width: 0.8"/>
     </g>
     <g id="line2d_20">
      <g>
       <use xlink:href="#m6d9f092671" x="30.103125" y="87.157014" style="stroke: #000000; stroke-width: 0.8"/>
      </g>
     </g>
     <g id="text_11">
      <!-- 2.0 -->
      <g transform="translate(7.2 90.956233) scale(0.1 -0.1)">
       <use xlink:href="#DejaVuSans-32"/>
       <use xlink:href="#DejaVuSans-2e" x="63.623047"/>
       <use xlink:href="#DejaVuSans-30" x="95.410156"/>
      </g>
     </g>
    </g>
    <g id="ytick_6">
     <g id="line2d_21">
      <path d="M 30.103125 34.066736 
L 532.303125 34.066736 
" clip-path="url(#pacc3b17124)" style="fill: none; stroke-dasharray: 0.8,1.32; stroke-dashoffset: 0; stroke: #b0b0b0; stroke-width: 0.8"/>
     </g>
     <g id="line2d_22">
      <g>
       <use xlink:href="#m6d9f092671" x="30.103125" y="34.066736" style="stroke: #000000; stroke-width: 0.8"/>
      </g>
     </g>
     <g id="text_12">
      <!-- 2.5 -->
      <g transform="translate(7.2 37.865955) scale(0.1 -0.1)">
       <use xlink:href="#DejaVuSans-32"/>
       <use xlink:href="#DejaVuSans-2e" x="63.623047"/>
       <use xlink:href="#DejaVuSans-35" x="95.410156"/>
      </g>
     </g>
    </g>
   </g>
   <g id="line2d_23">
    <path d="M 224.932222 297.221949 
L 226.066862 296.305538 
L 227.141785 295.15486 
L 228.216708 293.660892 
L 229.231913 291.865539 
L 230.247118 289.623563 
L 231.322041 286.676672 
L 232.396964 283.045759 
L 233.471887 278.633722 
L 234.606528 273.02657 
L 235.800886 265.966063 
L 237.054963 257.181388 
L 238.428476 245.888165 
L 239.921424 231.655979 
L 241.653244 212.834612 
L 243.862808 186.162277 
L 248.222218 133.019259 
L 249.715166 117.798794 
L 250.909525 107.764604 
L 251.865012 101.408609 
L 252.701063 97.212837 
L 253.417678 94.701607 
L 253.95514 93.501221 
L 254.432883 92.935654 
L 254.791191 92.823846 
L 255.149499 92.980361 
L 255.507806 93.404589 
L 255.98555 94.383669 
L 256.523011 96.041849 
L 257.179908 98.848147 
L 257.956242 103.222542 
L 258.852011 109.595715 
L 259.926934 118.916249 
L 261.240728 132.36332 
L 262.972548 152.544794 
L 269.30265 228.57723 
L 270.974752 244.823405 
L 272.467701 257.181388 
L 273.841213 266.72823 
L 275.09529 273.980811 
L 276.289649 279.686553 
L 277.484008 284.338093 
L 278.618648 287.898604 
L 279.753289 290.739057 
L 280.828212 292.866938 
L 281.903135 294.537611 
L 283.037776 295.894332 
L 284.172417 296.915586 
L 284.590442 297.221949 
L 284.590442 297.221949 
" clip-path="url(#pacc3b17124)" style="fill: none; stroke-dasharray: 7.4,3.2; stroke-dashoffset: 0; stroke: #0000ff; stroke-width: 2"/>
   </g>
   <g id="line2d_24">
    <path d="M 402.802221 298.030033 
L 404.829451 297.325363 
L 406.672386 296.445795 
L 408.331028 295.407207 
L 409.897524 294.163575 
L 411.371872 292.716396 
L 412.84622 290.957505 
L 414.320569 288.842812 
L 415.794917 286.328101 
L 417.269266 283.37082 
L 418.835761 279.700522 
L 420.402256 275.448199 
L 422.060898 270.281333 
L 423.811687 264.071896 
L 425.654623 256.712308 
L 427.773999 247.281073 
L 430.261962 235.113166 
L 434.132127 214.857274 
L 437.725851 196.42765 
L 439.845227 186.670351 
L 441.503869 179.995864 
L 442.978217 174.960416 
L 444.176126 171.586164 
L 445.281887 169.097987 
L 446.203355 167.512409 
L 447.032676 166.479859 
L 447.76985 165.883454 
L 448.414877 165.613234 
L 449.059905 165.579418 
L 449.704932 165.782185 
L 450.34996 166.220462 
L 451.087134 167.0067 
L 451.916455 168.248416 
L 452.837923 170.058858 
L 453.851537 172.551606 
L 455.049446 176.132052 
L 456.431647 181.03896 
L 457.998142 187.469428 
L 459.933225 196.42765 
L 462.513335 209.522646 
L 469.332196 244.668376 
L 471.635866 255.143226 
L 473.663095 263.373368 
L 475.506031 269.973885 
L 477.256819 275.448199 
L 478.915461 279.932203 
L 480.481957 283.569376 
L 482.048452 286.665798 
L 483.614947 289.268465 
L 485.181442 291.428848 
L 486.747938 293.200083 
L 488.314433 294.634662 
L 489.973075 295.842267 
L 491.723864 296.828887 
L 493.566799 297.609826 
L 494.856854 298.030033 
L 494.856854 298.030033 
" clip-path="url(#pacc3b17124)" style="fill: none; stroke-dasharray: 7.4,3.2; stroke-dashoffset: 0; stroke: #a52a2a; stroke-width: 2"/>
   </g>
   <g id="line2d_25">
    <path d="M 56.765792 297.08808 
L 57.837927 296.118242 
L 58.853633 294.900479 
L 59.86934 293.319413 
L 60.885047 291.29368 
L 61.900753 288.732732 
L 62.91646 285.538691 
L 63.932167 281.609286 
L 65.004301 276.550543 
L 66.132864 270.091522 
L 67.317856 261.934207 
L 68.559275 251.774644 
L 69.91355 238.757103 
L 71.380682 222.44923 
L 73.129955 200.400952 
L 75.72565 164.451884 
L 78.547057 126.124434 
L 80.070617 108.387064 
L 81.255608 97.06053 
L 82.214887 89.85872 
L 83.004881 85.418333 
L 83.682018 82.760697 
L 84.2463 81.388062 
L 84.641297 80.891788 
L 84.979866 80.773461 
L 85.262007 80.891788 
L 85.600575 81.29362 
L 85.995572 82.118598 
L 86.503426 83.735859 
L 87.124135 86.542931 
L 87.857701 90.990085 
L 88.704124 97.541959 
L 89.71983 107.204461 
L 90.961249 121.240825 
L 92.597666 142.436877 
L 98.917618 227.054218 
L 100.497606 243.874438 
L 101.90831 256.601922 
L 103.206158 266.389557 
L 104.447577 274.113243 
L 105.632568 280.118257 
L 106.761131 284.732679 
L 107.833266 288.247083 
L 108.9054 291.037296 
L 109.977535 293.219335 
L 111.04967 294.900479 
L 112.121805 296.176724 
L 113.137512 297.08808 
L 113.137512 297.08808 
" clip-path="url(#pacc3b17124)" style="fill: none; stroke-dasharray: 7.4,3.2; stroke-dashoffset: 0; stroke: #008000; stroke-width: 2"/>
   </g>
   <g id="patch_243">
    <path d="M 30.103125 299.518125 
L 30.103125 22.318125 
" style="fill: none; stroke: #000000; stroke-width: 0.8; stroke-linejoin: miter; stroke-linecap: square"/>
   </g>
   <g id="patch_244">
    <path d="M 532.303125 299.518125 
L 532.303125 22.318125 
" style="fill: none; stroke: #000000; stroke-width: 0.8; stroke-linejoin: miter; stroke-linecap: square"/>
   </g>
   <g id="patch_245">
    <path d="M 30.103125 299.518125 
L 532.303125 299.518125 
" style="fill: none; stroke: #000000; stroke-width: 0.8; stroke-linejoin: miter; stroke-linecap: square"/>
   </g>
   <g id="patch_246">
    <path d="M 30.103125 22.318125 
L 532.303125 22.318125 
" style="fill: none; stroke: #000000; stroke-width: 0.8; stroke-linejoin: miter; stroke-linecap: square"/>
   </g>
   <g id="text_13">
    <!-- Central limit theorem, $n=100$ -->
    <g transform="translate(190.363125 16.318125) scale(0.12 -0.12)">
     <defs>
      <path id="DejaVuSans-43" d="M 4122 4306 
L 4122 3641 
Q 3803 3938 3442 4084 
Q 3081 4231 2675 4231 
Q 1875 4231 1450 3742 
Q 1025 3253 1025 2328 
Q 1025 1406 1450 917 
Q 1875 428 2675 428 
Q 3081 428 3442 575 
Q 3803 722 4122 1019 
L 4122 359 
Q 3791 134 3420 21 
Q 3050 -91 2638 -91 
Q 1578 -91 968 557 
Q 359 1206 359 2328 
Q 359 3453 968 4101 
Q 1578 4750 2638 4750 
Q 3056 4750 3426 4639 
Q 3797 4528 4122 4306 
z
" transform="scale(0.015625)"/>
      <path id="DejaVuSans-65" d="M 3597 1894 
L 3597 1613 
L 953 1613 
Q 991 1019 1311 708 
Q 1631 397 2203 397 
Q 2534 397 2845 478 
Q 3156 559 3463 722 
L 3463 178 
Q 3153 47 2828 -22 
Q 2503 -91 2169 -91 
Q 1331 -91 842 396 
Q 353 884 353 1716 
Q 353 2575 817 3079 
Q 1281 3584 2069 3584 
Q 2775 3584 3186 3129 
Q 3597 2675 3597 1894 
z
M 3022 2063 
Q 3016 2534 2758 2815 
Q 2500 3097 2075 3097 
Q 1594 3097 1305 2825 
Q 1016 2553 972 2059 
L 3022 2063 
z
" transform="scale(0.015625)"/>
      <path id="DejaVuSans-6e" d="M 3513 2113 
L 3513 0 
L 2938 0 
L 2938 2094 
Q 2938 2591 2744 2837 
Q 2550 3084 2163 3084 
Q 1697 3084 1428 2787 
Q 1159 2491 1159 1978 
L 1159 0 
L 581 0 
L 581 3500 
L 1159 3500 
L 1159 2956 
Q 1366 3272 1645 3428 
Q 1925 3584 2291 3584 
Q 2894 3584 3203 3211 
Q 3513 2838 3513 2113 
z
" transform="scale(0.015625)"/>
      <path id="DejaVuSans-74" d="M 1172 4494 
L 1172 3500 
L 2356 3500 
L 2356 3053 
L 1172 3053 
L 1172 1153 
Q 1172 725 1289 603 
Q 1406 481 1766 481 
L 2356 481 
L 2356 0 
L 1766 0 
Q 1100 0 847 248 
Q 594 497 594 1153 
L 594 3053 
L 172 3053 
L 172 3500 
L 594 3500 
L 594 4494 
L 1172 4494 
z
" transform="scale(0.015625)"/>
      <path id="DejaVuSans-72" d="M 2631 2963 
Q 2534 3019 2420 3045 
Q 2306 3072 2169 3072 
Q 1681 3072 1420 2755 
Q 1159 2438 1159 1844 
L 1159 0 
L 581 0 
L 581 3500 
L 1159 3500 
L 1159 2956 
Q 1341 3275 1631 3429 
Q 1922 3584 2338 3584 
Q 2397 3584 2469 3576 
Q 2541 3569 2628 3553 
L 2631 2963 
z
" transform="scale(0.015625)"/>
      <path id="DejaVuSans-61" d="M 2194 1759 
Q 1497 1759 1228 1600 
Q 959 1441 959 1056 
Q 959 750 1161 570 
Q 1363 391 1709 391 
Q 2188 391 2477 730 
Q 2766 1069 2766 1631 
L 2766 1759 
L 2194 1759 
z
M 3341 1997 
L 3341 0 
L 2766 0 
L 2766 531 
Q 2569 213 2275 61 
Q 1981 -91 1556 -91 
Q 1019 -91 701 211 
Q 384 513 384 1019 
Q 384 1609 779 1909 
Q 1175 2209 1959 2209 
L 2766 2209 
L 2766 2266 
Q 2766 2663 2505 2880 
Q 2244 3097 1772 3097 
Q 1472 3097 1187 3025 
Q 903 2953 641 2809 
L 641 3341 
Q 956 3463 1253 3523 
Q 1550 3584 1831 3584 
Q 2591 3584 2966 3190 
Q 3341 2797 3341 1997 
z
" transform="scale(0.015625)"/>
      <path id="DejaVuSans-6c" d="M 603 4863 
L 1178 4863 
L 1178 0 
L 603 0 
L 603 4863 
z
" transform="scale(0.015625)"/>
      <path id="DejaVuSans-20" transform="scale(0.015625)"/>
      <path id="DejaVuSans-69" d="M 603 3500 
L 1178 3500 
L 1178 0 
L 603 0 
L 603 3500 
z
M 603 4863 
L 1178 4863 
L 1178 4134 
L 603 4134 
L 603 4863 
z
" transform="scale(0.015625)"/>
      <path id="DejaVuSans-6d" d="M 3328 2828 
Q 3544 3216 3844 3400 
Q 4144 3584 4550 3584 
Q 5097 3584 5394 3201 
Q 5691 2819 5691 2113 
L 5691 0 
L 5113 0 
L 5113 2094 
Q 5113 2597 4934 2840 
Q 4756 3084 4391 3084 
Q 3944 3084 3684 2787 
Q 3425 2491 3425 1978 
L 3425 0 
L 2847 0 
L 2847 2094 
Q 2847 2600 2669 2842 
Q 2491 3084 2119 3084 
Q 1678 3084 1418 2786 
Q 1159 2488 1159 1978 
L 1159 0 
L 581 0 
L 581 3500 
L 1159 3500 
L 1159 2956 
Q 1356 3278 1631 3431 
Q 1906 3584 2284 3584 
Q 2666 3584 2933 3390 
Q 3200 3197 3328 2828 
z
" transform="scale(0.015625)"/>
      <path id="DejaVuSans-68" d="M 3513 2113 
L 3513 0 
L 2938 0 
L 2938 2094 
Q 2938 2591 2744 2837 
Q 2550 3084 2163 3084 
Q 1697 3084 1428 2787 
Q 1159 2491 1159 1978 
L 1159 0 
L 581 0 
L 581 4863 
L 1159 4863 
L 1159 2956 
Q 1366 3272 1645 3428 
Q 1925 3584 2291 3584 
Q 2894 3584 3203 3211 
Q 3513 2838 3513 2113 
z
" transform="scale(0.015625)"/>
      <path id="DejaVuSans-6f" d="M 1959 3097 
Q 1497 3097 1228 2736 
Q 959 2375 959 1747 
Q 959 1119 1226 758 
Q 1494 397 1959 397 
Q 2419 397 2687 759 
Q 2956 1122 2956 1747 
Q 2956 2369 2687 2733 
Q 2419 3097 1959 3097 
z
M 1959 3584 
Q 2709 3584 3137 3096 
Q 3566 2609 3566 1747 
Q 3566 888 3137 398 
Q 2709 -91 1959 -91 
Q 1206 -91 779 398 
Q 353 888 353 1747 
Q 353 2609 779 3096 
Q 1206 3584 1959 3584 
z
" transform="scale(0.015625)"/>
      <path id="DejaVuSans-2c" d="M 750 794 
L 1409 794 
L 1409 256 
L 897 -744 
L 494 -744 
L 750 256 
L 750 794 
z
" transform="scale(0.015625)"/>
      <path id="DejaVuSans-3d" d="M 678 2906 
L 4684 2906 
L 4684 2381 
L 678 2381 
L 678 2906 
z
M 678 1631 
L 4684 1631 
L 4684 1100 
L 678 1100 
L 678 1631 
z
" transform="scale(0.015625)"/>
     </defs>
     <use xlink:href="#DejaVuSans-43" transform="translate(0 0.015625)"/>
     <use xlink:href="#DejaVuSans-65" transform="translate(69.824219 0.015625)"/>
     <use xlink:href="#DejaVuSans-6e" transform="translate(131.347656 0.015625)"/>
     <use xlink:href="#DejaVuSans-74" transform="translate(194.726562 0.015625)"/>
     <use xlink:href="#DejaVuSans-72" transform="translate(233.935547 0.015625)"/>
     <use xlink:href="#DejaVuSans-61" transform="translate(275.048828 0.015625)"/>
     <use xlink:href="#DejaVuSans-6c" transform="translate(336.328125 0.015625)"/>
     <use xlink:href="#DejaVuSans-20" transform="translate(364.111328 0.015625)"/>
     <use xlink:href="#DejaVuSans-6c" transform="translate(395.898438 0.015625)"/>
     <use xlink:href="#DejaVuSans-69" transform="translate(423.681641 0.015625)"/>
     <use xlink:href="#DejaVuSans-6d" transform="translate(451.464844 0.015625)"/>
     <use xlink:href="#DejaVuSans-69" transform="translate(548.876953 0.015625)"/>
     <use xlink:href="#DejaVuSans-74" transform="translate(576.660156 0.015625)"/>
     <use xlink:href="#DejaVuSans-20" transform="translate(615.869141 0.015625)"/>
     <use xlink:href="#DejaVuSans-74" transform="translate(647.65625 0.015625)"/>
     <use xlink:href="#DejaVuSans-68" transform="translate(686.865234 0.015625)"/>
     <use xlink:href="#DejaVuSans-65" transform="translate(750.244141 0.015625)"/>
     <use xlink:href="#DejaVuSans-6f" transform="translate(811.767578 0.015625)"/>
     <use xlink:href="#DejaVuSans-72" transform="translate(872.949219 0.015625)"/>
     <use xlink:href="#DejaVuSans-65" transform="translate(914.0625 0.015625)"/>
     <use xlink:href="#DejaVuSans-6d" transform="translate(975.585938 0.015625)"/>
     <use xlink:href="#DejaVuSans-2c" transform="translate(1072.998047 0.015625)"/>
     <use xlink:href="#DejaVuSans-20" transform="translate(1104.785156 0.015625)"/>
     <use xlink:href="#DejaVuSans-Oblique-6e" transform="translate(1136.572266 0.015625)"/>
     <use xlink:href="#DejaVuSans-3d" transform="translate(1219.433594 0.015625)"/>
     <use xlink:href="#DejaVuSans-31" transform="translate(1322.705078 0.015625)"/>
     <use xlink:href="#DejaVuSans-30" transform="translate(1386.328125 0.015625)"/>
     <use xlink:href="#DejaVuSans-30" transform="translate(1449.951172 0.015625)"/>
    </g>
   </g>
   <g id="legend_1">
    <g id="patch_247">
     <path d="M 434.539062 74.3525 
L 525.303125 74.3525 
Q 527.303125 74.3525 527.303125 72.3525 
L 527.303125 29.318125 
Q 527.303125 27.318125 525.303125 27.318125 
L 434.539062 27.318125 
Q 432.539062 27.318125 432.539062 29.318125 
L 432.539062 72.3525 
Q 432.539062 74.3525 434.539062 74.3525 
z
" style="fill: #ffffff; opacity: 0.8; stroke: #cccccc; stroke-linejoin: miter"/>
    </g>
    <g id="patch_248">
     <path d="M 436.539062 38.916563 
L 456.539062 38.916563 
L 456.539062 31.916563 
L 436.539062 31.916563 
z
" style="fill: #ff0000"/>
    </g>
    <g id="text_14">
     <!-- Bin(20, 0.3) -->
     <g transform="translate(464.539062 38.916563) scale(0.1 -0.1)">
      <defs>
       <path id="DejaVuSans-42" d="M 1259 2228 
L 1259 519 
L 2272 519 
Q 2781 519 3026 730 
Q 3272 941 3272 1375 
Q 3272 1813 3026 2020 
Q 2781 2228 2272 2228 
L 1259 2228 
z
M 1259 4147 
L 1259 2741 
L 2194 2741 
Q 2656 2741 2882 2914 
Q 3109 3088 3109 3444 
Q 3109 3797 2882 3972 
Q 2656 4147 2194 4147 
L 1259 4147 
z
M 628 4666 
L 2241 4666 
Q 2963 4666 3353 4366 
Q 3744 4066 3744 3513 
Q 3744 3084 3544 2831 
Q 3344 2578 2956 2516 
Q 3422 2416 3680 2098 
Q 3938 1781 3938 1306 
Q 3938 681 3513 340 
Q 3088 0 2303 0 
L 628 0 
L 628 4666 
z
" transform="scale(0.015625)"/>
       <path id="DejaVuSans-28" d="M 1984 4856 
Q 1566 4138 1362 3434 
Q 1159 2731 1159 2009 
Q 1159 1288 1364 580 
Q 1569 -128 1984 -844 
L 1484 -844 
Q 1016 -109 783 600 
Q 550 1309 550 2009 
Q 550 2706 781 3412 
Q 1013 4119 1484 4856 
L 1984 4856 
z
" transform="scale(0.015625)"/>
       <path id="DejaVuSans-33" d="M 2597 2516 
Q 3050 2419 3304 2112 
Q 3559 1806 3559 1356 
Q 3559 666 3084 287 
Q 2609 -91 1734 -91 
Q 1441 -91 1130 -33 
Q 819 25 488 141 
L 488 750 
Q 750 597 1062 519 
Q 1375 441 1716 441 
Q 2309 441 2620 675 
Q 2931 909 2931 1356 
Q 2931 1769 2642 2001 
Q 2353 2234 1838 2234 
L 1294 2234 
L 1294 2753 
L 1863 2753 
Q 2328 2753 2575 2939 
Q 2822 3125 2822 3475 
Q 2822 3834 2567 4026 
Q 2313 4219 1838 4219 
Q 1578 4219 1281 4162 
Q 984 4106 628 3988 
L 628 4550 
Q 988 4650 1302 4700 
Q 1616 4750 1894 4750 
Q 2613 4750 3031 4423 
Q 3450 4097 3450 3541 
Q 3450 3153 3228 2886 
Q 3006 2619 2597 2516 
z
" transform="scale(0.015625)"/>
       <path id="DejaVuSans-29" d="M 513 4856 
L 1013 4856 
Q 1481 4119 1714 3412 
Q 1947 2706 1947 2009 
Q 1947 1309 1714 600 
Q 1481 -109 1013 -844 
L 513 -844 
Q 928 -128 1133 580 
Q 1338 1288 1338 2009 
Q 1338 2731 1133 3434 
Q 928 4138 513 4856 
z
" transform="scale(0.015625)"/>
      </defs>
      <use xlink:href="#DejaVuSans-42"/>
      <use xlink:href="#DejaVuSans-69" x="68.603516"/>
      <use xlink:href="#DejaVuSans-6e" x="96.386719"/>
      <use xlink:href="#DejaVuSans-28" x="159.765625"/>
      <use xlink:href="#DejaVuSans-32" x="198.779297"/>
      <use xlink:href="#DejaVuSans-30" x="262.402344"/>
      <use xlink:href="#DejaVuSans-2c" x="326.025391"/>
      <use xlink:href="#DejaVuSans-20" x="357.8125"/>
      <use xlink:href="#DejaVuSans-30" x="389.599609"/>
      <use xlink:href="#DejaVuSans-2e" x="453.222656"/>
      <use xlink:href="#DejaVuSans-33" x="485.009766"/>
      <use xlink:href="#DejaVuSans-29" x="548.632812"/>
     </g>
    </g>
    <g id="patch_249">
     <path d="M 436.539062 53.594688 
L 456.539062 53.594688 
L 456.539062 46.594688 
L 436.539062 46.594688 
z
" style="fill: #ffa500"/>
    </g>
    <g id="text_15">
     <!-- Pois(10) -->
     <g transform="translate(464.539062 53.594688) scale(0.1 -0.1)">
      <defs>
       <path id="DejaVuSans-50" d="M 1259 4147 
L 1259 2394 
L 2053 2394 
Q 2494 2394 2734 2622 
Q 2975 2850 2975 3272 
Q 2975 3691 2734 3919 
Q 2494 4147 2053 4147 
L 1259 4147 
z
M 628 4666 
L 2053 4666 
Q 2838 4666 3239 4311 
Q 3641 3956 3641 3272 
Q 3641 2581 3239 2228 
Q 2838 1875 2053 1875 
L 1259 1875 
L 1259 0 
L 628 0 
L 628 4666 
z
" transform="scale(0.015625)"/>
       <path id="DejaVuSans-73" d="M 2834 3397 
L 2834 2853 
Q 2591 2978 2328 3040 
Q 2066 3103 1784 3103 
Q 1356 3103 1142 2972 
Q 928 2841 928 2578 
Q 928 2378 1081 2264 
Q 1234 2150 1697 2047 
L 1894 2003 
Q 2506 1872 2764 1633 
Q 3022 1394 3022 966 
Q 3022 478 2636 193 
Q 2250 -91 1575 -91 
Q 1294 -91 989 -36 
Q 684 19 347 128 
L 347 722 
Q 666 556 975 473 
Q 1284 391 1588 391 
Q 1994 391 2212 530 
Q 2431 669 2431 922 
Q 2431 1156 2273 1281 
Q 2116 1406 1581 1522 
L 1381 1569 
Q 847 1681 609 1914 
Q 372 2147 372 2553 
Q 372 3047 722 3315 
Q 1072 3584 1716 3584 
Q 2034 3584 2315 3537 
Q 2597 3491 2834 3397 
z
" transform="scale(0.015625)"/>
      </defs>
      <use xlink:href="#DejaVuSans-50"/>
      <use xlink:href="#DejaVuSans-6f" x="56.677734"/>
      <use xlink:href="#DejaVuSans-69" x="117.859375"/>
      <use xlink:href="#DejaVuSans-73" x="145.642578"/>
      <use xlink:href="#DejaVuSans-28" x="197.742188"/>
      <use xlink:href="#DejaVuSans-31" x="236.755859"/>
      <use xlink:href="#DejaVuSans-30" x="300.378906"/>
      <use xlink:href="#DejaVuSans-29" x="364.001953"/>
     </g>
    </g>
    <g id="patch_250">
     <path d="M 436.539062 68.272813 
L 456.539062 68.272813 
L 456.539062 61.272813 
L 436.539062 61.272813 
z
" style="fill: #bf00bf"/>
    </g>
    <g id="text_16">
     <!-- Geom(0.4) -->
     <g transform="translate(464.539062 68.272813) scale(0.1 -0.1)">
      <defs>
       <path id="DejaVuSans-47" d="M 3809 666 
L 3809 1919 
L 2778 1919 
L 2778 2438 
L 4434 2438 
L 4434 434 
Q 4069 175 3628 42 
Q 3188 -91 2688 -91 
Q 1594 -91 976 548 
Q 359 1188 359 2328 
Q 359 3472 976 4111 
Q 1594 4750 2688 4750 
Q 3144 4750 3555 4637 
Q 3966 4525 4313 4306 
L 4313 3634 
Q 3963 3931 3569 4081 
Q 3175 4231 2741 4231 
Q 1884 4231 1454 3753 
Q 1025 3275 1025 2328 
Q 1025 1384 1454 906 
Q 1884 428 2741 428 
Q 3075 428 3337 486 
Q 3600 544 3809 666 
z
" transform="scale(0.015625)"/>
      </defs>
      <use xlink:href="#DejaVuSans-47"/>
      <use xlink:href="#DejaVuSans-65" x="77.490234"/>
      <use xlink:href="#DejaVuSans-6f" x="139.013672"/>
      <use xlink:href="#DejaVuSans-6d" x="200.195312"/>
      <use xlink:href="#DejaVuSans-28" x="297.607422"/>
      <use xlink:href="#DejaVuSans-30" x="336.621094"/>
      <use xlink:href="#DejaVuSans-2e" x="400.244141"/>
      <use xlink:href="#DejaVuSans-34" x="432.03125"/>
      <use xlink:href="#DejaVuSans-29" x="495.654297"/>
     </g>
    </g>
   </g>
  </g>
 </g>
 <defs>
  <clipPath id="pacc3b17124">
   <rect x="30.103125" y="22.318125" width="502.2" height="277.2"/>
  </clipPath>
 </defs>
</svg>