<?xml version="1.0" encoding="utf-8" standalone="no"?>
<!DOCTYPE svg PUBLIC "-//W3C//DTD SVG 1.1//EN"
  "http://www.w3.org/Graphics/SVG/1.1/DTD/svg11.dtd">
<svg xmlns:xlink="http://www.w3.org/1999/xlink" width="391.245pt" height="297.190125pt" viewBox="0 0 391.245 297.190125" xmlns="http://www.w3.org/2000/svg" version="1.1">
 <metadata>
  <rdf:RDF xmlns:dc="http://purl.org/dc/elements/1.1/" xmlns:cc="http://creativecommons.org/ns#" xmlns:rdf="http://www.w3.org/1999/02/22-rdf-syntax-ns#">
   <cc:Work>
    <dc:type rdf:resource="http://purl.org/dc/dcmitype/StillImage"/>
    <dc:date>2024-10-08T20:49:21.340511</dc:date>
    <dc:format>image/svg+xml</dc:format>
    <dc:creator>
     <cc:Agent>
      <dc:title>Matplotlib v3.7.1, https://matplotlib.org/</dc:title>
     </cc:Agent>
    </dc:creator>
   </cc:Work>
  </rdf:RDF>
 </metadata>
 <defs>
  <style type="text/css">*{stroke-linejoin: round; stroke-linecap: butt}</style>
 </defs>
 <g id="figure_1">
  <g id="patch_1">
   <path d="M 0 297.190125 
L 391.245 297.190125 
L 391.245 0 
L 0 0 
z
" style="fill: #ffffff"/>
  </g>
  <g id="axes_1">
   <g id="patch_2">
    <path d="M 26.925 273.312 
L 384.045 273.312 
L 384.045 7.2 
L 26.925 7.2 
z
" style="fill: #ffffff"/>
   </g>
   <g id="PathCollection_1">
    <defs>
     <path id="m982d47e2be" d="M 0 1.581139 
C 0.419323 1.581139 0.821528 1.41454 1.118034 1.118034 
C 1.41454 0.821528 1.581139 0.419323 1.581139 0 
C 1.581139 -0.419323 1.41454 -0.821528 1.118034 -1.118034 
C 0.821528 -1.41454 0.419323 -1.581139 0 -1.581139 
C -0.419323 -1.581139 -0.821528 -1.41454 -1.118034 -1.118034 
C -1.41454 -0.821528 -1.581139 -0.419323 -1.581139 0 
C -1.581139 0.419323 -1.41454 0.821528 -1.118034 1.118034 
C -0.821528 1.41454 -0.419323 1.581139 0 1.581139 
z
" style="stroke: #0000ff"/>
    </defs>
    <g clip-path="url(#p3dba47f0c5)">
     <use xlink:href="#m982d47e2be" x="43.157727" y="239.711961" style="fill: #0000ff; stroke: #0000ff"/>
     <use xlink:href="#m982d47e2be" x="46.437066" y="241.063249" style="fill: #0000ff; stroke: #0000ff"/>
     <use xlink:href="#m982d47e2be" x="49.716405" y="246.265459" style="fill: #0000ff; stroke: #0000ff"/>
     <use xlink:href="#m982d47e2be" x="52.995744" y="248.369584" style="fill: #0000ff; stroke: #0000ff"/>
     <use xlink:href="#m982d47e2be" x="56.275083" y="247.692807" style="fill: #0000ff; stroke: #0000ff"/>
     <use xlink:href="#m982d47e2be" x="59.554421" y="240.309096" style="fill: #0000ff; stroke: #0000ff"/>
     <use xlink:href="#m982d47e2be" x="62.83376" y="250.006249" style="fill: #0000ff; stroke: #0000ff"/>
     <use xlink:href="#m982d47e2be" x="66.113099" y="235.388779" style="fill: #0000ff; stroke: #0000ff"/>
     <use xlink:href="#m982d47e2be" x="69.392438" y="241.318626" style="fill: #0000ff; stroke: #0000ff"/>
     <use xlink:href="#m982d47e2be" x="72.671777" y="246.009888" style="fill: #0000ff; stroke: #0000ff"/>
     <use xlink:href="#m982d47e2be" x="75.951116" y="236.585548" style="fill: #0000ff; stroke: #0000ff"/>
     <use xlink:href="#m982d47e2be" x="79.230455" y="240.712921" style="fill: #0000ff; stroke: #0000ff"/>
     <use xlink:href="#m982d47e2be" x="82.509793" y="245.962154" style="fill: #0000ff; stroke: #0000ff"/>
     <use xlink:href="#m982d47e2be" x="85.789132" y="251.391986" style="fill: #0000ff; stroke: #0000ff"/>
     <use xlink:href="#m982d47e2be" x="89.068471" y="242.025525" style="fill: #0000ff; stroke: #0000ff"/>
     <use xlink:href="#m982d47e2be" x="92.34781" y="244.344708" style="fill: #0000ff; stroke: #0000ff"/>
     <use xlink:href="#m982d47e2be" x="95.627149" y="254.060655" style="fill: #0000ff; stroke: #0000ff"/>
     <use xlink:href="#m982d47e2be" x="98.906488" y="255.609539" style="fill: #0000ff; stroke: #0000ff"/>
     <use xlink:href="#m982d47e2be" x="102.185826" y="245.750623" style="fill: #0000ff; stroke: #0000ff"/>
     <use xlink:href="#m982d47e2be" x="105.465165" y="253.283455" style="fill: #0000ff; stroke: #0000ff"/>
     <use xlink:href="#m982d47e2be" x="108.744504" y="246.804595" style="fill: #0000ff; stroke: #0000ff"/>
     <use xlink:href="#m982d47e2be" x="112.023843" y="254.815532" style="fill: #0000ff; stroke: #0000ff"/>
     <use xlink:href="#m982d47e2be" x="115.303182" y="240.73358" style="fill: #0000ff; stroke: #0000ff"/>
     <use xlink:href="#m982d47e2be" x="118.582521" y="243.539419" style="fill: #0000ff; stroke: #0000ff"/>
     <use xlink:href="#m982d47e2be" x="121.86186" y="242.708144" style="fill: #0000ff; stroke: #0000ff"/>
     <use xlink:href="#m982d47e2be" x="125.141198" y="251.524865" style="fill: #0000ff; stroke: #0000ff"/>
     <use xlink:href="#m982d47e2be" x="128.420537" y="242.847074" style="fill: #0000ff; stroke: #0000ff"/>
     <use xlink:href="#m982d47e2be" x="131.699876" y="237.92843" style="fill: #0000ff; stroke: #0000ff"/>
     <use xlink:href="#m982d47e2be" x="134.979215" y="238.0619" style="fill: #0000ff; stroke: #0000ff"/>
     <use xlink:href="#m982d47e2be" x="138.258554" y="247.884359" style="fill: #0000ff; stroke: #0000ff"/>
     <use xlink:href="#m982d47e2be" x="141.537893" y="251.852174" style="fill: #0000ff; stroke: #0000ff"/>
     <use xlink:href="#m982d47e2be" x="144.817231" y="247.312045" style="fill: #0000ff; stroke: #0000ff"/>
     <use xlink:href="#m982d47e2be" x="148.09657" y="246.258362" style="fill: #0000ff; stroke: #0000ff"/>
     <use xlink:href="#m982d47e2be" x="151.375909" y="244.559296" style="fill: #0000ff; stroke: #0000ff"/>
     <use xlink:href="#m982d47e2be" x="154.655248" y="259.550564" style="fill: #0000ff; stroke: #0000ff"/>
     <use xlink:href="#m982d47e2be" x="157.934587" y="234.950912" style="fill: #0000ff; stroke: #0000ff"/>
     <use xlink:href="#m982d47e2be" x="161.213926" y="249.399846" style="fill: #0000ff; stroke: #0000ff"/>
     <use xlink:href="#m982d47e2be" x="164.493264" y="243.370318" style="fill: #0000ff; stroke: #0000ff"/>
     <use xlink:href="#m982d47e2be" x="167.772603" y="250.765751" style="fill: #0000ff; stroke: #0000ff"/>
     <use xlink:href="#m982d47e2be" x="171.051942" y="241.720877" style="fill: #0000ff; stroke: #0000ff"/>
     <use xlink:href="#m982d47e2be" x="174.331281" y="253.38078" style="fill: #0000ff; stroke: #0000ff"/>
     <use xlink:href="#m982d47e2be" x="177.61062" y="247.572883" style="fill: #0000ff; stroke: #0000ff"/>
     <use xlink:href="#m982d47e2be" x="180.889959" y="246.765396" style="fill: #0000ff; stroke: #0000ff"/>
     <use xlink:href="#m982d47e2be" x="184.169298" y="244.881735" style="fill: #0000ff; stroke: #0000ff"/>
     <use xlink:href="#m982d47e2be" x="187.448636" y="243.064799" style="fill: #0000ff; stroke: #0000ff"/>
     <use xlink:href="#m982d47e2be" x="190.727975" y="245.956433" style="fill: #0000ff; stroke: #0000ff"/>
     <use xlink:href="#m982d47e2be" x="194.007314" y="245.914963" style="fill: #0000ff; stroke: #0000ff"/>
     <use xlink:href="#m982d47e2be" x="197.286653" y="242.635091" style="fill: #0000ff; stroke: #0000ff"/>
     <use xlink:href="#m982d47e2be" x="200.565992" y="248.141759" style="fill: #0000ff; stroke: #0000ff"/>
     <use xlink:href="#m982d47e2be" x="203.845331" y="245.272722" style="fill: #0000ff; stroke: #0000ff"/>
     <use xlink:href="#m982d47e2be" x="207.124669" y="252.886582" style="fill: #0000ff; stroke: #0000ff"/>
     <use xlink:href="#m982d47e2be" x="210.404008" y="245.592477" style="fill: #0000ff; stroke: #0000ff"/>
     <use xlink:href="#m982d47e2be" x="213.683347" y="251.662608" style="fill: #0000ff; stroke: #0000ff"/>
     <use xlink:href="#m982d47e2be" x="216.962686" y="243.36205" style="fill: #0000ff; stroke: #0000ff"/>
     <use xlink:href="#m982d47e2be" x="220.242025" y="253.630391" style="fill: #0000ff; stroke: #0000ff"/>
     <use xlink:href="#m982d47e2be" x="223.521364" y="251.795455" style="fill: #0000ff; stroke: #0000ff"/>
     <use xlink:href="#m982d47e2be" x="226.800702" y="246.014349" style="fill: #0000ff; stroke: #0000ff"/>
     <use xlink:href="#m982d47e2be" x="230.080041" y="248.30496" style="fill: #0000ff; stroke: #0000ff"/>
     <use xlink:href="#m982d47e2be" x="233.35938" y="245.615024" style="fill: #0000ff; stroke: #0000ff"/>
     <use xlink:href="#m982d47e2be" x="236.638719" y="251.478103" style="fill: #0000ff; stroke: #0000ff"/>
     <use xlink:href="#m982d47e2be" x="239.918058" y="240.649028" style="fill: #0000ff; stroke: #0000ff"/>
     <use xlink:href="#m982d47e2be" x="243.197397" y="248.83966" style="fill: #0000ff; stroke: #0000ff"/>
     <use xlink:href="#m982d47e2be" x="246.476736" y="257.423888" style="fill: #0000ff; stroke: #0000ff"/>
     <use xlink:href="#m982d47e2be" x="249.756074" y="261.216" style="fill: #0000ff; stroke: #0000ff"/>
     <use xlink:href="#m982d47e2be" x="253.035413" y="249.841662" style="fill: #0000ff; stroke: #0000ff"/>
     <use xlink:href="#m982d47e2be" x="256.314752" y="244.450865" style="fill: #0000ff; stroke: #0000ff"/>
     <use xlink:href="#m982d47e2be" x="259.594091" y="251.619712" style="fill: #0000ff; stroke: #0000ff"/>
     <use xlink:href="#m982d47e2be" x="262.87343" y="251.445665" style="fill: #0000ff; stroke: #0000ff"/>
     <use xlink:href="#m982d47e2be" x="266.152769" y="253.217487" style="fill: #0000ff; stroke: #0000ff"/>
     <use xlink:href="#m982d47e2be" x="269.432107" y="245.684357" style="fill: #0000ff; stroke: #0000ff"/>
     <use xlink:href="#m982d47e2be" x="272.711446" y="257.046337" style="fill: #0000ff; stroke: #0000ff"/>
     <use xlink:href="#m982d47e2be" x="275.990785" y="254.187654" style="fill: #0000ff; stroke: #0000ff"/>
     <use xlink:href="#m982d47e2be" x="279.270124" y="246.688828" style="fill: #0000ff; stroke: #0000ff"/>
     <use xlink:href="#m982d47e2be" x="282.549463" y="245.404492" style="fill: #0000ff; stroke: #0000ff"/>
     <use xlink:href="#m982d47e2be" x="285.828802" y="250.662712" style="fill: #0000ff; stroke: #0000ff"/>
     <use xlink:href="#m982d47e2be" x="289.10814" y="245.877984" style="fill: #0000ff; stroke: #0000ff"/>
     <use xlink:href="#m982d47e2be" x="292.387479" y="237.605409" style="fill: #0000ff; stroke: #0000ff"/>
     <use xlink:href="#m982d47e2be" x="295.666818" y="247.015353" style="fill: #0000ff; stroke: #0000ff"/>
     <use xlink:href="#m982d47e2be" x="298.946157" y="251.458452" style="fill: #0000ff; stroke: #0000ff"/>
     <use xlink:href="#m982d47e2be" x="302.225496" y="246.146631" style="fill: #0000ff; stroke: #0000ff"/>
     <use xlink:href="#m982d47e2be" x="305.504835" y="260.549957" style="fill: #0000ff; stroke: #0000ff"/>
     <use xlink:href="#m982d47e2be" x="308.784174" y="251.810334" style="fill: #0000ff; stroke: #0000ff"/>
     <use xlink:href="#m982d47e2be" x="312.063512" y="248.604081" style="fill: #0000ff; stroke: #0000ff"/>
     <use xlink:href="#m982d47e2be" x="315.342851" y="242.615897" style="fill: #0000ff; stroke: #0000ff"/>
     <use xlink:href="#m982d47e2be" x="318.62219" y="258.743122" style="fill: #0000ff; stroke: #0000ff"/>
     <use xlink:href="#m982d47e2be" x="321.901529" y="243.505199" style="fill: #0000ff; stroke: #0000ff"/>
     <use xlink:href="#m982d47e2be" x="325.180868" y="253.321884" style="fill: #0000ff; stroke: #0000ff"/>
     <use xlink:href="#m982d47e2be" x="328.460207" y="257.508911" style="fill: #0000ff; stroke: #0000ff"/>
     <use xlink:href="#m982d47e2be" x="331.739545" y="19.296" style="fill: #0000ff; stroke: #0000ff"/>
     <use xlink:href="#m982d47e2be" x="335.018884" y="248.172965" style="fill: #0000ff; stroke: #0000ff"/>
     <use xlink:href="#m982d47e2be" x="338.298223" y="250.134841" style="fill: #0000ff; stroke: #0000ff"/>
     <use xlink:href="#m982d47e2be" x="341.577562" y="242.488671" style="fill: #0000ff; stroke: #0000ff"/>
     <use xlink:href="#m982d47e2be" x="344.856901" y="243.688697" style="fill: #0000ff; stroke: #0000ff"/>
     <use xlink:href="#m982d47e2be" x="348.13624" y="251.838111" style="fill: #0000ff; stroke: #0000ff"/>
     <use xlink:href="#m982d47e2be" x="351.415579" y="244.741874" style="fill: #0000ff; stroke: #0000ff"/>
     <use xlink:href="#m982d47e2be" x="354.694917" y="254.870557" style="fill: #0000ff; stroke: #0000ff"/>
     <use xlink:href="#m982d47e2be" x="357.974256" y="255.997784" style="fill: #0000ff; stroke: #0000ff"/>
     <use xlink:href="#m982d47e2be" x="361.253595" y="255.094982" style="fill: #0000ff; stroke: #0000ff"/>
     <use xlink:href="#m982d47e2be" x="364.532934" y="252.174738" style="fill: #0000ff; stroke: #0000ff"/>
     <use xlink:href="#m982d47e2be" x="367.812273" y="245.419745" style="fill: #0000ff; stroke: #0000ff"/>
    </g>
   </g>
   <g id="matplotlib.axis_1">
    <g id="xtick_1">
     <g id="line2d_1">
      <path d="M 43.157727 273.312 
L 43.157727 7.2 
" clip-path="url(#p3dba47f0c5)" style="fill: none; stroke-dasharray: 0.8,1.32; stroke-dashoffset: 0; stroke: #b0b0b0; stroke-width: 0.8"/>
     </g>
     <g id="line2d_2">
      <defs>
       <path id="m57f440a4d4" d="M 0 0 
L 0 3.5 
" style="stroke: #000000; stroke-width: 0.8"/>
      </defs>
      <g>
       <use xlink:href="#m57f440a4d4" x="43.157727" y="273.312" style="stroke: #000000; stroke-width: 0.8"/>
      </g>
     </g>
     <g id="text_1">
      <!-- 0.0 -->
      <g transform="translate(35.206165 287.910437) scale(0.1 -0.1)">
       <defs>
        <path id="DejaVuSans-30" d="M 2034 4250 
Q 1547 4250 1301 3770 
Q 1056 3291 1056 2328 
Q 1056 1369 1301 889 
Q 1547 409 2034 409 
Q 2525 409 2770 889 
Q 3016 1369 3016 2328 
Q 3016 3291 2770 3770 
Q 2525 4250 2034 4250 
z
M 2034 4750 
Q 2819 4750 3233 4129 
Q 3647 3509 3647 2328 
Q 3647 1150 3233 529 
Q 2819 -91 2034 -91 
Q 1250 -91 836 529 
Q 422 1150 422 2328 
Q 422 3509 836 4129 
Q 1250 4750 2034 4750 
z
" transform="scale(0.015625)"/>
        <path id="DejaVuSans-2e" d="M 684 794 
L 1344 794 
L 1344 0 
L 684 0 
L 684 794 
z
" transform="scale(0.015625)"/>
       </defs>
       <use xlink:href="#DejaVuSans-30"/>
       <use xlink:href="#DejaVuSans-2e" x="63.623047"/>
       <use xlink:href="#DejaVuSans-30" x="95.410156"/>
      </g>
     </g>
    </g>
    <g id="xtick_2">
     <g id="line2d_3">
      <path d="M 108.744504 273.312 
L 108.744504 7.2 
" clip-path="url(#p3dba47f0c5)" style="fill: none; stroke-dasharray: 0.8,1.32; stroke-dashoffset: 0; stroke: #b0b0b0; stroke-width: 0.8"/>
     </g>
     <g id="line2d_4">
      <g>
       <use xlink:href="#m57f440a4d4" x="108.744504" y="273.312" style="stroke: #000000; stroke-width: 0.8"/>
      </g>
     </g>
     <g id="text_2">
      <!-- 0.2 -->
      <g transform="translate(100.792942 287.910437) scale(0.1 -0.1)">
       <defs>
        <path id="DejaVuSans-32" d="M 1228 531 
L 3431 531 
L 3431 0 
L 469 0 
L 469 531 
Q 828 903 1448 1529 
Q 2069 2156 2228 2338 
Q 2531 2678 2651 2914 
Q 2772 3150 2772 3378 
Q 2772 3750 2511 3984 
Q 2250 4219 1831 4219 
Q 1534 4219 1204 4116 
Q 875 4013 500 3803 
L 500 4441 
Q 881 4594 1212 4672 
Q 1544 4750 1819 4750 
Q 2544 4750 2975 4387 
Q 3406 4025 3406 3419 
Q 3406 3131 3298 2873 
Q 3191 2616 2906 2266 
Q 2828 2175 2409 1742 
Q 1991 1309 1228 531 
z
" transform="scale(0.015625)"/>
       </defs>
       <use xlink:href="#DejaVuSans-30"/>
       <use xlink:href="#DejaVuSans-2e" x="63.623047"/>
       <use xlink:href="#DejaVuSans-32" x="95.410156"/>
      </g>
     </g>
    </g>
    <g id="xtick_3">
     <g id="line2d_5">
      <path d="M 174.331281 273.312 
L 174.331281 7.2 
" clip-path="url(#p3dba47f0c5)" style="fill: none; stroke-dasharray: 0.8,1.32; stroke-dashoffset: 0; stroke: #b0b0b0; stroke-width: 0.8"/>
     </g>
     <g id="line2d_6">
      <g>
       <use xlink:href="#m57f440a4d4" x="174.331281" y="273.312" style="stroke: #000000; stroke-width: 0.8"/>
      </g>
     </g>
     <g id="text_3">
      <!-- 0.4 -->
      <g transform="translate(166.379718 287.910437) scale(0.1 -0.1)">
       <defs>
        <path id="DejaVuSans-34" d="M 2419 4116 
L 825 1625 
L 2419 1625 
L 2419 4116 
z
M 2253 4666 
L 3047 4666 
L 3047 1625 
L 3713 1625 
L 3713 1100 
L 3047 1100 
L 3047 0 
L 2419 0 
L 2419 1100 
L 313 1100 
L 313 1709 
L 2253 4666 
z
" transform="scale(0.015625)"/>
       </defs>
       <use xlink:href="#DejaVuSans-30"/>
       <use xlink:href="#DejaVuSans-2e" x="63.623047"/>
       <use xlink:href="#DejaVuSans-34" x="95.410156"/>
      </g>
     </g>
    </g>
    <g id="xtick_4">
     <g id="line2d_7">
      <path d="M 239.918058 273.312 
L 239.918058 7.2 
" clip-path="url(#p3dba47f0c5)" style="fill: none; stroke-dasharray: 0.8,1.32; stroke-dashoffset: 0; stroke: #b0b0b0; stroke-width: 0.8"/>
     </g>
     <g id="line2d_8">
      <g>
       <use xlink:href="#m57f440a4d4" x="239.918058" y="273.312" style="stroke: #000000; stroke-width: 0.8"/>
      </g>
     </g>
     <g id="text_4">
      <!-- 0.6 -->
      <g transform="translate(231.966495 287.910437) scale(0.1 -0.1)">
       <defs>
        <path id="DejaVuSans-36" d="M 2113 2584 
Q 1688 2584 1439 2293 
Q 1191 2003 1191 1497 
Q 1191 994 1439 701 
Q 1688 409 2113 409 
Q 2538 409 2786 701 
Q 3034 994 3034 1497 
Q 3034 2003 2786 2293 
Q 2538 2584 2113 2584 
z
M 3366 4563 
L 3366 3988 
Q 3128 4100 2886 4159 
Q 2644 4219 2406 4219 
Q 1781 4219 1451 3797 
Q 1122 3375 1075 2522 
Q 1259 2794 1537 2939 
Q 1816 3084 2150 3084 
Q 2853 3084 3261 2657 
Q 3669 2231 3669 1497 
Q 3669 778 3244 343 
Q 2819 -91 2113 -91 
Q 1303 -91 875 529 
Q 447 1150 447 2328 
Q 447 3434 972 4092 
Q 1497 4750 2381 4750 
Q 2619 4750 2861 4703 
Q 3103 4656 3366 4563 
z
" transform="scale(0.015625)"/>
       </defs>
       <use xlink:href="#DejaVuSans-30"/>
       <use xlink:href="#DejaVuSans-2e" x="63.623047"/>
       <use xlink:href="#DejaVuSans-36" x="95.410156"/>
      </g>
     </g>
    </g>
    <g id="xtick_5">
     <g id="line2d_9">
      <path d="M 305.504835 273.312 
L 305.504835 7.2 
" clip-path="url(#p3dba47f0c5)" style="fill: none; stroke-dasharray: 0.8,1.32; stroke-dashoffset: 0; stroke: #b0b0b0; stroke-width: 0.8"/>
     </g>
     <g id="line2d_10">
      <g>
       <use xlink:href="#m57f440a4d4" x="305.504835" y="273.312" style="stroke: #000000; stroke-width: 0.8"/>
      </g>
     </g>
     <g id="text_5">
      <!-- 0.8 -->
      <g transform="translate(297.553272 287.910437) scale(0.1 -0.1)">
       <defs>
        <path id="DejaVuSans-38" d="M 2034 2216 
Q 1584 2216 1326 1975 
Q 1069 1734 1069 1313 
Q 1069 891 1326 650 
Q 1584 409 2034 409 
Q 2484 409 2743 651 
Q 3003 894 3003 1313 
Q 3003 1734 2745 1975 
Q 2488 2216 2034 2216 
z
M 1403 2484 
Q 997 2584 770 2862 
Q 544 3141 544 3541 
Q 544 4100 942 4425 
Q 1341 4750 2034 4750 
Q 2731 4750 3128 4425 
Q 3525 4100 3525 3541 
Q 3525 3141 3298 2862 
Q 3072 2584 2669 2484 
Q 3125 2378 3379 2068 
Q 3634 1759 3634 1313 
Q 3634 634 3220 271 
Q 2806 -91 2034 -91 
Q 1263 -91 848 271 
Q 434 634 434 1313 
Q 434 1759 690 2068 
Q 947 2378 1403 2484 
z
M 1172 3481 
Q 1172 3119 1398 2916 
Q 1625 2713 2034 2713 
Q 2441 2713 2670 2916 
Q 2900 3119 2900 3481 
Q 2900 3844 2670 4047 
Q 2441 4250 2034 4250 
Q 1625 4250 1398 4047 
Q 1172 3844 1172 3481 
z
" transform="scale(0.015625)"/>
       </defs>
       <use xlink:href="#DejaVuSans-30"/>
       <use xlink:href="#DejaVuSans-2e" x="63.623047"/>
       <use xlink:href="#DejaVuSans-38" x="95.410156"/>
      </g>
     </g>
    </g>
    <g id="xtick_6">
     <g id="line2d_11">
      <path d="M 371.091612 273.312 
L 371.091612 7.2 
" clip-path="url(#p3dba47f0c5)" style="fill: none; stroke-dasharray: 0.8,1.32; stroke-dashoffset: 0; stroke: #b0b0b0; stroke-width: 0.8"/>
     </g>
     <g id="line2d_12">
      <g>
       <use xlink:href="#m57f440a4d4" x="371.091612" y="273.312" style="stroke: #000000; stroke-width: 0.8"/>
      </g>
     </g>
     <g id="text_6">
      <!-- 1.0 -->
      <g transform="translate(363.140049 287.910437) scale(0.1 -0.1)">
       <defs>
        <path id="DejaVuSans-31" d="M 794 531 
L 1825 531 
L 1825 4091 
L 703 3866 
L 703 4441 
L 1819 4666 
L 2450 4666 
L 2450 531 
L 3481 531 
L 3481 0 
L 794 0 
L 794 531 
z
" transform="scale(0.015625)"/>
       </defs>
       <use xlink:href="#DejaVuSans-31"/>
       <use xlink:href="#DejaVuSans-2e" x="63.623047"/>
       <use xlink:href="#DejaVuSans-30" x="95.410156"/>
      </g>
     </g>
    </g>
   </g>
   <g id="matplotlib.axis_2">
    <g id="ytick_1">
     <g id="line2d_13">
      <path d="M 26.925 264.812816 
L 384.045 264.812816 
" clip-path="url(#p3dba47f0c5)" style="fill: none; stroke-dasharray: 0.8,1.32; stroke-dashoffset: 0; stroke: #b0b0b0; stroke-width: 0.8"/>
     </g>
     <g id="line2d_14">
      <defs>
       <path id="meb40205b48" d="M 0 0 
L -3.5 0 
" style="stroke: #000000; stroke-width: 0.8"/>
      </defs>
      <g>
       <use xlink:href="#meb40205b48" x="26.925" y="264.812816" style="stroke: #000000; stroke-width: 0.8"/>
      </g>
     </g>
     <g id="text_7">
      <!-- 0 -->
      <g transform="translate(13.5625 268.612035) scale(0.1 -0.1)">
       <use xlink:href="#DejaVuSans-30"/>
      </g>
     </g>
    </g>
    <g id="ytick_2">
     <g id="line2d_15">
      <path d="M 26.925 208.26684 
L 384.045 208.26684 
" clip-path="url(#p3dba47f0c5)" style="fill: none; stroke-dasharray: 0.8,1.32; stroke-dashoffset: 0; stroke: #b0b0b0; stroke-width: 0.8"/>
     </g>
     <g id="line2d_16">
      <g>
       <use xlink:href="#meb40205b48" x="26.925" y="208.26684" style="stroke: #000000; stroke-width: 0.8"/>
      </g>
     </g>
     <g id="text_8">
      <!-- 5 -->
      <g transform="translate(13.5625 212.066059) scale(0.1 -0.1)">
       <defs>
        <path id="DejaVuSans-35" d="M 691 4666 
L 3169 4666 
L 3169 4134 
L 1269 4134 
L 1269 2991 
Q 1406 3038 1543 3061 
Q 1681 3084 1819 3084 
Q 2600 3084 3056 2656 
Q 3513 2228 3513 1497 
Q 3513 744 3044 326 
Q 2575 -91 1722 -91 
Q 1428 -91 1123 -41 
Q 819 9 494 109 
L 494 744 
Q 775 591 1075 516 
Q 1375 441 1709 441 
Q 2250 441 2565 725 
Q 2881 1009 2881 1497 
Q 2881 1984 2565 2268 
Q 2250 2553 1709 2553 
Q 1456 2553 1204 2497 
Q 953 2441 691 2322 
L 691 4666 
z
" transform="scale(0.015625)"/>
       </defs>
       <use xlink:href="#DejaVuSans-35"/>
      </g>
     </g>
    </g>
    <g id="ytick_3">
     <g id="line2d_17">
      <path d="M 26.925 151.720865 
L 384.045 151.720865 
" clip-path="url(#p3dba47f0c5)" style="fill: none; stroke-dasharray: 0.8,1.32; stroke-dashoffset: 0; stroke: #b0b0b0; stroke-width: 0.8"/>
     </g>
     <g id="line2d_18">
      <g>
       <use xlink:href="#meb40205b48" x="26.925" y="151.720865" style="stroke: #000000; stroke-width: 0.8"/>
      </g>
     </g>
     <g id="text_9">
      <!-- 10 -->
      <g transform="translate(7.2 155.520084) scale(0.1 -0.1)">
       <use xlink:href="#DejaVuSans-31"/>
       <use xlink:href="#DejaVuSans-30" x="63.623047"/>
      </g>
     </g>
    </g>
    <g id="ytick_4">
     <g id="line2d_19">
      <path d="M 26.925 95.17489 
L 384.045 95.17489 
" clip-path="url(#p3dba47f0c5)" style="fill: none; stroke-dasharray: 0.8,1.32; stroke-dashoffset: 0; stroke: #b0b0b0; stroke-width: 0.8"/>
     </g>
     <g id="line2d_20">
      <g>
       <use xlink:href="#meb40205b48" x="26.925" y="95.17489" style="stroke: #000000; stroke-width: 0.8"/>
      </g>
     </g>
     <g id="text_10">
      <!-- 15 -->
      <g transform="translate(7.2 98.974109) scale(0.1 -0.1)">
       <use xlink:href="#DejaVuSans-31"/>
       <use xlink:href="#DejaVuSans-35" x="63.623047"/>
      </g>
     </g>
    </g>
    <g id="ytick_5">
     <g id="line2d_21">
      <path d="M 26.925 38.628915 
L 384.045 38.628915 
" clip-path="url(#p3dba47f0c5)" style="fill: none; stroke-dasharray: 0.8,1.32; stroke-dashoffset: 0; stroke: #b0b0b0; stroke-width: 0.8"/>
     </g>
     <g id="line2d_22">
      <g>
       <use xlink:href="#meb40205b48" x="26.925" y="38.628915" style="stroke: #000000; stroke-width: 0.8"/>
      </g>
     </g>
     <g id="text_11">
      <!-- 20 -->
      <g transform="translate(7.2 42.428133) scale(0.1 -0.1)">
       <use xlink:href="#DejaVuSans-32"/>
       <use xlink:href="#DejaVuSans-30" x="63.623047"/>
      </g>
     </g>
    </g>
   </g>
   <g id="line2d_23">
    <path d="M 43.157727 245.587184 
L 46.437066 245.64373 
L 49.716405 245.700276 
L 52.995744 245.756822 
L 56.275083 245.813368 
L 59.554421 245.869914 
L 62.83376 245.92646 
L 66.113099 245.983006 
L 69.392438 246.039552 
L 72.671777 246.096098 
L 75.951116 246.152644 
L 79.230455 246.20919 
L 82.509793 246.265736 
L 85.789132 246.322282 
L 89.068471 246.378828 
L 92.34781 246.435374 
L 95.627149 246.49192 
L 98.906488 246.548466 
L 102.185826 246.605012 
L 105.465165 246.661558 
L 108.744504 246.718104 
L 112.023843 246.77465 
L 115.303182 246.831196 
L 118.582521 246.887742 
L 121.86186 246.944288 
L 125.141198 247.000834 
L 128.420537 247.05738 
L 131.699876 247.113926 
L 134.979215 247.170472 
L 138.258554 247.227017 
L 141.537893 247.283563 
L 144.817231 247.340109 
L 148.09657 247.396655 
L 151.375909 247.453201 
L 154.655248 247.509747 
L 157.934587 247.566293 
L 161.213926 247.622839 
L 164.493264 247.679385 
L 167.772603 247.735931 
L 171.051942 247.792477 
L 174.331281 247.849023 
L 177.61062 247.905569 
L 180.889959 247.962115 
L 184.169298 248.018661 
L 187.448636 248.075207 
L 190.727975 248.131753 
L 194.007314 248.188299 
L 197.286653 248.244845 
L 200.565992 248.301391 
L 203.845331 248.357937 
L 207.124669 248.414483 
L 210.404008 248.471029 
L 213.683347 248.527575 
L 216.962686 248.584121 
L 220.242025 248.640667 
L 223.521364 248.697213 
L 226.800702 248.753759 
L 230.080041 248.810305 
L 233.35938 248.866851 
L 236.638719 248.923397 
L 239.918058 248.979943 
L 243.197397 249.036489 
L 246.476736 249.093035 
L 249.756074 249.149581 
L 253.035413 249.206127 
L 256.314752 249.262673 
L 259.594091 249.319219 
L 262.87343 249.375765 
L 266.152769 249.432311 
L 269.432107 249.488856 
L 272.711446 249.545402 
L 275.990785 249.601948 
L 279.270124 249.658494 
L 282.549463 249.71504 
L 285.828802 249.771586 
L 289.10814 249.828132 
L 292.387479 249.884678 
L 295.666818 249.941224 
L 298.946157 249.99777 
L 302.225496 250.054316 
L 305.504835 250.110862 
L 308.784174 250.167408 
L 312.063512 250.223954 
L 315.342851 250.2805 
L 318.62219 250.337046 
L 321.901529 250.393592 
L 325.180868 250.450138 
L 328.460207 250.506684 
L 331.739545 250.56323 
L 335.018884 250.619776 
L 338.298223 250.676322 
L 341.577562 250.732868 
L 344.856901 250.789414 
L 348.13624 250.84596 
L 351.415579 250.902506 
L 354.694917 250.959052 
L 357.974256 251.015598 
L 361.253595 251.072144 
L 364.532934 251.12869 
L 367.812273 251.185236 
" clip-path="url(#p3dba47f0c5)" style="fill: none; stroke: #ff0000; stroke-width: 2; stroke-linecap: square"/>
   </g>
   <g id="patch_3">
    <path d="M 26.925 273.312 
L 26.925 7.2 
" style="fill: none; stroke: #000000; stroke-width: 0.8; stroke-linejoin: miter; stroke-linecap: square"/>
   </g>
   <g id="patch_4">
    <path d="M 384.045 273.312 
L 384.045 7.2 
" style="fill: none; stroke: #000000; stroke-width: 0.8; stroke-linejoin: miter; stroke-linecap: square"/>
   </g>
   <g id="patch_5">
    <path d="M 26.925 273.312 
L 384.045 273.312 
" style="fill: none; stroke: #000000; stroke-width: 0.8; stroke-linejoin: miter; stroke-linecap: square"/>
   </g>
   <g id="patch_6">
    <path d="M 26.925 7.2 
L 384.045 7.2 
" style="fill: none; stroke: #000000; stroke-width: 0.8; stroke-linejoin: miter; stroke-linecap: square"/>
   </g>
   <g id="legend_1">
    <g id="patch_7">
     <path d="M 33.925 44.55625 
L 130.50625 44.55625 
Q 132.50625 44.55625 132.50625 42.55625 
L 132.50625 14.2 
Q 132.50625 12.2 130.50625 12.2 
L 33.925 12.2 
Q 31.925 12.2 31.925 14.2 
L 31.925 42.55625 
Q 31.925 44.55625 33.925 44.55625 
z
" style="fill: #ffffff; opacity: 0.8; stroke: #cccccc; stroke-linejoin: miter"/>
    </g>
    <g id="line2d_24">
     <path d="M 35.925 20.298437 
L 45.925 20.298437 
L 55.925 20.298437 
" style="fill: none; stroke: #ff0000; stroke-width: 2; stroke-linecap: square"/>
    </g>
    <g id="text_12">
     <!-- Ground truth -->
     <g transform="translate(63.925 23.798437) scale(0.1 -0.1)">
      <defs>
       <path id="DejaVuSans-47" d="M 3809 666 
L 3809 1919 
L 2778 1919 
L 2778 2438 
L 4434 2438 
L 4434 434 
Q 4069 175 3628 42 
Q 3188 -91 2688 -91 
Q 1594 -91 976 548 
Q 359 1188 359 2328 
Q 359 3472 976 4111 
Q 1594 4750 2688 4750 
Q 3144 4750 3555 4637 
Q 3966 4525 4313 4306 
L 4313 3634 
Q 3963 3931 3569 4081 
Q 3175 4231 2741 4231 
Q 1884 4231 1454 3753 
Q 1025 3275 1025 2328 
Q 1025 1384 1454 906 
Q 1884 428 2741 428 
Q 3075 428 3337 486 
Q 3600 544 3809 666 
z
" transform="scale(0.015625)"/>
       <path id="DejaVuSans-72" d="M 2631 2963 
Q 2534 3019 2420 3045 
Q 2306 3072 2169 3072 
Q 1681 3072 1420 2755 
Q 1159 2438 1159 1844 
L 1159 0 
L 581 0 
L 581 3500 
L 1159 3500 
L 1159 2956 
Q 1341 3275 1631 3429 
Q 1922 3584 2338 3584 
Q 2397 3584 2469 3576 
Q 2541 3569 2628 3553 
L 2631 2963 
z
" transform="scale(0.015625)"/>
       <path id="DejaVuSans-6f" d="M 1959 3097 
Q 1497 3097 1228 2736 
Q 959 2375 959 1747 
Q 959 1119 1226 758 
Q 1494 397 1959 397 
Q 2419 397 2687 759 
Q 2956 1122 2956 1747 
Q 2956 2369 2687 2733 
Q 2419 3097 1959 3097 
z
M 1959 3584 
Q 2709 3584 3137 3096 
Q 3566 2609 3566 1747 
Q 3566 888 3137 398 
Q 2709 -91 1959 -91 
Q 1206 -91 779 398 
Q 353 888 353 1747 
Q 353 2609 779 3096 
Q 1206 3584 1959 3584 
z
" transform="scale(0.015625)"/>
       <path id="DejaVuSans-75" d="M 544 1381 
L 544 3500 
L 1119 3500 
L 1119 1403 
Q 1119 906 1312 657 
Q 1506 409 1894 409 
Q 2359 409 2629 706 
Q 2900 1003 2900 1516 
L 2900 3500 
L 3475 3500 
L 3475 0 
L 2900 0 
L 2900 538 
Q 2691 219 2414 64 
Q 2138 -91 1772 -91 
Q 1169 -91 856 284 
Q 544 659 544 1381 
z
M 1991 3584 
L 1991 3584 
z
" transform="scale(0.015625)"/>
       <path id="DejaVuSans-6e" d="M 3513 2113 
L 3513 0 
L 2938 0 
L 2938 2094 
Q 2938 2591 2744 2837 
Q 2550 3084 2163 3084 
Q 1697 3084 1428 2787 
Q 1159 2491 1159 1978 
L 1159 0 
L 581 0 
L 581 3500 
L 1159 3500 
L 1159 2956 
Q 1366 3272 1645 3428 
Q 1925 3584 2291 3584 
Q 2894 3584 3203 3211 
Q 3513 2838 3513 2113 
z
" transform="scale(0.015625)"/>
       <path id="DejaVuSans-64" d="M 2906 2969 
L 2906 4863 
L 3481 4863 
L 3481 0 
L 2906 0 
L 2906 525 
Q 2725 213 2448 61 
Q 2172 -91 1784 -91 
Q 1150 -91 751 415 
Q 353 922 353 1747 
Q 353 2572 751 3078 
Q 1150 3584 1784 3584 
Q 2172 3584 2448 3432 
Q 2725 3281 2906 2969 
z
M 947 1747 
Q 947 1113 1208 752 
Q 1469 391 1925 391 
Q 2381 391 2643 752 
Q 2906 1113 2906 1747 
Q 2906 2381 2643 2742 
Q 2381 3103 1925 3103 
Q 1469 3103 1208 2742 
Q 947 2381 947 1747 
z
" transform="scale(0.015625)"/>
       <path id="DejaVuSans-20" transform="scale(0.015625)"/>
       <path id="DejaVuSans-74" d="M 1172 4494 
L 1172 3500 
L 2356 3500 
L 2356 3053 
L 1172 3053 
L 1172 1153 
Q 1172 725 1289 603 
Q 1406 481 1766 481 
L 2356 481 
L 2356 0 
L 1766 0 
Q 1100 0 847 248 
Q 594 497 594 1153 
L 594 3053 
L 172 3053 
L 172 3500 
L 594 3500 
L 594 4494 
L 1172 4494 
z
" transform="scale(0.015625)"/>
       <path id="DejaVuSans-68" d="M 3513 2113 
L 3513 0 
L 2938 0 
L 2938 2094 
Q 2938 2591 2744 2837 
Q 2550 3084 2163 3084 
Q 1697 3084 1428 2787 
Q 1159 2491 1159 1978 
L 1159 0 
L 581 0 
L 581 4863 
L 1159 4863 
L 1159 2956 
Q 1366 3272 1645 3428 
Q 1925 3584 2291 3584 
Q 2894 3584 3203 3211 
Q 3513 2838 3513 2113 
z
" transform="scale(0.015625)"/>
      </defs>
      <use xlink:href="#DejaVuSans-47"/>
      <use xlink:href="#DejaVuSans-72" x="77.490234"/>
      <use xlink:href="#DejaVuSans-6f" x="116.353516"/>
      <use xlink:href="#DejaVuSans-75" x="177.535156"/>
      <use xlink:href="#DejaVuSans-6e" x="240.914062"/>
      <use xlink:href="#DejaVuSans-64" x="304.292969"/>
      <use xlink:href="#DejaVuSans-20" x="367.769531"/>
      <use xlink:href="#DejaVuSans-74" x="399.556641"/>
      <use xlink:href="#DejaVuSans-72" x="438.765625"/>
      <use xlink:href="#DejaVuSans-75" x="479.878906"/>
      <use xlink:href="#DejaVuSans-74" x="543.257812"/>
      <use xlink:href="#DejaVuSans-68" x="582.466797"/>
     </g>
    </g>
    <g id="PathCollection_2">
     <g>
      <use xlink:href="#m982d47e2be" x="45.925" y="35.851562" style="fill: #0000ff; stroke: #0000ff"/>
     </g>
    </g>
    <g id="text_13">
     <!-- Data -->
     <g transform="translate(63.925 38.476562) scale(0.1 -0.1)">
      <defs>
       <path id="DejaVuSans-44" d="M 1259 4147 
L 1259 519 
L 2022 519 
Q 2988 519 3436 956 
Q 3884 1394 3884 2338 
Q 3884 3275 3436 3711 
Q 2988 4147 2022 4147 
L 1259 4147 
z
M 628 4666 
L 1925 4666 
Q 3281 4666 3915 4102 
Q 4550 3538 4550 2338 
Q 4550 1131 3912 565 
Q 3275 0 1925 0 
L 628 0 
L 628 4666 
z
" transform="scale(0.015625)"/>
       <path id="DejaVuSans-61" d="M 2194 1759 
Q 1497 1759 1228 1600 
Q 959 1441 959 1056 
Q 959 750 1161 570 
Q 1363 391 1709 391 
Q 2188 391 2477 730 
Q 2766 1069 2766 1631 
L 2766 1759 
L 2194 1759 
z
M 3341 1997 
L 3341 0 
L 2766 0 
L 2766 531 
Q 2569 213 2275 61 
Q 1981 -91 1556 -91 
Q 1019 -91 701 211 
Q 384 513 384 1019 
Q 384 1609 779 1909 
Q 1175 2209 1959 2209 
L 2766 2209 
L 2766 2266 
Q 2766 2663 2505 2880 
Q 2244 3097 1772 3097 
Q 1472 3097 1187 3025 
Q 903 2953 641 2809 
L 641 3341 
Q 956 3463 1253 3523 
Q 1550 3584 1831 3584 
Q 2591 3584 2966 3190 
Q 3341 2797 3341 1997 
z
" transform="scale(0.015625)"/>
      </defs>
      <use xlink:href="#DejaVuSans-44"/>
      <use xlink:href="#DejaVuSans-61" x="77.001953"/>
      <use xlink:href="#DejaVuSans-74" x="138.28125"/>
      <use xlink:href="#DejaVuSans-61" x="177.490234"/>
     </g>
    </g>
   </g>
  </g>
 </g>
 <defs>
  <clipPath id="p3dba47f0c5">
   <rect x="26.925" y="7.2" width="357.12" height="266.112"/>
  </clipPath>
 </defs>
</svg>