<?xml version="1.0" encoding="utf-8" standalone="no"?>
<!DOCTYPE svg PUBLIC "-//W3C//DTD SVG 1.1//EN"
  "http://www.w3.org/Graphics/SVG/1.1/DTD/svg11.dtd">
<svg xmlns:xlink="http://www.w3.org/1999/xlink" width="430.92623pt" height="339.190103pt" viewBox="0 0 430.92623 339.190103" xmlns="http://www.w3.org/2000/svg" version="1.1">
 <metadata>
  <rdf:RDF xmlns:dc="http://purl.org/dc/elements/1.1/" xmlns:cc="http://creativecommons.org/ns#" xmlns:rdf="http://www.w3.org/1999/02/22-rdf-syntax-ns#">
   <cc:Work>
    <dc:type rdf:resource="http://purl.org/dc/dcmitype/StillImage"/>
    <dc:date>2023-09-14T11:37:33.867847</dc:date>
    <dc:format>image/svg+xml</dc:format>
    <dc:creator>
     <cc:Agent>
      <dc:title>Matplotlib v3.7.1, https://matplotlib.org/</dc:title>
     </cc:Agent>
    </dc:creator>
   </cc:Work>
  </rdf:RDF>
 </metadata>
 <defs>
  <style type="text/css">*{stroke-linejoin: round; stroke-linecap: butt}</style>
 </defs>
 <g id="figure_1">
  <g id="patch_1">
   <path d="M 0 339.190103 
L 430.92623 339.190103 
L 430.92623 0 
L 0 0 
z
" style="fill: #ffffff"/>
  </g>
  <g id="axes_1">
   <g id="patch_2">
    <path d="M 58.802243 291.7653 
L 415.922243 291.7653 
L 415.922243 25.6533 
L 58.802243 25.6533 
z
" style="fill: #ffffff"/>
   </g>
   <g id="matplotlib.axis_1">
    <g id="xtick_1">
     <g id="line2d_1">
      <path d="M 58.802243 291.7653 
L 58.802243 25.6533 
" clip-path="url(#p16c71ecdb7)" style="fill: none; stroke-dasharray: 0.8,1.32; stroke-dashoffset: 0; stroke: #b0b0b0; stroke-width: 0.8"/>
     </g>
     <g id="line2d_2">
      <defs>
       <path id="m283bca9b3c" d="M 0 0 
L 0 3.5 
" style="stroke: #000000; stroke-width: 0.8"/>
      </defs>
      <g>
       <use xlink:href="#m283bca9b3c" x="58.802243" y="291.7653" style="stroke: #000000; stroke-width: 0.8"/>
      </g>
     </g>
     <g id="text_1">
      <!-- $\mathdefault{−10}$ -->
      <g transform="translate(44.799258 309.834888) scale(0.16 -0.16)">
       <defs>
        <path id="CMSY10-0" d="M 4218 1472 
C 4326 1472 4442 1472 4442 1600 
C 4442 1728 4326 1728 4218 1728 
L 755 1728 
C 646 1728 531 1728 531 1600 
C 531 1472 646 1472 755 1472 
L 4218 1472 
z
" transform="scale(0.015625)"/>
        <path id="CMR17-31" d="M 1702 4058 
C 1702 4192 1696 4192 1606 4192 
C 1357 3916 979 3827 621 3827 
C 602 3827 570 3827 563 3808 
C 557 3795 557 3782 557 3648 
C 755 3648 1088 3686 1344 3839 
L 1344 461 
C 1344 236 1331 160 781 160 
L 589 160 
L 589 0 
C 896 0 1216 0 1523 0 
C 1830 0 2150 0 2458 0 
L 2458 160 
L 2266 160 
C 1715 160 1702 230 1702 458 
L 1702 4058 
z
" transform="scale(0.015625)"/>
        <path id="CMR17-30" d="M 2688 2025 
C 2688 2416 2682 3080 2413 3591 
C 2176 4039 1798 4198 1466 4198 
C 1158 4198 768 4058 525 3597 
C 269 3118 243 2524 243 2025 
C 243 1661 250 1106 448 619 
C 723 -39 1216 -128 1466 -128 
C 1760 -128 2208 -7 2470 600 
C 2662 1042 2688 1559 2688 2025 
z
M 1466 -26 
C 1056 -26 813 325 723 812 
C 653 1188 653 1738 653 2096 
C 653 2588 653 2997 736 3387 
C 858 3929 1216 4096 1466 4096 
C 1728 4096 2067 3923 2189 3400 
C 2272 3036 2278 2607 2278 2096 
C 2278 1680 2278 1169 2202 792 
C 2067 95 1690 -26 1466 -26 
z
" transform="scale(0.015625)"/>
       </defs>
       <use xlink:href="#CMSY10-0" transform="scale(0.996264)"/>
       <use xlink:href="#CMR17-31" transform="translate(77.487468 0) scale(0.996264)"/>
       <use xlink:href="#CMR17-30" transform="translate(123.177945 0) scale(0.996264)"/>
      </g>
     </g>
    </g>
    <g id="xtick_2">
     <g id="line2d_3">
      <path d="M 148.082243 291.7653 
L 148.082243 25.6533 
" clip-path="url(#p16c71ecdb7)" style="fill: none; stroke-dasharray: 0.8,1.32; stroke-dashoffset: 0; stroke: #b0b0b0; stroke-width: 0.8"/>
     </g>
     <g id="line2d_4">
      <g>
       <use xlink:href="#m283bca9b3c" x="148.082243" y="291.7653" style="stroke: #000000; stroke-width: 0.8"/>
      </g>
     </g>
     <g id="text_2">
      <!-- $\mathdefault{−5}$ -->
      <g transform="translate(137.981251 309.834888) scale(0.16 -0.16)">
       <defs>
        <path id="CMR17-35" d="M 730 3692 
C 794 3666 1056 3584 1325 3584 
C 1920 3584 2246 3911 2432 4100 
C 2432 4157 2432 4192 2394 4192 
C 2387 4192 2374 4192 2323 4163 
C 2099 4058 1837 3973 1517 3973 
C 1325 3973 1037 3999 723 4139 
C 653 4171 640 4171 634 4171 
C 602 4171 595 4164 595 4037 
L 595 2203 
C 595 2089 595 2057 659 2057 
C 691 2057 704 2070 736 2114 
C 941 2401 1222 2522 1542 2522 
C 1766 2522 2246 2382 2246 1289 
C 2246 1085 2246 715 2054 421 
C 1894 159 1645 25 1370 25 
C 947 25 518 320 403 814 
C 429 807 480 795 506 795 
C 589 795 749 840 749 1038 
C 749 1210 627 1280 506 1280 
C 358 1280 262 1190 262 1011 
C 262 454 704 -128 1382 -128 
C 2042 -128 2669 440 2669 1264 
C 2669 2030 2170 2624 1549 2624 
C 1222 2624 947 2503 730 2274 
L 730 3692 
z
" transform="scale(0.015625)"/>
       </defs>
       <use xlink:href="#CMSY10-0" transform="scale(0.996264)"/>
       <use xlink:href="#CMR17-35" transform="translate(77.487468 0) scale(0.996264)"/>
      </g>
     </g>
    </g>
    <g id="xtick_3">
     <g id="line2d_5">
      <path d="M 237.362243 291.7653 
L 237.362243 25.6533 
" clip-path="url(#p16c71ecdb7)" style="fill: none; stroke-dasharray: 0.8,1.32; stroke-dashoffset: 0; stroke: #b0b0b0; stroke-width: 0.8"/>
     </g>
     <g id="line2d_6">
      <g>
       <use xlink:href="#m283bca9b3c" x="237.362243" y="291.7653" style="stroke: #000000; stroke-width: 0.8"/>
      </g>
     </g>
     <g id="text_3">
      <!-- $\mathdefault{0}$ -->
      <g transform="translate(233.460249 309.834888) scale(0.16 -0.16)">
       <use xlink:href="#CMR17-30" transform="scale(0.996264)"/>
      </g>
     </g>
    </g>
    <g id="xtick_4">
     <g id="line2d_7">
      <path d="M 326.642243 291.7653 
L 326.642243 25.6533 
" clip-path="url(#p16c71ecdb7)" style="fill: none; stroke-dasharray: 0.8,1.32; stroke-dashoffset: 0; stroke: #b0b0b0; stroke-width: 0.8"/>
     </g>
     <g id="line2d_8">
      <g>
       <use xlink:href="#m283bca9b3c" x="326.642243" y="291.7653" style="stroke: #000000; stroke-width: 0.8"/>
      </g>
     </g>
     <g id="text_4">
      <!-- $\mathdefault{5}$ -->
      <g transform="translate(322.740249 309.834888) scale(0.16 -0.16)">
       <use xlink:href="#CMR17-35" transform="scale(0.996264)"/>
      </g>
     </g>
    </g>
    <g id="xtick_5">
     <g id="line2d_9">
      <path d="M 415.922243 291.7653 
L 415.922243 25.6533 
" clip-path="url(#p16c71ecdb7)" style="fill: none; stroke-dasharray: 0.8,1.32; stroke-dashoffset: 0; stroke: #b0b0b0; stroke-width: 0.8"/>
     </g>
     <g id="line2d_10">
      <g>
       <use xlink:href="#m283bca9b3c" x="415.922243" y="291.7653" style="stroke: #000000; stroke-width: 0.8"/>
      </g>
     </g>
     <g id="text_5">
      <!-- $\mathdefault{10}$ -->
      <g transform="translate(408.118256 309.834888) scale(0.16 -0.16)">
       <use xlink:href="#CMR17-31" transform="scale(0.996264)"/>
       <use xlink:href="#CMR17-30" transform="translate(45.690477 0) scale(0.996264)"/>
      </g>
     </g>
    </g>
    <g id="text_6">
     <!-- $x$ -->
     <g transform="translate(232.650352 328.695816) scale(0.17 -0.17)">
      <defs>
       <path id="CMMI12-78" d="M 3034 2606 
C 2829 2567 2752 2414 2752 2293 
C 2752 2139 2874 2088 2963 2088 
C 3155 2088 3290 2254 3290 2427 
C 3290 2695 2982 2816 2714 2816 
C 2323 2816 2106 2433 2048 2312 
C 1901 2816 1504 2816 1389 2816 
C 736 2816 390 1980 390 1839 
C 390 1814 416 1782 461 1782 
C 512 1782 525 1820 538 1846 
C 755 2555 1184 2689 1370 2689 
C 1658 2689 1715 2420 1715 2267 
C 1715 2127 1677 1980 1600 1673 
L 1382 798 
C 1286 415 1101 64 762 64 
C 730 64 570 64 435 147 
C 666 192 717 383 717 460 
C 717 588 621 664 499 664 
C 346 664 179 530 179 326 
C 179 57 480 -64 755 -64 
C 1062 -64 1280 179 1414 441 
C 1517 64 1837 -64 2074 -64 
C 2726 -64 3072 773 3072 913 
C 3072 945 3046 971 3008 971 
C 2950 971 2944 939 2925 888 
C 2752 326 2381 64 2093 64 
C 1869 64 1747 230 1747 492 
C 1747 632 1773 734 1875 1156 
L 2099 2024 
C 2195 2408 2413 2689 2707 2689 
C 2720 2689 2899 2689 3034 2606 
z
" transform="scale(0.015625)"/>
      </defs>
      <use xlink:href="#CMMI12-78" transform="scale(0.996264)"/>
     </g>
    </g>
   </g>
   <g id="matplotlib.axis_2">
    <g id="ytick_1">
     <g id="line2d_11">
      <path d="M 58.802243 279.6693 
L 415.922243 279.6693 
" clip-path="url(#p16c71ecdb7)" style="fill: none; stroke-dasharray: 0.8,1.32; stroke-dashoffset: 0; stroke: #b0b0b0; stroke-width: 0.8"/>
     </g>
     <g id="line2d_12">
      <defs>
       <path id="medda32cc48" d="M 0 0 
L -3.5 0 
" style="stroke: #000000; stroke-width: 0.8"/>
      </defs>
      <g>
       <use xlink:href="#medda32cc48" x="58.802243" y="279.6693" style="stroke: #000000; stroke-width: 0.8"/>
      </g>
     </g>
     <g id="text_7">
      <!-- $\mathdefault{0.0}$ -->
      <g transform="translate(31.858721 285.204094) scale(0.16 -0.16)">
       <defs>
        <path id="CMMI12-3a" d="M 1178 307 
C 1178 492 1024 619 870 619 
C 685 619 557 466 557 313 
C 557 128 710 0 864 0 
C 1050 0 1178 153 1178 307 
z
" transform="scale(0.015625)"/>
       </defs>
       <use xlink:href="#CMR17-30" transform="scale(0.996264)"/>
       <use xlink:href="#CMMI12-3a" transform="translate(45.690477 0) scale(0.996264)"/>
       <use xlink:href="#CMR17-30" transform="translate(72.787654 0) scale(0.996264)"/>
      </g>
     </g>
    </g>
    <g id="ytick_2">
     <g id="line2d_13">
      <path d="M 58.802243 231.2853 
L 415.922243 231.2853 
" clip-path="url(#p16c71ecdb7)" style="fill: none; stroke-dasharray: 0.8,1.32; stroke-dashoffset: 0; stroke: #b0b0b0; stroke-width: 0.8"/>
     </g>
     <g id="line2d_14">
      <g>
       <use xlink:href="#medda32cc48" x="58.802243" y="231.2853" style="stroke: #000000; stroke-width: 0.8"/>
      </g>
     </g>
     <g id="text_8">
      <!-- $\mathdefault{0.2}$ -->
      <g transform="translate(31.858721 236.820094) scale(0.16 -0.16)">
       <defs>
        <path id="CMR17-32" d="M 2669 989 
L 2554 989 
C 2490 536 2438 459 2413 420 
C 2381 369 1920 369 1830 369 
L 602 369 
C 832 619 1280 1072 1824 1597 
C 2214 1967 2669 2402 2669 3035 
C 2669 3790 2067 4224 1395 4224 
C 691 4224 262 3604 262 3030 
C 262 2780 448 2748 525 2748 
C 589 2748 781 2787 781 3010 
C 781 3207 614 3264 525 3264 
C 486 3264 448 3258 422 3245 
C 544 3790 915 4058 1306 4058 
C 1862 4058 2227 3617 2227 3035 
C 2227 2479 1901 2000 1536 1584 
L 262 146 
L 262 0 
L 2515 0 
L 2669 989 
z
" transform="scale(0.015625)"/>
       </defs>
       <use xlink:href="#CMR17-30" transform="scale(0.996264)"/>
       <use xlink:href="#CMMI12-3a" transform="translate(45.690477 0) scale(0.996264)"/>
       <use xlink:href="#CMR17-32" transform="translate(72.787654 0) scale(0.996264)"/>
      </g>
     </g>
    </g>
    <g id="ytick_3">
     <g id="line2d_15">
      <path d="M 58.802243 182.9013 
L 415.922243 182.9013 
" clip-path="url(#p16c71ecdb7)" style="fill: none; stroke-dasharray: 0.8,1.32; stroke-dashoffset: 0; stroke: #b0b0b0; stroke-width: 0.8"/>
     </g>
     <g id="line2d_16">
      <g>
       <use xlink:href="#medda32cc48" x="58.802243" y="182.9013" style="stroke: #000000; stroke-width: 0.8"/>
      </g>
     </g>
     <g id="text_9">
      <!-- $\mathdefault{0.4}$ -->
      <g transform="translate(31.858721 188.436094) scale(0.16 -0.16)">
       <defs>
        <path id="CMR17-34" d="M 2150 4122 
C 2150 4256 2144 4256 2029 4256 
L 128 1254 
L 128 1088 
L 1779 1088 
L 1779 457 
C 1779 224 1766 160 1318 160 
L 1197 160 
L 1197 0 
C 1402 0 1747 0 1965 0 
C 2182 0 2528 0 2733 0 
L 2733 160 
L 2611 160 
C 2163 160 2150 224 2150 457 
L 2150 1088 
L 2803 1088 
L 2803 1254 
L 2150 1254 
L 2150 4122 
z
M 1798 3703 
L 1798 1254 
L 256 1254 
L 1798 3703 
z
" transform="scale(0.015625)"/>
       </defs>
       <use xlink:href="#CMR17-30" transform="scale(0.996264)"/>
       <use xlink:href="#CMMI12-3a" transform="translate(45.690477 0) scale(0.996264)"/>
       <use xlink:href="#CMR17-34" transform="translate(72.787654 0) scale(0.996264)"/>
      </g>
     </g>
    </g>
    <g id="ytick_4">
     <g id="line2d_17">
      <path d="M 58.802243 134.5173 
L 415.922243 134.5173 
" clip-path="url(#p16c71ecdb7)" style="fill: none; stroke-dasharray: 0.8,1.32; stroke-dashoffset: 0; stroke: #b0b0b0; stroke-width: 0.8"/>
     </g>
     <g id="line2d_18">
      <g>
       <use xlink:href="#medda32cc48" x="58.802243" y="134.5173" style="stroke: #000000; stroke-width: 0.8"/>
      </g>
     </g>
     <g id="text_10">
      <!-- $\mathdefault{0.6}$ -->
      <g transform="translate(31.858721 140.052094) scale(0.16 -0.16)">
       <defs>
        <path id="CMR17-36" d="M 678 2176 
C 678 3690 1395 4032 1811 4032 
C 1946 4032 2272 4009 2400 3776 
C 2298 3776 2106 3776 2106 3553 
C 2106 3381 2246 3323 2336 3323 
C 2394 3323 2566 3348 2566 3560 
C 2566 3954 2246 4179 1805 4179 
C 1043 4179 243 3390 243 1984 
C 243 253 966 -128 1478 -128 
C 2099 -128 2688 427 2688 1283 
C 2688 2081 2170 2662 1517 2662 
C 1126 2662 838 2407 678 1960 
L 678 2176 
z
M 1478 25 
C 691 25 691 1200 691 1436 
C 691 1896 909 2560 1504 2560 
C 1613 2560 1926 2560 2138 2120 
C 2253 1870 2253 1609 2253 1289 
C 2253 944 2253 690 2118 434 
C 1978 171 1773 25 1478 25 
z
" transform="scale(0.015625)"/>
       </defs>
       <use xlink:href="#CMR17-30" transform="scale(0.996264)"/>
       <use xlink:href="#CMMI12-3a" transform="translate(45.690477 0) scale(0.996264)"/>
       <use xlink:href="#CMR17-36" transform="translate(72.787654 0) scale(0.996264)"/>
      </g>
     </g>
    </g>
    <g id="ytick_5">
     <g id="line2d_19">
      <path d="M 58.802243 86.1333 
L 415.922243 86.1333 
" clip-path="url(#p16c71ecdb7)" style="fill: none; stroke-dasharray: 0.8,1.32; stroke-dashoffset: 0; stroke: #b0b0b0; stroke-width: 0.8"/>
     </g>
     <g id="line2d_20">
      <g>
       <use xlink:href="#medda32cc48" x="58.802243" y="86.1333" style="stroke: #000000; stroke-width: 0.8"/>
      </g>
     </g>
     <g id="text_11">
      <!-- $\mathdefault{0.8}$ -->
      <g transform="translate(31.858721 91.668094) scale(0.16 -0.16)">
       <defs>
        <path id="CMR17-38" d="M 1741 2264 
C 2144 2467 2554 2773 2554 3263 
C 2554 3841 1990 4179 1472 4179 
C 890 4179 378 3759 378 3180 
C 378 3021 416 2747 666 2505 
C 730 2442 998 2251 1171 2130 
C 883 1983 211 1634 211 934 
C 211 279 838 -128 1459 -128 
C 2144 -128 2720 362 2720 1010 
C 2720 1590 2330 1857 2074 2029 
L 1741 2264 
z
M 902 2822 
C 851 2854 595 3051 595 3351 
C 595 3739 998 4032 1459 4032 
C 1965 4032 2336 3676 2336 3262 
C 2336 2669 1670 2331 1638 2331 
C 1632 2331 1626 2331 1574 2370 
L 902 2822 
z
M 2080 1519 
C 2176 1449 2483 1240 2483 851 
C 2483 381 2010 25 1472 25 
C 890 25 448 438 448 940 
C 448 1443 838 1862 1280 2060 
L 2080 1519 
z
" transform="scale(0.015625)"/>
       </defs>
       <use xlink:href="#CMR17-30" transform="scale(0.996264)"/>
       <use xlink:href="#CMMI12-3a" transform="translate(45.690477 0) scale(0.996264)"/>
       <use xlink:href="#CMR17-38" transform="translate(72.787654 0) scale(0.996264)"/>
      </g>
     </g>
    </g>
    <g id="ytick_6">
     <g id="line2d_21">
      <path d="M 58.802243 37.7493 
L 415.922243 37.7493 
" clip-path="url(#p16c71ecdb7)" style="fill: none; stroke-dasharray: 0.8,1.32; stroke-dashoffset: 0; stroke: #b0b0b0; stroke-width: 0.8"/>
     </g>
     <g id="line2d_22">
      <g>
       <use xlink:href="#medda32cc48" x="58.802243" y="37.7493" style="stroke: #000000; stroke-width: 0.8"/>
      </g>
     </g>
     <g id="text_12">
      <!-- $\mathdefault{1.0}$ -->
      <g transform="translate(31.858721 43.284094) scale(0.16 -0.16)">
       <use xlink:href="#CMR17-31" transform="scale(0.996264)"/>
       <use xlink:href="#CMMI12-3a" transform="translate(45.690477 0) scale(0.996264)"/>
       <use xlink:href="#CMR17-30" transform="translate(72.787654 0) scale(0.996264)"/>
      </g>
     </g>
    </g>
    <g id="text_13">
     <!-- $\sigma\big(\frac{x}{s}\big)$ -->
     <g transform="translate(21.763475 176.199825) rotate(-90) scale(0.17 -0.17)">
      <defs>
       <path id="CMMI12-1b" d="M 3251 2408 
C 3334 2408 3546 2408 3546 2612 
C 3546 2752 3424 2752 3309 2752 
L 1894 2752 
C 934 2752 243 1686 243 932 
C 243 390 595 -64 1171 -64 
C 1926 -64 2752 747 2752 1705 
C 2752 1954 2694 2196 2541 2408 
L 3251 2408 
z
M 1178 64 
C 851 64 614 313 614 754 
C 614 1137 845 2408 1786 2408 
C 2061 2408 2368 2274 2368 1781 
C 2368 1558 2266 1021 2042 652 
C 1811 275 1466 64 1178 64 
z
" transform="scale(0.015625)"/>
       <path id="CMEX10-30" d="M 2394 -11328 
C 2534 -11328 2573 -11328 2573 -11238 
C 2586 -6752 3104 -3027 5344 102 
C 5389 160 5389 173 5389 186 
C 5389 250 5344 250 5242 250 
C 5139 250 5126 250 5114 237 
C 5088 218 4275 -717 3629 -2003 
C 2784 -3693 2253 -5632 2016 -7962 
C 1997 -8160 1862 -9491 1862 -11008 
L 1862 -11258 
C 1869 -11328 1907 -11328 2042 -11328 
L 2394 -11328 
z
" transform="scale(0.015625)"/>
       <path id="CMEX10-42" d="M 2574 -109 
C 2574 58 2567 64 2395 64 
L 2043 64 
C 1870 64 1863 58 1863 -109 
L 1863 -3731 
C 1863 -3898 1870 -3904 2043 -3904 
L 2395 -3904 
C 2567 -3904 2574 -3898 2574 -3731 
L 2574 -109 
z
" transform="scale(0.015625)"/>
       <path id="CMEX10-40" d="M 2042 320 
C 1907 320 1869 320 1862 250 
L 1862 0 
C 1862 -3910 2560 -6202 2758 -6848 
C 3194 -8269 3904 -9766 4973 -11085 
C 5069 -11200 5094 -11232 5120 -11245 
C 5133 -11251 5139 -11258 5242 -11258 
C 5344 -11258 5389 -11258 5389 -11194 
C 5389 -11181 5389 -11168 5350 -11110 
C 3219 -8154 2579 -4595 2573 230 
C 2573 320 2534 320 2394 320 
L 2042 320 
z
" transform="scale(0.015625)"/>
       <path id="CMMI12-73" d="M 1459 1280 
C 1568 1261 1741 1223 1779 1216 
C 1862 1192 2150 1090 2150 783 
C 2150 586 1971 70 1229 70 
C 1094 70 614 70 486 436 
C 742 404 870 603 870 745 
C 870 880 781 950 653 950 
C 512 950 326 841 326 552 
C 326 173 710 -64 1222 -64 
C 2195 -64 2483 651 2483 984 
C 2483 1079 2483 1258 2278 1462 
C 2118 1616 1965 1648 1619 1718 
C 1446 1756 1171 1814 1171 2101 
C 1171 2229 1286 2689 1894 2689 
C 2163 2689 2426 2589 2490 2368 
C 2208 2368 2195 2125 2195 2119 
C 2195 1984 2317 1946 2374 1946 
C 2464 1946 2643 2015 2643 2281 
C 2643 2545 2400 2816 1901 2816 
C 1062 2816 838 2160 838 1899 
C 838 1414 1312 1312 1459 1280 
z
" transform="scale(0.015625)"/>
       <path id="CMEX10-31" d="M 3731 -11008 
C 3731 -7098 3034 -4806 2835 -4160 
C 2400 -2739 1690 -1242 621 77 
C 525 192 499 224 474 237 
C 461 243 454 250 352 250 
C 256 250 205 250 205 186 
C 205 173 205 160 288 45 
C 2515 -3066 3014 -6906 3021 -11238 
C 3021 -11328 3059 -11328 3200 -11328 
L 3552 -11328 
C 3686 -11328 3725 -11328 3731 -11258 
L 3731 -11008 
z
" transform="scale(0.015625)"/>
       <path id="CMEX10-43" d="M 3733 -109 
C 3733 58 3727 64 3554 64 
L 3202 64 
C 3029 64 3023 58 3023 -109 
L 3023 -3731 
C 3023 -3898 3029 -3904 3202 -3904 
L 3554 -3904 
C 3727 -3904 3733 -3898 3733 -3731 
L 3733 -109 
z
" transform="scale(0.015625)"/>
       <path id="CMEX10-41" d="M 3731 250 
C 3725 320 3686 320 3552 320 
L 3200 320 
C 3059 320 3021 320 3021 230 
C 3021 -429 3014 -1952 2848 -3546 
C 2502 -6854 1651 -9146 250 -11110 
C 205 -11168 205 -11181 205 -11194 
C 205 -11258 256 -11258 352 -11258 
C 454 -11258 467 -11258 480 -11245 
C 506 -11226 1318 -10291 1965 -9005 
C 2810 -7315 3341 -5376 3578 -3046 
C 3597 -2848 3731 -1517 3731 0 
L 3731 250 
z
" transform="scale(0.015625)"/>
      </defs>
      <use xlink:href="#CMMI12-1b" transform="scale(0.996264)"/>
      <use xlink:href="#CMEX10-30" transform="translate(59.020054 83.404655) scale(0.247871)"/>
      <use xlink:href="#CMEX10-42" transform="translate(59.020054 39.778975) scale(0.247871)"/>
      <use xlink:href="#CMEX10-42" transform="translate(59.020054 24.9066) scale(0.247871)"/>
      <use xlink:href="#CMEX10-40" transform="translate(59.020054 9.04278) scale(0.247871)"/>
      <use xlink:href="#CMMI12-78" transform="translate(81.9043 39.226102) scale(0.697382)"/>
      <use xlink:href="#CMMI12-73" transform="translate(85.223685 -34.355253) scale(0.697382)"/>
      <use xlink:href="#CMEX10-31" transform="translate(121.903473 83.404655) scale(0.247871)"/>
      <use xlink:href="#CMEX10-43" transform="translate(121.903473 39.778975) scale(0.247871)"/>
      <use xlink:href="#CMEX10-43" transform="translate(121.903473 24.9066) scale(0.247871)"/>
      <use xlink:href="#CMEX10-41" transform="translate(121.903473 9.04278) scale(0.247871)"/>
      <path d="M 81.9043 24.410885 
L 120.707959 24.410885 
L 120.707959 25.40233 
L 81.9043 25.40233 
L 81.9043 24.410885 
z
"/>
     </g>
    </g>
   </g>
   <g id="line2d_23">
    <path d="M 58.088003 279.6693 
L 223.077443 279.588172 
L 225.220163 279.400155 
L 226.648643 279.071123 
L 227.362883 278.778009 
L 228.077123 278.342055 
L 228.791363 277.694611 
L 229.505603 276.735189 
L 230.219843 275.318076 
L 230.934083 273.234955 
L 231.648323 270.194328 
L 232.362563 265.801435 
L 233.076803 259.548161 
L 233.791043 250.831729 
L 234.505283 239.031188 
L 235.219523 223.670816 
L 235.933763 204.667927 
L 237.362243 158.7093 
L 238.790723 112.750674 
L 239.504963 93.747785 
L 240.219203 78.387412 
L 240.933443 66.586871 
L 241.647683 57.870439 
L 242.361923 51.617165 
L 243.076163 47.224272 
L 243.790403 44.183645 
L 244.504643 42.100524 
L 245.218883 40.683411 
L 245.933123 39.723989 
L 246.647363 39.076546 
L 247.361603 38.640591 
L 248.790083 38.150597 
L 250.218563 37.929779 
L 253.075523 37.78576 
L 261.646403 37.7496 
L 416.636483 37.7493 
L 416.636483 37.7493 
" clip-path="url(#p16c71ecdb7)" style="fill: none; stroke: #ff0000; stroke-width: 2; stroke-linecap: square"/>
   </g>
   <g id="line2d_24">
    <path d="M 58.088003 279.6693 
L 195.936323 279.56339 
L 202.364483 279.318023 
L 205.935683 278.986046 
L 208.792643 278.506934 
L 210.935363 277.939342 
L 213.078083 277.097551 
L 214.506563 276.322484 
L 215.935043 275.318076 
L 217.363523 274.019375 
L 218.792003 272.345005 
L 220.220483 270.194328 
L 221.648963 267.445043 
L 223.077443 263.951959 
L 224.505923 259.548161 
L 225.934403 254.050223 
L 227.362883 247.269465 
L 228.791363 239.031188 
L 230.219843 229.202725 
L 231.648323 217.728706 
L 233.076803 204.667927 
L 235.219523 182.583819 
L 241.647683 112.750674 
L 243.076163 99.689894 
L 244.504643 88.215875 
L 245.933123 78.387412 
L 247.361603 70.149135 
L 248.790083 63.368377 
L 250.218563 57.870439 
L 251.647043 53.466642 
L 253.075523 49.973557 
L 254.504003 47.224272 
L 255.932483 45.073596 
L 257.360963 43.399225 
L 258.789443 42.100524 
L 260.217923 41.096116 
L 261.646403 40.321049 
L 263.789123 39.479258 
L 265.931843 38.911666 
L 268.788803 38.432555 
L 272.360003 38.100577 
L 277.359683 37.887558 
L 286.644803 37.773741 
L 318.071363 37.749369 
L 416.636483 37.7493 
L 416.636483 37.7493 
" clip-path="url(#p16c71ecdb7)" style="fill: none; stroke: #008000; stroke-width: 2; stroke-linecap: square"/>
   </g>
   <g id="line2d_25">
    <path d="M 58.088003 279.658748 
L 105.227843 279.521516 
L 123.083843 279.268003 
L 134.511683 278.909378 
L 143.082563 278.443581 
L 150.224963 277.845288 
L 155.938883 277.164524 
L 160.938563 276.366207 
L 165.224003 275.48574 
L 169.509443 274.375783 
L 173.080643 273.234955 
L 176.651843 271.856381 
L 179.508803 270.551846 
L 182.365763 269.03938 
L 185.222723 267.289358 
L 188.079683 265.269166 
L 190.936643 262.943333 
L 193.793603 260.273869 
L 196.650563 257.220829 
L 199.507523 253.743201 
L 202.364483 249.800152 
L 205.221443 245.352691 
L 208.078403 240.365752 
L 210.935363 234.810699 
L 213.792323 228.668139 
L 216.649283 221.93091 
L 219.506243 214.606991 
L 222.363203 206.722005 
L 225.934403 196.147257 
L 230.219843 182.583819 
L 235.933763 163.545121 
L 244.504643 134.834781 
L 248.790083 121.271343 
L 252.361283 110.696595 
L 255.218243 102.811609 
L 258.075203 95.48769 
L 260.932163 88.750462 
L 263.789123 82.607901 
L 266.646083 77.052848 
L 269.503043 72.06591 
L 272.360003 67.618448 
L 275.216963 63.6754 
L 278.073923 60.197771 
L 280.930883 57.144731 
L 283.787843 54.475267 
L 286.644803 52.149435 
L 289.501763 50.129242 
L 292.358723 48.37922 
L 295.215683 46.866755 
L 298.786883 45.265388 
L 302.358083 43.937804 
L 305.929283 42.839623 
L 310.214723 41.771548 
L 314.500163 40.924577 
L 319.499843 40.15684 
L 325.213763 39.50231 
L 332.356163 38.927192 
L 340.927043 38.479515 
L 351.640643 38.150597 
L 367.353923 37.915913 
L 393.066563 37.788796 
L 416.636483 37.759852 
L 416.636483 37.759852 
" clip-path="url(#p16c71ecdb7)" style="fill: none; stroke: #0000ff; stroke-width: 2; stroke-linecap: square"/>
   </g>
   <g id="line2d_26">
    <path d="M 58.088003 271.442934 
L 67.373123 269.948553 
L 75.944003 268.340879 
L 83.800643 266.647675 
L 91.657283 264.717806 
L 98.799683 262.734543 
L 105.942083 260.510414 
L 112.370243 258.28365 
L 118.798403 255.82578 
L 125.226563 253.119433 
L 131.654723 250.147487 
L 137.368643 247.269465 
L 143.082563 244.157781 
L 148.796483 240.802687 
L 154.510403 237.195835 
L 160.224323 233.330649 
L 165.938243 229.202725 
L 171.652163 224.810222 
L 177.366083 220.15425 
L 183.794243 214.606991 
L 190.222403 208.743732 
L 196.650563 202.582395 
L 203.792963 195.416609 
L 211.649603 187.194866 
L 220.220483 177.899423 
L 231.648323 165.15439 
L 255.932483 137.950382 
L 265.217603 127.949712 
L 273.074243 119.819119 
L 280.216643 112.750674 
L 286.644803 106.686314 
L 293.072963 100.926707 
L 299.501123 95.48769 
L 305.215043 90.930186 
L 310.928963 86.636936 
L 316.642883 82.607901 
L 322.356803 78.840232 
L 328.070723 75.328664 
L 333.784643 72.06591 
L 339.498563 69.043055 
L 345.212483 66.24992 
L 351.640643 63.368377 
L 358.068803 60.746778 
L 364.496963 58.367875 
L 370.925123 56.214294 
L 378.067523 54.064819 
L 385.209923 52.149435 
L 393.066563 50.286801 
L 400.923203 48.653549 
L 409.494083 47.10363 
L 416.636483 45.975666 
L 416.636483 45.975666 
" clip-path="url(#p16c71ecdb7)" style="fill: none; stroke: #ffa500; stroke-width: 2; stroke-linecap: square"/>
   </g>
   <g id="line2d_27">
    <path d="M 58.088003 214.797073 
L 76.658243 209.742204 
L 95.942723 204.253306 
L 115.941443 198.320966 
L 136.654403 191.943679 
L 159.510083 184.668646 
L 185.222723 176.24504 
L 218.792003 164.993557 
L 295.929923 139.047817 
L 322.356803 130.452345 
L 345.212483 123.250866 
L 365.925443 116.952211 
L 385.924163 111.10485 
L 404.494403 105.900349 
L 416.636483 102.621527 
L 416.636483 102.621527 
" clip-path="url(#p16c71ecdb7)" style="fill: none; stroke: #a52a2a; stroke-width: 2; stroke-linecap: square"/>
   </g>
   <g id="patch_3">
    <path d="M 58.802243 291.7653 
L 58.802243 25.6533 
" style="fill: none; stroke: #000000; stroke-width: 0.8; stroke-linejoin: miter; stroke-linecap: square"/>
   </g>
   <g id="patch_4">
    <path d="M 415.922243 291.7653 
L 415.922243 25.6533 
" style="fill: none; stroke: #000000; stroke-width: 0.8; stroke-linejoin: miter; stroke-linecap: square"/>
   </g>
   <g id="patch_5">
    <path d="M 58.802243 291.7653 
L 415.922243 291.7653 
" style="fill: none; stroke: #000000; stroke-width: 0.8; stroke-linejoin: miter; stroke-linecap: square"/>
   </g>
   <g id="patch_6">
    <path d="M 58.802243 25.6533 
L 415.922243 25.6533 
" style="fill: none; stroke: #000000; stroke-width: 0.8; stroke-linejoin: miter; stroke-linecap: square"/>
   </g>
   <g id="text_14">
    <!-- Sigmoidal basis functions -->
    <g transform="translate(146.831714 19.6533) scale(0.18 -0.18)">
     <defs>
      <path id="CMR17-53" d="M 2803 4290 
C 2803 4404 2797 4411 2758 4411 
C 2720 4411 2707 4385 2682 4328 
L 2490 3907 
C 2246 4257 1875 4416 1472 4416 
C 819 4416 294 3901 294 3253 
C 294 3056 339 2776 557 2510 
C 794 2218 1018 2167 1530 2033 
C 1722 1982 2042 1899 2106 1874 
C 2470 1722 2662 1341 2662 985 
C 2662 527 2336 38 1779 38 
C 1094 38 454 419 410 1311 
C 403 1413 397 1419 352 1419 
C 301 1419 294 1413 294 1285 
L 294 -1 
C 294 -115 301 -122 339 -122 
C 384 -122 397 -90 486 108 
C 493 127 493 140 614 381 
C 934 -39 1472 -128 1779 -128 
C 2477 -128 2970 451 2970 1124 
C 2970 1454 2848 1708 2778 1823 
C 2509 2230 2221 2306 1914 2382 
C 1869 2402 1856 2402 1498 2490 
C 1152 2579 1005 2624 845 2796 
C 666 2992 602 3196 602 3399 
C 602 3812 934 4263 1478 4263 
C 2157 4263 2579 3786 2675 2993 
C 2694 2878 2701 2872 2746 2872 
C 2803 2872 2803 2891 2803 2999 
L 2803 4290 
z
" transform="scale(0.015625)"/>
      <path id="CMR17-69" d="M 992 3909 
C 992 4049 877 4170 730 4170 
C 589 4170 467 4056 467 3909 
C 467 3769 582 3648 730 3648 
C 870 3648 992 3763 992 3909 
z
M 243 2706 
L 243 2541 
C 602 2541 653 2502 653 2197 
L 653 427 
C 653 184 627 153 218 153 
L 218 -13 
C 371 0 646 0 806 0 
C 960 0 1222 0 1370 -13 
L 1370 153 
C 992 153 979 191 979 420 
L 979 2776 
L 243 2706 
z
" transform="scale(0.015625)"/>
      <path id="CMR17-67" d="M 710 1164 
C 832 1068 1043 960 1299 960 
C 1805 960 2240 1357 2240 1888 
C 2240 2054 2189 2310 1997 2509 
C 2176 2692 2438 2752 2586 2752 
C 2611 2752 2650 2752 2682 2734 
C 2656 2728 2598 2703 2598 2605 
C 2598 2527 2656 2471 2739 2471 
C 2835 2471 2886 2533 2886 2614 
C 2886 2731 2790 2854 2586 2854 
C 2330 2854 2106 2738 1926 2580 
C 1734 2753 1504 2816 1299 2816 
C 794 2816 358 2419 358 1888 
C 358 1522 570 1292 634 1228 
C 442 1004 442 743 442 711 
C 442 545 506 302 723 168 
C 390 85 128 -169 128 -486 
C 128 -943 736 -1280 1466 -1280 
C 2170 -1280 2803 -956 2803 -479 
C 2803 384 1856 384 1363 384 
C 1216 384 954 384 922 391 
C 723 423 589 602 589 826 
C 589 883 589 1024 710 1164 
z
M 1299 1068 
C 736 1068 736 1760 736 1889 
C 736 2016 736 2708 1299 2708 
C 1862 2708 1862 2016 1862 1889 
C 1862 1760 1862 1068 1299 1068 
z
M 1466 -1171 
C 826 -1171 384 -835 384 -486 
C 384 -289 493 -105 634 -4 
C 794 104 858 104 1293 104 
C 1818 104 2547 104 2547 -486 
C 2547 -835 2106 -1171 1466 -1171 
z
" transform="scale(0.015625)"/>
      <path id="CMR17-6d" d="M 4326 1933 
C 4326 2252 4269 2790 3507 2790 
C 3072 2790 2771 2496 2656 2151 
L 2650 2151 
C 2573 2676 2195 2790 1837 2790 
C 1331 2790 1069 2400 973 2144 
L 966 2144 
L 966 2790 
L 211 2720 
L 211 2554 
C 589 2554 646 2515 646 2208 
L 646 428 
C 646 184 621 153 211 153 
L 211 -13 
C 365 0 646 0 813 0 
C 979 0 1267 0 1421 -13 
L 1421 153 
C 1011 153 986 178 986 428 
L 986 1658 
C 986 2247 1344 2688 1792 2688 
C 2266 2688 2317 2266 2317 1958 
L 2317 428 
C 2317 184 2291 153 1882 153 
L 1882 -13 
C 2035 0 2317 0 2483 0 
C 2650 0 2938 0 3091 -13 
L 3091 153 
C 2682 153 2656 178 2656 428 
L 2656 1658 
C 2656 2247 3014 2688 3462 2688 
C 3936 2688 3987 2266 3987 1958 
L 3987 428 
C 3987 184 3962 153 3552 153 
L 3552 -13 
C 3706 0 3987 0 4154 0 
C 4320 0 4608 0 4762 -13 
L 4762 153 
C 4352 153 4326 178 4326 428 
L 4326 1933 
z
" transform="scale(0.015625)"/>
      <path id="CMR17-6f" d="M 2758 1356 
C 2758 2176 2163 2816 1466 2816 
C 768 2816 173 2176 173 1356 
C 173 551 768 -64 1466 -64 
C 2163 -64 2758 551 2758 1356 
z
M 1466 51 
C 1165 51 909 230 762 480 
C 602 767 582 1126 582 1408 
C 582 1677 595 2010 762 2298 
C 890 2509 1139 2714 1466 2714 
C 1754 2714 1997 2554 2150 2330 
C 2349 2029 2349 1607 2349 1408 
C 2349 1158 2336 775 2163 467 
C 1984 173 1709 51 1466 51 
z
" transform="scale(0.015625)"/>
      <path id="CMR17-64" d="M 1869 4326 
L 1869 4160 
C 2246 4160 2304 4122 2304 3820 
L 2304 2345 
C 2278 2377 2016 2790 1498 2790 
C 845 2790 211 2208 211 1364 
C 211 525 806 -64 1434 -64 
C 1978 -64 2259 337 2291 380 
L 2291 -63 
L 3066 -63 
L 3066 128 
C 2688 128 2630 166 2630 473 
L 2630 4396 
L 1869 4326 
z
M 2291 755 
C 2291 563 2176 390 2029 262 
C 1811 70 1594 38 1472 38 
C 1286 38 621 134 621 1356 
C 621 2612 1363 2688 1530 2688 
C 1824 2688 2061 2522 2208 2291 
C 2291 2157 2291 2138 2291 2023 
L 2291 755 
z
" transform="scale(0.015625)"/>
      <path id="CMR17-61" d="M 2304 1653 
C 2304 2072 2304 2294 2035 2543 
C 1798 2752 1523 2816 1306 2816 
C 800 2816 435 2407 435 1971 
C 435 1728 627 1728 666 1728 
C 749 1728 896 1778 896 1954 
C 896 2112 774 2181 666 2181 
C 640 2181 608 2174 589 2168 
C 723 2592 1069 2714 1293 2714 
C 1613 2714 1965 2429 1965 1885 
L 1965 1600 
C 1587 1600 1133 1549 774 1357 
C 371 1133 256 813 256 570 
C 256 77 832 -64 1171 -64 
C 1523 -64 1850 139 1990 511 
C 2003 233 2182 -18 2464 -18 
C 2598 -18 2938 70 2938 567 
L 2938 920 
L 2822 920 
L 2822 562 
C 2822 178 2650 128 2566 128 
C 2304 128 2304 458 2304 738 
L 2304 1653 
z
M 1965 870 
C 1965 317 1568 38 1216 38 
C 896 38 646 275 646 570 
C 646 761 730 1100 1101 1305 
C 1408 1478 1760 1504 1965 1504 
L 1965 870 
z
" transform="scale(0.015625)"/>
      <path id="CMR17-6c" d="M 979 4396 
L 218 4326 
L 218 4160 
C 595 4160 653 4122 653 3817 
L 653 426 
C 653 184 627 153 218 153 
L 218 -13 
C 371 0 653 0 813 0 
C 979 0 1261 0 1414 -13 
L 1414 153 
C 1005 153 979 178 979 426 
L 979 4396 
z
" transform="scale(0.015625)"/>
      <path id="CMR17-62" d="M 960 4396 
L 198 4326 
L 198 4160 
C 576 4160 634 4122 634 3817 
L 634 -13 
L 749 -13 
L 934 441 
C 1120 141 1395 -64 1766 -64 
C 2406 -64 3053 500 3053 1370 
C 3053 2188 2477 2790 1830 2790 
C 1434 2790 1152 2579 960 2330 
L 960 4396 
z
M 973 2004 
C 973 2118 973 2138 1062 2272 
C 1312 2657 1670 2688 1792 2688 
C 1984 2688 2643 2585 2643 1376 
C 2643 108 1888 38 1734 38 
C 1536 38 1248 114 1043 486 
C 973 608 973 621 973 735 
L 973 2004 
z
" transform="scale(0.015625)"/>
      <path id="CMR17-73" d="M 1978 2697 
C 1978 2813 1971 2819 1933 2819 
C 1907 2819 1901 2813 1824 2717 
C 1805 2691 1747 2626 1728 2601 
C 1523 2819 1235 2819 1126 2819 
C 416 2819 160 2447 160 2076 
C 160 1498 813 1365 998 1325 
C 1402 1243 1542 1217 1677 1101 
C 1760 1025 1901 884 1901 654 
C 1901 384 1747 38 1158 38 
C 602 38 403 460 288 1021 
C 269 1110 269 1117 218 1117 
C 166 1117 160 1110 160 983 
L 160 63 
C 160 -51 166 -58 205 -58 
C 237 -58 243 -51 275 0 
C 314 57 410 211 448 276 
C 576 103 800 -64 1158 -64 
C 1792 -64 2131 283 2131 784 
C 2131 1112 1958 1285 1875 1362 
C 1683 1561 1459 1606 1190 1657 
C 838 1735 390 1825 390 2217 
C 390 2383 480 2737 1126 2737 
C 1811 2737 1850 2094 1862 1888 
C 1869 1856 1901 1849 1920 1849 
C 1978 1849 1978 1869 1978 1978 
L 1978 2697 
z
" transform="scale(0.015625)"/>
      <path id="CMR17-66" d="M 979 2560 
L 1709 2560 
L 1709 2725 
L 966 2725 
L 966 3494 
C 966 4022 1235 4352 1510 4352 
C 1594 4352 1690 4327 1754 4282 
C 1702 4269 1568 4225 1568 4067 
C 1568 3901 1696 3850 1786 3850 
C 1875 3850 2003 3901 2003 4067 
C 2003 4308 1773 4454 1517 4454 
C 1152 4454 653 4156 653 3481 
L 653 2725 
L 141 2725 
L 141 2560 
L 653 2560 
L 653 427 
C 653 184 627 153 218 153 
L 218 -13 
C 371 0 666 0 832 0 
C 1018 0 1344 0 1517 -13 
L 1517 153 
C 1056 153 979 153 979 439 
L 979 2560 
z
" transform="scale(0.015625)"/>
      <path id="CMR17-75" d="M 1882 2693 
L 1882 2528 
C 2259 2528 2317 2489 2317 2186 
L 2317 1032 
C 2317 500 2029 38 1555 38 
C 1030 38 986 348 986 678 
L 986 2763 
L 211 2693 
L 211 2528 
C 467 2528 640 2528 646 2274 
L 646 1058 
C 646 633 646 361 813 183 
C 896 101 1056 -64 1517 -64 
C 2061 -64 2272 377 2323 506 
L 2330 506 
L 2330 -63 
L 3091 -63 
L 3091 128 
C 2714 128 2656 166 2656 473 
L 2656 2763 
L 1882 2693 
z
" transform="scale(0.015625)"/>
      <path id="CMR17-6e" d="M 2656 1933 
C 2656 2259 2592 2790 1837 2790 
C 1331 2790 1069 2400 973 2144 
L 966 2144 
L 966 2790 
L 211 2720 
L 211 2554 
C 589 2554 646 2515 646 2208 
L 646 428 
C 646 184 621 153 211 153 
L 211 -13 
C 365 0 646 0 813 0 
C 979 0 1267 0 1421 -13 
L 1421 153 
C 1011 153 986 178 986 428 
L 986 1658 
C 986 2247 1344 2688 1792 2688 
C 2266 2688 2317 2266 2317 1958 
L 2317 428 
C 2317 184 2291 153 1882 153 
L 1882 -13 
C 2035 0 2317 0 2483 0 
C 2650 0 2938 0 3091 -13 
L 3091 153 
C 2682 153 2656 178 2656 428 
L 2656 1933 
z
" transform="scale(0.015625)"/>
      <path id="CMR17-63" d="M 2234 2240 
C 2112 2240 1933 2240 1933 2017 
C 1933 1838 2080 1787 2163 1787 
C 2208 1787 2394 1807 2394 2024 
C 2394 2467 1958 2803 1466 2803 
C 787 2803 211 2178 211 1363 
C 211 516 813 -64 1466 -64 
C 2259 -64 2458 677 2458 748 
C 2458 774 2451 793 2406 793 
C 2362 793 2355 787 2330 703 
C 2163 180 1798 51 1523 51 
C 1114 51 621 427 621 1369 
C 621 2338 1094 2688 1472 2688 
C 1722 2688 2093 2573 2234 2240 
z
" transform="scale(0.015625)"/>
      <path id="CMR17-74" d="M 966 2560 
L 1862 2560 
L 1862 2725 
L 966 2725 
L 966 3904 
L 851 3904 
C 838 3245 614 2668 70 2668 
L 70 2560 
L 627 2560 
L 627 771 
C 627 650 627 -64 1370 -64 
C 1747 -64 1965 306 1965 777 
L 1965 1140 
L 1850 1140 
L 1850 783 
C 1850 344 1677 51 1408 51 
C 1222 51 966 178 966 758 
L 966 2560 
z
" transform="scale(0.015625)"/>
     </defs>
     <use xlink:href="#CMR17-53" transform="scale(0.996264)"/>
     <use xlink:href="#CMR17-69" transform="translate(50.89537 0) scale(0.996264)"/>
     <use xlink:href="#CMR17-67" transform="translate(75.766428 0) scale(0.996264)"/>
     <use xlink:href="#CMR17-6d" transform="translate(121.456905 0) scale(0.996264)"/>
     <use xlink:href="#CMR17-6f" transform="translate(198.376495 0) scale(0.996264)"/>
     <use xlink:href="#CMR17-69" transform="translate(244.066972 0) scale(0.996264)"/>
     <use xlink:href="#CMR17-64" transform="translate(268.938031 0) scale(0.996264)"/>
     <use xlink:href="#CMR17-61" transform="translate(319.833401 0) scale(0.996264)"/>
     <use xlink:href="#CMR17-6c" transform="translate(365.523878 0) scale(0.996264)"/>
     <use xlink:href="#CMR17-62" transform="translate(420.470903 0) scale(0.996264)"/>
     <use xlink:href="#CMR17-61" transform="translate(471.366272 0) scale(0.996264)"/>
     <use xlink:href="#CMR17-73" transform="translate(517.056749 0) scale(0.996264)"/>
     <use xlink:href="#CMR17-69" transform="translate(552.858087 0) scale(0.996264)"/>
     <use xlink:href="#CMR17-73" transform="translate(577.729146 0) scale(0.996264)"/>
     <use xlink:href="#CMR17-66" transform="translate(643.60645 0) scale(0.996264)"/>
     <use xlink:href="#CMR17-75" transform="translate(671.079962 0) scale(0.996264)"/>
     <use xlink:href="#CMR17-6e" transform="translate(721.975332 0) scale(0.996264)"/>
     <use xlink:href="#CMR17-63" transform="translate(772.870702 0) scale(0.996264)"/>
     <use xlink:href="#CMR17-74" transform="translate(813.356362 0) scale(0.996264)"/>
     <use xlink:href="#CMR17-69" transform="translate(848.63713 0) scale(0.996264)"/>
     <use xlink:href="#CMR17-6f" transform="translate(873.508188 0) scale(0.996264)"/>
     <use xlink:href="#CMR17-6e" transform="translate(919.198665 0) scale(0.996264)"/>
     <use xlink:href="#CMR17-73" transform="translate(970.094035 0) scale(0.996264)"/>
    </g>
   </g>
   <g id="legend_1">
    <g id="patch_7">
     <path d="M 67.202243 118.876279 
L 141.820201 118.876279 
Q 144.220201 118.876279 144.220201 116.476279 
L 144.220201 34.0533 
Q 144.220201 31.6533 141.820201 31.6533 
L 67.202243 31.6533 
Q 64.802243 31.6533 64.802243 34.0533 
L 64.802243 116.476279 
Q 64.802243 118.876279 67.202243 118.876279 
z
" style="fill: #ffffff; opacity: 0.8; stroke: #cccccc; stroke-linejoin: miter"/>
    </g>
    <g id="line2d_28">
     <path d="M 69.602243 40.6533 
L 81.602243 40.6533 
L 93.602243 40.6533 
" style="fill: none; stroke: #ff0000; stroke-width: 2; stroke-linecap: square"/>
    </g>
    <g id="text_15">
     <!-- $s=0.1$ -->
     <g transform="translate(103.202243 44.8533) scale(0.12 -0.12)">
      <defs>
       <path id="CMR17-3d" d="M 4115 2017 
C 4211 2017 4307 2017 4307 2125 
C 4307 2240 4198 2240 4090 2240 
L 512 2240 
C 403 2240 294 2240 294 2125 
C 294 2017 390 2017 486 2017 
L 4115 2017 
z
M 4090 896 
C 4198 896 4307 896 4307 1011 
C 4307 1119 4211 1119 4115 1119 
L 486 1119 
C 390 1119 294 1119 294 1011 
C 294 896 403 896 512 896 
L 4090 896 
z
" transform="scale(0.015625)"/>
      </defs>
      <use xlink:href="#CMMI12-73" transform="scale(0.996264)"/>
      <use xlink:href="#CMR17-3d" transform="translate(73.624056 0) scale(0.996264)"/>
      <use xlink:href="#CMR17-30" transform="translate(173.012853 0) scale(0.996264)"/>
      <use xlink:href="#CMMI12-3a" transform="translate(218.703331 0) scale(0.996264)"/>
      <use xlink:href="#CMR17-31" transform="translate(245.800508 0) scale(0.996264)"/>
     </g>
    </g>
    <g id="line2d_29">
     <path d="M 69.602243 57.377896 
L 81.602243 57.377896 
L 93.602243 57.377896 
" style="fill: none; stroke: #008000; stroke-width: 2; stroke-linecap: square"/>
    </g>
    <g id="text_16">
     <!-- $s=0.3$ -->
     <g transform="translate(103.202243 61.577896) scale(0.12 -0.12)">
      <defs>
       <path id="CMR17-33" d="M 1414 2157 
C 1984 2157 2234 1662 2234 1090 
C 2234 320 1824 25 1453 25 
C 1114 25 563 194 390 693 
C 422 680 454 680 486 680 
C 640 680 755 782 755 948 
C 755 1133 614 1216 486 1216 
C 378 1216 211 1165 211 926 
C 211 335 787 -128 1466 -128 
C 2176 -128 2720 430 2720 1085 
C 2720 1707 2208 2157 1600 2227 
C 2086 2328 2554 2756 2554 3329 
C 2554 3820 2048 4179 1472 4179 
C 890 4179 378 3829 378 3329 
C 378 3110 544 3072 627 3072 
C 762 3072 877 3155 877 3321 
C 877 3486 762 3569 627 3569 
C 602 3569 570 3569 544 3557 
C 730 3959 1235 4032 1459 4032 
C 1683 4032 2106 3925 2106 3320 
C 2106 3143 2080 2828 1862 2550 
C 1670 2304 1453 2304 1242 2284 
C 1210 2284 1062 2269 1037 2269 
C 992 2263 966 2257 966 2208 
C 966 2163 973 2157 1101 2157 
L 1414 2157 
z
" transform="scale(0.015625)"/>
      </defs>
      <use xlink:href="#CMMI12-73" transform="scale(0.996264)"/>
      <use xlink:href="#CMR17-3d" transform="translate(73.624056 0) scale(0.996264)"/>
      <use xlink:href="#CMR17-30" transform="translate(173.012853 0) scale(0.996264)"/>
      <use xlink:href="#CMMI12-3a" transform="translate(218.703331 0) scale(0.996264)"/>
      <use xlink:href="#CMR17-33" transform="translate(245.800508 0) scale(0.996264)"/>
     </g>
    </g>
    <g id="line2d_30">
     <path d="M 69.602243 74.102492 
L 81.602243 74.102492 
L 93.602243 74.102492 
" style="fill: none; stroke: #0000ff; stroke-width: 2; stroke-linecap: square"/>
    </g>
    <g id="text_17">
     <!-- $s=1$ -->
     <g transform="translate(103.202243 78.302492) scale(0.12 -0.12)">
      <use xlink:href="#CMMI12-73" transform="scale(0.996264)"/>
      <use xlink:href="#CMR17-3d" transform="translate(73.624056 0) scale(0.996264)"/>
      <use xlink:href="#CMR17-31" transform="translate(173.012853 0) scale(0.996264)"/>
     </g>
    </g>
    <g id="line2d_31">
     <path d="M 69.602243 90.827087 
L 81.602243 90.827087 
L 93.602243 90.827087 
" style="fill: none; stroke: #ffa500; stroke-width: 2; stroke-linecap: square"/>
    </g>
    <g id="text_18">
     <!-- $s=3$ -->
     <g transform="translate(103.202243 95.027087) scale(0.12 -0.12)">
      <use xlink:href="#CMMI12-73" transform="scale(0.996264)"/>
      <use xlink:href="#CMR17-3d" transform="translate(73.624056 0) scale(0.996264)"/>
      <use xlink:href="#CMR17-33" transform="translate(173.012853 0) scale(0.996264)"/>
     </g>
    </g>
    <g id="line2d_32">
     <path d="M 69.602243 107.551683 
L 81.602243 107.551683 
L 93.602243 107.551683 
" style="fill: none; stroke: #a52a2a; stroke-width: 2; stroke-linecap: square"/>
    </g>
    <g id="text_19">
     <!-- $s=10$ -->
     <g transform="translate(103.202243 111.751683) scale(0.12 -0.12)">
      <use xlink:href="#CMMI12-73" transform="scale(0.996264)"/>
      <use xlink:href="#CMR17-3d" transform="translate(73.624056 0) scale(0.996264)"/>
      <use xlink:href="#CMR17-31" transform="translate(173.012853 0) scale(0.996264)"/>
      <use xlink:href="#CMR17-30" transform="translate(218.703331 0) scale(0.996264)"/>
     </g>
    </g>
   </g>
  </g>
 </g>
 <defs>
  <clipPath id="p16c71ecdb7">
   <rect x="58.802243" y="25.6533" width="357.12" height="266.112"/>
  </clipPath>
 </defs>
</svg>