<?xml version="1.0" encoding="utf-8" standalone="no"?>
<!DOCTYPE svg PUBLIC "-//W3C//DTD SVG 1.1//EN"
  "http://www.w3.org/Graphics/SVG/1.1/DTD/svg11.dtd">
<svg xmlns:xlink="http://www.w3.org/1999/xlink" width="529.9625pt" height="338.89625pt" viewBox="0 0 529.9625 338.89625" xmlns="http://www.w3.org/2000/svg" version="1.1">
 <metadata>
  <rdf:RDF xmlns:dc="http://purl.org/dc/elements/1.1/" xmlns:cc="http://creativecommons.org/ns#" xmlns:rdf="http://www.w3.org/1999/02/22-rdf-syntax-ns#">
   <cc:Work>
    <dc:type rdf:resource="http://purl.org/dc/dcmitype/StillImage"/>
    <dc:date>2024-02-21T09:35:48.635700</dc:date>
    <dc:format>image/svg+xml</dc:format>
    <dc:creator>
     <cc:Agent>
      <dc:title>Matplotlib v3.7.1, https://matplotlib.org/</dc:title>
     </cc:Agent>
    </dc:creator>
   </cc:Work>
  </rdf:RDF>
 </metadata>
 <defs>
  <style type="text/css">*{stroke-linejoin: round; stroke-linecap: butt}</style>
 </defs>
 <g id="figure_1">
  <g id="patch_1">
   <path d="M 0 338.89625 
L 529.9625 338.89625 
L 529.9625 0 
L 0 0 
z
" style="fill: #ffffff"/>
  </g>
  <g id="axes_1">
   <g id="patch_2">
    <path d="M 20.5625 299.518125 
L 522.7625 299.518125 
L 522.7625 22.318125 
L 20.5625 22.318125 
z
" style="fill: #ffffff"/>
   </g>
   <g id="patch_3">
    <path d="M 239.311349 299.518125 
L 239.703223 299.518125 
L 239.703223 297.894561 
L 239.311349 297.894561 
z
" clip-path="url(#p9f30a6f6a7)" style="fill: #ff0000"/>
   </g>
   <g id="patch_4">
    <path d="M 239.703223 299.518125 
L 240.095098 299.518125 
L 240.095098 299.518125 
L 239.703223 299.518125 
z
" clip-path="url(#p9f30a6f6a7)" style="fill: #ff0000"/>
   </g>
   <g id="patch_5">
    <path d="M 240.095098 299.518125 
L 240.486972 299.518125 
L 240.486972 299.518125 
L 240.095098 299.518125 
z
" clip-path="url(#p9f30a6f6a7)" style="fill: #ff0000"/>
   </g>
   <g id="patch_6">
    <path d="M 240.486972 299.518125 
L 240.878846 299.518125 
L 240.878846 297.353373 
L 240.486972 297.353373 
z
" clip-path="url(#p9f30a6f6a7)" style="fill: #ff0000"/>
   </g>
   <g id="patch_7">
    <path d="M 240.878846 299.518125 
L 241.270721 299.518125 
L 241.270721 298.435749 
L 240.878846 298.435749 
z
" clip-path="url(#p9f30a6f6a7)" style="fill: #ff0000"/>
   </g>
   <g id="patch_8">
    <path d="M 241.270721 299.518125 
L 241.662595 299.518125 
L 241.662595 298.435749 
L 241.270721 298.435749 
z
" clip-path="url(#p9f30a6f6a7)" style="fill: #ff0000"/>
   </g>
   <g id="patch_9">
    <path d="M 241.662595 299.518125 
L 242.05447 299.518125 
L 242.05447 299.518125 
L 241.662595 299.518125 
z
" clip-path="url(#p9f30a6f6a7)" style="fill: #ff0000"/>
   </g>
   <g id="patch_10">
    <path d="M 242.05447 299.518125 
L 242.446344 299.518125 
L 242.446344 296.270998 
L 242.05447 296.270998 
z
" clip-path="url(#p9f30a6f6a7)" style="fill: #ff0000"/>
   </g>
   <g id="patch_11">
    <path d="M 242.446344 299.518125 
L 242.838219 299.518125 
L 242.838219 295.188622 
L 242.446344 295.188622 
z
" clip-path="url(#p9f30a6f6a7)" style="fill: #ff0000"/>
   </g>
   <g id="patch_12">
    <path d="M 242.838219 299.518125 
L 243.230093 299.518125 
L 243.230093 293.565058 
L 242.838219 293.565058 
z
" clip-path="url(#p9f30a6f6a7)" style="fill: #ff0000"/>
   </g>
   <g id="patch_13">
    <path d="M 243.230093 299.518125 
L 243.621968 299.518125 
L 243.621968 295.72981 
L 243.230093 295.72981 
z
" clip-path="url(#p9f30a6f6a7)" style="fill: #ff0000"/>
   </g>
   <g id="patch_14">
    <path d="M 243.621968 299.518125 
L 244.013842 299.518125 
L 244.013842 290.859119 
L 243.621968 290.859119 
z
" clip-path="url(#p9f30a6f6a7)" style="fill: #ff0000"/>
   </g>
   <g id="patch_15">
    <path d="M 244.013842 299.518125 
L 244.405716 299.518125 
L 244.405716 290.317931 
L 244.013842 290.317931 
z
" clip-path="url(#p9f30a6f6a7)" style="fill: #ff0000"/>
   </g>
   <g id="patch_16">
    <path d="M 244.405716 299.518125 
L 244.797591 299.518125 
L 244.797591 283.282488 
L 244.405716 283.282488 
z
" clip-path="url(#p9f30a6f6a7)" style="fill: #ff0000"/>
   </g>
   <g id="patch_17">
    <path d="M 244.797591 299.518125 
L 245.189465 299.518125 
L 245.189465 278.411797 
L 244.797591 278.411797 
z
" clip-path="url(#p9f30a6f6a7)" style="fill: #ff0000"/>
   </g>
   <g id="patch_18">
    <path d="M 245.189465 299.518125 
L 245.58134 299.518125 
L 245.58134 275.705858 
L 245.189465 275.705858 
z
" clip-path="url(#p9f30a6f6a7)" style="fill: #ff0000"/>
   </g>
   <g id="patch_19">
    <path d="M 245.58134 299.518125 
L 245.973214 299.518125 
L 245.973214 265.964476 
L 245.58134 265.964476 
z
" clip-path="url(#p9f30a6f6a7)" style="fill: #ff0000"/>
   </g>
   <g id="patch_20">
    <path d="M 245.973214 299.518125 
L 246.365089 299.518125 
L 246.365089 266.505663 
L 245.973214 266.505663 
z
" clip-path="url(#p9f30a6f6a7)" style="fill: #ff0000"/>
   </g>
   <g id="patch_21">
    <path d="M 246.365089 299.518125 
L 246.756963 299.518125 
L 246.756963 265.964476 
L 246.365089 265.964476 
z
" clip-path="url(#p9f30a6f6a7)" style="fill: #ff0000"/>
   </g>
   <g id="patch_22">
    <path d="M 246.756963 299.518125 
L 247.148837 299.518125 
L 247.148837 239.987457 
L 246.756963 239.987457 
z
" clip-path="url(#p9f30a6f6a7)" style="fill: #ff0000"/>
   </g>
   <g id="patch_23">
    <path d="M 247.148837 299.518125 
L 247.540712 299.518125 
L 247.540712 251.352402 
L 247.148837 251.352402 
z
" clip-path="url(#p9f30a6f6a7)" style="fill: #ff0000"/>
   </g>
   <g id="patch_24">
    <path d="M 247.540712 299.518125 
L 247.932586 299.518125 
L 247.932586 223.75182 
L 247.540712 223.75182 
z
" clip-path="url(#p9f30a6f6a7)" style="fill: #ff0000"/>
   </g>
   <g id="patch_25">
    <path d="M 247.932586 299.518125 
L 248.324461 299.518125 
L 248.324461 196.692425 
L 247.932586 196.692425 
z
" clip-path="url(#p9f30a6f6a7)" style="fill: #ff0000"/>
   </g>
   <g id="patch_26">
    <path d="M 248.324461 299.518125 
L 248.716335 299.518125 
L 248.716335 200.48074 
L 248.324461 200.48074 
z
" clip-path="url(#p9f30a6f6a7)" style="fill: #ff0000"/>
   </g>
   <g id="patch_27">
    <path d="M 248.716335 299.518125 
L 249.10821 299.518125 
L 249.10821 212.928062 
L 248.716335 212.928062 
z
" clip-path="url(#p9f30a6f6a7)" style="fill: #ff0000"/>
   </g>
   <g id="patch_28">
    <path d="M 249.10821 299.518125 
L 249.500084 299.518125 
L 249.500084 190.19817 
L 249.10821 190.19817 
z
" clip-path="url(#p9f30a6f6a7)" style="fill: #ff0000"/>
   </g>
   <g id="patch_29">
    <path d="M 249.500084 299.518125 
L 249.891959 299.518125 
L 249.891959 144.738387 
L 249.500084 144.738387 
z
" clip-path="url(#p9f30a6f6a7)" style="fill: #ff0000"/>
   </g>
   <g id="patch_30">
    <path d="M 249.891959 299.518125 
L 250.283833 299.518125 
L 250.283833 161.515212 
L 249.891959 161.515212 
z
" clip-path="url(#p9f30a6f6a7)" style="fill: #ff0000"/>
   </g>
   <g id="patch_31">
    <path d="M 250.283833 299.518125 
L 250.675707 299.518125 
L 250.675707 152.315018 
L 250.283833 152.315018 
z
" clip-path="url(#p9f30a6f6a7)" style="fill: #ff0000"/>
   </g>
   <g id="patch_32">
    <path d="M 250.675707 299.518125 
L 251.067582 299.518125 
L 251.067582 138.244132 
L 250.675707 138.244132 
z
" clip-path="url(#p9f30a6f6a7)" style="fill: #ff0000"/>
   </g>
   <g id="patch_33">
    <path d="M 251.067582 299.518125 
L 251.459456 299.518125 
L 251.459456 113.349489 
L 251.067582 113.349489 
z
" clip-path="url(#p9f30a6f6a7)" style="fill: #ff0000"/>
   </g>
   <g id="patch_34">
    <path d="M 251.459456 299.518125 
L 251.851331 299.518125 
L 251.851331 106.314047 
L 251.459456 106.314047 
z
" clip-path="url(#p9f30a6f6a7)" style="fill: #ff0000"/>
   </g>
   <g id="patch_35">
    <path d="M 251.851331 299.518125 
L 252.243205 299.518125 
L 252.243205 118.22018 
L 251.851331 118.22018 
z
" clip-path="url(#p9f30a6f6a7)" style="fill: #ff0000"/>
   </g>
   <g id="patch_36">
    <path d="M 252.243205 299.518125 
L 252.63508 299.518125 
L 252.63508 95.490289 
L 252.243205 95.490289 
z
" clip-path="url(#p9f30a6f6a7)" style="fill: #ff0000"/>
   </g>
   <g id="patch_37">
    <path d="M 252.63508 299.518125 
L 253.026954 299.518125 
L 253.026954 42.453875 
L 252.63508 42.453875 
z
" clip-path="url(#p9f30a6f6a7)" style="fill: #ff0000"/>
   </g>
   <g id="patch_38">
    <path d="M 253.026954 299.518125 
L 253.418828 299.518125 
L 253.418828 89.537222 
L 253.026954 89.537222 
z
" clip-path="url(#p9f30a6f6a7)" style="fill: #ff0000"/>
   </g>
   <g id="patch_39">
    <path d="M 253.418828 299.518125 
L 253.810703 299.518125 
L 253.810703 81.960591 
L 253.418828 81.960591 
z
" clip-path="url(#p9f30a6f6a7)" style="fill: #ff0000"/>
   </g>
   <g id="patch_40">
    <path d="M 253.810703 299.518125 
L 254.202577 299.518125 
L 254.202577 90.619598 
L 253.810703 90.619598 
z
" clip-path="url(#p9f30a6f6a7)" style="fill: #ff0000"/>
   </g>
   <g id="patch_41">
    <path d="M 254.202577 299.518125 
L 254.594452 299.518125 
L 254.594452 52.195257 
L 254.202577 52.195257 
z
" clip-path="url(#p9f30a6f6a7)" style="fill: #ff0000"/>
   </g>
   <g id="patch_42">
    <path d="M 254.594452 299.518125 
L 254.986326 299.518125 
L 254.986326 101.984544 
L 254.594452 101.984544 
z
" clip-path="url(#p9f30a6f6a7)" style="fill: #ff0000"/>
   </g>
   <g id="patch_43">
    <path d="M 254.986326 299.518125 
L 255.378201 299.518125 
L 255.378201 98.737416 
L 254.986326 98.737416 
z
" clip-path="url(#p9f30a6f6a7)" style="fill: #ff0000"/>
   </g>
   <g id="patch_44">
    <path d="M 255.378201 299.518125 
L 255.770075 299.518125 
L 255.770075 79.79584 
L 255.378201 79.79584 
z
" clip-path="url(#p9f30a6f6a7)" style="fill: #ff0000"/>
   </g>
   <g id="patch_45">
    <path d="M 255.770075 299.518125 
L 256.16195 299.518125 
L 256.16195 136.620569 
L 255.770075 136.620569 
z
" clip-path="url(#p9f30a6f6a7)" style="fill: #ff0000"/>
   </g>
   <g id="patch_46">
    <path d="M 256.16195 299.518125 
L 256.553824 299.518125 
L 256.553824 136.620569 
L 256.16195 136.620569 
z
" clip-path="url(#p9f30a6f6a7)" style="fill: #ff0000"/>
   </g>
   <g id="patch_47">
    <path d="M 256.553824 299.518125 
L 256.945698 299.518125 
L 256.945698 152.315018 
L 256.553824 152.315018 
z
" clip-path="url(#p9f30a6f6a7)" style="fill: #ff0000"/>
   </g>
   <g id="patch_48">
    <path d="M 256.945698 299.518125 
L 257.337573 299.518125 
L 257.337573 138.78532 
L 256.945698 138.78532 
z
" clip-path="url(#p9f30a6f6a7)" style="fill: #ff0000"/>
   </g>
   <g id="patch_49">
    <path d="M 257.337573 299.518125 
L 257.729447 299.518125 
L 257.729447 172.880158 
L 257.337573 172.880158 
z
" clip-path="url(#p9f30a6f6a7)" style="fill: #ff0000"/>
   </g>
   <g id="patch_50">
    <path d="M 257.729447 299.518125 
L 258.121322 299.518125 
L 258.121322 188.574607 
L 257.729447 188.574607 
z
" clip-path="url(#p9f30a6f6a7)" style="fill: #ff0000"/>
   </g>
   <g id="patch_51">
    <path d="M 258.121322 299.518125 
L 258.513196 299.518125 
L 258.513196 202.645492 
L 258.121322 202.645492 
z
" clip-path="url(#p9f30a6f6a7)" style="fill: #ff0000"/>
   </g>
   <g id="patch_52">
    <path d="M 258.513196 299.518125 
L 258.905071 299.518125 
L 258.905071 197.233613 
L 258.513196 197.233613 
z
" clip-path="url(#p9f30a6f6a7)" style="fill: #ff0000"/>
   </g>
   <g id="patch_53">
    <path d="M 258.905071 299.518125 
L 259.296945 299.518125 
L 259.296945 229.163699 
L 258.905071 229.163699 
z
" clip-path="url(#p9f30a6f6a7)" style="fill: #ff0000"/>
   </g>
   <g id="patch_54">
    <path d="M 259.296945 299.518125 
L 259.68882 299.518125 
L 259.68882 239.446269 
L 259.296945 239.446269 
z
" clip-path="url(#p9f30a6f6a7)" style="fill: #ff0000"/>
   </g>
   <g id="patch_55">
    <path d="M 259.68882 299.518125 
L 260.080694 299.518125 
L 260.080694 248.105275 
L 259.68882 248.105275 
z
" clip-path="url(#p9f30a6f6a7)" style="fill: #ff0000"/>
   </g>
   <g id="patch_56">
    <path d="M 260.080694 299.518125 
L 260.472568 299.518125 
L 260.472568 244.858148 
L 260.080694 244.858148 
z
" clip-path="url(#p9f30a6f6a7)" style="fill: #ff0000"/>
   </g>
   <g id="patch_57">
    <path d="M 260.472568 299.518125 
L 260.864443 299.518125 
L 260.864443 256.223093 
L 260.472568 256.223093 
z
" clip-path="url(#p9f30a6f6a7)" style="fill: #ff0000"/>
   </g>
   <g id="patch_58">
    <path d="M 260.864443 299.518125 
L 261.256317 299.518125 
L 261.256317 269.211603 
L 260.864443 269.211603 
z
" clip-path="url(#p9f30a6f6a7)" style="fill: #ff0000"/>
   </g>
   <g id="patch_59">
    <path d="M 261.256317 299.518125 
L 261.648192 299.518125 
L 261.648192 270.293979 
L 261.256317 270.293979 
z
" clip-path="url(#p9f30a6f6a7)" style="fill: #ff0000"/>
   </g>
   <g id="patch_60">
    <path d="M 261.648192 299.518125 
L 262.040066 299.518125 
L 262.040066 275.16467 
L 261.648192 275.16467 
z
" clip-path="url(#p9f30a6f6a7)" style="fill: #ff0000"/>
   </g>
   <g id="patch_61">
    <path d="M 262.040066 299.518125 
L 262.431941 299.518125 
L 262.431941 283.823676 
L 262.040066 283.823676 
z
" clip-path="url(#p9f30a6f6a7)" style="fill: #ff0000"/>
   </g>
   <g id="patch_62">
    <path d="M 262.431941 299.518125 
L 262.823815 299.518125 
L 262.823815 290.859119 
L 262.431941 290.859119 
z
" clip-path="url(#p9f30a6f6a7)" style="fill: #ff0000"/>
   </g>
   <g id="patch_63">
    <path d="M 262.823815 299.518125 
L 263.215689 299.518125 
L 263.215689 284.364864 
L 262.823815 284.364864 
z
" clip-path="url(#p9f30a6f6a7)" style="fill: #ff0000"/>
   </g>
   <g id="patch_64">
    <path d="M 263.215689 299.518125 
L 263.607564 299.518125 
L 263.607564 291.400307 
L 263.215689 291.400307 
z
" clip-path="url(#p9f30a6f6a7)" style="fill: #ff0000"/>
   </g>
   <g id="patch_65">
    <path d="M 263.607564 299.518125 
L 263.999438 299.518125 
L 263.999438 291.400307 
L 263.607564 291.400307 
z
" clip-path="url(#p9f30a6f6a7)" style="fill: #ff0000"/>
   </g>
   <g id="patch_66">
    <path d="M 263.999438 299.518125 
L 264.391313 299.518125 
L 264.391313 296.812186 
L 263.999438 296.812186 
z
" clip-path="url(#p9f30a6f6a7)" style="fill: #ff0000"/>
   </g>
   <g id="patch_67">
    <path d="M 264.391313 299.518125 
L 264.783187 299.518125 
L 264.783187 294.647434 
L 264.391313 294.647434 
z
" clip-path="url(#p9f30a6f6a7)" style="fill: #ff0000"/>
   </g>
   <g id="patch_68">
    <path d="M 264.783187 299.518125 
L 265.175062 299.518125 
L 265.175062 297.353373 
L 264.783187 297.353373 
z
" clip-path="url(#p9f30a6f6a7)" style="fill: #ff0000"/>
   </g>
   <g id="patch_69">
    <path d="M 265.175062 299.518125 
L 265.566936 299.518125 
L 265.566936 299.518125 
L 265.175062 299.518125 
z
" clip-path="url(#p9f30a6f6a7)" style="fill: #ff0000"/>
   </g>
   <g id="patch_70">
    <path d="M 265.566936 299.518125 
L 265.958811 299.518125 
L 265.958811 298.976937 
L 265.566936 298.976937 
z
" clip-path="url(#p9f30a6f6a7)" style="fill: #ff0000"/>
   </g>
   <g id="patch_71">
    <path d="M 265.958811 299.518125 
L 266.350685 299.518125 
L 266.350685 297.894561 
L 265.958811 297.894561 
z
" clip-path="url(#p9f30a6f6a7)" style="fill: #ff0000"/>
   </g>
   <g id="patch_72">
    <path d="M 266.350685 299.518125 
L 266.742559 299.518125 
L 266.742559 298.976937 
L 266.350685 298.976937 
z
" clip-path="url(#p9f30a6f6a7)" style="fill: #ff0000"/>
   </g>
   <g id="patch_73">
    <path d="M 266.742559 299.518125 
L 267.134434 299.518125 
L 267.134434 298.976937 
L 266.742559 298.976937 
z
" clip-path="url(#p9f30a6f6a7)" style="fill: #ff0000"/>
   </g>
   <g id="patch_74">
    <path d="M 267.134434 299.518125 
L 267.526308 299.518125 
L 267.526308 299.518125 
L 267.134434 299.518125 
z
" clip-path="url(#p9f30a6f6a7)" style="fill: #ff0000"/>
   </g>
   <g id="patch_75">
    <path d="M 267.526308 299.518125 
L 267.918183 299.518125 
L 267.918183 299.518125 
L 267.526308 299.518125 
z
" clip-path="url(#p9f30a6f6a7)" style="fill: #ff0000"/>
   </g>
   <g id="patch_76">
    <path d="M 267.918183 299.518125 
L 268.310057 299.518125 
L 268.310057 299.518125 
L 267.918183 299.518125 
z
" clip-path="url(#p9f30a6f6a7)" style="fill: #ff0000"/>
   </g>
   <g id="patch_77">
    <path d="M 268.310057 299.518125 
L 268.701932 299.518125 
L 268.701932 299.518125 
L 268.310057 299.518125 
z
" clip-path="url(#p9f30a6f6a7)" style="fill: #ff0000"/>
   </g>
   <g id="patch_78">
    <path d="M 268.701932 299.518125 
L 269.093806 299.518125 
L 269.093806 299.518125 
L 268.701932 299.518125 
z
" clip-path="url(#p9f30a6f6a7)" style="fill: #ff0000"/>
   </g>
   <g id="patch_79">
    <path d="M 269.093806 299.518125 
L 269.485681 299.518125 
L 269.485681 299.518125 
L 269.093806 299.518125 
z
" clip-path="url(#p9f30a6f6a7)" style="fill: #ff0000"/>
   </g>
   <g id="patch_80">
    <path d="M 269.485681 299.518125 
L 269.877555 299.518125 
L 269.877555 299.518125 
L 269.485681 299.518125 
z
" clip-path="url(#p9f30a6f6a7)" style="fill: #ff0000"/>
   </g>
   <g id="patch_81">
    <path d="M 269.877555 299.518125 
L 270.269429 299.518125 
L 270.269429 299.518125 
L 269.877555 299.518125 
z
" clip-path="url(#p9f30a6f6a7)" style="fill: #ff0000"/>
   </g>
   <g id="patch_82">
    <path d="M 270.269429 299.518125 
L 270.661304 299.518125 
L 270.661304 298.976937 
L 270.269429 298.976937 
z
" clip-path="url(#p9f30a6f6a7)" style="fill: #ff0000"/>
   </g>
   <g id="patch_83">
    <path d="M 457.321815 299.518125 
L 457.854483 299.518125 
L 457.854483 299.119982 
L 457.321815 299.119982 
z
" clip-path="url(#p9f30a6f6a7)" style="fill: #ffa500"/>
   </g>
   <g id="patch_84">
    <path d="M 457.854483 299.518125 
L 458.38715 299.518125 
L 458.38715 298.72184 
L 457.854483 298.72184 
z
" clip-path="url(#p9f30a6f6a7)" style="fill: #ffa500"/>
   </g>
   <g id="patch_85">
    <path d="M 458.38715 299.518125 
L 458.919818 299.518125 
L 458.919818 299.119982 
L 458.38715 299.119982 
z
" clip-path="url(#p9f30a6f6a7)" style="fill: #ffa500"/>
   </g>
   <g id="patch_86">
    <path d="M 458.919818 299.518125 
L 459.452486 299.518125 
L 459.452486 298.72184 
L 458.919818 298.72184 
z
" clip-path="url(#p9f30a6f6a7)" style="fill: #ffa500"/>
   </g>
   <g id="patch_87">
    <path d="M 459.452486 299.518125 
L 459.985153 299.518125 
L 459.985153 297.925554 
L 459.452486 297.925554 
z
" clip-path="url(#p9f30a6f6a7)" style="fill: #ffa500"/>
   </g>
   <g id="patch_88">
    <path d="M 459.985153 299.518125 
L 460.517821 299.518125 
L 460.517821 298.72184 
L 459.985153 298.72184 
z
" clip-path="url(#p9f30a6f6a7)" style="fill: #ffa500"/>
   </g>
   <g id="patch_89">
    <path d="M 460.517821 299.518125 
L 461.050489 299.518125 
L 461.050489 299.119982 
L 460.517821 299.119982 
z
" clip-path="url(#p9f30a6f6a7)" style="fill: #ffa500"/>
   </g>
   <g id="patch_90">
    <path d="M 461.050489 299.518125 
L 461.583156 299.518125 
L 461.583156 298.72184 
L 461.050489 298.72184 
z
" clip-path="url(#p9f30a6f6a7)" style="fill: #ffa500"/>
   </g>
   <g id="patch_91">
    <path d="M 461.583156 299.518125 
L 462.115824 299.518125 
L 462.115824 298.323697 
L 461.583156 298.323697 
z
" clip-path="url(#p9f30a6f6a7)" style="fill: #ffa500"/>
   </g>
   <g id="patch_92">
    <path d="M 462.115824 299.518125 
L 462.648492 299.518125 
L 462.648492 295.934841 
L 462.115824 295.934841 
z
" clip-path="url(#p9f30a6f6a7)" style="fill: #ffa500"/>
   </g>
   <g id="patch_93">
    <path d="M 462.648492 299.518125 
L 463.181159 299.518125 
L 463.181159 295.536699 
L 462.648492 295.536699 
z
" clip-path="url(#p9f30a6f6a7)" style="fill: #ffa500"/>
   </g>
   <g id="patch_94">
    <path d="M 463.181159 299.518125 
L 463.713827 299.518125 
L 463.713827 293.944128 
L 463.181159 293.944128 
z
" clip-path="url(#p9f30a6f6a7)" style="fill: #ffa500"/>
   </g>
   <g id="patch_95">
    <path d="M 463.713827 299.518125 
L 464.246495 299.518125 
L 464.246495 293.944128 
L 463.713827 293.944128 
z
" clip-path="url(#p9f30a6f6a7)" style="fill: #ffa500"/>
   </g>
   <g id="patch_96">
    <path d="M 464.246495 299.518125 
L 464.779162 299.518125 
L 464.779162 292.7497 
L 464.246495 292.7497 
z
" clip-path="url(#p9f30a6f6a7)" style="fill: #ffa500"/>
   </g>
   <g id="patch_97">
    <path d="M 464.779162 299.518125 
L 465.31183 299.518125 
L 465.31183 291.953415 
L 464.779162 291.953415 
z
" clip-path="url(#p9f30a6f6a7)" style="fill: #ffa500"/>
   </g>
   <g id="patch_98">
    <path d="M 465.31183 299.518125 
L 465.844498 299.518125 
L 465.844498 288.370131 
L 465.31183 288.370131 
z
" clip-path="url(#p9f30a6f6a7)" style="fill: #ffa500"/>
   </g>
   <g id="patch_99">
    <path d="M 465.844498 299.518125 
L 466.377165 299.518125 
L 466.377165 280.805421 
L 465.844498 280.805421 
z
" clip-path="url(#p9f30a6f6a7)" style="fill: #ffa500"/>
   </g>
   <g id="patch_100">
    <path d="M 466.377165 299.518125 
L 466.909833 299.518125 
L 466.909833 276.823995 
L 466.377165 276.823995 
z
" clip-path="url(#p9f30a6f6a7)" style="fill: #ffa500"/>
   </g>
   <g id="patch_101">
    <path d="M 466.909833 299.518125 
L 467.442501 299.518125 
L 467.442501 282.397992 
L 466.909833 282.397992 
z
" clip-path="url(#p9f30a6f6a7)" style="fill: #ffa500"/>
   </g>
   <g id="patch_102">
    <path d="M 467.442501 299.518125 
L 467.975168 299.518125 
L 467.975168 278.814708 
L 467.442501 278.814708 
z
" clip-path="url(#p9f30a6f6a7)" style="fill: #ffa500"/>
   </g>
   <g id="patch_103">
    <path d="M 467.975168 299.518125 
L 468.507836 299.518125 
L 468.507836 273.638854 
L 467.975168 273.638854 
z
" clip-path="url(#p9f30a6f6a7)" style="fill: #ffa500"/>
   </g>
   <g id="patch_104">
    <path d="M 468.507836 299.518125 
L 469.040504 299.518125 
L 469.040504 262.49086 
L 468.507836 262.49086 
z
" clip-path="url(#p9f30a6f6a7)" style="fill: #ffa500"/>
   </g>
   <g id="patch_105">
    <path d="M 469.040504 299.518125 
L 469.573171 299.518125 
L 469.573171 259.305719 
L 469.040504 259.305719 
z
" clip-path="url(#p9f30a6f6a7)" style="fill: #ffa500"/>
   </g>
   <g id="patch_106">
    <path d="M 469.573171 299.518125 
L 470.105839 299.518125 
L 470.105839 257.713148 
L 469.573171 257.713148 
z
" clip-path="url(#p9f30a6f6a7)" style="fill: #ffa500"/>
   </g>
   <g id="patch_107">
    <path d="M 470.105839 299.518125 
L 470.638506 299.518125 
L 470.638506 253.333579 
L 470.105839 253.333579 
z
" clip-path="url(#p9f30a6f6a7)" style="fill: #ffa500"/>
   </g>
   <g id="patch_108">
    <path d="M 470.638506 299.518125 
L 471.171174 299.518125 
L 471.171174 242.583728 
L 470.638506 242.583728 
z
" clip-path="url(#p9f30a6f6a7)" style="fill: #ffa500"/>
   </g>
   <g id="patch_109">
    <path d="M 471.171174 299.518125 
L 471.703842 299.518125 
L 471.703842 238.204159 
L 471.171174 238.204159 
z
" clip-path="url(#p9f30a6f6a7)" style="fill: #ffa500"/>
   </g>
   <g id="patch_110">
    <path d="M 471.703842 299.518125 
L 472.236509 299.518125 
L 472.236509 207.945319 
L 471.703842 207.945319 
z
" clip-path="url(#p9f30a6f6a7)" style="fill: #ffa500"/>
   </g>
   <g id="patch_111">
    <path d="M 472.236509 299.518125 
L 472.769177 299.518125 
L 472.769177 221.482168 
L 472.236509 221.482168 
z
" clip-path="url(#p9f30a6f6a7)" style="fill: #ffa500"/>
   </g>
   <g id="patch_112">
    <path d="M 472.769177 299.518125 
L 473.301845 299.518125 
L 473.301845 205.15832 
L 472.769177 205.15832 
z
" clip-path="url(#p9f30a6f6a7)" style="fill: #ffa500"/>
   </g>
   <g id="patch_113">
    <path d="M 473.301845 299.518125 
L 473.834512 299.518125 
L 473.834512 218.297027 
L 473.301845 218.297027 
z
" clip-path="url(#p9f30a6f6a7)" style="fill: #ffa500"/>
   </g>
   <g id="patch_114">
    <path d="M 473.834512 299.518125 
L 474.36718 299.518125 
L 474.36718 188.834472 
L 473.834512 188.834472 
z
" clip-path="url(#p9f30a6f6a7)" style="fill: #ffa500"/>
   </g>
   <g id="patch_115">
    <path d="M 474.36718 299.518125 
L 474.899848 299.518125 
L 474.899848 180.871619 
L 474.36718 180.871619 
z
" clip-path="url(#p9f30a6f6a7)" style="fill: #ffa500"/>
   </g>
   <g id="patch_116">
    <path d="M 474.899848 299.518125 
L 475.432515 299.518125 
L 475.432515 176.093908 
L 474.899848 176.093908 
z
" clip-path="url(#p9f30a6f6a7)" style="fill: #ffa500"/>
   </g>
   <g id="patch_117">
    <path d="M 475.432515 299.518125 
L 475.965183 299.518125 
L 475.965183 172.908767 
L 475.432515 172.908767 
z
" clip-path="url(#p9f30a6f6a7)" style="fill: #ffa500"/>
   </g>
   <g id="patch_118">
    <path d="M 475.965183 299.518125 
L 476.497851 299.518125 
L 476.497851 162.557058 
L 475.965183 162.557058 
z
" clip-path="url(#p9f30a6f6a7)" style="fill: #ffa500"/>
   </g>
   <g id="patch_119">
    <path d="M 476.497851 299.518125 
L 477.030518 299.518125 
L 477.030518 166.140342 
L 476.497851 166.140342 
z
" clip-path="url(#p9f30a6f6a7)" style="fill: #ffa500"/>
   </g>
   <g id="patch_120">
    <path d="M 477.030518 299.518125 
L 477.563186 299.518125 
L 477.563186 153.79792 
L 477.030518 153.79792 
z
" clip-path="url(#p9f30a6f6a7)" style="fill: #ffa500"/>
   </g>
   <g id="patch_121">
    <path d="M 477.563186 299.518125 
L 478.095854 299.518125 
L 478.095854 174.103195 
L 477.563186 174.103195 
z
" clip-path="url(#p9f30a6f6a7)" style="fill: #ffa500"/>
   </g>
   <g id="patch_122">
    <path d="M 478.095854 299.518125 
L 478.628521 299.518125 
L 478.628521 146.23321 
L 478.095854 146.23321 
z
" clip-path="url(#p9f30a6f6a7)" style="fill: #ffa500"/>
   </g>
   <g id="patch_123">
    <path d="M 478.628521 299.518125 
L 479.161189 299.518125 
L 479.161189 153.79792 
L 478.628521 153.79792 
z
" clip-path="url(#p9f30a6f6a7)" style="fill: #ffa500"/>
   </g>
   <g id="patch_124">
    <path d="M 479.161189 299.518125 
L 479.693857 299.518125 
L 479.693857 168.131055 
L 479.161189 168.131055 
z
" clip-path="url(#p9f30a6f6a7)" style="fill: #ffa500"/>
   </g>
   <g id="patch_125">
    <path d="M 479.693857 299.518125 
L 480.226524 299.518125 
L 480.226524 148.622066 
L 479.693857 148.622066 
z
" clip-path="url(#p9f30a6f6a7)" style="fill: #ffa500"/>
   </g>
   <g id="patch_126">
    <path d="M 480.226524 299.518125 
L 480.759192 299.518125 
L 480.759192 171.316196 
L 480.226524 171.316196 
z
" clip-path="url(#p9f30a6f6a7)" style="fill: #ffa500"/>
   </g>
   <g id="patch_127">
    <path d="M 480.759192 299.518125 
L 481.291859 299.518125 
L 481.291859 154.594205 
L 480.759192 154.594205 
z
" clip-path="url(#p9f30a6f6a7)" style="fill: #ffa500"/>
   </g>
   <g id="patch_128">
    <path d="M 481.291859 299.518125 
L 481.824527 299.518125 
L 481.824527 176.093908 
L 481.291859 176.093908 
z
" clip-path="url(#p9f30a6f6a7)" style="fill: #ffa500"/>
   </g>
   <g id="patch_129">
    <path d="M 481.824527 299.518125 
L 482.357195 299.518125 
L 482.357195 170.121768 
L 481.824527 170.121768 
z
" clip-path="url(#p9f30a6f6a7)" style="fill: #ffa500"/>
   </g>
   <g id="patch_130">
    <path d="M 482.357195 299.518125 
L 482.889862 299.518125 
L 482.889862 197.59361 
L 482.357195 197.59361 
z
" clip-path="url(#p9f30a6f6a7)" style="fill: #ffa500"/>
   </g>
   <g id="patch_131">
    <path d="M 482.889862 299.518125 
L 483.42253 299.518125 
L 483.42253 190.825185 
L 482.889862 190.825185 
z
" clip-path="url(#p9f30a6f6a7)" style="fill: #ffa500"/>
   </g>
   <g id="patch_132">
    <path d="M 483.42253 299.518125 
L 483.955198 299.518125 
L 483.955198 196.399182 
L 483.42253 196.399182 
z
" clip-path="url(#p9f30a6f6a7)" style="fill: #ffa500"/>
   </g>
   <g id="patch_133">
    <path d="M 483.955198 299.518125 
L 484.487865 299.518125 
L 484.487865 211.13046 
L 483.955198 211.13046 
z
" clip-path="url(#p9f30a6f6a7)" style="fill: #ffa500"/>
   </g>
   <g id="patch_134">
    <path d="M 484.487865 299.518125 
L 485.020533 299.518125 
L 485.020533 227.454308 
L 484.487865 227.454308 
z
" clip-path="url(#p9f30a6f6a7)" style="fill: #ffa500"/>
   </g>
   <g id="patch_135">
    <path d="M 485.020533 299.518125 
L 485.553201 299.518125 
L 485.553201 217.898885 
L 485.020533 217.898885 
z
" clip-path="url(#p9f30a6f6a7)" style="fill: #ffa500"/>
   </g>
   <g id="patch_136">
    <path d="M 485.553201 299.518125 
L 486.085868 299.518125 
L 486.085868 231.833877 
L 485.553201 231.833877 
z
" clip-path="url(#p9f30a6f6a7)" style="fill: #ffa500"/>
   </g>
   <g id="patch_137">
    <path d="M 486.085868 299.518125 
L 486.618536 299.518125 
L 486.618536 228.250593 
L 486.085868 228.250593 
z
" clip-path="url(#p9f30a6f6a7)" style="fill: #ffa500"/>
   </g>
   <g id="patch_138">
    <path d="M 486.618536 299.518125 
L 487.151204 299.518125 
L 487.151204 247.759582 
L 486.618536 247.759582 
z
" clip-path="url(#p9f30a6f6a7)" style="fill: #ffa500"/>
   </g>
   <g id="patch_139">
    <path d="M 487.151204 299.518125 
L 487.683871 299.518125 
L 487.683871 241.3893 
L 487.151204 241.3893 
z
" clip-path="url(#p9f30a6f6a7)" style="fill: #ffa500"/>
   </g>
   <g id="patch_140">
    <path d="M 487.683871 299.518125 
L 488.216539 299.518125 
L 488.216539 259.703861 
L 487.683871 259.703861 
z
" clip-path="url(#p9f30a6f6a7)" style="fill: #ffa500"/>
   </g>
   <g id="patch_141">
    <path d="M 488.216539 299.518125 
L 488.749207 299.518125 
L 488.749207 262.889002 
L 488.216539 262.889002 
z
" clip-path="url(#p9f30a6f6a7)" style="fill: #ffa500"/>
   </g>
   <g id="patch_142">
    <path d="M 488.749207 299.518125 
L 489.281874 299.518125 
L 489.281874 273.240711 
L 488.749207 273.240711 
z
" clip-path="url(#p9f30a6f6a7)" style="fill: #ffa500"/>
   </g>
   <g id="patch_143">
    <path d="M 489.281874 299.518125 
L 489.814542 299.518125 
L 489.814542 264.879716 
L 489.281874 264.879716 
z
" clip-path="url(#p9f30a6f6a7)" style="fill: #ffa500"/>
   </g>
   <g id="patch_144">
    <path d="M 489.814542 299.518125 
L 490.34721 299.518125 
L 490.34721 278.416565 
L 489.814542 278.416565 
z
" clip-path="url(#p9f30a6f6a7)" style="fill: #ffa500"/>
   </g>
   <g id="patch_145">
    <path d="M 490.34721 299.518125 
L 490.879877 299.518125 
L 490.879877 280.407278 
L 490.34721 280.407278 
z
" clip-path="url(#p9f30a6f6a7)" style="fill: #ffa500"/>
   </g>
   <g id="patch_146">
    <path d="M 490.879877 299.518125 
L 491.412545 299.518125 
L 491.412545 282.796134 
L 490.879877 282.796134 
z
" clip-path="url(#p9f30a6f6a7)" style="fill: #ffa500"/>
   </g>
   <g id="patch_147">
    <path d="M 491.412545 299.518125 
L 491.945213 299.518125 
L 491.945213 286.777561 
L 491.412545 286.777561 
z
" clip-path="url(#p9f30a6f6a7)" style="fill: #ffa500"/>
   </g>
   <g id="patch_148">
    <path d="M 491.945213 299.518125 
L 492.47788 299.518125 
L 492.47788 286.777561 
L 491.945213 286.777561 
z
" clip-path="url(#p9f30a6f6a7)" style="fill: #ffa500"/>
   </g>
   <g id="patch_149">
    <path d="M 492.47788 299.518125 
L 493.010548 299.518125 
L 493.010548 289.166416 
L 492.47788 289.166416 
z
" clip-path="url(#p9f30a6f6a7)" style="fill: #ffa500"/>
   </g>
   <g id="patch_150">
    <path d="M 493.010548 299.518125 
L 493.543215 299.518125 
L 493.543215 290.758987 
L 493.010548 290.758987 
z
" clip-path="url(#p9f30a6f6a7)" style="fill: #ffa500"/>
   </g>
   <g id="patch_151">
    <path d="M 493.543215 299.518125 
L 494.075883 299.518125 
L 494.075883 291.15713 
L 493.543215 291.15713 
z
" clip-path="url(#p9f30a6f6a7)" style="fill: #ffa500"/>
   </g>
   <g id="patch_152">
    <path d="M 494.075883 299.518125 
L 494.608551 299.518125 
L 494.608551 296.731127 
L 494.075883 296.731127 
z
" clip-path="url(#p9f30a6f6a7)" style="fill: #ffa500"/>
   </g>
   <g id="patch_153">
    <path d="M 494.608551 299.518125 
L 495.141218 299.518125 
L 495.141218 296.731127 
L 494.608551 296.731127 
z
" clip-path="url(#p9f30a6f6a7)" style="fill: #ffa500"/>
   </g>
   <g id="patch_154">
    <path d="M 495.141218 299.518125 
L 495.673886 299.518125 
L 495.673886 298.323697 
L 495.141218 298.323697 
z
" clip-path="url(#p9f30a6f6a7)" style="fill: #ffa500"/>
   </g>
   <g id="patch_155">
    <path d="M 495.673886 299.518125 
L 496.206554 299.518125 
L 496.206554 297.129269 
L 495.673886 297.129269 
z
" clip-path="url(#p9f30a6f6a7)" style="fill: #ffa500"/>
   </g>
   <g id="patch_156">
    <path d="M 496.206554 299.518125 
L 496.739221 299.518125 
L 496.739221 297.527412 
L 496.206554 297.527412 
z
" clip-path="url(#p9f30a6f6a7)" style="fill: #ffa500"/>
   </g>
   <g id="patch_157">
    <path d="M 496.739221 299.518125 
L 497.271889 299.518125 
L 497.271889 297.925554 
L 496.739221 297.925554 
z
" clip-path="url(#p9f30a6f6a7)" style="fill: #ffa500"/>
   </g>
   <g id="patch_158">
    <path d="M 497.271889 299.518125 
L 497.804557 299.518125 
L 497.804557 299.119982 
L 497.271889 299.119982 
z
" clip-path="url(#p9f30a6f6a7)" style="fill: #ffa500"/>
   </g>
   <g id="patch_159">
    <path d="M 497.804557 299.518125 
L 498.337224 299.518125 
L 498.337224 298.323697 
L 497.804557 298.323697 
z
" clip-path="url(#p9f30a6f6a7)" style="fill: #ffa500"/>
   </g>
   <g id="patch_160">
    <path d="M 498.337224 299.518125 
L 498.869892 299.518125 
L 498.869892 299.119982 
L 498.337224 299.119982 
z
" clip-path="url(#p9f30a6f6a7)" style="fill: #ffa500"/>
   </g>
   <g id="patch_161">
    <path d="M 498.869892 299.518125 
L 499.40256 299.518125 
L 499.40256 298.323697 
L 498.869892 298.323697 
z
" clip-path="url(#p9f30a6f6a7)" style="fill: #ffa500"/>
   </g>
   <g id="patch_162">
    <path d="M 499.40256 299.518125 
L 499.935227 299.518125 
L 499.935227 299.119982 
L 499.40256 299.119982 
z
" clip-path="url(#p9f30a6f6a7)" style="fill: #ffa500"/>
   </g>
   <g id="patch_163">
    <path d="M 43.389773 299.518125 
L 43.716726 299.518125 
L 43.716726 298.869476 
L 43.389773 298.869476 
z
" clip-path="url(#p9f30a6f6a7)" style="fill: #bf00bf"/>
   </g>
   <g id="patch_164">
    <path d="M 43.716726 299.518125 
L 44.043679 299.518125 
L 44.043679 298.869476 
L 43.716726 298.869476 
z
" clip-path="url(#p9f30a6f6a7)" style="fill: #bf00bf"/>
   </g>
   <g id="patch_165">
    <path d="M 44.043679 299.518125 
L 44.370632 299.518125 
L 44.370632 298.869476 
L 44.043679 298.869476 
z
" clip-path="url(#p9f30a6f6a7)" style="fill: #bf00bf"/>
   </g>
   <g id="patch_166">
    <path d="M 44.370632 299.518125 
L 44.697585 299.518125 
L 44.697585 298.869476 
L 44.370632 298.869476 
z
" clip-path="url(#p9f30a6f6a7)" style="fill: #bf00bf"/>
   </g>
   <g id="patch_167">
    <path d="M 44.697585 299.518125 
L 45.024538 299.518125 
L 45.024538 298.869476 
L 44.697585 298.869476 
z
" clip-path="url(#p9f30a6f6a7)" style="fill: #bf00bf"/>
   </g>
   <g id="patch_168">
    <path d="M 45.024538 299.518125 
L 45.351491 299.518125 
L 45.351491 298.220828 
L 45.024538 298.220828 
z
" clip-path="url(#p9f30a6f6a7)" style="fill: #bf00bf"/>
   </g>
   <g id="patch_169">
    <path d="M 45.351491 299.518125 
L 45.678445 299.518125 
L 45.678445 298.869476 
L 45.351491 298.869476 
z
" clip-path="url(#p9f30a6f6a7)" style="fill: #bf00bf"/>
   </g>
   <g id="patch_170">
    <path d="M 45.678445 299.518125 
L 46.005398 299.518125 
L 46.005398 296.92353 
L 45.678445 296.92353 
z
" clip-path="url(#p9f30a6f6a7)" style="fill: #bf00bf"/>
   </g>
   <g id="patch_171">
    <path d="M 46.005398 299.518125 
L 46.332351 299.518125 
L 46.332351 291.734341 
L 46.005398 291.734341 
z
" clip-path="url(#p9f30a6f6a7)" style="fill: #bf00bf"/>
   </g>
   <g id="patch_172">
    <path d="M 46.332351 299.518125 
L 46.659304 299.518125 
L 46.659304 295.626233 
L 46.332351 295.626233 
z
" clip-path="url(#p9f30a6f6a7)" style="fill: #bf00bf"/>
   </g>
   <g id="patch_173">
    <path d="M 46.659304 299.518125 
L 46.986257 299.518125 
L 46.986257 295.626233 
L 46.659304 295.626233 
z
" clip-path="url(#p9f30a6f6a7)" style="fill: #bf00bf"/>
   </g>
   <g id="patch_174">
    <path d="M 46.986257 299.518125 
L 47.31321 299.518125 
L 47.31321 296.92353 
L 46.986257 296.92353 
z
" clip-path="url(#p9f30a6f6a7)" style="fill: #bf00bf"/>
   </g>
   <g id="patch_175">
    <path d="M 47.31321 299.518125 
L 47.640163 299.518125 
L 47.640163 290.437044 
L 47.31321 290.437044 
z
" clip-path="url(#p9f30a6f6a7)" style="fill: #bf00bf"/>
   </g>
   <g id="patch_176">
    <path d="M 47.640163 299.518125 
L 47.967116 299.518125 
L 47.967116 287.842449 
L 47.640163 287.842449 
z
" clip-path="url(#p9f30a6f6a7)" style="fill: #bf00bf"/>
   </g>
   <g id="patch_177">
    <path d="M 47.967116 299.518125 
L 48.29407 299.518125 
L 48.29407 285.247855 
L 47.967116 285.247855 
z
" clip-path="url(#p9f30a6f6a7)" style="fill: #bf00bf"/>
   </g>
   <g id="patch_178">
    <path d="M 48.29407 299.518125 
L 48.621023 299.518125 
L 48.621023 280.058666 
L 48.29407 280.058666 
z
" clip-path="url(#p9f30a6f6a7)" style="fill: #bf00bf"/>
   </g>
   <g id="patch_179">
    <path d="M 48.621023 299.518125 
L 48.947976 299.518125 
L 48.947976 272.92353 
L 48.621023 272.92353 
z
" clip-path="url(#p9f30a6f6a7)" style="fill: #bf00bf"/>
   </g>
   <g id="patch_180">
    <path d="M 48.947976 299.518125 
L 49.274929 299.518125 
L 49.274929 260.599206 
L 48.947976 260.599206 
z
" clip-path="url(#p9f30a6f6a7)" style="fill: #bf00bf"/>
   </g>
   <g id="patch_181">
    <path d="M 49.274929 299.518125 
L 49.601882 299.518125 
L 49.601882 269.031639 
L 49.274929 269.031639 
z
" clip-path="url(#p9f30a6f6a7)" style="fill: #bf00bf"/>
   </g>
   <g id="patch_182">
    <path d="M 49.601882 299.518125 
L 49.928835 299.518125 
L 49.928835 254.11272 
L 49.601882 254.11272 
z
" clip-path="url(#p9f30a6f6a7)" style="fill: #bf00bf"/>
   </g>
   <g id="patch_183">
    <path d="M 49.928835 299.518125 
L 50.255788 299.518125 
L 50.255788 250.869476 
L 49.928835 250.869476 
z
" clip-path="url(#p9f30a6f6a7)" style="fill: #bf00bf"/>
   </g>
   <g id="patch_184">
    <path d="M 50.255788 299.518125 
L 50.582741 299.518125 
L 50.582741 248.274882 
L 50.255788 248.274882 
z
" clip-path="url(#p9f30a6f6a7)" style="fill: #bf00bf"/>
   </g>
   <g id="patch_185">
    <path d="M 50.582741 299.518125 
L 50.909695 299.518125 
L 50.909695 217.788395 
L 50.582741 217.788395 
z
" clip-path="url(#p9f30a6f6a7)" style="fill: #bf00bf"/>
   </g>
   <g id="patch_186">
    <path d="M 50.909695 299.518125 
L 51.236648 299.518125 
L 51.236648 222.328936 
L 50.909695 222.328936 
z
" clip-path="url(#p9f30a6f6a7)" style="fill: #bf00bf"/>
   </g>
   <g id="patch_187">
    <path d="M 51.236648 299.518125 
L 51.563601 299.518125 
L 51.563601 213.896503 
L 51.236648 213.896503 
z
" clip-path="url(#p9f30a6f6a7)" style="fill: #bf00bf"/>
   </g>
   <g id="patch_188">
    <path d="M 51.563601 299.518125 
L 51.890554 299.518125 
L 51.890554 195.085693 
L 51.563601 195.085693 
z
" clip-path="url(#p9f30a6f6a7)" style="fill: #bf00bf"/>
   </g>
   <g id="patch_189">
    <path d="M 51.890554 299.518125 
L 52.217507 299.518125 
L 52.217507 165.896503 
L 51.890554 165.896503 
z
" clip-path="url(#p9f30a6f6a7)" style="fill: #bf00bf"/>
   </g>
   <g id="patch_190">
    <path d="M 52.217507 299.518125 
L 52.54446 299.518125 
L 52.54446 178.220828 
L 52.217507 178.220828 
z
" clip-path="url(#p9f30a6f6a7)" style="fill: #bf00bf"/>
   </g>
   <g id="patch_191">
    <path d="M 52.54446 299.518125 
L 52.871413 299.518125 
L 52.871413 171.734341 
L 52.54446 171.734341 
z
" clip-path="url(#p9f30a6f6a7)" style="fill: #bf00bf"/>
   </g>
   <g id="patch_192">
    <path d="M 52.871413 299.518125 
L 53.198366 299.518125 
L 53.198366 164.599206 
L 52.871413 164.599206 
z
" clip-path="url(#p9f30a6f6a7)" style="fill: #bf00bf"/>
   </g>
   <g id="patch_193">
    <path d="M 53.198366 299.518125 
L 53.52532 299.518125 
L 53.52532 146.437044 
L 53.198366 146.437044 
z
" clip-path="url(#p9f30a6f6a7)" style="fill: #bf00bf"/>
   </g>
   <g id="patch_194">
    <path d="M 53.52532 299.518125 
L 53.852273 299.518125 
L 53.852273 76.38299 
L 53.52532 76.38299 
z
" clip-path="url(#p9f30a6f6a7)" style="fill: #bf00bf"/>
   </g>
   <g id="patch_195">
    <path d="M 53.852273 299.518125 
L 54.179226 299.518125 
L 54.179226 116.599206 
L 53.852273 116.599206 
z
" clip-path="url(#p9f30a6f6a7)" style="fill: #bf00bf"/>
   </g>
   <g id="patch_196">
    <path d="M 54.179226 299.518125 
L 54.506179 299.518125 
L 54.506179 107.518125 
L 54.179226 107.518125 
z
" clip-path="url(#p9f30a6f6a7)" style="fill: #bf00bf"/>
   </g>
   <g id="patch_197">
    <path d="M 54.506179 299.518125 
L 54.833132 299.518125 
L 54.833132 103.626233 
L 54.506179 103.626233 
z
" clip-path="url(#p9f30a6f6a7)" style="fill: #bf00bf"/>
   </g>
   <g id="patch_198">
    <path d="M 54.833132 299.518125 
L 55.160085 299.518125 
L 55.160085 35.518125 
L 54.833132 35.518125 
z
" clip-path="url(#p9f30a6f6a7)" style="fill: #bf00bf"/>
   </g>
   <g id="patch_199">
    <path d="M 55.160085 299.518125 
L 55.487038 299.518125 
L 55.487038 92.599206 
L 55.160085 92.599206 
z
" clip-path="url(#p9f30a6f6a7)" style="fill: #bf00bf"/>
   </g>
   <g id="patch_200">
    <path d="M 55.487038 299.518125 
L 55.813991 299.518125 
L 55.813991 99.085693 
L 55.487038 99.085693 
z
" clip-path="url(#p9f30a6f6a7)" style="fill: #bf00bf"/>
   </g>
   <g id="patch_201">
    <path d="M 55.813991 299.518125 
L 56.140945 299.518125 
L 56.140945 67.950557 
L 55.813991 67.950557 
z
" clip-path="url(#p9f30a6f6a7)" style="fill: #bf00bf"/>
   </g>
   <g id="patch_202">
    <path d="M 56.140945 299.518125 
L 56.467898 299.518125 
L 56.467898 78.328936 
L 56.140945 78.328936 
z
" clip-path="url(#p9f30a6f6a7)" style="fill: #bf00bf"/>
   </g>
   <g id="patch_203">
    <path d="M 56.467898 299.518125 
L 56.794851 299.518125 
L 56.794851 67.301909 
L 56.467898 67.301909 
z
" clip-path="url(#p9f30a6f6a7)" style="fill: #bf00bf"/>
   </g>
   <g id="patch_204">
    <path d="M 56.794851 299.518125 
L 57.121804 299.518125 
L 57.121804 70.545152 
L 56.794851 70.545152 
z
" clip-path="url(#p9f30a6f6a7)" style="fill: #bf00bf"/>
   </g>
   <g id="patch_205">
    <path d="M 57.121804 299.518125 
L 57.448757 299.518125 
L 57.448757 74.437044 
L 57.121804 74.437044 
z
" clip-path="url(#p9f30a6f6a7)" style="fill: #bf00bf"/>
   </g>
   <g id="patch_206">
    <path d="M 57.448757 299.518125 
L 57.77571 299.518125 
L 57.77571 81.572179 
L 57.448757 81.572179 
z
" clip-path="url(#p9f30a6f6a7)" style="fill: #bf00bf"/>
   </g>
   <g id="patch_207">
    <path d="M 57.77571 299.518125 
L 58.102663 299.518125 
L 58.102663 58.869476 
L 57.77571 58.869476 
z
" clip-path="url(#p9f30a6f6a7)" style="fill: #bf00bf"/>
   </g>
   <g id="patch_208">
    <path d="M 58.102663 299.518125 
L 58.429616 299.518125 
L 58.429616 121.788395 
L 58.102663 121.788395 
z
" clip-path="url(#p9f30a6f6a7)" style="fill: #bf00bf"/>
   </g>
   <g id="patch_209">
    <path d="M 58.429616 299.518125 
L 58.75657 299.518125 
L 58.75657 104.274882 
L 58.429616 104.274882 
z
" clip-path="url(#p9f30a6f6a7)" style="fill: #bf00bf"/>
   </g>
   <g id="patch_210">
    <path d="M 58.75657 299.518125 
L 59.083523 299.518125 
L 59.083523 122.437044 
L 58.75657 122.437044 
z
" clip-path="url(#p9f30a6f6a7)" style="fill: #bf00bf"/>
   </g>
   <g id="patch_211">
    <path d="M 59.083523 299.518125 
L 59.410476 299.518125 
L 59.410476 99.734341 
L 59.083523 99.734341 
z
" clip-path="url(#p9f30a6f6a7)" style="fill: #bf00bf"/>
   </g>
   <g id="patch_212">
    <path d="M 59.410476 299.518125 
L 59.737429 299.518125 
L 59.737429 133.464071 
L 59.410476 133.464071 
z
" clip-path="url(#p9f30a6f6a7)" style="fill: #bf00bf"/>
   </g>
   <g id="patch_213">
    <path d="M 59.737429 299.518125 
L 60.064382 299.518125 
L 60.064382 146.437044 
L 59.737429 146.437044 
z
" clip-path="url(#p9f30a6f6a7)" style="fill: #bf00bf"/>
   </g>
   <g id="patch_214">
    <path d="M 60.064382 299.518125 
L 60.391335 299.518125 
L 60.391335 174.977584 
L 60.064382 174.977584 
z
" clip-path="url(#p9f30a6f6a7)" style="fill: #bf00bf"/>
   </g>
   <g id="patch_215">
    <path d="M 60.391335 299.518125 
L 60.718288 299.518125 
L 60.718288 175.626233 
L 60.391335 175.626233 
z
" clip-path="url(#p9f30a6f6a7)" style="fill: #bf00bf"/>
   </g>
   <g id="patch_216">
    <path d="M 60.718288 299.518125 
L 61.045241 299.518125 
L 61.045241 179.518125 
L 60.718288 179.518125 
z
" clip-path="url(#p9f30a6f6a7)" style="fill: #bf00bf"/>
   </g>
   <g id="patch_217">
    <path d="M 61.045241 299.518125 
L 61.372195 299.518125 
L 61.372195 206.11272 
L 61.045241 206.11272 
z
" clip-path="url(#p9f30a6f6a7)" style="fill: #bf00bf"/>
   </g>
   <g id="patch_218">
    <path d="M 61.372195 299.518125 
L 61.699148 299.518125 
L 61.699148 221.031639 
L 61.372195 221.031639 
z
" clip-path="url(#p9f30a6f6a7)" style="fill: #bf00bf"/>
   </g>
   <g id="patch_219">
    <path d="M 61.699148 299.518125 
L 62.026101 299.518125 
L 62.026101 232.707314 
L 61.699148 232.707314 
z
" clip-path="url(#p9f30a6f6a7)" style="fill: #bf00bf"/>
   </g>
   <g id="patch_220">
    <path d="M 62.026101 299.518125 
L 62.353054 299.518125 
L 62.353054 226.869476 
L 62.026101 226.869476 
z
" clip-path="url(#p9f30a6f6a7)" style="fill: #bf00bf"/>
   </g>
   <g id="patch_221">
    <path d="M 62.353054 299.518125 
L 62.680007 299.518125 
L 62.680007 248.274882 
L 62.353054 248.274882 
z
" clip-path="url(#p9f30a6f6a7)" style="fill: #bf00bf"/>
   </g>
   <g id="patch_222">
    <path d="M 62.680007 299.518125 
L 63.00696 299.518125 
L 63.00696 254.11272 
L 62.680007 254.11272 
z
" clip-path="url(#p9f30a6f6a7)" style="fill: #bf00bf"/>
   </g>
   <g id="patch_223">
    <path d="M 63.00696 299.518125 
L 63.333913 299.518125 
L 63.333913 258.65326 
L 63.00696 258.65326 
z
" clip-path="url(#p9f30a6f6a7)" style="fill: #bf00bf"/>
   </g>
   <g id="patch_224">
    <path d="M 63.333913 299.518125 
L 63.660866 299.518125 
L 63.660866 267.734341 
L 63.333913 267.734341 
z
" clip-path="url(#p9f30a6f6a7)" style="fill: #bf00bf"/>
   </g>
   <g id="patch_225">
    <path d="M 63.660866 299.518125 
L 63.98782 299.518125 
L 63.98782 269.031639 
L 63.660866 269.031639 
z
" clip-path="url(#p9f30a6f6a7)" style="fill: #bf00bf"/>
   </g>
   <g id="patch_226">
    <path d="M 63.98782 299.518125 
L 64.314773 299.518125 
L 64.314773 274.869476 
L 63.98782 274.869476 
z
" clip-path="url(#p9f30a6f6a7)" style="fill: #bf00bf"/>
   </g>
   <g id="patch_227">
    <path d="M 64.314773 299.518125 
L 64.641726 299.518125 
L 64.641726 275.518125 
L 64.314773 275.518125 
z
" clip-path="url(#p9f30a6f6a7)" style="fill: #bf00bf"/>
   </g>
   <g id="patch_228">
    <path d="M 64.641726 299.518125 
L 64.968679 299.518125 
L 64.968679 280.707314 
L 64.641726 280.707314 
z
" clip-path="url(#p9f30a6f6a7)" style="fill: #bf00bf"/>
   </g>
   <g id="patch_229">
    <path d="M 64.968679 299.518125 
L 65.295632 299.518125 
L 65.295632 285.896503 
L 64.968679 285.896503 
z
" clip-path="url(#p9f30a6f6a7)" style="fill: #bf00bf"/>
   </g>
   <g id="patch_230">
    <path d="M 65.295632 299.518125 
L 65.622585 299.518125 
L 65.622585 288.491098 
L 65.295632 288.491098 
z
" clip-path="url(#p9f30a6f6a7)" style="fill: #bf00bf"/>
   </g>
   <g id="patch_231">
    <path d="M 65.622585 299.518125 
L 65.949538 299.518125 
L 65.949538 289.788395 
L 65.622585 289.788395 
z
" clip-path="url(#p9f30a6f6a7)" style="fill: #bf00bf"/>
   </g>
   <g id="patch_232">
    <path d="M 65.949538 299.518125 
L 66.276491 299.518125 
L 66.276491 292.38299 
L 65.949538 292.38299 
z
" clip-path="url(#p9f30a6f6a7)" style="fill: #bf00bf"/>
   </g>
   <g id="patch_233">
    <path d="M 66.276491 299.518125 
L 66.603445 299.518125 
L 66.603445 294.977584 
L 66.276491 294.977584 
z
" clip-path="url(#p9f30a6f6a7)" style="fill: #bf00bf"/>
   </g>
   <g id="patch_234">
    <path d="M 66.603445 299.518125 
L 66.930398 299.518125 
L 66.930398 296.274882 
L 66.603445 296.274882 
z
" clip-path="url(#p9f30a6f6a7)" style="fill: #bf00bf"/>
   </g>
   <g id="patch_235">
    <path d="M 66.930398 299.518125 
L 67.257351 299.518125 
L 67.257351 296.274882 
L 66.930398 296.274882 
z
" clip-path="url(#p9f30a6f6a7)" style="fill: #bf00bf"/>
   </g>
   <g id="patch_236">
    <path d="M 67.257351 299.518125 
L 67.584304 299.518125 
L 67.584304 295.626233 
L 67.257351 295.626233 
z
" clip-path="url(#p9f30a6f6a7)" style="fill: #bf00bf"/>
   </g>
   <g id="patch_237">
    <path d="M 67.584304 299.518125 
L 67.911257 299.518125 
L 67.911257 298.220828 
L 67.584304 298.220828 
z
" clip-path="url(#p9f30a6f6a7)" style="fill: #bf00bf"/>
   </g>
   <g id="patch_238">
    <path d="M 67.911257 299.518125 
L 68.23821 299.518125 
L 68.23821 298.220828 
L 67.911257 298.220828 
z
" clip-path="url(#p9f30a6f6a7)" style="fill: #bf00bf"/>
   </g>
   <g id="patch_239">
    <path d="M 68.23821 299.518125 
L 68.565163 299.518125 
L 68.565163 298.220828 
L 68.23821 298.220828 
z
" clip-path="url(#p9f30a6f6a7)" style="fill: #bf00bf"/>
   </g>
   <g id="patch_240">
    <path d="M 68.565163 299.518125 
L 68.892116 299.518125 
L 68.892116 297.572179 
L 68.565163 297.572179 
z
" clip-path="url(#p9f30a6f6a7)" style="fill: #bf00bf"/>
   </g>
   <g id="patch_241">
    <path d="M 68.892116 299.518125 
L 69.21907 299.518125 
L 69.21907 297.572179 
L 68.892116 297.572179 
z
" clip-path="url(#p9f30a6f6a7)" style="fill: #bf00bf"/>
   </g>
   <g id="patch_242">
    <path d="M 69.21907 299.518125 
L 69.546023 299.518125 
L 69.546023 297.572179 
L 69.21907 297.572179 
z
" clip-path="url(#p9f30a6f6a7)" style="fill: #bf00bf"/>
   </g>
   <g id="matplotlib.axis_1">
    <g id="xtick_1">
     <g id="line2d_1">
      <path d="M 28.246681 299.518125 
L 28.246681 22.318125 
" clip-path="url(#p9f30a6f6a7)" style="fill: none; stroke-dasharray: 0.8,1.32; stroke-dashoffset: 0; stroke: #b0b0b0; stroke-width: 0.8"/>
     </g>
     <g id="line2d_2">
      <defs>
       <path id="m201263e796" d="M 0 0 
L 0 3.5 
" style="stroke: #000000; stroke-width: 0.8"/>
      </defs>
      <g>
       <use xlink:href="#m201263e796" x="28.246681" y="299.518125" style="stroke: #000000; stroke-width: 0.8"/>
      </g>
     </g>
     <g id="text_1">
      <!-- 2 -->
      <g transform="translate(25.065431 314.116563) scale(0.1 -0.1)">
       <defs>
        <path id="DejaVuSans-32" d="M 1228 531 
L 3431 531 
L 3431 0 
L 469 0 
L 469 531 
Q 828 903 1448 1529 
Q 2069 2156 2228 2338 
Q 2531 2678 2651 2914 
Q 2772 3150 2772 3378 
Q 2772 3750 2511 3984 
Q 2250 4219 1831 4219 
Q 1534 4219 1204 4116 
Q 875 4013 500 3803 
L 500 4441 
Q 881 4594 1212 4672 
Q 1544 4750 1819 4750 
Q 2544 4750 2975 4387 
Q 3406 4025 3406 3419 
Q 3406 3131 3298 2873 
Q 3191 2616 2906 2266 
Q 2828 2175 2409 1742 
Q 1991 1309 1228 531 
z
" transform="scale(0.015625)"/>
       </defs>
       <use xlink:href="#DejaVuSans-32"/>
      </g>
     </g>
    </g>
    <g id="xtick_2">
     <g id="line2d_3">
      <path d="M 84.563965 299.518125 
L 84.563965 22.318125 
" clip-path="url(#p9f30a6f6a7)" style="fill: none; stroke-dasharray: 0.8,1.32; stroke-dashoffset: 0; stroke: #b0b0b0; stroke-width: 0.8"/>
     </g>
     <g id="line2d_4">
      <g>
       <use xlink:href="#m201263e796" x="84.563965" y="299.518125" style="stroke: #000000; stroke-width: 0.8"/>
      </g>
     </g>
     <g id="text_2">
      <!-- 3 -->
      <g transform="translate(81.382715 314.116563) scale(0.1 -0.1)">
       <defs>
        <path id="DejaVuSans-33" d="M 2597 2516 
Q 3050 2419 3304 2112 
Q 3559 1806 3559 1356 
Q 3559 666 3084 287 
Q 2609 -91 1734 -91 
Q 1441 -91 1130 -33 
Q 819 25 488 141 
L 488 750 
Q 750 597 1062 519 
Q 1375 441 1716 441 
Q 2309 441 2620 675 
Q 2931 909 2931 1356 
Q 2931 1769 2642 2001 
Q 2353 2234 1838 2234 
L 1294 2234 
L 1294 2753 
L 1863 2753 
Q 2328 2753 2575 2939 
Q 2822 3125 2822 3475 
Q 2822 3834 2567 4026 
Q 2313 4219 1838 4219 
Q 1578 4219 1281 4162 
Q 984 4106 628 3988 
L 628 4550 
Q 988 4650 1302 4700 
Q 1616 4750 1894 4750 
Q 2613 4750 3031 4423 
Q 3450 4097 3450 3541 
Q 3450 3153 3228 2886 
Q 3006 2619 2597 2516 
z
" transform="scale(0.015625)"/>
       </defs>
       <use xlink:href="#DejaVuSans-33"/>
      </g>
     </g>
    </g>
    <g id="xtick_3">
     <g id="line2d_5">
      <path d="M 140.88125 299.518125 
L 140.88125 22.318125 
" clip-path="url(#p9f30a6f6a7)" style="fill: none; stroke-dasharray: 0.8,1.32; stroke-dashoffset: 0; stroke: #b0b0b0; stroke-width: 0.8"/>
     </g>
     <g id="line2d_6">
      <g>
       <use xlink:href="#m201263e796" x="140.88125" y="299.518125" style="stroke: #000000; stroke-width: 0.8"/>
      </g>
     </g>
     <g id="text_3">
      <!-- 4 -->
      <g transform="translate(137.7 314.116563) scale(0.1 -0.1)">
       <defs>
        <path id="DejaVuSans-34" d="M 2419 4116 
L 825 1625 
L 2419 1625 
L 2419 4116 
z
M 2253 4666 
L 3047 4666 
L 3047 1625 
L 3713 1625 
L 3713 1100 
L 3047 1100 
L 3047 0 
L 2419 0 
L 2419 1100 
L 313 1100 
L 313 1709 
L 2253 4666 
z
" transform="scale(0.015625)"/>
       </defs>
       <use xlink:href="#DejaVuSans-34"/>
      </g>
     </g>
    </g>
    <g id="xtick_4">
     <g id="line2d_7">
      <path d="M 197.198535 299.518125 
L 197.198535 22.318125 
" clip-path="url(#p9f30a6f6a7)" style="fill: none; stroke-dasharray: 0.8,1.32; stroke-dashoffset: 0; stroke: #b0b0b0; stroke-width: 0.8"/>
     </g>
     <g id="line2d_8">
      <g>
       <use xlink:href="#m201263e796" x="197.198535" y="299.518125" style="stroke: #000000; stroke-width: 0.8"/>
      </g>
     </g>
     <g id="text_4">
      <!-- 5 -->
      <g transform="translate(194.017285 314.116563) scale(0.1 -0.1)">
       <defs>
        <path id="DejaVuSans-35" d="M 691 4666 
L 3169 4666 
L 3169 4134 
L 1269 4134 
L 1269 2991 
Q 1406 3038 1543 3061 
Q 1681 3084 1819 3084 
Q 2600 3084 3056 2656 
Q 3513 2228 3513 1497 
Q 3513 744 3044 326 
Q 2575 -91 1722 -91 
Q 1428 -91 1123 -41 
Q 819 9 494 109 
L 494 744 
Q 775 591 1075 516 
Q 1375 441 1709 441 
Q 2250 441 2565 725 
Q 2881 1009 2881 1497 
Q 2881 1984 2565 2268 
Q 2250 2553 1709 2553 
Q 1456 2553 1204 2497 
Q 953 2441 691 2322 
L 691 4666 
z
" transform="scale(0.015625)"/>
       </defs>
       <use xlink:href="#DejaVuSans-35"/>
      </g>
     </g>
    </g>
    <g id="xtick_5">
     <g id="line2d_9">
      <path d="M 253.515819 299.518125 
L 253.515819 22.318125 
" clip-path="url(#p9f30a6f6a7)" style="fill: none; stroke-dasharray: 0.8,1.32; stroke-dashoffset: 0; stroke: #b0b0b0; stroke-width: 0.8"/>
     </g>
     <g id="line2d_10">
      <g>
       <use xlink:href="#m201263e796" x="253.515819" y="299.518125" style="stroke: #000000; stroke-width: 0.8"/>
      </g>
     </g>
     <g id="text_5">
      <!-- 6 -->
      <g transform="translate(250.334569 314.116563) scale(0.1 -0.1)">
       <defs>
        <path id="DejaVuSans-36" d="M 2113 2584 
Q 1688 2584 1439 2293 
Q 1191 2003 1191 1497 
Q 1191 994 1439 701 
Q 1688 409 2113 409 
Q 2538 409 2786 701 
Q 3034 994 3034 1497 
Q 3034 2003 2786 2293 
Q 2538 2584 2113 2584 
z
M 3366 4563 
L 3366 3988 
Q 3128 4100 2886 4159 
Q 2644 4219 2406 4219 
Q 1781 4219 1451 3797 
Q 1122 3375 1075 2522 
Q 1259 2794 1537 2939 
Q 1816 3084 2150 3084 
Q 2853 3084 3261 2657 
Q 3669 2231 3669 1497 
Q 3669 778 3244 343 
Q 2819 -91 2113 -91 
Q 1303 -91 875 529 
Q 447 1150 447 2328 
Q 447 3434 972 4092 
Q 1497 4750 2381 4750 
Q 2619 4750 2861 4703 
Q 3103 4656 3366 4563 
z
" transform="scale(0.015625)"/>
       </defs>
       <use xlink:href="#DejaVuSans-36"/>
      </g>
     </g>
    </g>
    <g id="xtick_6">
     <g id="line2d_11">
      <path d="M 309.833104 299.518125 
L 309.833104 22.318125 
" clip-path="url(#p9f30a6f6a7)" style="fill: none; stroke-dasharray: 0.8,1.32; stroke-dashoffset: 0; stroke: #b0b0b0; stroke-width: 0.8"/>
     </g>
     <g id="line2d_12">
      <g>
       <use xlink:href="#m201263e796" x="309.833104" y="299.518125" style="stroke: #000000; stroke-width: 0.8"/>
      </g>
     </g>
     <g id="text_6">
      <!-- 7 -->
      <g transform="translate(306.651854 314.116563) scale(0.1 -0.1)">
       <defs>
        <path id="DejaVuSans-37" d="M 525 4666 
L 3525 4666 
L 3525 4397 
L 1831 0 
L 1172 0 
L 2766 4134 
L 525 4134 
L 525 4666 
z
" transform="scale(0.015625)"/>
       </defs>
       <use xlink:href="#DejaVuSans-37"/>
      </g>
     </g>
    </g>
    <g id="xtick_7">
     <g id="line2d_13">
      <path d="M 366.150389 299.518125 
L 366.150389 22.318125 
" clip-path="url(#p9f30a6f6a7)" style="fill: none; stroke-dasharray: 0.8,1.32; stroke-dashoffset: 0; stroke: #b0b0b0; stroke-width: 0.8"/>
     </g>
     <g id="line2d_14">
      <g>
       <use xlink:href="#m201263e796" x="366.150389" y="299.518125" style="stroke: #000000; stroke-width: 0.8"/>
      </g>
     </g>
     <g id="text_7">
      <!-- 8 -->
      <g transform="translate(362.969139 314.116563) scale(0.1 -0.1)">
       <defs>
        <path id="DejaVuSans-38" d="M 2034 2216 
Q 1584 2216 1326 1975 
Q 1069 1734 1069 1313 
Q 1069 891 1326 650 
Q 1584 409 2034 409 
Q 2484 409 2743 651 
Q 3003 894 3003 1313 
Q 3003 1734 2745 1975 
Q 2488 2216 2034 2216 
z
M 1403 2484 
Q 997 2584 770 2862 
Q 544 3141 544 3541 
Q 544 4100 942 4425 
Q 1341 4750 2034 4750 
Q 2731 4750 3128 4425 
Q 3525 4100 3525 3541 
Q 3525 3141 3298 2862 
Q 3072 2584 2669 2484 
Q 3125 2378 3379 2068 
Q 3634 1759 3634 1313 
Q 3634 634 3220 271 
Q 2806 -91 2034 -91 
Q 1263 -91 848 271 
Q 434 634 434 1313 
Q 434 1759 690 2068 
Q 947 2378 1403 2484 
z
M 1172 3481 
Q 1172 3119 1398 2916 
Q 1625 2713 2034 2713 
Q 2441 2713 2670 2916 
Q 2900 3119 2900 3481 
Q 2900 3844 2670 4047 
Q 2441 4250 2034 4250 
Q 1625 4250 1398 4047 
Q 1172 3844 1172 3481 
z
" transform="scale(0.015625)"/>
       </defs>
       <use xlink:href="#DejaVuSans-38"/>
      </g>
     </g>
    </g>
    <g id="xtick_8">
     <g id="line2d_15">
      <path d="M 422.467673 299.518125 
L 422.467673 22.318125 
" clip-path="url(#p9f30a6f6a7)" style="fill: none; stroke-dasharray: 0.8,1.32; stroke-dashoffset: 0; stroke: #b0b0b0; stroke-width: 0.8"/>
     </g>
     <g id="line2d_16">
      <g>
       <use xlink:href="#m201263e796" x="422.467673" y="299.518125" style="stroke: #000000; stroke-width: 0.8"/>
      </g>
     </g>
     <g id="text_8">
      <!-- 9 -->
      <g transform="translate(419.286423 314.116563) scale(0.1 -0.1)">
       <defs>
        <path id="DejaVuSans-39" d="M 703 97 
L 703 672 
Q 941 559 1184 500 
Q 1428 441 1663 441 
Q 2288 441 2617 861 
Q 2947 1281 2994 2138 
Q 2813 1869 2534 1725 
Q 2256 1581 1919 1581 
Q 1219 1581 811 2004 
Q 403 2428 403 3163 
Q 403 3881 828 4315 
Q 1253 4750 1959 4750 
Q 2769 4750 3195 4129 
Q 3622 3509 3622 2328 
Q 3622 1225 3098 567 
Q 2575 -91 1691 -91 
Q 1453 -91 1209 -44 
Q 966 3 703 97 
z
M 1959 2075 
Q 2384 2075 2632 2365 
Q 2881 2656 2881 3163 
Q 2881 3666 2632 3958 
Q 2384 4250 1959 4250 
Q 1534 4250 1286 3958 
Q 1038 3666 1038 3163 
Q 1038 2656 1286 2365 
Q 1534 2075 1959 2075 
z
" transform="scale(0.015625)"/>
       </defs>
       <use xlink:href="#DejaVuSans-39"/>
      </g>
     </g>
    </g>
    <g id="xtick_9">
     <g id="line2d_17">
      <path d="M 478.784958 299.518125 
L 478.784958 22.318125 
" clip-path="url(#p9f30a6f6a7)" style="fill: none; stroke-dasharray: 0.8,1.32; stroke-dashoffset: 0; stroke: #b0b0b0; stroke-width: 0.8"/>
     </g>
     <g id="line2d_18">
      <g>
       <use xlink:href="#m201263e796" x="478.784958" y="299.518125" style="stroke: #000000; stroke-width: 0.8"/>
      </g>
     </g>
     <g id="text_9">
      <!-- 10 -->
      <g transform="translate(472.422458 314.116563) scale(0.1 -0.1)">
       <defs>
        <path id="DejaVuSans-31" d="M 794 531 
L 1825 531 
L 1825 4091 
L 703 3866 
L 703 4441 
L 1819 4666 
L 2450 4666 
L 2450 531 
L 3481 531 
L 3481 0 
L 794 0 
L 794 531 
z
" transform="scale(0.015625)"/>
        <path id="DejaVuSans-30" d="M 2034 4250 
Q 1547 4250 1301 3770 
Q 1056 3291 1056 2328 
Q 1056 1369 1301 889 
Q 1547 409 2034 409 
Q 2525 409 2770 889 
Q 3016 1369 3016 2328 
Q 3016 3291 2770 3770 
Q 2525 4250 2034 4250 
z
M 2034 4750 
Q 2819 4750 3233 4129 
Q 3647 3509 3647 2328 
Q 3647 1150 3233 529 
Q 2819 -91 2034 -91 
Q 1250 -91 836 529 
Q 422 1150 422 2328 
Q 422 3509 836 4129 
Q 1250 4750 2034 4750 
z
" transform="scale(0.015625)"/>
       </defs>
       <use xlink:href="#DejaVuSans-31"/>
       <use xlink:href="#DejaVuSans-30" x="63.623047"/>
      </g>
     </g>
    </g>
    <g id="text_10">
     <!-- $\overline{X}_n$ -->
     <g transform="translate(265.8125 329.616563) scale(0.1 -0.1)">
      <defs>
       <path id="DejaVuSans-Oblique-58" d="M 878 4666 
L 1516 4666 
L 2316 2981 
L 3763 4666 
L 4500 4666 
L 2578 2438 
L 3738 0 
L 3103 0 
L 2163 1966 
L 459 0 
L -275 0 
L 1906 2509 
L 878 4666 
z
" transform="scale(0.015625)"/>
       <path id="DejaVuSans-Oblique-6e" d="M 3566 2113 
L 3156 0 
L 2578 0 
L 2988 2091 
Q 3016 2238 3031 2350 
Q 3047 2463 3047 2528 
Q 3047 2791 2881 2937 
Q 2716 3084 2419 3084 
Q 1956 3084 1622 2776 
Q 1288 2469 1184 1941 
L 800 0 
L 225 0 
L 903 3500 
L 1478 3500 
L 1363 2950 
Q 1603 3253 1940 3418 
Q 2278 3584 2650 3584 
Q 3113 3584 3367 3334 
Q 3622 3084 3622 2631 
Q 3622 2519 3608 2391 
Q 3594 2263 3566 2113 
z
" transform="scale(0.015625)"/>
      </defs>
      <use xlink:href="#DejaVuSans-Oblique-58" transform="translate(0 0.84375)"/>
      <use xlink:href="#DejaVuSans-Oblique-6e" transform="translate(69.462891 -16.0625) scale(0.7)"/>
      <path d="M 0 85.5 
L 0 91.75 
L 68.505859 91.75 
L 68.505859 85.5 
L 0 85.5 
z
"/>
     </g>
    </g>
   </g>
   <g id="matplotlib.axis_2">
    <g id="ytick_1">
     <g id="line2d_19">
      <path d="M 20.5625 299.518125 
L 522.7625 299.518125 
" clip-path="url(#p9f30a6f6a7)" style="fill: none; stroke-dasharray: 0.8,1.32; stroke-dashoffset: 0; stroke: #b0b0b0; stroke-width: 0.8"/>
     </g>
     <g id="line2d_20">
      <defs>
       <path id="m5924026b53" d="M 0 0 
L -3.5 0 
" style="stroke: #000000; stroke-width: 0.8"/>
      </defs>
      <g>
       <use xlink:href="#m5924026b53" x="20.5625" y="299.518125" style="stroke: #000000; stroke-width: 0.8"/>
      </g>
     </g>
     <g id="text_11">
      <!-- 0 -->
      <g transform="translate(7.2 303.317344) scale(0.1 -0.1)">
       <use xlink:href="#DejaVuSans-30"/>
      </g>
     </g>
    </g>
    <g id="ytick_2">
     <g id="line2d_21">
      <path d="M 20.5625 261.860467 
L 522.7625 261.860467 
" clip-path="url(#p9f30a6f6a7)" style="fill: none; stroke-dasharray: 0.8,1.32; stroke-dashoffset: 0; stroke: #b0b0b0; stroke-width: 0.8"/>
     </g>
     <g id="line2d_22">
      <g>
       <use xlink:href="#m5924026b53" x="20.5625" y="261.860467" style="stroke: #000000; stroke-width: 0.8"/>
      </g>
     </g>
     <g id="text_12">
      <!-- 1 -->
      <g transform="translate(7.2 265.659686) scale(0.1 -0.1)">
       <use xlink:href="#DejaVuSans-31"/>
      </g>
     </g>
    </g>
    <g id="ytick_3">
     <g id="line2d_23">
      <path d="M 20.5625 224.20281 
L 522.7625 224.20281 
" clip-path="url(#p9f30a6f6a7)" style="fill: none; stroke-dasharray: 0.8,1.32; stroke-dashoffset: 0; stroke: #b0b0b0; stroke-width: 0.8"/>
     </g>
     <g id="line2d_24">
      <g>
       <use xlink:href="#m5924026b53" x="20.5625" y="224.20281" style="stroke: #000000; stroke-width: 0.8"/>
      </g>
     </g>
     <g id="text_13">
      <!-- 2 -->
      <g transform="translate(7.2 228.002028) scale(0.1 -0.1)">
       <use xlink:href="#DejaVuSans-32"/>
      </g>
     </g>
    </g>
    <g id="ytick_4">
     <g id="line2d_25">
      <path d="M 20.5625 186.545152 
L 522.7625 186.545152 
" clip-path="url(#p9f30a6f6a7)" style="fill: none; stroke-dasharray: 0.8,1.32; stroke-dashoffset: 0; stroke: #b0b0b0; stroke-width: 0.8"/>
     </g>
     <g id="line2d_26">
      <g>
       <use xlink:href="#m5924026b53" x="20.5625" y="186.545152" style="stroke: #000000; stroke-width: 0.8"/>
      </g>
     </g>
     <g id="text_14">
      <!-- 3 -->
      <g transform="translate(7.2 190.344371) scale(0.1 -0.1)">
       <use xlink:href="#DejaVuSans-33"/>
      </g>
     </g>
    </g>
    <g id="ytick_5">
     <g id="line2d_27">
      <path d="M 20.5625 148.887494 
L 522.7625 148.887494 
" clip-path="url(#p9f30a6f6a7)" style="fill: none; stroke-dasharray: 0.8,1.32; stroke-dashoffset: 0; stroke: #b0b0b0; stroke-width: 0.8"/>
     </g>
     <g id="line2d_28">
      <g>
       <use xlink:href="#m5924026b53" x="20.5625" y="148.887494" style="stroke: #000000; stroke-width: 0.8"/>
      </g>
     </g>
     <g id="text_15">
      <!-- 4 -->
      <g transform="translate(7.2 152.686713) scale(0.1 -0.1)">
       <use xlink:href="#DejaVuSans-34"/>
      </g>
     </g>
    </g>
    <g id="ytick_6">
     <g id="line2d_29">
      <path d="M 20.5625 111.229837 
L 522.7625 111.229837 
" clip-path="url(#p9f30a6f6a7)" style="fill: none; stroke-dasharray: 0.8,1.32; stroke-dashoffset: 0; stroke: #b0b0b0; stroke-width: 0.8"/>
     </g>
     <g id="line2d_30">
      <g>
       <use xlink:href="#m5924026b53" x="20.5625" y="111.229837" style="stroke: #000000; stroke-width: 0.8"/>
      </g>
     </g>
     <g id="text_16">
      <!-- 5 -->
      <g transform="translate(7.2 115.029055) scale(0.1 -0.1)">
       <use xlink:href="#DejaVuSans-35"/>
      </g>
     </g>
    </g>
    <g id="ytick_7">
     <g id="line2d_31">
      <path d="M 20.5625 73.572179 
L 522.7625 73.572179 
" clip-path="url(#p9f30a6f6a7)" style="fill: none; stroke-dasharray: 0.8,1.32; stroke-dashoffset: 0; stroke: #b0b0b0; stroke-width: 0.8"/>
     </g>
     <g id="line2d_32">
      <g>
       <use xlink:href="#m5924026b53" x="20.5625" y="73.572179" style="stroke: #000000; stroke-width: 0.8"/>
      </g>
     </g>
     <g id="text_17">
      <!-- 6 -->
      <g transform="translate(7.2 77.371398) scale(0.1 -0.1)">
       <use xlink:href="#DejaVuSans-36"/>
      </g>
     </g>
    </g>
    <g id="ytick_8">
     <g id="line2d_33">
      <path d="M 20.5625 35.914521 
L 522.7625 35.914521 
" clip-path="url(#p9f30a6f6a7)" style="fill: none; stroke-dasharray: 0.8,1.32; stroke-dashoffset: 0; stroke: #b0b0b0; stroke-width: 0.8"/>
     </g>
     <g id="line2d_34">
      <g>
       <use xlink:href="#m5924026b53" x="20.5625" y="35.914521" style="stroke: #000000; stroke-width: 0.8"/>
      </g>
     </g>
     <g id="text_18">
      <!-- 7 -->
      <g transform="translate(7.2 39.71374) scale(0.1 -0.1)">
       <use xlink:href="#DejaVuSans-37"/>
      </g>
     </g>
    </g>
   </g>
   <g id="line2d_35">
    <path d="M 241.974211 297.075061 
L 242.551869 295.727879 
L 243.129527 293.768908 
L 243.707185 290.99186 
L 244.307949 286.976076 
L 244.954926 281.024256 
L 245.62501 272.679349 
L 246.341306 260.87409 
L 247.150027 243.576323 
L 248.07428 218.637942 
L 249.298915 178.910853 
L 251.401591 110.422932 
L 252.164099 92.764261 
L 252.741758 84.007126 
L 253.157671 80.551406 
L 253.434947 79.649113 
L 253.573585 79.625318 
L 253.712223 79.886919 
L 253.943286 80.953864 
L 254.266775 83.750433 
L 254.682689 89.486847 
L 255.237241 100.549271 
L 255.976643 120.285691 
L 257.131959 158.129916 
L 259.188422 225.358829 
L 260.181994 250.505812 
L 261.036928 266.982733 
L 261.822543 278.142126 
L 262.561945 285.660629 
L 263.255135 290.592495 
L 263.925218 293.861478 
L 264.572195 295.979715 
L 265.057428 297.075061 
L 265.057428 297.075061 
" clip-path="url(#p9f30a6f6a7)" style="fill: none; stroke-dasharray: 7.4,3.2; stroke-dashoffset: 0; stroke: #0000ff; stroke-width: 2"/>
   </g>
   <g id="line2d_36">
    <path d="M 460.975869 297.934839 
L 461.831561 297.103494 
L 462.615945 296.027199 
L 463.40033 294.558505 
L 464.184714 292.593858 
L 464.969098 290.018271 
L 465.789136 286.540484 
L 466.644828 281.909339 
L 467.571828 275.578094 
L 468.570135 267.088812 
L 469.63975 256.013378 
L 470.887634 240.690401 
L 472.634672 216.187403 
L 475.059133 182.474772 
L 476.128748 170.57157 
L 476.948786 163.652479 
L 477.626209 159.684679 
L 478.125362 157.872295 
L 478.517554 157.139754 
L 478.802785 156.995877 
L 479.052362 157.139754 
L 479.337593 157.611473 
L 479.729785 158.789019 
L 480.193285 160.950029 
L 480.7994 164.969315 
L 481.54813 171.627734 
L 482.47513 182.034859 
L 483.758668 199.182933 
L 487.644935 252.725027 
L 488.89282 266.073055 
L 489.998088 275.578094 
L 490.996396 282.33787 
L 491.923395 287.208933 
L 492.814741 290.788177 
L 493.670433 293.372714 
L 494.526125 295.281045 
L 495.381817 296.656855 
L 496.237509 297.625662 
L 496.594047 297.934839 
L 496.594047 297.934839 
" clip-path="url(#p9f30a6f6a7)" style="fill: none; stroke-dasharray: 7.4,3.2; stroke-dashoffset: 0; stroke: #a52a2a; stroke-width: 2"/>
   </g>
   <g id="line2d_37">
    <path d="M 45.499528 296.932629 
L 46.045363 295.506906 
L 46.591199 293.433726 
L 47.158868 290.355705 
L 47.74837 285.858716 
L 48.359706 279.417299 
L 49.014709 270.050105 
L 49.735212 256.284964 
L 50.521215 236.718184 
L 51.438219 208.008997 
L 52.770058 158.354842 
L 54.363898 100.729602 
L 55.128068 80.710402 
L 55.673903 71.442722 
L 56.088738 67.660112 
L 56.350739 66.805453 
L 56.48174 66.830634 
L 56.634574 67.241554 
L 56.874742 68.711535 
L 57.202243 72.30494 
L 57.638911 79.800838 
L 58.228414 94.281132 
L 59.036251 120.402913 
L 60.761091 185.986913 
L 62.005596 228.475171 
L 62.944433 253.359737 
L 63.75227 269.323792 
L 64.494607 279.946054 
L 65.193276 286.990155 
L 65.848279 291.544329 
L 66.481448 294.522523 
L 67.092784 296.427746 
L 67.311118 296.932629 
L 67.311118 296.932629 
" clip-path="url(#p9f30a6f6a7)" style="fill: none; stroke-dasharray: 7.4,3.2; stroke-dashoffset: 0; stroke: #008000; stroke-width: 2"/>
   </g>
   <g id="patch_243">
    <path d="M 20.5625 299.518125 
L 20.5625 22.318125 
" style="fill: none; stroke: #000000; stroke-width: 0.8; stroke-linejoin: miter; stroke-linecap: square"/>
   </g>
   <g id="patch_244">
    <path d="M 522.7625 299.518125 
L 522.7625 22.318125 
" style="fill: none; stroke: #000000; stroke-width: 0.8; stroke-linejoin: miter; stroke-linecap: square"/>
   </g>
   <g id="patch_245">
    <path d="M 20.5625 299.518125 
L 522.7625 299.518125 
" style="fill: none; stroke: #000000; stroke-width: 0.8; stroke-linejoin: miter; stroke-linecap: square"/>
   </g>
   <g id="patch_246">
    <path d="M 20.5625 22.318125 
L 522.7625 22.318125 
" style="fill: none; stroke: #000000; stroke-width: 0.8; stroke-linejoin: miter; stroke-linecap: square"/>
   </g>
   <g id="text_19">
    <!-- Central limit theorem, $n=900$ -->
    <g transform="translate(180.8225 16.318125) scale(0.12 -0.12)">
     <defs>
      <path id="DejaVuSans-43" d="M 4122 4306 
L 4122 3641 
Q 3803 3938 3442 4084 
Q 3081 4231 2675 4231 
Q 1875 4231 1450 3742 
Q 1025 3253 1025 2328 
Q 1025 1406 1450 917 
Q 1875 428 2675 428 
Q 3081 428 3442 575 
Q 3803 722 4122 1019 
L 4122 359 
Q 3791 134 3420 21 
Q 3050 -91 2638 -91 
Q 1578 -91 968 557 
Q 359 1206 359 2328 
Q 359 3453 968 4101 
Q 1578 4750 2638 4750 
Q 3056 4750 3426 4639 
Q 3797 4528 4122 4306 
z
" transform="scale(0.015625)"/>
      <path id="DejaVuSans-65" d="M 3597 1894 
L 3597 1613 
L 953 1613 
Q 991 1019 1311 708 
Q 1631 397 2203 397 
Q 2534 397 2845 478 
Q 3156 559 3463 722 
L 3463 178 
Q 3153 47 2828 -22 
Q 2503 -91 2169 -91 
Q 1331 -91 842 396 
Q 353 884 353 1716 
Q 353 2575 817 3079 
Q 1281 3584 2069 3584 
Q 2775 3584 3186 3129 
Q 3597 2675 3597 1894 
z
M 3022 2063 
Q 3016 2534 2758 2815 
Q 2500 3097 2075 3097 
Q 1594 3097 1305 2825 
Q 1016 2553 972 2059 
L 3022 2063 
z
" transform="scale(0.015625)"/>
      <path id="DejaVuSans-6e" d="M 3513 2113 
L 3513 0 
L 2938 0 
L 2938 2094 
Q 2938 2591 2744 2837 
Q 2550 3084 2163 3084 
Q 1697 3084 1428 2787 
Q 1159 2491 1159 1978 
L 1159 0 
L 581 0 
L 581 3500 
L 1159 3500 
L 1159 2956 
Q 1366 3272 1645 3428 
Q 1925 3584 2291 3584 
Q 2894 3584 3203 3211 
Q 3513 2838 3513 2113 
z
" transform="scale(0.015625)"/>
      <path id="DejaVuSans-74" d="M 1172 4494 
L 1172 3500 
L 2356 3500 
L 2356 3053 
L 1172 3053 
L 1172 1153 
Q 1172 725 1289 603 
Q 1406 481 1766 481 
L 2356 481 
L 2356 0 
L 1766 0 
Q 1100 0 847 248 
Q 594 497 594 1153 
L 594 3053 
L 172 3053 
L 172 3500 
L 594 3500 
L 594 4494 
L 1172 4494 
z
" transform="scale(0.015625)"/>
      <path id="DejaVuSans-72" d="M 2631 2963 
Q 2534 3019 2420 3045 
Q 2306 3072 2169 3072 
Q 1681 3072 1420 2755 
Q 1159 2438 1159 1844 
L 1159 0 
L 581 0 
L 581 3500 
L 1159 3500 
L 1159 2956 
Q 1341 3275 1631 3429 
Q 1922 3584 2338 3584 
Q 2397 3584 2469 3576 
Q 2541 3569 2628 3553 
L 2631 2963 
z
" transform="scale(0.015625)"/>
      <path id="DejaVuSans-61" d="M 2194 1759 
Q 1497 1759 1228 1600 
Q 959 1441 959 1056 
Q 959 750 1161 570 
Q 1363 391 1709 391 
Q 2188 391 2477 730 
Q 2766 1069 2766 1631 
L 2766 1759 
L 2194 1759 
z
M 3341 1997 
L 3341 0 
L 2766 0 
L 2766 531 
Q 2569 213 2275 61 
Q 1981 -91 1556 -91 
Q 1019 -91 701 211 
Q 384 513 384 1019 
Q 384 1609 779 1909 
Q 1175 2209 1959 2209 
L 2766 2209 
L 2766 2266 
Q 2766 2663 2505 2880 
Q 2244 3097 1772 3097 
Q 1472 3097 1187 3025 
Q 903 2953 641 2809 
L 641 3341 
Q 956 3463 1253 3523 
Q 1550 3584 1831 3584 
Q 2591 3584 2966 3190 
Q 3341 2797 3341 1997 
z
" transform="scale(0.015625)"/>
      <path id="DejaVuSans-6c" d="M 603 4863 
L 1178 4863 
L 1178 0 
L 603 0 
L 603 4863 
z
" transform="scale(0.015625)"/>
      <path id="DejaVuSans-20" transform="scale(0.015625)"/>
      <path id="DejaVuSans-69" d="M 603 3500 
L 1178 3500 
L 1178 0 
L 603 0 
L 603 3500 
z
M 603 4863 
L 1178 4863 
L 1178 4134 
L 603 4134 
L 603 4863 
z
" transform="scale(0.015625)"/>
      <path id="DejaVuSans-6d" d="M 3328 2828 
Q 3544 3216 3844 3400 
Q 4144 3584 4550 3584 
Q 5097 3584 5394 3201 
Q 5691 2819 5691 2113 
L 5691 0 
L 5113 0 
L 5113 2094 
Q 5113 2597 4934 2840 
Q 4756 3084 4391 3084 
Q 3944 3084 3684 2787 
Q 3425 2491 3425 1978 
L 3425 0 
L 2847 0 
L 2847 2094 
Q 2847 2600 2669 2842 
Q 2491 3084 2119 3084 
Q 1678 3084 1418 2786 
Q 1159 2488 1159 1978 
L 1159 0 
L 581 0 
L 581 3500 
L 1159 3500 
L 1159 2956 
Q 1356 3278 1631 3431 
Q 1906 3584 2284 3584 
Q 2666 3584 2933 3390 
Q 3200 3197 3328 2828 
z
" transform="scale(0.015625)"/>
      <path id="DejaVuSans-68" d="M 3513 2113 
L 3513 0 
L 2938 0 
L 2938 2094 
Q 2938 2591 2744 2837 
Q 2550 3084 2163 3084 
Q 1697 3084 1428 2787 
Q 1159 2491 1159 1978 
L 1159 0 
L 581 0 
L 581 4863 
L 1159 4863 
L 1159 2956 
Q 1366 3272 1645 3428 
Q 1925 3584 2291 3584 
Q 2894 3584 3203 3211 
Q 3513 2838 3513 2113 
z
" transform="scale(0.015625)"/>
      <path id="DejaVuSans-6f" d="M 1959 3097 
Q 1497 3097 1228 2736 
Q 959 2375 959 1747 
Q 959 1119 1226 758 
Q 1494 397 1959 397 
Q 2419 397 2687 759 
Q 2956 1122 2956 1747 
Q 2956 2369 2687 2733 
Q 2419 3097 1959 3097 
z
M 1959 3584 
Q 2709 3584 3137 3096 
Q 3566 2609 3566 1747 
Q 3566 888 3137 398 
Q 2709 -91 1959 -91 
Q 1206 -91 779 398 
Q 353 888 353 1747 
Q 353 2609 779 3096 
Q 1206 3584 1959 3584 
z
" transform="scale(0.015625)"/>
      <path id="DejaVuSans-2c" d="M 750 794 
L 1409 794 
L 1409 256 
L 897 -744 
L 494 -744 
L 750 256 
L 750 794 
z
" transform="scale(0.015625)"/>
      <path id="DejaVuSans-3d" d="M 678 2906 
L 4684 2906 
L 4684 2381 
L 678 2381 
L 678 2906 
z
M 678 1631 
L 4684 1631 
L 4684 1100 
L 678 1100 
L 678 1631 
z
" transform="scale(0.015625)"/>
     </defs>
     <use xlink:href="#DejaVuSans-43" transform="translate(0 0.015625)"/>
     <use xlink:href="#DejaVuSans-65" transform="translate(69.824219 0.015625)"/>
     <use xlink:href="#DejaVuSans-6e" transform="translate(131.347656 0.015625)"/>
     <use xlink:href="#DejaVuSans-74" transform="translate(194.726562 0.015625)"/>
     <use xlink:href="#DejaVuSans-72" transform="translate(233.935547 0.015625)"/>
     <use xlink:href="#DejaVuSans-61" transform="translate(275.048828 0.015625)"/>
     <use xlink:href="#DejaVuSans-6c" transform="translate(336.328125 0.015625)"/>
     <use xlink:href="#DejaVuSans-20" transform="translate(364.111328 0.015625)"/>
     <use xlink:href="#DejaVuSans-6c" transform="translate(395.898438 0.015625)"/>
     <use xlink:href="#DejaVuSans-69" transform="translate(423.681641 0.015625)"/>
     <use xlink:href="#DejaVuSans-6d" transform="translate(451.464844 0.015625)"/>
     <use xlink:href="#DejaVuSans-69" transform="translate(548.876953 0.015625)"/>
     <use xlink:href="#DejaVuSans-74" transform="translate(576.660156 0.015625)"/>
     <use xlink:href="#DejaVuSans-20" transform="translate(615.869141 0.015625)"/>
     <use xlink:href="#DejaVuSans-74" transform="translate(647.65625 0.015625)"/>
     <use xlink:href="#DejaVuSans-68" transform="translate(686.865234 0.015625)"/>
     <use xlink:href="#DejaVuSans-65" transform="translate(750.244141 0.015625)"/>
     <use xlink:href="#DejaVuSans-6f" transform="translate(811.767578 0.015625)"/>
     <use xlink:href="#DejaVuSans-72" transform="translate(872.949219 0.015625)"/>
     <use xlink:href="#DejaVuSans-65" transform="translate(914.0625 0.015625)"/>
     <use xlink:href="#DejaVuSans-6d" transform="translate(975.585938 0.015625)"/>
     <use xlink:href="#DejaVuSans-2c" transform="translate(1072.998047 0.015625)"/>
     <use xlink:href="#DejaVuSans-20" transform="translate(1104.785156 0.015625)"/>
     <use xlink:href="#DejaVuSans-Oblique-6e" transform="translate(1136.572266 0.015625)"/>
     <use xlink:href="#DejaVuSans-3d" transform="translate(1219.433594 0.015625)"/>
     <use xlink:href="#DejaVuSans-39" transform="translate(1322.705078 0.015625)"/>
     <use xlink:href="#DejaVuSans-30" transform="translate(1386.328125 0.015625)"/>
     <use xlink:href="#DejaVuSans-30" transform="translate(1449.951172 0.015625)"/>
    </g>
   </g>
   <g id="legend_1">
    <g id="patch_247">
     <path d="M 424.998438 74.3525 
L 515.7625 74.3525 
Q 517.7625 74.3525 517.7625 72.3525 
L 517.7625 29.318125 
Q 517.7625 27.318125 515.7625 27.318125 
L 424.998438 27.318125 
Q 422.998438 27.318125 422.998438 29.318125 
L 422.998438 72.3525 
Q 422.998438 74.3525 424.998438 74.3525 
z
" style="fill: #ffffff; opacity: 0.8; stroke: #cccccc; stroke-linejoin: miter"/>
    </g>
    <g id="patch_248">
     <path d="M 426.998438 38.916563 
L 446.998438 38.916563 
L 446.998438 31.916563 
L 426.998438 31.916563 
z
" style="fill: #ff0000"/>
    </g>
    <g id="text_20">
     <!-- Bin(20, 0.3) -->
     <g transform="translate(454.998438 38.916563) scale(0.1 -0.1)">
      <defs>
       <path id="DejaVuSans-42" d="M 1259 2228 
L 1259 519 
L 2272 519 
Q 2781 519 3026 730 
Q 3272 941 3272 1375 
Q 3272 1813 3026 2020 
Q 2781 2228 2272 2228 
L 1259 2228 
z
M 1259 4147 
L 1259 2741 
L 2194 2741 
Q 2656 2741 2882 2914 
Q 3109 3088 3109 3444 
Q 3109 3797 2882 3972 
Q 2656 4147 2194 4147 
L 1259 4147 
z
M 628 4666 
L 2241 4666 
Q 2963 4666 3353 4366 
Q 3744 4066 3744 3513 
Q 3744 3084 3544 2831 
Q 3344 2578 2956 2516 
Q 3422 2416 3680 2098 
Q 3938 1781 3938 1306 
Q 3938 681 3513 340 
Q 3088 0 2303 0 
L 628 0 
L 628 4666 
z
" transform="scale(0.015625)"/>
       <path id="DejaVuSans-28" d="M 1984 4856 
Q 1566 4138 1362 3434 
Q 1159 2731 1159 2009 
Q 1159 1288 1364 580 
Q 1569 -128 1984 -844 
L 1484 -844 
Q 1016 -109 783 600 
Q 550 1309 550 2009 
Q 550 2706 781 3412 
Q 1013 4119 1484 4856 
L 1984 4856 
z
" transform="scale(0.015625)"/>
       <path id="DejaVuSans-2e" d="M 684 794 
L 1344 794 
L 1344 0 
L 684 0 
L 684 794 
z
" transform="scale(0.015625)"/>
       <path id="DejaVuSans-29" d="M 513 4856 
L 1013 4856 
Q 1481 4119 1714 3412 
Q 1947 2706 1947 2009 
Q 1947 1309 1714 600 
Q 1481 -109 1013 -844 
L 513 -844 
Q 928 -128 1133 580 
Q 1338 1288 1338 2009 
Q 1338 2731 1133 3434 
Q 928 4138 513 4856 
z
" transform="scale(0.015625)"/>
      </defs>
      <use xlink:href="#DejaVuSans-42"/>
      <use xlink:href="#DejaVuSans-69" x="68.603516"/>
      <use xlink:href="#DejaVuSans-6e" x="96.386719"/>
      <use xlink:href="#DejaVuSans-28" x="159.765625"/>
      <use xlink:href="#DejaVuSans-32" x="198.779297"/>
      <use xlink:href="#DejaVuSans-30" x="262.402344"/>
      <use xlink:href="#DejaVuSans-2c" x="326.025391"/>
      <use xlink:href="#DejaVuSans-20" x="357.8125"/>
      <use xlink:href="#DejaVuSans-30" x="389.599609"/>
      <use xlink:href="#DejaVuSans-2e" x="453.222656"/>
      <use xlink:href="#DejaVuSans-33" x="485.009766"/>
      <use xlink:href="#DejaVuSans-29" x="548.632812"/>
     </g>
    </g>
    <g id="patch_249">
     <path d="M 426.998438 53.594688 
L 446.998438 53.594688 
L 446.998438 46.594688 
L 426.998438 46.594688 
z
" style="fill: #ffa500"/>
    </g>
    <g id="text_21">
     <!-- Pois(10) -->
     <g transform="translate(454.998438 53.594688) scale(0.1 -0.1)">
      <defs>
       <path id="DejaVuSans-50" d="M 1259 4147 
L 1259 2394 
L 2053 2394 
Q 2494 2394 2734 2622 
Q 2975 2850 2975 3272 
Q 2975 3691 2734 3919 
Q 2494 4147 2053 4147 
L 1259 4147 
z
M 628 4666 
L 2053 4666 
Q 2838 4666 3239 4311 
Q 3641 3956 3641 3272 
Q 3641 2581 3239 2228 
Q 2838 1875 2053 1875 
L 1259 1875 
L 1259 0 
L 628 0 
L 628 4666 
z
" transform="scale(0.015625)"/>
       <path id="DejaVuSans-73" d="M 2834 3397 
L 2834 2853 
Q 2591 2978 2328 3040 
Q 2066 3103 1784 3103 
Q 1356 3103 1142 2972 
Q 928 2841 928 2578 
Q 928 2378 1081 2264 
Q 1234 2150 1697 2047 
L 1894 2003 
Q 2506 1872 2764 1633 
Q 3022 1394 3022 966 
Q 3022 478 2636 193 
Q 2250 -91 1575 -91 
Q 1294 -91 989 -36 
Q 684 19 347 128 
L 347 722 
Q 666 556 975 473 
Q 1284 391 1588 391 
Q 1994 391 2212 530 
Q 2431 669 2431 922 
Q 2431 1156 2273 1281 
Q 2116 1406 1581 1522 
L 1381 1569 
Q 847 1681 609 1914 
Q 372 2147 372 2553 
Q 372 3047 722 3315 
Q 1072 3584 1716 3584 
Q 2034 3584 2315 3537 
Q 2597 3491 2834 3397 
z
" transform="scale(0.015625)"/>
      </defs>
      <use xlink:href="#DejaVuSans-50"/>
      <use xlink:href="#DejaVuSans-6f" x="56.677734"/>
      <use xlink:href="#DejaVuSans-69" x="117.859375"/>
      <use xlink:href="#DejaVuSans-73" x="145.642578"/>
      <use xlink:href="#DejaVuSans-28" x="197.742188"/>
      <use xlink:href="#DejaVuSans-31" x="236.755859"/>
      <use xlink:href="#DejaVuSans-30" x="300.378906"/>
      <use xlink:href="#DejaVuSans-29" x="364.001953"/>
     </g>
    </g>
    <g id="patch_250">
     <path d="M 426.998438 68.272813 
L 446.998438 68.272813 
L 446.998438 61.272813 
L 426.998438 61.272813 
z
" style="fill: #bf00bf"/>
    </g>
    <g id="text_22">
     <!-- Geom(0.4) -->
     <g transform="translate(454.998438 68.272813) scale(0.1 -0.1)">
      <defs>
       <path id="DejaVuSans-47" d="M 3809 666 
L 3809 1919 
L 2778 1919 
L 2778 2438 
L 4434 2438 
L 4434 434 
Q 4069 175 3628 42 
Q 3188 -91 2688 -91 
Q 1594 -91 976 548 
Q 359 1188 359 2328 
Q 359 3472 976 4111 
Q 1594 4750 2688 4750 
Q 3144 4750 3555 4637 
Q 3966 4525 4313 4306 
L 4313 3634 
Q 3963 3931 3569 4081 
Q 3175 4231 2741 4231 
Q 1884 4231 1454 3753 
Q 1025 3275 1025 2328 
Q 1025 1384 1454 906 
Q 1884 428 2741 428 
Q 3075 428 3337 486 
Q 3600 544 3809 666 
z
" transform="scale(0.015625)"/>
      </defs>
      <use xlink:href="#DejaVuSans-47"/>
      <use xlink:href="#DejaVuSans-65" x="77.490234"/>
      <use xlink:href="#DejaVuSans-6f" x="139.013672"/>
      <use xlink:href="#DejaVuSans-6d" x="200.195312"/>
      <use xlink:href="#DejaVuSans-28" x="297.607422"/>
      <use xlink:href="#DejaVuSans-30" x="336.621094"/>
      <use xlink:href="#DejaVuSans-2e" x="400.244141"/>
      <use xlink:href="#DejaVuSans-34" x="432.03125"/>
      <use xlink:href="#DejaVuSans-29" x="495.654297"/>
     </g>
    </g>
   </g>
  </g>
 </g>
 <defs>
  <clipPath id="p9f30a6f6a7">
   <rect x="20.5625" y="22.318125" width="502.2" height="277.2"/>
  </clipPath>
 </defs>
</svg>