<?xml version="1.0" encoding="utf-8" standalone="no"?>
<!DOCTYPE svg PUBLIC "-//W3C//DTD SVG 1.1//EN"
  "http://www.w3.org/Graphics/SVG/1.1/DTD/svg11.dtd">
<svg xmlns:xlink="http://www.w3.org/1999/xlink" width="432.790759pt" height="339.190103pt" viewBox="0 0 432.790759 339.190103" xmlns="http://www.w3.org/2000/svg" version="1.1">
 <metadata>
  <rdf:RDF xmlns:dc="http://purl.org/dc/elements/1.1/" xmlns:cc="http://creativecommons.org/ns#" xmlns:rdf="http://www.w3.org/1999/02/22-rdf-syntax-ns#">
   <cc:Work>
    <dc:type rdf:resource="http://purl.org/dc/dcmitype/StillImage"/>
    <dc:date>2023-09-14T11:27:51.989133</dc:date>
    <dc:format>image/svg+xml</dc:format>
    <dc:creator>
     <cc:Agent>
      <dc:title>Matplotlib v3.7.1, https://matplotlib.org/</dc:title>
     </cc:Agent>
    </dc:creator>
   </cc:Work>
  </rdf:RDF>
 </metadata>
 <defs>
  <style type="text/css">*{stroke-linejoin: round; stroke-linecap: butt}</style>
 </defs>
 <g id="figure_1">
  <g id="patch_1">
   <path d="M 0 339.190103 
L 432.790759 339.190103 
L 432.790759 0 
L 0 0 
z
" style="fill: #ffffff"/>
  </g>
  <g id="axes_1">
   <g id="patch_2">
    <path d="M 60.666772 291.7653 
L 417.786772 291.7653 
L 417.786772 25.6533 
L 60.666772 25.6533 
z
" style="fill: #ffffff"/>
   </g>
   <g id="matplotlib.axis_1">
    <g id="xtick_1">
     <g id="line2d_1">
      <path d="M 60.666772 291.7653 
L 60.666772 25.6533 
" clip-path="url(#pfbd545c508)" style="fill: none; stroke-dasharray: 0.8,1.32; stroke-dashoffset: 0; stroke: #b0b0b0; stroke-width: 0.8"/>
     </g>
     <g id="line2d_2">
      <defs>
       <path id="mdca3c85852" d="M 0 0 
L 0 3.5 
" style="stroke: #000000; stroke-width: 0.8"/>
      </defs>
      <g>
       <use xlink:href="#mdca3c85852" x="60.666772" y="291.7653" style="stroke: #000000; stroke-width: 0.8"/>
      </g>
     </g>
     <g id="text_1">
      <!-- $\mathdefault{−10}$ -->
      <g transform="translate(46.663787 309.834888) scale(0.16 -0.16)">
       <defs>
        <path id="CMSY10-0" d="M 4218 1472 
C 4326 1472 4442 1472 4442 1600 
C 4442 1728 4326 1728 4218 1728 
L 755 1728 
C 646 1728 531 1728 531 1600 
C 531 1472 646 1472 755 1472 
L 4218 1472 
z
" transform="scale(0.015625)"/>
        <path id="CMR17-31" d="M 1702 4058 
C 1702 4192 1696 4192 1606 4192 
C 1357 3916 979 3827 621 3827 
C 602 3827 570 3827 563 3808 
C 557 3795 557 3782 557 3648 
C 755 3648 1088 3686 1344 3839 
L 1344 461 
C 1344 236 1331 160 781 160 
L 589 160 
L 589 0 
C 896 0 1216 0 1523 0 
C 1830 0 2150 0 2458 0 
L 2458 160 
L 2266 160 
C 1715 160 1702 230 1702 458 
L 1702 4058 
z
" transform="scale(0.015625)"/>
        <path id="CMR17-30" d="M 2688 2025 
C 2688 2416 2682 3080 2413 3591 
C 2176 4039 1798 4198 1466 4198 
C 1158 4198 768 4058 525 3597 
C 269 3118 243 2524 243 2025 
C 243 1661 250 1106 448 619 
C 723 -39 1216 -128 1466 -128 
C 1760 -128 2208 -7 2470 600 
C 2662 1042 2688 1559 2688 2025 
z
M 1466 -26 
C 1056 -26 813 325 723 812 
C 653 1188 653 1738 653 2096 
C 653 2588 653 2997 736 3387 
C 858 3929 1216 4096 1466 4096 
C 1728 4096 2067 3923 2189 3400 
C 2272 3036 2278 2607 2278 2096 
C 2278 1680 2278 1169 2202 792 
C 2067 95 1690 -26 1466 -26 
z
" transform="scale(0.015625)"/>
       </defs>
       <use xlink:href="#CMSY10-0" transform="scale(0.996264)"/>
       <use xlink:href="#CMR17-31" transform="translate(77.487468 0) scale(0.996264)"/>
       <use xlink:href="#CMR17-30" transform="translate(123.177945 0) scale(0.996264)"/>
      </g>
     </g>
    </g>
    <g id="xtick_2">
     <g id="line2d_3">
      <path d="M 149.946772 291.7653 
L 149.946772 25.6533 
" clip-path="url(#pfbd545c508)" style="fill: none; stroke-dasharray: 0.8,1.32; stroke-dashoffset: 0; stroke: #b0b0b0; stroke-width: 0.8"/>
     </g>
     <g id="line2d_4">
      <g>
       <use xlink:href="#mdca3c85852" x="149.946772" y="291.7653" style="stroke: #000000; stroke-width: 0.8"/>
      </g>
     </g>
     <g id="text_2">
      <!-- $\mathdefault{−5}$ -->
      <g transform="translate(139.84578 309.834888) scale(0.16 -0.16)">
       <defs>
        <path id="CMR17-35" d="M 730 3692 
C 794 3666 1056 3584 1325 3584 
C 1920 3584 2246 3911 2432 4100 
C 2432 4157 2432 4192 2394 4192 
C 2387 4192 2374 4192 2323 4163 
C 2099 4058 1837 3973 1517 3973 
C 1325 3973 1037 3999 723 4139 
C 653 4171 640 4171 634 4171 
C 602 4171 595 4164 595 4037 
L 595 2203 
C 595 2089 595 2057 659 2057 
C 691 2057 704 2070 736 2114 
C 941 2401 1222 2522 1542 2522 
C 1766 2522 2246 2382 2246 1289 
C 2246 1085 2246 715 2054 421 
C 1894 159 1645 25 1370 25 
C 947 25 518 320 403 814 
C 429 807 480 795 506 795 
C 589 795 749 840 749 1038 
C 749 1210 627 1280 506 1280 
C 358 1280 262 1190 262 1011 
C 262 454 704 -128 1382 -128 
C 2042 -128 2669 440 2669 1264 
C 2669 2030 2170 2624 1549 2624 
C 1222 2624 947 2503 730 2274 
L 730 3692 
z
" transform="scale(0.015625)"/>
       </defs>
       <use xlink:href="#CMSY10-0" transform="scale(0.996264)"/>
       <use xlink:href="#CMR17-35" transform="translate(77.487468 0) scale(0.996264)"/>
      </g>
     </g>
    </g>
    <g id="xtick_3">
     <g id="line2d_5">
      <path d="M 239.226772 291.7653 
L 239.226772 25.6533 
" clip-path="url(#pfbd545c508)" style="fill: none; stroke-dasharray: 0.8,1.32; stroke-dashoffset: 0; stroke: #b0b0b0; stroke-width: 0.8"/>
     </g>
     <g id="line2d_6">
      <g>
       <use xlink:href="#mdca3c85852" x="239.226772" y="291.7653" style="stroke: #000000; stroke-width: 0.8"/>
      </g>
     </g>
     <g id="text_3">
      <!-- $\mathdefault{0}$ -->
      <g transform="translate(235.324778 309.834888) scale(0.16 -0.16)">
       <use xlink:href="#CMR17-30" transform="scale(0.996264)"/>
      </g>
     </g>
    </g>
    <g id="xtick_4">
     <g id="line2d_7">
      <path d="M 328.506772 291.7653 
L 328.506772 25.6533 
" clip-path="url(#pfbd545c508)" style="fill: none; stroke-dasharray: 0.8,1.32; stroke-dashoffset: 0; stroke: #b0b0b0; stroke-width: 0.8"/>
     </g>
     <g id="line2d_8">
      <g>
       <use xlink:href="#mdca3c85852" x="328.506772" y="291.7653" style="stroke: #000000; stroke-width: 0.8"/>
      </g>
     </g>
     <g id="text_4">
      <!-- $\mathdefault{5}$ -->
      <g transform="translate(324.604778 309.834888) scale(0.16 -0.16)">
       <use xlink:href="#CMR17-35" transform="scale(0.996264)"/>
      </g>
     </g>
    </g>
    <g id="xtick_5">
     <g id="line2d_9">
      <path d="M 417.786772 291.7653 
L 417.786772 25.6533 
" clip-path="url(#pfbd545c508)" style="fill: none; stroke-dasharray: 0.8,1.32; stroke-dashoffset: 0; stroke: #b0b0b0; stroke-width: 0.8"/>
     </g>
     <g id="line2d_10">
      <g>
       <use xlink:href="#mdca3c85852" x="417.786772" y="291.7653" style="stroke: #000000; stroke-width: 0.8"/>
      </g>
     </g>
     <g id="text_5">
      <!-- $\mathdefault{10}$ -->
      <g transform="translate(409.982785 309.834888) scale(0.16 -0.16)">
       <use xlink:href="#CMR17-31" transform="scale(0.996264)"/>
       <use xlink:href="#CMR17-30" transform="translate(45.690477 0) scale(0.996264)"/>
      </g>
     </g>
    </g>
    <g id="text_6">
     <!-- $x$ -->
     <g transform="translate(234.514881 328.695816) scale(0.17 -0.17)">
      <defs>
       <path id="CMMI12-78" d="M 3034 2606 
C 2829 2567 2752 2414 2752 2293 
C 2752 2139 2874 2088 2963 2088 
C 3155 2088 3290 2254 3290 2427 
C 3290 2695 2982 2816 2714 2816 
C 2323 2816 2106 2433 2048 2312 
C 1901 2816 1504 2816 1389 2816 
C 736 2816 390 1980 390 1839 
C 390 1814 416 1782 461 1782 
C 512 1782 525 1820 538 1846 
C 755 2555 1184 2689 1370 2689 
C 1658 2689 1715 2420 1715 2267 
C 1715 2127 1677 1980 1600 1673 
L 1382 798 
C 1286 415 1101 64 762 64 
C 730 64 570 64 435 147 
C 666 192 717 383 717 460 
C 717 588 621 664 499 664 
C 346 664 179 530 179 326 
C 179 57 480 -64 755 -64 
C 1062 -64 1280 179 1414 441 
C 1517 64 1837 -64 2074 -64 
C 2726 -64 3072 773 3072 913 
C 3072 945 3046 971 3008 971 
C 2950 971 2944 939 2925 888 
C 2752 326 2381 64 2093 64 
C 1869 64 1747 230 1747 492 
C 1747 632 1773 734 1875 1156 
L 2099 2024 
C 2195 2408 2413 2689 2707 2689 
C 2720 2689 2899 2689 3034 2606 
z
" transform="scale(0.015625)"/>
      </defs>
      <use xlink:href="#CMMI12-78" transform="scale(0.996264)"/>
     </g>
    </g>
   </g>
   <g id="matplotlib.axis_2">
    <g id="ytick_1">
     <g id="line2d_11">
      <path d="M 60.666772 279.6693 
L 417.786772 279.6693 
" clip-path="url(#pfbd545c508)" style="fill: none; stroke-dasharray: 0.8,1.32; stroke-dashoffset: 0; stroke: #b0b0b0; stroke-width: 0.8"/>
     </g>
     <g id="line2d_12">
      <defs>
       <path id="m67d792bf66" d="M 0 0 
L -3.5 0 
" style="stroke: #000000; stroke-width: 0.8"/>
      </defs>
      <g>
       <use xlink:href="#m67d792bf66" x="60.666772" y="279.6693" style="stroke: #000000; stroke-width: 0.8"/>
      </g>
     </g>
     <g id="text_7">
      <!-- $\mathdefault{0.0}$ -->
      <g transform="translate(33.72325 285.204094) scale(0.16 -0.16)">
       <defs>
        <path id="CMMI12-3a" d="M 1178 307 
C 1178 492 1024 619 870 619 
C 685 619 557 466 557 313 
C 557 128 710 0 864 0 
C 1050 0 1178 153 1178 307 
z
" transform="scale(0.015625)"/>
       </defs>
       <use xlink:href="#CMR17-30" transform="scale(0.996264)"/>
       <use xlink:href="#CMMI12-3a" transform="translate(45.690477 0) scale(0.996264)"/>
       <use xlink:href="#CMR17-30" transform="translate(72.787654 0) scale(0.996264)"/>
      </g>
     </g>
    </g>
    <g id="ytick_2">
     <g id="line2d_13">
      <path d="M 60.666772 231.2853 
L 417.786772 231.2853 
" clip-path="url(#pfbd545c508)" style="fill: none; stroke-dasharray: 0.8,1.32; stroke-dashoffset: 0; stroke: #b0b0b0; stroke-width: 0.8"/>
     </g>
     <g id="line2d_14">
      <g>
       <use xlink:href="#m67d792bf66" x="60.666772" y="231.2853" style="stroke: #000000; stroke-width: 0.8"/>
      </g>
     </g>
     <g id="text_8">
      <!-- $\mathdefault{0.2}$ -->
      <g transform="translate(33.72325 236.820094) scale(0.16 -0.16)">
       <defs>
        <path id="CMR17-32" d="M 2669 989 
L 2554 989 
C 2490 536 2438 459 2413 420 
C 2381 369 1920 369 1830 369 
L 602 369 
C 832 619 1280 1072 1824 1597 
C 2214 1967 2669 2402 2669 3035 
C 2669 3790 2067 4224 1395 4224 
C 691 4224 262 3604 262 3030 
C 262 2780 448 2748 525 2748 
C 589 2748 781 2787 781 3010 
C 781 3207 614 3264 525 3264 
C 486 3264 448 3258 422 3245 
C 544 3790 915 4058 1306 4058 
C 1862 4058 2227 3617 2227 3035 
C 2227 2479 1901 2000 1536 1584 
L 262 146 
L 262 0 
L 2515 0 
L 2669 989 
z
" transform="scale(0.015625)"/>
       </defs>
       <use xlink:href="#CMR17-30" transform="scale(0.996264)"/>
       <use xlink:href="#CMMI12-3a" transform="translate(45.690477 0) scale(0.996264)"/>
       <use xlink:href="#CMR17-32" transform="translate(72.787654 0) scale(0.996264)"/>
      </g>
     </g>
    </g>
    <g id="ytick_3">
     <g id="line2d_15">
      <path d="M 60.666772 182.9013 
L 417.786772 182.9013 
" clip-path="url(#pfbd545c508)" style="fill: none; stroke-dasharray: 0.8,1.32; stroke-dashoffset: 0; stroke: #b0b0b0; stroke-width: 0.8"/>
     </g>
     <g id="line2d_16">
      <g>
       <use xlink:href="#m67d792bf66" x="60.666772" y="182.9013" style="stroke: #000000; stroke-width: 0.8"/>
      </g>
     </g>
     <g id="text_9">
      <!-- $\mathdefault{0.4}$ -->
      <g transform="translate(33.72325 188.436094) scale(0.16 -0.16)">
       <defs>
        <path id="CMR17-34" d="M 2150 4122 
C 2150 4256 2144 4256 2029 4256 
L 128 1254 
L 128 1088 
L 1779 1088 
L 1779 457 
C 1779 224 1766 160 1318 160 
L 1197 160 
L 1197 0 
C 1402 0 1747 0 1965 0 
C 2182 0 2528 0 2733 0 
L 2733 160 
L 2611 160 
C 2163 160 2150 224 2150 457 
L 2150 1088 
L 2803 1088 
L 2803 1254 
L 2150 1254 
L 2150 4122 
z
M 1798 3703 
L 1798 1254 
L 256 1254 
L 1798 3703 
z
" transform="scale(0.015625)"/>
       </defs>
       <use xlink:href="#CMR17-30" transform="scale(0.996264)"/>
       <use xlink:href="#CMMI12-3a" transform="translate(45.690477 0) scale(0.996264)"/>
       <use xlink:href="#CMR17-34" transform="translate(72.787654 0) scale(0.996264)"/>
      </g>
     </g>
    </g>
    <g id="ytick_4">
     <g id="line2d_17">
      <path d="M 60.666772 134.5173 
L 417.786772 134.5173 
" clip-path="url(#pfbd545c508)" style="fill: none; stroke-dasharray: 0.8,1.32; stroke-dashoffset: 0; stroke: #b0b0b0; stroke-width: 0.8"/>
     </g>
     <g id="line2d_18">
      <g>
       <use xlink:href="#m67d792bf66" x="60.666772" y="134.5173" style="stroke: #000000; stroke-width: 0.8"/>
      </g>
     </g>
     <g id="text_10">
      <!-- $\mathdefault{0.6}$ -->
      <g transform="translate(33.72325 140.052094) scale(0.16 -0.16)">
       <defs>
        <path id="CMR17-36" d="M 678 2176 
C 678 3690 1395 4032 1811 4032 
C 1946 4032 2272 4009 2400 3776 
C 2298 3776 2106 3776 2106 3553 
C 2106 3381 2246 3323 2336 3323 
C 2394 3323 2566 3348 2566 3560 
C 2566 3954 2246 4179 1805 4179 
C 1043 4179 243 3390 243 1984 
C 243 253 966 -128 1478 -128 
C 2099 -128 2688 427 2688 1283 
C 2688 2081 2170 2662 1517 2662 
C 1126 2662 838 2407 678 1960 
L 678 2176 
z
M 1478 25 
C 691 25 691 1200 691 1436 
C 691 1896 909 2560 1504 2560 
C 1613 2560 1926 2560 2138 2120 
C 2253 1870 2253 1609 2253 1289 
C 2253 944 2253 690 2118 434 
C 1978 171 1773 25 1478 25 
z
" transform="scale(0.015625)"/>
       </defs>
       <use xlink:href="#CMR17-30" transform="scale(0.996264)"/>
       <use xlink:href="#CMMI12-3a" transform="translate(45.690477 0) scale(0.996264)"/>
       <use xlink:href="#CMR17-36" transform="translate(72.787654 0) scale(0.996264)"/>
      </g>
     </g>
    </g>
    <g id="ytick_5">
     <g id="line2d_19">
      <path d="M 60.666772 86.1333 
L 417.786772 86.1333 
" clip-path="url(#pfbd545c508)" style="fill: none; stroke-dasharray: 0.8,1.32; stroke-dashoffset: 0; stroke: #b0b0b0; stroke-width: 0.8"/>
     </g>
     <g id="line2d_20">
      <g>
       <use xlink:href="#m67d792bf66" x="60.666772" y="86.1333" style="stroke: #000000; stroke-width: 0.8"/>
      </g>
     </g>
     <g id="text_11">
      <!-- $\mathdefault{0.8}$ -->
      <g transform="translate(33.72325 91.668094) scale(0.16 -0.16)">
       <defs>
        <path id="CMR17-38" d="M 1741 2264 
C 2144 2467 2554 2773 2554 3263 
C 2554 3841 1990 4179 1472 4179 
C 890 4179 378 3759 378 3180 
C 378 3021 416 2747 666 2505 
C 730 2442 998 2251 1171 2130 
C 883 1983 211 1634 211 934 
C 211 279 838 -128 1459 -128 
C 2144 -128 2720 362 2720 1010 
C 2720 1590 2330 1857 2074 2029 
L 1741 2264 
z
M 902 2822 
C 851 2854 595 3051 595 3351 
C 595 3739 998 4032 1459 4032 
C 1965 4032 2336 3676 2336 3262 
C 2336 2669 1670 2331 1638 2331 
C 1632 2331 1626 2331 1574 2370 
L 902 2822 
z
M 2080 1519 
C 2176 1449 2483 1240 2483 851 
C 2483 381 2010 25 1472 25 
C 890 25 448 438 448 940 
C 448 1443 838 1862 1280 2060 
L 2080 1519 
z
" transform="scale(0.015625)"/>
       </defs>
       <use xlink:href="#CMR17-30" transform="scale(0.996264)"/>
       <use xlink:href="#CMMI12-3a" transform="translate(45.690477 0) scale(0.996264)"/>
       <use xlink:href="#CMR17-38" transform="translate(72.787654 0) scale(0.996264)"/>
      </g>
     </g>
    </g>
    <g id="ytick_6">
     <g id="line2d_21">
      <path d="M 60.666772 37.7493 
L 417.786772 37.7493 
" clip-path="url(#pfbd545c508)" style="fill: none; stroke-dasharray: 0.8,1.32; stroke-dashoffset: 0; stroke: #b0b0b0; stroke-width: 0.8"/>
     </g>
     <g id="line2d_22">
      <g>
       <use xlink:href="#m67d792bf66" x="60.666772" y="37.7493" style="stroke: #000000; stroke-width: 0.8"/>
      </g>
     </g>
     <g id="text_12">
      <!-- $\mathdefault{1.0}$ -->
      <g transform="translate(33.72325 43.284094) scale(0.16 -0.16)">
       <use xlink:href="#CMR17-31" transform="scale(0.996264)"/>
       <use xlink:href="#CMMI12-3a" transform="translate(45.690477 0) scale(0.996264)"/>
       <use xlink:href="#CMR17-30" transform="translate(72.787654 0) scale(0.996264)"/>
      </g>
     </g>
    </g>
    <g id="text_13">
     <!-- $\exp\big(-\frac{x^2}{2s^2}\big)$ -->
     <g transform="translate(23.628004 199.669963) rotate(-90) scale(0.17 -0.17)">
      <defs>
       <path id="CMR17-65" d="M 2438 1472 
C 2464 1498 2464 1511 2464 1576 
C 2464 2238 2118 2816 1389 2816 
C 710 2816 173 2169 173 1383 
C 173 551 781 -64 1459 -64 
C 2176 -64 2458 607 2458 740 
C 2458 784 2419 784 2406 784 
C 2362 784 2355 771 2330 696 
C 2189 265 1837 51 1504 51 
C 1229 51 954 203 781 480 
C 582 803 582 1176 582 1472 
L 2438 1472 
z
M 589 1568 
C 634 2505 1126 2714 1382 2714 
C 1818 2714 2112 2297 2118 1568 
L 589 1568 
z
" transform="scale(0.015625)"/>
       <path id="CMR17-78" d="M 1664 1477 
C 1856 1726 2074 2006 2253 2216 
C 2464 2458 2707 2560 2989 2560 
L 2989 2726 
C 2880 2726 2656 2726 2541 2726 
C 2368 2726 2170 2726 2022 2732 
L 2022 2566 
C 2112 2553 2163 2489 2163 2400 
C 2163 2285 2099 2215 2067 2171 
L 1594 1573 
L 1030 2306 
C 973 2376 973 2388 973 2420 
C 973 2497 1037 2560 1146 2560 
L 1146 2732 
C 992 2726 717 2726 557 2726 
C 384 2726 179 2726 38 2732 
L 38 2560 
C 384 2560 461 2534 614 2343 
L 1350 1395 
C 1363 1382 1395 1344 1395 1325 
C 1395 1299 838 619 768 530 
C 480 185 179 160 6 160 
L 6 0 
C 115 0 339 0 454 0 
C 582 0 864 0 979 -6 
L 979 160 
C 941 166 838 179 838 325 
C 838 440 890 510 947 586 
L 1478 1236 
L 2035 512 
C 2086 442 2163 346 2163 301 
C 2163 211 2086 160 1984 160 
L 1984 -6 
C 2138 0 2413 0 2573 0 
C 2746 0 2950 0 3091 -6 
L 3091 160 
C 2771 160 2675 172 2522 370 
L 1664 1477 
z
" transform="scale(0.015625)"/>
       <path id="CMR17-70" d="M 1408 -1063 
C 998 -1063 973 -1037 973 -789 
L 973 402 
C 1158 134 1427 -38 1766 -38 
C 2406 -38 3053 523 3053 1388 
C 3053 2191 2496 2802 1837 2802 
C 1453 2802 1139 2592 960 2338 
L 960 2802 
L 198 2732 
L 198 2567 
C 576 2567 634 2528 634 2223 
L 634 -789 
C 634 -1031 608 -1063 198 -1063 
L 198 -1228 
C 352 -1216 634 -1216 800 -1216 
C 966 -1216 1254 -1216 1408 -1228 
L 1408 -1063 
z
M 973 2012 
C 973 2102 973 2235 1222 2471 
C 1254 2497 1472 2688 1792 2688 
C 2259 2688 2643 2108 2643 1382 
C 2643 656 2234 64 1728 64 
C 1498 64 1248 172 1056 472 
C 973 612 973 650 973 752 
L 973 2012 
z
" transform="scale(0.015625)"/>
       <path id="CMEX10-30" d="M 2394 -11328 
C 2534 -11328 2573 -11328 2573 -11238 
C 2586 -6752 3104 -3027 5344 102 
C 5389 160 5389 173 5389 186 
C 5389 250 5344 250 5242 250 
C 5139 250 5126 250 5114 237 
C 5088 218 4275 -717 3629 -2003 
C 2784 -3693 2253 -5632 2016 -7962 
C 1997 -8160 1862 -9491 1862 -11008 
L 1862 -11258 
C 1869 -11328 1907 -11328 2042 -11328 
L 2394 -11328 
z
" transform="scale(0.015625)"/>
       <path id="CMEX10-42" d="M 2574 -109 
C 2574 58 2567 64 2395 64 
L 2043 64 
C 1870 64 1863 58 1863 -109 
L 1863 -3731 
C 1863 -3898 1870 -3904 2043 -3904 
L 2395 -3904 
C 2567 -3904 2574 -3898 2574 -3731 
L 2574 -109 
z
" transform="scale(0.015625)"/>
       <path id="CMEX10-40" d="M 2042 320 
C 1907 320 1869 320 1862 250 
L 1862 0 
C 1862 -3910 2560 -6202 2758 -6848 
C 3194 -8269 3904 -9766 4973 -11085 
C 5069 -11200 5094 -11232 5120 -11245 
C 5133 -11251 5139 -11258 5242 -11258 
C 5344 -11258 5389 -11258 5389 -11194 
C 5389 -11181 5389 -11168 5350 -11110 
C 3219 -8154 2579 -4595 2573 230 
C 2573 320 2534 320 2394 320 
L 2042 320 
z
" transform="scale(0.015625)"/>
       <path id="CMMI12-73" d="M 1459 1280 
C 1568 1261 1741 1223 1779 1216 
C 1862 1192 2150 1090 2150 783 
C 2150 586 1971 70 1229 70 
C 1094 70 614 70 486 436 
C 742 404 870 603 870 745 
C 870 880 781 950 653 950 
C 512 950 326 841 326 552 
C 326 173 710 -64 1222 -64 
C 2195 -64 2483 651 2483 984 
C 2483 1079 2483 1258 2278 1462 
C 2118 1616 1965 1648 1619 1718 
C 1446 1756 1171 1814 1171 2101 
C 1171 2229 1286 2689 1894 2689 
C 2163 2689 2426 2589 2490 2368 
C 2208 2368 2195 2125 2195 2119 
C 2195 1984 2317 1946 2374 1946 
C 2464 1946 2643 2015 2643 2281 
C 2643 2545 2400 2816 1901 2816 
C 1062 2816 838 2160 838 1899 
C 838 1414 1312 1312 1459 1280 
z
" transform="scale(0.015625)"/>
       <path id="CMEX10-31" d="M 3731 -11008 
C 3731 -7098 3034 -4806 2835 -4160 
C 2400 -2739 1690 -1242 621 77 
C 525 192 499 224 474 237 
C 461 243 454 250 352 250 
C 256 250 205 250 205 186 
C 205 173 205 160 288 45 
C 2515 -3066 3014 -6906 3021 -11238 
C 3021 -11328 3059 -11328 3200 -11328 
L 3552 -11328 
C 3686 -11328 3725 -11328 3731 -11258 
L 3731 -11008 
z
" transform="scale(0.015625)"/>
       <path id="CMEX10-43" d="M 3733 -109 
C 3733 58 3727 64 3554 64 
L 3202 64 
C 3029 64 3023 58 3023 -109 
L 3023 -3731 
C 3023 -3898 3029 -3904 3202 -3904 
L 3554 -3904 
C 3727 -3904 3733 -3898 3733 -3731 
L 3733 -109 
z
" transform="scale(0.015625)"/>
       <path id="CMEX10-41" d="M 3731 250 
C 3725 320 3686 320 3552 320 
L 3200 320 
C 3059 320 3021 320 3021 230 
C 3021 -429 3014 -1952 2848 -3546 
C 2502 -6854 1651 -9146 250 -11110 
C 205 -11168 205 -11181 205 -11194 
C 205 -11258 256 -11258 352 -11258 
C 454 -11258 467 -11258 480 -11245 
C 506 -11226 1318 -10291 1965 -9005 
C 2810 -7315 3341 -5376 3578 -3046 
C 3597 -2848 3731 -1517 3731 0 
L 3731 250 
z
" transform="scale(0.015625)"/>
      </defs>
      <use xlink:href="#CMR17-65" transform="scale(0.996264)"/>
      <use xlink:href="#CMR17-78" transform="translate(40.48566 0) scale(0.996264)"/>
      <use xlink:href="#CMR17-70" transform="translate(88.778576 0) scale(0.996264)"/>
      <use xlink:href="#CMEX10-30" transform="translate(156.278351 83.404655) scale(0.247871)"/>
      <use xlink:href="#CMEX10-42" transform="translate(156.278351 39.778975) scale(0.247871)"/>
      <use xlink:href="#CMEX10-42" transform="translate(156.278351 24.9066) scale(0.247871)"/>
      <use xlink:href="#CMEX10-40" transform="translate(156.278351 9.04278) scale(0.247871)"/>
      <use xlink:href="#CMSY10-0" transform="translate(200.106291 0) scale(0.996264)"/>
      <use xlink:href="#CMMI12-78" transform="translate(313.600685 39.226102) scale(0.697382)"/>
      <use xlink:href="#CMR17-32" transform="translate(352.404344 64.533527) scale(0.498132)"/>
      <use xlink:href="#CMR17-32" transform="translate(300.928479 -34.355253) scale(0.697382)"/>
      <use xlink:href="#CMMI12-73" transform="translate(332.911661 -34.355253) scale(0.697382)"/>
      <use xlink:href="#CMR17-32" transform="translate(365.07655 -14.20868) scale(0.498132)"/>
      <use xlink:href="#CMEX10-31" transform="translate(389.615434 83.404655) scale(0.247871)"/>
      <use xlink:href="#CMEX10-43" transform="translate(389.615434 39.778975) scale(0.247871)"/>
      <use xlink:href="#CMEX10-43" transform="translate(389.615434 24.9066) scale(0.247871)"/>
      <use xlink:href="#CMEX10-41" transform="translate(389.615434 9.04278) scale(0.247871)"/>
      <path d="M 300.928479 24.410885 
L 388.419921 24.410885 
L 388.419921 25.40233 
L 300.928479 25.40233 
L 300.928479 24.410885 
z
"/>
     </g>
    </g>
   </g>
   <g id="line2d_23">
    <path d="M 59.952532 279.6693 
L 232.084372 279.588145 
L 232.798612 279.298241 
L 233.512852 278.223581 
L 234.227092 274.869342 
L 234.941332 266.089178 
L 235.655572 246.928988 
L 236.369812 212.406516 
L 238.512532 56.348994 
L 239.226772 37.7493 
L 239.941012 56.348994 
L 240.655252 103.999325 
L 242.083732 212.406516 
L 242.797972 246.928988 
L 243.512212 266.089178 
L 244.226452 274.869342 
L 244.940692 278.223581 
L 245.654932 279.298241 
L 246.369172 279.588145 
L 247.797652 279.666898 
L 286.366612 279.6693 
L 418.501012 279.6693 
L 418.501012 279.6693 
" clip-path="url(#pfbd545c508)" style="fill: none; stroke: #ff0000; stroke-width: 2; stroke-linecap: square"/>
   </g>
   <g id="line2d_24">
    <path d="M 59.952532 279.6693 
L 217.799572 279.588145 
L 219.228052 279.441727 
L 220.656532 279.074947 
L 221.370772 278.734057 
L 222.085012 278.223581 
L 222.799252 277.473855 
L 223.513492 276.394081 
L 224.227732 274.869342 
L 224.941972 272.758734 
L 225.656212 269.895374 
L 226.370452 266.089178 
L 227.084692 261.133237 
L 227.798932 254.814484 
L 228.513172 246.928988 
L 229.227412 237.30166 
L 229.941652 225.809473 
L 231.370132 197.148405 
L 232.798612 161.914194 
L 235.655572 85.954908 
L 236.369812 69.821004 
L 237.084052 56.348994 
L 237.798292 46.199779 
L 238.512532 39.890171 
L 239.226772 37.7493 
L 239.941012 39.890171 
L 240.655252 46.199779 
L 241.369492 56.348994 
L 242.083732 69.821004 
L 243.512212 103.999325 
L 247.083412 197.148405 
L 248.511892 225.809473 
L 249.226132 237.30166 
L 249.940372 246.928988 
L 250.654612 254.814484 
L 251.368852 261.133237 
L 252.083092 266.089178 
L 252.797332 269.895374 
L 253.511572 272.758734 
L 254.225812 274.869342 
L 254.940052 276.394081 
L 255.654292 277.473855 
L 256.368532 278.223581 
L 257.082772 278.734057 
L 258.511252 279.298241 
L 259.939732 279.532187 
L 262.796692 279.654175 
L 275.653012 279.6693 
L 418.501012 279.6693 
L 418.501012 279.6693 
" clip-path="url(#pfbd545c508)" style="fill: none; stroke: #008000; stroke-width: 2; stroke-linecap: square"/>
   </g>
   <g id="line2d_25">
    <path d="M 59.952532 279.6693 
L 168.517012 279.57414 
L 174.230932 279.348261 
L 177.802132 279.017614 
L 180.659092 278.553684 
L 182.801812 278.027477 
L 184.944532 277.287618 
L 187.087252 276.263748 
L 188.515732 275.381357 
L 189.944212 274.304779 
L 191.372692 273.000719 
L 192.801172 271.43254 
L 194.229652 269.560492 
L 195.658132 267.342114 
L 197.086612 264.732812 
L 198.515092 261.686656 
L 199.943572 258.157382 
L 201.372052 254.099625 
L 202.800532 249.470352 
L 204.229012 244.230506 
L 205.657492 238.346802 
L 207.085972 231.793647 
L 209.228692 220.67699 
L 211.371412 208.018301 
L 213.514132 193.88748 
L 215.656852 178.438092 
L 218.513812 156.222895 
L 227.084692 87.686249 
L 229.227412 72.857936 
L 230.655892 64.073126 
L 232.084372 56.348994 
L 233.512852 49.823858 
L 234.941332 44.617223 
L 235.655572 42.539637 
L 236.369812 40.826142 
L 237.084052 39.484869 
L 237.798292 38.522207 
L 238.512532 37.942759 
L 239.226772 37.7493 
L 239.941012 37.942759 
L 240.655252 38.522207 
L 241.369492 39.484869 
L 242.083732 40.826142 
L 242.797972 42.539637 
L 243.512212 44.617223 
L 244.940692 49.823858 
L 246.369172 56.348994 
L 247.797652 64.073126 
L 249.226132 72.857936 
L 251.368852 87.686249 
L 254.225812 109.667829 
L 263.510932 183.721232 
L 265.653652 198.753663 
L 267.796372 212.406516 
L 269.939092 224.555117 
L 272.081812 235.155151 
L 274.224532 244.230506 
L 275.653012 249.470352 
L 277.081492 254.099625 
L 278.509972 258.157382 
L 279.938452 261.686656 
L 281.366932 264.732812 
L 282.795412 267.342114 
L 284.223892 269.560492 
L 285.652372 271.43254 
L 287.080852 273.000719 
L 288.509332 274.304779 
L 289.937812 275.381357 
L 292.080532 276.641589 
L 294.223252 277.562001 
L 296.365972 278.223581 
L 299.222932 278.813906 
L 302.079892 279.175978 
L 306.365332 279.463365 
L 312.793492 279.619443 
L 327.792532 279.6682 
L 418.501012 279.6693 
L 418.501012 279.6693 
" clip-path="url(#pfbd545c508)" style="fill: none; stroke: #0000ff; stroke-width: 2; stroke-linecap: square"/>
   </g>
   <g id="line2d_26">
    <path d="M 59.952532 278.774792 
L 67.809172 278.223581 
L 74.237332 277.562001 
L 79.951252 276.759014 
L 84.950932 275.844879 
L 89.950612 274.6872 
L 94.236052 273.462876 
L 98.521492 271.987006 
L 102.092692 270.537096 
L 105.663892 268.861679 
L 109.235092 266.935606 
L 112.806292 264.732812 
L 116.377492 262.226653 
L 119.948692 259.39032 
L 122.805652 256.865705 
L 125.662612 254.099625 
L 128.519572 251.079456 
L 131.376532 247.793359 
L 134.233492 244.230506 
L 137.804692 239.373327 
L 141.375892 234.053619 
L 144.947092 228.260617 
L 148.518292 221.988855 
L 152.089492 215.238945 
L 155.660692 208.018301 
L 159.231892 200.341799 
L 163.517332 190.561084 
L 167.802772 180.213015 
L 172.802452 167.522683 
L 178.516372 152.389875 
L 188.515732 125.119217 
L 196.372372 103.999325 
L 201.372052 91.20319 
L 205.657492 80.878794 
L 209.228692 72.857936 
L 212.085652 66.890839 
L 214.942612 61.373388 
L 217.799572 56.348994 
L 220.656532 51.857875 
L 222.799252 48.861606 
L 224.941972 46.199779 
L 227.084692 43.884811 
L 229.227412 41.927581 
L 231.370132 40.337341 
L 233.512852 39.121649 
L 234.941332 38.522207 
L 236.369812 38.09312 
L 237.798292 37.835301 
L 239.226772 37.7493 
L 240.655252 37.835301 
L 242.083732 38.09312 
L 243.512212 38.522207 
L 244.940692 39.121649 
L 246.369172 39.890171 
L 248.511892 41.356316 
L 250.654612 43.192162 
L 252.797332 45.389014 
L 254.940052 47.936526 
L 257.082772 50.822785 
L 259.225492 54.034401 
L 262.082452 58.796964 
L 264.939412 64.073126 
L 267.796372 69.821004 
L 271.367572 77.600731 
L 274.938772 85.954908 
L 279.224212 96.602423 
L 284.223892 109.667829 
L 291.366292 129.025486 
L 302.794132 160.025595 
L 308.508052 174.848572 
L 313.507732 187.171499 
L 317.793172 197.148405 
L 322.078612 206.518856 
L 325.649812 213.83211 
L 329.221012 220.67699 
L 332.792212 227.044638 
L 336.363412 232.933138 
L 339.934612 238.346802 
L 343.505812 243.295398 
L 347.077012 247.793359 
L 350.648212 251.858982 
L 354.219412 255.513653 
L 357.790612 258.78109 
L 361.361812 261.686656 
L 364.933012 264.256708 
L 368.504212 266.518032 
L 372.075412 268.49734 
L 375.646612 270.220842 
L 379.217812 271.713895 
L 383.503252 273.235374 
L 387.788692 274.499065 
L 392.074132 275.541059 
L 397.073812 276.519985 
L 402.787732 277.382428 
L 409.215892 278.095356 
L 416.358292 278.647481 
L 418.501012 278.774792 
L 418.501012 278.774792 
" clip-path="url(#pfbd545c508)" style="fill: none; stroke: #ffa500; stroke-width: 2; stroke-linecap: square"/>
   </g>
   <g id="line2d_27">
    <path d="M 59.952532 133.524327 
L 85.665172 112.533427 
L 98.521492 102.317542 
L 109.235092 94.065352 
L 119.234452 86.645192 
L 127.805332 80.547023 
L 136.376212 74.728923 
L 144.232852 69.671912 
L 151.375252 65.326824 
L 158.517652 61.241595 
L 164.945812 57.802081 
L 171.373972 54.600284 
L 177.802132 51.647989 
L 184.230292 48.956167 
L 189.944212 46.79028 
L 195.658132 44.844644 
L 201.372052 43.125098 
L 207.085972 41.63683 
L 212.799892 40.384352 
L 218.513812 39.371475 
L 224.227732 38.60129 
L 229.941652 38.076155 
L 235.655572 37.797679 
L 241.369492 37.766718 
L 247.083412 37.983365 
L 252.797332 38.446957 
L 258.511252 39.156071 
L 264.225172 40.108537 
L 269.939092 41.301444 
L 275.653012 42.73116 
L 281.366932 44.393347 
L 287.080852 46.282983 
L 292.794772 48.394389 
L 298.508692 50.721257 
L 304.936852 53.587904 
L 311.365012 56.707804 
L 317.793172 60.069436 
L 324.935572 64.073126 
L 332.077972 68.342216 
L 339.220372 72.857936 
L 347.077012 78.086726 
L 355.647892 84.07256 
L 364.933012 90.848373 
L 374.932372 98.432024 
L 386.360212 107.389639 
L 400.645012 118.89539 
L 418.501012 133.524327 
L 418.501012 133.524327 
" clip-path="url(#pfbd545c508)" style="fill: none; stroke: #a52a2a; stroke-width: 2; stroke-linecap: square"/>
   </g>
   <g id="patch_3">
    <path d="M 60.666772 291.7653 
L 60.666772 25.6533 
" style="fill: none; stroke: #000000; stroke-width: 0.8; stroke-linejoin: miter; stroke-linecap: square"/>
   </g>
   <g id="patch_4">
    <path d="M 417.786772 291.7653 
L 417.786772 25.6533 
" style="fill: none; stroke: #000000; stroke-width: 0.8; stroke-linejoin: miter; stroke-linecap: square"/>
   </g>
   <g id="patch_5">
    <path d="M 60.666772 291.7653 
L 417.786772 291.7653 
" style="fill: none; stroke: #000000; stroke-width: 0.8; stroke-linejoin: miter; stroke-linecap: square"/>
   </g>
   <g id="patch_6">
    <path d="M 60.666772 25.6533 
L 417.786772 25.6533 
" style="fill: none; stroke: #000000; stroke-width: 0.8; stroke-linejoin: miter; stroke-linecap: square"/>
   </g>
   <g id="text_14">
    <!-- Gaussian basis functions -->
    <g transform="translate(151.251724 19.6533) scale(0.18 -0.18)">
     <defs>
      <path id="CMR17-47" d="M 3974 1233 
C 3974 1473 3994 1505 4390 1505 
L 4390 1670 
C 4237 1664 3891 1664 3718 1664 
C 3539 1664 3040 1664 2797 1664 
L 2797 1505 
L 2989 1505 
C 3539 1505 3552 1434 3552 1201 
L 3552 774 
C 3552 63 2720 63 2522 63 
C 1862 63 781 511 781 2160 
C 781 3808 1843 4250 2464 4250 
C 3187 4250 3712 3626 3834 2741 
C 3846 2664 3846 2651 3904 2651 
C 3974 2651 3974 2664 3974 2779 
L 3974 4288 
C 3974 4402 3968 4409 3930 4409 
C 3904 4409 3898 4402 3853 4326 
L 3571 3791 
C 3258 4187 2874 4416 2381 4416 
C 1286 4416 294 3456 294 2148 
C 294 845 1267 -128 2394 -128 
C 2912 -128 3418 56 3616 417 
C 3725 158 3904 -20 3936 -20 
C 3968 -20 3974 -13 3974 100 
L 3974 1233 
z
" transform="scale(0.015625)"/>
      <path id="CMR17-61" d="M 2304 1653 
C 2304 2072 2304 2294 2035 2543 
C 1798 2752 1523 2816 1306 2816 
C 800 2816 435 2407 435 1971 
C 435 1728 627 1728 666 1728 
C 749 1728 896 1778 896 1954 
C 896 2112 774 2181 666 2181 
C 640 2181 608 2174 589 2168 
C 723 2592 1069 2714 1293 2714 
C 1613 2714 1965 2429 1965 1885 
L 1965 1600 
C 1587 1600 1133 1549 774 1357 
C 371 1133 256 813 256 570 
C 256 77 832 -64 1171 -64 
C 1523 -64 1850 139 1990 511 
C 2003 233 2182 -18 2464 -18 
C 2598 -18 2938 70 2938 567 
L 2938 920 
L 2822 920 
L 2822 562 
C 2822 178 2650 128 2566 128 
C 2304 128 2304 458 2304 738 
L 2304 1653 
z
M 1965 870 
C 1965 317 1568 38 1216 38 
C 896 38 646 275 646 570 
C 646 761 730 1100 1101 1305 
C 1408 1478 1760 1504 1965 1504 
L 1965 870 
z
" transform="scale(0.015625)"/>
      <path id="CMR17-75" d="M 1882 2693 
L 1882 2528 
C 2259 2528 2317 2489 2317 2186 
L 2317 1032 
C 2317 500 2029 38 1555 38 
C 1030 38 986 348 986 678 
L 986 2763 
L 211 2693 
L 211 2528 
C 467 2528 640 2528 646 2274 
L 646 1058 
C 646 633 646 361 813 183 
C 896 101 1056 -64 1517 -64 
C 2061 -64 2272 377 2323 506 
L 2330 506 
L 2330 -63 
L 3091 -63 
L 3091 128 
C 2714 128 2656 166 2656 473 
L 2656 2763 
L 1882 2693 
z
" transform="scale(0.015625)"/>
      <path id="CMR17-73" d="M 1978 2697 
C 1978 2813 1971 2819 1933 2819 
C 1907 2819 1901 2813 1824 2717 
C 1805 2691 1747 2626 1728 2601 
C 1523 2819 1235 2819 1126 2819 
C 416 2819 160 2447 160 2076 
C 160 1498 813 1365 998 1325 
C 1402 1243 1542 1217 1677 1101 
C 1760 1025 1901 884 1901 654 
C 1901 384 1747 38 1158 38 
C 602 38 403 460 288 1021 
C 269 1110 269 1117 218 1117 
C 166 1117 160 1110 160 983 
L 160 63 
C 160 -51 166 -58 205 -58 
C 237 -58 243 -51 275 0 
C 314 57 410 211 448 276 
C 576 103 800 -64 1158 -64 
C 1792 -64 2131 283 2131 784 
C 2131 1112 1958 1285 1875 1362 
C 1683 1561 1459 1606 1190 1657 
C 838 1735 390 1825 390 2217 
C 390 2383 480 2737 1126 2737 
C 1811 2737 1850 2094 1862 1888 
C 1869 1856 1901 1849 1920 1849 
C 1978 1849 1978 1869 1978 1978 
L 1978 2697 
z
" transform="scale(0.015625)"/>
      <path id="CMR17-69" d="M 992 3909 
C 992 4049 877 4170 730 4170 
C 589 4170 467 4056 467 3909 
C 467 3769 582 3648 730 3648 
C 870 3648 992 3763 992 3909 
z
M 243 2706 
L 243 2541 
C 602 2541 653 2502 653 2197 
L 653 427 
C 653 184 627 153 218 153 
L 218 -13 
C 371 0 646 0 806 0 
C 960 0 1222 0 1370 -13 
L 1370 153 
C 992 153 979 191 979 420 
L 979 2776 
L 243 2706 
z
" transform="scale(0.015625)"/>
      <path id="CMR17-6e" d="M 2656 1933 
C 2656 2259 2592 2790 1837 2790 
C 1331 2790 1069 2400 973 2144 
L 966 2144 
L 966 2790 
L 211 2720 
L 211 2554 
C 589 2554 646 2515 646 2208 
L 646 428 
C 646 184 621 153 211 153 
L 211 -13 
C 365 0 646 0 813 0 
C 979 0 1267 0 1421 -13 
L 1421 153 
C 1011 153 986 178 986 428 
L 986 1658 
C 986 2247 1344 2688 1792 2688 
C 2266 2688 2317 2266 2317 1958 
L 2317 428 
C 2317 184 2291 153 1882 153 
L 1882 -13 
C 2035 0 2317 0 2483 0 
C 2650 0 2938 0 3091 -13 
L 3091 153 
C 2682 153 2656 178 2656 428 
L 2656 1933 
z
" transform="scale(0.015625)"/>
      <path id="CMR17-62" d="M 960 4396 
L 198 4326 
L 198 4160 
C 576 4160 634 4122 634 3817 
L 634 -13 
L 749 -13 
L 934 441 
C 1120 141 1395 -64 1766 -64 
C 2406 -64 3053 500 3053 1370 
C 3053 2188 2477 2790 1830 2790 
C 1434 2790 1152 2579 960 2330 
L 960 4396 
z
M 973 2004 
C 973 2118 973 2138 1062 2272 
C 1312 2657 1670 2688 1792 2688 
C 1984 2688 2643 2585 2643 1376 
C 2643 108 1888 38 1734 38 
C 1536 38 1248 114 1043 486 
C 973 608 973 621 973 735 
L 973 2004 
z
" transform="scale(0.015625)"/>
      <path id="CMR17-66" d="M 979 2560 
L 1709 2560 
L 1709 2725 
L 966 2725 
L 966 3494 
C 966 4022 1235 4352 1510 4352 
C 1594 4352 1690 4327 1754 4282 
C 1702 4269 1568 4225 1568 4067 
C 1568 3901 1696 3850 1786 3850 
C 1875 3850 2003 3901 2003 4067 
C 2003 4308 1773 4454 1517 4454 
C 1152 4454 653 4156 653 3481 
L 653 2725 
L 141 2725 
L 141 2560 
L 653 2560 
L 653 427 
C 653 184 627 153 218 153 
L 218 -13 
C 371 0 666 0 832 0 
C 1018 0 1344 0 1517 -13 
L 1517 153 
C 1056 153 979 153 979 439 
L 979 2560 
z
" transform="scale(0.015625)"/>
      <path id="CMR17-63" d="M 2234 2240 
C 2112 2240 1933 2240 1933 2017 
C 1933 1838 2080 1787 2163 1787 
C 2208 1787 2394 1807 2394 2024 
C 2394 2467 1958 2803 1466 2803 
C 787 2803 211 2178 211 1363 
C 211 516 813 -64 1466 -64 
C 2259 -64 2458 677 2458 748 
C 2458 774 2451 793 2406 793 
C 2362 793 2355 787 2330 703 
C 2163 180 1798 51 1523 51 
C 1114 51 621 427 621 1369 
C 621 2338 1094 2688 1472 2688 
C 1722 2688 2093 2573 2234 2240 
z
" transform="scale(0.015625)"/>
      <path id="CMR17-74" d="M 966 2560 
L 1862 2560 
L 1862 2725 
L 966 2725 
L 966 3904 
L 851 3904 
C 838 3245 614 2668 70 2668 
L 70 2560 
L 627 2560 
L 627 771 
C 627 650 627 -64 1370 -64 
C 1747 -64 1965 306 1965 777 
L 1965 1140 
L 1850 1140 
L 1850 783 
C 1850 344 1677 51 1408 51 
C 1222 51 966 178 966 758 
L 966 2560 
z
" transform="scale(0.015625)"/>
      <path id="CMR17-6f" d="M 2758 1356 
C 2758 2176 2163 2816 1466 2816 
C 768 2816 173 2176 173 1356 
C 173 551 768 -64 1466 -64 
C 2163 -64 2758 551 2758 1356 
z
M 1466 51 
C 1165 51 909 230 762 480 
C 602 767 582 1126 582 1408 
C 582 1677 595 2010 762 2298 
C 890 2509 1139 2714 1466 2714 
C 1754 2714 1997 2554 2150 2330 
C 2349 2029 2349 1607 2349 1408 
C 2349 1158 2336 775 2163 467 
C 1984 173 1709 51 1466 51 
z
" transform="scale(0.015625)"/>
     </defs>
     <use xlink:href="#CMR17-47" transform="scale(0.996264)"/>
     <use xlink:href="#CMR17-61" transform="translate(72.355346 0) scale(0.996264)"/>
     <use xlink:href="#CMR17-75" transform="translate(118.045823 0) scale(0.996264)"/>
     <use xlink:href="#CMR17-73" transform="translate(168.941193 0) scale(0.996264)"/>
     <use xlink:href="#CMR17-73" transform="translate(204.74253 0) scale(0.996264)"/>
     <use xlink:href="#CMR17-69" transform="translate(240.543868 0) scale(0.996264)"/>
     <use xlink:href="#CMR17-61" transform="translate(265.414927 0) scale(0.996264)"/>
     <use xlink:href="#CMR17-6e" transform="translate(311.105404 0) scale(0.996264)"/>
     <use xlink:href="#CMR17-62" transform="translate(392.07674 0) scale(0.996264)"/>
     <use xlink:href="#CMR17-61" transform="translate(442.97211 0) scale(0.996264)"/>
     <use xlink:href="#CMR17-73" transform="translate(488.662587 0) scale(0.996264)"/>
     <use xlink:href="#CMR17-69" transform="translate(524.463924 0) scale(0.996264)"/>
     <use xlink:href="#CMR17-73" transform="translate(549.334983 0) scale(0.996264)"/>
     <use xlink:href="#CMR17-66" transform="translate(615.212287 0) scale(0.996264)"/>
     <use xlink:href="#CMR17-75" transform="translate(642.685799 0) scale(0.996264)"/>
     <use xlink:href="#CMR17-6e" transform="translate(693.581169 0) scale(0.996264)"/>
     <use xlink:href="#CMR17-63" transform="translate(744.476539 0) scale(0.996264)"/>
     <use xlink:href="#CMR17-74" transform="translate(784.962199 0) scale(0.996264)"/>
     <use xlink:href="#CMR17-69" transform="translate(820.242967 0) scale(0.996264)"/>
     <use xlink:href="#CMR17-6f" transform="translate(845.114026 0) scale(0.996264)"/>
     <use xlink:href="#CMR17-6e" transform="translate(890.804503 0) scale(0.996264)"/>
     <use xlink:href="#CMR17-73" transform="translate(941.699872 0) scale(0.996264)"/>
    </g>
   </g>
   <g id="legend_1">
    <g id="patch_7">
     <path d="M 334.768814 202.32079 
L 409.386772 202.32079 
Q 411.786772 202.32079 411.786772 199.92079 
L 411.786772 117.497811 
Q 411.786772 115.097811 409.386772 115.097811 
L 334.768814 115.097811 
Q 332.368814 115.097811 332.368814 117.497811 
L 332.368814 199.92079 
Q 332.368814 202.32079 334.768814 202.32079 
z
" style="fill: #ffffff; opacity: 0.8; stroke: #cccccc; stroke-linejoin: miter"/>
    </g>
    <g id="line2d_28">
     <path d="M 337.168814 124.097811 
L 349.168814 124.097811 
L 361.168814 124.097811 
" style="fill: none; stroke: #ff0000; stroke-width: 2; stroke-linecap: square"/>
    </g>
    <g id="text_15">
     <!-- $s=0.1$ -->
     <g transform="translate(370.768814 128.297811) scale(0.12 -0.12)">
      <defs>
       <path id="CMR17-3d" d="M 4115 2017 
C 4211 2017 4307 2017 4307 2125 
C 4307 2240 4198 2240 4090 2240 
L 512 2240 
C 403 2240 294 2240 294 2125 
C 294 2017 390 2017 486 2017 
L 4115 2017 
z
M 4090 896 
C 4198 896 4307 896 4307 1011 
C 4307 1119 4211 1119 4115 1119 
L 486 1119 
C 390 1119 294 1119 294 1011 
C 294 896 403 896 512 896 
L 4090 896 
z
" transform="scale(0.015625)"/>
      </defs>
      <use xlink:href="#CMMI12-73" transform="scale(0.996264)"/>
      <use xlink:href="#CMR17-3d" transform="translate(73.624056 0) scale(0.996264)"/>
      <use xlink:href="#CMR17-30" transform="translate(173.012853 0) scale(0.996264)"/>
      <use xlink:href="#CMMI12-3a" transform="translate(218.703331 0) scale(0.996264)"/>
      <use xlink:href="#CMR17-31" transform="translate(245.800508 0) scale(0.996264)"/>
     </g>
    </g>
    <g id="line2d_29">
     <path d="M 337.168814 140.822406 
L 349.168814 140.822406 
L 361.168814 140.822406 
" style="fill: none; stroke: #008000; stroke-width: 2; stroke-linecap: square"/>
    </g>
    <g id="text_16">
     <!-- $s=0.3$ -->
     <g transform="translate(370.768814 145.022406) scale(0.12 -0.12)">
      <defs>
       <path id="CMR17-33" d="M 1414 2157 
C 1984 2157 2234 1662 2234 1090 
C 2234 320 1824 25 1453 25 
C 1114 25 563 194 390 693 
C 422 680 454 680 486 680 
C 640 680 755 782 755 948 
C 755 1133 614 1216 486 1216 
C 378 1216 211 1165 211 926 
C 211 335 787 -128 1466 -128 
C 2176 -128 2720 430 2720 1085 
C 2720 1707 2208 2157 1600 2227 
C 2086 2328 2554 2756 2554 3329 
C 2554 3820 2048 4179 1472 4179 
C 890 4179 378 3829 378 3329 
C 378 3110 544 3072 627 3072 
C 762 3072 877 3155 877 3321 
C 877 3486 762 3569 627 3569 
C 602 3569 570 3569 544 3557 
C 730 3959 1235 4032 1459 4032 
C 1683 4032 2106 3925 2106 3320 
C 2106 3143 2080 2828 1862 2550 
C 1670 2304 1453 2304 1242 2284 
C 1210 2284 1062 2269 1037 2269 
C 992 2263 966 2257 966 2208 
C 966 2163 973 2157 1101 2157 
L 1414 2157 
z
" transform="scale(0.015625)"/>
      </defs>
      <use xlink:href="#CMMI12-73" transform="scale(0.996264)"/>
      <use xlink:href="#CMR17-3d" transform="translate(73.624056 0) scale(0.996264)"/>
      <use xlink:href="#CMR17-30" transform="translate(173.012853 0) scale(0.996264)"/>
      <use xlink:href="#CMMI12-3a" transform="translate(218.703331 0) scale(0.996264)"/>
      <use xlink:href="#CMR17-33" transform="translate(245.800508 0) scale(0.996264)"/>
     </g>
    </g>
    <g id="line2d_30">
     <path d="M 337.168814 157.547002 
L 349.168814 157.547002 
L 361.168814 157.547002 
" style="fill: none; stroke: #0000ff; stroke-width: 2; stroke-linecap: square"/>
    </g>
    <g id="text_17">
     <!-- $s=1$ -->
     <g transform="translate(370.768814 161.747002) scale(0.12 -0.12)">
      <use xlink:href="#CMMI12-73" transform="scale(0.996264)"/>
      <use xlink:href="#CMR17-3d" transform="translate(73.624056 0) scale(0.996264)"/>
      <use xlink:href="#CMR17-31" transform="translate(173.012853 0) scale(0.996264)"/>
     </g>
    </g>
    <g id="line2d_31">
     <path d="M 337.168814 174.271598 
L 349.168814 174.271598 
L 361.168814 174.271598 
" style="fill: none; stroke: #ffa500; stroke-width: 2; stroke-linecap: square"/>
    </g>
    <g id="text_18">
     <!-- $s=3$ -->
     <g transform="translate(370.768814 178.471598) scale(0.12 -0.12)">
      <use xlink:href="#CMMI12-73" transform="scale(0.996264)"/>
      <use xlink:href="#CMR17-3d" transform="translate(73.624056 0) scale(0.996264)"/>
      <use xlink:href="#CMR17-33" transform="translate(173.012853 0) scale(0.996264)"/>
     </g>
    </g>
    <g id="line2d_32">
     <path d="M 337.168814 190.996194 
L 349.168814 190.996194 
L 361.168814 190.996194 
" style="fill: none; stroke: #a52a2a; stroke-width: 2; stroke-linecap: square"/>
    </g>
    <g id="text_19">
     <!-- $s=10$ -->
     <g transform="translate(370.768814 195.196194) scale(0.12 -0.12)">
      <use xlink:href="#CMMI12-73" transform="scale(0.996264)"/>
      <use xlink:href="#CMR17-3d" transform="translate(73.624056 0) scale(0.996264)"/>
      <use xlink:href="#CMR17-31" transform="translate(173.012853 0) scale(0.996264)"/>
      <use xlink:href="#CMR17-30" transform="translate(218.703331 0) scale(0.996264)"/>
     </g>
    </g>
   </g>
  </g>
 </g>
 <defs>
  <clipPath id="pfbd545c508">
   <rect x="60.666772" y="25.6533" width="357.12" height="266.112"/>
  </clipPath>
 </defs>
</svg>