<?xml version="1.0" encoding="UTF-8" standalone="no"?>
<!DOCTYPE svg PUBLIC "-//W3C//DTD SVG 1.1//EN"
 "http://www.w3.org/Graphics/SVG/1.1/DTD/svg11.dtd">
<!-- Generated by graphviz version 11.0.0 (20240428.1522)
 -->
<!-- Title: Tree Pages: 1 -->
<svg width="332pt" height="314pt"
 viewBox="0.00 0.00 331.50 314.00" xmlns="http://www.w3.org/2000/svg" xmlns:xlink="http://www.w3.org/1999/xlink">
<g id="graph0" class="graph" transform="scale(1 1) rotate(0) translate(4 310)">
<title>Tree</title>
<polygon fill="white" stroke="none" points="-4,4 -4,-310 327.5,-310 327.5,4 -4,4"/>
<!-- 0 -->
<g id="node1" class="node">
<title>0</title>
<path fill="#ffffff" stroke="black" d="M181,-306C181,-306 73.5,-306 73.5,-306 67.5,-306 61.5,-300 61.5,-294 61.5,-294 61.5,-235 61.5,-235 61.5,-229 67.5,-223 73.5,-223 73.5,-223 181,-223 181,-223 187,-223 193,-229 193,-235 193,-235 193,-294 193,-294 193,-300 187,-306 181,-306"/>
<text text-anchor="start" x="76.25" y="-288.7" font-family="Helvetica,sans-Serif" font-size="14.00">petal_width ≤ 0.8</text>
<text text-anchor="start" x="92" y="-273.7" font-family="Helvetica,sans-Serif" font-size="14.00">gini = 0.667</text>
<text text-anchor="start" x="82.62" y="-258.7" font-family="Helvetica,sans-Serif" font-size="14.00">samples = 150</text>
<text text-anchor="start" x="69.5" y="-243.7" font-family="Helvetica,sans-Serif" font-size="14.00">value = [50, 50, 50]</text>
<text text-anchor="start" x="84.12" y="-228.7" font-family="Helvetica,sans-Serif" font-size="14.00">class = setosa</text>
</g>
<!-- 1 -->
<g id="node2" class="node">
<title>1</title>
<path fill="#e58139" stroke="black" d="M104.5,-179.5C104.5,-179.5 12,-179.5 12,-179.5 6,-179.5 0,-173.5 0,-167.5 0,-167.5 0,-123.5 0,-123.5 0,-117.5 6,-111.5 12,-111.5 12,-111.5 104.5,-111.5 104.5,-111.5 110.5,-111.5 116.5,-117.5 116.5,-123.5 116.5,-123.5 116.5,-167.5 116.5,-167.5 116.5,-173.5 110.5,-179.5 104.5,-179.5"/>
<text text-anchor="start" x="30.5" y="-162.2" font-family="Helvetica,sans-Serif" font-size="14.00">gini = 0.0</text>
<text text-anchor="start" x="17.38" y="-147.2" font-family="Helvetica,sans-Serif" font-size="14.00">samples = 50</text>
<text text-anchor="start" x="8" y="-132.2" font-family="Helvetica,sans-Serif" font-size="14.00">value = [50, 0, 0]</text>
<text text-anchor="start" x="15.12" y="-117.2" font-family="Helvetica,sans-Serif" font-size="14.00">class = setosa</text>
</g>
<!-- 0&#45;&gt;1 -->
<g id="edge1" class="edge">
<title>0&#45;&gt;1</title>
<path fill="none" stroke="black" d="M103.12,-222.58C96.81,-211.88 89.99,-200.32 83.62,-189.52"/>
<polygon fill="black" stroke="black" points="86.79,-188 78.69,-181.16 80.76,-191.56 86.79,-188"/>
<text text-anchor="middle" x="71.68" y="-198.27" font-family="Helvetica,sans-Serif" font-size="14.00">True</text>
</g>
<!-- 2 -->
<g id="node3" class="node">
<title>2</title>
<path fill="#ffffff" stroke="black" d="M248,-187C248,-187 146.5,-187 146.5,-187 140.5,-187 134.5,-181 134.5,-175 134.5,-175 134.5,-116 134.5,-116 134.5,-110 140.5,-104 146.5,-104 146.5,-104 248,-104 248,-104 254,-104 260,-110 260,-116 260,-116 260,-175 260,-175 260,-181 254,-187 248,-187"/>
<text text-anchor="start" x="142.5" y="-169.7" font-family="Helvetica,sans-Serif" font-size="14.00">petal_width ≤ 1.75</text>
<text text-anchor="start" x="169.5" y="-154.7" font-family="Helvetica,sans-Serif" font-size="14.00">gini = 0.5</text>
<text text-anchor="start" x="152.62" y="-139.7" font-family="Helvetica,sans-Serif" font-size="14.00">samples = 100</text>
<text text-anchor="start" x="143.25" y="-124.7" font-family="Helvetica,sans-Serif" font-size="14.00">value = [0, 50, 50]</text>
<text text-anchor="start" x="145.12" y="-109.7" font-family="Helvetica,sans-Serif" font-size="14.00">class = versicolor</text>
</g>
<!-- 0&#45;&gt;2 -->
<g id="edge2" class="edge">
<title>0&#45;&gt;2</title>
<path fill="none" stroke="black" d="M151.73,-222.58C156.66,-214.34 161.9,-205.58 167,-197.06"/>
<polygon fill="black" stroke="black" points="169.99,-198.88 172.12,-188.5 163.98,-195.28 169.99,-198.88"/>
<text text-anchor="middle" x="178.99" y="-205.65" font-family="Helvetica,sans-Serif" font-size="14.00">False</text>
</g>
<!-- 3 -->
<g id="node4" class="node">
<title>3</title>
<path fill="#4de88e" stroke="black" d="M177.38,-68C177.38,-68 81.12,-68 81.12,-68 75.12,-68 69.12,-62 69.12,-56 69.12,-56 69.12,-12 69.12,-12 69.12,-6 75.12,0 81.12,0 81.12,0 177.38,0 177.38,0 183.38,0 189.38,-6 189.38,-12 189.38,-12 189.38,-56 189.38,-56 189.38,-62 183.38,-68 177.38,-68"/>
<text text-anchor="start" x="94" y="-50.7" font-family="Helvetica,sans-Serif" font-size="14.00">gini = 0.168</text>
<text text-anchor="start" x="88.38" y="-35.7" font-family="Helvetica,sans-Serif" font-size="14.00">samples = 54</text>
<text text-anchor="start" x="79" y="-20.7" font-family="Helvetica,sans-Serif" font-size="14.00">value = [0, 49, 5]</text>
<text text-anchor="start" x="77.12" y="-5.7" font-family="Helvetica,sans-Serif" font-size="14.00">class = versicolor</text>
</g>
<!-- 2&#45;&gt;3 -->
<g id="edge3" class="edge">
<title>2&#45;&gt;3</title>
<path fill="none" stroke="black" d="M171.93,-103.73C166.72,-95.34 161.22,-86.47 155.96,-78.01"/>
<polygon fill="black" stroke="black" points="158.98,-76.23 150.73,-69.59 153.03,-79.93 158.98,-76.23"/>
</g>
<!-- 4 -->
<g id="node5" class="node">
<title>4</title>
<path fill="#843de6" stroke="black" d="M311.5,-68C311.5,-68 219,-68 219,-68 213,-68 207,-62 207,-56 207,-56 207,-12 207,-12 207,-6 213,0 219,0 219,0 311.5,0 311.5,0 317.5,0 323.5,-6 323.5,-12 323.5,-12 323.5,-56 323.5,-56 323.5,-62 317.5,-68 311.5,-68"/>
<text text-anchor="start" x="230" y="-50.7" font-family="Helvetica,sans-Serif" font-size="14.00">gini = 0.043</text>
<text text-anchor="start" x="224.38" y="-35.7" font-family="Helvetica,sans-Serif" font-size="14.00">samples = 46</text>
<text text-anchor="start" x="215" y="-20.7" font-family="Helvetica,sans-Serif" font-size="14.00">value = [0, 1, 45]</text>
<text text-anchor="start" x="217.25" y="-5.7" font-family="Helvetica,sans-Serif" font-size="14.00">class = virginica</text>
</g>
<!-- 2&#45;&gt;4 -->
<g id="edge4" class="edge">
<title>2&#45;&gt;4</title>
<path fill="none" stroke="black" d="M222.57,-103.73C227.78,-95.34 233.28,-86.47 238.54,-78.01"/>
<polygon fill="black" stroke="black" points="241.47,-79.93 243.77,-69.59 235.52,-76.23 241.47,-79.93"/>
</g>
</g>
</svg>