<?xml version="1.0" encoding="utf-8" standalone="no"?>
<!DOCTYPE svg PUBLIC "-//W3C//DTD SVG 1.1//EN"
  "http://www.w3.org/Graphics/SVG/1.1/DTD/svg11.dtd">
<svg xmlns:xlink="http://www.w3.org/1999/xlink" width="384.8825pt" height="312.30825pt" viewBox="0 0 384.8825 312.30825" xmlns="http://www.w3.org/2000/svg" version="1.1">
 <metadata>
  <rdf:RDF xmlns:dc="http://purl.org/dc/elements/1.1/" xmlns:cc="http://creativecommons.org/ns#" xmlns:rdf="http://www.w3.org/1999/02/22-rdf-syntax-ns#">
   <cc:Work>
    <dc:type rdf:resource="http://purl.org/dc/dcmitype/StillImage"/>
    <dc:date>2024-11-01T21:31:05.284603</dc:date>
    <dc:format>image/svg+xml</dc:format>
    <dc:creator>
     <cc:Agent>
      <dc:title>Matplotlib v3.7.1, https://matplotlib.org/</dc:title>
     </cc:Agent>
    </dc:creator>
   </cc:Work>
  </rdf:RDF>
 </metadata>
 <defs>
  <style type="text/css">*{stroke-linejoin: round; stroke-linecap: butt}</style>
 </defs>
 <g id="figure_1">
  <g id="patch_1">
   <path d="M 0 312.30825 
L 384.8825 312.30825 
L 384.8825 0 
L 0 0 
z
" style="fill: #ffffff"/>
  </g>
  <g id="axes_1">
   <g id="patch_2">
    <path d="M 20.5625 288.430125 
L 377.6825 288.430125 
L 377.6825 22.318125 
L 20.5625 22.318125 
z
" style="fill: #ffffff"/>
   </g>
   <g id="matplotlib.axis_1">
    <g id="xtick_1">
     <g id="line2d_1">
      <path d="M 36.469922 288.430125 
L 36.469922 22.318125 
" clip-path="url(#p73889098b9)" style="fill: none; stroke-dasharray: 0.8,1.32; stroke-dashoffset: 0; stroke: #b0b0b0; stroke-width: 0.8"/>
     </g>
     <g id="line2d_2">
      <defs>
       <path id="m88335a2925" d="M 0 0 
L 0 3.5 
" style="stroke: #000000; stroke-width: 0.8"/>
      </defs>
      <g>
       <use xlink:href="#m88335a2925" x="36.469922" y="288.430125" style="stroke: #000000; stroke-width: 0.8"/>
      </g>
     </g>
     <g id="text_1">
      <!-- 0.0 -->
      <g transform="translate(28.51836 303.028562) scale(0.1 -0.1)">
       <defs>
        <path id="DejaVuSans-30" d="M 2034 4250 
Q 1547 4250 1301 3770 
Q 1056 3291 1056 2328 
Q 1056 1369 1301 889 
Q 1547 409 2034 409 
Q 2525 409 2770 889 
Q 3016 1369 3016 2328 
Q 3016 3291 2770 3770 
Q 2525 4250 2034 4250 
z
M 2034 4750 
Q 2819 4750 3233 4129 
Q 3647 3509 3647 2328 
Q 3647 1150 3233 529 
Q 2819 -91 2034 -91 
Q 1250 -91 836 529 
Q 422 1150 422 2328 
Q 422 3509 836 4129 
Q 1250 4750 2034 4750 
z
" transform="scale(0.015625)"/>
        <path id="DejaVuSans-2e" d="M 684 794 
L 1344 794 
L 1344 0 
L 684 0 
L 684 794 
z
" transform="scale(0.015625)"/>
       </defs>
       <use xlink:href="#DejaVuSans-30"/>
       <use xlink:href="#DejaVuSans-2e" x="63.623047"/>
       <use xlink:href="#DejaVuSans-30" x="95.410156"/>
      </g>
     </g>
    </g>
    <g id="xtick_2">
     <g id="line2d_3">
      <path d="M 101.530953 288.430125 
L 101.530953 22.318125 
" clip-path="url(#p73889098b9)" style="fill: none; stroke-dasharray: 0.8,1.32; stroke-dashoffset: 0; stroke: #b0b0b0; stroke-width: 0.8"/>
     </g>
     <g id="line2d_4">
      <g>
       <use xlink:href="#m88335a2925" x="101.530953" y="288.430125" style="stroke: #000000; stroke-width: 0.8"/>
      </g>
     </g>
     <g id="text_2">
      <!-- 0.2 -->
      <g transform="translate(93.579391 303.028562) scale(0.1 -0.1)">
       <defs>
        <path id="DejaVuSans-32" d="M 1228 531 
L 3431 531 
L 3431 0 
L 469 0 
L 469 531 
Q 828 903 1448 1529 
Q 2069 2156 2228 2338 
Q 2531 2678 2651 2914 
Q 2772 3150 2772 3378 
Q 2772 3750 2511 3984 
Q 2250 4219 1831 4219 
Q 1534 4219 1204 4116 
Q 875 4013 500 3803 
L 500 4441 
Q 881 4594 1212 4672 
Q 1544 4750 1819 4750 
Q 2544 4750 2975 4387 
Q 3406 4025 3406 3419 
Q 3406 3131 3298 2873 
Q 3191 2616 2906 2266 
Q 2828 2175 2409 1742 
Q 1991 1309 1228 531 
z
" transform="scale(0.015625)"/>
       </defs>
       <use xlink:href="#DejaVuSans-30"/>
       <use xlink:href="#DejaVuSans-2e" x="63.623047"/>
       <use xlink:href="#DejaVuSans-32" x="95.410156"/>
      </g>
     </g>
    </g>
    <g id="xtick_3">
     <g id="line2d_5">
      <path d="M 166.591984 288.430125 
L 166.591984 22.318125 
" clip-path="url(#p73889098b9)" style="fill: none; stroke-dasharray: 0.8,1.32; stroke-dashoffset: 0; stroke: #b0b0b0; stroke-width: 0.8"/>
     </g>
     <g id="line2d_6">
      <g>
       <use xlink:href="#m88335a2925" x="166.591984" y="288.430125" style="stroke: #000000; stroke-width: 0.8"/>
      </g>
     </g>
     <g id="text_3">
      <!-- 0.4 -->
      <g transform="translate(158.640422 303.028562) scale(0.1 -0.1)">
       <defs>
        <path id="DejaVuSans-34" d="M 2419 4116 
L 825 1625 
L 2419 1625 
L 2419 4116 
z
M 2253 4666 
L 3047 4666 
L 3047 1625 
L 3713 1625 
L 3713 1100 
L 3047 1100 
L 3047 0 
L 2419 0 
L 2419 1100 
L 313 1100 
L 313 1709 
L 2253 4666 
z
" transform="scale(0.015625)"/>
       </defs>
       <use xlink:href="#DejaVuSans-30"/>
       <use xlink:href="#DejaVuSans-2e" x="63.623047"/>
       <use xlink:href="#DejaVuSans-34" x="95.410156"/>
      </g>
     </g>
    </g>
    <g id="xtick_4">
     <g id="line2d_7">
      <path d="M 231.653016 288.430125 
L 231.653016 22.318125 
" clip-path="url(#p73889098b9)" style="fill: none; stroke-dasharray: 0.8,1.32; stroke-dashoffset: 0; stroke: #b0b0b0; stroke-width: 0.8"/>
     </g>
     <g id="line2d_8">
      <g>
       <use xlink:href="#m88335a2925" x="231.653016" y="288.430125" style="stroke: #000000; stroke-width: 0.8"/>
      </g>
     </g>
     <g id="text_4">
      <!-- 0.6 -->
      <g transform="translate(223.701453 303.028562) scale(0.1 -0.1)">
       <defs>
        <path id="DejaVuSans-36" d="M 2113 2584 
Q 1688 2584 1439 2293 
Q 1191 2003 1191 1497 
Q 1191 994 1439 701 
Q 1688 409 2113 409 
Q 2538 409 2786 701 
Q 3034 994 3034 1497 
Q 3034 2003 2786 2293 
Q 2538 2584 2113 2584 
z
M 3366 4563 
L 3366 3988 
Q 3128 4100 2886 4159 
Q 2644 4219 2406 4219 
Q 1781 4219 1451 3797 
Q 1122 3375 1075 2522 
Q 1259 2794 1537 2939 
Q 1816 3084 2150 3084 
Q 2853 3084 3261 2657 
Q 3669 2231 3669 1497 
Q 3669 778 3244 343 
Q 2819 -91 2113 -91 
Q 1303 -91 875 529 
Q 447 1150 447 2328 
Q 447 3434 972 4092 
Q 1497 4750 2381 4750 
Q 2619 4750 2861 4703 
Q 3103 4656 3366 4563 
z
" transform="scale(0.015625)"/>
       </defs>
       <use xlink:href="#DejaVuSans-30"/>
       <use xlink:href="#DejaVuSans-2e" x="63.623047"/>
       <use xlink:href="#DejaVuSans-36" x="95.410156"/>
      </g>
     </g>
    </g>
    <g id="xtick_5">
     <g id="line2d_9">
      <path d="M 296.714047 288.430125 
L 296.714047 22.318125 
" clip-path="url(#p73889098b9)" style="fill: none; stroke-dasharray: 0.8,1.32; stroke-dashoffset: 0; stroke: #b0b0b0; stroke-width: 0.8"/>
     </g>
     <g id="line2d_10">
      <g>
       <use xlink:href="#m88335a2925" x="296.714047" y="288.430125" style="stroke: #000000; stroke-width: 0.8"/>
      </g>
     </g>
     <g id="text_5">
      <!-- 0.8 -->
      <g transform="translate(288.762484 303.028562) scale(0.1 -0.1)">
       <defs>
        <path id="DejaVuSans-38" d="M 2034 2216 
Q 1584 2216 1326 1975 
Q 1069 1734 1069 1313 
Q 1069 891 1326 650 
Q 1584 409 2034 409 
Q 2484 409 2743 651 
Q 3003 894 3003 1313 
Q 3003 1734 2745 1975 
Q 2488 2216 2034 2216 
z
M 1403 2484 
Q 997 2584 770 2862 
Q 544 3141 544 3541 
Q 544 4100 942 4425 
Q 1341 4750 2034 4750 
Q 2731 4750 3128 4425 
Q 3525 4100 3525 3541 
Q 3525 3141 3298 2862 
Q 3072 2584 2669 2484 
Q 3125 2378 3379 2068 
Q 3634 1759 3634 1313 
Q 3634 634 3220 271 
Q 2806 -91 2034 -91 
Q 1263 -91 848 271 
Q 434 634 434 1313 
Q 434 1759 690 2068 
Q 947 2378 1403 2484 
z
M 1172 3481 
Q 1172 3119 1398 2916 
Q 1625 2713 2034 2713 
Q 2441 2713 2670 2916 
Q 2900 3119 2900 3481 
Q 2900 3844 2670 4047 
Q 2441 4250 2034 4250 
Q 1625 4250 1398 4047 
Q 1172 3844 1172 3481 
z
" transform="scale(0.015625)"/>
       </defs>
       <use xlink:href="#DejaVuSans-30"/>
       <use xlink:href="#DejaVuSans-2e" x="63.623047"/>
       <use xlink:href="#DejaVuSans-38" x="95.410156"/>
      </g>
     </g>
    </g>
    <g id="xtick_6">
     <g id="line2d_11">
      <path d="M 361.775078 288.430125 
L 361.775078 22.318125 
" clip-path="url(#p73889098b9)" style="fill: none; stroke-dasharray: 0.8,1.32; stroke-dashoffset: 0; stroke: #b0b0b0; stroke-width: 0.8"/>
     </g>
     <g id="line2d_12">
      <g>
       <use xlink:href="#m88335a2925" x="361.775078" y="288.430125" style="stroke: #000000; stroke-width: 0.8"/>
      </g>
     </g>
     <g id="text_6">
      <!-- 1.0 -->
      <g transform="translate(353.823515 303.028562) scale(0.1 -0.1)">
       <defs>
        <path id="DejaVuSans-31" d="M 794 531 
L 1825 531 
L 1825 4091 
L 703 3866 
L 703 4441 
L 1819 4666 
L 2450 4666 
L 2450 531 
L 3481 531 
L 3481 0 
L 794 0 
L 794 531 
z
" transform="scale(0.015625)"/>
       </defs>
       <use xlink:href="#DejaVuSans-31"/>
       <use xlink:href="#DejaVuSans-2e" x="63.623047"/>
       <use xlink:href="#DejaVuSans-30" x="95.410156"/>
      </g>
     </g>
    </g>
   </g>
   <g id="matplotlib.axis_2">
    <g id="ytick_1">
     <g id="line2d_13">
      <path d="M 20.5625 276.334125 
L 377.6825 276.334125 
" clip-path="url(#p73889098b9)" style="fill: none; stroke-dasharray: 0.8,1.32; stroke-dashoffset: 0; stroke: #b0b0b0; stroke-width: 0.8"/>
     </g>
     <g id="line2d_14">
      <defs>
       <path id="m6d7a99e2ce" d="M 0 0 
L -3.5 0 
" style="stroke: #000000; stroke-width: 0.8"/>
      </defs>
      <g>
       <use xlink:href="#m6d7a99e2ce" x="20.5625" y="276.334125" style="stroke: #000000; stroke-width: 0.8"/>
      </g>
     </g>
     <g id="text_7">
      <!-- 0 -->
      <g transform="translate(7.2 280.133344) scale(0.1 -0.1)">
       <use xlink:href="#DejaVuSans-30"/>
      </g>
     </g>
    </g>
    <g id="ytick_2">
     <g id="line2d_15">
      <path d="M 20.5625 243.524069 
L 377.6825 243.524069 
" clip-path="url(#p73889098b9)" style="fill: none; stroke-dasharray: 0.8,1.32; stroke-dashoffset: 0; stroke: #b0b0b0; stroke-width: 0.8"/>
     </g>
     <g id="line2d_16">
      <g>
       <use xlink:href="#m6d7a99e2ce" x="20.5625" y="243.524069" style="stroke: #000000; stroke-width: 0.8"/>
      </g>
     </g>
     <g id="text_8">
      <!-- 1 -->
      <g transform="translate(7.2 247.323288) scale(0.1 -0.1)">
       <use xlink:href="#DejaVuSans-31"/>
      </g>
     </g>
    </g>
    <g id="ytick_3">
     <g id="line2d_17">
      <path d="M 20.5625 210.714013 
L 377.6825 210.714013 
" clip-path="url(#p73889098b9)" style="fill: none; stroke-dasharray: 0.8,1.32; stroke-dashoffset: 0; stroke: #b0b0b0; stroke-width: 0.8"/>
     </g>
     <g id="line2d_18">
      <g>
       <use xlink:href="#m6d7a99e2ce" x="20.5625" y="210.714013" style="stroke: #000000; stroke-width: 0.8"/>
      </g>
     </g>
     <g id="text_9">
      <!-- 2 -->
      <g transform="translate(7.2 214.513232) scale(0.1 -0.1)">
       <use xlink:href="#DejaVuSans-32"/>
      </g>
     </g>
    </g>
    <g id="ytick_4">
     <g id="line2d_19">
      <path d="M 20.5625 177.903957 
L 377.6825 177.903957 
" clip-path="url(#p73889098b9)" style="fill: none; stroke-dasharray: 0.8,1.32; stroke-dashoffset: 0; stroke: #b0b0b0; stroke-width: 0.8"/>
     </g>
     <g id="line2d_20">
      <g>
       <use xlink:href="#m6d7a99e2ce" x="20.5625" y="177.903957" style="stroke: #000000; stroke-width: 0.8"/>
      </g>
     </g>
     <g id="text_10">
      <!-- 3 -->
      <g transform="translate(7.2 181.703175) scale(0.1 -0.1)">
       <defs>
        <path id="DejaVuSans-33" d="M 2597 2516 
Q 3050 2419 3304 2112 
Q 3559 1806 3559 1356 
Q 3559 666 3084 287 
Q 2609 -91 1734 -91 
Q 1441 -91 1130 -33 
Q 819 25 488 141 
L 488 750 
Q 750 597 1062 519 
Q 1375 441 1716 441 
Q 2309 441 2620 675 
Q 2931 909 2931 1356 
Q 2931 1769 2642 2001 
Q 2353 2234 1838 2234 
L 1294 2234 
L 1294 2753 
L 1863 2753 
Q 2328 2753 2575 2939 
Q 2822 3125 2822 3475 
Q 2822 3834 2567 4026 
Q 2313 4219 1838 4219 
Q 1578 4219 1281 4162 
Q 984 4106 628 3988 
L 628 4550 
Q 988 4650 1302 4700 
Q 1616 4750 1894 4750 
Q 2613 4750 3031 4423 
Q 3450 4097 3450 3541 
Q 3450 3153 3228 2886 
Q 3006 2619 2597 2516 
z
" transform="scale(0.015625)"/>
       </defs>
       <use xlink:href="#DejaVuSans-33"/>
      </g>
     </g>
    </g>
    <g id="ytick_5">
     <g id="line2d_21">
      <path d="M 20.5625 145.0939 
L 377.6825 145.0939 
" clip-path="url(#p73889098b9)" style="fill: none; stroke-dasharray: 0.8,1.32; stroke-dashoffset: 0; stroke: #b0b0b0; stroke-width: 0.8"/>
     </g>
     <g id="line2d_22">
      <g>
       <use xlink:href="#m6d7a99e2ce" x="20.5625" y="145.0939" style="stroke: #000000; stroke-width: 0.8"/>
      </g>
     </g>
     <g id="text_11">
      <!-- 4 -->
      <g transform="translate(7.2 148.893119) scale(0.1 -0.1)">
       <use xlink:href="#DejaVuSans-34"/>
      </g>
     </g>
    </g>
    <g id="ytick_6">
     <g id="line2d_23">
      <path d="M 20.5625 112.283844 
L 377.6825 112.283844 
" clip-path="url(#p73889098b9)" style="fill: none; stroke-dasharray: 0.8,1.32; stroke-dashoffset: 0; stroke: #b0b0b0; stroke-width: 0.8"/>
     </g>
     <g id="line2d_24">
      <g>
       <use xlink:href="#m6d7a99e2ce" x="20.5625" y="112.283844" style="stroke: #000000; stroke-width: 0.8"/>
      </g>
     </g>
     <g id="text_12">
      <!-- 5 -->
      <g transform="translate(7.2 116.083063) scale(0.1 -0.1)">
       <defs>
        <path id="DejaVuSans-35" d="M 691 4666 
L 3169 4666 
L 3169 4134 
L 1269 4134 
L 1269 2991 
Q 1406 3038 1543 3061 
Q 1681 3084 1819 3084 
Q 2600 3084 3056 2656 
Q 3513 2228 3513 1497 
Q 3513 744 3044 326 
Q 2575 -91 1722 -91 
Q 1428 -91 1123 -41 
Q 819 9 494 109 
L 494 744 
Q 775 591 1075 516 
Q 1375 441 1709 441 
Q 2250 441 2565 725 
Q 2881 1009 2881 1497 
Q 2881 1984 2565 2268 
Q 2250 2553 1709 2553 
Q 1456 2553 1204 2497 
Q 953 2441 691 2322 
L 691 4666 
z
" transform="scale(0.015625)"/>
       </defs>
       <use xlink:href="#DejaVuSans-35"/>
      </g>
     </g>
    </g>
    <g id="ytick_7">
     <g id="line2d_25">
      <path d="M 20.5625 79.473788 
L 377.6825 79.473788 
" clip-path="url(#p73889098b9)" style="fill: none; stroke-dasharray: 0.8,1.32; stroke-dashoffset: 0; stroke: #b0b0b0; stroke-width: 0.8"/>
     </g>
     <g id="line2d_26">
      <g>
       <use xlink:href="#m6d7a99e2ce" x="20.5625" y="79.473788" style="stroke: #000000; stroke-width: 0.8"/>
      </g>
     </g>
     <g id="text_13">
      <!-- 6 -->
      <g transform="translate(7.2 83.273007) scale(0.1 -0.1)">
       <use xlink:href="#DejaVuSans-36"/>
      </g>
     </g>
    </g>
    <g id="ytick_8">
     <g id="line2d_27">
      <path d="M 20.5625 46.663732 
L 377.6825 46.663732 
" clip-path="url(#p73889098b9)" style="fill: none; stroke-dasharray: 0.8,1.32; stroke-dashoffset: 0; stroke: #b0b0b0; stroke-width: 0.8"/>
     </g>
     <g id="line2d_28">
      <g>
       <use xlink:href="#m6d7a99e2ce" x="20.5625" y="46.663732" style="stroke: #000000; stroke-width: 0.8"/>
      </g>
     </g>
     <g id="text_14">
      <!-- 7 -->
      <g transform="translate(7.2 50.462951) scale(0.1 -0.1)">
       <defs>
        <path id="DejaVuSans-37" d="M 525 4666 
L 3525 4666 
L 3525 4397 
L 1831 0 
L 1172 0 
L 2766 4134 
L 525 4134 
L 525 4666 
z
" transform="scale(0.015625)"/>
       </defs>
       <use xlink:href="#DejaVuSans-37"/>
      </g>
     </g>
    </g>
   </g>
   <g id="line2d_29">
    <path d="M 36.795227 275.941192 
L 41.674805 270.234567 
L 46.554382 264.873786 
L 51.433959 259.850877 
L 56.313537 255.157866 
L 61.193114 250.786781 
L 66.072691 246.729649 
L 70.952269 242.978497 
L 75.831846 239.525352 
L 80.711423 236.362242 
L 85.591001 233.481193 
L 90.470578 230.874232 
L 95.350155 228.533388 
L 100.229733 226.450686 
L 105.10931 224.618154 
L 109.988887 223.02782 
L 114.868465 221.67171 
L 119.748042 220.541852 
L 124.627619 219.630272 
L 129.832502 218.88953 
L 135.037384 218.378392 
L 140.242267 218.087184 
L 145.772454 218.007929 
L 151.302642 218.154424 
L 157.158135 218.542698 
L 163.013628 219.157273 
L 169.194426 220.036277 
L 175.375224 221.135871 
L 181.881327 222.513839 
L 188.712735 224.183762 
L 196.194754 226.249402 
L 204.002077 228.638458 
L 212.460011 231.458464 
L 221.893861 234.838722 
L 232.954236 239.042138 
L 248.243579 245.115048 
L 276.219822 256.263209 
L 287.605502 260.533466 
L 297.039352 263.845147 
L 305.497286 266.589033 
L 313.30461 268.89554 
L 320.786628 270.871005 
L 327.618037 272.449136 
L 334.12414 273.731287 
L 340.304938 274.732271 
L 346.485736 275.505273 
L 352.341228 276.012608 
L 357.871416 276.27811 
L 361.449773 276.333732 
L 361.449773 276.333732 
" clip-path="url(#p73889098b9)" style="fill: none; stroke: #ff0000; stroke-width: 2; stroke-linecap: square"/>
   </g>
   <g id="line2d_30">
    <path d="M 36.795227 276.334123 
L 49.156823 276.22628 
L 56.313537 275.940141 
L 62.494335 275.481017 
L 68.349827 274.826652 
L 73.880015 273.98915 
L 79.410203 272.922829 
L 84.94039 271.6181 
L 90.470578 270.070661 
L 96.000766 268.281164 
L 101.530953 266.254876 
L 107.386446 263.861978 
L 113.241939 261.230509 
L 119.748042 258.052113 
L 126.57945 254.462849 
L 134.386774 250.103293 
L 144.145929 244.38239 
L 171.796867 227.998882 
L 179.278885 223.91648 
L 185.784989 220.616729 
L 191.640481 217.893246 
L 197.170669 215.571 
L 202.375552 213.635082 
L 207.255129 212.061897 
L 211.809401 210.821294 
L 216.363673 209.814673 
L 220.59264 209.100431 
L 224.821607 208.607707 
L 229.050574 208.34434 
L 233.279541 208.316958 
L 237.183203 208.505773 
L 241.086865 208.903377 
L 244.990527 209.511857 
L 248.894189 210.332183 
L 252.797851 211.364139 
L 257.026818 212.719196 
L 261.255785 214.317329 
L 265.484752 216.153094 
L 270.039024 218.387283 
L 274.593296 220.876527 
L 279.472873 223.809729 
L 284.677756 227.217499 
L 290.207944 231.118619 
L 296.388742 235.765464 
L 303.87076 241.69127 
L 327.943342 261.017999 
L 333.148224 264.770125 
L 337.702496 267.774502 
L 341.606158 270.088871 
L 345.184515 271.957925 
L 348.437566 273.415477 
L 351.365313 274.50567 
L 354.293059 275.36295 
L 356.895501 275.910824 
L 359.497942 276.239675 
L 361.449773 276.332162 
L 361.449773 276.332162 
" clip-path="url(#p73889098b9)" style="fill: none; stroke: #0000ff; stroke-width: 2; stroke-linecap: square"/>
   </g>
   <g id="line2d_31">
    <path d="M 36.795227 243.524069 
L 361.449773 243.524069 
L 361.449773 243.524069 
" clip-path="url(#p73889098b9)" style="fill: none; stroke: #008000; stroke-width: 2; stroke-linecap: square"/>
   </g>
   <g id="line2d_32">
    <path d="M 36.795227 276.334125 
L 67.048607 276.225119 
L 83.313865 275.942244 
L 96.976681 275.489613 
L 109.338277 274.859061 
L 120.723957 274.05396 
L 131.133722 273.100081 
L 141.218182 271.952506 
L 150.652032 270.658832 
L 159.760576 269.189415 
L 168.543815 267.551081 
L 177.001749 265.753332 
L 185.459683 263.725626 
L 193.592312 261.546162 
L 201.399636 259.230395 
L 209.20696 256.684669 
L 217.014284 253.8981 
L 224.496302 250.991565 
L 231.978321 247.844261 
L 239.135034 244.599666 
L 246.291748 241.117632 
L 253.448461 237.389774 
L 260.605174 233.407709 
L 267.761888 229.163051 
L 274.593296 224.858668 
L 281.424704 220.300091 
L 288.256113 215.480025 
L 295.087521 210.391178 
L 301.918929 205.026259 
L 308.750337 199.377974 
L 315.581746 193.439031 
L 322.413154 187.202138 
L 329.244562 180.660001 
L 336.075971 173.80533 
L 342.907379 166.63083 
L 349.738787 159.12921 
L 356.570195 151.293176 
L 361.449773 145.487228 
L 361.449773 145.487228 
" clip-path="url(#p73889098b9)" style="fill: none; stroke: #bf00bf; stroke-width: 2; stroke-linecap: square"/>
   </g>
   <g id="line2d_33">
    <path d="M 36.795227 274.973121 
L 37.445838 273.976324 
L 38.421753 272.998686 
L 39.722974 272.026355 
L 41.674805 270.881866 
L 44.277246 269.651045 
L 47.530297 268.371473 
L 51.759264 266.959463 
L 56.964147 265.462053 
L 63.47025 263.828134 
L 71.602879 262.029009 
L 81.362034 260.108374 
L 93.073019 258.036589 
L 107.386446 255.740937 
L 124.627619 253.211992 
L 145.772454 250.346366 
L 172.772782 246.923422 
L 218.315504 241.413818 
L 257.677428 236.564137 
L 279.472873 233.660037 
L 295.412826 231.324072 
L 308.099727 229.24606 
L 318.184187 227.371525 
L 325.991511 225.708344 
L 332.497614 224.105036 
L 337.702496 222.606416 
L 341.931463 221.175197 
L 345.50982 219.738768 
L 348.437566 218.331597 
L 350.714703 217.020198 
L 352.666534 215.669805 
L 354.293059 214.305736 
L 355.59428 212.979963 
L 356.895501 211.332383 
L 357.871416 209.764463 
L 358.847331 207.717622 
L 359.497942 205.900373 
L 360.148552 203.416831 
L 360.799162 199.518166 
L 361.124468 196.299433 
L 361.449773 190.512102 
L 361.449773 190.512102 
" clip-path="url(#p73889098b9)" style="fill: none; stroke: #00bfbf; stroke-width: 2; stroke-linecap: square"/>
   </g>
   <g id="line2d_34">
    <path d="M 36.795227 199.712672 
L 37.120532 209.611232 
L 37.771143 218.213506 
L 38.421753 222.708315 
L 39.072363 225.676068 
L 40.048279 228.758708 
L 41.024194 230.957588 
L 42.00011 232.645921 
L 43.30133 234.402532 
L 44.602551 235.789747 
L 46.229077 237.181196 
L 48.180908 238.512828 
L 50.458044 239.753362 
L 53.060485 240.89148 
L 55.988231 241.926759 
L 59.566588 242.948182 
L 63.795555 243.91543 
L 69.000438 244.860463 
L 75.181236 245.741421 
L 82.663254 246.56842 
L 91.446493 247.309783 
L 102.181564 247.984398 
L 114.868465 248.553367 
L 129.832502 248.999269 
L 147.39898 249.294322 
L 166.91729 249.396264 
L 187.73682 249.280635 
L 208.55635 248.942196 
L 228.074659 248.40583 
L 245.641137 247.707024 
L 261.255785 246.86706 
L 274.593296 245.93386 
L 285.978977 244.92512 
L 295.738131 243.849373 
L 304.196065 242.702482 
L 311.352779 241.520506 
L 317.533577 240.288247 
L 323.063764 238.960884 
L 327.618037 237.653041 
L 331.847004 236.20437 
L 335.42536 234.74197 
L 338.678412 233.158426 
L 341.280853 231.658571 
L 343.557989 230.120587 
L 345.835125 228.302741 
L 347.786956 226.446009 
L 349.413482 224.615147 
L 351.040008 222.435144 
L 352.341228 220.351046 
L 353.642449 217.85012 
L 354.94367 214.760078 
L 355.919585 211.885155 
L 356.895501 208.303352 
L 357.871416 203.637497 
L 358.522026 199.581544 
L 359.172637 194.300728 
L 359.823247 186.942388 
L 360.473857 175.420417 
L 360.799162 166.346298 
L 361.124468 152.144613 
L 361.449773 123.469522 
L 361.449773 123.469522 
" clip-path="url(#p73889098b9)" style="fill: none; stroke: #a52a2a; stroke-width: 2; stroke-linecap: square"/>
   </g>
   <g id="line2d_35">
    <path d="M 36.795227 34.414125 
L 37.120532 73.108098 
L 37.445838 92.882683 
L 38.096448 115.200245 
L 38.747058 128.497846 
L 39.397669 137.780047 
L 40.373584 147.785357 
L 41.349499 155.129358 
L 42.325415 160.882607 
L 43.626636 166.978917 
L 44.927856 171.880888 
L 46.229077 175.965562 
L 47.855603 180.257755 
L 49.482128 183.893575 
L 51.108654 187.043363 
L 53.060485 190.337788 
L 55.012316 193.224894 
L 57.289452 196.196376 
L 59.891893 199.186753 
L 62.494335 201.84007 
L 65.422081 204.508873 
L 68.675133 207.163408 
L 72.253489 209.784116 
L 76.157151 212.359044 
L 80.386118 214.881711 
L 85.265695 217.517189 
L 90.470578 220.068219 
L 96.326071 222.681375 
L 102.832174 225.329236 
L 109.988887 227.992624 
L 117.796211 230.658705 
L 126.57945 233.417591 
L 136.338605 236.242383 
L 147.073675 239.113772 
L 159.109966 242.096077 
L 172.447477 245.16424 
L 187.086209 248.300109 
L 203.351467 251.553862 
L 221.243251 254.905074 
L 241.086865 258.394328 
L 263.207616 262.053714 
L 287.605502 265.859541 
L 314.60583 269.840567 
L 344.208599 273.976215 
L 361.449773 276.291051 
L 361.449773 276.291051 
" clip-path="url(#p73889098b9)" style="fill: none; stroke: #ffa500; stroke-width: 2; stroke-linecap: square"/>
   </g>
   <g id="line2d_36">
    <path d="M 20.5625 276.334125 
L 377.6825 276.334125 
" clip-path="url(#p73889098b9)" style="fill: none; stroke: #000000; stroke-opacity: 0.7; stroke-width: 1.5; stroke-linecap: square"/>
   </g>
   <g id="line2d_37">
    <path d="M 36.469922 288.430125 
L 36.469922 22.318125 
" clip-path="url(#p73889098b9)" style="fill: none; stroke: #000000; stroke-opacity: 0.7; stroke-width: 1.5; stroke-linecap: square"/>
   </g>
   <g id="patch_3">
    <path d="M 20.5625 288.430125 
L 20.5625 22.318125 
" style="fill: none; stroke: #000000; stroke-width: 0.8; stroke-linejoin: miter; stroke-linecap: square"/>
   </g>
   <g id="patch_4">
    <path d="M 377.6825 288.430125 
L 377.6825 22.318125 
" style="fill: none; stroke: #000000; stroke-width: 0.8; stroke-linejoin: miter; stroke-linecap: square"/>
   </g>
   <g id="patch_5">
    <path d="M 20.5625 288.430125 
L 377.6825 288.430125 
" style="fill: none; stroke: #000000; stroke-width: 0.8; stroke-linejoin: miter; stroke-linecap: square"/>
   </g>
   <g id="patch_6">
    <path d="M 20.5625 22.318125 
L 377.6825 22.318125 
" style="fill: none; stroke: #000000; stroke-width: 0.8; stroke-linejoin: miter; stroke-linecap: square"/>
   </g>
   <g id="text_15">
    <!-- Beta distribution pdf -->
    <g transform="translate(137.549375 16.318125) scale(0.12 -0.12)">
     <defs>
      <path id="DejaVuSans-42" d="M 1259 2228 
L 1259 519 
L 2272 519 
Q 2781 519 3026 730 
Q 3272 941 3272 1375 
Q 3272 1813 3026 2020 
Q 2781 2228 2272 2228 
L 1259 2228 
z
M 1259 4147 
L 1259 2741 
L 2194 2741 
Q 2656 2741 2882 2914 
Q 3109 3088 3109 3444 
Q 3109 3797 2882 3972 
Q 2656 4147 2194 4147 
L 1259 4147 
z
M 628 4666 
L 2241 4666 
Q 2963 4666 3353 4366 
Q 3744 4066 3744 3513 
Q 3744 3084 3544 2831 
Q 3344 2578 2956 2516 
Q 3422 2416 3680 2098 
Q 3938 1781 3938 1306 
Q 3938 681 3513 340 
Q 3088 0 2303 0 
L 628 0 
L 628 4666 
z
" transform="scale(0.015625)"/>
      <path id="DejaVuSans-65" d="M 3597 1894 
L 3597 1613 
L 953 1613 
Q 991 1019 1311 708 
Q 1631 397 2203 397 
Q 2534 397 2845 478 
Q 3156 559 3463 722 
L 3463 178 
Q 3153 47 2828 -22 
Q 2503 -91 2169 -91 
Q 1331 -91 842 396 
Q 353 884 353 1716 
Q 353 2575 817 3079 
Q 1281 3584 2069 3584 
Q 2775 3584 3186 3129 
Q 3597 2675 3597 1894 
z
M 3022 2063 
Q 3016 2534 2758 2815 
Q 2500 3097 2075 3097 
Q 1594 3097 1305 2825 
Q 1016 2553 972 2059 
L 3022 2063 
z
" transform="scale(0.015625)"/>
      <path id="DejaVuSans-74" d="M 1172 4494 
L 1172 3500 
L 2356 3500 
L 2356 3053 
L 1172 3053 
L 1172 1153 
Q 1172 725 1289 603 
Q 1406 481 1766 481 
L 2356 481 
L 2356 0 
L 1766 0 
Q 1100 0 847 248 
Q 594 497 594 1153 
L 594 3053 
L 172 3053 
L 172 3500 
L 594 3500 
L 594 4494 
L 1172 4494 
z
" transform="scale(0.015625)"/>
      <path id="DejaVuSans-61" d="M 2194 1759 
Q 1497 1759 1228 1600 
Q 959 1441 959 1056 
Q 959 750 1161 570 
Q 1363 391 1709 391 
Q 2188 391 2477 730 
Q 2766 1069 2766 1631 
L 2766 1759 
L 2194 1759 
z
M 3341 1997 
L 3341 0 
L 2766 0 
L 2766 531 
Q 2569 213 2275 61 
Q 1981 -91 1556 -91 
Q 1019 -91 701 211 
Q 384 513 384 1019 
Q 384 1609 779 1909 
Q 1175 2209 1959 2209 
L 2766 2209 
L 2766 2266 
Q 2766 2663 2505 2880 
Q 2244 3097 1772 3097 
Q 1472 3097 1187 3025 
Q 903 2953 641 2809 
L 641 3341 
Q 956 3463 1253 3523 
Q 1550 3584 1831 3584 
Q 2591 3584 2966 3190 
Q 3341 2797 3341 1997 
z
" transform="scale(0.015625)"/>
      <path id="DejaVuSans-20" transform="scale(0.015625)"/>
      <path id="DejaVuSans-64" d="M 2906 2969 
L 2906 4863 
L 3481 4863 
L 3481 0 
L 2906 0 
L 2906 525 
Q 2725 213 2448 61 
Q 2172 -91 1784 -91 
Q 1150 -91 751 415 
Q 353 922 353 1747 
Q 353 2572 751 3078 
Q 1150 3584 1784 3584 
Q 2172 3584 2448 3432 
Q 2725 3281 2906 2969 
z
M 947 1747 
Q 947 1113 1208 752 
Q 1469 391 1925 391 
Q 2381 391 2643 752 
Q 2906 1113 2906 1747 
Q 2906 2381 2643 2742 
Q 2381 3103 1925 3103 
Q 1469 3103 1208 2742 
Q 947 2381 947 1747 
z
" transform="scale(0.015625)"/>
      <path id="DejaVuSans-69" d="M 603 3500 
L 1178 3500 
L 1178 0 
L 603 0 
L 603 3500 
z
M 603 4863 
L 1178 4863 
L 1178 4134 
L 603 4134 
L 603 4863 
z
" transform="scale(0.015625)"/>
      <path id="DejaVuSans-73" d="M 2834 3397 
L 2834 2853 
Q 2591 2978 2328 3040 
Q 2066 3103 1784 3103 
Q 1356 3103 1142 2972 
Q 928 2841 928 2578 
Q 928 2378 1081 2264 
Q 1234 2150 1697 2047 
L 1894 2003 
Q 2506 1872 2764 1633 
Q 3022 1394 3022 966 
Q 3022 478 2636 193 
Q 2250 -91 1575 -91 
Q 1294 -91 989 -36 
Q 684 19 347 128 
L 347 722 
Q 666 556 975 473 
Q 1284 391 1588 391 
Q 1994 391 2212 530 
Q 2431 669 2431 922 
Q 2431 1156 2273 1281 
Q 2116 1406 1581 1522 
L 1381 1569 
Q 847 1681 609 1914 
Q 372 2147 372 2553 
Q 372 3047 722 3315 
Q 1072 3584 1716 3584 
Q 2034 3584 2315 3537 
Q 2597 3491 2834 3397 
z
" transform="scale(0.015625)"/>
      <path id="DejaVuSans-72" d="M 2631 2963 
Q 2534 3019 2420 3045 
Q 2306 3072 2169 3072 
Q 1681 3072 1420 2755 
Q 1159 2438 1159 1844 
L 1159 0 
L 581 0 
L 581 3500 
L 1159 3500 
L 1159 2956 
Q 1341 3275 1631 3429 
Q 1922 3584 2338 3584 
Q 2397 3584 2469 3576 
Q 2541 3569 2628 3553 
L 2631 2963 
z
" transform="scale(0.015625)"/>
      <path id="DejaVuSans-62" d="M 3116 1747 
Q 3116 2381 2855 2742 
Q 2594 3103 2138 3103 
Q 1681 3103 1420 2742 
Q 1159 2381 1159 1747 
Q 1159 1113 1420 752 
Q 1681 391 2138 391 
Q 2594 391 2855 752 
Q 3116 1113 3116 1747 
z
M 1159 2969 
Q 1341 3281 1617 3432 
Q 1894 3584 2278 3584 
Q 2916 3584 3314 3078 
Q 3713 2572 3713 1747 
Q 3713 922 3314 415 
Q 2916 -91 2278 -91 
Q 1894 -91 1617 61 
Q 1341 213 1159 525 
L 1159 0 
L 581 0 
L 581 4863 
L 1159 4863 
L 1159 2969 
z
" transform="scale(0.015625)"/>
      <path id="DejaVuSans-75" d="M 544 1381 
L 544 3500 
L 1119 3500 
L 1119 1403 
Q 1119 906 1312 657 
Q 1506 409 1894 409 
Q 2359 409 2629 706 
Q 2900 1003 2900 1516 
L 2900 3500 
L 3475 3500 
L 3475 0 
L 2900 0 
L 2900 538 
Q 2691 219 2414 64 
Q 2138 -91 1772 -91 
Q 1169 -91 856 284 
Q 544 659 544 1381 
z
M 1991 3584 
L 1991 3584 
z
" transform="scale(0.015625)"/>
      <path id="DejaVuSans-6f" d="M 1959 3097 
Q 1497 3097 1228 2736 
Q 959 2375 959 1747 
Q 959 1119 1226 758 
Q 1494 397 1959 397 
Q 2419 397 2687 759 
Q 2956 1122 2956 1747 
Q 2956 2369 2687 2733 
Q 2419 3097 1959 3097 
z
M 1959 3584 
Q 2709 3584 3137 3096 
Q 3566 2609 3566 1747 
Q 3566 888 3137 398 
Q 2709 -91 1959 -91 
Q 1206 -91 779 398 
Q 353 888 353 1747 
Q 353 2609 779 3096 
Q 1206 3584 1959 3584 
z
" transform="scale(0.015625)"/>
      <path id="DejaVuSans-6e" d="M 3513 2113 
L 3513 0 
L 2938 0 
L 2938 2094 
Q 2938 2591 2744 2837 
Q 2550 3084 2163 3084 
Q 1697 3084 1428 2787 
Q 1159 2491 1159 1978 
L 1159 0 
L 581 0 
L 581 3500 
L 1159 3500 
L 1159 2956 
Q 1366 3272 1645 3428 
Q 1925 3584 2291 3584 
Q 2894 3584 3203 3211 
Q 3513 2838 3513 2113 
z
" transform="scale(0.015625)"/>
      <path id="DejaVuSans-70" d="M 1159 525 
L 1159 -1331 
L 581 -1331 
L 581 3500 
L 1159 3500 
L 1159 2969 
Q 1341 3281 1617 3432 
Q 1894 3584 2278 3584 
Q 2916 3584 3314 3078 
Q 3713 2572 3713 1747 
Q 3713 922 3314 415 
Q 2916 -91 2278 -91 
Q 1894 -91 1617 61 
Q 1341 213 1159 525 
z
M 3116 1747 
Q 3116 2381 2855 2742 
Q 2594 3103 2138 3103 
Q 1681 3103 1420 2742 
Q 1159 2381 1159 1747 
Q 1159 1113 1420 752 
Q 1681 391 2138 391 
Q 2594 391 2855 752 
Q 3116 1113 3116 1747 
z
" transform="scale(0.015625)"/>
      <path id="DejaVuSans-66" d="M 2375 4863 
L 2375 4384 
L 1825 4384 
Q 1516 4384 1395 4259 
Q 1275 4134 1275 3809 
L 1275 3500 
L 2222 3500 
L 2222 3053 
L 1275 3053 
L 1275 0 
L 697 0 
L 697 3053 
L 147 3053 
L 147 3500 
L 697 3500 
L 697 3744 
Q 697 4328 969 4595 
Q 1241 4863 1831 4863 
L 2375 4863 
z
" transform="scale(0.015625)"/>
     </defs>
     <use xlink:href="#DejaVuSans-42"/>
     <use xlink:href="#DejaVuSans-65" x="68.603516"/>
     <use xlink:href="#DejaVuSans-74" x="130.126953"/>
     <use xlink:href="#DejaVuSans-61" x="169.335938"/>
     <use xlink:href="#DejaVuSans-20" x="230.615234"/>
     <use xlink:href="#DejaVuSans-64" x="262.402344"/>
     <use xlink:href="#DejaVuSans-69" x="325.878906"/>
     <use xlink:href="#DejaVuSans-73" x="353.662109"/>
     <use xlink:href="#DejaVuSans-74" x="405.761719"/>
     <use xlink:href="#DejaVuSans-72" x="444.970703"/>
     <use xlink:href="#DejaVuSans-69" x="486.083984"/>
     <use xlink:href="#DejaVuSans-62" x="513.867188"/>
     <use xlink:href="#DejaVuSans-75" x="577.34375"/>
     <use xlink:href="#DejaVuSans-74" x="640.722656"/>
     <use xlink:href="#DejaVuSans-69" x="679.931641"/>
     <use xlink:href="#DejaVuSans-6f" x="707.714844"/>
     <use xlink:href="#DejaVuSans-6e" x="768.896484"/>
     <use xlink:href="#DejaVuSans-20" x="832.275391"/>
     <use xlink:href="#DejaVuSans-70" x="864.0625"/>
     <use xlink:href="#DejaVuSans-64" x="927.539062"/>
     <use xlink:href="#DejaVuSans-66" x="991.015625"/>
    </g>
   </g>
   <g id="legend_1">
    <g id="patch_7">
     <path d="M 149.423281 133.065 
L 248.821719 133.065 
Q 250.821719 133.065 250.821719 131.065 
L 250.821719 29.318125 
Q 250.821719 27.318125 248.821719 27.318125 
L 149.423281 27.318125 
Q 147.423281 27.318125 147.423281 29.318125 
L 147.423281 131.065 
Q 147.423281 133.065 149.423281 133.065 
z
" style="fill: #ffffff; opacity: 0.8; stroke: #cccccc; stroke-linejoin: miter"/>
    </g>
    <g id="line2d_38">
     <path d="M 151.423281 35.416562 
L 161.423281 35.416562 
L 171.423281 35.416562 
" style="fill: none; stroke: #ff0000; stroke-width: 2; stroke-linecap: square"/>
    </g>
    <g id="text_16">
     <!-- a=2, b=3 -->
     <g transform="translate(179.423281 38.916562) scale(0.1 -0.1)">
      <defs>
       <path id="DejaVuSans-3d" d="M 678 2906 
L 4684 2906 
L 4684 2381 
L 678 2381 
L 678 2906 
z
M 678 1631 
L 4684 1631 
L 4684 1100 
L 678 1100 
L 678 1631 
z
" transform="scale(0.015625)"/>
       <path id="DejaVuSans-2c" d="M 750 794 
L 1409 794 
L 1409 256 
L 897 -744 
L 494 -744 
L 750 256 
L 750 794 
z
" transform="scale(0.015625)"/>
      </defs>
      <use xlink:href="#DejaVuSans-61"/>
      <use xlink:href="#DejaVuSans-3d" x="61.279297"/>
      <use xlink:href="#DejaVuSans-32" x="145.068359"/>
      <use xlink:href="#DejaVuSans-2c" x="208.691406"/>
      <use xlink:href="#DejaVuSans-20" x="240.478516"/>
      <use xlink:href="#DejaVuSans-62" x="272.265625"/>
      <use xlink:href="#DejaVuSans-3d" x="335.742188"/>
      <use xlink:href="#DejaVuSans-33" x="419.53125"/>
     </g>
    </g>
    <g id="line2d_39">
     <path d="M 151.423281 50.094687 
L 161.423281 50.094687 
L 171.423281 50.094687 
" style="fill: none; stroke: #0000ff; stroke-width: 2; stroke-linecap: square"/>
    </g>
    <g id="text_17">
     <!-- a=4, b=3 -->
     <g transform="translate(179.423281 53.594687) scale(0.1 -0.1)">
      <use xlink:href="#DejaVuSans-61"/>
      <use xlink:href="#DejaVuSans-3d" x="61.279297"/>
      <use xlink:href="#DejaVuSans-34" x="145.068359"/>
      <use xlink:href="#DejaVuSans-2c" x="208.691406"/>
      <use xlink:href="#DejaVuSans-20" x="240.478516"/>
      <use xlink:href="#DejaVuSans-62" x="272.265625"/>
      <use xlink:href="#DejaVuSans-3d" x="335.742188"/>
      <use xlink:href="#DejaVuSans-33" x="419.53125"/>
     </g>
    </g>
    <g id="line2d_40">
     <path d="M 151.423281 64.772812 
L 161.423281 64.772812 
L 171.423281 64.772812 
" style="fill: none; stroke: #008000; stroke-width: 2; stroke-linecap: square"/>
    </g>
    <g id="text_18">
     <!-- a=1, b=1 -->
     <g transform="translate(179.423281 68.272812) scale(0.1 -0.1)">
      <use xlink:href="#DejaVuSans-61"/>
      <use xlink:href="#DejaVuSans-3d" x="61.279297"/>
      <use xlink:href="#DejaVuSans-31" x="145.068359"/>
      <use xlink:href="#DejaVuSans-2c" x="208.691406"/>
      <use xlink:href="#DejaVuSans-20" x="240.478516"/>
      <use xlink:href="#DejaVuSans-62" x="272.265625"/>
      <use xlink:href="#DejaVuSans-3d" x="335.742188"/>
      <use xlink:href="#DejaVuSans-31" x="419.53125"/>
     </g>
    </g>
    <g id="line2d_41">
     <path d="M 151.423281 79.450937 
L 161.423281 79.450937 
L 171.423281 79.450937 
" style="fill: none; stroke: #bf00bf; stroke-width: 2; stroke-linecap: square"/>
    </g>
    <g id="text_19">
     <!-- a=4, b=1 -->
     <g transform="translate(179.423281 82.950937) scale(0.1 -0.1)">
      <use xlink:href="#DejaVuSans-61"/>
      <use xlink:href="#DejaVuSans-3d" x="61.279297"/>
      <use xlink:href="#DejaVuSans-34" x="145.068359"/>
      <use xlink:href="#DejaVuSans-2c" x="208.691406"/>
      <use xlink:href="#DejaVuSans-20" x="240.478516"/>
      <use xlink:href="#DejaVuSans-62" x="272.265625"/>
      <use xlink:href="#DejaVuSans-3d" x="335.742188"/>
      <use xlink:href="#DejaVuSans-31" x="419.53125"/>
     </g>
    </g>
    <g id="line2d_42">
     <path d="M 151.423281 94.129062 
L 161.423281 94.129062 
L 171.423281 94.129062 
" style="fill: none; stroke: #00bfbf; stroke-width: 2; stroke-linecap: square"/>
    </g>
    <g id="text_20">
     <!-- a=1.5, b=0.9 -->
     <g transform="translate(179.423281 97.629062) scale(0.1 -0.1)">
      <defs>
       <path id="DejaVuSans-39" d="M 703 97 
L 703 672 
Q 941 559 1184 500 
Q 1428 441 1663 441 
Q 2288 441 2617 861 
Q 2947 1281 2994 2138 
Q 2813 1869 2534 1725 
Q 2256 1581 1919 1581 
Q 1219 1581 811 2004 
Q 403 2428 403 3163 
Q 403 3881 828 4315 
Q 1253 4750 1959 4750 
Q 2769 4750 3195 4129 
Q 3622 3509 3622 2328 
Q 3622 1225 3098 567 
Q 2575 -91 1691 -91 
Q 1453 -91 1209 -44 
Q 966 3 703 97 
z
M 1959 2075 
Q 2384 2075 2632 2365 
Q 2881 2656 2881 3163 
Q 2881 3666 2632 3958 
Q 2384 4250 1959 4250 
Q 1534 4250 1286 3958 
Q 1038 3666 1038 3163 
Q 1038 2656 1286 2365 
Q 1534 2075 1959 2075 
z
" transform="scale(0.015625)"/>
      </defs>
      <use xlink:href="#DejaVuSans-61"/>
      <use xlink:href="#DejaVuSans-3d" x="61.279297"/>
      <use xlink:href="#DejaVuSans-31" x="145.068359"/>
      <use xlink:href="#DejaVuSans-2e" x="208.691406"/>
      <use xlink:href="#DejaVuSans-35" x="240.478516"/>
      <use xlink:href="#DejaVuSans-2c" x="304.101562"/>
      <use xlink:href="#DejaVuSans-20" x="335.888672"/>
      <use xlink:href="#DejaVuSans-62" x="367.675781"/>
      <use xlink:href="#DejaVuSans-3d" x="431.152344"/>
      <use xlink:href="#DejaVuSans-30" x="514.941406"/>
      <use xlink:href="#DejaVuSans-2e" x="578.564453"/>
      <use xlink:href="#DejaVuSans-39" x="610.351562"/>
     </g>
    </g>
    <g id="line2d_43">
     <path d="M 151.423281 108.807187 
L 161.423281 108.807187 
L 171.423281 108.807187 
" style="fill: none; stroke: #a52a2a; stroke-width: 2; stroke-linecap: square"/>
    </g>
    <g id="text_21">
     <!-- a=0.8, b=0.7 -->
     <g transform="translate(179.423281 112.307187) scale(0.1 -0.1)">
      <use xlink:href="#DejaVuSans-61"/>
      <use xlink:href="#DejaVuSans-3d" x="61.279297"/>
      <use xlink:href="#DejaVuSans-30" x="145.068359"/>
      <use xlink:href="#DejaVuSans-2e" x="208.691406"/>
      <use xlink:href="#DejaVuSans-38" x="240.478516"/>
      <use xlink:href="#DejaVuSans-2c" x="304.101562"/>
      <use xlink:href="#DejaVuSans-20" x="335.888672"/>
      <use xlink:href="#DejaVuSans-62" x="367.675781"/>
      <use xlink:href="#DejaVuSans-3d" x="431.152344"/>
      <use xlink:href="#DejaVuSans-30" x="514.941406"/>
      <use xlink:href="#DejaVuSans-2e" x="578.564453"/>
      <use xlink:href="#DejaVuSans-37" x="610.351562"/>
     </g>
    </g>
    <g id="line2d_44">
     <path d="M 151.423281 123.485312 
L 161.423281 123.485312 
L 171.423281 123.485312 
" style="fill: none; stroke: #ffa500; stroke-width: 2; stroke-linecap: square"/>
    </g>
    <g id="text_22">
     <!-- a=0.75, b=2 -->
     <g transform="translate(179.423281 126.985312) scale(0.1 -0.1)">
      <use xlink:href="#DejaVuSans-61"/>
      <use xlink:href="#DejaVuSans-3d" x="61.279297"/>
      <use xlink:href="#DejaVuSans-30" x="145.068359"/>
      <use xlink:href="#DejaVuSans-2e" x="208.691406"/>
      <use xlink:href="#DejaVuSans-37" x="240.478516"/>
      <use xlink:href="#DejaVuSans-35" x="304.101562"/>
      <use xlink:href="#DejaVuSans-2c" x="367.724609"/>
      <use xlink:href="#DejaVuSans-20" x="399.511719"/>
      <use xlink:href="#DejaVuSans-62" x="431.298828"/>
      <use xlink:href="#DejaVuSans-3d" x="494.775391"/>
      <use xlink:href="#DejaVuSans-32" x="578.564453"/>
     </g>
    </g>
   </g>
  </g>
 </g>
 <defs>
  <clipPath id="p73889098b9">
   <rect x="20.5625" y="22.318125" width="357.12" height="266.112"/>
  </clipPath>
 </defs>
</svg>