<?xml version="1.0" encoding="UTF-8" standalone="no"?>
<!DOCTYPE svg PUBLIC "-//W3C//DTD SVG 1.1//EN"
 "http://www.w3.org/Graphics/SVG/1.1/DTD/svg11.dtd">
<!-- Generated by graphviz version 11.0.0 (20240428.1522)
 -->
<!-- Title: Tree Pages: 1 -->
<svg width="2634pt" height="477pt"
 viewBox="0.00 0.00 2634.25 477.00" xmlns="http://www.w3.org/2000/svg" xmlns:xlink="http://www.w3.org/1999/xlink">
<g id="graph0" class="graph" transform="scale(1 1) rotate(0) translate(4 473)">
<title>Tree</title>
<polygon fill="white" stroke="none" points="-4,4 -4,-473 2630.25,-473 2630.25,4 -4,4"/>
<!-- 0 -->
<g id="node1" class="node">
<title>0</title>
<path fill="#f7d7c1" stroke="black" d="M1401.5,-469C1401.5,-469 1267.75,-469 1267.75,-469 1261.75,-469 1255.75,-463 1255.75,-457 1255.75,-457 1255.75,-413 1255.75,-413 1255.75,-407 1261.75,-401 1267.75,-401 1267.75,-401 1401.5,-401 1401.5,-401 1407.5,-401 1413.5,-407 1413.5,-413 1413.5,-413 1413.5,-457 1413.5,-457 1413.5,-463 1407.5,-469 1401.5,-469"/>
<text text-anchor="start" x="1302" y="-451.7" font-family="Helvetica,sans-Serif" font-size="14.00">rm ≤ 6.941</text>
<text text-anchor="start" x="1263.75" y="-436.7" font-family="Helvetica,sans-Serif" font-size="14.00">squared_error = 90.141</text>
<text text-anchor="start" x="1290" y="-421.7" font-family="Helvetica,sans-Serif" font-size="14.00">samples = 404</text>
<text text-anchor="start" x="1290" y="-406.7" font-family="Helvetica,sans-Serif" font-size="14.00">value = 22.881</text>
</g>
<!-- 1 -->
<g id="node2" class="node">
<title>1</title>
<path fill="#f9e0cf" stroke="black" d="M1057.5,-365C1057.5,-365 923.75,-365 923.75,-365 917.75,-365 911.75,-359 911.75,-353 911.75,-353 911.75,-309 911.75,-309 911.75,-303 917.75,-297 923.75,-297 923.75,-297 1057.5,-297 1057.5,-297 1063.5,-297 1069.5,-303 1069.5,-309 1069.5,-309 1069.5,-353 1069.5,-353 1069.5,-359 1063.5,-365 1057.5,-365"/>
<text text-anchor="start" x="957.62" y="-347.7" font-family="Helvetica,sans-Serif" font-size="14.00">lstat ≤ 14.4</text>
<text text-anchor="start" x="919.75" y="-332.7" font-family="Helvetica,sans-Serif" font-size="14.00">squared_error = 41.112</text>
<text text-anchor="start" x="946" y="-317.7" font-family="Helvetica,sans-Serif" font-size="14.00">samples = 340</text>
<text text-anchor="start" x="946" y="-302.7" font-family="Helvetica,sans-Serif" font-size="14.00">value = 20.058</text>
</g>
<!-- 0&#45;&gt;1 -->
<g id="edge1" class="edge">
<title>0&#45;&gt;1</title>
<path fill="none" stroke="black" d="M1255.27,-410.47C1203.2,-395.03 1134.99,-374.8 1080.85,-358.75"/>
<polygon fill="black" stroke="black" points="1081.91,-355.42 1071.33,-355.93 1079.92,-362.13 1081.91,-355.42"/>
<text text-anchor="middle" x="1081.8" y="-371.67" font-family="Helvetica,sans-Serif" font-size="14.00">True</text>
</g>
<!-- 16 -->
<g id="node17" class="node">
<title>16</title>
<path fill="#eda876" stroke="black" d="M1741.5,-365C1741.5,-365 1607.75,-365 1607.75,-365 1601.75,-365 1595.75,-359 1595.75,-353 1595.75,-353 1595.75,-309 1595.75,-309 1595.75,-303 1601.75,-297 1607.75,-297 1607.75,-297 1741.5,-297 1741.5,-297 1747.5,-297 1753.5,-303 1753.5,-309 1753.5,-309 1753.5,-353 1753.5,-353 1753.5,-359 1747.5,-365 1741.5,-365"/>
<text text-anchor="start" x="1642" y="-347.7" font-family="Helvetica,sans-Serif" font-size="14.00">rm ≤ 7.437</text>
<text text-anchor="start" x="1603.75" y="-332.7" font-family="Helvetica,sans-Serif" font-size="14.00">squared_error = 83.255</text>
<text text-anchor="start" x="1633.75" y="-317.7" font-family="Helvetica,sans-Serif" font-size="14.00">samples = 64</text>
<text text-anchor="start" x="1630" y="-302.7" font-family="Helvetica,sans-Serif" font-size="14.00">value = 37.881</text>
</g>
<!-- 0&#45;&gt;16 -->
<g id="edge16" class="edge">
<title>0&#45;&gt;16</title>
<path fill="none" stroke="black" d="M1413.91,-410.21C1465.04,-394.88 1531.64,-374.89 1584.74,-358.97"/>
<polygon fill="black" stroke="black" points="1585.49,-362.4 1594.06,-356.17 1583.47,-355.69 1585.49,-362.4"/>
<text text-anchor="middle" x="1583.66" y="-371.95" font-family="Helvetica,sans-Serif" font-size="14.00">False</text>
</g>
<!-- 2 -->
<g id="node3" class="node">
<title>2</title>
<path fill="#f6d6be" stroke="black" d="M545.5,-261C545.5,-261 411.75,-261 411.75,-261 405.75,-261 399.75,-255 399.75,-249 399.75,-249 399.75,-205 399.75,-205 399.75,-199 405.75,-193 411.75,-193 411.75,-193 545.5,-193 545.5,-193 551.5,-193 557.5,-199 557.5,-205 557.5,-205 557.5,-249 557.5,-249 557.5,-255 551.5,-261 545.5,-261"/>
<text text-anchor="start" x="445.62" y="-243.7" font-family="Helvetica,sans-Serif" font-size="14.00">dis ≤ 1.385</text>
<text text-anchor="start" x="407.75" y="-228.7" font-family="Helvetica,sans-Serif" font-size="14.00">squared_error = 28.771</text>
<text text-anchor="start" x="434" y="-213.7" font-family="Helvetica,sans-Serif" font-size="14.00">samples = 203</text>
<text text-anchor="start" x="434" y="-198.7" font-family="Helvetica,sans-Serif" font-size="14.00">value = 23.409</text>
</g>
<!-- 1&#45;&gt;2 -->
<g id="edge2" class="edge">
<title>1&#45;&gt;2</title>
<path fill="none" stroke="black" d="M911.47,-314.23C818.99,-295.81 666.31,-265.39 569.19,-246.04"/>
<polygon fill="black" stroke="black" points="569.9,-242.61 559.41,-244.09 568.53,-249.48 569.9,-242.61"/>
</g>
<!-- 9 -->
<g id="node10" class="node">
<title>9</title>
<path fill="#fcf0e8" stroke="black" d="M1057.5,-261C1057.5,-261 923.75,-261 923.75,-261 917.75,-261 911.75,-255 911.75,-249 911.75,-249 911.75,-205 911.75,-205 911.75,-199 917.75,-193 923.75,-193 923.75,-193 1057.5,-193 1057.5,-193 1063.5,-193 1069.5,-199 1069.5,-205 1069.5,-205 1069.5,-249 1069.5,-249 1069.5,-255 1063.5,-261 1057.5,-261"/>
<text text-anchor="start" x="953.12" y="-243.7" font-family="Helvetica,sans-Serif" font-size="14.00">crim ≤ 6.205</text>
<text text-anchor="start" x="919.75" y="-228.7" font-family="Helvetica,sans-Serif" font-size="14.00">squared_error = 18.088</text>
<text text-anchor="start" x="946" y="-213.7" font-family="Helvetica,sans-Serif" font-size="14.00">samples = 137</text>
<text text-anchor="start" x="946" y="-198.7" font-family="Helvetica,sans-Serif" font-size="14.00">value = 15.091</text>
</g>
<!-- 1&#45;&gt;9 -->
<g id="edge9" class="edge">
<title>1&#45;&gt;9</title>
<path fill="none" stroke="black" d="M990.62,-296.6C990.62,-289.03 990.62,-280.87 990.62,-272.9"/>
<polygon fill="black" stroke="black" points="994.13,-272.99 990.63,-262.99 987.13,-272.99 994.13,-272.99"/>
</g>
<!-- 3 -->
<g id="node4" class="node">
<title>3</title>
<path fill="#e88f4f" stroke="black" d="M290.5,-157C290.5,-157 156.75,-157 156.75,-157 150.75,-157 144.75,-151 144.75,-145 144.75,-145 144.75,-101 144.75,-101 144.75,-95 150.75,-89 156.75,-89 156.75,-89 290.5,-89 290.5,-89 296.5,-89 302.5,-95 302.5,-101 302.5,-101 302.5,-145 302.5,-145 302.5,-151 296.5,-157 290.5,-157"/>
<text text-anchor="start" x="182.38" y="-139.7" font-family="Helvetica,sans-Serif" font-size="14.00">crim ≤ 10.592</text>
<text text-anchor="start" x="152.75" y="-124.7" font-family="Helvetica,sans-Serif" font-size="14.00">squared_error = 78.146</text>
<text text-anchor="start" x="186.5" y="-109.7" font-family="Helvetica,sans-Serif" font-size="14.00">samples = 5</text>
<text text-anchor="start" x="182.75" y="-94.7" font-family="Helvetica,sans-Serif" font-size="14.00">value = 45.58</text>
</g>
<!-- 2&#45;&gt;3 -->
<g id="edge3" class="edge">
<title>2&#45;&gt;3</title>
<path fill="none" stroke="black" d="M399.34,-194.29C372.11,-183.4 341.45,-171.13 313.45,-159.93"/>
<polygon fill="black" stroke="black" points="314.85,-156.72 304.27,-156.26 312.25,-163.22 314.85,-156.72"/>
</g>
<!-- 6 -->
<g id="node7" class="node">
<title>6</title>
<path fill="#f7d7c1" stroke="black" d="M545.5,-157C545.5,-157 411.75,-157 411.75,-157 405.75,-157 399.75,-151 399.75,-145 399.75,-145 399.75,-101 399.75,-101 399.75,-95 405.75,-89 411.75,-89 411.75,-89 545.5,-89 545.5,-89 551.5,-89 557.5,-95 557.5,-101 557.5,-101 557.5,-145 557.5,-145 557.5,-151 551.5,-157 545.5,-157"/>
<text text-anchor="start" x="446" y="-139.7" font-family="Helvetica,sans-Serif" font-size="14.00">rm ≤ 6.543</text>
<text text-anchor="start" x="407.75" y="-124.7" font-family="Helvetica,sans-Serif" font-size="14.00">squared_error = 14.798</text>
<text text-anchor="start" x="434" y="-109.7" font-family="Helvetica,sans-Serif" font-size="14.00">samples = 198</text>
<text text-anchor="start" x="434" y="-94.7" font-family="Helvetica,sans-Serif" font-size="14.00">value = 22.849</text>
</g>
<!-- 2&#45;&gt;6 -->
<g id="edge6" class="edge">
<title>2&#45;&gt;6</title>
<path fill="none" stroke="black" d="M478.62,-192.6C478.62,-185.03 478.62,-176.87 478.62,-168.9"/>
<polygon fill="black" stroke="black" points="482.13,-168.99 478.63,-158.99 475.13,-168.99 482.13,-168.99"/>
</g>
<!-- 4 -->
<g id="node5" class="node">
<title>4</title>
<path fill="#e58139" stroke="black" d="M123.25,-53C123.25,-53 12,-53 12,-53 6,-53 0,-47 0,-41 0,-41 0,-12 0,-12 0,-6 6,0 12,0 12,0 123.25,0 123.25,0 129.25,0 135.25,-6 135.25,-12 135.25,-12 135.25,-41 135.25,-41 135.25,-47 129.25,-53 123.25,-53"/>
<text text-anchor="start" x="8" y="-35.7" font-family="Helvetica,sans-Serif" font-size="14.00">squared_error = 0.0</text>
<text text-anchor="start" x="30.5" y="-20.7" font-family="Helvetica,sans-Serif" font-size="14.00">samples = 4</text>
<text text-anchor="start" x="30.5" y="-5.7" font-family="Helvetica,sans-Serif" font-size="14.00">value = 50.0</text>
</g>
<!-- 3&#45;&gt;4 -->
<g id="edge4" class="edge">
<title>3&#45;&gt;4</title>
<path fill="none" stroke="black" d="M168.63,-88.68C152.79,-79.09 135.56,-68.65 119.9,-59.16"/>
<polygon fill="black" stroke="black" points="122.03,-56.37 111.66,-54.18 118.4,-62.35 122.03,-56.37"/>
</g>
<!-- 5 -->
<g id="node6" class="node">
<title>5</title>
<path fill="#f4c7a8" stroke="black" d="M281.5,-53C281.5,-53 165.75,-53 165.75,-53 159.75,-53 153.75,-47 153.75,-41 153.75,-41 153.75,-12 153.75,-12 153.75,-6 159.75,0 165.75,0 165.75,0 281.5,0 281.5,0 287.5,0 293.5,-6 293.5,-12 293.5,-12 293.5,-41 293.5,-41 293.5,-47 287.5,-53 281.5,-53"/>
<text text-anchor="start" x="161.75" y="-35.7" font-family="Helvetica,sans-Serif" font-size="14.00">squared_error = &#45;0.0</text>
<text text-anchor="start" x="186.5" y="-20.7" font-family="Helvetica,sans-Serif" font-size="14.00">samples = 1</text>
<text text-anchor="start" x="186.5" y="-5.7" font-family="Helvetica,sans-Serif" font-size="14.00">value = 27.9</text>
</g>
<!-- 3&#45;&gt;5 -->
<g id="edge5" class="edge">
<title>3&#45;&gt;5</title>
<path fill="none" stroke="black" d="M223.62,-88.68C223.62,-80.99 223.62,-72.76 223.62,-64.9"/>
<polygon fill="black" stroke="black" points="227.13,-64.91 223.63,-54.91 220.13,-64.91 227.13,-64.91"/>
</g>
<!-- 7 -->
<g id="node8" class="node">
<title>7</title>
<path fill="#f8dbc7" stroke="black" d="M449.75,-53C449.75,-53 323.5,-53 323.5,-53 317.5,-53 311.5,-47 311.5,-41 311.5,-41 311.5,-12 311.5,-12 311.5,-6 317.5,0 323.5,0 323.5,0 449.75,0 449.75,0 455.75,0 461.75,-6 461.75,-12 461.75,-12 461.75,-41 461.75,-41 461.75,-47 455.75,-53 449.75,-53"/>
<text text-anchor="start" x="319.5" y="-35.7" font-family="Helvetica,sans-Serif" font-size="14.00">squared_error = 8.565</text>
<text text-anchor="start" x="342" y="-20.7" font-family="Helvetica,sans-Serif" font-size="14.00">samples = 156</text>
<text text-anchor="start" x="345.75" y="-5.7" font-family="Helvetica,sans-Serif" font-size="14.00">value = 21.66</text>
</g>
<!-- 6&#45;&gt;7 -->
<g id="edge7" class="edge">
<title>6&#45;&gt;7</title>
<path fill="none" stroke="black" d="M446.19,-88.68C437.64,-79.9 428.41,-70.42 419.82,-61.6"/>
<polygon fill="black" stroke="black" points="422.37,-59.2 412.89,-54.48 417.36,-64.09 422.37,-59.2"/>
</g>
<!-- 8 -->
<g id="node9" class="node">
<title>8</title>
<path fill="#f4c9ab" stroke="black" d="M625.5,-53C625.5,-53 491.75,-53 491.75,-53 485.75,-53 479.75,-47 479.75,-41 479.75,-41 479.75,-12 479.75,-12 479.75,-6 485.75,0 491.75,0 491.75,0 625.5,0 625.5,0 631.5,0 637.5,-6 637.5,-12 637.5,-12 637.5,-41 637.5,-41 637.5,-47 631.5,-53 625.5,-53"/>
<text text-anchor="start" x="487.75" y="-35.7" font-family="Helvetica,sans-Serif" font-size="14.00">squared_error = 13.157</text>
<text text-anchor="start" x="517.75" y="-20.7" font-family="Helvetica,sans-Serif" font-size="14.00">samples = 42</text>
<text text-anchor="start" x="514" y="-5.7" font-family="Helvetica,sans-Serif" font-size="14.00">value = 27.269</text>
</g>
<!-- 6&#45;&gt;8 -->
<g id="edge8" class="edge">
<title>6&#45;&gt;8</title>
<path fill="none" stroke="black" d="M506.83,-88.68C514.11,-80.09 521.96,-70.81 529.29,-62.15"/>
<polygon fill="black" stroke="black" points="531.94,-64.44 535.73,-54.55 526.59,-59.92 531.94,-64.44"/>
</g>
<!-- 10 -->
<g id="node11" class="node">
<title>10</title>
<path fill="#fae8db" stroke="black" d="M969.5,-157C969.5,-157 835.75,-157 835.75,-157 829.75,-157 823.75,-151 823.75,-145 823.75,-145 823.75,-101 823.75,-101 823.75,-95 829.75,-89 835.75,-89 835.75,-89 969.5,-89 969.5,-89 975.5,-89 981.5,-95 981.5,-101 981.5,-101 981.5,-145 981.5,-145 981.5,-151 975.5,-157 969.5,-157"/>
<text text-anchor="start" x="867.38" y="-139.7" font-family="Helvetica,sans-Serif" font-size="14.00">nox ≤ 0.607</text>
<text text-anchor="start" x="831.75" y="-124.7" font-family="Helvetica,sans-Serif" font-size="14.00">squared_error = 11.507</text>
<text text-anchor="start" x="861.75" y="-109.7" font-family="Helvetica,sans-Serif" font-size="14.00">samples = 74</text>
<text text-anchor="start" x="858" y="-94.7" font-family="Helvetica,sans-Serif" font-size="14.00">value = 17.507</text>
</g>
<!-- 9&#45;&gt;10 -->
<g id="edge10" class="edge">
<title>9&#45;&gt;10</title>
<path fill="none" stroke="black" d="M961.81,-192.6C954.52,-184.15 946.59,-174.96 938.98,-166.13"/>
<polygon fill="black" stroke="black" points="941.68,-163.9 932.49,-158.62 936.38,-168.48 941.68,-163.9"/>
</g>
<!-- 13 -->
<g id="node14" class="node">
<title>13</title>
<path fill="#fef9f6" stroke="black" d="M1145.5,-157C1145.5,-157 1011.75,-157 1011.75,-157 1005.75,-157 999.75,-151 999.75,-145 999.75,-145 999.75,-101 999.75,-101 999.75,-95 1005.75,-89 1011.75,-89 1011.75,-89 1145.5,-89 1145.5,-89 1151.5,-89 1157.5,-95 1157.5,-101 1157.5,-101 1157.5,-145 1157.5,-145 1157.5,-151 1151.5,-157 1145.5,-157"/>
<text text-anchor="start" x="1041.88" y="-139.7" font-family="Helvetica,sans-Serif" font-size="14.00">lstat ≤ 21.38</text>
<text text-anchor="start" x="1007.75" y="-124.7" font-family="Helvetica,sans-Serif" font-size="14.00">squared_error = 10.913</text>
<text text-anchor="start" x="1037.75" y="-109.7" font-family="Helvetica,sans-Serif" font-size="14.00">samples = 63</text>
<text text-anchor="start" x="1034" y="-94.7" font-family="Helvetica,sans-Serif" font-size="14.00">value = 12.254</text>
</g>
<!-- 9&#45;&gt;13 -->
<g id="edge13" class="edge">
<title>9&#45;&gt;13</title>
<path fill="none" stroke="black" d="M1019.44,-192.6C1026.73,-184.15 1034.66,-174.96 1042.27,-166.13"/>
<polygon fill="black" stroke="black" points="1044.87,-168.48 1048.76,-158.62 1039.57,-163.9 1044.87,-168.48"/>
</g>
<!-- 11 -->
<g id="node12" class="node">
<title>11</title>
<path fill="#f9e4d5" stroke="black" d="M801.5,-53C801.5,-53 667.75,-53 667.75,-53 661.75,-53 655.75,-47 655.75,-41 655.75,-41 655.75,-12 655.75,-12 655.75,-6 661.75,0 667.75,0 667.75,0 801.5,0 801.5,0 807.5,0 813.5,-6 813.5,-12 813.5,-12 813.5,-41 813.5,-41 813.5,-47 807.5,-53 801.5,-53"/>
<text text-anchor="start" x="663.75" y="-35.7" font-family="Helvetica,sans-Serif" font-size="14.00">squared_error = 10.155</text>
<text text-anchor="start" x="693.75" y="-20.7" font-family="Helvetica,sans-Serif" font-size="14.00">samples = 43</text>
<text text-anchor="start" x="690" y="-5.7" font-family="Helvetica,sans-Serif" font-size="14.00">value = 18.865</text>
</g>
<!-- 10&#45;&gt;11 -->
<g id="edge11" class="edge">
<title>10&#45;&gt;11</title>
<path fill="none" stroke="black" d="M843.39,-88.68C826.18,-79 807.44,-68.46 790.44,-58.9"/>
<polygon fill="black" stroke="black" points="792.41,-55.99 781.98,-54.14 788.98,-62.09 792.41,-55.99"/>
</g>
<!-- 12 -->
<g id="node13" class="node">
<title>12</title>
<path fill="#fceee5" stroke="black" d="M969.75,-53C969.75,-53 843.5,-53 843.5,-53 837.5,-53 831.5,-47 831.5,-41 831.5,-41 831.5,-12 831.5,-12 831.5,-6 837.5,0 843.5,0 843.5,0 969.75,0 969.75,0 975.75,0 981.75,-6 981.75,-12 981.75,-12 981.75,-41 981.75,-41 981.75,-47 975.75,-53 969.75,-53"/>
<text text-anchor="start" x="839.5" y="-35.7" font-family="Helvetica,sans-Serif" font-size="14.00">squared_error = 7.273</text>
<text text-anchor="start" x="865.75" y="-20.7" font-family="Helvetica,sans-Serif" font-size="14.00">samples = 31</text>
<text text-anchor="start" x="862" y="-5.7" font-family="Helvetica,sans-Serif" font-size="14.00">value = 15.623</text>
</g>
<!-- 10&#45;&gt;12 -->
<g id="edge12" class="edge">
<title>10&#45;&gt;12</title>
<path fill="none" stroke="black" d="M904.04,-88.68C904.36,-80.9 904.72,-72.56 905.05,-64.63"/>
<polygon fill="black" stroke="black" points="908.54,-65.05 905.46,-54.91 901.55,-64.75 908.54,-65.05"/>
</g>
<!-- 14 -->
<g id="node15" class="node">
<title>14</title>
<path fill="#fdf4ee" stroke="black" d="M1137.75,-53C1137.75,-53 1011.5,-53 1011.5,-53 1005.5,-53 999.5,-47 999.5,-41 999.5,-41 999.5,-12 999.5,-12 999.5,-6 1005.5,0 1011.5,0 1011.5,0 1137.75,0 1137.75,0 1143.75,0 1149.75,-6 1149.75,-12 1149.75,-12 1149.75,-41 1149.75,-41 1149.75,-47 1143.75,-53 1137.75,-53"/>
<text text-anchor="start" x="1007.5" y="-35.7" font-family="Helvetica,sans-Serif" font-size="14.00">squared_error = 7.699</text>
<text text-anchor="start" x="1033.75" y="-20.7" font-family="Helvetica,sans-Serif" font-size="14.00">samples = 32</text>
<text text-anchor="start" x="1030" y="-5.7" font-family="Helvetica,sans-Serif" font-size="14.00">value = 13.794</text>
</g>
<!-- 13&#45;&gt;14 -->
<g id="edge14" class="edge">
<title>13&#45;&gt;14</title>
<path fill="none" stroke="black" d="M1077.21,-88.68C1076.89,-80.9 1076.53,-72.56 1076.2,-64.63"/>
<polygon fill="black" stroke="black" points="1079.7,-64.75 1075.79,-54.91 1072.71,-65.05 1079.7,-64.75"/>
</g>
<!-- 15 -->
<g id="node16" class="node">
<title>15</title>
<path fill="#fffefe" stroke="black" d="M1305.75,-53C1305.75,-53 1179.5,-53 1179.5,-53 1173.5,-53 1167.5,-47 1167.5,-41 1167.5,-41 1167.5,-12 1167.5,-12 1167.5,-6 1173.5,0 1179.5,0 1179.5,0 1305.75,0 1305.75,0 1311.75,0 1317.75,-6 1317.75,-12 1317.75,-12 1317.75,-41 1317.75,-41 1317.75,-47 1311.75,-53 1305.75,-53"/>
<text text-anchor="start" x="1175.5" y="-35.7" font-family="Helvetica,sans-Serif" font-size="14.00">squared_error = 9.258</text>
<text text-anchor="start" x="1201.75" y="-20.7" font-family="Helvetica,sans-Serif" font-size="14.00">samples = 31</text>
<text text-anchor="start" x="1198" y="-5.7" font-family="Helvetica,sans-Serif" font-size="14.00">value = 10.665</text>
</g>
<!-- 13&#45;&gt;15 -->
<g id="edge15" class="edge">
<title>13&#45;&gt;15</title>
<path fill="none" stroke="black" d="M1136.45,-88.68C1153.25,-79 1171.54,-68.46 1188.14,-58.9"/>
<polygon fill="black" stroke="black" points="1189.46,-62.17 1196.38,-54.15 1185.96,-56.11 1189.46,-62.17"/>
</g>
<!-- 17 -->
<g id="node18" class="node">
<title>17</title>
<path fill="#f1b992" stroke="black" d="M1737.75,-261C1737.75,-261 1611.5,-261 1611.5,-261 1605.5,-261 1599.5,-255 1599.5,-249 1599.5,-249 1599.5,-205 1599.5,-205 1599.5,-199 1605.5,-193 1611.5,-193 1611.5,-193 1737.75,-193 1737.75,-193 1743.75,-193 1749.75,-199 1749.75,-205 1749.75,-205 1749.75,-249 1749.75,-249 1749.75,-255 1743.75,-261 1737.75,-261"/>
<text text-anchor="start" x="1639.38" y="-243.7" font-family="Helvetica,sans-Serif" font-size="14.00">nox ≤ 0.659</text>
<text text-anchor="start" x="1607.5" y="-228.7" font-family="Helvetica,sans-Serif" font-size="14.00">squared_error = 44.82</text>
<text text-anchor="start" x="1633.75" y="-213.7" font-family="Helvetica,sans-Serif" font-size="14.00">samples = 39</text>
<text text-anchor="start" x="1630" y="-198.7" font-family="Helvetica,sans-Serif" font-size="14.00">value = 32.256</text>
</g>
<!-- 16&#45;&gt;17 -->
<g id="edge17" class="edge">
<title>16&#45;&gt;17</title>
<path fill="none" stroke="black" d="M1674.62,-296.6C1674.62,-289.03 1674.62,-280.87 1674.62,-272.9"/>
<polygon fill="black" stroke="black" points="1678.13,-272.99 1674.63,-262.99 1671.13,-272.99 1678.13,-272.99"/>
</g>
<!-- 24 -->
<g id="node25" class="node">
<title>24</title>
<path fill="#e78c4a" stroke="black" d="M2219.75,-261C2219.75,-261 2093.5,-261 2093.5,-261 2087.5,-261 2081.5,-255 2081.5,-249 2081.5,-249 2081.5,-205 2081.5,-205 2081.5,-199 2087.5,-193 2093.5,-193 2093.5,-193 2219.75,-193 2219.75,-193 2225.75,-193 2231.75,-199 2231.75,-205 2231.75,-205 2231.75,-249 2231.75,-249 2231.75,-255 2225.75,-261 2219.75,-261"/>
<text text-anchor="start" x="2117.25" y="-243.7" font-family="Helvetica,sans-Serif" font-size="14.00">ptratio ≤ 18.2</text>
<text text-anchor="start" x="2089.5" y="-228.7" font-family="Helvetica,sans-Serif" font-size="14.00">squared_error = 16.86</text>
<text text-anchor="start" x="2115.75" y="-213.7" font-family="Helvetica,sans-Serif" font-size="14.00">samples = 25</text>
<text text-anchor="start" x="2112" y="-198.7" font-family="Helvetica,sans-Serif" font-size="14.00">value = 46.656</text>
</g>
<!-- 16&#45;&gt;24 -->
<g id="edge24" class="edge">
<title>16&#45;&gt;24</title>
<path fill="none" stroke="black" d="M1753.95,-313.21C1840.95,-294.8 1980.13,-265.35 2069.95,-246.34"/>
<polygon fill="black" stroke="black" points="2070.65,-249.77 2079.71,-244.28 2069.21,-242.92 2070.65,-249.77"/>
</g>
<!-- 18 -->
<g id="node19" class="node">
<title>18</title>
<path fill="#f0b58a" stroke="black" d="M1655.5,-157C1655.5,-157 1521.75,-157 1521.75,-157 1515.75,-157 1509.75,-151 1509.75,-145 1509.75,-145 1509.75,-101 1509.75,-101 1509.75,-95 1515.75,-89 1521.75,-89 1521.75,-89 1655.5,-89 1655.5,-89 1661.5,-89 1667.5,-95 1667.5,-101 1667.5,-101 1667.5,-145 1667.5,-145 1667.5,-151 1661.5,-157 1655.5,-157"/>
<text text-anchor="start" x="1555.62" y="-139.7" font-family="Helvetica,sans-Serif" font-size="14.00">dis ≤ 1.904</text>
<text text-anchor="start" x="1517.75" y="-124.7" font-family="Helvetica,sans-Serif" font-size="14.00">squared_error = 18.995</text>
<text text-anchor="start" x="1547.75" y="-109.7" font-family="Helvetica,sans-Serif" font-size="14.00">samples = 36</text>
<text text-anchor="start" x="1544" y="-94.7" font-family="Helvetica,sans-Serif" font-size="14.00">value = 33.744</text>
</g>
<!-- 17&#45;&gt;18 -->
<g id="edge18" class="edge">
<title>17&#45;&gt;18</title>
<path fill="none" stroke="black" d="M1646.47,-192.6C1639.34,-184.15 1631.59,-174.96 1624.15,-166.13"/>
<polygon fill="black" stroke="black" points="1626.95,-164.02 1617.82,-158.63 1621.59,-168.53 1626.95,-164.02"/>
</g>
<!-- 21 -->
<g id="node22" class="node">
<title>21</title>
<path fill="#fcf2eb" stroke="black" d="M1823.75,-157C1823.75,-157 1697.5,-157 1697.5,-157 1691.5,-157 1685.5,-151 1685.5,-145 1685.5,-145 1685.5,-101 1685.5,-101 1685.5,-95 1691.5,-89 1697.5,-89 1697.5,-89 1823.75,-89 1823.75,-89 1829.75,-89 1835.75,-95 1835.75,-101 1835.75,-101 1835.75,-145 1835.75,-145 1835.75,-151 1829.75,-157 1823.75,-157"/>
<text text-anchor="start" x="1719.38" y="-139.7" font-family="Helvetica,sans-Serif" font-size="14.00">crim ≤ 54.293</text>
<text text-anchor="start" x="1693.5" y="-124.7" font-family="Helvetica,sans-Serif" font-size="14.00">squared_error = 9.307</text>
<text text-anchor="start" x="1723.5" y="-109.7" font-family="Helvetica,sans-Serif" font-size="14.00">samples = 3</text>
<text text-anchor="start" x="1723.5" y="-94.7" font-family="Helvetica,sans-Serif" font-size="14.00">value = 14.4</text>
</g>
<!-- 17&#45;&gt;21 -->
<g id="edge21" class="edge">
<title>17&#45;&gt;21</title>
<path fill="none" stroke="black" d="M1702.78,-192.6C1709.91,-184.15 1717.66,-174.96 1725.1,-166.13"/>
<polygon fill="black" stroke="black" points="1727.66,-168.53 1731.43,-158.63 1722.3,-164.02 1727.66,-168.53"/>
</g>
<!-- 19 -->
<g id="node20" class="node">
<title>19</title>
<path fill="#e88f4f" stroke="black" d="M1481.5,-53C1481.5,-53 1347.75,-53 1347.75,-53 1341.75,-53 1335.75,-47 1335.75,-41 1335.75,-41 1335.75,-12 1335.75,-12 1335.75,-6 1341.75,0 1347.75,0 1347.75,0 1481.5,0 1481.5,0 1487.5,0 1493.5,-6 1493.5,-12 1493.5,-12 1493.5,-41 1493.5,-41 1493.5,-47 1487.5,-53 1481.5,-53"/>
<text text-anchor="start" x="1343.75" y="-35.7" font-family="Helvetica,sans-Serif" font-size="14.00">squared_error = 18.923</text>
<text text-anchor="start" x="1377.5" y="-20.7" font-family="Helvetica,sans-Serif" font-size="14.00">samples = 2</text>
<text text-anchor="start" x="1373.75" y="-5.7" font-family="Helvetica,sans-Serif" font-size="14.00">value = 45.65</text>
</g>
<!-- 18&#45;&gt;19 -->
<g id="edge19" class="edge">
<title>18&#45;&gt;19</title>
<path fill="none" stroke="black" d="M1527.28,-88.68C1509.28,-78.91 1489.68,-68.26 1471.94,-58.63"/>
<polygon fill="black" stroke="black" points="1474.09,-55.81 1463.63,-54.12 1470.75,-61.96 1474.09,-55.81"/>
</g>
<!-- 20 -->
<g id="node21" class="node">
<title>20</title>
<path fill="#f0b78e" stroke="black" d="M1657.5,-53C1657.5,-53 1523.75,-53 1523.75,-53 1517.75,-53 1511.75,-47 1511.75,-41 1511.75,-41 1511.75,-12 1511.75,-12 1511.75,-6 1517.75,0 1523.75,0 1523.75,0 1657.5,0 1657.5,0 1663.5,0 1669.5,-6 1669.5,-12 1669.5,-12 1669.5,-41 1669.5,-41 1669.5,-47 1663.5,-53 1657.5,-53"/>
<text text-anchor="start" x="1519.75" y="-35.7" font-family="Helvetica,sans-Serif" font-size="14.00">squared_error = 10.171</text>
<text text-anchor="start" x="1549.75" y="-20.7" font-family="Helvetica,sans-Serif" font-size="14.00">samples = 34</text>
<text text-anchor="start" x="1546" y="-5.7" font-family="Helvetica,sans-Serif" font-size="14.00">value = 33.044</text>
</g>
<!-- 18&#45;&gt;20 -->
<g id="edge20" class="edge">
<title>18&#45;&gt;20</title>
<path fill="none" stroke="black" d="M1589.33,-88.68C1589.49,-80.99 1589.67,-72.76 1589.83,-64.9"/>
<polygon fill="black" stroke="black" points="1593.33,-64.98 1590.04,-54.91 1586.33,-64.83 1593.33,-64.98"/>
</g>
<!-- 22 -->
<g id="node23" class="node">
<title>22</title>
<path fill="#fbece1" stroke="black" d="M1818,-53C1818,-53 1699.25,-53 1699.25,-53 1693.25,-53 1687.25,-47 1687.25,-41 1687.25,-41 1687.25,-12 1687.25,-12 1687.25,-6 1693.25,0 1699.25,0 1699.25,0 1818,0 1818,0 1824,0 1830,-6 1830,-12 1830,-12 1830,-41 1830,-41 1830,-47 1824,-53 1818,-53"/>
<text text-anchor="start" x="1695.25" y="-35.7" font-family="Helvetica,sans-Serif" font-size="14.00">squared_error = 1.96</text>
<text text-anchor="start" x="1721.5" y="-20.7" font-family="Helvetica,sans-Serif" font-size="14.00">samples = 2</text>
<text text-anchor="start" x="1721.5" y="-5.7" font-family="Helvetica,sans-Serif" font-size="14.00">value = 16.4</text>
</g>
<!-- 21&#45;&gt;22 -->
<g id="edge22" class="edge">
<title>21&#45;&gt;22</title>
<path fill="none" stroke="black" d="M1759.92,-88.68C1759.76,-80.99 1759.58,-72.76 1759.42,-64.9"/>
<polygon fill="black" stroke="black" points="1762.92,-64.83 1759.21,-54.91 1755.92,-64.98 1762.92,-64.83"/>
</g>
<!-- 23 -->
<g id="node24" class="node">
<title>23</title>
<path fill="#ffffff" stroke="black" d="M1971.25,-53C1971.25,-53 1860,-53 1860,-53 1854,-53 1848,-47 1848,-41 1848,-41 1848,-12 1848,-12 1848,-6 1854,0 1860,0 1860,0 1971.25,0 1971.25,0 1977.25,0 1983.25,-6 1983.25,-12 1983.25,-12 1983.25,-41 1983.25,-41 1983.25,-47 1977.25,-53 1971.25,-53"/>
<text text-anchor="start" x="1856" y="-35.7" font-family="Helvetica,sans-Serif" font-size="14.00">squared_error = 0.0</text>
<text text-anchor="start" x="1878.5" y="-20.7" font-family="Helvetica,sans-Serif" font-size="14.00">samples = 1</text>
<text text-anchor="start" x="1878.5" y="-5.7" font-family="Helvetica,sans-Serif" font-size="14.00">value = 10.4</text>
</g>
<!-- 21&#45;&gt;23 -->
<g id="edge23" class="edge">
<title>21&#45;&gt;23</title>
<path fill="none" stroke="black" d="M1815.27,-88.68C1831.01,-79.09 1848.12,-68.65 1863.69,-59.16"/>
<polygon fill="black" stroke="black" points="1865.15,-62.38 1871.86,-54.18 1861.5,-56.4 1865.15,-62.38"/>
</g>
<!-- 25 -->
<g id="node26" class="node">
<title>25</title>
<path fill="#e78a46" stroke="black" d="M2219.75,-157C2219.75,-157 2093.5,-157 2093.5,-157 2087.5,-157 2081.5,-151 2081.5,-145 2081.5,-145 2081.5,-101 2081.5,-101 2081.5,-95 2087.5,-89 2093.5,-89 2093.5,-89 2219.75,-89 2219.75,-89 2225.75,-89 2231.75,-95 2231.75,-101 2231.75,-101 2231.75,-145 2231.75,-145 2231.75,-151 2225.75,-157 2219.75,-157"/>
<text text-anchor="start" x="2117.25" y="-139.7" font-family="Helvetica,sans-Serif" font-size="14.00">ptratio ≤ 14.8</text>
<text text-anchor="start" x="2089.5" y="-124.7" font-family="Helvetica,sans-Serif" font-size="14.00">squared_error = 11.53</text>
<text text-anchor="start" x="2115.75" y="-109.7" font-family="Helvetica,sans-Serif" font-size="14.00">samples = 23</text>
<text text-anchor="start" x="2112" y="-94.7" font-family="Helvetica,sans-Serif" font-size="14.00">value = 47.322</text>
</g>
<!-- 24&#45;&gt;25 -->
<g id="edge25" class="edge">
<title>24&#45;&gt;25</title>
<path fill="none" stroke="black" d="M2156.62,-192.6C2156.62,-185.03 2156.62,-176.87 2156.62,-168.9"/>
<polygon fill="black" stroke="black" points="2160.13,-168.99 2156.63,-158.99 2153.13,-168.99 2160.13,-168.99"/>
</g>
<!-- 28 -->
<g id="node29" class="node">
<title>28</title>
<path fill="#eca470" stroke="black" d="M2468.75,-157C2468.75,-157 2342.5,-157 2342.5,-157 2336.5,-157 2330.5,-151 2330.5,-145 2330.5,-145 2330.5,-101 2330.5,-101 2330.5,-95 2336.5,-89 2342.5,-89 2342.5,-89 2468.75,-89 2468.75,-89 2474.75,-89 2480.75,-95 2480.75,-101 2480.75,-101 2480.75,-145 2480.75,-145 2480.75,-151 2474.75,-157 2468.75,-157"/>
<text text-anchor="start" x="2368.12" y="-139.7" font-family="Helvetica,sans-Serif" font-size="14.00">crim ≤ 0.295</text>
<text text-anchor="start" x="2338.5" y="-124.7" font-family="Helvetica,sans-Serif" font-size="14.00">squared_error = 14.44</text>
<text text-anchor="start" x="2368.5" y="-109.7" font-family="Helvetica,sans-Serif" font-size="14.00">samples = 2</text>
<text text-anchor="start" x="2368.5" y="-94.7" font-family="Helvetica,sans-Serif" font-size="14.00">value = 39.0</text>
</g>
<!-- 24&#45;&gt;28 -->
<g id="edge28" class="edge">
<title>24&#45;&gt;28</title>
<path fill="none" stroke="black" d="M2232.01,-195.12C2259.67,-183.79 2291.19,-170.88 2319.71,-159.19"/>
<polygon fill="black" stroke="black" points="2320.74,-162.55 2328.67,-155.52 2318.09,-156.08 2320.74,-162.55"/>
</g>
<!-- 26 -->
<g id="node27" class="node">
<title>26</title>
<path fill="#e6853f" stroke="black" d="M2139.75,-53C2139.75,-53 2013.5,-53 2013.5,-53 2007.5,-53 2001.5,-47 2001.5,-41 2001.5,-41 2001.5,-12 2001.5,-12 2001.5,-6 2007.5,0 2013.5,0 2013.5,0 2139.75,0 2139.75,0 2145.75,0 2151.75,-6 2151.75,-12 2151.75,-12 2151.75,-41 2151.75,-41 2151.75,-47 2145.75,-53 2139.75,-53"/>
<text text-anchor="start" x="2009.5" y="-35.7" font-family="Helvetica,sans-Serif" font-size="14.00">squared_error = 5.662</text>
<text text-anchor="start" x="2035.75" y="-20.7" font-family="Helvetica,sans-Serif" font-size="14.00">samples = 13</text>
<text text-anchor="start" x="2032" y="-5.7" font-family="Helvetica,sans-Serif" font-size="14.00">value = 48.762</text>
</g>
<!-- 25&#45;&gt;26 -->
<g id="edge26" class="edge">
<title>25&#45;&gt;26</title>
<path fill="none" stroke="black" d="M2128.42,-88.68C2121.14,-80.09 2113.29,-70.81 2105.96,-62.15"/>
<polygon fill="black" stroke="black" points="2108.66,-59.92 2099.52,-54.55 2103.31,-64.44 2108.66,-59.92"/>
</g>
<!-- 27 -->
<g id="node28" class="node">
<title>27</title>
<path fill="#e88f50" stroke="black" d="M2307.75,-53C2307.75,-53 2181.5,-53 2181.5,-53 2175.5,-53 2169.5,-47 2169.5,-41 2169.5,-41 2169.5,-12 2169.5,-12 2169.5,-6 2175.5,0 2181.5,0 2181.5,0 2307.75,0 2307.75,0 2313.75,0 2319.75,-6 2319.75,-12 2319.75,-12 2319.75,-41 2319.75,-41 2319.75,-47 2313.75,-53 2307.75,-53"/>
<text text-anchor="start" x="2177.5" y="-35.7" font-family="Helvetica,sans-Serif" font-size="14.00">squared_error = 12.96</text>
<text text-anchor="start" x="2203.75" y="-20.7" font-family="Helvetica,sans-Serif" font-size="14.00">samples = 10</text>
<text text-anchor="start" x="2203.75" y="-5.7" font-family="Helvetica,sans-Serif" font-size="14.00">value = 45.45</text>
</g>
<!-- 25&#45;&gt;27 -->
<g id="edge27" class="edge">
<title>25&#45;&gt;27</title>
<path fill="none" stroke="black" d="M2187.65,-88.68C2195.83,-79.9 2204.66,-70.42 2212.87,-61.6"/>
<polygon fill="black" stroke="black" points="2215.23,-64.2 2219.48,-54.5 2210.1,-59.43 2215.23,-64.2"/>
</g>
<!-- 29 -->
<g id="node30" class="node">
<title>29</title>
<path fill="#efb083" stroke="black" d="M2461.25,-53C2461.25,-53 2350,-53 2350,-53 2344,-53 2338,-47 2338,-41 2338,-41 2338,-12 2338,-12 2338,-6 2344,0 2350,0 2350,0 2461.25,0 2461.25,0 2467.25,0 2473.25,-6 2473.25,-12 2473.25,-12 2473.25,-41 2473.25,-41 2473.25,-47 2467.25,-53 2461.25,-53"/>
<text text-anchor="start" x="2346" y="-35.7" font-family="Helvetica,sans-Serif" font-size="14.00">squared_error = 0.0</text>
<text text-anchor="start" x="2368.5" y="-20.7" font-family="Helvetica,sans-Serif" font-size="14.00">samples = 1</text>
<text text-anchor="start" x="2368.5" y="-5.7" font-family="Helvetica,sans-Serif" font-size="14.00">value = 35.2</text>
</g>
<!-- 28&#45;&gt;29 -->
<g id="edge29" class="edge">
<title>28&#45;&gt;29</title>
<path fill="none" stroke="black" d="M2405.62,-88.68C2405.62,-80.99 2405.62,-72.76 2405.62,-64.9"/>
<polygon fill="black" stroke="black" points="2409.13,-64.91 2405.63,-54.91 2402.13,-64.91 2409.13,-64.91"/>
</g>
<!-- 30 -->
<g id="node31" class="node">
<title>30</title>
<path fill="#ea985d" stroke="black" d="M2614.25,-53C2614.25,-53 2503,-53 2503,-53 2497,-53 2491,-47 2491,-41 2491,-41 2491,-12 2491,-12 2491,-6 2497,0 2503,0 2503,0 2614.25,0 2614.25,0 2620.25,0 2626.25,-6 2626.25,-12 2626.25,-12 2626.25,-41 2626.25,-41 2626.25,-47 2620.25,-53 2614.25,-53"/>
<text text-anchor="start" x="2499" y="-35.7" font-family="Helvetica,sans-Serif" font-size="14.00">squared_error = 0.0</text>
<text text-anchor="start" x="2521.5" y="-20.7" font-family="Helvetica,sans-Serif" font-size="14.00">samples = 1</text>
<text text-anchor="start" x="2521.5" y="-5.7" font-family="Helvetica,sans-Serif" font-size="14.00">value = 42.8</text>
</g>
<!-- 28&#45;&gt;30 -->
<g id="edge30" class="edge">
<title>28&#45;&gt;30</title>
<path fill="none" stroke="black" d="M2459.57,-88.68C2474.95,-79.18 2491.67,-68.85 2506.92,-59.43"/>
<polygon fill="black" stroke="black" points="2508.75,-62.42 2515.41,-54.19 2505.07,-56.47 2508.75,-62.42"/>
</g>
</g>
</svg>