<?xml version="1.0" encoding="utf-8" standalone="no"?>
<!DOCTYPE svg PUBLIC "-//W3C//DTD SVG 1.1//EN"
  "http://www.w3.org/Graphics/SVG/1.1/DTD/svg11.dtd">
<svg xmlns:xlink="http://www.w3.org/1999/xlink" width="682.231746pt" height="399.145938pt" viewBox="0 0 682.231746 399.145938" xmlns="http://www.w3.org/2000/svg" version="1.1">
 <metadata>
  <rdf:RDF xmlns:dc="http://purl.org/dc/elements/1.1/" xmlns:cc="http://creativecommons.org/ns#" xmlns:rdf="http://www.w3.org/1999/02/22-rdf-syntax-ns#">
   <cc:Work>
    <dc:type rdf:resource="http://purl.org/dc/dcmitype/StillImage"/>
    <dc:date>2024-10-08T20:59:38.089519</dc:date>
    <dc:format>image/svg+xml</dc:format>
    <dc:creator>
     <cc:Agent>
      <dc:title>Matplotlib v3.7.1, https://matplotlib.org/</dc:title>
     </cc:Agent>
    </dc:creator>
   </cc:Work>
  </rdf:RDF>
 </metadata>
 <defs>
  <style type="text/css">*{stroke-linejoin: round; stroke-linecap: butt}</style>
 </defs>
 <g id="figure_1">
  <g id="patch_1">
   <path d="M 0 399.145938 
L 682.231746 399.145938 
L 682.231746 0 
L 0 0 
z
" style="fill: #ffffff"/>
  </g>
  <g id="axes_1">
   <g id="patch_2">
    <path d="M 61.231746 365.025523 
L 675.031746 365.025523 
L 675.031746 32.385523 
L 61.231746 32.385523 
z
" style="fill: #ffffff"/>
   </g>
   <g id="PathCollection_1">
    <defs>
     <path id="mfbc0df0d18" d="M 0 3 
C 0.795609 3 1.55874 2.683901 2.12132 2.12132 
C 2.683901 1.55874 3 0.795609 3 0 
C 3 -0.795609 2.683901 -1.55874 2.12132 -2.12132 
C 1.55874 -2.683901 0.795609 -3 0 -3 
C -0.795609 -3 -1.55874 -2.683901 -2.12132 -2.12132 
C -2.683901 -1.55874 -3 -0.795609 -3 0 
C -3 0.795609 -2.683901 1.55874 -2.12132 2.12132 
C -1.55874 2.683901 -0.795609 3 0 3 
z
" style="stroke: #0000ff"/>
    </defs>
    <g clip-path="url(#p4ea5ae35b4)">
     <use xlink:href="#mfbc0df0d18" x="89.131746" y="198.380017" style="fill: #0000ff; stroke: #0000ff"/>
     <use xlink:href="#mfbc0df0d18" x="151.131746" y="197.410737" style="fill: #0000ff; stroke: #0000ff"/>
     <use xlink:href="#mfbc0df0d18" x="213.131746" y="195.10649" style="fill: #0000ff; stroke: #0000ff"/>
     <use xlink:href="#mfbc0df0d18" x="275.131746" y="187.306659" style="fill: #0000ff; stroke: #0000ff"/>
     <use xlink:href="#mfbc0df0d18" x="337.131746" y="131.695157" style="fill: #0000ff; stroke: #0000ff"/>
     <use xlink:href="#mfbc0df0d18" x="399.131746" y="131.695157" style="fill: #0000ff; stroke: #0000ff"/>
     <use xlink:href="#mfbc0df0d18" x="461.131746" y="187.306659" style="fill: #0000ff; stroke: #0000ff"/>
     <use xlink:href="#mfbc0df0d18" x="523.131746" y="195.10649" style="fill: #0000ff; stroke: #0000ff"/>
     <use xlink:href="#mfbc0df0d18" x="585.131746" y="197.410737" style="fill: #0000ff; stroke: #0000ff"/>
     <use xlink:href="#mfbc0df0d18" x="647.131746" y="198.380017" style="fill: #0000ff; stroke: #0000ff"/>
    </g>
   </g>
   <g id="PathCollection_2">
    <defs>
     <path id="m42505f8706" d="M 0 3 
C 0.795609 3 1.55874 2.683901 2.12132 2.12132 
C 2.683901 1.55874 3 0.795609 3 0 
C 3 -0.795609 2.683901 -1.55874 2.12132 -2.12132 
C 1.55874 -2.683901 0.795609 -3 0 -3 
C -0.795609 -3 -1.55874 -2.683901 -2.12132 -2.12132 
C -2.683901 -1.55874 -3 -0.795609 -3 0 
C -3 0.795609 -2.683901 1.55874 -2.12132 2.12132 
C -1.55874 2.683901 -0.795609 3 0 3 
z
" style="stroke: #0000ff; stroke-width: 1.5"/>
    </defs>
    <g clip-path="url(#p4ea5ae35b4)">
     <use xlink:href="#m42505f8706" x="120.131746" y="197.984265" style="fill: #ffffff; stroke: #0000ff; stroke-width: 1.5"/>
     <use xlink:href="#m42505f8706" x="182.131746" y="196.535585" style="fill: #ffffff; stroke: #0000ff; stroke-width: 1.5"/>
     <use xlink:href="#m42505f8706" x="244.131746" y="192.546083" style="fill: #ffffff; stroke: #0000ff; stroke-width: 1.5"/>
     <use xlink:href="#m42505f8706" x="306.131746" y="174.227551" style="fill: #ffffff; stroke: #0000ff; stroke-width: 1.5"/>
     <use xlink:href="#m42505f8706" x="368.131746" y="47.505523" style="fill: #ffffff; stroke: #0000ff; stroke-width: 1.5"/>
     <use xlink:href="#m42505f8706" x="430.131746" y="174.227551" style="fill: #ffffff; stroke: #0000ff; stroke-width: 1.5"/>
     <use xlink:href="#m42505f8706" x="492.131746" y="192.546083" style="fill: #ffffff; stroke: #0000ff; stroke-width: 1.5"/>
     <use xlink:href="#m42505f8706" x="554.131746" y="196.535585" style="fill: #ffffff; stroke: #0000ff; stroke-width: 1.5"/>
     <use xlink:href="#m42505f8706" x="616.131746" y="197.984265" style="fill: #ffffff; stroke: #0000ff; stroke-width: 1.5"/>
    </g>
   </g>
   <g id="matplotlib.axis_1">
    <g id="xtick_1">
     <g id="line2d_1">
      <path d="M 89.131746 365.025523 
L 89.131746 32.385523 
" clip-path="url(#p4ea5ae35b4)" style="fill: none; stroke-dasharray: 0.8,1.32; stroke-dashoffset: 0; stroke: #b0b0b0; stroke-width: 0.8"/>
     </g>
     <g id="line2d_2">
      <defs>
       <path id="m0ae1644d3c" d="M 0 0 
L 0 3.5 
" style="stroke: #000000; stroke-width: 0.8"/>
      </defs>
      <g>
       <use xlink:href="#m0ae1644d3c" x="89.131746" y="365.025523" style="stroke: #000000; stroke-width: 0.8"/>
      </g>
     </g>
     <g id="text_1">
      <!-- $\mathdefault{−2}$ -->
      <g transform="translate(74.350391 386.633827) scale(0.24 -0.24)">
       <defs>
        <path id="CMSY10-0" d="M 4218 1472 
C 4326 1472 4442 1472 4442 1600 
C 4442 1728 4326 1728 4218 1728 
L 755 1728 
C 646 1728 531 1728 531 1600 
C 531 1472 646 1472 755 1472 
L 4218 1472 
z
" transform="scale(0.015625)"/>
        <path id="CMR17-32" d="M 2669 989 
L 2554 989 
C 2490 536 2438 459 2413 420 
C 2381 369 1920 369 1830 369 
L 602 369 
C 832 619 1280 1072 1824 1597 
C 2214 1967 2669 2402 2669 3035 
C 2669 3790 2067 4224 1395 4224 
C 691 4224 262 3604 262 3030 
C 262 2780 448 2748 525 2748 
C 589 2748 781 2787 781 3010 
C 781 3207 614 3264 525 3264 
C 486 3264 448 3258 422 3245 
C 544 3790 915 4058 1306 4058 
C 1862 4058 2227 3617 2227 3035 
C 2227 2479 1901 2000 1536 1584 
L 262 146 
L 262 0 
L 2515 0 
L 2669 989 
z
" transform="scale(0.015625)"/>
       </defs>
       <use xlink:href="#CMSY10-0" transform="scale(0.996264)"/>
       <use xlink:href="#CMR17-32" transform="translate(77.487468 0) scale(0.996264)"/>
      </g>
     </g>
    </g>
    <g id="xtick_2">
     <g id="line2d_3">
      <path d="M 228.631746 365.025523 
L 228.631746 32.385523 
" clip-path="url(#p4ea5ae35b4)" style="fill: none; stroke-dasharray: 0.8,1.32; stroke-dashoffset: 0; stroke: #b0b0b0; stroke-width: 0.8"/>
     </g>
     <g id="line2d_4">
      <g>
       <use xlink:href="#m0ae1644d3c" x="228.631746" y="365.025523" style="stroke: #000000; stroke-width: 0.8"/>
      </g>
     </g>
     <g id="text_2">
      <!-- $\mathdefault{−1}$ -->
      <g transform="translate(213.850391 386.633827) scale(0.24 -0.24)">
       <defs>
        <path id="CMR17-31" d="M 1702 4058 
C 1702 4192 1696 4192 1606 4192 
C 1357 3916 979 3827 621 3827 
C 602 3827 570 3827 563 3808 
C 557 3795 557 3782 557 3648 
C 755 3648 1088 3686 1344 3839 
L 1344 461 
C 1344 236 1331 160 781 160 
L 589 160 
L 589 0 
C 896 0 1216 0 1523 0 
C 1830 0 2150 0 2458 0 
L 2458 160 
L 2266 160 
C 1715 160 1702 230 1702 458 
L 1702 4058 
z
" transform="scale(0.015625)"/>
       </defs>
       <use xlink:href="#CMSY10-0" transform="scale(0.996264)"/>
       <use xlink:href="#CMR17-31" transform="translate(77.487468 0) scale(0.996264)"/>
      </g>
     </g>
    </g>
    <g id="xtick_3">
     <g id="line2d_5">
      <path d="M 368.131746 365.025523 
L 368.131746 32.385523 
" clip-path="url(#p4ea5ae35b4)" style="fill: none; stroke-dasharray: 0.8,1.32; stroke-dashoffset: 0; stroke: #b0b0b0; stroke-width: 0.8"/>
     </g>
     <g id="line2d_6">
      <g>
       <use xlink:href="#m0ae1644d3c" x="368.131746" y="365.025523" style="stroke: #000000; stroke-width: 0.8"/>
      </g>
     </g>
     <g id="text_3">
      <!-- $\mathdefault{0}$ -->
      <g transform="translate(362.648888 386.633827) scale(0.24 -0.24)">
       <defs>
        <path id="CMR17-30" d="M 2688 2025 
C 2688 2416 2682 3080 2413 3591 
C 2176 4039 1798 4198 1466 4198 
C 1158 4198 768 4058 525 3597 
C 269 3118 243 2524 243 2025 
C 243 1661 250 1106 448 619 
C 723 -39 1216 -128 1466 -128 
C 1760 -128 2208 -7 2470 600 
C 2662 1042 2688 1559 2688 2025 
z
M 1466 -26 
C 1056 -26 813 325 723 812 
C 653 1188 653 1738 653 2096 
C 653 2588 653 2997 736 3387 
C 858 3929 1216 4096 1466 4096 
C 1728 4096 2067 3923 2189 3400 
C 2272 3036 2278 2607 2278 2096 
C 2278 1680 2278 1169 2202 792 
C 2067 95 1690 -26 1466 -26 
z
" transform="scale(0.015625)"/>
       </defs>
       <use xlink:href="#CMR17-30" transform="scale(0.996264)"/>
      </g>
     </g>
    </g>
    <g id="xtick_4">
     <g id="line2d_7">
      <path d="M 507.631746 365.025523 
L 507.631746 32.385523 
" clip-path="url(#p4ea5ae35b4)" style="fill: none; stroke-dasharray: 0.8,1.32; stroke-dashoffset: 0; stroke: #b0b0b0; stroke-width: 0.8"/>
     </g>
     <g id="line2d_8">
      <g>
       <use xlink:href="#m0ae1644d3c" x="507.631746" y="365.025523" style="stroke: #000000; stroke-width: 0.8"/>
      </g>
     </g>
     <g id="text_4">
      <!-- $\mathdefault{1}$ -->
      <g transform="translate(502.148888 386.633827) scale(0.24 -0.24)">
       <use xlink:href="#CMR17-31" transform="scale(0.996264)"/>
      </g>
     </g>
    </g>
    <g id="xtick_5">
     <g id="line2d_9">
      <path d="M 647.131746 365.025523 
L 647.131746 32.385523 
" clip-path="url(#p4ea5ae35b4)" style="fill: none; stroke-dasharray: 0.8,1.32; stroke-dashoffset: 0; stroke: #b0b0b0; stroke-width: 0.8"/>
     </g>
     <g id="line2d_10">
      <g>
       <use xlink:href="#m0ae1644d3c" x="647.131746" y="365.025523" style="stroke: #000000; stroke-width: 0.8"/>
      </g>
     </g>
     <g id="text_5">
      <!-- $\mathdefault{2}$ -->
      <g transform="translate(641.648888 386.633827) scale(0.24 -0.24)">
       <use xlink:href="#CMR17-32" transform="scale(0.996264)"/>
      </g>
     </g>
    </g>
   </g>
   <g id="matplotlib.axis_2">
    <g id="ytick_1">
     <g id="line2d_11">
      <path d="M 61.231746 352.272001 
L 675.031746 352.272001 
" clip-path="url(#p4ea5ae35b4)" style="fill: none; stroke-dasharray: 0.8,1.32; stroke-dashoffset: 0; stroke: #b0b0b0; stroke-width: 0.8"/>
     </g>
     <g id="line2d_12">
      <defs>
       <path id="md187aac93b" d="M 0 0 
L -3.5 0 
" style="stroke: #000000; stroke-width: 0.8"/>
      </defs>
      <g>
       <use xlink:href="#md187aac93b" x="61.231746" y="352.272001" style="stroke: #000000; stroke-width: 0.8"/>
      </g>
     </g>
     <g id="text_6">
      <!-- $\mathdefault{−1.0}$ -->
      <g transform="translate(7.2 359.576153) scale(0.24 -0.24)">
       <defs>
        <path id="CMMI12-3a" d="M 1178 307 
C 1178 492 1024 619 870 619 
C 685 619 557 466 557 313 
C 557 128 710 0 864 0 
C 1050 0 1178 153 1178 307 
z
" transform="scale(0.015625)"/>
       </defs>
       <use xlink:href="#CMSY10-0" transform="scale(0.996264)"/>
       <use xlink:href="#CMR17-31" transform="translate(77.487468 0) scale(0.996264)"/>
       <use xlink:href="#CMMI12-3a" transform="translate(123.177945 0) scale(0.996264)"/>
       <use xlink:href="#CMR17-30" transform="translate(150.275122 0) scale(0.996264)"/>
      </g>
     </g>
    </g>
    <g id="ytick_2">
     <g id="line2d_13">
      <path d="M 61.231746 276.080381 
L 675.031746 276.080381 
" clip-path="url(#p4ea5ae35b4)" style="fill: none; stroke-dasharray: 0.8,1.32; stroke-dashoffset: 0; stroke: #b0b0b0; stroke-width: 0.8"/>
     </g>
     <g id="line2d_14">
      <g>
       <use xlink:href="#md187aac93b" x="61.231746" y="276.080381" style="stroke: #000000; stroke-width: 0.8"/>
      </g>
     </g>
     <g id="text_7">
      <!-- $\mathdefault{−0.5}$ -->
      <g transform="translate(7.2 283.384534) scale(0.24 -0.24)">
       <defs>
        <path id="CMR17-35" d="M 730 3692 
C 794 3666 1056 3584 1325 3584 
C 1920 3584 2246 3911 2432 4100 
C 2432 4157 2432 4192 2394 4192 
C 2387 4192 2374 4192 2323 4163 
C 2099 4058 1837 3973 1517 3973 
C 1325 3973 1037 3999 723 4139 
C 653 4171 640 4171 634 4171 
C 602 4171 595 4164 595 4037 
L 595 2203 
C 595 2089 595 2057 659 2057 
C 691 2057 704 2070 736 2114 
C 941 2401 1222 2522 1542 2522 
C 1766 2522 2246 2382 2246 1289 
C 2246 1085 2246 715 2054 421 
C 1894 159 1645 25 1370 25 
C 947 25 518 320 403 814 
C 429 807 480 795 506 795 
C 589 795 749 840 749 1038 
C 749 1210 627 1280 506 1280 
C 358 1280 262 1190 262 1011 
C 262 454 704 -128 1382 -128 
C 2042 -128 2669 440 2669 1264 
C 2669 2030 2170 2624 1549 2624 
C 1222 2624 947 2503 730 2274 
L 730 3692 
z
" transform="scale(0.015625)"/>
       </defs>
       <use xlink:href="#CMSY10-0" transform="scale(0.996264)"/>
       <use xlink:href="#CMR17-30" transform="translate(77.487468 0) scale(0.996264)"/>
       <use xlink:href="#CMMI12-3a" transform="translate(123.177945 0) scale(0.996264)"/>
       <use xlink:href="#CMR17-35" transform="translate(150.275122 0) scale(0.996264)"/>
      </g>
     </g>
    </g>
    <g id="ytick_3">
     <g id="line2d_15">
      <path d="M 61.231746 199.888762 
L 675.031746 199.888762 
" clip-path="url(#p4ea5ae35b4)" style="fill: none; stroke-dasharray: 0.8,1.32; stroke-dashoffset: 0; stroke: #b0b0b0; stroke-width: 0.8"/>
     </g>
     <g id="line2d_16">
      <g>
       <use xlink:href="#md187aac93b" x="61.231746" y="199.888762" style="stroke: #000000; stroke-width: 0.8"/>
      </g>
     </g>
     <g id="text_8">
      <!-- $\mathdefault{0.0}$ -->
      <g transform="translate(25.796994 207.192914) scale(0.24 -0.24)">
       <use xlink:href="#CMR17-30" transform="scale(0.996264)"/>
       <use xlink:href="#CMMI12-3a" transform="translate(45.690477 0) scale(0.996264)"/>
       <use xlink:href="#CMR17-30" transform="translate(72.787654 0) scale(0.996264)"/>
      </g>
     </g>
    </g>
    <g id="ytick_4">
     <g id="line2d_17">
      <path d="M 61.231746 123.697142 
L 675.031746 123.697142 
" clip-path="url(#p4ea5ae35b4)" style="fill: none; stroke-dasharray: 0.8,1.32; stroke-dashoffset: 0; stroke: #b0b0b0; stroke-width: 0.8"/>
     </g>
     <g id="line2d_18">
      <g>
       <use xlink:href="#md187aac93b" x="61.231746" y="123.697142" style="stroke: #000000; stroke-width: 0.8"/>
      </g>
     </g>
     <g id="text_9">
      <!-- $\mathdefault{0.5}$ -->
      <g transform="translate(25.796994 131.001295) scale(0.24 -0.24)">
       <use xlink:href="#CMR17-30" transform="scale(0.996264)"/>
       <use xlink:href="#CMMI12-3a" transform="translate(45.690477 0) scale(0.996264)"/>
       <use xlink:href="#CMR17-35" transform="translate(72.787654 0) scale(0.996264)"/>
      </g>
     </g>
    </g>
    <g id="ytick_5">
     <g id="line2d_19">
      <path d="M 61.231746 47.505523 
L 675.031746 47.505523 
" clip-path="url(#p4ea5ae35b4)" style="fill: none; stroke-dasharray: 0.8,1.32; stroke-dashoffset: 0; stroke: #b0b0b0; stroke-width: 0.8"/>
     </g>
     <g id="line2d_20">
      <g>
       <use xlink:href="#md187aac93b" x="61.231746" y="47.505523" style="stroke: #000000; stroke-width: 0.8"/>
      </g>
     </g>
     <g id="text_10">
      <!-- $\mathdefault{1.0}$ -->
      <g transform="translate(25.796994 54.809675) scale(0.24 -0.24)">
       <use xlink:href="#CMR17-31" transform="scale(0.996264)"/>
       <use xlink:href="#CMMI12-3a" transform="translate(45.690477 0) scale(0.996264)"/>
       <use xlink:href="#CMR17-30" transform="translate(72.787654 0) scale(0.996264)"/>
      </g>
     </g>
    </g>
   </g>
   <g id="line2d_21">
    <path d="M 89.131746 198.380017 
L 129.388259 197.835749 
L 159.580643 197.20949 
L 183.063609 196.502484 
L 202.073629 195.7053 
L 217.72894 194.819548 
L 230.029541 193.913302 
L 241.211906 192.864646 
L 250.157798 191.81755 
L 257.985453 190.701234 
L 264.694872 189.554139 
L 271.404291 188.184648 
L 276.995473 186.831339 
L 282.586655 185.238171 
L 287.059601 183.752864 
L 291.532547 182.040527 
L 296.005493 180.055214 
L 299.360202 178.353171 
L 302.714912 176.436413 
L 306.069621 174.270266 
L 309.424331 171.813622 
L 312.77904 169.01776 
L 316.13375 165.825071 
L 318.370223 163.443134 
L 320.606695 160.832107 
L 322.843168 157.966834 
L 325.079641 154.81983 
L 327.316114 151.361418 
L 329.552587 147.560081 
L 331.78906 143.383144 
L 334.025533 138.797926 
L 336.262006 133.773562 
L 338.498479 128.283728 
L 340.734952 122.310554 
L 342.971425 115.850013 
L 346.326134 105.290197 
L 349.680844 93.871794 
L 356.390263 70.433117 
L 358.626736 63.352445 
L 360.863209 57.190619 
L 361.981445 54.5673 
L 363.099681 52.306376 
L 364.217918 50.446345 
L 365.336154 49.02026 
L 366.454391 48.05432 
L 367.572627 47.566696 
L 368.690864 47.566696 
L 369.8091 48.05432 
L 370.927337 49.02026 
L 372.045573 50.446345 
L 373.16381 52.306376 
L 374.282046 54.5673 
L 375.400283 57.190619 
L 377.636756 63.352445 
L 379.873229 70.433117 
L 383.227938 82.015319 
L 388.81912 101.564116 
L 392.17383 112.441213 
L 394.410303 119.140734 
L 396.646776 125.358209 
L 398.883249 131.088199 
L 401.119722 136.342429 
L 403.356194 141.143569 
L 405.592667 145.520622 
L 407.82914 149.505641 
L 410.065613 153.131482 
L 412.302086 156.430354 
L 414.538559 159.432915 
L 416.775032 162.167774 
L 419.011505 164.661258 
L 422.366215 168.000748 
L 425.720924 170.922009 
L 429.075633 173.4859 
L 432.430343 175.743961 
L 435.785052 177.7397 
L 439.139762 179.509816 
L 443.612708 181.571812 
L 448.085653 183.347691 
L 452.558599 184.885969 
L 458.149782 186.533524 
L 463.740964 187.930876 
L 470.450383 189.34273 
L 477.159802 190.523448 
L 484.987457 191.670709 
L 493.933349 192.745098 
L 503.997477 193.722985 
L 516.298078 194.67064 
L 529.716916 195.477282 
L 546.490463 196.249125 
L 566.61872 196.936299 
L 591.219922 197.54209 
L 622.530543 198.077742 
L 647.131746 198.380017 
L 647.131746 198.380017 
" clip-path="url(#p4ea5ae35b4)" style="fill: none; stroke-dasharray: 7.4,3.2; stroke-dashoffset: 0; stroke: #ff0000; stroke-width: 2"/>
   </g>
   <g id="line2d_22">
    <path d="M 89.131746 198.380017 
L 91.368219 238.875243 
L 92.486455 256.138012 
L 93.604691 271.567725 
L 94.722928 285.275757 
L 95.841164 297.368672 
L 96.959401 307.948377 
L 98.077637 317.11228 
L 99.195874 324.953435 
L 100.31411 331.560688 
L 101.432347 337.018819 
L 102.550583 341.408683 
L 103.66882 344.807337 
L 104.787056 347.28818 
L 105.905293 348.921072 
L 107.023529 349.772466 
L 108.141766 349.905523 
L 109.260002 349.380231 
L 110.378239 348.253523 
L 111.496475 346.579384 
L 112.614712 344.408962 
L 113.732948 341.790671 
L 114.851184 338.770299 
L 117.087657 331.693896 
L 119.32413 323.497162 
L 121.560603 314.461527 
L 124.915313 299.869769 
L 136.097677 249.732708 
L 139.452387 235.951541 
L 142.807096 223.263934 
L 145.043569 215.496301 
L 147.280042 208.321112 
L 149.516515 201.760107 
L 151.752988 195.82537 
L 153.989461 190.520478 
L 156.225934 185.841559 
L 158.462407 181.778273 
L 160.69888 178.314715 
L 162.935353 175.430245 
L 165.171826 173.100254 
L 167.408299 171.296859 
L 169.644772 169.989541 
L 171.881245 169.145725 
L 174.117718 168.731309 
L 176.35419 168.71113 
L 178.590663 169.049402 
L 180.827136 169.71009 
L 183.063609 170.657252 
L 185.300082 171.855344 
L 187.536555 173.26948 
L 190.891265 175.721689 
L 194.245974 178.473792 
L 199.837156 183.450062 
L 208.783048 191.507634 
L 213.255994 195.204216 
L 216.610703 197.715263 
L 219.965413 199.950831 
L 223.320122 201.873945 
L 226.674832 203.45583 
L 228.911305 204.31016 
L 231.147778 204.998917 
L 233.384251 205.519039 
L 235.620724 205.868749 
L 237.857196 206.047476 
L 240.093669 206.055777 
L 242.330142 205.895258 
L 244.566615 205.568492 
L 246.803088 205.078942 
L 249.039561 204.430881 
L 252.394271 203.172707 
L 255.74898 201.588866 
L 259.103689 199.701687 
L 262.458399 197.535717 
L 265.813108 195.117213 
L 270.286054 191.547364 
L 274.759 187.644761 
L 280.350182 182.402305 
L 287.059601 175.750346 
L 308.306094 154.365884 
L 313.897277 149.151329 
L 319.488459 144.26939 
L 323.961405 140.646297 
L 328.434351 137.304314 
L 332.907297 134.266768 
L 337.380243 131.553191 
L 340.734952 129.740419 
L 344.089661 128.124647 
L 347.444371 126.710633 
L 350.79908 125.502332 
L 354.15379 124.502965 
L 357.508499 123.715086 
L 360.863209 123.140637 
L 364.217918 122.780997 
L 367.572627 122.637011 
L 370.927337 122.709013 
L 374.282046 122.996837 
L 377.636756 123.499809 
L 380.991465 124.216732 
L 384.346174 125.145856 
L 387.700884 126.284836 
L 391.055593 127.63068 
L 394.410303 129.179687 
L 397.765012 130.927374 
L 402.237958 133.557316 
L 406.710904 136.515562 
L 411.18385 139.783468 
L 415.656796 143.338691 
L 420.129742 147.154839 
L 425.720924 152.244677 
L 432.430343 158.727104 
L 441.376235 167.765312 
L 453.676836 180.21912 
L 459.268018 185.589968 
L 463.740964 189.633403 
L 468.21391 193.378123 
L 471.568619 195.949763 
L 474.923329 198.287093 
L 478.278038 200.362976 
L 481.632748 202.151671 
L 484.987457 203.629312 
L 488.342166 204.774429 
L 490.578639 205.343816 
L 492.815112 205.752459 
L 495.051585 205.996481 
L 497.288058 206.072853 
L 499.524531 205.979476 
L 501.761004 205.715259 
L 503.997477 205.280197 
L 506.23395 204.675457 
L 508.470423 203.903448 
L 510.706896 202.967902 
L 514.061605 201.269565 
L 517.416315 199.238705 
L 520.771024 196.906786 
L 524.125734 194.313603 
L 528.598679 190.534687 
L 535.308098 184.472319 
L 542.017517 178.473792 
L 545.372227 175.721689 
L 548.726936 173.26948 
L 550.963409 171.855344 
L 553.199882 170.657252 
L 555.436355 169.71009 
L 557.672828 169.049402 
L 559.909301 168.71113 
L 562.145774 168.731309 
L 564.382247 169.145725 
L 566.61872 169.989541 
L 568.855192 171.296859 
L 571.091665 173.100254 
L 573.328138 175.430245 
L 575.564611 178.314715 
L 577.801084 181.778273 
L 580.037557 185.841559 
L 582.27403 190.520478 
L 584.510503 195.82537 
L 586.746976 201.760107 
L 588.983449 208.321112 
L 591.219922 215.496301 
L 593.456395 223.263934 
L 596.811104 235.951541 
L 600.165814 249.732708 
L 604.63876 269.388475 
L 614.702888 314.461527 
L 616.939361 323.497162 
L 619.175834 331.693896 
L 621.412307 338.770299 
L 622.530543 341.790671 
L 623.64878 344.408962 
L 624.767016 346.579384 
L 625.885253 348.253523 
L 627.003489 349.380231 
L 628.121726 349.905523 
L 629.239962 349.772466 
L 630.358198 348.921072 
L 631.476435 347.28818 
L 632.594671 344.807337 
L 633.712908 341.408683 
L 634.831144 337.018819 
L 635.949381 331.560688 
L 637.067617 324.953435 
L 638.185854 317.11228 
L 639.30409 307.948377 
L 640.422327 297.368672 
L 641.540563 285.275757 
L 642.6588 271.567725 
L 643.777036 256.138012 
L 644.895273 238.875243 
L 646.013509 219.663073 
L 647.131746 198.380017 
L 647.131746 198.380017 
" clip-path="url(#p4ea5ae35b4)" style="fill: none; stroke: #008000; stroke-width: 2; stroke-linecap: square"/>
   </g>
   <g id="patch_3">
    <path d="M 61.231746 365.025523 
L 61.231746 32.385523 
" style="fill: none; stroke: #000000; stroke-width: 0.8; stroke-linejoin: miter; stroke-linecap: square"/>
   </g>
   <g id="patch_4">
    <path d="M 675.031746 365.025523 
L 675.031746 32.385523 
" style="fill: none; stroke: #000000; stroke-width: 0.8; stroke-linejoin: miter; stroke-linecap: square"/>
   </g>
   <g id="patch_5">
    <path d="M 61.231746 365.025523 
L 675.031746 365.025523 
" style="fill: none; stroke: #000000; stroke-width: 0.8; stroke-linejoin: miter; stroke-linecap: square"/>
   </g>
   <g id="patch_6">
    <path d="M 61.231746 32.385523 
L 675.031746 32.385523 
" style="fill: none; stroke: #000000; stroke-width: 0.8; stroke-linejoin: miter; stroke-linecap: square"/>
   </g>
   <g id="text_11">
    <!-- $N = 10, n=10$ -->
    <g transform="translate(277.794804 26.010974) scale(0.288 -0.288)">
     <defs>
      <path id="CMMI12-4e" d="M 4736 3698 
C 4806 3974 4909 4166 5395 4166 
C 5414 4166 5491 4166 5491 4279 
C 5491 4352 5434 4352 5408 4352 
C 5280 4352 4954 4352 4826 4352 
L 4518 4352 
C 4429 4352 4314 4352 4224 4352 
C 4186 4352 4109 4352 4109 4230 
C 4109 4166 4160 4166 4205 4166 
C 4589 4166 4614 4019 4614 3903 
C 4614 3846 4608 3826 4589 3737 
L 3866 850 
L 2496 4249 
C 2451 4352 2445 4352 2304 4352 
L 1523 4352 
C 1395 4352 1338 4352 1338 4230 
C 1338 4166 1382 4166 1504 4166 
C 1536 4166 1914 4166 1914 4115 
C 1914 4102 1901 4051 1894 4032 
L 1043 635 
C 966 320 813 186 390 186 
C 358 186 294 186 294 67 
C 294 0 358 0 378 0 
C 506 0 832 0 960 0 
L 1267 0 
C 1357 0 1466 0 1555 0 
C 1600 0 1670 0 1670 122 
C 1670 180 1606 186 1581 186 
C 1370 186 1165 224 1165 454 
C 1165 505 1178 562 1190 613 
L 2054 4032 
C 2093 3968 2093 3956 2118 3898 
L 3642 115 
C 3674 38 3686 0 3744 0 
C 3808 0 3814 19 3840 128 
L 4736 3698 
z
" transform="scale(0.015625)"/>
      <path id="CMR17-3d" d="M 4115 2017 
C 4211 2017 4307 2017 4307 2125 
C 4307 2240 4198 2240 4090 2240 
L 512 2240 
C 403 2240 294 2240 294 2125 
C 294 2017 390 2017 486 2017 
L 4115 2017 
z
M 4090 896 
C 4198 896 4307 896 4307 1011 
C 4307 1119 4211 1119 4115 1119 
L 486 1119 
C 390 1119 294 1119 294 1011 
C 294 896 403 896 512 896 
L 4090 896 
z
" transform="scale(0.015625)"/>
      <path id="CMMI12-3b" d="M 1248 -31 
C 1248 343 1126 619 864 619 
C 659 619 557 453 557 313 
C 557 172 653 0 870 0 
C 954 0 1024 26 1082 83 
C 1094 96 1101 96 1107 96 
C 1120 96 1120 5 1120 -27 
C 1120 -240 1082 -659 710 -1080 
C 640 -1157 640 -1170 640 -1183 
C 640 -1216 672 -1248 704 -1248 
C 755 -1248 1248 -771 1248 -31 
z
" transform="scale(0.015625)"/>
      <path id="CMMI12-6e" d="M 1318 1871 
C 1331 1910 1491 2229 1728 2433 
C 1894 2586 2112 2689 2362 2689 
C 2618 2689 2707 2497 2707 2242 
C 2707 1878 2445 1150 2317 805 
C 2259 651 2227 568 2227 453 
C 2227 166 2426 -64 2733 -64 
C 3328 -64 3552 875 3552 913 
C 3552 945 3526 971 3488 971 
C 3430 971 3424 952 3392 843 
C 3245 319 3002 64 2752 64 
C 2688 64 2586 64 2586 269 
C 2586 429 2656 621 2694 710 
C 2822 1063 3091 1780 3091 2145 
C 3091 2528 2867 2816 2381 2816 
C 1811 2816 1510 2415 1395 2255 
C 1376 2618 1114 2816 832 2816 
C 627 2816 486 2695 378 2478 
C 262 2248 173 1865 173 1839 
C 173 1814 198 1782 243 1782 
C 294 1782 301 1788 339 1935 
C 442 2325 557 2689 813 2689 
C 960 2689 1011 2586 1011 2395 
C 1011 2254 947 2005 902 1807 
L 723 1118 
C 698 996 627 709 595 594 
C 550 428 480 128 480 96 
C 480 6 550 -64 646 -64 
C 723 -64 813 -26 864 70 
C 877 102 934 326 966 453 
L 1107 1028 
L 1318 1871 
z
" transform="scale(0.015625)"/>
     </defs>
     <use xlink:href="#CMMI12-4e" transform="scale(0.996264)"/>
     <use xlink:href="#CMR17-3d" transform="translate(116.195781 0) scale(0.996264)"/>
     <use xlink:href="#CMR17-31" transform="translate(215.584578 0) scale(0.996264)"/>
     <use xlink:href="#CMR17-30" transform="translate(261.275056 0) scale(0.996264)"/>
     <use xlink:href="#CMMI12-3b" transform="translate(306.965533 0) scale(0.996264)"/>
     <use xlink:href="#CMMI12-6e" transform="translate(350.667115 0) scale(0.996264)"/>
     <use xlink:href="#CMR17-3d" transform="translate(436.571171 0) scale(0.996264)"/>
     <use xlink:href="#CMR17-31" transform="translate(535.959968 0) scale(0.996264)"/>
     <use xlink:href="#CMR17-30" transform="translate(581.650445 0) scale(0.996264)"/>
    </g>
   </g>
   <g id="legend_1">
    <g id="patch_7">
     <path d="M 281.253398 353.025523 
L 455.010093 353.025523 
Q 459.810093 353.025523 459.810093 348.225523 
L 459.810093 204.808344 
Q 459.810093 200.008344 455.010093 200.008344 
L 281.253398 200.008344 
Q 276.453398 200.008344 276.453398 204.808344 
L 276.453398 348.225523 
Q 276.453398 353.025523 281.253398 353.025523 
z
" style="fill: #ffffff; opacity: 0.8; stroke: #cccccc; stroke-linejoin: miter"/>
    </g>
    <g id="line2d_23">
     <path d="M 286.053398 221.408777 
L 310.053398 221.408777 
L 334.053398 221.408777 
" style="fill: none; stroke-dasharray: 7.4,3.2; stroke-dashoffset: 0; stroke: #ff0000; stroke-width: 2"/>
    </g>
    <g id="text_12">
     <!-- $y=\frac 1{1+25x^2}$ -->
     <g transform="translate(353.253398 229.808777) scale(0.24 -0.24)">
      <defs>
       <path id="CMMI12-79" d="M 1683 -700 
C 1510 -939 1261 -1152 947 -1152 
C 870 -1152 563 -1152 467 -889 
C 486 -895 518 -895 531 -895 
C 723 -895 851 -729 851 -582 
C 851 -435 730 -384 634 -384 
C 531 -384 307 -458 307 -759 
C 307 -1071 582 -1286 947 -1286 
C 1587 -1286 2234 -700 2413 6 
L 3040 2485 
C 3046 2517 3059 2556 3059 2594 
C 3059 2689 2982 2753 2886 2753 
C 2829 2753 2694 2727 2643 2535 
L 2170 658 
C 2138 543 2138 530 2086 460 
C 1958 281 1747 64 1440 64 
C 1082 64 1050 415 1050 588 
C 1050 952 1222 1443 1395 1903 
C 1466 2088 1504 2178 1504 2305 
C 1504 2574 1312 2816 998 2816 
C 410 2816 173 1890 173 1839 
C 173 1814 198 1782 243 1782 
C 301 1782 307 1807 333 1897 
C 486 2433 730 2689 979 2689 
C 1037 2689 1146 2689 1146 2478 
C 1146 2312 1075 2127 979 1884 
C 666 1047 666 837 666 683 
C 666 77 1101 -64 1421 -64 
C 1606 -64 1837 -6 2061 230 
L 2067 224 
C 1971 -147 1907 -392 1683 -700 
z
" transform="scale(0.015625)"/>
       <path id="CMR17-2b" d="M 2413 1472 
L 4109 1472 
C 4198 1472 4307 1472 4307 1580 
C 4307 1695 4205 1695 4109 1695 
L 2413 1695 
L 2413 3386 
C 2413 3475 2413 3584 2304 3584 
C 2189 3584 2189 3482 2189 3386 
L 2189 1695 
L 493 1695 
C 403 1695 294 1695 294 1587 
C 294 1472 397 1472 493 1472 
L 2189 1472 
L 2189 -218 
C 2189 -307 2189 -416 2298 -416 
C 2413 -416 2413 -314 2413 -218 
L 2413 1472 
z
" transform="scale(0.015625)"/>
       <path id="CMMI12-78" d="M 3034 2606 
C 2829 2567 2752 2414 2752 2293 
C 2752 2139 2874 2088 2963 2088 
C 3155 2088 3290 2254 3290 2427 
C 3290 2695 2982 2816 2714 2816 
C 2323 2816 2106 2433 2048 2312 
C 1901 2816 1504 2816 1389 2816 
C 736 2816 390 1980 390 1839 
C 390 1814 416 1782 461 1782 
C 512 1782 525 1820 538 1846 
C 755 2555 1184 2689 1370 2689 
C 1658 2689 1715 2420 1715 2267 
C 1715 2127 1677 1980 1600 1673 
L 1382 798 
C 1286 415 1101 64 762 64 
C 730 64 570 64 435 147 
C 666 192 717 383 717 460 
C 717 588 621 664 499 664 
C 346 664 179 530 179 326 
C 179 57 480 -64 755 -64 
C 1062 -64 1280 179 1414 441 
C 1517 64 1837 -64 2074 -64 
C 2726 -64 3072 773 3072 913 
C 3072 945 3046 971 3008 971 
C 2950 971 2944 939 2925 888 
C 2752 326 2381 64 2093 64 
C 1869 64 1747 230 1747 492 
C 1747 632 1773 734 1875 1156 
L 2099 2024 
C 2195 2408 2413 2689 2707 2689 
C 2720 2689 2899 2689 3034 2606 
z
" transform="scale(0.015625)"/>
      </defs>
      <use xlink:href="#CMMI12-79" transform="scale(0.996264)"/>
      <use xlink:href="#CMR17-3d" transform="translate(78.812789 0) scale(0.996264)"/>
      <use xlink:href="#CMR17-31" transform="translate(267.553863 39.226102) scale(0.697382)"/>
      <use xlink:href="#CMR17-31" transform="translate(179.3971 -34.355253) scale(0.697382)"/>
      <use xlink:href="#CMR17-2b" transform="translate(211.380282 -34.355253) scale(0.697382)"/>
      <use xlink:href="#CMR17-32" transform="translate(261.580414 -34.355253) scale(0.697382)"/>
      <use xlink:href="#CMR17-35" transform="translate(293.563596 -34.355253) scale(0.697382)"/>
      <use xlink:href="#CMMI12-78" transform="translate(325.546778 -34.355253) scale(0.697382)"/>
      <use xlink:href="#CMR17-32" transform="translate(364.350437 -14.20868) scale(0.498132)"/>
      <path d="M 179.3971 22.914133 
L 387.693808 22.914133 
L 387.693808 26.899083 
L 179.3971 26.899083 
L 179.3971 22.914133 
z
"/>
     </g>
    </g>
    <g id="PathCollection_3">
     <g>
      <use xlink:href="#mfbc0df0d18" x="310.053398" y="261.832496" style="fill: #0000ff; stroke: #0000ff"/>
     </g>
    </g>
    <g id="text_13">
     <!-- train -->
     <g transform="translate(353.253398 268.132496) scale(0.24 -0.24)">
      <defs>
       <path id="SFTT3583-74" d="M 960 2752 
L 486 2752 
C 442 2752 397 2752 352 2752 
C 224 2752 147 2709 147 2602 
C 147 2483 237 2459 320 2459 
L 960 2459 
L 960 637 
C 998 242 1261 -32 1683 -32 
C 2125 -32 2669 191 2669 751 
L 2669 898 
C 2669 993 2624 1076 2515 1076 
C 2413 1076 2362 1006 2362 904 
L 2362 783 
C 2362 407 2080 261 1786 261 
C 1370 261 1267 535 1267 809 
L 1267 2459 
L 2227 2459 
C 2259 2459 2304 2459 2342 2459 
C 2451 2459 2534 2490 2534 2627 
C 2534 2739 2432 2752 2355 2752 
L 1267 2752 
L 1267 3351 
C 1267 3439 1235 3520 1120 3520 
C 1011 3520 954 3451 954 3333 
C 954 3290 960 3239 960 3201 
L 960 2752 
z
" transform="scale(0.015625)"/>
       <path id="SFTT3583-72" d="M 1274 2100 
L 1267 2599 
C 1267 2707 1210 2752 1101 2752 
L 486 2752 
C 384 2752 320 2714 320 2605 
C 320 2497 390 2459 499 2459 
L 960 2459 
L 960 293 
L 486 293 
C 378 293 320 236 320 147 
C 320 51 378 0 480 0 
L 1952 0 
C 2029 13 2067 77 2067 147 
C 2067 242 2016 293 1894 293 
L 1267 293 
L 1267 1232 
C 1267 1845 1632 2496 2336 2496 
L 2426 2496 
C 2598 2496 2509 2318 2714 2318 
C 2810 2318 2893 2393 2893 2494 
C 2893 2751 2573 2789 2362 2789 
L 2298 2789 
C 1882 2789 1408 2473 1274 2100 
z
" transform="scale(0.015625)"/>
       <path id="SFTT3583-61" d="M 2093 1625 
C 1472 1625 365 1490 365 716 
C 365 294 717 -32 1158 -32 
C 1498 -32 1882 77 2112 326 
C 2144 114 2349 -32 2554 -32 
C 2842 -32 3078 194 3078 490 
L 3078 580 
C 3078 613 3085 652 3085 691 
C 3085 789 3027 861 2925 861 
C 2829 861 2771 795 2771 704 
L 2771 665 
C 2771 619 2778 574 2778 528 
C 2778 410 2714 267 2586 267 
C 2470 267 2400 377 2400 506 
L 2400 1938 
C 2355 2462 1888 2816 1376 2816 
C 1037 2816 544 2646 544 2216 
C 544 2096 627 2026 730 2026 
C 838 2026 909 2108 909 2208 
L 909 2234 
C 902 2252 890 2277 890 2303 
L 890 2316 
C 934 2473 1248 2523 1370 2523 
C 1632 2523 1888 2397 2016 2158 
C 2086 2026 2093 1882 2093 1744 
L 2093 1625 
z
M 2093 1408 
L 2093 870 
C 2093 434 1702 261 1299 261 
C 1037 261 672 389 672 723 
C 672 1113 1171 1286 1478 1351 
C 1683 1389 1888 1408 2093 1408 
z
" transform="scale(0.015625)"/>
       <path id="SFTT3583-69" d="M 1478 2432 
L 1478 293 
L 813 293 
C 691 293 621 249 621 147 
C 621 77 659 13 736 0 
L 2394 0 
C 2490 0 2554 38 2554 144 
C 2554 249 2470 293 2368 293 
C 2323 293 2278 293 2240 293 
L 1786 293 
L 1786 2548 
C 1786 2713 1715 2732 1613 2732 
L 864 2732 
C 774 2732 666 2719 666 2585 
C 666 2471 749 2432 858 2432 
C 902 2432 954 2432 998 2432 
L 1478 2432 
z
M 1549 3898 
C 1523 3898 1498 3885 1472 3872 
L 1414 3814 
C 1389 3782 1382 3743 1382 3705 
C 1382 3602 1466 3499 1581 3499 
C 1619 3499 1658 3512 1696 3531 
L 1754 3589 
C 1779 3621 1786 3660 1786 3698 
C 1786 3801 1702 3904 1587 3904 
C 1574 3904 1562 3898 1549 3898 
z
" transform="scale(0.015625)"/>
       <path id="SFTT3583-6e" d="M 941 2312 
L 934 2573 
C 934 2688 902 2752 774 2752 
L 346 2752 
C 250 2752 173 2707 173 2605 
C 173 2503 250 2459 352 2459 
L 627 2459 
L 627 293 
L 333 293 
C 237 293 173 236 173 147 
C 173 39 256 0 352 0 
L 1203 0 
C 1299 0 1382 32 1382 147 
C 1382 236 1331 293 1229 293 
L 934 293 
L 934 1641 
C 960 2037 1178 2496 1619 2496 
C 2061 2496 2176 2189 2176 1819 
L 2176 293 
L 1882 293 
C 1786 293 1722 236 1722 147 
C 1722 39 1805 0 1901 0 
L 2752 0 
C 2848 0 2931 32 2931 147 
C 2931 236 2880 293 2778 293 
L 2483 293 
L 2483 1864 
C 2483 2291 2355 2789 1734 2789 
C 1414 2789 1082 2619 941 2312 
z
" transform="scale(0.015625)"/>
      </defs>
      <use xlink:href="#SFTT3583-74" transform="scale(0.996264)"/>
      <use xlink:href="#SFTT3583-72" transform="translate(48.495008 0) scale(0.996264)"/>
      <use xlink:href="#SFTT3583-61" transform="translate(96.990017 0) scale(0.996264)"/>
      <use xlink:href="#SFTT3583-69" transform="translate(145.485025 0) scale(0.996264)"/>
      <use xlink:href="#SFTT3583-6e" transform="translate(193.980033 0) scale(0.996264)"/>
     </g>
    </g>
    <g id="PathCollection_4">
     <g>
      <use xlink:href="#m42505f8706" x="310.053398" y="295.944607" style="fill: #ffffff; stroke: #0000ff; stroke-width: 1.5"/>
     </g>
    </g>
    <g id="text_14">
     <!-- test -->
     <g transform="translate(353.253398 302.244607) scale(0.24 -0.24)">
      <defs>
       <path id="SFTT3583-65" d="M 691 1287 
L 2573 1287 
C 2675 1287 2733 1338 2733 1447 
L 2733 1511 
C 2733 2163 2362 2816 1606 2816 
C 858 2816 378 2098 378 1405 
C 378 743 806 38 1606 -32 
L 1683 -32 
C 2106 -32 2592 208 2714 632 
C 2720 656 2726 682 2726 707 
C 2726 789 2662 827 2573 827 
C 2413 827 2419 689 2368 601 
C 2240 393 2003 261 1754 261 
C 1210 261 691 758 691 1287 
z
M 691 1536 
C 710 1620 717 1702 742 1786 
C 864 2177 1184 2516 1619 2516 
C 2157 2516 2419 2023 2419 1536 
L 691 1536 
z
" transform="scale(0.015625)"/>
       <path id="SFTT3583-73" d="M 730 350 
C 966 82 1254 -32 1587 -32 
C 2061 -32 2720 133 2720 777 
C 2720 1503 1830 1586 1434 1656 
C 1274 1681 723 1752 723 2089 
C 723 2516 1376 2516 1536 2516 
C 1837 2516 2170 2389 2221 2056 
C 2253 1955 2202 1809 2362 1809 
L 2413 1809 
C 2515 1809 2554 1854 2554 1943 
C 2554 1975 2547 2013 2547 2039 
L 2547 2676 
C 2547 2758 2528 2816 2438 2816 
C 2330 2816 2291 2669 2278 2580 
C 2189 2637 2112 2701 2010 2739 
C 1862 2797 1702 2816 1549 2816 
C 1050 2816 429 2660 429 2105 
C 429 1355 1638 1355 2048 1203 
C 2234 1136 2426 990 2426 790 
L 2426 758 
C 2368 344 1933 261 1613 261 
C 1210 261 922 465 774 923 
C 749 1051 742 1159 602 1159 
L 563 1159 
C 474 1159 422 1134 422 993 
C 422 936 429 885 429 834 
L 429 114 
C 429 38 442 -32 538 -32 
C 666 -32 698 216 730 350 
z
" transform="scale(0.015625)"/>
      </defs>
      <use xlink:href="#SFTT3583-74" transform="scale(0.996264)"/>
      <use xlink:href="#SFTT3583-65" transform="translate(48.495008 0) scale(0.996264)"/>
      <use xlink:href="#SFTT3583-73" transform="translate(96.990017 0) scale(0.996264)"/>
      <use xlink:href="#SFTT3583-74" transform="translate(145.485025 0) scale(0.996264)"/>
     </g>
    </g>
    <g id="line2d_24">
     <path d="M 286.053398 329.067944 
L 310.053398 329.067944 
L 334.053398 329.067944 
" style="fill: none; stroke: #008000; stroke-width: 2; stroke-linecap: square"/>
    </g>
    <g id="text_15">
     <!-- $f_\theta(x)$ -->
     <g transform="translate(353.253398 337.467944) scale(0.24 -0.24)">
      <defs>
       <path id="CMMI12-66" d="M 2854 2566 
C 2982 2566 3034 2566 3034 2688 
C 3034 2752 2982 2752 2867 2752 
L 2349 2752 
C 2470 3429 2560 3897 2611 4107 
C 2650 4265 2784 4416 2950 4416 
C 3085 4416 3219 4358 3283 4298 
C 3034 4272 2957 4082 2957 3969 
C 2957 3837 3053 3759 3174 3759 
C 3302 3759 3494 3870 3494 4119 
C 3494 4393 3226 4544 2944 4544 
C 2669 4544 2400 4334 2272 4078 
C 2157 3848 2093 3611 1946 2752 
L 1517 2752 
C 1395 2752 1331 2752 1331 2637 
C 1331 2566 1370 2566 1498 2566 
L 1907 2566 
C 1792 1976 1530 542 1382 -137 
C 1274 -689 1178 -1152 858 -1152 
C 838 -1152 653 -1152 538 -1031 
C 864 -1005 864 -726 864 -720 
C 864 -593 768 -517 646 -517 
C 518 -517 326 -625 326 -867 
C 326 -1140 608 -1280 858 -1280 
C 1510 -1280 1779 -118 1850 199 
C 1965 688 2278 2376 2310 2566 
L 2854 2566 
z
" transform="scale(0.015625)"/>
       <path id="CMMI12-12" d="M 2835 3200 
C 2835 3850 2630 4480 2106 4480 
C 1210 4480 256 2615 256 1216 
C 256 923 320 -64 992 -64 
C 1862 -64 2835 1756 2835 3200 
z
M 896 2304 
C 992 2679 1126 3214 1382 3665 
C 1594 4047 1818 4352 2099 4352 
C 2310 4352 2451 4174 2451 3564 
C 2451 3334 2432 3017 2246 2304 
L 896 2304 
z
M 2202 2113 
C 2042 1490 1907 1088 1677 687 
C 1491 363 1267 64 998 64 
C 800 64 640 217 640 846 
C 640 1260 742 1693 845 2113 
L 2202 2113 
z
" transform="scale(0.015625)"/>
       <path id="CMR17-28" d="M 1958 -1561 
C 1958 -1555 1958 -1542 1939 -1523 
C 1645 -1224 858 -407 858 1581 
C 858 3569 1632 4379 1946 4697 
C 1946 4704 1958 4717 1958 4736 
C 1958 4755 1939 4768 1914 4768 
C 1843 4768 1299 4296 986 3594 
C 666 2887 576 2199 576 1588 
C 576 1128 621 351 1005 -471 
C 1312 -1135 1837 -1600 1914 -1600 
C 1946 -1600 1958 -1587 1958 -1561 
z
" transform="scale(0.015625)"/>
       <path id="CMR17-29" d="M 1683 1581 
C 1683 2040 1638 2817 1254 3639 
C 947 4303 422 4768 346 4768 
C 326 4768 301 4761 301 4729 
C 301 4717 307 4710 314 4697 
C 621 4378 1402 3568 1402 1584 
C 1402 -407 627 -1217 314 -1537 
C 307 -1549 301 -1556 301 -1568 
C 301 -1600 326 -1600 346 -1600 
C 416 -1600 960 -1128 1274 -426 
C 1594 281 1683 969 1683 1581 
z
" transform="scale(0.015625)"/>
      </defs>
      <use xlink:href="#CMMI12-66" transform="scale(0.996264)"/>
      <use xlink:href="#CMMI12-12" transform="translate(48.083238 -14.943915) scale(0.697382)"/>
      <use xlink:href="#CMR17-28" transform="translate(82.299865 0) scale(0.996264)"/>
      <use xlink:href="#CMMI12-78" transform="translate(117.580633 0) scale(0.996264)"/>
      <use xlink:href="#CMR17-29" transform="translate(173.014693 0) scale(0.996264)"/>
     </g>
    </g>
   </g>
  </g>
 </g>
 <defs>
  <clipPath id="p4ea5ae35b4">
   <rect x="61.231746" y="32.385523" width="613.8" height="332.64"/>
  </clipPath>
 </defs>
</svg>