<?xml version="1.0" encoding="utf-8" standalone="no"?>
<!DOCTYPE svg PUBLIC "-//W3C//DTD SVG 1.1//EN"
  "http://www.w3.org/Graphics/SVG/1.1/DTD/svg11.dtd">
<svg xmlns:xlink="http://www.w3.org/1999/xlink" width="641.504174pt" height="356.32188pt" viewBox="0 0 641.504174 356.32188" xmlns="http://www.w3.org/2000/svg" version="1.1">
 <metadata>
  <rdf:RDF xmlns:dc="http://purl.org/dc/elements/1.1/" xmlns:cc="http://creativecommons.org/ns#" xmlns:rdf="http://www.w3.org/1999/02/22-rdf-syntax-ns#">
   <cc:Work>
    <dc:type rdf:resource="http://purl.org/dc/dcmitype/StillImage"/>
    <dc:date>2024-11-14T10:08:39.534831</dc:date>
    <dc:format>image/svg+xml</dc:format>
    <dc:creator>
     <cc:Agent>
      <dc:title>Matplotlib v3.7.1, https://matplotlib.org/</dc:title>
     </cc:Agent>
    </dc:creator>
   </cc:Work>
  </rdf:RDF>
 </metadata>
 <defs>
  <style type="text/css">*{stroke-linejoin: round; stroke-linecap: butt}</style>
 </defs>
 <g id="figure_1">
  <g id="patch_1">
   <path d="M 0 356.32188 
L 641.504174 356.32188 
L 641.504174 0 
L 0 0 
z
" style="fill: #ffffff"/>
  </g>
  <g id="axes_1">
   <g id="patch_2">
    <path d="M 7.2 346.528305 
L 621 346.528305 
L 621 13.888305 
L 7.2 13.888305 
z
" style="fill: #ffffff"/>
   </g>
   <g id="matplotlib.axis_1">
    <g id="xtick_1">
     <g id="line2d_1">
      <path d="M 19.003846 346.528305 
L 19.003846 13.888305 
" clip-path="url(#p6fc1e3858b)" style="fill: none; stroke-dasharray: 0.8,1.32; stroke-dashoffset: 0; stroke: #b0b0b0; stroke-width: 0.8"/>
     </g>
     <g id="line2d_2">
      <defs>
       <path id="m57364615eb" d="M 0 0 
L 0 3.5 
" style="stroke: #000000; stroke-width: 0.8"/>
      </defs>
      <g>
       <use xlink:href="#m57364615eb" x="19.003846" y="180.208305" style="stroke: #000000; stroke-width: 0.8"/>
      </g>
     </g>
     <g id="text_1">
      <!-- -5 -->
      <g transform="translate(9.006622 199.381907) scale(0.2 -0.2)">
       <defs>
        <path id="SFTT3583-2d" d="M 614 1496 
C 550 1478 518 1422 518 1359 
C 518 1272 563 1216 678 1216 
L 2432 1216 
C 2534 1216 2598 1260 2598 1356 
C 2598 1426 2554 1496 2483 1509 
L 838 1509 
C 800 1509 755 1509 710 1509 
C 678 1509 646 1503 614 1496 
z
" transform="scale(0.015625)"/>
        <path id="SFTT3583-35" d="M 877 2254 
L 877 3611 
L 2445 3611 
C 2541 3611 2592 3655 2592 3777 
C 2586 3853 2541 3904 2438 3904 
L 742 3904 
C 653 3904 621 3891 570 3789 
L 570 1964 
C 570 1881 576 1779 717 1779 
C 851 1779 877 1887 960 1957 
C 1146 2121 1389 2203 1645 2203 
C 2170 2203 2490 1703 2490 1228 
C 2490 640 2003 229 1478 229 
C 1158 229 787 412 666 735 
C 653 760 640 792 640 817 
C 640 862 678 906 678 956 
C 678 1058 602 1140 499 1140 
C 390 1140 314 1064 314 924 
C 314 309 960 -64 1491 -64 
C 2150 -64 2797 436 2797 1222 
C 2797 1849 2387 2496 1651 2496 
C 1382 2496 1094 2426 877 2254 
z
" transform="scale(0.015625)"/>
       </defs>
       <use xlink:href="#SFTT3583-2d" transform="scale(0.996264)"/>
       <use xlink:href="#SFTT3583-35" transform="translate(48.495008 0) scale(0.996264)"/>
      </g>
     </g>
    </g>
    <g id="xtick_2">
     <g id="line2d_3">
      <path d="M 78.023077 346.528305 
L 78.023077 13.888305 
" clip-path="url(#p6fc1e3858b)" style="fill: none; stroke-dasharray: 0.8,1.32; stroke-dashoffset: 0; stroke: #b0b0b0; stroke-width: 0.8"/>
     </g>
     <g id="line2d_4">
      <g>
       <use xlink:href="#m57364615eb" x="78.023077" y="180.208305" style="stroke: #000000; stroke-width: 0.8"/>
      </g>
     </g>
     <g id="text_2">
      <!-- -4 -->
      <g transform="translate(68.025853 199.381907) scale(0.2 -0.2)">
       <defs>
        <path id="SFTT3583-34" d="M 1952 1088 
L 1952 293 
L 1510 293 
C 1421 293 1344 249 1344 147 
C 1344 51 1408 0 1498 0 
L 2688 0 
C 2765 7 2803 77 2803 147 
C 2803 230 2765 293 2643 293 
L 2202 293 
L 2202 1088 
L 2771 1088 
C 2867 1088 2938 1127 2938 1235 
C 2938 1330 2867 1388 2752 1388 
C 2707 1388 2662 1388 2624 1388 
L 2202 1388 
L 2202 3828 
C 2202 3917 2182 4000 2035 4000 
L 1875 4000 
C 1747 4000 1722 3949 1677 3872 
L 1536 3643 
C 1184 3057 832 2477 480 1891 
L 262 1534 
C 224 1471 173 1407 173 1324 
L 173 1254 
C 173 1114 250 1088 352 1088 
L 1952 1088 
z
M 499 1388 
L 1946 3783 
L 1946 1388 
L 499 1388 
z
" transform="scale(0.015625)"/>
       </defs>
       <use xlink:href="#SFTT3583-2d" transform="scale(0.996264)"/>
       <use xlink:href="#SFTT3583-34" transform="translate(48.495008 0) scale(0.996264)"/>
      </g>
     </g>
    </g>
    <g id="xtick_3">
     <g id="line2d_5">
      <path d="M 137.042308 346.528305 
L 137.042308 13.888305 
" clip-path="url(#p6fc1e3858b)" style="fill: none; stroke-dasharray: 0.8,1.32; stroke-dashoffset: 0; stroke: #b0b0b0; stroke-width: 0.8"/>
     </g>
     <g id="line2d_6">
      <g>
       <use xlink:href="#m57364615eb" x="137.042308" y="180.208305" style="stroke: #000000; stroke-width: 0.8"/>
      </g>
     </g>
     <g id="text_3">
      <!-- -3 -->
      <g transform="translate(127.045084 199.381907) scale(0.2 -0.2)">
       <defs>
        <path id="SFTT3583-33" d="M 2010 2121 
C 2368 2319 2682 2632 2682 3144 
L 2682 3201 
C 2637 3743 2067 4005 1587 4005 
C 1178 4005 691 3839 506 3456 
C 461 3373 422 3271 422 3168 
C 422 3041 499 2945 614 2945 
C 717 2945 794 3028 794 3124 
C 794 3175 762 3220 762 3265 
C 774 3444 1018 3578 1178 3641 
C 1306 3686 1446 3712 1587 3712 
C 1933 3712 2374 3526 2374 3136 
C 2374 2740 2054 2402 1677 2325 
C 1414 2268 1037 2370 1037 2152 
L 1037 2114 
C 1037 1993 1107 1980 1184 1980 
L 1210 1980 
C 1306 1980 1408 1980 1504 1980 
C 1574 1980 1651 1973 1722 1967 
C 2150 1922 2547 1553 2547 1114 
L 2547 1063 
C 2515 585 2086 229 1587 229 
C 1210 229 749 408 608 772 
C 602 798 582 829 582 861 
C 582 912 621 944 621 1001 
C 621 1104 538 1187 442 1187 
C 307 1187 256 1079 256 963 
C 256 255 1069 -64 1587 -64 
C 2208 -64 2854 376 2854 1105 
C 2854 1469 2650 1783 2330 1980 
C 2234 2044 2125 2102 2010 2121 
z
" transform="scale(0.015625)"/>
       </defs>
       <use xlink:href="#SFTT3583-2d" transform="scale(0.996264)"/>
       <use xlink:href="#SFTT3583-33" transform="translate(48.495008 0) scale(0.996264)"/>
      </g>
     </g>
    </g>
    <g id="xtick_4">
     <g id="line2d_7">
      <path d="M 196.061538 346.528305 
L 196.061538 13.888305 
" clip-path="url(#p6fc1e3858b)" style="fill: none; stroke-dasharray: 0.8,1.32; stroke-dashoffset: 0; stroke: #b0b0b0; stroke-width: 0.8"/>
     </g>
     <g id="line2d_8">
      <g>
       <use xlink:href="#m57364615eb" x="196.061538" y="180.208305" style="stroke: #000000; stroke-width: 0.8"/>
      </g>
     </g>
     <g id="text_4">
      <!-- -2 -->
      <g transform="translate(186.064314 199.381907) scale(0.2 -0.2)">
       <defs>
        <path id="SFTT3583-32" d="M 2490 293 
L 794 293 
C 1133 611 1478 923 1830 1234 
C 2285 1641 2797 2092 2797 2767 
C 2797 3395 2304 3968 1485 3968 
C 947 3968 314 3561 314 2785 
C 314 2657 397 2587 499 2587 
C 589 2587 678 2651 678 2778 
C 678 2836 640 2880 640 2931 
L 640 2950 
C 691 3344 998 3675 1414 3675 
C 1920 3675 2406 3394 2490 2822 
L 2490 2771 
C 2490 2047 1766 1544 1344 1157 
C 1030 871 717 592 416 305 
C 365 254 314 229 314 141 
C 314 13 410 0 486 0 
L 2643 0 
C 2733 0 2797 39 2797 134 
L 2797 369 
C 2797 458 2771 547 2650 547 
C 2541 547 2490 477 2490 363 
L 2490 293 
z
" transform="scale(0.015625)"/>
       </defs>
       <use xlink:href="#SFTT3583-2d" transform="scale(0.996264)"/>
       <use xlink:href="#SFTT3583-32" transform="translate(48.495008 0) scale(0.996264)"/>
      </g>
     </g>
    </g>
    <g id="xtick_5">
     <g id="line2d_9">
      <path d="M 255.080769 346.528305 
L 255.080769 13.888305 
" clip-path="url(#p6fc1e3858b)" style="fill: none; stroke-dasharray: 0.8,1.32; stroke-dashoffset: 0; stroke: #b0b0b0; stroke-width: 0.8"/>
     </g>
     <g id="line2d_10">
      <g>
       <use xlink:href="#m57364615eb" x="255.080769" y="180.208305" style="stroke: #000000; stroke-width: 0.8"/>
      </g>
     </g>
     <g id="text_5">
      <!-- -1 -->
      <g transform="translate(245.083545 199.381907) scale(0.2 -0.2)">
       <defs>
        <path id="SFTT3583-31" d="M 1485 3256 
L 1485 293 
L 1018 293 
C 979 293 934 293 890 293 
C 768 293 710 236 710 144 
C 710 75 749 13 819 0 
L 2406 0 
C 2509 0 2573 44 2573 138 
C 2573 243 2496 293 2381 293 
C 2336 293 2291 293 2253 293 
L 1792 293 
L 1792 3802 
C 1792 3878 1760 3968 1664 3968 
C 1530 3968 1510 3805 1453 3705 
C 1338 3493 1165 3263 896 3213 
C 787 3200 672 3200 672 3051 
C 672 2944 749 2913 826 2913 
C 1094 2913 1312 3073 1485 3256 
z
" transform="scale(0.015625)"/>
       </defs>
       <use xlink:href="#SFTT3583-2d" transform="scale(0.996264)"/>
       <use xlink:href="#SFTT3583-31" transform="translate(48.495008 0) scale(0.996264)"/>
      </g>
     </g>
    </g>
    <g id="xtick_6">
     <g id="line2d_11">
      <path d="M 373.119231 346.528305 
L 373.119231 13.888305 
" clip-path="url(#p6fc1e3858b)" style="fill: none; stroke-dasharray: 0.8,1.32; stroke-dashoffset: 0; stroke: #b0b0b0; stroke-width: 0.8"/>
     </g>
     <g id="line2d_12">
      <g>
       <use xlink:href="#m57364615eb" x="373.119231" y="180.208305" style="stroke: #000000; stroke-width: 0.8"/>
      </g>
     </g>
     <g id="text_6">
      <!-- 1 -->
      <g transform="translate(368.120619 199.381907) scale(0.2 -0.2)">
       <use xlink:href="#SFTT3583-31" transform="scale(0.996264)"/>
      </g>
     </g>
    </g>
    <g id="xtick_7">
     <g id="line2d_13">
      <path d="M 432.138462 346.528305 
L 432.138462 13.888305 
" clip-path="url(#p6fc1e3858b)" style="fill: none; stroke-dasharray: 0.8,1.32; stroke-dashoffset: 0; stroke: #b0b0b0; stroke-width: 0.8"/>
     </g>
     <g id="line2d_14">
      <g>
       <use xlink:href="#m57364615eb" x="432.138462" y="180.208305" style="stroke: #000000; stroke-width: 0.8"/>
      </g>
     </g>
     <g id="text_7">
      <!-- 2 -->
      <g transform="translate(427.139849 199.381907) scale(0.2 -0.2)">
       <use xlink:href="#SFTT3583-32" transform="scale(0.996264)"/>
      </g>
     </g>
    </g>
    <g id="xtick_8">
     <g id="line2d_15">
      <path d="M 491.157692 346.528305 
L 491.157692 13.888305 
" clip-path="url(#p6fc1e3858b)" style="fill: none; stroke-dasharray: 0.8,1.32; stroke-dashoffset: 0; stroke: #b0b0b0; stroke-width: 0.8"/>
     </g>
     <g id="line2d_16">
      <g>
       <use xlink:href="#m57364615eb" x="491.157692" y="180.208305" style="stroke: #000000; stroke-width: 0.8"/>
      </g>
     </g>
     <g id="text_8">
      <!-- 3 -->
      <g transform="translate(486.15908 199.381907) scale(0.2 -0.2)">
       <use xlink:href="#SFTT3583-33" transform="scale(0.996264)"/>
      </g>
     </g>
    </g>
    <g id="xtick_9">
     <g id="line2d_17">
      <path d="M 550.176923 346.528305 
L 550.176923 13.888305 
" clip-path="url(#p6fc1e3858b)" style="fill: none; stroke-dasharray: 0.8,1.32; stroke-dashoffset: 0; stroke: #b0b0b0; stroke-width: 0.8"/>
     </g>
     <g id="line2d_18">
      <g>
       <use xlink:href="#m57364615eb" x="550.176923" y="180.208305" style="stroke: #000000; stroke-width: 0.8"/>
      </g>
     </g>
     <g id="text_9">
      <!-- 4 -->
      <g transform="translate(545.178311 199.381907) scale(0.2 -0.2)">
       <use xlink:href="#SFTT3583-34" transform="scale(0.996264)"/>
      </g>
     </g>
    </g>
    <g id="xtick_10">
     <g id="line2d_19">
      <path d="M 609.196154 346.528305 
L 609.196154 13.888305 
" clip-path="url(#p6fc1e3858b)" style="fill: none; stroke-dasharray: 0.8,1.32; stroke-dashoffset: 0; stroke: #b0b0b0; stroke-width: 0.8"/>
     </g>
     <g id="line2d_20">
      <g>
       <use xlink:href="#m57364615eb" x="609.196154" y="180.208305" style="stroke: #000000; stroke-width: 0.8"/>
      </g>
     </g>
     <g id="text_10">
      <!-- 5 -->
      <g transform="translate(604.197542 199.381907) scale(0.2 -0.2)">
       <use xlink:href="#SFTT3583-35" transform="scale(0.996264)"/>
      </g>
     </g>
    </g>
   </g>
   <g id="matplotlib.axis_2">
    <g id="ytick_1">
     <g id="line2d_21">
      <path d="M 7.2 338.608305 
L 621 338.608305 
" clip-path="url(#p6fc1e3858b)" style="fill: none; stroke-dasharray: 0.8,1.32; stroke-dashoffset: 0; stroke: #b0b0b0; stroke-width: 0.8"/>
     </g>
     <g id="line2d_22">
      <defs>
       <path id="me40cbde61e" d="M 0 0 
L -3.5 0 
" style="stroke: #000000; stroke-width: 0.8"/>
      </defs>
      <g>
       <use xlink:href="#me40cbde61e" x="314.1" y="338.608305" style="stroke: #000000; stroke-width: 0.8"/>
      </g>
     </g>
     <g id="text_11">
      <!-- -2 -->
      <g transform="translate(287.105552 344.695106) scale(0.2 -0.2)">
       <use xlink:href="#SFTT3583-2d" transform="scale(0.996264)"/>
       <use xlink:href="#SFTT3583-32" transform="translate(48.495008 0) scale(0.996264)"/>
      </g>
     </g>
    </g>
    <g id="ytick_2">
     <g id="line2d_23">
      <path d="M 7.2 259.408305 
L 621 259.408305 
" clip-path="url(#p6fc1e3858b)" style="fill: none; stroke-dasharray: 0.8,1.32; stroke-dashoffset: 0; stroke: #b0b0b0; stroke-width: 0.8"/>
     </g>
     <g id="line2d_24">
      <g>
       <use xlink:href="#me40cbde61e" x="314.1" y="259.408305" style="stroke: #000000; stroke-width: 0.8"/>
      </g>
     </g>
     <g id="text_12">
      <!-- -1 -->
      <g transform="translate(287.105552 265.495106) scale(0.2 -0.2)">
       <use xlink:href="#SFTT3583-2d" transform="scale(0.996264)"/>
       <use xlink:href="#SFTT3583-31" transform="translate(48.495008 0) scale(0.996264)"/>
      </g>
     </g>
    </g>
    <g id="ytick_3">
     <g id="line2d_25">
      <path d="M 7.2 101.008305 
L 621 101.008305 
" clip-path="url(#p6fc1e3858b)" style="fill: none; stroke-dasharray: 0.8,1.32; stroke-dashoffset: 0; stroke: #b0b0b0; stroke-width: 0.8"/>
     </g>
     <g id="line2d_26">
      <g>
       <use xlink:href="#me40cbde61e" x="314.1" y="101.008305" style="stroke: #000000; stroke-width: 0.8"/>
      </g>
     </g>
     <g id="text_13">
      <!-- 1 -->
      <g transform="translate(297.102776 107.095106) scale(0.2 -0.2)">
       <use xlink:href="#SFTT3583-31" transform="scale(0.996264)"/>
      </g>
     </g>
    </g>
    <g id="ytick_4">
     <g id="line2d_27">
      <path d="M 7.2 21.808305 
L 621 21.808305 
" clip-path="url(#p6fc1e3858b)" style="fill: none; stroke-dasharray: 0.8,1.32; stroke-dashoffset: 0; stroke: #b0b0b0; stroke-width: 0.8"/>
     </g>
     <g id="line2d_28">
      <g>
       <use xlink:href="#me40cbde61e" x="314.1" y="21.808305" style="stroke: #000000; stroke-width: 0.8"/>
      </g>
     </g>
     <g id="text_14">
      <!-- 2 -->
      <g transform="translate(297.102776 27.895106) scale(0.2 -0.2)">
       <use xlink:href="#SFTT3583-32" transform="scale(0.996264)"/>
      </g>
     </g>
    </g>
   </g>
   <g id="line2d_29">
    <path d="M 621 180.208305 
" style="fill: none; stroke: #000000; stroke-width: 1.5; stroke-linecap: square"/>
    <defs>
     <path id="ma77879f899" d="M 3 0 
L -3 -3 
L -3 3 
z
" style="stroke: #000000; stroke-linejoin: miter"/>
    </defs>
    <g>
     <use xlink:href="#ma77879f899" x="621" y="180.208305" style="stroke: #000000; stroke-linejoin: miter"/>
    </g>
   </g>
   <g id="line2d_30">
    <path d="M 314.1 13.888305 
" style="fill: none; stroke: #000000; stroke-width: 1.5; stroke-linecap: square"/>
    <defs>
     <path id="mf5399cc5ff" d="M 0 -3 
L -3 3 
L 3 3 
z
" style="stroke: #000000; stroke-linejoin: miter"/>
    </defs>
    <g>
     <use xlink:href="#mf5399cc5ff" x="314.1" y="13.888305" style="stroke: #000000; stroke-linejoin: miter"/>
    </g>
   </g>
   <g id="line2d_31">
    <path d="M 19.003846 179.678231 
L 53.3036 179.265445 
L 80.506852 178.723716 
L 102.979104 178.054469 
L 121.903106 177.270495 
L 138.461608 176.365189 
L 152.654609 175.384038 
L 165.66486 174.283257 
L 178.675112 172.955796 
L 190.502613 171.522998 
L 201.147364 170.02703 
L 211.792115 168.316848 
L 222.436866 166.376968 
L 233.081617 164.195915 
L 243.726368 161.767956 
L 254.371119 159.094858 
L 265.01587 156.187461 
L 276.843371 152.708139 
L 289.853623 148.630067 
L 306.412124 143.183822 
L 340.711878 131.828698 
L 353.722129 127.793448 
L 365.54963 124.363723 
L 376.194381 121.506947 
L 386.839132 118.887728 
L 397.483883 116.514775 
L 408.128634 114.388041 
L 418.773385 112.500365 
L 429.418136 110.839233 
L 440.062887 109.388492 
L 451.890388 108.001037 
L 464.90064 106.717352 
L 477.910891 105.654156 
L 492.103892 104.707486 
L 508.662394 103.834814 
L 527.586396 103.079735 
L 548.875898 102.46398 
L 574.8964 101.951165 
L 606.830654 101.559905 
L 609.196154 101.538379 
L 609.196154 101.538379 
" clip-path="url(#p6fc1e3858b)" style="fill: none; stroke: #ff0000; stroke-width: 3; stroke-linecap: square"/>
   </g>
   <g id="line2d_32">
    <path d="M 19.003846 259.401114 
L 106.527355 259.268824 
L 137.278858 259.013497 
L 157.38561 258.629835 
L 171.578611 258.152839 
L 183.406112 257.541164 
L 192.868113 256.846778 
L 201.147364 256.034838 
L 208.243865 255.142424 
L 215.340365 254.022133 
L 221.254116 252.876267 
L 227.167867 251.499229 
L 231.898867 250.203858 
L 236.629867 248.711408 
L 241.360868 246.997096 
L 246.091868 245.034781 
L 250.822869 242.797508 
L 255.553869 240.258301 
L 260.28487 237.391211 
L 263.83312 235.011404 
L 267.38137 232.425258 
L 270.929621 229.6259 
L 274.477871 226.608607 
L 279.208872 222.243344 
L 283.939872 217.491003 
L 288.670873 212.366769 
L 293.401873 206.898502 
L 298.132873 201.127262 
L 304.046624 193.570299 
L 312.325875 182.588349 
L 325.336126 165.309714 
L 331.249877 157.82087 
L 335.980877 152.120808 
L 340.711878 146.735216 
L 345.442878 141.701854 
L 350.173879 137.045331 
L 354.904879 132.777834 
L 359.635879 128.900499 
L 363.18413 126.243949 
L 366.73238 123.796239 
L 371.463381 120.843369 
L 376.194381 118.224557 
L 380.925382 115.914309 
L 385.656382 113.885798 
L 390.387382 112.111979 
L 395.118383 110.566447 
L 399.849383 109.224041 
L 405.763134 107.796018 
L 411.676885 106.606955 
L 418.773385 105.443751 
L 425.869886 104.516671 
L 434.149137 103.672821 
L 443.611138 102.950864 
L 454.255889 102.367654 
L 467.26614 101.885688 
L 483.824642 101.510105 
L 506.296894 101.243019 
L 540.596647 101.081789 
L 609.196154 101.015496 
L 609.196154 101.015496 
" clip-path="url(#p6fc1e3858b)" style="fill: none; stroke: #ffa500; stroke-width: 3; stroke-linecap: square"/>
   </g>
   <g id="line2d_33">
    <path d="M 19.003846 180.208305 
L 313.508625 180.208305 
L 314.691375 179.414718 
L 449.135035 -1 
L 449.135035 -1 
" clip-path="url(#p6fc1e3858b)" style="fill: none; stroke: #bf00bf; stroke-width: 3; stroke-linecap: square"/>
   </g>
   <g id="line2d_34">
    <path d="M 314.1 101.008305 
L 609.196154 101.008305 
" clip-path="url(#p6fc1e3858b)" style="fill: none; stroke-dasharray: 7.4,3.2; stroke-dashoffset: 0; stroke: #000000; stroke-width: 2"/>
   </g>
   <g id="line2d_35">
    <path d="M 19.003846 259.408305 
L 314.1 259.408305 
" clip-path="url(#p6fc1e3858b)" style="fill: none; stroke-dasharray: 7.4,3.2; stroke-dashoffset: 0; stroke: #000000; stroke-width: 2"/>
   </g>
   <g id="patch_3">
    <path d="M 314.1 346.528305 
L 314.1 13.888305 
" style="fill: none; stroke: #000000; stroke-width: 2; stroke-linejoin: miter; stroke-linecap: square"/>
   </g>
   <g id="patch_4">
    <path d="M 7.2 180.208305 
L 621 180.208305 
" style="fill: none; stroke: #000000; stroke-width: 2; stroke-linejoin: miter; stroke-linecap: square"/>
   </g>
   <g id="text_15">
    <!-- $x$ -->
    <g transform="translate(621 196.048305) scale(0.24 -0.24)">
     <defs>
      <path id="CMMI12-78" d="M 3034 2606 
C 2829 2567 2752 2414 2752 2293 
C 2752 2139 2874 2088 2963 2088 
C 3155 2088 3290 2254 3290 2427 
C 3290 2695 2982 2816 2714 2816 
C 2323 2816 2106 2433 2048 2312 
C 1901 2816 1504 2816 1389 2816 
C 736 2816 390 1980 390 1839 
C 390 1814 416 1782 461 1782 
C 512 1782 525 1820 538 1846 
C 755 2555 1184 2689 1370 2689 
C 1658 2689 1715 2420 1715 2267 
C 1715 2127 1677 1980 1600 1673 
L 1382 798 
C 1286 415 1101 64 762 64 
C 730 64 570 64 435 147 
C 666 192 717 383 717 460 
C 717 588 621 664 499 664 
C 346 664 179 530 179 326 
C 179 57 480 -64 755 -64 
C 1062 -64 1280 179 1414 441 
C 1517 64 1837 -64 2074 -64 
C 2726 -64 3072 773 3072 913 
C 3072 945 3046 971 3008 971 
C 2950 971 2944 939 2925 888 
C 2752 326 2381 64 2093 64 
C 1869 64 1747 230 1747 492 
C 1747 632 1773 734 1875 1156 
L 2099 2024 
C 2195 2408 2413 2689 2707 2689 
C 2720 2689 2899 2689 3034 2606 
z
" transform="scale(0.015625)"/>
     </defs>
     <use xlink:href="#CMMI12-78" transform="scale(0.996264)"/>
    </g>
   </g>
   <g id="text_16">
    <!-- $y$ -->
    <g transform="translate(320.001923 21.808305) scale(0.24 -0.24)">
     <defs>
      <path id="CMMI12-79" d="M 1683 -700 
C 1510 -939 1261 -1152 947 -1152 
C 870 -1152 563 -1152 467 -889 
C 486 -895 518 -895 531 -895 
C 723 -895 851 -729 851 -582 
C 851 -435 730 -384 634 -384 
C 531 -384 307 -458 307 -759 
C 307 -1071 582 -1286 947 -1286 
C 1587 -1286 2234 -700 2413 6 
L 3040 2485 
C 3046 2517 3059 2556 3059 2594 
C 3059 2689 2982 2753 2886 2753 
C 2829 2753 2694 2727 2643 2535 
L 2170 658 
C 2138 543 2138 530 2086 460 
C 1958 281 1747 64 1440 64 
C 1082 64 1050 415 1050 588 
C 1050 952 1222 1443 1395 1903 
C 1466 2088 1504 2178 1504 2305 
C 1504 2574 1312 2816 998 2816 
C 410 2816 173 1890 173 1839 
C 173 1814 198 1782 243 1782 
C 301 1782 307 1807 333 1897 
C 486 2433 730 2689 979 2689 
C 1037 2689 1146 2689 1146 2478 
C 1146 2312 1075 2127 979 1884 
C 666 1047 666 837 666 683 
C 666 77 1101 -64 1421 -64 
C 1606 -64 1837 -6 2061 230 
L 2067 224 
C 1971 -147 1907 -392 1683 -700 
z
" transform="scale(0.015625)"/>
     </defs>
     <use xlink:href="#CMMI12-79" transform="scale(0.996264)"/>
    </g>
   </g>
   <g id="text_17">
    <!-- 0 -->
    <g transform="translate(303.476538 176.248305) scale(0.24 -0.24)">
     <defs>
      <path id="SFTT3583-30" d="M 1485 4012 
C 1075 3967 787 3608 614 3263 
C 416 2854 346 2406 346 1958 
C 346 1510 429 1024 646 627 
C 832 288 1139 -64 1555 -64 
L 1619 -64 
C 2029 -20 2317 333 2490 678 
C 2694 1081 2765 1542 2765 1990 
C 2765 2444 2682 2930 2464 3327 
C 2278 3666 1971 4018 1555 4018 
C 1530 4018 1510 4012 1485 4012 
z
M 653 1894 
L 653 1990 
C 653 2618 826 3507 1402 3693 
C 1453 3712 1498 3712 1549 3712 
C 2330 3712 2458 2376 2458 2063 
C 2458 1602 2394 1123 2170 715 
C 2048 491 1862 254 1594 229 
L 1555 229 
C 1043 229 774 984 691 1491 
C 672 1625 666 1759 653 1894 
z
" transform="scale(0.015625)"/>
     </defs>
     <use xlink:href="#SFTT3583-30" transform="scale(0.996264)"/>
    </g>
   </g>
   <g id="legend_1">
    <g id="patch_5">
     <path d="M 21.2 131.203727 
L 217.199767 131.203727 
Q 221.199767 131.203727 221.199767 127.203727 
L 221.199767 27.888305 
Q 221.199767 23.888305 217.199767 23.888305 
L 21.2 23.888305 
Q 17.2 23.888305 17.2 27.888305 
L 17.2 127.203727 
Q 17.2 131.203727 21.2 131.203727 
z
" style="fill: #ffffff; opacity: 0.8; stroke: #cccccc; stroke-linejoin: miter"/>
    </g>
    <g id="line2d_36">
     <path d="M 25.2 41.721983 
L 45.2 41.721983 
L 65.2 41.721983 
" style="fill: none; stroke: #ff0000; stroke-width: 3; stroke-linecap: square"/>
    </g>
    <g id="text_18">
     <!-- $\sigma(x) = \frac{1}{1+e^{-x}}$ -->
     <g transform="translate(81.2 48.721983) scale(0.2 -0.2)">
      <defs>
       <path id="CMMI12-1b" d="M 3251 2408 
C 3334 2408 3546 2408 3546 2612 
C 3546 2752 3424 2752 3309 2752 
L 1894 2752 
C 934 2752 243 1686 243 932 
C 243 390 595 -64 1171 -64 
C 1926 -64 2752 747 2752 1705 
C 2752 1954 2694 2196 2541 2408 
L 3251 2408 
z
M 1178 64 
C 851 64 614 313 614 754 
C 614 1137 845 2408 1786 2408 
C 2061 2408 2368 2274 2368 1781 
C 2368 1558 2266 1021 2042 652 
C 1811 275 1466 64 1178 64 
z
" transform="scale(0.015625)"/>
       <path id="CMR17-28" d="M 1958 -1561 
C 1958 -1555 1958 -1542 1939 -1523 
C 1645 -1224 858 -407 858 1581 
C 858 3569 1632 4379 1946 4697 
C 1946 4704 1958 4717 1958 4736 
C 1958 4755 1939 4768 1914 4768 
C 1843 4768 1299 4296 986 3594 
C 666 2887 576 2199 576 1588 
C 576 1128 621 351 1005 -471 
C 1312 -1135 1837 -1600 1914 -1600 
C 1946 -1600 1958 -1587 1958 -1561 
z
" transform="scale(0.015625)"/>
       <path id="CMR17-29" d="M 1683 1581 
C 1683 2040 1638 2817 1254 3639 
C 947 4303 422 4768 346 4768 
C 326 4768 301 4761 301 4729 
C 301 4717 307 4710 314 4697 
C 621 4378 1402 3568 1402 1584 
C 1402 -407 627 -1217 314 -1537 
C 307 -1549 301 -1556 301 -1568 
C 301 -1600 326 -1600 346 -1600 
C 416 -1600 960 -1128 1274 -426 
C 1594 281 1683 969 1683 1581 
z
" transform="scale(0.015625)"/>
       <path id="CMR17-3d" d="M 4115 2017 
C 4211 2017 4307 2017 4307 2125 
C 4307 2240 4198 2240 4090 2240 
L 512 2240 
C 403 2240 294 2240 294 2125 
C 294 2017 390 2017 486 2017 
L 4115 2017 
z
M 4090 896 
C 4198 896 4307 896 4307 1011 
C 4307 1119 4211 1119 4115 1119 
L 486 1119 
C 390 1119 294 1119 294 1011 
C 294 896 403 896 512 896 
L 4090 896 
z
" transform="scale(0.015625)"/>
       <path id="CMR17-31" d="M 1702 4058 
C 1702 4192 1696 4192 1606 4192 
C 1357 3916 979 3827 621 3827 
C 602 3827 570 3827 563 3808 
C 557 3795 557 3782 557 3648 
C 755 3648 1088 3686 1344 3839 
L 1344 461 
C 1344 236 1331 160 781 160 
L 589 160 
L 589 0 
C 896 0 1216 0 1523 0 
C 1830 0 2150 0 2458 0 
L 2458 160 
L 2266 160 
C 1715 160 1702 230 1702 458 
L 1702 4058 
z
" transform="scale(0.015625)"/>
       <path id="CMR17-2b" d="M 2413 1472 
L 4109 1472 
C 4198 1472 4307 1472 4307 1580 
C 4307 1695 4205 1695 4109 1695 
L 2413 1695 
L 2413 3386 
C 2413 3475 2413 3584 2304 3584 
C 2189 3584 2189 3482 2189 3386 
L 2189 1695 
L 493 1695 
C 403 1695 294 1695 294 1587 
C 294 1472 397 1472 493 1472 
L 2189 1472 
L 2189 -218 
C 2189 -307 2189 -416 2298 -416 
C 2413 -416 2413 -314 2413 -218 
L 2413 1472 
z
" transform="scale(0.015625)"/>
       <path id="CMMI12-65" d="M 1146 1479 
C 1318 1479 1754 1479 2061 1595 
C 2547 1783 2592 2158 2592 2274 
C 2592 2558 2349 2816 1926 2816 
C 1254 2816 288 2210 288 1073 
C 288 402 672 -64 1254 -64 
C 2125 -64 2675 609 2675 692 
C 2675 730 2637 762 2611 762 
C 2592 762 2586 756 2528 699 
C 2118 159 1510 64 1267 64 
C 902 64 710 350 710 822 
C 710 911 710 1071 806 1479 
L 1146 1479 
z
M 838 1600 
C 1114 2592 1722 2689 1926 2689 
C 2208 2689 2400 2522 2400 2277 
C 2400 1600 1376 1600 1107 1600 
L 838 1600 
z
" transform="scale(0.015625)"/>
       <path id="CMSY10-0" d="M 4218 1472 
C 4326 1472 4442 1472 4442 1600 
C 4442 1728 4326 1728 4218 1728 
L 755 1728 
C 646 1728 531 1728 531 1600 
C 531 1472 646 1472 755 1472 
L 4218 1472 
z
" transform="scale(0.015625)"/>
      </defs>
      <use xlink:href="#CMMI12-1b" transform="scale(0.996264)"/>
      <use xlink:href="#CMR17-28" transform="translate(59.020054 0) scale(0.996264)"/>
      <use xlink:href="#CMMI12-78" transform="translate(94.300821 0) scale(0.996264)"/>
      <use xlink:href="#CMR17-29" transform="translate(149.734881 0) scale(0.996264)"/>
      <use xlink:href="#CMR17-3d" transform="translate(212.689657 0) scale(0.996264)"/>
      <use xlink:href="#CMR17-31" transform="translate(387.677618 39.226102) scale(0.697382)"/>
      <use xlink:href="#CMR17-31" transform="translate(313.273968 -34.355253) scale(0.697382)"/>
      <use xlink:href="#CMR17-2b" transform="translate(345.25715 -34.355253) scale(0.697382)"/>
      <use xlink:href="#CMMI12-65" transform="translate(395.457282 -34.355253) scale(0.697382)"/>
      <use xlink:href="#CMSY10-0" transform="translate(427.105538 -14.20868) scale(0.498132)"/>
      <use xlink:href="#CMMI12-78" transform="translate(465.849272 -14.20868) scale(0.498132)"/>
      <path d="M 313.273968 22.914133 
L 494.064434 22.914133 
L 494.064434 26.899083 
L 313.273968 26.899083 
L 313.273968 22.914133 
z
"/>
     </g>
    </g>
    <g id="line2d_37">
     <path d="M 25.2 78.376637 
L 45.2 78.376637 
L 65.2 78.376637 
" style="fill: none; stroke: #ffa500; stroke-width: 3; stroke-linecap: square"/>
    </g>
    <g id="text_19">
     <!-- $\tanh(x) = \frac{e^x-e^{-x}}{e^x+e^{-x}}$ -->
     <g transform="translate(81.2 85.376637) scale(0.2 -0.2)">
      <defs>
       <path id="CMR17-74" d="M 966 2560 
L 1862 2560 
L 1862 2725 
L 966 2725 
L 966 3904 
L 851 3904 
C 838 3245 614 2668 70 2668 
L 70 2560 
L 627 2560 
L 627 771 
C 627 650 627 -64 1370 -64 
C 1747 -64 1965 306 1965 777 
L 1965 1140 
L 1850 1140 
L 1850 783 
C 1850 344 1677 51 1408 51 
C 1222 51 966 178 966 758 
L 966 2560 
z
" transform="scale(0.015625)"/>
       <path id="CMR17-61" d="M 2304 1653 
C 2304 2072 2304 2294 2035 2543 
C 1798 2752 1523 2816 1306 2816 
C 800 2816 435 2407 435 1971 
C 435 1728 627 1728 666 1728 
C 749 1728 896 1778 896 1954 
C 896 2112 774 2181 666 2181 
C 640 2181 608 2174 589 2168 
C 723 2592 1069 2714 1293 2714 
C 1613 2714 1965 2429 1965 1885 
L 1965 1600 
C 1587 1600 1133 1549 774 1357 
C 371 1133 256 813 256 570 
C 256 77 832 -64 1171 -64 
C 1523 -64 1850 139 1990 511 
C 2003 233 2182 -18 2464 -18 
C 2598 -18 2938 70 2938 567 
L 2938 920 
L 2822 920 
L 2822 562 
C 2822 178 2650 128 2566 128 
C 2304 128 2304 458 2304 738 
L 2304 1653 
z
M 1965 870 
C 1965 317 1568 38 1216 38 
C 896 38 646 275 646 570 
C 646 761 730 1100 1101 1305 
C 1408 1478 1760 1504 1965 1504 
L 1965 870 
z
" transform="scale(0.015625)"/>
       <path id="CMR17-6e" d="M 2656 1933 
C 2656 2259 2592 2790 1837 2790 
C 1331 2790 1069 2400 973 2144 
L 966 2144 
L 966 2790 
L 211 2720 
L 211 2554 
C 589 2554 646 2515 646 2208 
L 646 428 
C 646 184 621 153 211 153 
L 211 -13 
C 365 0 646 0 813 0 
C 979 0 1267 0 1421 -13 
L 1421 153 
C 1011 153 986 178 986 428 
L 986 1658 
C 986 2247 1344 2688 1792 2688 
C 2266 2688 2317 2266 2317 1958 
L 2317 428 
C 2317 184 2291 153 1882 153 
L 1882 -13 
C 2035 0 2317 0 2483 0 
C 2650 0 2938 0 3091 -13 
L 3091 153 
C 2682 153 2656 178 2656 428 
L 2656 1933 
z
" transform="scale(0.015625)"/>
       <path id="CMR17-68" d="M 2656 1933 
C 2656 2259 2592 2790 1837 2790 
C 1312 2790 1056 2368 979 2157 
L 973 2157 
L 973 4396 
L 211 4326 
L 211 4160 
C 589 4160 646 4122 646 3817 
L 646 426 
C 646 184 621 153 211 153 
L 211 -13 
C 365 0 646 0 813 0 
C 979 0 1267 0 1421 -13 
L 1421 153 
C 1011 153 986 178 986 428 
L 986 1658 
C 986 2247 1344 2688 1792 2688 
C 2266 2688 2317 2266 2317 1958 
L 2317 428 
C 2317 184 2291 153 1882 153 
L 1882 -13 
C 2035 0 2317 0 2483 0 
C 2650 0 2938 0 3091 -13 
L 3091 153 
C 2682 153 2656 178 2656 428 
L 2656 1933 
z
" transform="scale(0.015625)"/>
      </defs>
      <use xlink:href="#CMR17-74" transform="scale(0.996264)"/>
      <use xlink:href="#CMR17-61" transform="translate(35.280768 0) scale(0.996264)"/>
      <use xlink:href="#CMR17-6e" transform="translate(80.971245 0) scale(0.996264)"/>
      <use xlink:href="#CMR17-68" transform="translate(131.866615 0) scale(0.996264)"/>
      <use xlink:href="#CMR17-28" transform="translate(182.761984 0) scale(0.996264)"/>
      <use xlink:href="#CMMI12-78" transform="translate(218.042752 0) scale(0.996264)"/>
      <use xlink:href="#CMR17-29" transform="translate(273.476812 0) scale(0.996264)"/>
      <use xlink:href="#CMR17-3d" transform="translate(336.431588 0) scale(0.996264)"/>
      <use xlink:href="#CMMI12-65" transform="translate(437.015899 39.226102) scale(0.697382)"/>
      <use xlink:href="#CMMI12-78" transform="translate(468.664156 64.533527) scale(0.498132)"/>
      <use xlink:href="#CMSY10-0" transform="translate(496.879317 39.226102) scale(0.697382)"/>
      <use xlink:href="#CMMI12-65" transform="translate(551.120311 39.226102) scale(0.697382)"/>
      <use xlink:href="#CMSY10-0" transform="translate(582.768567 64.533527) scale(0.498132)"/>
      <use xlink:href="#CMMI12-78" transform="translate(621.512301 64.533527) scale(0.498132)"/>
      <use xlink:href="#CMMI12-65" transform="translate(439.036338 -34.355253) scale(0.697382)"/>
      <use xlink:href="#CMMI12-78" transform="translate(470.684594 -14.20868) scale(0.498132)"/>
      <use xlink:href="#CMR17-2b" transform="translate(498.899756 -34.355253) scale(0.697382)"/>
      <use xlink:href="#CMMI12-65" transform="translate(549.099887 -34.355253) scale(0.697382)"/>
      <use xlink:href="#CMSY10-0" transform="translate(580.748144 -14.20868) scale(0.498132)"/>
      <use xlink:href="#CMMI12-78" transform="translate(619.491877 -14.20868) scale(0.498132)"/>
      <path d="M 437.015899 22.914133 
L 649.727462 22.914133 
L 649.727462 26.899083 
L 437.015899 26.899083 
L 437.015899 22.914133 
z
"/>
     </g>
    </g>
    <g id="line2d_38">
     <path d="M 25.2 111.239083 
L 45.2 111.239083 
L 65.2 111.239083 
" style="fill: none; stroke: #bf00bf; stroke-width: 3; stroke-linecap: square"/>
    </g>
    <g id="text_20">
     <!-- $\mathrm{ReLU}(x) = x_+$ -->
     <g transform="translate(81.2 118.239083) scale(0.2 -0.2)">
      <defs>
       <path id="CMR17-52" d="M 2509 2146 
C 3117 2268 3629 2676 3629 3186 
C 3629 3785 2950 4326 2054 4326 
L 333 4326 
L 333 4160 
C 774 4160 845 4160 845 3873 
L 845 415 
C 845 128 774 128 333 128 
L 333 -26 
C 518 -26 851 -26 1050 -26 
C 1248 -26 1581 -26 1766 -26 
L 1766 128 
C 1325 128 1254 128 1254 417 
L 1254 2112 
L 2003 2112 
C 2368 2112 2573 1964 2662 1881 
C 2918 1632 2918 1459 2918 1024 
C 2918 595 2918 377 3110 160 
C 3354 -102 3680 -128 3821 -128 
C 4294 -128 4365 396 4365 503 
C 4365 540 4365 585 4307 585 
C 4256 585 4250 547 4250 522 
C 4218 112 4032 -26 3834 -26 
C 3482 -26 3443 375 3405 764 
C 3386 898 3373 993 3360 1133 
C 3322 1452 3270 1917 2509 2146 
z
M 1984 2214 
L 1254 2214 
L 1254 3913 
C 1254 4129 1267 4160 1523 4160 
L 1990 4160 
C 2522 4160 3142 3977 3142 3190 
C 3142 2372 2464 2214 1984 2214 
z
" transform="scale(0.015625)"/>
       <path id="CMR17-65" d="M 2438 1472 
C 2464 1498 2464 1511 2464 1576 
C 2464 2238 2118 2816 1389 2816 
C 710 2816 173 2169 173 1383 
C 173 551 781 -64 1459 -64 
C 2176 -64 2458 607 2458 740 
C 2458 784 2419 784 2406 784 
C 2362 784 2355 771 2330 696 
C 2189 265 1837 51 1504 51 
C 1229 51 954 203 781 480 
C 582 803 582 1176 582 1472 
L 2438 1472 
z
M 589 1568 
C 634 2505 1126 2714 1382 2714 
C 1818 2714 2112 2297 2118 1568 
L 589 1568 
z
" transform="scale(0.015625)"/>
       <path id="CMR17-4c" d="M 3469 1615 
L 3354 1615 
C 3302 983 3219 166 2125 166 
L 1530 166 
C 1274 166 1261 197 1261 414 
L 1261 3898 
C 1261 4129 1274 4192 1760 4192 
L 1901 4192 
L 1901 4352 
C 1638 4352 1331 4352 1069 4352 
C 870 4352 512 4352 326 4352 
L 326 4192 
C 768 4192 838 4192 838 3905 
L 838 452 
C 838 166 768 166 326 166 
L 326 0 
L 3315 0 
L 3469 1615 
z
" transform="scale(0.015625)"/>
       <path id="CMR17-55" d="M 3456 1433 
C 3456 579 2899 38 2291 38 
C 1965 38 1670 210 1491 477 
C 1286 783 1261 1178 1261 1401 
L 1261 3874 
C 1261 4160 1331 4160 1773 4160 
L 1773 4320 
C 1587 4320 1248 4320 1050 4320 
C 851 4320 512 4320 326 4320 
L 326 4160 
C 768 4160 838 4160 838 3874 
L 838 1433 
C 838 516 1536 -128 2278 -128 
C 3110 -128 3590 719 3590 1344 
L 3590 3766 
C 3590 4122 3917 4160 4102 4160 
L 4102 4326 
C 3955 4320 3686 4320 3526 4320 
C 3366 4320 3091 4320 2944 4326 
L 2944 4160 
C 3456 4160 3456 3861 3456 3702 
L 3456 1433 
z
" transform="scale(0.015625)"/>
      </defs>
      <use xlink:href="#CMR17-52" transform="scale(0.996264)"/>
      <use xlink:href="#CMR17-65" transform="translate(67.791102 0) scale(0.996264)"/>
      <use xlink:href="#CMR17-4c" transform="translate(108.276762 0) scale(0.996264)"/>
      <use xlink:href="#CMR17-55" transform="translate(165.65817 0) scale(0.996264)"/>
      <use xlink:href="#CMR17-28" transform="translate(234.7306 0) scale(0.996264)"/>
      <use xlink:href="#CMMI12-78" transform="translate(270.011368 0) scale(0.996264)"/>
      <use xlink:href="#CMR17-29" transform="translate(325.445427 0) scale(0.996264)"/>
      <use xlink:href="#CMR17-3d" transform="translate(388.400204 0) scale(0.996264)"/>
      <use xlink:href="#CMMI12-78" transform="translate(487.789001 0) scale(0.996264)"/>
      <use xlink:href="#CMR17-2b" transform="translate(543.223061 -14.943915) scale(0.697382)"/>
     </g>
    </g>
   </g>
  </g>
 </g>
 <defs>
  <clipPath id="p6fc1e3858b">
   <rect x="7.2" y="13.888305" width="613.8" height="332.64"/>
  </clipPath>
 </defs>
</svg>