<?xml version="1.0" encoding="utf-8" standalone="no"?>
<!DOCTYPE svg PUBLIC "-//W3C//DTD SVG 1.1//EN"
  "http://www.w3.org/Graphics/SVG/1.1/DTD/svg11.dtd">
<svg xmlns:xlink="http://www.w3.org/1999/xlink" width="417.920466pt" height="307.432416pt" viewBox="0 0 417.920466 307.432416" xmlns="http://www.w3.org/2000/svg" version="1.1">
 <metadata>
  <rdf:RDF xmlns:dc="http://purl.org/dc/elements/1.1/" xmlns:cc="http://creativecommons.org/ns#" xmlns:rdf="http://www.w3.org/1999/02/22-rdf-syntax-ns#">
   <cc:Work>
    <dc:type rdf:resource="http://purl.org/dc/dcmitype/StillImage"/>
    <dc:date>2024-10-08T20:56:28.433414</dc:date>
    <dc:format>image/svg+xml</dc:format>
    <dc:creator>
     <cc:Agent>
      <dc:title>Matplotlib v3.7.1, https://matplotlib.org/</dc:title>
     </cc:Agent>
    </dc:creator>
   </cc:Work>
  </rdf:RDF>
 </metadata>
 <defs>
  <style type="text/css">*{stroke-linejoin: round; stroke-linecap: butt}</style>
 </defs>
 <g id="figure_1">
  <g id="patch_1">
   <path d="M 0 307.432416 
L 417.920466 307.432416 
L 417.920466 0 
L 0 0 
z
" style="fill: #ffffff"/>
  </g>
  <g id="axes_1">
   <g id="patch_2">
    <path d="M 53.600466 273.312 
L 410.720466 273.312 
L 410.720466 7.2 
L 53.600466 7.2 
z
" style="fill: #ffffff"/>
   </g>
   <g id="matplotlib.axis_1">
    <g id="xtick_1">
     <g id="line2d_1">
      <path d="M 69.833193 273.312 
L 69.833193 7.2 
" clip-path="url(#pe8fc70ed28)" style="fill: none; stroke: #b0b0b0; stroke-width: 0.8; stroke-linecap: square"/>
     </g>
     <g id="line2d_2">
      <defs>
       <path id="md71a339924" d="M 0 0 
L 0 3.5 
" style="stroke: #000000; stroke-width: 0.8"/>
      </defs>
      <g>
       <use xlink:href="#md71a339924" x="69.833193" y="273.312" style="stroke: #000000; stroke-width: 0.8"/>
      </g>
     </g>
     <g id="text_1">
      <!-- $\mathdefault{0}$ -->
      <g transform="translate(64.350336 294.920305) scale(0.24 -0.24)">
       <defs>
        <path id="CMR17-30" d="M 2688 2025 
C 2688 2416 2682 3080 2413 3591 
C 2176 4039 1798 4198 1466 4198 
C 1158 4198 768 4058 525 3597 
C 269 3118 243 2524 243 2025 
C 243 1661 250 1106 448 619 
C 723 -39 1216 -128 1466 -128 
C 1760 -128 2208 -7 2470 600 
C 2662 1042 2688 1559 2688 2025 
z
M 1466 -26 
C 1056 -26 813 325 723 812 
C 653 1188 653 1738 653 2096 
C 653 2588 653 2997 736 3387 
C 858 3929 1216 4096 1466 4096 
C 1728 4096 2067 3923 2189 3400 
C 2272 3036 2278 2607 2278 2096 
C 2278 1680 2278 1169 2202 792 
C 2067 95 1690 -26 1466 -26 
z
" transform="scale(0.015625)"/>
       </defs>
       <use xlink:href="#CMR17-30" transform="scale(0.996264)"/>
      </g>
     </g>
    </g>
    <g id="xtick_2">
     <g id="line2d_3">
      <path d="M 232.160466 273.312 
L 232.160466 7.2 
" clip-path="url(#pe8fc70ed28)" style="fill: none; stroke: #b0b0b0; stroke-width: 0.8; stroke-linecap: square"/>
     </g>
     <g id="line2d_4">
      <g>
       <use xlink:href="#md71a339924" x="232.160466" y="273.312" style="stroke: #000000; stroke-width: 0.8"/>
      </g>
     </g>
     <g id="text_2">
      <!-- $\mathdefault{2}$ -->
      <g transform="translate(226.677609 294.920305) scale(0.24 -0.24)">
       <defs>
        <path id="CMR17-32" d="M 2669 989 
L 2554 989 
C 2490 536 2438 459 2413 420 
C 2381 369 1920 369 1830 369 
L 602 369 
C 832 619 1280 1072 1824 1597 
C 2214 1967 2669 2402 2669 3035 
C 2669 3790 2067 4224 1395 4224 
C 691 4224 262 3604 262 3030 
C 262 2780 448 2748 525 2748 
C 589 2748 781 2787 781 3010 
C 781 3207 614 3264 525 3264 
C 486 3264 448 3258 422 3245 
C 544 3790 915 4058 1306 4058 
C 1862 4058 2227 3617 2227 3035 
C 2227 2479 1901 2000 1536 1584 
L 262 146 
L 262 0 
L 2515 0 
L 2669 989 
z
" transform="scale(0.015625)"/>
       </defs>
       <use xlink:href="#CMR17-32" transform="scale(0.996264)"/>
      </g>
     </g>
    </g>
    <g id="xtick_3">
     <g id="line2d_5">
      <path d="M 394.487739 273.312 
L 394.487739 7.2 
" clip-path="url(#pe8fc70ed28)" style="fill: none; stroke: #b0b0b0; stroke-width: 0.8; stroke-linecap: square"/>
     </g>
     <g id="line2d_6">
      <g>
       <use xlink:href="#md71a339924" x="394.487739" y="273.312" style="stroke: #000000; stroke-width: 0.8"/>
      </g>
     </g>
     <g id="text_3">
      <!-- $\mathdefault{4}$ -->
      <g transform="translate(389.004881 294.920305) scale(0.24 -0.24)">
       <defs>
        <path id="CMR17-34" d="M 2150 4122 
C 2150 4256 2144 4256 2029 4256 
L 128 1254 
L 128 1088 
L 1779 1088 
L 1779 457 
C 1779 224 1766 160 1318 160 
L 1197 160 
L 1197 0 
C 1402 0 1747 0 1965 0 
C 2182 0 2528 0 2733 0 
L 2733 160 
L 2611 160 
C 2163 160 2150 224 2150 457 
L 2150 1088 
L 2803 1088 
L 2803 1254 
L 2150 1254 
L 2150 4122 
z
M 1798 3703 
L 1798 1254 
L 256 1254 
L 1798 3703 
z
" transform="scale(0.015625)"/>
       </defs>
       <use xlink:href="#CMR17-34" transform="scale(0.996264)"/>
      </g>
     </g>
    </g>
   </g>
   <g id="matplotlib.axis_2">
    <g id="ytick_1">
     <g id="line2d_7">
      <path d="M 53.600466 237.312644 
L 410.720466 237.312644 
" clip-path="url(#pe8fc70ed28)" style="fill: none; stroke: #b0b0b0; stroke-width: 0.8; stroke-linecap: square"/>
     </g>
     <g id="line2d_8">
      <defs>
       <path id="m90ac27e1a8" d="M 0 0 
L -3.5 0 
" style="stroke: #000000; stroke-width: 0.8"/>
      </defs>
      <g>
       <use xlink:href="#m90ac27e1a8" x="53.600466" y="237.312644" style="stroke: #000000; stroke-width: 0.8"/>
      </g>
     </g>
     <g id="text_4">
      <!-- $\mathdefault{0.94}$ -->
      <g transform="translate(7.2 244.616797) scale(0.24 -0.24)">
       <defs>
        <path id="CMMI12-3a" d="M 1178 307 
C 1178 492 1024 619 870 619 
C 685 619 557 466 557 313 
C 557 128 710 0 864 0 
C 1050 0 1178 153 1178 307 
z
" transform="scale(0.015625)"/>
        <path id="CMR17-39" d="M 2253 1864 
C 2253 464 1670 31 1190 31 
C 1043 31 685 31 538 294 
C 704 268 826 357 826 518 
C 826 692 685 749 595 749 
C 538 749 365 723 365 506 
C 365 71 742 -128 1203 -128 
C 1939 -128 2688 674 2688 2073 
C 2688 3817 1971 4179 1485 4179 
C 851 4179 243 3628 243 2778 
C 243 1991 762 1408 1414 1408 
C 1952 1408 2189 1903 2253 2112 
L 2253 1864 
z
M 1427 1510 
C 1254 1510 1011 1542 813 1922 
C 678 2169 678 2461 678 2771 
C 678 3146 678 3405 858 3684 
C 947 3817 1114 4032 1485 4032 
C 2240 4032 2240 2885 2240 2632 
C 2240 2182 2035 1510 1427 1510 
z
" transform="scale(0.015625)"/>
       </defs>
       <use xlink:href="#CMR17-30" transform="scale(0.996264)"/>
       <use xlink:href="#CMMI12-3a" transform="translate(45.690477 0) scale(0.996264)"/>
       <use xlink:href="#CMR17-39" transform="translate(72.787654 0) scale(0.996264)"/>
       <use xlink:href="#CMR17-34" transform="translate(118.478131 0) scale(0.996264)"/>
      </g>
     </g>
    </g>
    <g id="ytick_2">
     <g id="line2d_9">
      <path d="M 53.600466 147.111302 
L 410.720466 147.111302 
" clip-path="url(#pe8fc70ed28)" style="fill: none; stroke: #b0b0b0; stroke-width: 0.8; stroke-linecap: square"/>
     </g>
     <g id="line2d_10">
      <g>
       <use xlink:href="#m90ac27e1a8" x="53.600466" y="147.111302" style="stroke: #000000; stroke-width: 0.8"/>
      </g>
     </g>
     <g id="text_5">
      <!-- $\mathdefault{0.96}$ -->
      <g transform="translate(7.2 154.415454) scale(0.24 -0.24)">
       <defs>
        <path id="CMR17-36" d="M 678 2176 
C 678 3690 1395 4032 1811 4032 
C 1946 4032 2272 4009 2400 3776 
C 2298 3776 2106 3776 2106 3553 
C 2106 3381 2246 3323 2336 3323 
C 2394 3323 2566 3348 2566 3560 
C 2566 3954 2246 4179 1805 4179 
C 1043 4179 243 3390 243 1984 
C 243 253 966 -128 1478 -128 
C 2099 -128 2688 427 2688 1283 
C 2688 2081 2170 2662 1517 2662 
C 1126 2662 838 2407 678 1960 
L 678 2176 
z
M 1478 25 
C 691 25 691 1200 691 1436 
C 691 1896 909 2560 1504 2560 
C 1613 2560 1926 2560 2138 2120 
C 2253 1870 2253 1609 2253 1289 
C 2253 944 2253 690 2118 434 
C 1978 171 1773 25 1478 25 
z
" transform="scale(0.015625)"/>
       </defs>
       <use xlink:href="#CMR17-30" transform="scale(0.996264)"/>
       <use xlink:href="#CMMI12-3a" transform="translate(45.690477 0) scale(0.996264)"/>
       <use xlink:href="#CMR17-39" transform="translate(72.787654 0) scale(0.996264)"/>
       <use xlink:href="#CMR17-36" transform="translate(118.478131 0) scale(0.996264)"/>
      </g>
     </g>
    </g>
    <g id="ytick_3">
     <g id="line2d_11">
      <path d="M 53.600466 56.90996 
L 410.720466 56.90996 
" clip-path="url(#pe8fc70ed28)" style="fill: none; stroke: #b0b0b0; stroke-width: 0.8; stroke-linecap: square"/>
     </g>
     <g id="line2d_12">
      <g>
       <use xlink:href="#m90ac27e1a8" x="53.600466" y="56.90996" style="stroke: #000000; stroke-width: 0.8"/>
      </g>
     </g>
     <g id="text_6">
      <!-- $\mathdefault{0.98}$ -->
      <g transform="translate(7.2 64.214112) scale(0.24 -0.24)">
       <defs>
        <path id="CMR17-38" d="M 1741 2264 
C 2144 2467 2554 2773 2554 3263 
C 2554 3841 1990 4179 1472 4179 
C 890 4179 378 3759 378 3180 
C 378 3021 416 2747 666 2505 
C 730 2442 998 2251 1171 2130 
C 883 1983 211 1634 211 934 
C 211 279 838 -128 1459 -128 
C 2144 -128 2720 362 2720 1010 
C 2720 1590 2330 1857 2074 2029 
L 1741 2264 
z
M 902 2822 
C 851 2854 595 3051 595 3351 
C 595 3739 998 4032 1459 4032 
C 1965 4032 2336 3676 2336 3262 
C 2336 2669 1670 2331 1638 2331 
C 1632 2331 1626 2331 1574 2370 
L 902 2822 
z
M 2080 1519 
C 2176 1449 2483 1240 2483 851 
C 2483 381 2010 25 1472 25 
C 890 25 448 438 448 940 
C 448 1443 838 1862 1280 2060 
L 2080 1519 
z
" transform="scale(0.015625)"/>
       </defs>
       <use xlink:href="#CMR17-30" transform="scale(0.996264)"/>
       <use xlink:href="#CMMI12-3a" transform="translate(45.690477 0) scale(0.996264)"/>
       <use xlink:href="#CMR17-39" transform="translate(72.787654 0) scale(0.996264)"/>
       <use xlink:href="#CMR17-38" transform="translate(118.478131 0) scale(0.996264)"/>
      </g>
     </g>
    </g>
   </g>
   <g id="line2d_13">
    <path d="M 69.833193 232.171168 
L 150.99683 108.054121 
L 232.160466 95.606336 
L 313.324102 36.344054 
L 394.487739 19.296 
" clip-path="url(#pe8fc70ed28)" style="fill: none; stroke: #1f77b4; stroke-width: 1.5; stroke-linecap: square"/>
   </g>
   <g id="line2d_14">
    <path d="M 69.833193 261.216 
L 150.99683 154.778416 
L 232.160466 140.346201 
L 313.324102 91.18647 
L 394.487739 89.83345 
" clip-path="url(#pe8fc70ed28)" style="fill: none; stroke: #ff7f0e; stroke-width: 1.5; stroke-linecap: square"/>
   </g>
   <g id="patch_3">
    <path d="M 53.600466 273.312 
L 53.600466 7.2 
" style="fill: none; stroke: #000000; stroke-width: 0.8; stroke-linejoin: miter; stroke-linecap: square"/>
   </g>
   <g id="patch_4">
    <path d="M 410.720466 273.312 
L 410.720466 7.2 
" style="fill: none; stroke: #000000; stroke-width: 0.8; stroke-linejoin: miter; stroke-linecap: square"/>
   </g>
   <g id="patch_5">
    <path d="M 53.600466 273.312 
L 410.720466 273.312 
" style="fill: none; stroke: #000000; stroke-width: 0.8; stroke-linejoin: miter; stroke-linecap: square"/>
   </g>
   <g id="patch_6">
    <path d="M 53.600466 7.2 
L 410.720466 7.2 
" style="fill: none; stroke: #000000; stroke-width: 0.8; stroke-linejoin: miter; stroke-linecap: square"/>
   </g>
   <g id="legend_1">
    <g id="patch_7">
     <path d="M 150.781165 261.312 
L 393.920466 261.312 
Q 398.720466 261.312 398.720466 256.512 
L 398.720466 190.687778 
Q 398.720466 185.887778 393.920466 185.887778 
L 150.781165 185.887778 
Q 145.981165 185.887778 145.981165 190.687778 
L 145.981165 256.512 
Q 145.981165 261.312 150.781165 261.312 
z
" style="fill: #ffffff; opacity: 0.8; stroke: #cccccc; stroke-linejoin: miter"/>
    </g>
    <g id="line2d_15">
     <path d="M 155.581165 203.887778 
L 179.581165 203.887778 
L 203.581165 203.887778 
" style="fill: none; stroke: #1f77b4; stroke-width: 1.5; stroke-linecap: square"/>
    </g>
    <g id="text_7">
     <!-- train accuracy -->
     <g transform="translate(222.781165 212.287778) scale(0.24 -0.24)">
      <defs>
       <path id="SFTT3583-74" d="M 960 2752 
L 486 2752 
C 442 2752 397 2752 352 2752 
C 224 2752 147 2709 147 2602 
C 147 2483 237 2459 320 2459 
L 960 2459 
L 960 637 
C 998 242 1261 -32 1683 -32 
C 2125 -32 2669 191 2669 751 
L 2669 898 
C 2669 993 2624 1076 2515 1076 
C 2413 1076 2362 1006 2362 904 
L 2362 783 
C 2362 407 2080 261 1786 261 
C 1370 261 1267 535 1267 809 
L 1267 2459 
L 2227 2459 
C 2259 2459 2304 2459 2342 2459 
C 2451 2459 2534 2490 2534 2627 
C 2534 2739 2432 2752 2355 2752 
L 1267 2752 
L 1267 3351 
C 1267 3439 1235 3520 1120 3520 
C 1011 3520 954 3451 954 3333 
C 954 3290 960 3239 960 3201 
L 960 2752 
z
" transform="scale(0.015625)"/>
       <path id="SFTT3583-72" d="M 1274 2100 
L 1267 2599 
C 1267 2707 1210 2752 1101 2752 
L 486 2752 
C 384 2752 320 2714 320 2605 
C 320 2497 390 2459 499 2459 
L 960 2459 
L 960 293 
L 486 293 
C 378 293 320 236 320 147 
C 320 51 378 0 480 0 
L 1952 0 
C 2029 13 2067 77 2067 147 
C 2067 242 2016 293 1894 293 
L 1267 293 
L 1267 1232 
C 1267 1845 1632 2496 2336 2496 
L 2426 2496 
C 2598 2496 2509 2318 2714 2318 
C 2810 2318 2893 2393 2893 2494 
C 2893 2751 2573 2789 2362 2789 
L 2298 2789 
C 1882 2789 1408 2473 1274 2100 
z
" transform="scale(0.015625)"/>
       <path id="SFTT3583-61" d="M 2093 1625 
C 1472 1625 365 1490 365 716 
C 365 294 717 -32 1158 -32 
C 1498 -32 1882 77 2112 326 
C 2144 114 2349 -32 2554 -32 
C 2842 -32 3078 194 3078 490 
L 3078 580 
C 3078 613 3085 652 3085 691 
C 3085 789 3027 861 2925 861 
C 2829 861 2771 795 2771 704 
L 2771 665 
C 2771 619 2778 574 2778 528 
C 2778 410 2714 267 2586 267 
C 2470 267 2400 377 2400 506 
L 2400 1938 
C 2355 2462 1888 2816 1376 2816 
C 1037 2816 544 2646 544 2216 
C 544 2096 627 2026 730 2026 
C 838 2026 909 2108 909 2208 
L 909 2234 
C 902 2252 890 2277 890 2303 
L 890 2316 
C 934 2473 1248 2523 1370 2523 
C 1632 2523 1888 2397 2016 2158 
C 2086 2026 2093 1882 2093 1744 
L 2093 1625 
z
M 2093 1408 
L 2093 870 
C 2093 434 1702 261 1299 261 
C 1037 261 672 389 672 723 
C 672 1113 1171 1286 1478 1351 
C 1683 1389 1888 1408 2093 1408 
z
" transform="scale(0.015625)"/>
       <path id="SFTT3583-69" d="M 1478 2432 
L 1478 293 
L 813 293 
C 691 293 621 249 621 147 
C 621 77 659 13 736 0 
L 2394 0 
C 2490 0 2554 38 2554 144 
C 2554 249 2470 293 2368 293 
C 2323 293 2278 293 2240 293 
L 1786 293 
L 1786 2548 
C 1786 2713 1715 2732 1613 2732 
L 864 2732 
C 774 2732 666 2719 666 2585 
C 666 2471 749 2432 858 2432 
C 902 2432 954 2432 998 2432 
L 1478 2432 
z
M 1549 3898 
C 1523 3898 1498 3885 1472 3872 
L 1414 3814 
C 1389 3782 1382 3743 1382 3705 
C 1382 3602 1466 3499 1581 3499 
C 1619 3499 1658 3512 1696 3531 
L 1754 3589 
C 1779 3621 1786 3660 1786 3698 
C 1786 3801 1702 3904 1587 3904 
C 1574 3904 1562 3898 1549 3898 
z
" transform="scale(0.015625)"/>
       <path id="SFTT3583-6e" d="M 941 2312 
L 934 2573 
C 934 2688 902 2752 774 2752 
L 346 2752 
C 250 2752 173 2707 173 2605 
C 173 2503 250 2459 352 2459 
L 627 2459 
L 627 293 
L 333 293 
C 237 293 173 236 173 147 
C 173 39 256 0 352 0 
L 1203 0 
C 1299 0 1382 32 1382 147 
C 1382 236 1331 293 1229 293 
L 934 293 
L 934 1641 
C 960 2037 1178 2496 1619 2496 
C 2061 2496 2176 2189 2176 1819 
L 2176 293 
L 1882 293 
C 1786 293 1722 236 1722 147 
C 1722 39 1805 0 1901 0 
L 2752 0 
C 2848 0 2931 32 2931 147 
C 2931 236 2880 293 2778 293 
L 2483 293 
L 2483 1864 
C 2483 2291 2355 2789 1734 2789 
C 1414 2789 1082 2619 941 2312 
z
" transform="scale(0.015625)"/>
       <path id="SFTT3583-63" d="M 1638 2816 
C 896 2701 486 2066 486 1392 
C 486 724 934 -32 1715 -32 
C 2125 -32 2515 146 2694 515 
C 2720 559 2758 642 2758 706 
C 2758 757 2733 789 2688 801 
L 2579 801 
C 2406 801 2387 261 1856 261 
C 1242 261 794 812 794 1394 
C 794 1914 1133 2516 1747 2516 
L 1798 2516 
C 1952 2516 2349 2459 2349 2306 
C 2349 2262 2330 2223 2330 2179 
C 2342 2084 2419 2014 2509 2014 
C 2643 2014 2694 2122 2694 2218 
C 2694 2720 2029 2816 1709 2816 
L 1638 2816 
z
" transform="scale(0.015625)"/>
       <path id="SFTT3583-75" d="M 627 2459 
L 627 1068 
C 627 978 621 876 621 782 
C 621 216 902 -32 1338 -32 
C 1670 -32 2022 127 2170 370 
L 2176 172 
C 2176 64 2214 0 2336 0 
L 2765 0 
C 2861 0 2938 39 2938 147 
C 2938 249 2861 293 2758 293 
L 2483 293 
L 2483 2560 
C 2483 2649 2470 2726 2374 2752 
L 1888 2752 
C 1792 2752 1728 2707 1728 2605 
C 1728 2510 1792 2459 1882 2459 
L 2176 2459 
L 2176 1074 
C 2176 675 1971 268 1459 268 
C 1171 268 934 351 934 783 
L 934 2599 
C 934 2707 877 2752 774 2752 
L 346 2752 
C 250 2752 173 2707 173 2605 
C 173 2503 250 2459 352 2459 
L 627 2459 
z
" transform="scale(0.015625)"/>
       <path id="SFTT3583-79" d="M 2349 2432 
L 1901 1178 
L 1606 292 
L 781 2432 
L 947 2432 
C 1043 2432 1126 2464 1126 2578 
C 1126 2680 1050 2731 954 2731 
C 915 2731 877 2731 845 2731 
L 320 2731 
C 230 2731 134 2718 134 2581 
C 134 2444 224 2432 320 2432 
L 454 2432 
C 531 2432 557 2323 576 2260 
C 858 1527 1165 807 1440 69 
C 1453 44 1466 18 1466 -14 
C 1466 -45 1446 -84 1440 -116 
L 1363 -326 
C 1248 -638 1133 -1128 781 -1179 
L 749 -1179 
C 698 -1179 602 -1167 602 -1097 
C 602 -1084 602 -1071 608 -1058 
C 608 -931 531 -861 422 -861 
C 320 -861 250 -944 250 -1046 
C 250 -1288 467 -1441 678 -1472 
C 1210 -1472 1389 -988 1542 -581 
C 1875 318 2150 1240 2509 2132 
C 2534 2228 2566 2432 2675 2432 
L 2810 2432 
C 2893 2432 2989 2457 2989 2578 
C 2989 2674 2918 2731 2816 2731 
C 2778 2731 2739 2731 2701 2731 
L 2176 2731 
C 2061 2731 1990 2692 1990 2575 
C 1990 2458 2074 2432 2170 2432 
L 2349 2432 
z
" transform="scale(0.015625)"/>
      </defs>
      <use xlink:href="#SFTT3583-74" transform="scale(0.996264)"/>
      <use xlink:href="#SFTT3583-72" transform="translate(48.495008 0) scale(0.996264)"/>
      <use xlink:href="#SFTT3583-61" transform="translate(96.990017 0) scale(0.996264)"/>
      <use xlink:href="#SFTT3583-69" transform="translate(145.485025 0) scale(0.996264)"/>
      <use xlink:href="#SFTT3583-6e" transform="translate(193.980033 0) scale(0.996264)"/>
      <use xlink:href="#SFTT3583-61" transform="translate(290.97005 0) scale(0.996264)"/>
      <use xlink:href="#SFTT3583-63" transform="translate(339.465058 0) scale(0.996264)"/>
      <use xlink:href="#SFTT3583-63" transform="translate(387.960067 0) scale(0.996264)"/>
      <use xlink:href="#SFTT3583-75" transform="translate(436.455075 0) scale(0.996264)"/>
      <use xlink:href="#SFTT3583-72" transform="translate(484.950083 0) scale(0.996264)"/>
      <use xlink:href="#SFTT3583-61" transform="translate(533.445092 0) scale(0.996264)"/>
      <use xlink:href="#SFTT3583-63" transform="translate(581.9401 0) scale(0.996264)"/>
      <use xlink:href="#SFTT3583-79" transform="translate(630.435108 0) scale(0.996264)"/>
     </g>
    </g>
    <g id="line2d_16">
     <path d="M 155.581165 237.999889 
L 179.581165 237.999889 
L 203.581165 237.999889 
" style="fill: none; stroke: #ff7f0e; stroke-width: 1.5; stroke-linecap: square"/>
    </g>
    <g id="text_8">
     <!-- val accuracy -->
     <g transform="translate(222.781165 246.399889) scale(0.24 -0.24)">
      <defs>
       <path id="SFTT3583-76" d="M 2349 2459 
L 1555 205 
L 762 2459 
L 941 2459 
C 1037 2459 1120 2484 1120 2599 
C 1120 2707 1050 2752 947 2752 
L 416 2752 
C 378 2752 339 2752 301 2752 
C 192 2752 122 2696 122 2596 
C 122 2478 218 2459 307 2459 
L 429 2459 
C 550 2459 621 2100 691 1895 
C 896 1331 1107 768 1286 198 
C 1338 63 1376 -32 1536 -32 
L 1581 -32 
C 1766 -32 1792 102 1830 223 
C 2061 909 2310 1587 2547 2267 
L 2586 2382 
C 2605 2446 2624 2459 2682 2459 
L 2803 2459 
C 2893 2459 2989 2478 2989 2596 
C 2989 2696 2918 2752 2810 2752 
C 2771 2752 2733 2752 2694 2752 
L 2163 2752 
C 2061 2752 1990 2707 1990 2599 
C 1990 2484 2074 2459 2170 2459 
L 2349 2459 
z
" transform="scale(0.015625)"/>
       <path id="SFTT3583-6c" d="M 1402 3604 
L 1402 293 
L 877 293 
C 832 293 774 293 723 293 
C 602 293 499 256 499 144 
C 499 38 576 0 672 0 
L 2419 0 
C 2541 0 2605 45 2605 147 
C 2605 223 2560 293 2464 293 
L 1709 293 
L 1709 3745 
C 1709 3891 1619 3904 1523 3904 
L 691 3904 
C 602 3904 506 3891 506 3764 
C 506 3636 595 3604 723 3604 
C 774 3604 832 3604 877 3604 
L 1402 3604 
z
" transform="scale(0.015625)"/>
      </defs>
      <use xlink:href="#SFTT3583-76" transform="scale(0.996264)"/>
      <use xlink:href="#SFTT3583-61" transform="translate(48.495008 0) scale(0.996264)"/>
      <use xlink:href="#SFTT3583-6c" transform="translate(96.990017 0) scale(0.996264)"/>
      <use xlink:href="#SFTT3583-61" transform="translate(193.980033 0) scale(0.996264)"/>
      <use xlink:href="#SFTT3583-63" transform="translate(242.475042 0) scale(0.996264)"/>
      <use xlink:href="#SFTT3583-63" transform="translate(290.97005 0) scale(0.996264)"/>
      <use xlink:href="#SFTT3583-75" transform="translate(339.465058 0) scale(0.996264)"/>
      <use xlink:href="#SFTT3583-72" transform="translate(387.960067 0) scale(0.996264)"/>
      <use xlink:href="#SFTT3583-61" transform="translate(436.455075 0) scale(0.996264)"/>
      <use xlink:href="#SFTT3583-63" transform="translate(484.950083 0) scale(0.996264)"/>
      <use xlink:href="#SFTT3583-79" transform="translate(533.445092 0) scale(0.996264)"/>
     </g>
    </g>
   </g>
  </g>
 </g>
 <defs>
  <clipPath id="pe8fc70ed28">
   <rect x="53.600466" y="7.2" width="357.12" height="266.112"/>
  </clipPath>
 </defs>
</svg>