<?xml version="1.0" encoding="utf-8" standalone="no"?>
<!DOCTYPE svg PUBLIC "-//W3C//DTD SVG 1.1//EN"
  "http://www.w3.org/Graphics/SVG/1.1/DTD/svg11.dtd">
<svg xmlns:xlink="http://www.w3.org/1999/xlink" width="402.374687pt" height="325.986375pt" viewBox="0 0 402.374687 325.986375" xmlns="http://www.w3.org/2000/svg" version="1.1">
 <metadata>
  <rdf:RDF xmlns:dc="http://purl.org/dc/elements/1.1/" xmlns:cc="http://creativecommons.org/ns#" xmlns:rdf="http://www.w3.org/1999/02/22-rdf-syntax-ns#">
   <cc:Work>
    <dc:type rdf:resource="http://purl.org/dc/dcmitype/StillImage"/>
    <dc:date>2024-10-08T20:54:32.162573</dc:date>
    <dc:format>image/svg+xml</dc:format>
    <dc:creator>
     <cc:Agent>
      <dc:title>Matplotlib v3.7.1, https://matplotlib.org/</dc:title>
     </cc:Agent>
    </dc:creator>
   </cc:Work>
  </rdf:RDF>
 </metadata>
 <defs>
  <style type="text/css">*{stroke-linejoin: round; stroke-linecap: butt}</style>
 </defs>
 <g id="figure_1">
  <g id="patch_1">
   <path d="M 0 325.986375 
L 402.374687 325.986375 
L 402.374687 0 
L 0 0 
z
" style="fill: #ffffff"/>
  </g>
  <g id="axes_1">
   <g id="patch_2">
    <path d="M 30.103125 288.430125 
L 387.223125 288.430125 
L 387.223125 22.318125 
L 30.103125 22.318125 
z
" style="fill: #ffffff"/>
   </g>
   <g id="matplotlib.axis_1">
    <g id="xtick_1">
     <g id="line2d_1">
      <path d="M 30.103125 288.430125 
L 30.103125 22.318125 
" clip-path="url(#p447821cb39)" style="fill: none; stroke-dasharray: 0.8,1.32; stroke-dashoffset: 0; stroke: #b0b0b0; stroke-width: 0.8"/>
     </g>
     <g id="line2d_2">
      <defs>
       <path id="m948f75a2a6" d="M 0 0 
L 0 3.5 
" style="stroke: #000000; stroke-width: 0.8"/>
      </defs>
      <g>
       <use xlink:href="#m948f75a2a6" x="30.103125" y="288.430125" style="stroke: #000000; stroke-width: 0.8"/>
      </g>
     </g>
     <g id="text_1">
      <!-- 0.0 -->
      <g transform="translate(22.151563 303.028562) scale(0.1 -0.1)">
       <defs>
        <path id="DejaVuSans-30" d="M 2034 4250 
Q 1547 4250 1301 3770 
Q 1056 3291 1056 2328 
Q 1056 1369 1301 889 
Q 1547 409 2034 409 
Q 2525 409 2770 889 
Q 3016 1369 3016 2328 
Q 3016 3291 2770 3770 
Q 2525 4250 2034 4250 
z
M 2034 4750 
Q 2819 4750 3233 4129 
Q 3647 3509 3647 2328 
Q 3647 1150 3233 529 
Q 2819 -91 2034 -91 
Q 1250 -91 836 529 
Q 422 1150 422 2328 
Q 422 3509 836 4129 
Q 1250 4750 2034 4750 
z
" transform="scale(0.015625)"/>
        <path id="DejaVuSans-2e" d="M 684 794 
L 1344 794 
L 1344 0 
L 684 0 
L 684 794 
z
" transform="scale(0.015625)"/>
       </defs>
       <use xlink:href="#DejaVuSans-30"/>
       <use xlink:href="#DejaVuSans-2e" x="63.623047"/>
       <use xlink:href="#DejaVuSans-30" x="95.410156"/>
      </g>
     </g>
    </g>
    <g id="xtick_2">
     <g id="line2d_3">
      <path d="M 101.527125 288.430125 
L 101.527125 22.318125 
" clip-path="url(#p447821cb39)" style="fill: none; stroke-dasharray: 0.8,1.32; stroke-dashoffset: 0; stroke: #b0b0b0; stroke-width: 0.8"/>
     </g>
     <g id="line2d_4">
      <g>
       <use xlink:href="#m948f75a2a6" x="101.527125" y="288.430125" style="stroke: #000000; stroke-width: 0.8"/>
      </g>
     </g>
     <g id="text_2">
      <!-- 0.2 -->
      <g transform="translate(93.575563 303.028562) scale(0.1 -0.1)">
       <defs>
        <path id="DejaVuSans-32" d="M 1228 531 
L 3431 531 
L 3431 0 
L 469 0 
L 469 531 
Q 828 903 1448 1529 
Q 2069 2156 2228 2338 
Q 2531 2678 2651 2914 
Q 2772 3150 2772 3378 
Q 2772 3750 2511 3984 
Q 2250 4219 1831 4219 
Q 1534 4219 1204 4116 
Q 875 4013 500 3803 
L 500 4441 
Q 881 4594 1212 4672 
Q 1544 4750 1819 4750 
Q 2544 4750 2975 4387 
Q 3406 4025 3406 3419 
Q 3406 3131 3298 2873 
Q 3191 2616 2906 2266 
Q 2828 2175 2409 1742 
Q 1991 1309 1228 531 
z
" transform="scale(0.015625)"/>
       </defs>
       <use xlink:href="#DejaVuSans-30"/>
       <use xlink:href="#DejaVuSans-2e" x="63.623047"/>
       <use xlink:href="#DejaVuSans-32" x="95.410156"/>
      </g>
     </g>
    </g>
    <g id="xtick_3">
     <g id="line2d_5">
      <path d="M 172.951125 288.430125 
L 172.951125 22.318125 
" clip-path="url(#p447821cb39)" style="fill: none; stroke-dasharray: 0.8,1.32; stroke-dashoffset: 0; stroke: #b0b0b0; stroke-width: 0.8"/>
     </g>
     <g id="line2d_6">
      <g>
       <use xlink:href="#m948f75a2a6" x="172.951125" y="288.430125" style="stroke: #000000; stroke-width: 0.8"/>
      </g>
     </g>
     <g id="text_3">
      <!-- 0.4 -->
      <g transform="translate(164.999563 303.028562) scale(0.1 -0.1)">
       <defs>
        <path id="DejaVuSans-34" d="M 2419 4116 
L 825 1625 
L 2419 1625 
L 2419 4116 
z
M 2253 4666 
L 3047 4666 
L 3047 1625 
L 3713 1625 
L 3713 1100 
L 3047 1100 
L 3047 0 
L 2419 0 
L 2419 1100 
L 313 1100 
L 313 1709 
L 2253 4666 
z
" transform="scale(0.015625)"/>
       </defs>
       <use xlink:href="#DejaVuSans-30"/>
       <use xlink:href="#DejaVuSans-2e" x="63.623047"/>
       <use xlink:href="#DejaVuSans-34" x="95.410156"/>
      </g>
     </g>
    </g>
    <g id="xtick_4">
     <g id="line2d_7">
      <path d="M 244.375125 288.430125 
L 244.375125 22.318125 
" clip-path="url(#p447821cb39)" style="fill: none; stroke-dasharray: 0.8,1.32; stroke-dashoffset: 0; stroke: #b0b0b0; stroke-width: 0.8"/>
     </g>
     <g id="line2d_8">
      <g>
       <use xlink:href="#m948f75a2a6" x="244.375125" y="288.430125" style="stroke: #000000; stroke-width: 0.8"/>
      </g>
     </g>
     <g id="text_4">
      <!-- 0.6 -->
      <g transform="translate(236.423563 303.028562) scale(0.1 -0.1)">
       <defs>
        <path id="DejaVuSans-36" d="M 2113 2584 
Q 1688 2584 1439 2293 
Q 1191 2003 1191 1497 
Q 1191 994 1439 701 
Q 1688 409 2113 409 
Q 2538 409 2786 701 
Q 3034 994 3034 1497 
Q 3034 2003 2786 2293 
Q 2538 2584 2113 2584 
z
M 3366 4563 
L 3366 3988 
Q 3128 4100 2886 4159 
Q 2644 4219 2406 4219 
Q 1781 4219 1451 3797 
Q 1122 3375 1075 2522 
Q 1259 2794 1537 2939 
Q 1816 3084 2150 3084 
Q 2853 3084 3261 2657 
Q 3669 2231 3669 1497 
Q 3669 778 3244 343 
Q 2819 -91 2113 -91 
Q 1303 -91 875 529 
Q 447 1150 447 2328 
Q 447 3434 972 4092 
Q 1497 4750 2381 4750 
Q 2619 4750 2861 4703 
Q 3103 4656 3366 4563 
z
" transform="scale(0.015625)"/>
       </defs>
       <use xlink:href="#DejaVuSans-30"/>
       <use xlink:href="#DejaVuSans-2e" x="63.623047"/>
       <use xlink:href="#DejaVuSans-36" x="95.410156"/>
      </g>
     </g>
    </g>
    <g id="xtick_5">
     <g id="line2d_9">
      <path d="M 315.799125 288.430125 
L 315.799125 22.318125 
" clip-path="url(#p447821cb39)" style="fill: none; stroke-dasharray: 0.8,1.32; stroke-dashoffset: 0; stroke: #b0b0b0; stroke-width: 0.8"/>
     </g>
     <g id="line2d_10">
      <g>
       <use xlink:href="#m948f75a2a6" x="315.799125" y="288.430125" style="stroke: #000000; stroke-width: 0.8"/>
      </g>
     </g>
     <g id="text_5">
      <!-- 0.8 -->
      <g transform="translate(307.847562 303.028562) scale(0.1 -0.1)">
       <defs>
        <path id="DejaVuSans-38" d="M 2034 2216 
Q 1584 2216 1326 1975 
Q 1069 1734 1069 1313 
Q 1069 891 1326 650 
Q 1584 409 2034 409 
Q 2484 409 2743 651 
Q 3003 894 3003 1313 
Q 3003 1734 2745 1975 
Q 2488 2216 2034 2216 
z
M 1403 2484 
Q 997 2584 770 2862 
Q 544 3141 544 3541 
Q 544 4100 942 4425 
Q 1341 4750 2034 4750 
Q 2731 4750 3128 4425 
Q 3525 4100 3525 3541 
Q 3525 3141 3298 2862 
Q 3072 2584 2669 2484 
Q 3125 2378 3379 2068 
Q 3634 1759 3634 1313 
Q 3634 634 3220 271 
Q 2806 -91 2034 -91 
Q 1263 -91 848 271 
Q 434 634 434 1313 
Q 434 1759 690 2068 
Q 947 2378 1403 2484 
z
M 1172 3481 
Q 1172 3119 1398 2916 
Q 1625 2713 2034 2713 
Q 2441 2713 2670 2916 
Q 2900 3119 2900 3481 
Q 2900 3844 2670 4047 
Q 2441 4250 2034 4250 
Q 1625 4250 1398 4047 
Q 1172 3844 1172 3481 
z
" transform="scale(0.015625)"/>
       </defs>
       <use xlink:href="#DejaVuSans-30"/>
       <use xlink:href="#DejaVuSans-2e" x="63.623047"/>
       <use xlink:href="#DejaVuSans-38" x="95.410156"/>
      </g>
     </g>
    </g>
    <g id="xtick_6">
     <g id="line2d_11">
      <path d="M 387.223125 288.430125 
L 387.223125 22.318125 
" clip-path="url(#p447821cb39)" style="fill: none; stroke-dasharray: 0.8,1.32; stroke-dashoffset: 0; stroke: #b0b0b0; stroke-width: 0.8"/>
     </g>
     <g id="line2d_12">
      <g>
       <use xlink:href="#m948f75a2a6" x="387.223125" y="288.430125" style="stroke: #000000; stroke-width: 0.8"/>
      </g>
     </g>
     <g id="text_6">
      <!-- 1.0 -->
      <g transform="translate(379.271562 303.028562) scale(0.1 -0.1)">
       <defs>
        <path id="DejaVuSans-31" d="M 794 531 
L 1825 531 
L 1825 4091 
L 703 3866 
L 703 4441 
L 1819 4666 
L 2450 4666 
L 2450 531 
L 3481 531 
L 3481 0 
L 794 0 
L 794 531 
z
" transform="scale(0.015625)"/>
       </defs>
       <use xlink:href="#DejaVuSans-31"/>
       <use xlink:href="#DejaVuSans-2e" x="63.623047"/>
       <use xlink:href="#DejaVuSans-30" x="95.410156"/>
      </g>
     </g>
    </g>
    <g id="text_7">
     <!-- $p$ -->
     <g transform="translate(205.463125 316.686375) scale(0.1 -0.1)">
      <defs>
       <path id="DejaVuSans-Oblique-70" d="M 3175 2156 
Q 3175 2616 2975 2859 
Q 2775 3103 2400 3103 
Q 2144 3103 1911 2972 
Q 1678 2841 1497 2591 
Q 1319 2344 1212 1994 
Q 1106 1644 1106 1300 
Q 1106 863 1306 627 
Q 1506 391 1875 391 
Q 2147 391 2380 519 
Q 2613 647 2778 891 
Q 2956 1147 3065 1494 
Q 3175 1841 3175 2156 
z
M 1394 2969 
Q 1625 3272 1939 3428 
Q 2253 3584 2638 3584 
Q 3175 3584 3472 3232 
Q 3769 2881 3769 2247 
Q 3769 1728 3584 1258 
Q 3400 788 3053 416 
Q 2822 169 2531 39 
Q 2241 -91 1919 -91 
Q 1547 -91 1294 64 
Q 1041 219 916 525 
L 556 -1331 
L -19 -1331 
L 922 3500 
L 1497 3500 
L 1394 2969 
z
" transform="scale(0.015625)"/>
      </defs>
      <use xlink:href="#DejaVuSans-Oblique-70"/>
     </g>
    </g>
   </g>
   <g id="matplotlib.axis_2">
    <g id="ytick_1">
     <g id="line2d_13">
      <path d="M 30.103125 276.334125 
L 387.223125 276.334125 
" clip-path="url(#p447821cb39)" style="fill: none; stroke-dasharray: 0.8,1.32; stroke-dashoffset: 0; stroke: #b0b0b0; stroke-width: 0.8"/>
     </g>
     <g id="line2d_14">
      <defs>
       <path id="ma0286391a8" d="M 0 0 
L -3.5 0 
" style="stroke: #000000; stroke-width: 0.8"/>
      </defs>
      <g>
       <use xlink:href="#ma0286391a8" x="30.103125" y="276.334125" style="stroke: #000000; stroke-width: 0.8"/>
      </g>
     </g>
     <g id="text_8">
      <!-- 0.0 -->
      <g transform="translate(7.2 280.133344) scale(0.1 -0.1)">
       <use xlink:href="#DejaVuSans-30"/>
       <use xlink:href="#DejaVuSans-2e" x="63.623047"/>
       <use xlink:href="#DejaVuSans-30" x="95.410156"/>
      </g>
     </g>
    </g>
    <g id="ytick_2">
     <g id="line2d_15">
      <path d="M 30.103125 227.950125 
L 387.223125 227.950125 
" clip-path="url(#p447821cb39)" style="fill: none; stroke-dasharray: 0.8,1.32; stroke-dashoffset: 0; stroke: #b0b0b0; stroke-width: 0.8"/>
     </g>
     <g id="line2d_16">
      <g>
       <use xlink:href="#ma0286391a8" x="30.103125" y="227.950125" style="stroke: #000000; stroke-width: 0.8"/>
      </g>
     </g>
     <g id="text_9">
      <!-- 0.2 -->
      <g transform="translate(7.2 231.749344) scale(0.1 -0.1)">
       <use xlink:href="#DejaVuSans-30"/>
       <use xlink:href="#DejaVuSans-2e" x="63.623047"/>
       <use xlink:href="#DejaVuSans-32" x="95.410156"/>
      </g>
     </g>
    </g>
    <g id="ytick_3">
     <g id="line2d_17">
      <path d="M 30.103125 179.566125 
L 387.223125 179.566125 
" clip-path="url(#p447821cb39)" style="fill: none; stroke-dasharray: 0.8,1.32; stroke-dashoffset: 0; stroke: #b0b0b0; stroke-width: 0.8"/>
     </g>
     <g id="line2d_18">
      <g>
       <use xlink:href="#ma0286391a8" x="30.103125" y="179.566125" style="stroke: #000000; stroke-width: 0.8"/>
      </g>
     </g>
     <g id="text_10">
      <!-- 0.4 -->
      <g transform="translate(7.2 183.365344) scale(0.1 -0.1)">
       <use xlink:href="#DejaVuSans-30"/>
       <use xlink:href="#DejaVuSans-2e" x="63.623047"/>
       <use xlink:href="#DejaVuSans-34" x="95.410156"/>
      </g>
     </g>
    </g>
    <g id="ytick_4">
     <g id="line2d_19">
      <path d="M 30.103125 131.182125 
L 387.223125 131.182125 
" clip-path="url(#p447821cb39)" style="fill: none; stroke-dasharray: 0.8,1.32; stroke-dashoffset: 0; stroke: #b0b0b0; stroke-width: 0.8"/>
     </g>
     <g id="line2d_20">
      <g>
       <use xlink:href="#ma0286391a8" x="30.103125" y="131.182125" style="stroke: #000000; stroke-width: 0.8"/>
      </g>
     </g>
     <g id="text_11">
      <!-- 0.6 -->
      <g transform="translate(7.2 134.981344) scale(0.1 -0.1)">
       <use xlink:href="#DejaVuSans-30"/>
       <use xlink:href="#DejaVuSans-2e" x="63.623047"/>
       <use xlink:href="#DejaVuSans-36" x="95.410156"/>
      </g>
     </g>
    </g>
    <g id="ytick_5">
     <g id="line2d_21">
      <path d="M 30.103125 82.798125 
L 387.223125 82.798125 
" clip-path="url(#p447821cb39)" style="fill: none; stroke-dasharray: 0.8,1.32; stroke-dashoffset: 0; stroke: #b0b0b0; stroke-width: 0.8"/>
     </g>
     <g id="line2d_22">
      <g>
       <use xlink:href="#ma0286391a8" x="30.103125" y="82.798125" style="stroke: #000000; stroke-width: 0.8"/>
      </g>
     </g>
     <g id="text_12">
      <!-- 0.8 -->
      <g transform="translate(7.2 86.597344) scale(0.1 -0.1)">
       <use xlink:href="#DejaVuSans-30"/>
       <use xlink:href="#DejaVuSans-2e" x="63.623047"/>
       <use xlink:href="#DejaVuSans-38" x="95.410156"/>
      </g>
     </g>
    </g>
    <g id="ytick_6">
     <g id="line2d_23">
      <path d="M 30.103125 34.414125 
L 387.223125 34.414125 
" clip-path="url(#p447821cb39)" style="fill: none; stroke-dasharray: 0.8,1.32; stroke-dashoffset: 0; stroke: #b0b0b0; stroke-width: 0.8"/>
     </g>
     <g id="line2d_24">
      <g>
       <use xlink:href="#ma0286391a8" x="30.103125" y="34.414125" style="stroke: #000000; stroke-width: 0.8"/>
      </g>
     </g>
     <g id="text_13">
      <!-- 1.0 -->
      <g transform="translate(7.2 38.213344) scale(0.1 -0.1)">
       <use xlink:href="#DejaVuSans-31"/>
       <use xlink:href="#DejaVuSans-2e" x="63.623047"/>
       <use xlink:href="#DejaVuSans-30" x="95.410156"/>
      </g>
     </g>
    </g>
   </g>
   <g id="line2d_25">
    <path d="M 30.103125 276.334125 
L 33.674325 273.914925 
L 37.245525 271.495725 
L 40.816725 269.076525 
L 44.387925 266.657325 
L 47.959125 264.238125 
L 51.530325 261.818925 
L 55.101525 259.399725 
L 58.672725 256.980525 
L 62.243925 254.561325 
L 65.815125 252.142125 
L 69.386325 249.722925 
L 72.957525 247.303725 
L 76.528725 244.884525 
L 80.099925 242.465325 
L 83.671125 240.046125 
L 87.242325 237.626925 
L 90.813525 235.207725 
L 94.384725 232.788525 
L 97.955925 230.369325 
L 101.527125 227.950125 
L 105.098325 225.530925 
L 108.669525 223.111725 
L 112.240725 220.692525 
L 115.811925 218.273325 
L 119.383125 215.854125 
L 122.954325 213.434925 
L 126.525525 211.015725 
L 130.096725 208.596525 
L 133.667925 206.177325 
L 137.239125 203.758125 
L 140.810325 201.338925 
L 144.381525 198.919725 
L 147.952725 196.500525 
L 151.523925 194.081325 
L 155.095125 191.662125 
L 158.666325 189.242925 
L 162.237525 186.823725 
L 165.808725 184.404525 
L 169.379925 181.985325 
L 172.951125 179.566125 
L 176.522325 177.146925 
L 180.093525 174.727725 
L 183.664725 172.308525 
L 187.235925 169.889325 
L 190.807125 167.470125 
L 194.378325 165.050925 
L 197.949525 162.631725 
L 201.520725 160.212525 
L 205.091925 157.793325 
L 208.663125 155.374125 
L 212.234325 152.954925 
L 215.805525 150.535725 
L 219.376725 148.116525 
L 222.947925 145.697325 
L 226.519125 143.278125 
L 230.090325 140.858925 
L 233.661525 138.439725 
L 237.232725 136.020525 
L 240.803925 133.601325 
L 244.375125 131.182125 
L 247.946325 128.762925 
L 251.517525 126.343725 
L 255.088725 123.924525 
L 258.659925 121.505325 
L 262.231125 119.086125 
L 265.802325 116.666925 
L 269.373525 114.247725 
L 272.944725 111.828525 
L 276.515925 109.409325 
L 280.087125 106.990125 
L 283.658325 104.570925 
L 287.229525 102.151725 
L 290.800725 99.732525 
L 294.371925 97.313325 
L 297.943125 94.894125 
L 301.514325 92.474925 
L 305.085525 90.055725 
L 308.656725 87.636525 
L 312.227925 85.217325 
L 315.799125 82.798125 
L 319.370325 80.378925 
L 322.941525 77.959725 
L 326.512725 75.540525 
L 330.083925 73.121325 
L 333.655125 70.702125 
L 337.226325 68.282925 
L 340.797525 65.863725 
L 344.368725 63.444525 
L 347.939925 61.025325 
L 351.511125 58.606125 
L 355.082325 56.186925 
L 358.653525 53.767725 
L 362.224725 51.348525 
L 365.795925 48.929325 
L 369.367125 46.510125 
L 372.938325 44.090925 
L 376.509525 41.671725 
L 380.080725 39.252525 
L 383.651925 36.833325 
L 387.223125 34.414125 
" clip-path="url(#p447821cb39)" style="fill: none; stroke: #ff0000; stroke-width: 2; stroke-linecap: square"/>
   </g>
   <g id="line2d_26">
    <path d="M 30.103125 276.334125 
L 33.674325 273.939117 
L 37.245525 271.592493 
L 40.816725 269.294253 
L 44.387925 267.044397 
L 47.959125 264.842925 
L 51.530325 262.689837 
L 55.101525 260.585133 
L 58.672725 258.528813 
L 62.243925 256.520877 
L 65.815125 254.561325 
L 69.386325 252.650157 
L 72.957525 250.787373 
L 76.528725 248.972973 
L 80.099925 247.206957 
L 83.671125 245.489325 
L 87.242325 243.820077 
L 90.813525 242.199213 
L 94.384725 240.626733 
L 97.955925 239.102637 
L 101.527125 237.626925 
L 105.098325 236.199597 
L 108.669525 234.820653 
L 112.240725 233.490093 
L 115.811925 232.207917 
L 119.383125 230.974125 
L 122.954325 229.788717 
L 126.525525 228.651693 
L 130.096725 227.563053 
L 133.667925 226.522797 
L 137.239125 225.530925 
L 140.810325 224.587437 
L 144.381525 223.692333 
L 147.952725 222.845613 
L 151.523925 222.047277 
L 155.095125 221.297325 
L 158.666325 220.595757 
L 162.237525 219.942573 
L 165.808725 219.337773 
L 169.379925 218.781357 
L 172.951125 218.273325 
L 176.522325 217.813677 
L 180.093525 217.402413 
L 183.664725 217.039533 
L 187.235925 216.725037 
L 190.807125 216.458925 
L 194.378325 216.241197 
L 197.949525 216.071853 
L 201.520725 215.950893 
L 205.091925 215.878317 
L 208.663125 215.854125 
L 212.234325 215.878317 
L 215.805525 215.950893 
L 219.376725 216.071853 
L 222.947925 216.241197 
L 226.519125 216.458925 
L 230.090325 216.725037 
L 233.661525 217.039533 
L 237.232725 217.402413 
L 240.803925 217.813677 
L 244.375125 218.273325 
L 247.946325 218.781357 
L 251.517525 219.337773 
L 255.088725 219.942573 
L 258.659925 220.595757 
L 262.231125 221.297325 
L 265.802325 222.047277 
L 269.373525 222.845613 
L 272.944725 223.692333 
L 276.515925 224.587437 
L 280.087125 225.530925 
L 283.658325 226.522797 
L 287.229525 227.563053 
L 290.800725 228.651693 
L 294.371925 229.788717 
L 297.943125 230.974125 
L 301.514325 232.207917 
L 305.085525 233.490093 
L 308.656725 234.820653 
L 312.227925 236.199597 
L 315.799125 237.626925 
L 319.370325 239.102637 
L 322.941525 240.626733 
L 326.512725 242.199213 
L 330.083925 243.820077 
L 333.655125 245.489325 
L 337.226325 247.206957 
L 340.797525 248.972973 
L 344.368725 250.787373 
L 347.939925 252.650157 
L 351.511125 254.561325 
L 355.082325 256.520877 
L 358.653525 258.528813 
L 362.224725 260.585133 
L 365.795925 262.689837 
L 369.367125 264.842925 
L 372.938325 267.044397 
L 376.509525 269.294253 
L 380.080725 271.592493 
L 383.651925 273.939117 
L 387.223125 276.334125 
" clip-path="url(#p447821cb39)" style="fill: none; stroke: #0000ff; stroke-width: 2; stroke-linecap: square"/>
   </g>
   <g id="line2d_27">
    <path d="M 30.103125 276.334125 
L 33.674325 252.263389 
L 37.245525 242.465325 
L 40.816725 235.065664 
L 44.387925 228.92768 
L 47.959125 223.608883 
L 51.530325 218.881308 
L 55.101525 214.608959 
L 58.672725 210.702874 
L 62.243925 207.101034 
L 65.815125 203.758125 
L 69.386325 200.639835 
L 72.957525 197.71943 
L 76.528725 194.975598 
L 80.099925 192.391022 
L 83.671125 189.951407 
L 87.242325 187.644788 
L 90.813525 185.461038 
L 94.384725 183.391496 
L 97.955925 181.42869 
L 101.527125 179.566125 
L 105.098325 177.798116 
L 108.669525 176.119659 
L 112.240725 174.526325 
L 115.811925 173.014174 
L 119.383125 171.579692 
L 122.954325 170.219729 
L 126.525525 168.931453 
L 130.096725 167.712314 
L 133.667925 166.560009 
L 137.239125 165.472454 
L 140.810325 164.44776 
L 144.381525 163.484214 
L 147.952725 162.580264 
L 151.523925 161.734499 
L 155.095125 160.945639 
L 158.666325 160.212525 
L 162.237525 159.534107 
L 165.808725 158.909436 
L 169.379925 158.33766 
L 172.951125 157.818013 
L 176.522325 157.349812 
L 180.093525 156.932451 
L 183.664725 156.565399 
L 187.235925 156.248195 
L 190.807125 155.980445 
L 194.378325 155.761818 
L 197.949525 155.592049 
L 201.520725 155.470932 
L 205.091925 155.398319 
L 208.663125 155.374125 
L 212.234325 155.398319 
L 215.805525 155.470932 
L 219.376725 155.592049 
L 222.947925 155.761818 
L 226.519125 155.980445 
L 230.090325 156.248195 
L 233.661525 156.565399 
L 237.232725 156.932451 
L 240.803925 157.349812 
L 244.375125 157.818013 
L 247.946325 158.33766 
L 251.517525 158.909436 
L 255.088725 159.534107 
L 258.659925 160.212525 
L 262.231125 160.945639 
L 265.802325 161.734499 
L 269.373525 162.580264 
L 272.944725 163.484214 
L 276.515925 164.44776 
L 280.087125 165.472454 
L 283.658325 166.560009 
L 287.229525 167.712314 
L 290.800725 168.931453 
L 294.371925 170.219729 
L 297.943125 171.579692 
L 301.514325 173.014174 
L 305.085525 174.526325 
L 308.656725 176.119659 
L 312.227925 177.798116 
L 315.799125 179.566125 
L 319.370325 181.42869 
L 322.941525 183.391496 
L 326.512725 185.461038 
L 330.083925 187.644788 
L 333.655125 189.951407 
L 337.226325 192.391022 
L 340.797525 194.975598 
L 344.368725 197.71943 
L 347.939925 200.639835 
L 351.511125 203.758125 
L 355.082325 207.101034 
L 358.653525 210.702874 
L 362.224725 214.608959 
L 365.795925 218.881308 
L 369.367125 223.608883 
L 372.938325 228.92768 
L 376.509525 235.065664 
L 380.080725 242.465325 
L 383.651925 252.263389 
L 387.223125 276.334125 
" clip-path="url(#p447821cb39)" style="fill: none; stroke: #008000; stroke-width: 2; stroke-linecap: square"/>
   </g>
   <g id="line2d_28">
    <path d="M 30.103125 276.334125 
L 33.674325 276.334125 
L 37.245525 276.334125 
L 40.816725 276.334125 
L 44.387925 276.334125 
L 47.959125 276.334125 
L 51.530325 276.334125 
L 55.101525 276.334125 
L 58.672725 276.334125 
L 62.243925 276.334125 
L 65.815125 276.334125 
L 69.386325 276.334125 
L 72.957525 276.334125 
L 76.528725 276.334125 
L 80.099925 276.334125 
L 83.671125 276.334125 
L 87.242325 276.334125 
L 90.813525 276.334125 
L 94.384725 276.334125 
L 97.955925 276.334125 
L 101.527125 276.334125 
L 105.098325 276.334125 
L 108.669525 276.334125 
L 112.240725 276.334125 
L 115.811925 276.334125 
L 119.383125 276.334125 
L 122.954325 276.334125 
L 126.525525 276.334125 
L 130.096725 276.334125 
L 133.667925 276.334125 
L 137.239125 276.334125 
L 140.810325 276.334125 
L 144.381525 276.334125 
L 147.952725 276.334125 
L 151.523925 276.334125 
L 155.095125 276.334125 
L 158.666325 276.334125 
L 162.237525 276.334125 
L 165.808725 276.334125 
L 169.379925 276.334125 
L 172.951125 276.334125 
L 176.522325 276.334125 
L 180.093525 276.334125 
L 183.664725 276.334125 
L 187.235925 276.334125 
L 190.807125 276.334125 
L 194.378325 276.334125 
L 197.949525 276.334125 
L 201.520725 276.334125 
L 205.091925 276.334125 
L 208.663125 276.334125 
L 212.234325 34.414125 
L 215.805525 34.414125 
L 219.376725 34.414125 
L 222.947925 34.414125 
L 226.519125 34.414125 
L 230.090325 34.414125 
L 233.661525 34.414125 
L 237.232725 34.414125 
L 240.803925 34.414125 
L 244.375125 34.414125 
L 247.946325 34.414125 
L 251.517525 34.414125 
L 255.088725 34.414125 
L 258.659925 34.414125 
L 262.231125 34.414125 
L 265.802325 34.414125 
L 269.373525 34.414125 
L 272.944725 34.414125 
L 276.515925 34.414125 
L 280.087125 34.414125 
L 283.658325 34.414125 
L 287.229525 34.414125 
L 290.800725 34.414125 
L 294.371925 34.414125 
L 297.943125 34.414125 
L 301.514325 34.414125 
L 305.085525 34.414125 
L 308.656725 34.414125 
L 312.227925 34.414125 
L 315.799125 34.414125 
L 319.370325 34.414125 
L 322.941525 34.414125 
L 326.512725 34.414125 
L 330.083925 34.414125 
L 333.655125 34.414125 
L 337.226325 34.414125 
L 340.797525 34.414125 
L 344.368725 34.414125 
L 347.939925 34.414125 
L 351.511125 34.414125 
L 355.082325 34.414125 
L 358.653525 34.414125 
L 362.224725 34.414125 
L 365.795925 34.414125 
L 369.367125 34.414125 
L 372.938325 34.414125 
L 376.509525 34.414125 
L 380.080725 34.414125 
L 383.651925 34.414125 
L 387.223125 34.414125 
" clip-path="url(#p447821cb39)" style="fill: none; stroke: #bf00bf; stroke-width: 2; stroke-linecap: square"/>
   </g>
   <g id="patch_3">
    <path d="M 30.103125 288.430125 
L 30.103125 22.318125 
" style="fill: none; stroke: #000000; stroke-width: 0.8; stroke-linejoin: miter; stroke-linecap: square"/>
   </g>
   <g id="patch_4">
    <path d="M 387.223125 288.430125 
L 387.223125 22.318125 
" style="fill: none; stroke: #000000; stroke-width: 0.8; stroke-linejoin: miter; stroke-linecap: square"/>
   </g>
   <g id="patch_5">
    <path d="M 30.103125 288.430125 
L 387.223125 288.430125 
" style="fill: none; stroke: #000000; stroke-width: 0.8; stroke-linejoin: miter; stroke-linecap: square"/>
   </g>
   <g id="patch_6">
    <path d="M 30.103125 22.318125 
L 387.223125 22.318125 
" style="fill: none; stroke: #000000; stroke-width: 0.8; stroke-linejoin: miter; stroke-linecap: square"/>
   </g>
   <g id="text_14">
    <!-- Bernoulli distribution -->
    <g transform="translate(146.117813 16.318125) scale(0.12 -0.12)">
     <defs>
      <path id="DejaVuSans-42" d="M 1259 2228 
L 1259 519 
L 2272 519 
Q 2781 519 3026 730 
Q 3272 941 3272 1375 
Q 3272 1813 3026 2020 
Q 2781 2228 2272 2228 
L 1259 2228 
z
M 1259 4147 
L 1259 2741 
L 2194 2741 
Q 2656 2741 2882 2914 
Q 3109 3088 3109 3444 
Q 3109 3797 2882 3972 
Q 2656 4147 2194 4147 
L 1259 4147 
z
M 628 4666 
L 2241 4666 
Q 2963 4666 3353 4366 
Q 3744 4066 3744 3513 
Q 3744 3084 3544 2831 
Q 3344 2578 2956 2516 
Q 3422 2416 3680 2098 
Q 3938 1781 3938 1306 
Q 3938 681 3513 340 
Q 3088 0 2303 0 
L 628 0 
L 628 4666 
z
" transform="scale(0.015625)"/>
      <path id="DejaVuSans-65" d="M 3597 1894 
L 3597 1613 
L 953 1613 
Q 991 1019 1311 708 
Q 1631 397 2203 397 
Q 2534 397 2845 478 
Q 3156 559 3463 722 
L 3463 178 
Q 3153 47 2828 -22 
Q 2503 -91 2169 -91 
Q 1331 -91 842 396 
Q 353 884 353 1716 
Q 353 2575 817 3079 
Q 1281 3584 2069 3584 
Q 2775 3584 3186 3129 
Q 3597 2675 3597 1894 
z
M 3022 2063 
Q 3016 2534 2758 2815 
Q 2500 3097 2075 3097 
Q 1594 3097 1305 2825 
Q 1016 2553 972 2059 
L 3022 2063 
z
" transform="scale(0.015625)"/>
      <path id="DejaVuSans-72" d="M 2631 2963 
Q 2534 3019 2420 3045 
Q 2306 3072 2169 3072 
Q 1681 3072 1420 2755 
Q 1159 2438 1159 1844 
L 1159 0 
L 581 0 
L 581 3500 
L 1159 3500 
L 1159 2956 
Q 1341 3275 1631 3429 
Q 1922 3584 2338 3584 
Q 2397 3584 2469 3576 
Q 2541 3569 2628 3553 
L 2631 2963 
z
" transform="scale(0.015625)"/>
      <path id="DejaVuSans-6e" d="M 3513 2113 
L 3513 0 
L 2938 0 
L 2938 2094 
Q 2938 2591 2744 2837 
Q 2550 3084 2163 3084 
Q 1697 3084 1428 2787 
Q 1159 2491 1159 1978 
L 1159 0 
L 581 0 
L 581 3500 
L 1159 3500 
L 1159 2956 
Q 1366 3272 1645 3428 
Q 1925 3584 2291 3584 
Q 2894 3584 3203 3211 
Q 3513 2838 3513 2113 
z
" transform="scale(0.015625)"/>
      <path id="DejaVuSans-6f" d="M 1959 3097 
Q 1497 3097 1228 2736 
Q 959 2375 959 1747 
Q 959 1119 1226 758 
Q 1494 397 1959 397 
Q 2419 397 2687 759 
Q 2956 1122 2956 1747 
Q 2956 2369 2687 2733 
Q 2419 3097 1959 3097 
z
M 1959 3584 
Q 2709 3584 3137 3096 
Q 3566 2609 3566 1747 
Q 3566 888 3137 398 
Q 2709 -91 1959 -91 
Q 1206 -91 779 398 
Q 353 888 353 1747 
Q 353 2609 779 3096 
Q 1206 3584 1959 3584 
z
" transform="scale(0.015625)"/>
      <path id="DejaVuSans-75" d="M 544 1381 
L 544 3500 
L 1119 3500 
L 1119 1403 
Q 1119 906 1312 657 
Q 1506 409 1894 409 
Q 2359 409 2629 706 
Q 2900 1003 2900 1516 
L 2900 3500 
L 3475 3500 
L 3475 0 
L 2900 0 
L 2900 538 
Q 2691 219 2414 64 
Q 2138 -91 1772 -91 
Q 1169 -91 856 284 
Q 544 659 544 1381 
z
M 1991 3584 
L 1991 3584 
z
" transform="scale(0.015625)"/>
      <path id="DejaVuSans-6c" d="M 603 4863 
L 1178 4863 
L 1178 0 
L 603 0 
L 603 4863 
z
" transform="scale(0.015625)"/>
      <path id="DejaVuSans-69" d="M 603 3500 
L 1178 3500 
L 1178 0 
L 603 0 
L 603 3500 
z
M 603 4863 
L 1178 4863 
L 1178 4134 
L 603 4134 
L 603 4863 
z
" transform="scale(0.015625)"/>
      <path id="DejaVuSans-20" transform="scale(0.015625)"/>
      <path id="DejaVuSans-64" d="M 2906 2969 
L 2906 4863 
L 3481 4863 
L 3481 0 
L 2906 0 
L 2906 525 
Q 2725 213 2448 61 
Q 2172 -91 1784 -91 
Q 1150 -91 751 415 
Q 353 922 353 1747 
Q 353 2572 751 3078 
Q 1150 3584 1784 3584 
Q 2172 3584 2448 3432 
Q 2725 3281 2906 2969 
z
M 947 1747 
Q 947 1113 1208 752 
Q 1469 391 1925 391 
Q 2381 391 2643 752 
Q 2906 1113 2906 1747 
Q 2906 2381 2643 2742 
Q 2381 3103 1925 3103 
Q 1469 3103 1208 2742 
Q 947 2381 947 1747 
z
" transform="scale(0.015625)"/>
      <path id="DejaVuSans-73" d="M 2834 3397 
L 2834 2853 
Q 2591 2978 2328 3040 
Q 2066 3103 1784 3103 
Q 1356 3103 1142 2972 
Q 928 2841 928 2578 
Q 928 2378 1081 2264 
Q 1234 2150 1697 2047 
L 1894 2003 
Q 2506 1872 2764 1633 
Q 3022 1394 3022 966 
Q 3022 478 2636 193 
Q 2250 -91 1575 -91 
Q 1294 -91 989 -36 
Q 684 19 347 128 
L 347 722 
Q 666 556 975 473 
Q 1284 391 1588 391 
Q 1994 391 2212 530 
Q 2431 669 2431 922 
Q 2431 1156 2273 1281 
Q 2116 1406 1581 1522 
L 1381 1569 
Q 847 1681 609 1914 
Q 372 2147 372 2553 
Q 372 3047 722 3315 
Q 1072 3584 1716 3584 
Q 2034 3584 2315 3537 
Q 2597 3491 2834 3397 
z
" transform="scale(0.015625)"/>
      <path id="DejaVuSans-74" d="M 1172 4494 
L 1172 3500 
L 2356 3500 
L 2356 3053 
L 1172 3053 
L 1172 1153 
Q 1172 725 1289 603 
Q 1406 481 1766 481 
L 2356 481 
L 2356 0 
L 1766 0 
Q 1100 0 847 248 
Q 594 497 594 1153 
L 594 3053 
L 172 3053 
L 172 3500 
L 594 3500 
L 594 4494 
L 1172 4494 
z
" transform="scale(0.015625)"/>
      <path id="DejaVuSans-62" d="M 3116 1747 
Q 3116 2381 2855 2742 
Q 2594 3103 2138 3103 
Q 1681 3103 1420 2742 
Q 1159 2381 1159 1747 
Q 1159 1113 1420 752 
Q 1681 391 2138 391 
Q 2594 391 2855 752 
Q 3116 1113 3116 1747 
z
M 1159 2969 
Q 1341 3281 1617 3432 
Q 1894 3584 2278 3584 
Q 2916 3584 3314 3078 
Q 3713 2572 3713 1747 
Q 3713 922 3314 415 
Q 2916 -91 2278 -91 
Q 1894 -91 1617 61 
Q 1341 213 1159 525 
L 1159 0 
L 581 0 
L 581 4863 
L 1159 4863 
L 1159 2969 
z
" transform="scale(0.015625)"/>
     </defs>
     <use xlink:href="#DejaVuSans-42"/>
     <use xlink:href="#DejaVuSans-65" x="68.603516"/>
     <use xlink:href="#DejaVuSans-72" x="130.126953"/>
     <use xlink:href="#DejaVuSans-6e" x="169.490234"/>
     <use xlink:href="#DejaVuSans-6f" x="232.869141"/>
     <use xlink:href="#DejaVuSans-75" x="294.050781"/>
     <use xlink:href="#DejaVuSans-6c" x="357.429688"/>
     <use xlink:href="#DejaVuSans-6c" x="385.212891"/>
     <use xlink:href="#DejaVuSans-69" x="412.996094"/>
     <use xlink:href="#DejaVuSans-20" x="440.779297"/>
     <use xlink:href="#DejaVuSans-64" x="472.566406"/>
     <use xlink:href="#DejaVuSans-69" x="536.042969"/>
     <use xlink:href="#DejaVuSans-73" x="563.826172"/>
     <use xlink:href="#DejaVuSans-74" x="615.925781"/>
     <use xlink:href="#DejaVuSans-72" x="655.134766"/>
     <use xlink:href="#DejaVuSans-69" x="696.248047"/>
     <use xlink:href="#DejaVuSans-62" x="724.03125"/>
     <use xlink:href="#DejaVuSans-75" x="787.507812"/>
     <use xlink:href="#DejaVuSans-74" x="850.886719"/>
     <use xlink:href="#DejaVuSans-69" x="890.095703"/>
     <use xlink:href="#DejaVuSans-6f" x="917.878906"/>
     <use xlink:href="#DejaVuSans-6e" x="979.060547"/>
    </g>
   </g>
   <g id="legend_1">
    <g id="patch_7">
     <path d="M 37.103125 89.030625 
L 112.15625 89.030625 
Q 114.15625 89.030625 114.15625 87.030625 
L 114.15625 29.318125 
Q 114.15625 27.318125 112.15625 27.318125 
L 37.103125 27.318125 
Q 35.103125 27.318125 35.103125 29.318125 
L 35.103125 87.030625 
Q 35.103125 89.030625 37.103125 89.030625 
z
" style="fill: #ffffff; opacity: 0.8; stroke: #cccccc; stroke-linejoin: miter"/>
    </g>
    <g id="line2d_29">
     <path d="M 39.103125 35.416562 
L 49.103125 35.416562 
L 59.103125 35.416562 
" style="fill: none; stroke: #ff0000; stroke-width: 2; stroke-linecap: square"/>
    </g>
    <g id="text_15">
     <!-- mean -->
     <g transform="translate(67.103125 38.916562) scale(0.1 -0.1)">
      <defs>
       <path id="DejaVuSans-6d" d="M 3328 2828 
Q 3544 3216 3844 3400 
Q 4144 3584 4550 3584 
Q 5097 3584 5394 3201 
Q 5691 2819 5691 2113 
L 5691 0 
L 5113 0 
L 5113 2094 
Q 5113 2597 4934 2840 
Q 4756 3084 4391 3084 
Q 3944 3084 3684 2787 
Q 3425 2491 3425 1978 
L 3425 0 
L 2847 0 
L 2847 2094 
Q 2847 2600 2669 2842 
Q 2491 3084 2119 3084 
Q 1678 3084 1418 2786 
Q 1159 2488 1159 1978 
L 1159 0 
L 581 0 
L 581 3500 
L 1159 3500 
L 1159 2956 
Q 1356 3278 1631 3431 
Q 1906 3584 2284 3584 
Q 2666 3584 2933 3390 
Q 3200 3197 3328 2828 
z
" transform="scale(0.015625)"/>
       <path id="DejaVuSans-61" d="M 2194 1759 
Q 1497 1759 1228 1600 
Q 959 1441 959 1056 
Q 959 750 1161 570 
Q 1363 391 1709 391 
Q 2188 391 2477 730 
Q 2766 1069 2766 1631 
L 2766 1759 
L 2194 1759 
z
M 3341 1997 
L 3341 0 
L 2766 0 
L 2766 531 
Q 2569 213 2275 61 
Q 1981 -91 1556 -91 
Q 1019 -91 701 211 
Q 384 513 384 1019 
Q 384 1609 779 1909 
Q 1175 2209 1959 2209 
L 2766 2209 
L 2766 2266 
Q 2766 2663 2505 2880 
Q 2244 3097 1772 3097 
Q 1472 3097 1187 3025 
Q 903 2953 641 2809 
L 641 3341 
Q 956 3463 1253 3523 
Q 1550 3584 1831 3584 
Q 2591 3584 2966 3190 
Q 3341 2797 3341 1997 
z
" transform="scale(0.015625)"/>
      </defs>
      <use xlink:href="#DejaVuSans-6d"/>
      <use xlink:href="#DejaVuSans-65" x="97.412109"/>
      <use xlink:href="#DejaVuSans-61" x="158.935547"/>
      <use xlink:href="#DejaVuSans-6e" x="220.214844"/>
     </g>
    </g>
    <g id="line2d_30">
     <path d="M 39.103125 50.094688 
L 49.103125 50.094688 
L 59.103125 50.094688 
" style="fill: none; stroke: #0000ff; stroke-width: 2; stroke-linecap: square"/>
    </g>
    <g id="text_16">
     <!-- variance -->
     <g transform="translate(67.103125 53.594688) scale(0.1 -0.1)">
      <defs>
       <path id="DejaVuSans-76" d="M 191 3500 
L 800 3500 
L 1894 563 
L 2988 3500 
L 3597 3500 
L 2284 0 
L 1503 0 
L 191 3500 
z
" transform="scale(0.015625)"/>
       <path id="DejaVuSans-63" d="M 3122 3366 
L 3122 2828 
Q 2878 2963 2633 3030 
Q 2388 3097 2138 3097 
Q 1578 3097 1268 2742 
Q 959 2388 959 1747 
Q 959 1106 1268 751 
Q 1578 397 2138 397 
Q 2388 397 2633 464 
Q 2878 531 3122 666 
L 3122 134 
Q 2881 22 2623 -34 
Q 2366 -91 2075 -91 
Q 1284 -91 818 406 
Q 353 903 353 1747 
Q 353 2603 823 3093 
Q 1294 3584 2113 3584 
Q 2378 3584 2631 3529 
Q 2884 3475 3122 3366 
z
" transform="scale(0.015625)"/>
      </defs>
      <use xlink:href="#DejaVuSans-76"/>
      <use xlink:href="#DejaVuSans-61" x="59.179688"/>
      <use xlink:href="#DejaVuSans-72" x="120.458984"/>
      <use xlink:href="#DejaVuSans-69" x="161.572266"/>
      <use xlink:href="#DejaVuSans-61" x="189.355469"/>
      <use xlink:href="#DejaVuSans-6e" x="250.634766"/>
      <use xlink:href="#DejaVuSans-63" x="314.013672"/>
      <use xlink:href="#DejaVuSans-65" x="368.994141"/>
     </g>
    </g>
    <g id="line2d_31">
     <path d="M 39.103125 64.772812 
L 49.103125 64.772812 
L 59.103125 64.772812 
" style="fill: none; stroke: #008000; stroke-width: 2; stroke-linecap: square"/>
    </g>
    <g id="text_17">
     <!-- std -->
     <g transform="translate(67.103125 68.272812) scale(0.1 -0.1)">
      <use xlink:href="#DejaVuSans-73"/>
      <use xlink:href="#DejaVuSans-74" x="52.099609"/>
      <use xlink:href="#DejaVuSans-64" x="91.308594"/>
     </g>
    </g>
    <g id="line2d_32">
     <path d="M 39.103125 79.450938 
L 49.103125 79.450938 
L 59.103125 79.450938 
" style="fill: none; stroke: #bf00bf; stroke-width: 2; stroke-linecap: square"/>
    </g>
    <g id="text_18">
     <!-- median -->
     <g transform="translate(67.103125 82.950938) scale(0.1 -0.1)">
      <use xlink:href="#DejaVuSans-6d"/>
      <use xlink:href="#DejaVuSans-65" x="97.412109"/>
      <use xlink:href="#DejaVuSans-64" x="158.935547"/>
      <use xlink:href="#DejaVuSans-69" x="222.412109"/>
      <use xlink:href="#DejaVuSans-61" x="250.195312"/>
      <use xlink:href="#DejaVuSans-6e" x="311.474609"/>
     </g>
    </g>
   </g>
  </g>
 </g>
 <defs>
  <clipPath id="p447821cb39">
   <rect x="30.103125" y="22.318125" width="357.12" height="266.112"/>
  </clipPath>
 </defs>
</svg>