<?xml version="1.0" encoding="UTF-8" standalone="no"?>
<!DOCTYPE svg PUBLIC "-//W3C//DTD SVG 1.1//EN"
 "http://www.w3.org/Graphics/SVG/1.1/DTD/svg11.dtd">
<!-- Generated by graphviz version 11.0.0 (20240428.1522)
 -->
<!-- Title: Tree Pages: 1 -->
<svg width="694pt" height="269pt"
 viewBox="0.00 0.00 693.75 269.00" xmlns="http://www.w3.org/2000/svg" xmlns:xlink="http://www.w3.org/1999/xlink">
<g id="graph0" class="graph" transform="scale(1 1) rotate(0) translate(4 265)">
<title>Tree</title>
<polygon fill="white" stroke="none" points="-4,4 -4,-265 689.75,-265 689.75,4 -4,4"/>
<!-- 0 -->
<g id="node1" class="node">
<title>0</title>
<path fill="#f8dfcd" stroke="black" d="M406,-261C406,-261 279.75,-261 279.75,-261 273.75,-261 267.75,-255 267.75,-249 267.75,-249 267.75,-205 267.75,-205 267.75,-199 273.75,-193 279.75,-193 279.75,-193 406,-193 406,-193 412,-193 418,-199 418,-205 418,-205 418,-249 418,-249 418,-255 412,-261 406,-261"/>
<text text-anchor="start" x="310.25" y="-243.7" font-family="Helvetica,sans-Serif" font-size="14.00">rm ≤ 6.941</text>
<text text-anchor="start" x="275.75" y="-228.7" font-family="Helvetica,sans-Serif" font-size="14.00">squared_error = 84.42</text>
<text text-anchor="start" x="298.25" y="-213.7" font-family="Helvetica,sans-Serif" font-size="14.00">samples = 506</text>
<text text-anchor="start" x="298.25" y="-198.7" font-family="Helvetica,sans-Serif" font-size="14.00">value = 22.533</text>
</g>
<!-- 1 -->
<g id="node2" class="node">
<title>1</title>
<path fill="#fbeade" stroke="black" d="M321.75,-157C321.75,-157 188,-157 188,-157 182,-157 176,-151 176,-145 176,-145 176,-101 176,-101 176,-95 182,-89 188,-89 188,-89 321.75,-89 321.75,-89 327.75,-89 333.75,-95 333.75,-101 333.75,-101 333.75,-145 333.75,-145 333.75,-151 327.75,-157 321.75,-157"/>
<text text-anchor="start" x="221.88" y="-139.7" font-family="Helvetica,sans-Serif" font-size="14.00">lstat ≤ 14.4</text>
<text text-anchor="start" x="184" y="-124.7" font-family="Helvetica,sans-Serif" font-size="14.00">squared_error = 40.273</text>
<text text-anchor="start" x="210.25" y="-109.7" font-family="Helvetica,sans-Serif" font-size="14.00">samples = 430</text>
<text text-anchor="start" x="210.25" y="-94.7" font-family="Helvetica,sans-Serif" font-size="14.00">value = 19.934</text>
</g>
<!-- 0&#45;&gt;1 -->
<g id="edge1" class="edge">
<title>0&#45;&gt;1</title>
<path fill="none" stroke="black" d="M314.06,-192.6C306.77,-184.15 298.84,-174.96 291.23,-166.13"/>
<polygon fill="black" stroke="black" points="293.93,-163.9 284.74,-158.62 288.63,-168.48 293.93,-163.9"/>
<text text-anchor="middle" x="281.92" y="-176.61" font-family="Helvetica,sans-Serif" font-size="14.00">True</text>
</g>
<!-- 4 -->
<g id="node5" class="node">
<title>4</title>
<path fill="#eca26d" stroke="black" d="M497.75,-157C497.75,-157 364,-157 364,-157 358,-157 352,-151 352,-145 352,-145 352,-101 352,-101 352,-95 358,-89 364,-89 364,-89 497.75,-89 497.75,-89 503.75,-89 509.75,-95 509.75,-101 509.75,-101 509.75,-145 509.75,-145 509.75,-151 503.75,-157 497.75,-157"/>
<text text-anchor="start" x="398.25" y="-139.7" font-family="Helvetica,sans-Serif" font-size="14.00">rm ≤ 7.437</text>
<text text-anchor="start" x="360" y="-124.7" font-family="Helvetica,sans-Serif" font-size="14.00">squared_error = 79.729</text>
<text text-anchor="start" x="390" y="-109.7" font-family="Helvetica,sans-Serif" font-size="14.00">samples = 76</text>
<text text-anchor="start" x="386.25" y="-94.7" font-family="Helvetica,sans-Serif" font-size="14.00">value = 37.238</text>
</g>
<!-- 0&#45;&gt;4 -->
<g id="edge4" class="edge">
<title>0&#45;&gt;4</title>
<path fill="none" stroke="black" d="M371.69,-192.6C378.98,-184.15 386.91,-174.96 394.52,-166.13"/>
<polygon fill="black" stroke="black" points="397.12,-168.48 401.01,-158.62 391.82,-163.9 397.12,-168.48"/>
<text text-anchor="middle" x="403.83" y="-176.61" font-family="Helvetica,sans-Serif" font-size="14.00">False</text>
</g>
<!-- 2 -->
<g id="node3" class="node">
<title>2</title>
<path fill="#f8dcc8" stroke="black" d="M145.75,-53C145.75,-53 12,-53 12,-53 6,-53 0,-47 0,-41 0,-41 0,-12 0,-12 0,-6 6,0 12,0 12,0 145.75,0 145.75,0 151.75,0 157.75,-6 157.75,-12 157.75,-12 157.75,-41 157.75,-41 157.75,-47 151.75,-53 145.75,-53"/>
<text text-anchor="start" x="8" y="-35.7" font-family="Helvetica,sans-Serif" font-size="14.00">squared_error = 26.009</text>
<text text-anchor="start" x="34.25" y="-20.7" font-family="Helvetica,sans-Serif" font-size="14.00">samples = 255</text>
<text text-anchor="start" x="38" y="-5.7" font-family="Helvetica,sans-Serif" font-size="14.00">value = 23.35</text>
</g>
<!-- 1&#45;&gt;2 -->
<g id="edge2" class="edge">
<title>1&#45;&gt;2</title>
<path fill="none" stroke="black" d="M192.82,-88.68C174.62,-78.91 154.79,-68.26 136.85,-58.63"/>
<polygon fill="black" stroke="black" points="138.9,-55.76 128.43,-54.11 135.59,-61.92 138.9,-55.76"/>
</g>
<!-- 3 -->
<g id="node4" class="node">
<title>3</title>
<path fill="#ffffff" stroke="black" d="M321.75,-53C321.75,-53 188,-53 188,-53 182,-53 176,-47 176,-41 176,-41 176,-12 176,-12 176,-6 182,0 188,0 188,0 321.75,0 321.75,0 327.75,0 333.75,-6 333.75,-12 333.75,-12 333.75,-41 333.75,-41 333.75,-47 327.75,-53 321.75,-53"/>
<text text-anchor="start" x="184" y="-35.7" font-family="Helvetica,sans-Serif" font-size="14.00">squared_error = 19.276</text>
<text text-anchor="start" x="210.25" y="-20.7" font-family="Helvetica,sans-Serif" font-size="14.00">samples = 175</text>
<text text-anchor="start" x="210.25" y="-5.7" font-family="Helvetica,sans-Serif" font-size="14.00">value = 14.956</text>
</g>
<!-- 1&#45;&gt;3 -->
<g id="edge3" class="edge">
<title>1&#45;&gt;3</title>
<path fill="none" stroke="black" d="M254.88,-88.68C254.88,-80.99 254.88,-72.76 254.88,-64.9"/>
<polygon fill="black" stroke="black" points="258.38,-64.91 254.88,-54.91 251.38,-64.91 258.38,-64.91"/>
</g>
<!-- 5 -->
<g id="node6" class="node">
<title>5</title>
<path fill="#f0b78e" stroke="black" d="M497.75,-53C497.75,-53 364,-53 364,-53 358,-53 352,-47 352,-41 352,-41 352,-12 352,-12 352,-6 358,0 364,0 364,0 497.75,0 497.75,0 503.75,0 509.75,-6 509.75,-12 509.75,-12 509.75,-41 509.75,-41 509.75,-47 503.75,-53 497.75,-53"/>
<text text-anchor="start" x="360" y="-35.7" font-family="Helvetica,sans-Serif" font-size="14.00">squared_error = 41.296</text>
<text text-anchor="start" x="390" y="-20.7" font-family="Helvetica,sans-Serif" font-size="14.00">samples = 46</text>
<text text-anchor="start" x="386.25" y="-5.7" font-family="Helvetica,sans-Serif" font-size="14.00">value = 32.113</text>
</g>
<!-- 4&#45;&gt;5 -->
<g id="edge5" class="edge">
<title>4&#45;&gt;5</title>
<path fill="none" stroke="black" d="M430.88,-88.68C430.88,-80.99 430.88,-72.76 430.88,-64.9"/>
<polygon fill="black" stroke="black" points="434.38,-64.91 430.88,-54.91 427.38,-64.91 434.38,-64.91"/>
</g>
<!-- 6 -->
<g id="node7" class="node">
<title>6</title>
<path fill="#e58139" stroke="black" d="M673.75,-53C673.75,-53 540,-53 540,-53 534,-53 528,-47 528,-41 528,-41 528,-12 528,-12 528,-6 534,0 540,0 540,0 673.75,0 673.75,0 679.75,0 685.75,-6 685.75,-12 685.75,-12 685.75,-41 685.75,-41 685.75,-47 679.75,-53 673.75,-53"/>
<text text-anchor="start" x="536" y="-35.7" font-family="Helvetica,sans-Serif" font-size="14.00">squared_error = 36.628</text>
<text text-anchor="start" x="566" y="-20.7" font-family="Helvetica,sans-Serif" font-size="14.00">samples = 30</text>
<text text-anchor="start" x="562.25" y="-5.7" font-family="Helvetica,sans-Serif" font-size="14.00">value = 45.097</text>
</g>
<!-- 4&#45;&gt;6 -->
<g id="edge6" class="edge">
<title>4&#45;&gt;6</title>
<path fill="none" stroke="black" d="M492.93,-88.68C511.13,-78.91 530.96,-68.26 548.9,-58.63"/>
<polygon fill="black" stroke="black" points="550.16,-61.92 557.32,-54.11 546.85,-55.76 550.16,-61.92"/>
</g>
</g>
</svg>