<?xml version="1.0" encoding="utf-8" standalone="no"?>
<!DOCTYPE svg PUBLIC "-//W3C//DTD SVG 1.1//EN"
  "http://www.w3.org/Graphics/SVG/1.1/DTD/svg11.dtd">
<svg xmlns:xlink="http://www.w3.org/1999/xlink" width="394.423125pt" height="312.30825pt" viewBox="0 0 394.423125 312.30825" xmlns="http://www.w3.org/2000/svg" version="1.1">
 <metadata>
  <rdf:RDF xmlns:dc="http://purl.org/dc/elements/1.1/" xmlns:cc="http://creativecommons.org/ns#" xmlns:rdf="http://www.w3.org/1999/02/22-rdf-syntax-ns#">
   <cc:Work>
    <dc:type rdf:resource="http://purl.org/dc/dcmitype/StillImage"/>
    <dc:date>2024-10-08T20:54:33.755905</dc:date>
    <dc:format>image/svg+xml</dc:format>
    <dc:creator>
     <cc:Agent>
      <dc:title>Matplotlib v3.7.1, https://matplotlib.org/</dc:title>
     </cc:Agent>
    </dc:creator>
   </cc:Work>
  </rdf:RDF>
 </metadata>
 <defs>
  <style type="text/css">*{stroke-linejoin: round; stroke-linecap: butt}</style>
 </defs>
 <g id="figure_1">
  <g id="patch_1">
   <path d="M 0 312.30825 
L 394.423125 312.30825 
L 394.423125 0 
L 0 0 
z
" style="fill: #ffffff"/>
  </g>
  <g id="axes_1">
   <g id="patch_2">
    <path d="M 30.103125 288.430125 
L 387.223125 288.430125 
L 387.223125 22.318125 
L 30.103125 22.318125 
z
" style="fill: #ffffff"/>
   </g>
   <g id="matplotlib.axis_1">
    <g id="xtick_1">
     <g id="line2d_1">
      <path d="M 46.010873 288.430125 
L 46.010873 22.318125 
" clip-path="url(#pcd7145ab91)" style="fill: none; stroke-dasharray: 0.8,1.32; stroke-dashoffset: 0; stroke: #b0b0b0; stroke-width: 0.8"/>
     </g>
     <g id="line2d_2">
      <defs>
       <path id="mb769663ce4" d="M 0 0 
L 0 3.5 
" style="stroke: #000000; stroke-width: 0.8"/>
      </defs>
      <g>
       <use xlink:href="#mb769663ce4" x="46.010873" y="288.430125" style="stroke: #000000; stroke-width: 0.8"/>
      </g>
     </g>
     <g id="text_1">
      <!-- 0 -->
      <g transform="translate(42.829623 303.028562) scale(0.1 -0.1)">
       <defs>
        <path id="DejaVuSans-30" d="M 2034 4250 
Q 1547 4250 1301 3770 
Q 1056 3291 1056 2328 
Q 1056 1369 1301 889 
Q 1547 409 2034 409 
Q 2525 409 2770 889 
Q 3016 1369 3016 2328 
Q 3016 3291 2770 3770 
Q 2525 4250 2034 4250 
z
M 2034 4750 
Q 2819 4750 3233 4129 
Q 3647 3509 3647 2328 
Q 3647 1150 3233 529 
Q 2819 -91 2034 -91 
Q 1250 -91 836 529 
Q 422 1150 422 2328 
Q 422 3509 836 4129 
Q 1250 4750 2034 4750 
z
" transform="scale(0.015625)"/>
       </defs>
       <use xlink:href="#DejaVuSans-30"/>
      </g>
     </g>
    </g>
    <g id="xtick_2">
     <g id="line2d_3">
      <path d="M 111.006778 288.430125 
L 111.006778 22.318125 
" clip-path="url(#pcd7145ab91)" style="fill: none; stroke-dasharray: 0.8,1.32; stroke-dashoffset: 0; stroke: #b0b0b0; stroke-width: 0.8"/>
     </g>
     <g id="line2d_4">
      <g>
       <use xlink:href="#mb769663ce4" x="111.006778" y="288.430125" style="stroke: #000000; stroke-width: 0.8"/>
      </g>
     </g>
     <g id="text_2">
      <!-- 2 -->
      <g transform="translate(107.825528 303.028562) scale(0.1 -0.1)">
       <defs>
        <path id="DejaVuSans-32" d="M 1228 531 
L 3431 531 
L 3431 0 
L 469 0 
L 469 531 
Q 828 903 1448 1529 
Q 2069 2156 2228 2338 
Q 2531 2678 2651 2914 
Q 2772 3150 2772 3378 
Q 2772 3750 2511 3984 
Q 2250 4219 1831 4219 
Q 1534 4219 1204 4116 
Q 875 4013 500 3803 
L 500 4441 
Q 881 4594 1212 4672 
Q 1544 4750 1819 4750 
Q 2544 4750 2975 4387 
Q 3406 4025 3406 3419 
Q 3406 3131 3298 2873 
Q 3191 2616 2906 2266 
Q 2828 2175 2409 1742 
Q 1991 1309 1228 531 
z
" transform="scale(0.015625)"/>
       </defs>
       <use xlink:href="#DejaVuSans-32"/>
      </g>
     </g>
    </g>
    <g id="xtick_3">
     <g id="line2d_5">
      <path d="M 176.002683 288.430125 
L 176.002683 22.318125 
" clip-path="url(#pcd7145ab91)" style="fill: none; stroke-dasharray: 0.8,1.32; stroke-dashoffset: 0; stroke: #b0b0b0; stroke-width: 0.8"/>
     </g>
     <g id="line2d_6">
      <g>
       <use xlink:href="#mb769663ce4" x="176.002683" y="288.430125" style="stroke: #000000; stroke-width: 0.8"/>
      </g>
     </g>
     <g id="text_3">
      <!-- 4 -->
      <g transform="translate(172.821433 303.028562) scale(0.1 -0.1)">
       <defs>
        <path id="DejaVuSans-34" d="M 2419 4116 
L 825 1625 
L 2419 1625 
L 2419 4116 
z
M 2253 4666 
L 3047 4666 
L 3047 1625 
L 3713 1625 
L 3713 1100 
L 3047 1100 
L 3047 0 
L 2419 0 
L 2419 1100 
L 313 1100 
L 313 1709 
L 2253 4666 
z
" transform="scale(0.015625)"/>
       </defs>
       <use xlink:href="#DejaVuSans-34"/>
      </g>
     </g>
    </g>
    <g id="xtick_4">
     <g id="line2d_7">
      <path d="M 240.998588 288.430125 
L 240.998588 22.318125 
" clip-path="url(#pcd7145ab91)" style="fill: none; stroke-dasharray: 0.8,1.32; stroke-dashoffset: 0; stroke: #b0b0b0; stroke-width: 0.8"/>
     </g>
     <g id="line2d_8">
      <g>
       <use xlink:href="#mb769663ce4" x="240.998588" y="288.430125" style="stroke: #000000; stroke-width: 0.8"/>
      </g>
     </g>
     <g id="text_4">
      <!-- 6 -->
      <g transform="translate(237.817338 303.028562) scale(0.1 -0.1)">
       <defs>
        <path id="DejaVuSans-36" d="M 2113 2584 
Q 1688 2584 1439 2293 
Q 1191 2003 1191 1497 
Q 1191 994 1439 701 
Q 1688 409 2113 409 
Q 2538 409 2786 701 
Q 3034 994 3034 1497 
Q 3034 2003 2786 2293 
Q 2538 2584 2113 2584 
z
M 3366 4563 
L 3366 3988 
Q 3128 4100 2886 4159 
Q 2644 4219 2406 4219 
Q 1781 4219 1451 3797 
Q 1122 3375 1075 2522 
Q 1259 2794 1537 2939 
Q 1816 3084 2150 3084 
Q 2853 3084 3261 2657 
Q 3669 2231 3669 1497 
Q 3669 778 3244 343 
Q 2819 -91 2113 -91 
Q 1303 -91 875 529 
Q 447 1150 447 2328 
Q 447 3434 972 4092 
Q 1497 4750 2381 4750 
Q 2619 4750 2861 4703 
Q 3103 4656 3366 4563 
z
" transform="scale(0.015625)"/>
       </defs>
       <use xlink:href="#DejaVuSans-36"/>
      </g>
     </g>
    </g>
    <g id="xtick_5">
     <g id="line2d_9">
      <path d="M 305.994493 288.430125 
L 305.994493 22.318125 
" clip-path="url(#pcd7145ab91)" style="fill: none; stroke-dasharray: 0.8,1.32; stroke-dashoffset: 0; stroke: #b0b0b0; stroke-width: 0.8"/>
     </g>
     <g id="line2d_10">
      <g>
       <use xlink:href="#mb769663ce4" x="305.994493" y="288.430125" style="stroke: #000000; stroke-width: 0.8"/>
      </g>
     </g>
     <g id="text_5">
      <!-- 8 -->
      <g transform="translate(302.813243 303.028562) scale(0.1 -0.1)">
       <defs>
        <path id="DejaVuSans-38" d="M 2034 2216 
Q 1584 2216 1326 1975 
Q 1069 1734 1069 1313 
Q 1069 891 1326 650 
Q 1584 409 2034 409 
Q 2484 409 2743 651 
Q 3003 894 3003 1313 
Q 3003 1734 2745 1975 
Q 2488 2216 2034 2216 
z
M 1403 2484 
Q 997 2584 770 2862 
Q 544 3141 544 3541 
Q 544 4100 942 4425 
Q 1341 4750 2034 4750 
Q 2731 4750 3128 4425 
Q 3525 4100 3525 3541 
Q 3525 3141 3298 2862 
Q 3072 2584 2669 2484 
Q 3125 2378 3379 2068 
Q 3634 1759 3634 1313 
Q 3634 634 3220 271 
Q 2806 -91 2034 -91 
Q 1263 -91 848 271 
Q 434 634 434 1313 
Q 434 1759 690 2068 
Q 947 2378 1403 2484 
z
M 1172 3481 
Q 1172 3119 1398 2916 
Q 1625 2713 2034 2713 
Q 2441 2713 2670 2916 
Q 2900 3119 2900 3481 
Q 2900 3844 2670 4047 
Q 2441 4250 2034 4250 
Q 1625 4250 1398 4047 
Q 1172 3844 1172 3481 
z
" transform="scale(0.015625)"/>
       </defs>
       <use xlink:href="#DejaVuSans-38"/>
      </g>
     </g>
    </g>
    <g id="xtick_6">
     <g id="line2d_11">
      <path d="M 370.990398 288.430125 
L 370.990398 22.318125 
" clip-path="url(#pcd7145ab91)" style="fill: none; stroke-dasharray: 0.8,1.32; stroke-dashoffset: 0; stroke: #b0b0b0; stroke-width: 0.8"/>
     </g>
     <g id="line2d_12">
      <g>
       <use xlink:href="#mb769663ce4" x="370.990398" y="288.430125" style="stroke: #000000; stroke-width: 0.8"/>
      </g>
     </g>
     <g id="text_6">
      <!-- 10 -->
      <g transform="translate(364.627898 303.028562) scale(0.1 -0.1)">
       <defs>
        <path id="DejaVuSans-31" d="M 794 531 
L 1825 531 
L 1825 4091 
L 703 3866 
L 703 4441 
L 1819 4666 
L 2450 4666 
L 2450 531 
L 3481 531 
L 3481 0 
L 794 0 
L 794 531 
z
" transform="scale(0.015625)"/>
       </defs>
       <use xlink:href="#DejaVuSans-31"/>
       <use xlink:href="#DejaVuSans-30" x="63.623047"/>
      </g>
     </g>
    </g>
   </g>
   <g id="matplotlib.axis_2">
    <g id="ytick_1">
     <g id="line2d_13">
      <path d="M 30.103125 276.334125 
L 387.223125 276.334125 
" clip-path="url(#pcd7145ab91)" style="fill: none; stroke-dasharray: 0.8,1.32; stroke-dashoffset: 0; stroke: #b0b0b0; stroke-width: 0.8"/>
     </g>
     <g id="line2d_14">
      <defs>
       <path id="m3f814af4f8" d="M 0 0 
L -3.5 0 
" style="stroke: #000000; stroke-width: 0.8"/>
      </defs>
      <g>
       <use xlink:href="#m3f814af4f8" x="30.103125" y="276.334125" style="stroke: #000000; stroke-width: 0.8"/>
      </g>
     </g>
     <g id="text_7">
      <!-- 0.0 -->
      <g transform="translate(7.2 280.133344) scale(0.1 -0.1)">
       <defs>
        <path id="DejaVuSans-2e" d="M 684 794 
L 1344 794 
L 1344 0 
L 684 0 
L 684 794 
z
" transform="scale(0.015625)"/>
       </defs>
       <use xlink:href="#DejaVuSans-30"/>
       <use xlink:href="#DejaVuSans-2e" x="63.623047"/>
       <use xlink:href="#DejaVuSans-30" x="95.410156"/>
      </g>
     </g>
    </g>
    <g id="ytick_2">
     <g id="line2d_15">
      <path d="M 30.103125 237.0935 
L 387.223125 237.0935 
" clip-path="url(#pcd7145ab91)" style="fill: none; stroke-dasharray: 0.8,1.32; stroke-dashoffset: 0; stroke: #b0b0b0; stroke-width: 0.8"/>
     </g>
     <g id="line2d_16">
      <g>
       <use xlink:href="#m3f814af4f8" x="30.103125" y="237.0935" style="stroke: #000000; stroke-width: 0.8"/>
      </g>
     </g>
     <g id="text_8">
      <!-- 0.2 -->
      <g transform="translate(7.2 240.892719) scale(0.1 -0.1)">
       <use xlink:href="#DejaVuSans-30"/>
       <use xlink:href="#DejaVuSans-2e" x="63.623047"/>
       <use xlink:href="#DejaVuSans-32" x="95.410156"/>
      </g>
     </g>
    </g>
    <g id="ytick_3">
     <g id="line2d_17">
      <path d="M 30.103125 197.852875 
L 387.223125 197.852875 
" clip-path="url(#pcd7145ab91)" style="fill: none; stroke-dasharray: 0.8,1.32; stroke-dashoffset: 0; stroke: #b0b0b0; stroke-width: 0.8"/>
     </g>
     <g id="line2d_18">
      <g>
       <use xlink:href="#m3f814af4f8" x="30.103125" y="197.852875" style="stroke: #000000; stroke-width: 0.8"/>
      </g>
     </g>
     <g id="text_9">
      <!-- 0.4 -->
      <g transform="translate(7.2 201.652093) scale(0.1 -0.1)">
       <use xlink:href="#DejaVuSans-30"/>
       <use xlink:href="#DejaVuSans-2e" x="63.623047"/>
       <use xlink:href="#DejaVuSans-34" x="95.410156"/>
      </g>
     </g>
    </g>
    <g id="ytick_4">
     <g id="line2d_19">
      <path d="M 30.103125 158.61225 
L 387.223125 158.61225 
" clip-path="url(#pcd7145ab91)" style="fill: none; stroke-dasharray: 0.8,1.32; stroke-dashoffset: 0; stroke: #b0b0b0; stroke-width: 0.8"/>
     </g>
     <g id="line2d_20">
      <g>
       <use xlink:href="#m3f814af4f8" x="30.103125" y="158.61225" style="stroke: #000000; stroke-width: 0.8"/>
      </g>
     </g>
     <g id="text_10">
      <!-- 0.6 -->
      <g transform="translate(7.2 162.411468) scale(0.1 -0.1)">
       <use xlink:href="#DejaVuSans-30"/>
       <use xlink:href="#DejaVuSans-2e" x="63.623047"/>
       <use xlink:href="#DejaVuSans-36" x="95.410156"/>
      </g>
     </g>
    </g>
    <g id="ytick_5">
     <g id="line2d_21">
      <path d="M 30.103125 119.371624 
L 387.223125 119.371624 
" clip-path="url(#pcd7145ab91)" style="fill: none; stroke-dasharray: 0.8,1.32; stroke-dashoffset: 0; stroke: #b0b0b0; stroke-width: 0.8"/>
     </g>
     <g id="line2d_22">
      <g>
       <use xlink:href="#m3f814af4f8" x="30.103125" y="119.371624" style="stroke: #000000; stroke-width: 0.8"/>
      </g>
     </g>
     <g id="text_11">
      <!-- 0.8 -->
      <g transform="translate(7.2 123.170843) scale(0.1 -0.1)">
       <use xlink:href="#DejaVuSans-30"/>
       <use xlink:href="#DejaVuSans-2e" x="63.623047"/>
       <use xlink:href="#DejaVuSans-38" x="95.410156"/>
      </g>
     </g>
    </g>
    <g id="ytick_6">
     <g id="line2d_23">
      <path d="M 30.103125 80.130999 
L 387.223125 80.130999 
" clip-path="url(#pcd7145ab91)" style="fill: none; stroke-dasharray: 0.8,1.32; stroke-dashoffset: 0; stroke: #b0b0b0; stroke-width: 0.8"/>
     </g>
     <g id="line2d_24">
      <g>
       <use xlink:href="#m3f814af4f8" x="30.103125" y="80.130999" style="stroke: #000000; stroke-width: 0.8"/>
      </g>
     </g>
     <g id="text_12">
      <!-- 1.0 -->
      <g transform="translate(7.2 83.930218) scale(0.1 -0.1)">
       <use xlink:href="#DejaVuSans-31"/>
       <use xlink:href="#DejaVuSans-2e" x="63.623047"/>
       <use xlink:href="#DejaVuSans-30" x="95.410156"/>
      </g>
     </g>
    </g>
    <g id="ytick_7">
     <g id="line2d_25">
      <path d="M 30.103125 40.890374 
L 387.223125 40.890374 
" clip-path="url(#pcd7145ab91)" style="fill: none; stroke-dasharray: 0.8,1.32; stroke-dashoffset: 0; stroke: #b0b0b0; stroke-width: 0.8"/>
     </g>
     <g id="line2d_26">
      <g>
       <use xlink:href="#m3f814af4f8" x="30.103125" y="40.890374" style="stroke: #000000; stroke-width: 0.8"/>
      </g>
     </g>
     <g id="text_13">
      <!-- 1.2 -->
      <g transform="translate(7.2 44.689593) scale(0.1 -0.1)">
       <use xlink:href="#DejaVuSans-31"/>
       <use xlink:href="#DejaVuSans-2e" x="63.623047"/>
       <use xlink:href="#DejaVuSans-32" x="95.410156"/>
      </g>
     </g>
    </g>
   </g>
   <g id="line2d_27">
    <path d="M 46.335852 268.641403 
L 47.63577 240.827739 
L 48.935688 217.33638 
L 50.235607 197.667105 
L 51.535525 181.371063 
L 52.835443 168.045828 
L 54.135361 157.330914 
L 55.110299 150.812361 
L 56.085238 145.456614 
L 57.060177 141.150346 
L 58.035115 137.789487 
L 59.010054 135.278529 
L 59.984992 133.529881 
L 60.634951 132.747696 
L 61.28491 132.246409 
L 61.934869 132.005192 
L 62.584829 132.004422 
L 63.234788 132.225614 
L 63.884747 132.651361 
L 64.859685 133.637958 
L 65.834624 134.996926 
L 67.134542 137.307992 
L 68.43446 140.099149 
L 70.059358 144.130976 
L 72.009235 149.573396 
L 74.609071 157.51392 
L 79.483764 173.305832 
L 84.683436 189.898653 
L 88.258211 200.556042 
L 91.508006 209.519829 
L 94.432822 216.938477 
L 97.357638 223.726047 
L 99.957474 229.234622 
L 102.55731 234.264333 
L 105.157146 238.83636 
L 107.756982 242.976088 
L 110.356819 246.711404 
L 112.956655 250.071395 
L 115.556491 253.085391 
L 118.156327 255.782253 
L 120.756163 258.18987 
L 123.680979 260.585734 
L 126.605795 262.684618 
L 129.530611 264.519352 
L 132.780406 266.284621 
L 136.030201 267.798128 
L 139.604976 269.211793 
L 143.50473 270.498058 
L 147.729464 271.63922 
L 152.279177 272.627081 
L 157.15387 273.461905 
L 162.678522 274.188143 
L 169.178113 274.815492 
L 176.977621 275.334913 
L 186.727007 275.744924 
L 199.401209 276.039705 
L 217.925041 276.228593 
L 252.372871 276.31892 
L 370.990398 276.334109 
L 370.990398 276.334109 
" clip-path="url(#pcd7145ab91)" style="fill: none; stroke: #ff0000; stroke-width: 2; stroke-linecap: square"/>
   </g>
   <g id="line2d_28">
    <path d="M 46.335852 276.334125 
L 57.385156 276.231414 
L 61.28491 275.96692 
L 64.534706 275.518648 
L 67.459521 274.87325 
L 70.059358 274.06872 
L 72.659194 273.021665 
L 75.25903 271.716826 
L 77.858866 270.148268 
L 80.458702 268.319321 
L 83.383518 265.9658 
L 86.308334 263.326929 
L 89.558129 260.107925 
L 93.457883 255.935626 
L 99.307515 249.309179 
L 107.756982 239.7646 
L 111.981716 235.338797 
L 115.556491 231.901457 
L 118.806286 229.074399 
L 121.731102 226.802048 
L 124.655918 224.806563 
L 127.580734 223.100358 
L 130.18057 221.832245 
L 132.780406 220.799603 
L 135.380242 220.000945 
L 137.980078 219.432189 
L 140.579915 219.086974 
L 143.179751 218.956978 
L 145.779587 219.032234 
L 148.704403 219.348106 
L 151.629218 219.891717 
L 154.879014 220.739814 
L 158.128809 221.818703 
L 161.703584 223.239172 
L 165.603338 225.026319 
L 170.153051 227.364612 
L 175.677703 230.475255 
L 183.152232 234.968311 
L 201.026106 245.815291 
L 208.175656 249.834638 
L 214.350267 253.06088 
L 220.524878 256.031463 
L 226.374509 258.598025 
L 232.224141 260.921451 
L 238.073772 263.006464 
L 243.923403 264.862772 
L 250.098014 266.588722 
L 256.597605 268.166199 
L 263.422175 269.583184 
L 270.571725 270.833873 
L 278.046254 271.918381 
L 286.170742 272.876491 
L 295.270168 273.722788 
L 305.344534 274.435168 
L 317.043797 275.034691 
L 331.017916 275.518149 
L 348.241831 275.881782 
L 370.990398 276.131648 
L 370.990398 276.131648 
" clip-path="url(#pcd7145ab91)" style="fill: none; stroke: #0000ff; stroke-width: 2; stroke-linecap: square"/>
   </g>
   <g id="line2d_29">
    <path d="M 46.335852 276.333991 
L 49.260668 276.21606 
L 51.210545 275.890256 
L 52.835443 275.399727 
L 54.46034 274.683026 
L 56.085238 273.728468 
L 57.710136 272.534694 
L 59.660013 270.796371 
L 61.60989 268.746877 
L 63.884747 266.006054 
L 66.484583 262.488291 
L 69.734378 257.6607 
L 74.609071 249.931913 
L 81.108661 239.658339 
L 84.683436 234.406257 
L 87.933231 230.033276 
L 90.858047 226.489398 
L 93.457883 223.683095 
L 96.05772 221.218236 
L 98.332576 219.348826 
L 100.607433 217.749507 
L 102.88229 216.41845 
L 105.157146 215.350811 
L 107.432003 214.539198 
L 109.70686 213.974115 
L 111.981716 213.644362 
L 114.256573 213.537406 
L 116.53143 213.639715 
L 119.131266 213.994596 
L 121.731102 214.582261 
L 124.655918 215.493938 
L 127.580734 216.640528 
L 130.830529 218.152475 
L 134.405304 220.057901 
L 138.630037 222.569313 
L 143.82971 225.938165 
L 151.304239 231.082465 
L 165.928317 241.187043 
L 172.752887 245.593291 
L 178.602519 249.117981 
L 184.45215 252.378959 
L 189.976802 255.203612 
L 195.501454 257.777421 
L 201.026106 260.104407 
L 206.550758 262.193612 
L 212.40039 264.160541 
L 218.250021 265.892683 
L 224.424632 267.487656 
L 230.924222 268.932866 
L 237.748792 270.221377 
L 245.223322 271.398239 
L 253.34781 272.440622 
L 262.122257 273.336137 
L 271.871643 274.104699 
L 282.920946 274.751135 
L 295.920127 275.284809 
L 311.844124 275.706961 
L 332.317834 276.01557 
L 361.565992 276.216219 
L 370.990398 276.24902 
L 370.990398 276.24902 
" clip-path="url(#pcd7145ab91)" style="fill: none; stroke: #008000; stroke-width: 2; stroke-linecap: square"/>
   </g>
   <g id="line2d_30">
    <path d="M 46.335852 276.334117 
L 49.585648 276.245341 
L 51.210545 275.983408 
L 52.510463 275.559365 
L 53.810381 274.880464 
L 55.110299 273.89732 
L 56.410218 272.572642 
L 57.710136 270.882328 
L 59.010054 268.815469 
L 60.309972 266.373617 
L 61.934869 262.814386 
L 63.559767 258.735764 
L 65.509644 253.24763 
L 68.10948 245.150273 
L 72.009235 232.078782 
L 76.883928 215.85023 
L 79.483764 207.905891 
L 81.75862 201.610895 
L 83.708498 196.796488 
L 85.658375 192.574278 
L 87.283272 189.533145 
L 88.90817 186.938007 
L 90.533068 184.792548 
L 91.832986 183.398307 
L 93.132904 182.286196 
L 94.432822 181.450154 
L 95.73274 180.88234 
L 97.032658 180.573385 
L 98.332576 180.512631 
L 99.632494 180.688356 
L 100.932412 181.087991 
L 102.232331 181.698315 
L 103.857228 182.736616 
L 105.482126 184.055348 
L 107.432003 185.969071 
L 109.38188 188.199295 
L 111.656737 191.139329 
L 114.256573 194.858843 
L 117.506368 199.903784 
L 122.381061 207.94515 
L 131.805467 223.578733 
L 136.030201 230.135983 
L 139.929955 235.782481 
L 143.50473 240.568063 
L 146.754525 244.575677 
L 150.004321 248.25143 
L 153.254116 251.598607 
L 156.503911 254.626751 
L 159.753706 257.350018 
L 163.003502 259.785787 
L 166.253297 261.953503 
L 169.503092 263.873738 
L 173.077867 265.725156 
L 176.652642 267.330044 
L 180.552396 268.830896 
L 184.77713 270.199152 
L 189.001864 271.336472 
L 193.876557 272.406404 
L 199.076229 273.310967 
L 204.92586 274.094475 
L 211.425451 274.739463 
L 219.22496 275.281849 
L 228.649366 275.70418 
L 240.998588 276.017619 
L 258.547482 276.218303 
L 289.745516 276.315952 
L 370.990398 276.334014 
L 370.990398 276.334014 
" clip-path="url(#pcd7145ab91)" style="fill: none; stroke: #bf00bf; stroke-width: 2; stroke-linecap: square"/>
   </g>
   <g id="line2d_31">
    <path d="M 46.335852 82.083253 
L 48.935688 97.01797 
L 51.535525 110.804451 
L 54.135361 123.530977 
L 56.735197 135.279041 
L 59.660013 147.419485 
L 62.584829 158.515015 
L 65.509644 168.655567 
L 68.43446 177.923332 
L 71.359276 186.393433 
L 74.284091 194.134521 
L 77.208907 201.209344 
L 80.133723 207.675245 
L 83.058539 213.584633 
L 85.983354 218.985408 
L 88.90817 223.921344 
L 91.832986 228.43245 
L 94.757801 232.55529 
L 97.682617 236.323283 
L 100.932412 240.130818 
L 104.182208 243.576018 
L 107.432003 246.693364 
L 110.681798 249.514055 
L 114.256573 252.307791 
L 117.831348 254.810515 
L 121.406123 257.05254 
L 125.305877 259.232894 
L 129.205631 261.166693 
L 133.430365 263.015673 
L 137.980078 264.755619 
L 142.854771 266.368412 
L 148.054444 267.841905 
L 153.579096 269.169538 
L 159.428727 270.349759 
L 165.928317 271.43454 
L 173.077867 272.402116 
L 181.202355 273.271873 
L 190.301782 274.019725 
L 201.026106 274.670248 
L 213.700308 275.207586 
L 229.299325 275.637041 
L 249.448055 275.959133 
L 278.371233 276.180132 
L 327.118162 276.299765 
L 370.990398 276.325217 
L 370.990398 276.325217 
" clip-path="url(#pcd7145ab91)" style="fill: none; stroke: #00bfbf; stroke-width: 2; stroke-linecap: square"/>
   </g>
   <g id="line2d_32">
    <path d="M 46.335852 276.331238 
L 48.285729 276.19819 
L 50.560586 275.815177 
L 53.160422 275.119196 
L 55.760258 274.192291 
L 58.685074 272.925221 
L 62.259849 271.127248 
L 66.809562 268.563372 
L 73.634132 264.41787 
L 84.683436 257.715149 
L 90.533068 254.447054 
L 95.73274 251.798075 
L 100.607433 249.566435 
L 105.157146 247.71865 
L 109.70686 246.104263 
L 114.256573 244.723836 
L 118.806286 243.573532 
L 123.356 242.646105 
L 128.230693 241.888572 
L 133.105385 241.361175 
L 138.305058 241.034133 
L 143.50473 240.929851 
L 149.029382 241.039248 
L 154.879014 241.374447 
L 161.378604 241.976069 
L 168.528154 242.871651 
L 176.652642 244.127513 
L 186.077048 245.821197 
L 198.10129 248.22191 
L 223.774673 253.653783 
L 241.648547 257.295893 
L 255.947646 259.984582 
L 269.271806 262.265654 
L 282.270987 264.267373 
L 295.270168 266.046848 
L 308.594329 267.648016 
L 322.568449 269.100368 
L 337.192527 270.393496 
L 352.791544 271.545772 
L 369.69048 272.565304 
L 370.990398 272.634944 
L 370.990398 272.634944 
" clip-path="url(#pcd7145ab91)" style="fill: none; stroke: #a52a2a; stroke-width: 2; stroke-linecap: square"/>
   </g>
   <g id="line2d_33">
    <path d="M 46.335852 34.414125 
L 46.660832 66.780923 
L 47.310791 95.722642 
L 47.96075 111.447981 
L 48.610709 122.216088 
L 49.585648 133.878857 
L 50.560586 142.607764 
L 51.535525 149.61609 
L 52.835443 157.265191 
L 54.135361 163.622572 
L 55.760258 170.341701 
L 57.385156 176.097115 
L 59.335033 182.089605 
L 61.28491 187.339358 
L 63.559767 192.753621 
L 65.834624 197.571993 
L 68.43446 202.502601 
L 71.034296 206.936961 
L 73.634132 210.963249 
L 76.558948 215.085087 
L 79.483764 218.841235 
L 82.733559 222.649345 
L 85.983354 226.126334 
L 89.558129 229.620348 
L 93.132904 232.812395 
L 97.032658 235.993544 
L 100.932412 238.898329 
L 105.157146 241.770364 
L 109.70686 244.581222 
L 114.256573 247.133632 
L 119.131266 249.614802 
L 124.330938 252.005644 
L 129.85559 254.290682 
L 135.705222 256.457848 
L 141.879833 258.498247 
L 148.379423 260.405902 
L 155.203993 262.17747 
L 162.678522 263.881361 
L 170.478031 265.431538 
L 178.927498 266.885549 
L 188.026925 268.227996 
L 198.10129 269.486421 
L 209.150594 270.637425 
L 221.499816 271.691438 
L 235.148956 272.626791 
L 250.422994 273.448387 
L 267.971888 274.167202 
L 288.770578 274.788553 
L 313.794001 275.302874 
L 344.992036 275.709915 
L 370.990398 275.922624 
L 370.990398 275.922624 
" clip-path="url(#pcd7145ab91)" style="fill: none; stroke: #ffa500; stroke-width: 2; stroke-linecap: square"/>
   </g>
   <g id="line2d_34">
    <path d="M 30.103125 276.334125 
L 387.223125 276.334125 
" clip-path="url(#pcd7145ab91)" style="fill: none; stroke: #000000; stroke-opacity: 0.7; stroke-width: 1.5; stroke-linecap: square"/>
   </g>
   <g id="line2d_35">
    <path d="M 46.010873 288.430125 
L 46.010873 22.318125 
" clip-path="url(#pcd7145ab91)" style="fill: none; stroke: #000000; stroke-opacity: 0.7; stroke-width: 1.5; stroke-linecap: square"/>
   </g>
   <g id="patch_3">
    <path d="M 30.103125 288.430125 
L 30.103125 22.318125 
" style="fill: none; stroke: #000000; stroke-width: 0.8; stroke-linejoin: miter; stroke-linecap: square"/>
   </g>
   <g id="patch_4">
    <path d="M 387.223125 288.430125 
L 387.223125 22.318125 
" style="fill: none; stroke: #000000; stroke-width: 0.8; stroke-linejoin: miter; stroke-linecap: square"/>
   </g>
   <g id="patch_5">
    <path d="M 30.103125 288.430125 
L 387.223125 288.430125 
" style="fill: none; stroke: #000000; stroke-width: 0.8; stroke-linejoin: miter; stroke-linecap: square"/>
   </g>
   <g id="patch_6">
    <path d="M 30.103125 22.318125 
L 387.223125 22.318125 
" style="fill: none; stroke: #000000; stroke-width: 0.8; stroke-linejoin: miter; stroke-linecap: square"/>
   </g>
   <g id="text_14">
    <!-- Gamma distribution pdf -->
    <g transform="translate(137.235938 16.318125) scale(0.12 -0.12)">
     <defs>
      <path id="DejaVuSans-47" d="M 3809 666 
L 3809 1919 
L 2778 1919 
L 2778 2438 
L 4434 2438 
L 4434 434 
Q 4069 175 3628 42 
Q 3188 -91 2688 -91 
Q 1594 -91 976 548 
Q 359 1188 359 2328 
Q 359 3472 976 4111 
Q 1594 4750 2688 4750 
Q 3144 4750 3555 4637 
Q 3966 4525 4313 4306 
L 4313 3634 
Q 3963 3931 3569 4081 
Q 3175 4231 2741 4231 
Q 1884 4231 1454 3753 
Q 1025 3275 1025 2328 
Q 1025 1384 1454 906 
Q 1884 428 2741 428 
Q 3075 428 3337 486 
Q 3600 544 3809 666 
z
" transform="scale(0.015625)"/>
      <path id="DejaVuSans-61" d="M 2194 1759 
Q 1497 1759 1228 1600 
Q 959 1441 959 1056 
Q 959 750 1161 570 
Q 1363 391 1709 391 
Q 2188 391 2477 730 
Q 2766 1069 2766 1631 
L 2766 1759 
L 2194 1759 
z
M 3341 1997 
L 3341 0 
L 2766 0 
L 2766 531 
Q 2569 213 2275 61 
Q 1981 -91 1556 -91 
Q 1019 -91 701 211 
Q 384 513 384 1019 
Q 384 1609 779 1909 
Q 1175 2209 1959 2209 
L 2766 2209 
L 2766 2266 
Q 2766 2663 2505 2880 
Q 2244 3097 1772 3097 
Q 1472 3097 1187 3025 
Q 903 2953 641 2809 
L 641 3341 
Q 956 3463 1253 3523 
Q 1550 3584 1831 3584 
Q 2591 3584 2966 3190 
Q 3341 2797 3341 1997 
z
" transform="scale(0.015625)"/>
      <path id="DejaVuSans-6d" d="M 3328 2828 
Q 3544 3216 3844 3400 
Q 4144 3584 4550 3584 
Q 5097 3584 5394 3201 
Q 5691 2819 5691 2113 
L 5691 0 
L 5113 0 
L 5113 2094 
Q 5113 2597 4934 2840 
Q 4756 3084 4391 3084 
Q 3944 3084 3684 2787 
Q 3425 2491 3425 1978 
L 3425 0 
L 2847 0 
L 2847 2094 
Q 2847 2600 2669 2842 
Q 2491 3084 2119 3084 
Q 1678 3084 1418 2786 
Q 1159 2488 1159 1978 
L 1159 0 
L 581 0 
L 581 3500 
L 1159 3500 
L 1159 2956 
Q 1356 3278 1631 3431 
Q 1906 3584 2284 3584 
Q 2666 3584 2933 3390 
Q 3200 3197 3328 2828 
z
" transform="scale(0.015625)"/>
      <path id="DejaVuSans-20" transform="scale(0.015625)"/>
      <path id="DejaVuSans-64" d="M 2906 2969 
L 2906 4863 
L 3481 4863 
L 3481 0 
L 2906 0 
L 2906 525 
Q 2725 213 2448 61 
Q 2172 -91 1784 -91 
Q 1150 -91 751 415 
Q 353 922 353 1747 
Q 353 2572 751 3078 
Q 1150 3584 1784 3584 
Q 2172 3584 2448 3432 
Q 2725 3281 2906 2969 
z
M 947 1747 
Q 947 1113 1208 752 
Q 1469 391 1925 391 
Q 2381 391 2643 752 
Q 2906 1113 2906 1747 
Q 2906 2381 2643 2742 
Q 2381 3103 1925 3103 
Q 1469 3103 1208 2742 
Q 947 2381 947 1747 
z
" transform="scale(0.015625)"/>
      <path id="DejaVuSans-69" d="M 603 3500 
L 1178 3500 
L 1178 0 
L 603 0 
L 603 3500 
z
M 603 4863 
L 1178 4863 
L 1178 4134 
L 603 4134 
L 603 4863 
z
" transform="scale(0.015625)"/>
      <path id="DejaVuSans-73" d="M 2834 3397 
L 2834 2853 
Q 2591 2978 2328 3040 
Q 2066 3103 1784 3103 
Q 1356 3103 1142 2972 
Q 928 2841 928 2578 
Q 928 2378 1081 2264 
Q 1234 2150 1697 2047 
L 1894 2003 
Q 2506 1872 2764 1633 
Q 3022 1394 3022 966 
Q 3022 478 2636 193 
Q 2250 -91 1575 -91 
Q 1294 -91 989 -36 
Q 684 19 347 128 
L 347 722 
Q 666 556 975 473 
Q 1284 391 1588 391 
Q 1994 391 2212 530 
Q 2431 669 2431 922 
Q 2431 1156 2273 1281 
Q 2116 1406 1581 1522 
L 1381 1569 
Q 847 1681 609 1914 
Q 372 2147 372 2553 
Q 372 3047 722 3315 
Q 1072 3584 1716 3584 
Q 2034 3584 2315 3537 
Q 2597 3491 2834 3397 
z
" transform="scale(0.015625)"/>
      <path id="DejaVuSans-74" d="M 1172 4494 
L 1172 3500 
L 2356 3500 
L 2356 3053 
L 1172 3053 
L 1172 1153 
Q 1172 725 1289 603 
Q 1406 481 1766 481 
L 2356 481 
L 2356 0 
L 1766 0 
Q 1100 0 847 248 
Q 594 497 594 1153 
L 594 3053 
L 172 3053 
L 172 3500 
L 594 3500 
L 594 4494 
L 1172 4494 
z
" transform="scale(0.015625)"/>
      <path id="DejaVuSans-72" d="M 2631 2963 
Q 2534 3019 2420 3045 
Q 2306 3072 2169 3072 
Q 1681 3072 1420 2755 
Q 1159 2438 1159 1844 
L 1159 0 
L 581 0 
L 581 3500 
L 1159 3500 
L 1159 2956 
Q 1341 3275 1631 3429 
Q 1922 3584 2338 3584 
Q 2397 3584 2469 3576 
Q 2541 3569 2628 3553 
L 2631 2963 
z
" transform="scale(0.015625)"/>
      <path id="DejaVuSans-62" d="M 3116 1747 
Q 3116 2381 2855 2742 
Q 2594 3103 2138 3103 
Q 1681 3103 1420 2742 
Q 1159 2381 1159 1747 
Q 1159 1113 1420 752 
Q 1681 391 2138 391 
Q 2594 391 2855 752 
Q 3116 1113 3116 1747 
z
M 1159 2969 
Q 1341 3281 1617 3432 
Q 1894 3584 2278 3584 
Q 2916 3584 3314 3078 
Q 3713 2572 3713 1747 
Q 3713 922 3314 415 
Q 2916 -91 2278 -91 
Q 1894 -91 1617 61 
Q 1341 213 1159 525 
L 1159 0 
L 581 0 
L 581 4863 
L 1159 4863 
L 1159 2969 
z
" transform="scale(0.015625)"/>
      <path id="DejaVuSans-75" d="M 544 1381 
L 544 3500 
L 1119 3500 
L 1119 1403 
Q 1119 906 1312 657 
Q 1506 409 1894 409 
Q 2359 409 2629 706 
Q 2900 1003 2900 1516 
L 2900 3500 
L 3475 3500 
L 3475 0 
L 2900 0 
L 2900 538 
Q 2691 219 2414 64 
Q 2138 -91 1772 -91 
Q 1169 -91 856 284 
Q 544 659 544 1381 
z
M 1991 3584 
L 1991 3584 
z
" transform="scale(0.015625)"/>
      <path id="DejaVuSans-6f" d="M 1959 3097 
Q 1497 3097 1228 2736 
Q 959 2375 959 1747 
Q 959 1119 1226 758 
Q 1494 397 1959 397 
Q 2419 397 2687 759 
Q 2956 1122 2956 1747 
Q 2956 2369 2687 2733 
Q 2419 3097 1959 3097 
z
M 1959 3584 
Q 2709 3584 3137 3096 
Q 3566 2609 3566 1747 
Q 3566 888 3137 398 
Q 2709 -91 1959 -91 
Q 1206 -91 779 398 
Q 353 888 353 1747 
Q 353 2609 779 3096 
Q 1206 3584 1959 3584 
z
" transform="scale(0.015625)"/>
      <path id="DejaVuSans-6e" d="M 3513 2113 
L 3513 0 
L 2938 0 
L 2938 2094 
Q 2938 2591 2744 2837 
Q 2550 3084 2163 3084 
Q 1697 3084 1428 2787 
Q 1159 2491 1159 1978 
L 1159 0 
L 581 0 
L 581 3500 
L 1159 3500 
L 1159 2956 
Q 1366 3272 1645 3428 
Q 1925 3584 2291 3584 
Q 2894 3584 3203 3211 
Q 3513 2838 3513 2113 
z
" transform="scale(0.015625)"/>
      <path id="DejaVuSans-70" d="M 1159 525 
L 1159 -1331 
L 581 -1331 
L 581 3500 
L 1159 3500 
L 1159 2969 
Q 1341 3281 1617 3432 
Q 1894 3584 2278 3584 
Q 2916 3584 3314 3078 
Q 3713 2572 3713 1747 
Q 3713 922 3314 415 
Q 2916 -91 2278 -91 
Q 1894 -91 1617 61 
Q 1341 213 1159 525 
z
M 3116 1747 
Q 3116 2381 2855 2742 
Q 2594 3103 2138 3103 
Q 1681 3103 1420 2742 
Q 1159 2381 1159 1747 
Q 1159 1113 1420 752 
Q 1681 391 2138 391 
Q 2594 391 2855 752 
Q 3116 1113 3116 1747 
z
" transform="scale(0.015625)"/>
      <path id="DejaVuSans-66" d="M 2375 4863 
L 2375 4384 
L 1825 4384 
Q 1516 4384 1395 4259 
Q 1275 4134 1275 3809 
L 1275 3500 
L 2222 3500 
L 2222 3053 
L 1275 3053 
L 1275 0 
L 697 0 
L 697 3053 
L 147 3053 
L 147 3500 
L 697 3500 
L 697 3744 
Q 697 4328 969 4595 
Q 1241 4863 1831 4863 
L 2375 4863 
z
" transform="scale(0.015625)"/>
     </defs>
     <use xlink:href="#DejaVuSans-47"/>
     <use xlink:href="#DejaVuSans-61" x="77.490234"/>
     <use xlink:href="#DejaVuSans-6d" x="138.769531"/>
     <use xlink:href="#DejaVuSans-6d" x="236.181641"/>
     <use xlink:href="#DejaVuSans-61" x="333.59375"/>
     <use xlink:href="#DejaVuSans-20" x="394.873047"/>
     <use xlink:href="#DejaVuSans-64" x="426.660156"/>
     <use xlink:href="#DejaVuSans-69" x="490.136719"/>
     <use xlink:href="#DejaVuSans-73" x="517.919922"/>
     <use xlink:href="#DejaVuSans-74" x="570.019531"/>
     <use xlink:href="#DejaVuSans-72" x="609.228516"/>
     <use xlink:href="#DejaVuSans-69" x="650.341797"/>
     <use xlink:href="#DejaVuSans-62" x="678.125"/>
     <use xlink:href="#DejaVuSans-75" x="741.601562"/>
     <use xlink:href="#DejaVuSans-74" x="804.980469"/>
     <use xlink:href="#DejaVuSans-69" x="844.189453"/>
     <use xlink:href="#DejaVuSans-6f" x="871.972656"/>
     <use xlink:href="#DejaVuSans-6e" x="933.154297"/>
     <use xlink:href="#DejaVuSans-20" x="996.533203"/>
     <use xlink:href="#DejaVuSans-70" x="1028.320312"/>
     <use xlink:href="#DejaVuSans-64" x="1091.796875"/>
     <use xlink:href="#DejaVuSans-66" x="1155.273438"/>
    </g>
   </g>
   <g id="legend_1">
    <g id="patch_7">
     <path d="M 290.365313 133.065 
L 380.223125 133.065 
Q 382.223125 133.065 382.223125 131.065 
L 382.223125 29.318125 
Q 382.223125 27.318125 380.223125 27.318125 
L 290.365313 27.318125 
Q 288.365313 27.318125 288.365313 29.318125 
L 288.365313 131.065 
Q 288.365313 133.065 290.365313 133.065 
z
" style="fill: #ffffff; opacity: 0.8; stroke: #cccccc; stroke-linejoin: miter"/>
    </g>
    <g id="line2d_36">
     <path d="M 292.365313 35.416562 
L 302.365313 35.416562 
L 312.365313 35.416562 
" style="fill: none; stroke: #ff0000; stroke-width: 2; stroke-linecap: square"/>
    </g>
    <g id="text_15">
     <!-- a=2, b=0.5 -->
     <g transform="translate(320.365313 38.916562) scale(0.1 -0.1)">
      <defs>
       <path id="DejaVuSans-3d" d="M 678 2906 
L 4684 2906 
L 4684 2381 
L 678 2381 
L 678 2906 
z
M 678 1631 
L 4684 1631 
L 4684 1100 
L 678 1100 
L 678 1631 
z
" transform="scale(0.015625)"/>
       <path id="DejaVuSans-2c" d="M 750 794 
L 1409 794 
L 1409 256 
L 897 -744 
L 494 -744 
L 750 256 
L 750 794 
z
" transform="scale(0.015625)"/>
       <path id="DejaVuSans-35" d="M 691 4666 
L 3169 4666 
L 3169 4134 
L 1269 4134 
L 1269 2991 
Q 1406 3038 1543 3061 
Q 1681 3084 1819 3084 
Q 2600 3084 3056 2656 
Q 3513 2228 3513 1497 
Q 3513 744 3044 326 
Q 2575 -91 1722 -91 
Q 1428 -91 1123 -41 
Q 819 9 494 109 
L 494 744 
Q 775 591 1075 516 
Q 1375 441 1709 441 
Q 2250 441 2565 725 
Q 2881 1009 2881 1497 
Q 2881 1984 2565 2268 
Q 2250 2553 1709 2553 
Q 1456 2553 1204 2497 
Q 953 2441 691 2322 
L 691 4666 
z
" transform="scale(0.015625)"/>
      </defs>
      <use xlink:href="#DejaVuSans-61"/>
      <use xlink:href="#DejaVuSans-3d" x="61.279297"/>
      <use xlink:href="#DejaVuSans-32" x="145.068359"/>
      <use xlink:href="#DejaVuSans-2c" x="208.691406"/>
      <use xlink:href="#DejaVuSans-20" x="240.478516"/>
      <use xlink:href="#DejaVuSans-62" x="272.265625"/>
      <use xlink:href="#DejaVuSans-3d" x="335.742188"/>
      <use xlink:href="#DejaVuSans-30" x="419.53125"/>
      <use xlink:href="#DejaVuSans-2e" x="483.154297"/>
      <use xlink:href="#DejaVuSans-35" x="514.941406"/>
     </g>
    </g>
    <g id="line2d_37">
     <path d="M 292.365313 50.094687 
L 302.365313 50.094687 
L 312.365313 50.094687 
" style="fill: none; stroke: #0000ff; stroke-width: 2; stroke-linecap: square"/>
    </g>
    <g id="text_16">
     <!-- a=6, b=0.6 -->
     <g transform="translate(320.365313 53.594687) scale(0.1 -0.1)">
      <use xlink:href="#DejaVuSans-61"/>
      <use xlink:href="#DejaVuSans-3d" x="61.279297"/>
      <use xlink:href="#DejaVuSans-36" x="145.068359"/>
      <use xlink:href="#DejaVuSans-2c" x="208.691406"/>
      <use xlink:href="#DejaVuSans-20" x="240.478516"/>
      <use xlink:href="#DejaVuSans-62" x="272.265625"/>
      <use xlink:href="#DejaVuSans-3d" x="335.742188"/>
      <use xlink:href="#DejaVuSans-30" x="419.53125"/>
      <use xlink:href="#DejaVuSans-2e" x="483.154297"/>
      <use xlink:href="#DejaVuSans-36" x="514.941406"/>
     </g>
    </g>
    <g id="line2d_38">
     <path d="M 292.365313 64.772812 
L 302.365313 64.772812 
L 312.365313 64.772812 
" style="fill: none; stroke: #008000; stroke-width: 2; stroke-linecap: square"/>
    </g>
    <g id="text_17">
     <!-- a=4, b=0.7 -->
     <g transform="translate(320.365313 68.272812) scale(0.1 -0.1)">
      <defs>
       <path id="DejaVuSans-37" d="M 525 4666 
L 3525 4666 
L 3525 4397 
L 1831 0 
L 1172 0 
L 2766 4134 
L 525 4134 
L 525 4666 
z
" transform="scale(0.015625)"/>
      </defs>
      <use xlink:href="#DejaVuSans-61"/>
      <use xlink:href="#DejaVuSans-3d" x="61.279297"/>
      <use xlink:href="#DejaVuSans-34" x="145.068359"/>
      <use xlink:href="#DejaVuSans-2c" x="208.691406"/>
      <use xlink:href="#DejaVuSans-20" x="240.478516"/>
      <use xlink:href="#DejaVuSans-62" x="272.265625"/>
      <use xlink:href="#DejaVuSans-3d" x="335.742188"/>
      <use xlink:href="#DejaVuSans-30" x="419.53125"/>
      <use xlink:href="#DejaVuSans-2e" x="483.154297"/>
      <use xlink:href="#DejaVuSans-37" x="514.941406"/>
     </g>
    </g>
    <g id="line2d_39">
     <path d="M 292.365313 79.450937 
L 302.365313 79.450937 
L 312.365313 79.450937 
" style="fill: none; stroke: #bf00bf; stroke-width: 2; stroke-linecap: square"/>
    </g>
    <g id="text_18">
     <!-- a=5, b=0.4 -->
     <g transform="translate(320.365313 82.950937) scale(0.1 -0.1)">
      <use xlink:href="#DejaVuSans-61"/>
      <use xlink:href="#DejaVuSans-3d" x="61.279297"/>
      <use xlink:href="#DejaVuSans-35" x="145.068359"/>
      <use xlink:href="#DejaVuSans-2c" x="208.691406"/>
      <use xlink:href="#DejaVuSans-20" x="240.478516"/>
      <use xlink:href="#DejaVuSans-62" x="272.265625"/>
      <use xlink:href="#DejaVuSans-3d" x="335.742188"/>
      <use xlink:href="#DejaVuSans-30" x="419.53125"/>
      <use xlink:href="#DejaVuSans-2e" x="483.154297"/>
      <use xlink:href="#DejaVuSans-34" x="514.941406"/>
     </g>
    </g>
    <g id="line2d_40">
     <path d="M 292.365313 94.129062 
L 302.365313 94.129062 
L 312.365313 94.129062 
" style="fill: none; stroke: #00bfbf; stroke-width: 2; stroke-linecap: square"/>
    </g>
    <g id="text_19">
     <!-- a=1, b=1 -->
     <g transform="translate(320.365313 97.629062) scale(0.1 -0.1)">
      <use xlink:href="#DejaVuSans-61"/>
      <use xlink:href="#DejaVuSans-3d" x="61.279297"/>
      <use xlink:href="#DejaVuSans-31" x="145.068359"/>
      <use xlink:href="#DejaVuSans-2c" x="208.691406"/>
      <use xlink:href="#DejaVuSans-20" x="240.478516"/>
      <use xlink:href="#DejaVuSans-62" x="272.265625"/>
      <use xlink:href="#DejaVuSans-3d" x="335.742188"/>
      <use xlink:href="#DejaVuSans-31" x="419.53125"/>
     </g>
    </g>
    <g id="line2d_41">
     <path d="M 292.365313 108.807187 
L 302.365313 108.807187 
L 312.365313 108.807187 
" style="fill: none; stroke: #a52a2a; stroke-width: 2; stroke-linecap: square"/>
    </g>
    <g id="text_20">
     <!-- a=3, b=1.5 -->
     <g transform="translate(320.365313 112.307187) scale(0.1 -0.1)">
      <defs>
       <path id="DejaVuSans-33" d="M 2597 2516 
Q 3050 2419 3304 2112 
Q 3559 1806 3559 1356 
Q 3559 666 3084 287 
Q 2609 -91 1734 -91 
Q 1441 -91 1130 -33 
Q 819 25 488 141 
L 488 750 
Q 750 597 1062 519 
Q 1375 441 1716 441 
Q 2309 441 2620 675 
Q 2931 909 2931 1356 
Q 2931 1769 2642 2001 
Q 2353 2234 1838 2234 
L 1294 2234 
L 1294 2753 
L 1863 2753 
Q 2328 2753 2575 2939 
Q 2822 3125 2822 3475 
Q 2822 3834 2567 4026 
Q 2313 4219 1838 4219 
Q 1578 4219 1281 4162 
Q 984 4106 628 3988 
L 628 4550 
Q 988 4650 1302 4700 
Q 1616 4750 1894 4750 
Q 2613 4750 3031 4423 
Q 3450 4097 3450 3541 
Q 3450 3153 3228 2886 
Q 3006 2619 2597 2516 
z
" transform="scale(0.015625)"/>
      </defs>
      <use xlink:href="#DejaVuSans-61"/>
      <use xlink:href="#DejaVuSans-3d" x="61.279297"/>
      <use xlink:href="#DejaVuSans-33" x="145.068359"/>
      <use xlink:href="#DejaVuSans-2c" x="208.691406"/>
      <use xlink:href="#DejaVuSans-20" x="240.478516"/>
      <use xlink:href="#DejaVuSans-62" x="272.265625"/>
      <use xlink:href="#DejaVuSans-3d" x="335.742188"/>
      <use xlink:href="#DejaVuSans-31" x="419.53125"/>
      <use xlink:href="#DejaVuSans-2e" x="483.154297"/>
      <use xlink:href="#DejaVuSans-35" x="514.941406"/>
     </g>
    </g>
    <g id="line2d_42">
     <path d="M 292.365313 123.485312 
L 302.365313 123.485312 
L 312.365313 123.485312 
" style="fill: none; stroke: #ffa500; stroke-width: 2; stroke-linecap: square"/>
    </g>
    <g id="text_21">
     <!-- a=0.8, b=2 -->
     <g transform="translate(320.365313 126.985312) scale(0.1 -0.1)">
      <use xlink:href="#DejaVuSans-61"/>
      <use xlink:href="#DejaVuSans-3d" x="61.279297"/>
      <use xlink:href="#DejaVuSans-30" x="145.068359"/>
      <use xlink:href="#DejaVuSans-2e" x="208.691406"/>
      <use xlink:href="#DejaVuSans-38" x="240.478516"/>
      <use xlink:href="#DejaVuSans-2c" x="304.101562"/>
      <use xlink:href="#DejaVuSans-20" x="335.888672"/>
      <use xlink:href="#DejaVuSans-62" x="367.675781"/>
      <use xlink:href="#DejaVuSans-3d" x="431.152344"/>
      <use xlink:href="#DejaVuSans-32" x="514.941406"/>
     </g>
    </g>
   </g>
  </g>
 </g>
 <defs>
  <clipPath id="pcd7145ab91">
   <rect x="30.103125" y="22.318125" width="357.12" height="266.112"/>
  </clipPath>
 </defs>
</svg>