<?xml version="1.0" encoding="UTF-8" standalone="no"?>
<!DOCTYPE svg PUBLIC "-//W3C//DTD SVG 1.1//EN"
 "http://www.w3.org/Graphics/SVG/1.1/DTD/svg11.dtd">
<!-- Generated by graphviz version 11.0.0 (20240428.1522)
 -->
<!-- Title: Tree Pages: 1 -->
<svg width="816pt" height="671pt"
 viewBox="0.00 0.00 816.38 671.00" xmlns="http://www.w3.org/2000/svg" xmlns:xlink="http://www.w3.org/1999/xlink">
<g id="graph0" class="graph" transform="scale(1 1) rotate(0) translate(4 667)">
<title>Tree</title>
<polygon fill="white" stroke="none" points="-4,4 -4,-667 812.38,-667 812.38,4 -4,4"/>
<!-- 0 -->
<g id="node1" class="node">
<title>0</title>
<path fill="#ffffff" stroke="black" d="M486.88,-663C486.88,-663 379.38,-663 379.38,-663 373.38,-663 367.38,-657 367.38,-651 367.38,-651 367.38,-592 367.38,-592 367.38,-586 373.38,-580 379.38,-580 379.38,-580 486.88,-580 486.88,-580 492.88,-580 498.88,-586 498.88,-592 498.88,-592 498.88,-651 498.88,-651 498.88,-657 492.88,-663 486.88,-663"/>
<text text-anchor="start" x="375.75" y="-645.7" font-family="Helvetica,sans-Serif" font-size="14.00">petal_length ≤ 2.45</text>
<text text-anchor="start" x="397.88" y="-630.7" font-family="Helvetica,sans-Serif" font-size="14.00">gini = 0.667</text>
<text text-anchor="start" x="388.5" y="-615.7" font-family="Helvetica,sans-Serif" font-size="14.00">samples = 150</text>
<text text-anchor="start" x="375.38" y="-600.7" font-family="Helvetica,sans-Serif" font-size="14.00">value = [50, 50, 50]</text>
<text text-anchor="start" x="390" y="-585.7" font-family="Helvetica,sans-Serif" font-size="14.00">class = setosa</text>
</g>
<!-- 1 -->
<g id="node2" class="node">
<title>1</title>
<path fill="#e58139" stroke="black" d="M410.38,-536.5C410.38,-536.5 317.88,-536.5 317.88,-536.5 311.88,-536.5 305.88,-530.5 305.88,-524.5 305.88,-524.5 305.88,-480.5 305.88,-480.5 305.88,-474.5 311.88,-468.5 317.88,-468.5 317.88,-468.5 410.38,-468.5 410.38,-468.5 416.38,-468.5 422.38,-474.5 422.38,-480.5 422.38,-480.5 422.38,-524.5 422.38,-524.5 422.38,-530.5 416.38,-536.5 410.38,-536.5"/>
<text text-anchor="start" x="336.38" y="-519.2" font-family="Helvetica,sans-Serif" font-size="14.00">gini = 0.0</text>
<text text-anchor="start" x="323.25" y="-504.2" font-family="Helvetica,sans-Serif" font-size="14.00">samples = 50</text>
<text text-anchor="start" x="313.88" y="-489.2" font-family="Helvetica,sans-Serif" font-size="14.00">value = [50, 0, 0]</text>
<text text-anchor="start" x="321" y="-474.2" font-family="Helvetica,sans-Serif" font-size="14.00">class = setosa</text>
</g>
<!-- 0&#45;&gt;1 -->
<g id="edge1" class="edge">
<title>0&#45;&gt;1</title>
<path fill="none" stroke="black" d="M408.99,-579.58C402.68,-568.88 395.87,-557.32 389.5,-546.52"/>
<polygon fill="black" stroke="black" points="392.66,-545 384.57,-538.16 386.63,-548.56 392.66,-545"/>
<text text-anchor="middle" x="377.55" y="-555.27" font-family="Helvetica,sans-Serif" font-size="14.00">True</text>
</g>
<!-- 2 -->
<g id="node3" class="node">
<title>2</title>
<path fill="#ffffff" stroke="black" d="M553.88,-544C553.88,-544 452.38,-544 452.38,-544 446.38,-544 440.38,-538 440.38,-532 440.38,-532 440.38,-473 440.38,-473 440.38,-467 446.38,-461 452.38,-461 452.38,-461 553.88,-461 553.88,-461 559.88,-461 565.88,-467 565.88,-473 565.88,-473 565.88,-532 565.88,-532 565.88,-538 559.88,-544 553.88,-544"/>
<text text-anchor="start" x="448.38" y="-526.7" font-family="Helvetica,sans-Serif" font-size="14.00">petal_width ≤ 1.75</text>
<text text-anchor="start" x="475.38" y="-511.7" font-family="Helvetica,sans-Serif" font-size="14.00">gini = 0.5</text>
<text text-anchor="start" x="458.5" y="-496.7" font-family="Helvetica,sans-Serif" font-size="14.00">samples = 100</text>
<text text-anchor="start" x="449.12" y="-481.7" font-family="Helvetica,sans-Serif" font-size="14.00">value = [0, 50, 50]</text>
<text text-anchor="start" x="451" y="-466.7" font-family="Helvetica,sans-Serif" font-size="14.00">class = versicolor</text>
</g>
<!-- 0&#45;&gt;2 -->
<g id="edge2" class="edge">
<title>0&#45;&gt;2</title>
<path fill="none" stroke="black" d="M457.61,-579.58C462.54,-571.34 467.78,-562.58 472.88,-554.06"/>
<polygon fill="black" stroke="black" points="475.87,-555.88 478,-545.5 469.86,-552.28 475.87,-555.88"/>
<text text-anchor="middle" x="484.87" y="-562.65" font-family="Helvetica,sans-Serif" font-size="14.00">False</text>
</g>
<!-- 3 -->
<g id="node4" class="node">
<title>3</title>
<path fill="#4de88e" stroke="black" d="M451.5,-425C451.5,-425 344.75,-425 344.75,-425 338.75,-425 332.75,-419 332.75,-413 332.75,-413 332.75,-354 332.75,-354 332.75,-348 338.75,-342 344.75,-342 344.75,-342 451.5,-342 451.5,-342 457.5,-342 463.5,-348 463.5,-354 463.5,-354 463.5,-413 463.5,-413 463.5,-419 457.5,-425 451.5,-425"/>
<text text-anchor="start" x="340.75" y="-407.7" font-family="Helvetica,sans-Serif" font-size="14.00">petal_length ≤ 4.95</text>
<text text-anchor="start" x="362.88" y="-392.7" font-family="Helvetica,sans-Serif" font-size="14.00">gini = 0.168</text>
<text text-anchor="start" x="357.25" y="-377.7" font-family="Helvetica,sans-Serif" font-size="14.00">samples = 54</text>
<text text-anchor="start" x="347.88" y="-362.7" font-family="Helvetica,sans-Serif" font-size="14.00">value = [0, 49, 5]</text>
<text text-anchor="start" x="346" y="-347.7" font-family="Helvetica,sans-Serif" font-size="14.00">class = versicolor</text>
</g>
<!-- 2&#45;&gt;3 -->
<g id="edge3" class="edge">
<title>2&#45;&gt;3</title>
<path fill="none" stroke="black" d="M466.4,-460.58C458.6,-451.89 450.29,-442.63 442.25,-433.67"/>
<polygon fill="black" stroke="black" points="444.95,-431.43 435.66,-426.33 439.74,-436.11 444.95,-431.43"/>
</g>
<!-- 12 -->
<g id="node13" class="node">
<title>12</title>
<path fill="#843de6" stroke="black" d="M660.5,-425C660.5,-425 553.75,-425 553.75,-425 547.75,-425 541.75,-419 541.75,-413 541.75,-413 541.75,-354 541.75,-354 541.75,-348 547.75,-342 553.75,-342 553.75,-342 660.5,-342 660.5,-342 666.5,-342 672.5,-348 672.5,-354 672.5,-354 672.5,-413 672.5,-413 672.5,-419 666.5,-425 660.5,-425"/>
<text text-anchor="start" x="549.75" y="-407.7" font-family="Helvetica,sans-Serif" font-size="14.00">petal_length ≤ 4.85</text>
<text text-anchor="start" x="571.88" y="-392.7" font-family="Helvetica,sans-Serif" font-size="14.00">gini = 0.043</text>
<text text-anchor="start" x="566.25" y="-377.7" font-family="Helvetica,sans-Serif" font-size="14.00">samples = 46</text>
<text text-anchor="start" x="556.88" y="-362.7" font-family="Helvetica,sans-Serif" font-size="14.00">value = [0, 1, 45]</text>
<text text-anchor="start" x="559.12" y="-347.7" font-family="Helvetica,sans-Serif" font-size="14.00">class = virginica</text>
</g>
<!-- 2&#45;&gt;12 -->
<g id="edge12" class="edge">
<title>2&#45;&gt;12</title>
<path fill="none" stroke="black" d="M539.5,-460.58C547.22,-451.89 555.45,-442.63 563.42,-433.67"/>
<polygon fill="black" stroke="black" points="565.91,-436.13 569.94,-426.33 560.68,-431.48 565.91,-436.13"/>
</g>
<!-- 4 -->
<g id="node5" class="node">
<title>4</title>
<path fill="#3de684" stroke="black" d="M244.88,-306C244.88,-306 143.38,-306 143.38,-306 137.38,-306 131.38,-300 131.38,-294 131.38,-294 131.38,-235 131.38,-235 131.38,-229 137.38,-223 143.38,-223 143.38,-223 244.88,-223 244.88,-223 250.88,-223 256.88,-229 256.88,-235 256.88,-235 256.88,-294 256.88,-294 256.88,-300 250.88,-306 244.88,-306"/>
<text text-anchor="start" x="139.38" y="-288.7" font-family="Helvetica,sans-Serif" font-size="14.00">petal_width ≤ 1.65</text>
<text text-anchor="start" x="158.88" y="-273.7" font-family="Helvetica,sans-Serif" font-size="14.00">gini = 0.041</text>
<text text-anchor="start" x="153.25" y="-258.7" font-family="Helvetica,sans-Serif" font-size="14.00">samples = 48</text>
<text text-anchor="start" x="143.88" y="-243.7" font-family="Helvetica,sans-Serif" font-size="14.00">value = [0, 47, 1]</text>
<text text-anchor="start" x="142" y="-228.7" font-family="Helvetica,sans-Serif" font-size="14.00">class = versicolor</text>
</g>
<!-- 3&#45;&gt;4 -->
<g id="edge4" class="edge">
<title>3&#45;&gt;4</title>
<path fill="none" stroke="black" d="M332.46,-344.84C311.64,-332.9 288.51,-319.63 267.2,-307.41"/>
<polygon fill="black" stroke="black" points="268.97,-304.39 258.55,-302.45 265.48,-310.46 268.97,-304.39"/>
</g>
<!-- 7 -->
<g id="node8" class="node">
<title>7</title>
<path fill="#c09cf2" stroke="black" d="M448.88,-306C448.88,-306 347.38,-306 347.38,-306 341.38,-306 335.38,-300 335.38,-294 335.38,-294 335.38,-235 335.38,-235 335.38,-229 341.38,-223 347.38,-223 347.38,-223 448.88,-223 448.88,-223 454.88,-223 460.88,-229 460.88,-235 460.88,-235 460.88,-294 460.88,-294 460.88,-300 454.88,-306 448.88,-306"/>
<text text-anchor="start" x="343.38" y="-288.7" font-family="Helvetica,sans-Serif" font-size="14.00">petal_width ≤ 1.55</text>
<text text-anchor="start" x="362.88" y="-273.7" font-family="Helvetica,sans-Serif" font-size="14.00">gini = 0.444</text>
<text text-anchor="start" x="361" y="-258.7" font-family="Helvetica,sans-Serif" font-size="14.00">samples = 6</text>
<text text-anchor="start" x="351.62" y="-243.7" font-family="Helvetica,sans-Serif" font-size="14.00">value = [0, 2, 4]</text>
<text text-anchor="start" x="350.12" y="-228.7" font-family="Helvetica,sans-Serif" font-size="14.00">class = virginica</text>
</g>
<!-- 3&#45;&gt;7 -->
<g id="edge7" class="edge">
<title>3&#45;&gt;7</title>
<path fill="none" stroke="black" d="M398.12,-341.58C398.12,-333.79 398.12,-325.53 398.12,-317.45"/>
<polygon fill="black" stroke="black" points="401.63,-317.71 398.13,-307.71 394.63,-317.71 401.63,-317.71"/>
</g>
<!-- 5 -->
<g id="node6" class="node">
<title>5</title>
<path fill="#39e581" stroke="black" d="M108.25,-179.5C108.25,-179.5 12,-179.5 12,-179.5 6,-179.5 0,-173.5 0,-167.5 0,-167.5 0,-123.5 0,-123.5 0,-117.5 6,-111.5 12,-111.5 12,-111.5 108.25,-111.5 108.25,-111.5 114.25,-111.5 120.25,-117.5 120.25,-123.5 120.25,-123.5 120.25,-167.5 120.25,-167.5 120.25,-173.5 114.25,-179.5 108.25,-179.5"/>
<text text-anchor="start" x="32.38" y="-162.2" font-family="Helvetica,sans-Serif" font-size="14.00">gini = 0.0</text>
<text text-anchor="start" x="19.25" y="-147.2" font-family="Helvetica,sans-Serif" font-size="14.00">samples = 47</text>
<text text-anchor="start" x="9.88" y="-132.2" font-family="Helvetica,sans-Serif" font-size="14.00">value = [0, 47, 0]</text>
<text text-anchor="start" x="8" y="-117.2" font-family="Helvetica,sans-Serif" font-size="14.00">class = versicolor</text>
</g>
<!-- 4&#45;&gt;5 -->
<g id="edge5" class="edge">
<title>4&#45;&gt;5</title>
<path fill="none" stroke="black" d="M147.26,-222.58C134.13,-211.12 119.87,-198.67 106.76,-187.22"/>
<polygon fill="black" stroke="black" points="109.31,-184.8 99.47,-180.86 104.7,-190.07 109.31,-184.8"/>
</g>
<!-- 6 -->
<g id="node7" class="node">
<title>6</title>
<path fill="#8139e5" stroke="black" d="M238.12,-179.5C238.12,-179.5 150.12,-179.5 150.12,-179.5 144.12,-179.5 138.12,-173.5 138.12,-167.5 138.12,-167.5 138.12,-123.5 138.12,-123.5 138.12,-117.5 144.12,-111.5 150.12,-111.5 150.12,-111.5 238.12,-111.5 238.12,-111.5 244.12,-111.5 250.12,-117.5 250.12,-123.5 250.12,-123.5 250.12,-167.5 250.12,-167.5 250.12,-173.5 244.12,-179.5 238.12,-179.5"/>
<text text-anchor="start" x="166.38" y="-162.2" font-family="Helvetica,sans-Serif" font-size="14.00">gini = 0.0</text>
<text text-anchor="start" x="157" y="-147.2" font-family="Helvetica,sans-Serif" font-size="14.00">samples = 1</text>
<text text-anchor="start" x="147.62" y="-132.2" font-family="Helvetica,sans-Serif" font-size="14.00">value = [0, 0, 1]</text>
<text text-anchor="start" x="146.12" y="-117.2" font-family="Helvetica,sans-Serif" font-size="14.00">class = virginica</text>
</g>
<!-- 4&#45;&gt;6 -->
<g id="edge6" class="edge">
<title>4&#45;&gt;6</title>
<path fill="none" stroke="black" d="M194.12,-222.58C194.12,-212.43 194.12,-201.5 194.12,-191.18"/>
<polygon fill="black" stroke="black" points="197.63,-191.37 194.13,-181.37 190.63,-191.37 197.63,-191.37"/>
</g>
<!-- 8 -->
<g id="node9" class="node">
<title>8</title>
<path fill="#8139e5" stroke="black" d="M368.12,-179.5C368.12,-179.5 280.12,-179.5 280.12,-179.5 274.12,-179.5 268.12,-173.5 268.12,-167.5 268.12,-167.5 268.12,-123.5 268.12,-123.5 268.12,-117.5 274.12,-111.5 280.12,-111.5 280.12,-111.5 368.12,-111.5 368.12,-111.5 374.12,-111.5 380.12,-117.5 380.12,-123.5 380.12,-123.5 380.12,-167.5 380.12,-167.5 380.12,-173.5 374.12,-179.5 368.12,-179.5"/>
<text text-anchor="start" x="296.38" y="-162.2" font-family="Helvetica,sans-Serif" font-size="14.00">gini = 0.0</text>
<text text-anchor="start" x="287" y="-147.2" font-family="Helvetica,sans-Serif" font-size="14.00">samples = 3</text>
<text text-anchor="start" x="277.62" y="-132.2" font-family="Helvetica,sans-Serif" font-size="14.00">value = [0, 0, 3]</text>
<text text-anchor="start" x="276.12" y="-117.2" font-family="Helvetica,sans-Serif" font-size="14.00">class = virginica</text>
</g>
<!-- 7&#45;&gt;8 -->
<g id="edge8" class="edge">
<title>7&#45;&gt;8</title>
<path fill="none" stroke="black" d="M372.24,-222.58C365.48,-211.88 358.17,-200.32 351.33,-189.52"/>
<polygon fill="black" stroke="black" points="354.34,-187.72 346.03,-181.14 348.42,-191.46 354.34,-187.72"/>
</g>
<!-- 9 -->
<g id="node10" class="node">
<title>9</title>
<path fill="#9cf2c0" stroke="black" d="M516.5,-187C516.5,-187 409.75,-187 409.75,-187 403.75,-187 397.75,-181 397.75,-175 397.75,-175 397.75,-116 397.75,-116 397.75,-110 403.75,-104 409.75,-104 409.75,-104 516.5,-104 516.5,-104 522.5,-104 528.5,-110 528.5,-116 528.5,-116 528.5,-175 528.5,-175 528.5,-181 522.5,-187 516.5,-187"/>
<text text-anchor="start" x="405.75" y="-169.7" font-family="Helvetica,sans-Serif" font-size="14.00">petal_length ≤ 5.45</text>
<text text-anchor="start" x="427.88" y="-154.7" font-family="Helvetica,sans-Serif" font-size="14.00">gini = 0.444</text>
<text text-anchor="start" x="426" y="-139.7" font-family="Helvetica,sans-Serif" font-size="14.00">samples = 3</text>
<text text-anchor="start" x="416.62" y="-124.7" font-family="Helvetica,sans-Serif" font-size="14.00">value = [0, 2, 1]</text>
<text text-anchor="start" x="411" y="-109.7" font-family="Helvetica,sans-Serif" font-size="14.00">class = versicolor</text>
</g>
<!-- 7&#45;&gt;9 -->
<g id="edge9" class="edge">
<title>7&#45;&gt;9</title>
<path fill="none" stroke="black" d="M420.86,-222.58C425.44,-214.34 430.3,-205.58 435.04,-197.06"/>
<polygon fill="black" stroke="black" points="437.98,-198.96 439.78,-188.52 431.86,-195.57 437.98,-198.96"/>
</g>
<!-- 10 -->
<g id="node11" class="node">
<title>10</title>
<path fill="#39e581" stroke="black" d="M444.25,-68C444.25,-68 348,-68 348,-68 342,-68 336,-62 336,-56 336,-56 336,-12 336,-12 336,-6 342,0 348,0 348,0 444.25,0 444.25,0 450.25,0 456.25,-6 456.25,-12 456.25,-12 456.25,-56 456.25,-56 456.25,-62 450.25,-68 444.25,-68"/>
<text text-anchor="start" x="368.38" y="-50.7" font-family="Helvetica,sans-Serif" font-size="14.00">gini = 0.0</text>
<text text-anchor="start" x="359" y="-35.7" font-family="Helvetica,sans-Serif" font-size="14.00">samples = 2</text>
<text text-anchor="start" x="349.62" y="-20.7" font-family="Helvetica,sans-Serif" font-size="14.00">value = [0, 2, 0]</text>
<text text-anchor="start" x="344" y="-5.7" font-family="Helvetica,sans-Serif" font-size="14.00">class = versicolor</text>
</g>
<!-- 9&#45;&gt;10 -->
<g id="edge10" class="edge">
<title>9&#45;&gt;10</title>
<path fill="none" stroke="black" d="M438.18,-103.73C433.04,-95.34 427.62,-86.47 422.44,-78.01"/>
<polygon fill="black" stroke="black" points="425.49,-76.29 417.29,-69.59 419.52,-79.95 425.49,-76.29"/>
</g>
<!-- 11 -->
<g id="node12" class="node">
<title>11</title>
<path fill="#8139e5" stroke="black" d="M574.12,-68C574.12,-68 486.12,-68 486.12,-68 480.12,-68 474.12,-62 474.12,-56 474.12,-56 474.12,-12 474.12,-12 474.12,-6 480.12,0 486.12,0 486.12,0 574.12,0 574.12,0 580.12,0 586.12,-6 586.12,-12 586.12,-12 586.12,-56 586.12,-56 586.12,-62 580.12,-68 574.12,-68"/>
<text text-anchor="start" x="502.38" y="-50.7" font-family="Helvetica,sans-Serif" font-size="14.00">gini = 0.0</text>
<text text-anchor="start" x="493" y="-35.7" font-family="Helvetica,sans-Serif" font-size="14.00">samples = 1</text>
<text text-anchor="start" x="483.62" y="-20.7" font-family="Helvetica,sans-Serif" font-size="14.00">value = [0, 0, 1]</text>
<text text-anchor="start" x="482.12" y="-5.7" font-family="Helvetica,sans-Serif" font-size="14.00">class = virginica</text>
</g>
<!-- 9&#45;&gt;11 -->
<g id="edge11" class="edge">
<title>9&#45;&gt;11</title>
<path fill="none" stroke="black" d="M488.07,-103.73C493.21,-95.34 498.63,-86.47 503.81,-78.01"/>
<polygon fill="black" stroke="black" points="506.73,-79.95 508.96,-69.59 500.76,-76.29 506.73,-79.95"/>
</g>
<!-- 13 -->
<g id="node14" class="node">
<title>13</title>
<path fill="#c09cf2" stroke="black" d="M662,-306C662,-306 552.25,-306 552.25,-306 546.25,-306 540.25,-300 540.25,-294 540.25,-294 540.25,-235 540.25,-235 540.25,-229 546.25,-223 552.25,-223 552.25,-223 662,-223 662,-223 668,-223 674,-229 674,-235 674,-235 674,-294 674,-294 674,-300 668,-306 662,-306"/>
<text text-anchor="start" x="548.25" y="-288.7" font-family="Helvetica,sans-Serif" font-size="14.00">sepal_length ≤ 5.95</text>
<text text-anchor="start" x="571.88" y="-273.7" font-family="Helvetica,sans-Serif" font-size="14.00">gini = 0.444</text>
<text text-anchor="start" x="570" y="-258.7" font-family="Helvetica,sans-Serif" font-size="14.00">samples = 3</text>
<text text-anchor="start" x="560.62" y="-243.7" font-family="Helvetica,sans-Serif" font-size="14.00">value = [0, 1, 2]</text>
<text text-anchor="start" x="559.12" y="-228.7" font-family="Helvetica,sans-Serif" font-size="14.00">class = virginica</text>
</g>
<!-- 12&#45;&gt;13 -->
<g id="edge13" class="edge">
<title>12&#45;&gt;13</title>
<path fill="none" stroke="black" d="M607.12,-341.58C607.12,-333.79 607.12,-325.53 607.12,-317.45"/>
<polygon fill="black" stroke="black" points="610.63,-317.71 607.13,-307.71 603.63,-317.71 610.63,-317.71"/>
</g>
<!-- 16 -->
<g id="node17" class="node">
<title>16</title>
<path fill="#8139e5" stroke="black" d="M796.38,-298.5C796.38,-298.5 703.88,-298.5 703.88,-298.5 697.88,-298.5 691.88,-292.5 691.88,-286.5 691.88,-286.5 691.88,-242.5 691.88,-242.5 691.88,-236.5 697.88,-230.5 703.88,-230.5 703.88,-230.5 796.38,-230.5 796.38,-230.5 802.38,-230.5 808.38,-236.5 808.38,-242.5 808.38,-242.5 808.38,-286.5 808.38,-286.5 808.38,-292.5 802.38,-298.5 796.38,-298.5"/>
<text text-anchor="start" x="722.38" y="-281.2" font-family="Helvetica,sans-Serif" font-size="14.00">gini = 0.0</text>
<text text-anchor="start" x="709.25" y="-266.2" font-family="Helvetica,sans-Serif" font-size="14.00">samples = 43</text>
<text text-anchor="start" x="699.88" y="-251.2" font-family="Helvetica,sans-Serif" font-size="14.00">value = [0, 0, 43]</text>
<text text-anchor="start" x="702.12" y="-236.2" font-family="Helvetica,sans-Serif" font-size="14.00">class = virginica</text>
</g>
<!-- 12&#45;&gt;16 -->
<g id="edge16" class="edge">
<title>12&#45;&gt;16</title>
<path fill="none" stroke="black" d="M657.14,-341.58C671.28,-330.01 686.66,-317.43 700.76,-305.89"/>
<polygon fill="black" stroke="black" points="702.66,-308.86 708.18,-299.82 698.22,-303.44 702.66,-308.86"/>
</g>
<!-- 14 -->
<g id="node15" class="node">
<title>14</title>
<path fill="#39e581" stroke="black" d="M655.25,-179.5C655.25,-179.5 559,-179.5 559,-179.5 553,-179.5 547,-173.5 547,-167.5 547,-167.5 547,-123.5 547,-123.5 547,-117.5 553,-111.5 559,-111.5 559,-111.5 655.25,-111.5 655.25,-111.5 661.25,-111.5 667.25,-117.5 667.25,-123.5 667.25,-123.5 667.25,-167.5 667.25,-167.5 667.25,-173.5 661.25,-179.5 655.25,-179.5"/>
<text text-anchor="start" x="579.38" y="-162.2" font-family="Helvetica,sans-Serif" font-size="14.00">gini = 0.0</text>
<text text-anchor="start" x="570" y="-147.2" font-family="Helvetica,sans-Serif" font-size="14.00">samples = 1</text>
<text text-anchor="start" x="560.62" y="-132.2" font-family="Helvetica,sans-Serif" font-size="14.00">value = [0, 1, 0]</text>
<text text-anchor="start" x="555" y="-117.2" font-family="Helvetica,sans-Serif" font-size="14.00">class = versicolor</text>
</g>
<!-- 13&#45;&gt;14 -->
<g id="edge14" class="edge">
<title>13&#45;&gt;14</title>
<path fill="none" stroke="black" d="M607.12,-222.58C607.12,-212.43 607.12,-201.5 607.12,-191.18"/>
<polygon fill="black" stroke="black" points="610.63,-191.37 607.13,-181.37 603.63,-191.37 610.63,-191.37"/>
</g>
<!-- 15 -->
<g id="node16" class="node">
<title>15</title>
<path fill="#8139e5" stroke="black" d="M785.12,-179.5C785.12,-179.5 697.12,-179.5 697.12,-179.5 691.12,-179.5 685.12,-173.5 685.12,-167.5 685.12,-167.5 685.12,-123.5 685.12,-123.5 685.12,-117.5 691.12,-111.5 697.12,-111.5 697.12,-111.5 785.12,-111.5 785.12,-111.5 791.12,-111.5 797.12,-117.5 797.12,-123.5 797.12,-123.5 797.12,-167.5 797.12,-167.5 797.12,-173.5 791.12,-179.5 785.12,-179.5"/>
<text text-anchor="start" x="713.38" y="-162.2" font-family="Helvetica,sans-Serif" font-size="14.00">gini = 0.0</text>
<text text-anchor="start" x="704" y="-147.2" font-family="Helvetica,sans-Serif" font-size="14.00">samples = 2</text>
<text text-anchor="start" x="694.62" y="-132.2" font-family="Helvetica,sans-Serif" font-size="14.00">value = [0, 0, 2]</text>
<text text-anchor="start" x="693.12" y="-117.2" font-family="Helvetica,sans-Serif" font-size="14.00">class = virginica</text>
</g>
<!-- 13&#45;&gt;15 -->
<g id="edge15" class="edge">
<title>13&#45;&gt;15</title>
<path fill="none" stroke="black" d="M653.99,-222.58C667.12,-211.12 681.38,-198.67 694.49,-187.22"/>
<polygon fill="black" stroke="black" points="696.55,-190.07 701.78,-180.86 691.94,-184.8 696.55,-190.07"/>
</g>
</g>
</svg>