<?xml version="1.0" encoding="UTF-8" standalone="no"?>
<!DOCTYPE svg PUBLIC "-//W3C//DTD SVG 1.1//EN"
 "http://www.w3.org/Graphics/SVG/1.1/DTD/svg11.dtd">
<!-- Generated by graphviz version 11.0.0 (20240428.1522)
 -->
<!-- Title: Tree Pages: 1 -->
<svg width="3922pt" height="581pt"
 viewBox="0.00 0.00 3922.25 581.00" xmlns="http://www.w3.org/2000/svg" xmlns:xlink="http://www.w3.org/1999/xlink">
<g id="graph0" class="graph" transform="scale(1 1) rotate(0) translate(4 577)">
<title>Tree</title>
<polygon fill="white" stroke="none" points="-4,4 -4,-577 3918.25,-577 3918.25,4 -4,4"/>
<!-- 0 -->
<g id="node1" class="node">
<title>0</title>
<path fill="#f6d5bd" stroke="black" d="M2201.5,-573C2201.5,-573 2067.75,-573 2067.75,-573 2061.75,-573 2055.75,-567 2055.75,-561 2055.75,-561 2055.75,-517 2055.75,-517 2055.75,-511 2061.75,-505 2067.75,-505 2067.75,-505 2201.5,-505 2201.5,-505 2207.5,-505 2213.5,-511 2213.5,-517 2213.5,-517 2213.5,-561 2213.5,-561 2213.5,-567 2207.5,-573 2201.5,-573"/>
<text text-anchor="start" x="2102" y="-555.7" font-family="Helvetica,sans-Serif" font-size="14.00">rm ≤ 6.941</text>
<text text-anchor="start" x="2063.75" y="-540.7" font-family="Helvetica,sans-Serif" font-size="14.00">squared_error = 90.141</text>
<text text-anchor="start" x="2090" y="-525.7" font-family="Helvetica,sans-Serif" font-size="14.00">samples = 404</text>
<text text-anchor="start" x="2090" y="-510.7" font-family="Helvetica,sans-Serif" font-size="14.00">value = 22.881</text>
</g>
<!-- 1 -->
<g id="node2" class="node">
<title>1</title>
<path fill="#f8ddca" stroke="black" d="M1548.5,-469C1548.5,-469 1414.75,-469 1414.75,-469 1408.75,-469 1402.75,-463 1402.75,-457 1402.75,-457 1402.75,-413 1402.75,-413 1402.75,-407 1408.75,-401 1414.75,-401 1414.75,-401 1548.5,-401 1548.5,-401 1554.5,-401 1560.5,-407 1560.5,-413 1560.5,-413 1560.5,-457 1560.5,-457 1560.5,-463 1554.5,-469 1548.5,-469"/>
<text text-anchor="start" x="1448.62" y="-451.7" font-family="Helvetica,sans-Serif" font-size="14.00">lstat ≤ 14.4</text>
<text text-anchor="start" x="1410.75" y="-436.7" font-family="Helvetica,sans-Serif" font-size="14.00">squared_error = 41.112</text>
<text text-anchor="start" x="1437" y="-421.7" font-family="Helvetica,sans-Serif" font-size="14.00">samples = 340</text>
<text text-anchor="start" x="1437" y="-406.7" font-family="Helvetica,sans-Serif" font-size="14.00">value = 20.058</text>
</g>
<!-- 0&#45;&gt;1 -->
<g id="edge1" class="edge">
<title>0&#45;&gt;1</title>
<path fill="none" stroke="black" d="M2055.53,-525.65C1933.66,-506.61 1700.63,-470.21 1572.17,-450.14"/>
<polygon fill="black" stroke="black" points="1572.75,-446.69 1562.33,-448.61 1571.67,-453.61 1572.75,-446.69"/>
<text text-anchor="middle" x="1575.57" y="-462.77" font-family="Helvetica,sans-Serif" font-size="14.00">True</text>
</g>
<!-- 28 -->
<g id="node29" class="node">
<title>28</title>
<path fill="#eda674" stroke="black" d="M2701.5,-469C2701.5,-469 2567.75,-469 2567.75,-469 2561.75,-469 2555.75,-463 2555.75,-457 2555.75,-457 2555.75,-413 2555.75,-413 2555.75,-407 2561.75,-401 2567.75,-401 2567.75,-401 2701.5,-401 2701.5,-401 2707.5,-401 2713.5,-407 2713.5,-413 2713.5,-413 2713.5,-457 2713.5,-457 2713.5,-463 2707.5,-469 2701.5,-469"/>
<text text-anchor="start" x="2602" y="-451.7" font-family="Helvetica,sans-Serif" font-size="14.00">rm ≤ 7.437</text>
<text text-anchor="start" x="2563.75" y="-436.7" font-family="Helvetica,sans-Serif" font-size="14.00">squared_error = 83.255</text>
<text text-anchor="start" x="2593.75" y="-421.7" font-family="Helvetica,sans-Serif" font-size="14.00">samples = 64</text>
<text text-anchor="start" x="2590" y="-406.7" font-family="Helvetica,sans-Serif" font-size="14.00">value = 37.881</text>
</g>
<!-- 0&#45;&gt;28 -->
<g id="edge28" class="edge">
<title>0&#45;&gt;28</title>
<path fill="none" stroke="black" d="M2213.85,-521.84C2303.69,-503.51 2449.87,-473.69 2544.13,-454.46"/>
<polygon fill="black" stroke="black" points="2544.77,-457.9 2553.87,-452.47 2543.38,-451.04 2544.77,-457.9"/>
<text text-anchor="middle" x="2541.57" y="-467.23" font-family="Helvetica,sans-Serif" font-size="14.00">False</text>
</g>
<!-- 2 -->
<g id="node3" class="node">
<title>2</title>
<path fill="#f6d3ba" stroke="black" d="M545.5,-365C545.5,-365 411.75,-365 411.75,-365 405.75,-365 399.75,-359 399.75,-353 399.75,-353 399.75,-309 399.75,-309 399.75,-303 405.75,-297 411.75,-297 411.75,-297 545.5,-297 545.5,-297 551.5,-297 557.5,-303 557.5,-309 557.5,-309 557.5,-353 557.5,-353 557.5,-359 551.5,-365 545.5,-365"/>
<text text-anchor="start" x="445.62" y="-347.7" font-family="Helvetica,sans-Serif" font-size="14.00">dis ≤ 1.385</text>
<text text-anchor="start" x="407.75" y="-332.7" font-family="Helvetica,sans-Serif" font-size="14.00">squared_error = 28.771</text>
<text text-anchor="start" x="434" y="-317.7" font-family="Helvetica,sans-Serif" font-size="14.00">samples = 203</text>
<text text-anchor="start" x="434" y="-302.7" font-family="Helvetica,sans-Serif" font-size="14.00">value = 23.409</text>
</g>
<!-- 1&#45;&gt;2 -->
<g id="edge2" class="edge">
<title>1&#45;&gt;2</title>
<path fill="none" stroke="black" d="M1402.5,-425.95C1218.7,-407.26 763.78,-361 569.23,-341.21"/>
<polygon fill="black" stroke="black" points="569.72,-337.75 559.42,-340.22 569.02,-344.71 569.72,-337.75"/>
</g>
<!-- 13 -->
<g id="node14" class="node">
<title>13</title>
<path fill="#fbede2" stroke="black" d="M1548.5,-365C1548.5,-365 1414.75,-365 1414.75,-365 1408.75,-365 1402.75,-359 1402.75,-353 1402.75,-353 1402.75,-309 1402.75,-309 1402.75,-303 1408.75,-297 1414.75,-297 1414.75,-297 1548.5,-297 1548.5,-297 1554.5,-297 1560.5,-303 1560.5,-309 1560.5,-309 1560.5,-353 1560.5,-353 1560.5,-359 1554.5,-365 1548.5,-365"/>
<text text-anchor="start" x="1444.12" y="-347.7" font-family="Helvetica,sans-Serif" font-size="14.00">crim ≤ 6.205</text>
<text text-anchor="start" x="1410.75" y="-332.7" font-family="Helvetica,sans-Serif" font-size="14.00">squared_error = 18.088</text>
<text text-anchor="start" x="1437" y="-317.7" font-family="Helvetica,sans-Serif" font-size="14.00">samples = 137</text>
<text text-anchor="start" x="1437" y="-302.7" font-family="Helvetica,sans-Serif" font-size="14.00">value = 15.091</text>
</g>
<!-- 1&#45;&gt;13 -->
<g id="edge13" class="edge">
<title>1&#45;&gt;13</title>
<path fill="none" stroke="black" d="M1481.62,-400.6C1481.62,-393.03 1481.62,-384.87 1481.62,-376.9"/>
<polygon fill="black" stroke="black" points="1485.13,-376.99 1481.63,-366.99 1478.13,-376.99 1485.13,-376.99"/>
</g>
<!-- 3 -->
<g id="node4" class="node">
<title>3</title>
<path fill="#e88f4e" stroke="black" d="M290.5,-261C290.5,-261 156.75,-261 156.75,-261 150.75,-261 144.75,-255 144.75,-249 144.75,-249 144.75,-205 144.75,-205 144.75,-199 150.75,-193 156.75,-193 156.75,-193 290.5,-193 290.5,-193 296.5,-193 302.5,-199 302.5,-205 302.5,-205 302.5,-249 302.5,-249 302.5,-255 296.5,-261 290.5,-261"/>
<text text-anchor="start" x="182.38" y="-243.7" font-family="Helvetica,sans-Serif" font-size="14.00">crim ≤ 10.592</text>
<text text-anchor="start" x="152.75" y="-228.7" font-family="Helvetica,sans-Serif" font-size="14.00">squared_error = 78.146</text>
<text text-anchor="start" x="186.5" y="-213.7" font-family="Helvetica,sans-Serif" font-size="14.00">samples = 5</text>
<text text-anchor="start" x="182.75" y="-198.7" font-family="Helvetica,sans-Serif" font-size="14.00">value = 45.58</text>
</g>
<!-- 2&#45;&gt;3 -->
<g id="edge3" class="edge">
<title>2&#45;&gt;3</title>
<path fill="none" stroke="black" d="M399.34,-298.29C372.11,-287.4 341.45,-275.13 313.45,-263.93"/>
<polygon fill="black" stroke="black" points="314.85,-260.72 304.27,-260.26 312.25,-267.22 314.85,-260.72"/>
</g>
<!-- 6 -->
<g id="node7" class="node">
<title>6</title>
<path fill="#f6d5bd" stroke="black" d="M545.5,-261C545.5,-261 411.75,-261 411.75,-261 405.75,-261 399.75,-255 399.75,-249 399.75,-249 399.75,-205 399.75,-205 399.75,-199 405.75,-193 411.75,-193 411.75,-193 545.5,-193 545.5,-193 551.5,-193 557.5,-199 557.5,-205 557.5,-205 557.5,-249 557.5,-249 557.5,-255 551.5,-261 545.5,-261"/>
<text text-anchor="start" x="446" y="-243.7" font-family="Helvetica,sans-Serif" font-size="14.00">rm ≤ 6.543</text>
<text text-anchor="start" x="407.75" y="-228.7" font-family="Helvetica,sans-Serif" font-size="14.00">squared_error = 14.798</text>
<text text-anchor="start" x="434" y="-213.7" font-family="Helvetica,sans-Serif" font-size="14.00">samples = 198</text>
<text text-anchor="start" x="434" y="-198.7" font-family="Helvetica,sans-Serif" font-size="14.00">value = 22.849</text>
</g>
<!-- 2&#45;&gt;6 -->
<g id="edge6" class="edge">
<title>2&#45;&gt;6</title>
<path fill="none" stroke="black" d="M478.62,-296.6C478.62,-289.03 478.62,-280.87 478.62,-272.9"/>
<polygon fill="black" stroke="black" points="482.13,-272.99 478.63,-262.99 475.13,-272.99 482.13,-272.99"/>
</g>
<!-- 4 -->
<g id="node5" class="node">
<title>4</title>
<path fill="#e58139" stroke="black" d="M123.25,-149.5C123.25,-149.5 12,-149.5 12,-149.5 6,-149.5 0,-143.5 0,-137.5 0,-137.5 0,-108.5 0,-108.5 0,-102.5 6,-96.5 12,-96.5 12,-96.5 123.25,-96.5 123.25,-96.5 129.25,-96.5 135.25,-102.5 135.25,-108.5 135.25,-108.5 135.25,-137.5 135.25,-137.5 135.25,-143.5 129.25,-149.5 123.25,-149.5"/>
<text text-anchor="start" x="8" y="-132.2" font-family="Helvetica,sans-Serif" font-size="14.00">squared_error = 0.0</text>
<text text-anchor="start" x="30.5" y="-117.2" font-family="Helvetica,sans-Serif" font-size="14.00">samples = 4</text>
<text text-anchor="start" x="30.5" y="-102.2" font-family="Helvetica,sans-Serif" font-size="14.00">value = 50.0</text>
</g>
<!-- 3&#45;&gt;4 -->
<g id="edge4" class="edge">
<title>3&#45;&gt;4</title>
<path fill="none" stroke="black" d="M172.54,-192.6C154.63,-180.89 134.55,-167.76 116.79,-156.14"/>
<polygon fill="black" stroke="black" points="118.74,-153.24 108.46,-150.7 114.91,-159.1 118.74,-153.24"/>
</g>
<!-- 5 -->
<g id="node6" class="node">
<title>5</title>
<path fill="#f3c5a4" stroke="black" d="M281.5,-149.5C281.5,-149.5 165.75,-149.5 165.75,-149.5 159.75,-149.5 153.75,-143.5 153.75,-137.5 153.75,-137.5 153.75,-108.5 153.75,-108.5 153.75,-102.5 159.75,-96.5 165.75,-96.5 165.75,-96.5 281.5,-96.5 281.5,-96.5 287.5,-96.5 293.5,-102.5 293.5,-108.5 293.5,-108.5 293.5,-137.5 293.5,-137.5 293.5,-143.5 287.5,-149.5 281.5,-149.5"/>
<text text-anchor="start" x="161.75" y="-132.2" font-family="Helvetica,sans-Serif" font-size="14.00">squared_error = &#45;0.0</text>
<text text-anchor="start" x="186.5" y="-117.2" font-family="Helvetica,sans-Serif" font-size="14.00">samples = 1</text>
<text text-anchor="start" x="186.5" y="-102.2" font-family="Helvetica,sans-Serif" font-size="14.00">value = 27.9</text>
</g>
<!-- 3&#45;&gt;5 -->
<g id="edge5" class="edge">
<title>3&#45;&gt;5</title>
<path fill="none" stroke="black" d="M223.62,-192.6C223.62,-182.47 223.62,-171.28 223.62,-160.93"/>
<polygon fill="black" stroke="black" points="227.13,-161.22 223.63,-151.22 220.13,-161.22 227.13,-161.22"/>
</g>
<!-- 7 -->
<g id="node8" class="node">
<title>7</title>
<path fill="#f7d9c3" stroke="black" d="M449.75,-157C449.75,-157 323.5,-157 323.5,-157 317.5,-157 311.5,-151 311.5,-145 311.5,-145 311.5,-101 311.5,-101 311.5,-95 317.5,-89 323.5,-89 323.5,-89 449.75,-89 449.75,-89 455.75,-89 461.75,-95 461.75,-101 461.75,-101 461.75,-145 461.75,-145 461.75,-151 455.75,-157 449.75,-157"/>
<text text-anchor="start" x="349.88" y="-139.7" font-family="Helvetica,sans-Serif" font-size="14.00">lstat ≤ 7.555</text>
<text text-anchor="start" x="319.5" y="-124.7" font-family="Helvetica,sans-Serif" font-size="14.00">squared_error = 8.565</text>
<text text-anchor="start" x="342" y="-109.7" font-family="Helvetica,sans-Serif" font-size="14.00">samples = 156</text>
<text text-anchor="start" x="345.75" y="-94.7" font-family="Helvetica,sans-Serif" font-size="14.00">value = 21.66</text>
</g>
<!-- 6&#45;&gt;7 -->
<g id="edge7" class="edge">
<title>6&#45;&gt;7</title>
<path fill="none" stroke="black" d="M448.5,-192.6C440.8,-184.06 432.42,-174.77 424.38,-165.86"/>
<polygon fill="black" stroke="black" points="427.13,-163.68 417.83,-158.6 421.93,-168.37 427.13,-163.68"/>
</g>
<!-- 10 -->
<g id="node11" class="node">
<title>10</title>
<path fill="#f3c7a7" stroke="black" d="M625.5,-157C625.5,-157 491.75,-157 491.75,-157 485.75,-157 479.75,-151 479.75,-145 479.75,-145 479.75,-101 479.75,-101 479.75,-95 485.75,-89 491.75,-89 491.75,-89 625.5,-89 625.5,-89 631.5,-89 637.5,-95 637.5,-101 637.5,-101 637.5,-145 637.5,-145 637.5,-151 631.5,-157 625.5,-157"/>
<text text-anchor="start" x="525.25" y="-139.7" font-family="Helvetica,sans-Serif" font-size="14.00">tax ≤ 269.0</text>
<text text-anchor="start" x="487.75" y="-124.7" font-family="Helvetica,sans-Serif" font-size="14.00">squared_error = 13.157</text>
<text text-anchor="start" x="517.75" y="-109.7" font-family="Helvetica,sans-Serif" font-size="14.00">samples = 42</text>
<text text-anchor="start" x="514" y="-94.7" font-family="Helvetica,sans-Serif" font-size="14.00">value = 27.269</text>
</g>
<!-- 6&#45;&gt;10 -->
<g id="edge10" class="edge">
<title>6&#45;&gt;10</title>
<path fill="none" stroke="black" d="M504.82,-192.6C511.38,-184.24 518.51,-175.15 525.36,-166.41"/>
<polygon fill="black" stroke="black" points="528.02,-168.69 531.44,-158.66 522.51,-164.37 528.02,-168.69"/>
</g>
<!-- 8 -->
<g id="node9" class="node">
<title>8</title>
<path fill="#f5d1b7" stroke="black" d="M281,-53C281,-53 162.25,-53 162.25,-53 156.25,-53 150.25,-47 150.25,-41 150.25,-41 150.25,-12 150.25,-12 150.25,-6 156.25,0 162.25,0 162.25,0 281,0 281,0 287,0 293,-6 293,-12 293,-12 293,-41 293,-41 293,-47 287,-53 281,-53"/>
<text text-anchor="start" x="158.25" y="-35.7" font-family="Helvetica,sans-Serif" font-size="14.00">squared_error = 2.49</text>
<text text-anchor="start" x="180.75" y="-20.7" font-family="Helvetica,sans-Serif" font-size="14.00">samples = 34</text>
<text text-anchor="start" x="177" y="-5.7" font-family="Helvetica,sans-Serif" font-size="14.00">value = 24.118</text>
</g>
<!-- 7&#45;&gt;8 -->
<g id="edge8" class="edge">
<title>7&#45;&gt;8</title>
<path fill="none" stroke="black" d="M328.45,-88.68C311.54,-79 293.14,-68.46 276.44,-58.9"/>
<polygon fill="black" stroke="black" points="278.57,-56.08 268.15,-54.15 275.09,-62.15 278.57,-56.08"/>
</g>
<!-- 9 -->
<g id="node10" class="node">
<title>9</title>
<path fill="#f8dbc6" stroke="black" d="M449.75,-53C449.75,-53 323.5,-53 323.5,-53 317.5,-53 311.5,-47 311.5,-41 311.5,-41 311.5,-12 311.5,-12 311.5,-6 317.5,0 323.5,0 323.5,0 449.75,0 449.75,0 455.75,0 461.75,-6 461.75,-12 461.75,-12 461.75,-41 461.75,-41 461.75,-47 455.75,-53 449.75,-53"/>
<text text-anchor="start" x="319.5" y="-35.7" font-family="Helvetica,sans-Serif" font-size="14.00">squared_error = 8.105</text>
<text text-anchor="start" x="342" y="-20.7" font-family="Helvetica,sans-Serif" font-size="14.00">samples = 122</text>
<text text-anchor="start" x="342" y="-5.7" font-family="Helvetica,sans-Serif" font-size="14.00">value = 20.975</text>
</g>
<!-- 7&#45;&gt;9 -->
<g id="edge9" class="edge">
<title>7&#45;&gt;9</title>
<path fill="none" stroke="black" d="M386.62,-88.68C386.62,-80.99 386.62,-72.76 386.62,-64.9"/>
<polygon fill="black" stroke="black" points="390.13,-64.91 386.63,-54.91 383.13,-64.91 390.13,-64.91"/>
</g>
<!-- 11 -->
<g id="node12" class="node">
<title>11</title>
<path fill="#f1bd98" stroke="black" d="M617.75,-53C617.75,-53 491.5,-53 491.5,-53 485.5,-53 479.5,-47 479.5,-41 479.5,-41 479.5,-12 479.5,-12 479.5,-6 485.5,0 491.5,0 491.5,0 617.75,0 617.75,0 623.75,0 629.75,-6 629.75,-12 629.75,-12 629.75,-41 629.75,-41 629.75,-47 623.75,-53 617.75,-53"/>
<text text-anchor="start" x="487.5" y="-35.7" font-family="Helvetica,sans-Serif" font-size="14.00">squared_error = 5.525</text>
<text text-anchor="start" x="513.75" y="-20.7" font-family="Helvetica,sans-Serif" font-size="14.00">samples = 12</text>
<text text-anchor="start" x="510" y="-5.7" font-family="Helvetica,sans-Serif" font-size="14.00">value = 30.475</text>
</g>
<!-- 10&#45;&gt;11 -->
<g id="edge11" class="edge">
<title>10&#45;&gt;11</title>
<path fill="none" stroke="black" d="M557.21,-88.68C556.89,-80.9 556.53,-72.56 556.2,-64.63"/>
<polygon fill="black" stroke="black" points="559.7,-64.75 555.79,-54.91 552.71,-65.05 559.7,-64.75"/>
</g>
<!-- 12 -->
<g id="node13" class="node">
<title>12</title>
<path fill="#f4cbae" stroke="black" d="M793.5,-53C793.5,-53 659.75,-53 659.75,-53 653.75,-53 647.75,-47 647.75,-41 647.75,-41 647.75,-12 647.75,-12 647.75,-6 653.75,0 659.75,0 659.75,0 793.5,0 793.5,0 799.5,0 805.5,-6 805.5,-12 805.5,-12 805.5,-41 805.5,-41 805.5,-47 799.5,-53 793.5,-53"/>
<text text-anchor="start" x="655.75" y="-35.7" font-family="Helvetica,sans-Serif" font-size="14.00">squared_error = 10.454</text>
<text text-anchor="start" x="685.75" y="-20.7" font-family="Helvetica,sans-Serif" font-size="14.00">samples = 30</text>
<text text-anchor="start" x="682" y="-5.7" font-family="Helvetica,sans-Serif" font-size="14.00">value = 25.987</text>
</g>
<!-- 10&#45;&gt;12 -->
<g id="edge12" class="edge">
<title>10&#45;&gt;12</title>
<path fill="none" stroke="black" d="M617.86,-88.68C635.07,-79 653.81,-68.46 670.81,-58.9"/>
<polygon fill="black" stroke="black" points="672.27,-62.09 679.27,-54.14 668.84,-55.99 672.27,-62.09"/>
</g>
<!-- 14 -->
<g id="node15" class="node">
<title>14</title>
<path fill="#fae5d7" stroke="black" d="M1384.5,-261C1384.5,-261 1250.75,-261 1250.75,-261 1244.75,-261 1238.75,-255 1238.75,-249 1238.75,-249 1238.75,-205 1238.75,-205 1238.75,-199 1244.75,-193 1250.75,-193 1250.75,-193 1384.5,-193 1384.5,-193 1390.5,-193 1396.5,-199 1396.5,-205 1396.5,-205 1396.5,-249 1396.5,-249 1396.5,-255 1390.5,-261 1384.5,-261"/>
<text text-anchor="start" x="1282.38" y="-243.7" font-family="Helvetica,sans-Serif" font-size="14.00">nox ≤ 0.607</text>
<text text-anchor="start" x="1246.75" y="-228.7" font-family="Helvetica,sans-Serif" font-size="14.00">squared_error = 11.507</text>
<text text-anchor="start" x="1276.75" y="-213.7" font-family="Helvetica,sans-Serif" font-size="14.00">samples = 74</text>
<text text-anchor="start" x="1273" y="-198.7" font-family="Helvetica,sans-Serif" font-size="14.00">value = 17.507</text>
</g>
<!-- 13&#45;&gt;14 -->
<g id="edge14" class="edge">
<title>13&#45;&gt;14</title>
<path fill="none" stroke="black" d="M1427.93,-296.6C1412.92,-287.27 1396.47,-277.04 1380.96,-267.39"/>
<polygon fill="black" stroke="black" points="1383.07,-264.58 1372.73,-262.27 1379.37,-270.53 1383.07,-264.58"/>
</g>
<!-- 21 -->
<g id="node22" class="node">
<title>21</title>
<path fill="#fdf6f0" stroke="black" d="M1712.5,-261C1712.5,-261 1578.75,-261 1578.75,-261 1572.75,-261 1566.75,-255 1566.75,-249 1566.75,-249 1566.75,-205 1566.75,-205 1566.75,-199 1572.75,-193 1578.75,-193 1578.75,-193 1712.5,-193 1712.5,-193 1718.5,-193 1724.5,-199 1724.5,-205 1724.5,-205 1724.5,-249 1724.5,-249 1724.5,-255 1718.5,-261 1712.5,-261"/>
<text text-anchor="start" x="1608.88" y="-243.7" font-family="Helvetica,sans-Serif" font-size="14.00">lstat ≤ 21.38</text>
<text text-anchor="start" x="1574.75" y="-228.7" font-family="Helvetica,sans-Serif" font-size="14.00">squared_error = 10.913</text>
<text text-anchor="start" x="1604.75" y="-213.7" font-family="Helvetica,sans-Serif" font-size="14.00">samples = 63</text>
<text text-anchor="start" x="1601" y="-198.7" font-family="Helvetica,sans-Serif" font-size="14.00">value = 12.254</text>
</g>
<!-- 13&#45;&gt;21 -->
<g id="edge21" class="edge">
<title>13&#45;&gt;21</title>
<path fill="none" stroke="black" d="M1535.32,-296.6C1550.33,-287.27 1566.78,-277.04 1582.29,-267.39"/>
<polygon fill="black" stroke="black" points="1583.88,-270.53 1590.52,-262.27 1580.18,-264.58 1583.88,-270.53"/>
</g>
<!-- 15 -->
<g id="node16" class="node">
<title>15</title>
<path fill="#f9e1d0" stroke="black" d="M1133.5,-157C1133.5,-157 999.75,-157 999.75,-157 993.75,-157 987.75,-151 987.75,-145 987.75,-145 987.75,-101 987.75,-101 987.75,-95 993.75,-89 999.75,-89 999.75,-89 1133.5,-89 1133.5,-89 1139.5,-89 1145.5,-95 1145.5,-101 1145.5,-101 1145.5,-145 1145.5,-145 1145.5,-151 1139.5,-157 1133.5,-157"/>
<text text-anchor="start" x="1023.5" y="-139.7" font-family="Helvetica,sans-Serif" font-size="14.00">ptratio ≤ 20.95</text>
<text text-anchor="start" x="995.75" y="-124.7" font-family="Helvetica,sans-Serif" font-size="14.00">squared_error = 10.155</text>
<text text-anchor="start" x="1025.75" y="-109.7" font-family="Helvetica,sans-Serif" font-size="14.00">samples = 43</text>
<text text-anchor="start" x="1022" y="-94.7" font-family="Helvetica,sans-Serif" font-size="14.00">value = 18.865</text>
</g>
<!-- 14&#45;&gt;15 -->
<g id="edge15" class="edge">
<title>14&#45;&gt;15</title>
<path fill="none" stroke="black" d="M1238.55,-193.87C1212.42,-183.25 1183.16,-171.36 1156.29,-160.44"/>
<polygon fill="black" stroke="black" points="1157.72,-157.24 1147.13,-156.72 1155.08,-163.72 1157.72,-157.24"/>
</g>
<!-- 18 -->
<g id="node19" class="node">
<title>18</title>
<path fill="#fbebe0" stroke="black" d="M1380.75,-157C1380.75,-157 1254.5,-157 1254.5,-157 1248.5,-157 1242.5,-151 1242.5,-145 1242.5,-145 1242.5,-101 1242.5,-101 1242.5,-95 1248.5,-89 1254.5,-89 1254.5,-89 1380.75,-89 1380.75,-89 1386.75,-89 1392.75,-95 1392.75,-101 1392.75,-101 1392.75,-145 1392.75,-145 1392.75,-151 1386.75,-157 1380.75,-157"/>
<text text-anchor="start" x="1277.12" y="-139.7" font-family="Helvetica,sans-Serif" font-size="14.00">lstat ≤ 18.885</text>
<text text-anchor="start" x="1250.5" y="-124.7" font-family="Helvetica,sans-Serif" font-size="14.00">squared_error = 7.273</text>
<text text-anchor="start" x="1276.75" y="-109.7" font-family="Helvetica,sans-Serif" font-size="14.00">samples = 31</text>
<text text-anchor="start" x="1273" y="-94.7" font-family="Helvetica,sans-Serif" font-size="14.00">value = 15.623</text>
</g>
<!-- 14&#45;&gt;18 -->
<g id="edge18" class="edge">
<title>14&#45;&gt;18</title>
<path fill="none" stroke="black" d="M1317.62,-192.6C1317.62,-185.03 1317.62,-176.87 1317.62,-168.9"/>
<polygon fill="black" stroke="black" points="1321.13,-168.99 1317.63,-158.99 1314.13,-168.99 1321.13,-168.99"/>
</g>
<!-- 16 -->
<g id="node17" class="node">
<title>16</title>
<path fill="#f8decb" stroke="black" d="M961.75,-53C961.75,-53 835.5,-53 835.5,-53 829.5,-53 823.5,-47 823.5,-41 823.5,-41 823.5,-12 823.5,-12 823.5,-6 829.5,0 835.5,0 835.5,0 961.75,0 961.75,0 967.75,0 973.75,-6 973.75,-12 973.75,-12 973.75,-41 973.75,-41 973.75,-47 967.75,-53 961.75,-53"/>
<text text-anchor="start" x="831.5" y="-35.7" font-family="Helvetica,sans-Serif" font-size="14.00">squared_error = 7.295</text>
<text text-anchor="start" x="857.75" y="-20.7" font-family="Helvetica,sans-Serif" font-size="14.00">samples = 34</text>
<text text-anchor="start" x="854" y="-5.7" font-family="Helvetica,sans-Serif" font-size="14.00">value = 19.835</text>
</g>
<!-- 15&#45;&gt;16 -->
<g id="edge16" class="edge">
<title>15&#45;&gt;16</title>
<path fill="none" stroke="black" d="M1007.39,-88.68C990.18,-79 971.44,-68.46 954.44,-58.9"/>
<polygon fill="black" stroke="black" points="956.41,-55.99 945.98,-54.14 952.98,-62.09 956.41,-55.99"/>
</g>
<!-- 17 -->
<g id="node18" class="node">
<title>17</title>
<path fill="#fbece2" stroke="black" d="M1129.75,-53C1129.75,-53 1003.5,-53 1003.5,-53 997.5,-53 991.5,-47 991.5,-41 991.5,-41 991.5,-12 991.5,-12 991.5,-6 997.5,0 1003.5,0 1003.5,0 1129.75,0 1129.75,0 1135.75,0 1141.75,-6 1141.75,-12 1141.75,-12 1141.75,-41 1141.75,-41 1141.75,-47 1135.75,-53 1129.75,-53"/>
<text text-anchor="start" x="999.5" y="-35.7" font-family="Helvetica,sans-Serif" font-size="14.00">squared_error = 3.973</text>
<text text-anchor="start" x="1029.5" y="-20.7" font-family="Helvetica,sans-Serif" font-size="14.00">samples = 9</text>
<text text-anchor="start" x="1029.5" y="-5.7" font-family="Helvetica,sans-Serif" font-size="14.00">value = 15.2</text>
</g>
<!-- 15&#45;&gt;17 -->
<g id="edge17" class="edge">
<title>15&#45;&gt;17</title>
<path fill="none" stroke="black" d="M1066.62,-88.68C1066.62,-80.99 1066.62,-72.76 1066.62,-64.9"/>
<polygon fill="black" stroke="black" points="1070.13,-64.91 1066.63,-54.91 1063.13,-64.91 1070.13,-64.91"/>
</g>
<!-- 19 -->
<g id="node20" class="node">
<title>19</title>
<path fill="#fae8db" stroke="black" d="M1291,-53C1291,-53 1172.25,-53 1172.25,-53 1166.25,-53 1160.25,-47 1160.25,-41 1160.25,-41 1160.25,-12 1160.25,-12 1160.25,-6 1166.25,0 1172.25,0 1172.25,0 1291,0 1291,0 1297,0 1303,-6 1303,-12 1303,-12 1303,-41 1303,-41 1303,-47 1297,-53 1291,-53"/>
<text text-anchor="start" x="1168.25" y="-35.7" font-family="Helvetica,sans-Serif" font-size="14.00">squared_error = 5.14</text>
<text text-anchor="start" x="1190.75" y="-20.7" font-family="Helvetica,sans-Serif" font-size="14.00">samples = 20</text>
<text text-anchor="start" x="1190.75" y="-5.7" font-family="Helvetica,sans-Serif" font-size="14.00">value = 16.67</text>
</g>
<!-- 18&#45;&gt;19 -->
<g id="edge19" class="edge">
<title>18&#45;&gt;19</title>
<path fill="none" stroke="black" d="M1287.3,-88.68C1279.4,-79.99 1270.86,-70.62 1262.91,-61.87"/>
<polygon fill="black" stroke="black" points="1265.53,-59.55 1256.21,-54.51 1260.35,-64.26 1265.53,-59.55"/>
</g>
<!-- 20 -->
<g id="node21" class="node">
<title>20</title>
<path fill="#fcf1e9" stroke="black" d="M1459.75,-53C1459.75,-53 1333.5,-53 1333.5,-53 1327.5,-53 1321.5,-47 1321.5,-41 1321.5,-41 1321.5,-12 1321.5,-12 1321.5,-6 1327.5,0 1333.5,0 1333.5,0 1459.75,0 1459.75,0 1465.75,0 1471.75,-6 1471.75,-12 1471.75,-12 1471.75,-41 1471.75,-41 1471.75,-47 1465.75,-53 1459.75,-53"/>
<text text-anchor="start" x="1329.5" y="-35.7" font-family="Helvetica,sans-Serif" font-size="14.00">squared_error = 5.531</text>
<text text-anchor="start" x="1355.75" y="-20.7" font-family="Helvetica,sans-Serif" font-size="14.00">samples = 11</text>
<text text-anchor="start" x="1352" y="-5.7" font-family="Helvetica,sans-Serif" font-size="14.00">value = 13.718</text>
</g>
<!-- 18&#45;&gt;20 -->
<g id="edge20" class="edge">
<title>18&#45;&gt;20</title>
<path fill="none" stroke="black" d="M1345.48,-88.68C1352.66,-80.09 1360.42,-70.81 1367.66,-62.15"/>
<polygon fill="black" stroke="black" points="1370.28,-64.47 1374.01,-54.56 1364.91,-59.98 1370.28,-64.47"/>
</g>
<!-- 22 -->
<g id="node23" class="node">
<title>22</title>
<path fill="#fcf1e9" stroke="black" d="M1708.75,-157C1708.75,-157 1582.5,-157 1582.5,-157 1576.5,-157 1570.5,-151 1570.5,-145 1570.5,-145 1570.5,-101 1570.5,-101 1570.5,-95 1576.5,-89 1582.5,-89 1582.5,-89 1708.75,-89 1708.75,-89 1714.75,-89 1720.75,-95 1720.75,-101 1720.75,-101 1720.75,-145 1720.75,-145 1720.75,-151 1714.75,-157 1708.75,-157"/>
<text text-anchor="start" x="1612.62" y="-139.7" font-family="Helvetica,sans-Serif" font-size="14.00">dis ≤ 2.803</text>
<text text-anchor="start" x="1578.5" y="-124.7" font-family="Helvetica,sans-Serif" font-size="14.00">squared_error = 7.699</text>
<text text-anchor="start" x="1604.75" y="-109.7" font-family="Helvetica,sans-Serif" font-size="14.00">samples = 32</text>
<text text-anchor="start" x="1601" y="-94.7" font-family="Helvetica,sans-Serif" font-size="14.00">value = 13.794</text>
</g>
<!-- 21&#45;&gt;22 -->
<g id="edge22" class="edge">
<title>21&#45;&gt;22</title>
<path fill="none" stroke="black" d="M1645.62,-192.6C1645.62,-185.03 1645.62,-176.87 1645.62,-168.9"/>
<polygon fill="black" stroke="black" points="1649.13,-168.99 1645.63,-158.99 1642.13,-168.99 1649.13,-168.99"/>
</g>
<!-- 25 -->
<g id="node26" class="node">
<title>25</title>
<path fill="#fefbf8" stroke="black" d="M1957.75,-157C1957.75,-157 1831.5,-157 1831.5,-157 1825.5,-157 1819.5,-151 1819.5,-145 1819.5,-145 1819.5,-101 1819.5,-101 1819.5,-95 1825.5,-89 1831.5,-89 1831.5,-89 1957.75,-89 1957.75,-89 1963.75,-89 1969.75,-95 1969.75,-101 1969.75,-101 1969.75,-145 1969.75,-145 1969.75,-151 1963.75,-157 1957.75,-157"/>
<text text-anchor="start" x="1859.38" y="-139.7" font-family="Helvetica,sans-Serif" font-size="14.00">nox ≤ 0.675</text>
<text text-anchor="start" x="1827.5" y="-124.7" font-family="Helvetica,sans-Serif" font-size="14.00">squared_error = 9.258</text>
<text text-anchor="start" x="1853.75" y="-109.7" font-family="Helvetica,sans-Serif" font-size="14.00">samples = 31</text>
<text text-anchor="start" x="1850" y="-94.7" font-family="Helvetica,sans-Serif" font-size="14.00">value = 10.665</text>
</g>
<!-- 21&#45;&gt;25 -->
<g id="edge25" class="edge">
<title>21&#45;&gt;25</title>
<path fill="none" stroke="black" d="M1724.75,-193.59C1751.52,-182.62 1781.53,-170.33 1808.8,-159.16"/>
<polygon fill="black" stroke="black" points="1809.77,-162.54 1817.7,-155.51 1807.12,-156.06 1809.77,-162.54"/>
</g>
<!-- 23 -->
<g id="node24" class="node">
<title>23</title>
<path fill="#fcf2eb" stroke="black" d="M1627.75,-53C1627.75,-53 1501.5,-53 1501.5,-53 1495.5,-53 1489.5,-47 1489.5,-41 1489.5,-41 1489.5,-12 1489.5,-12 1489.5,-6 1495.5,0 1501.5,0 1501.5,0 1627.75,0 1627.75,0 1633.75,0 1639.75,-6 1639.75,-12 1639.75,-12 1639.75,-41 1639.75,-41 1639.75,-47 1633.75,-53 1627.75,-53"/>
<text text-anchor="start" x="1497.5" y="-35.7" font-family="Helvetica,sans-Serif" font-size="14.00">squared_error = 5.798</text>
<text text-anchor="start" x="1523.75" y="-20.7" font-family="Helvetica,sans-Serif" font-size="14.00">samples = 30</text>
<text text-anchor="start" x="1520" y="-5.7" font-family="Helvetica,sans-Serif" font-size="14.00">value = 13.407</text>
</g>
<!-- 22&#45;&gt;23 -->
<g id="edge23" class="edge">
<title>22&#45;&gt;23</title>
<path fill="none" stroke="black" d="M1617.07,-88.68C1609.62,-79.99 1601.58,-70.62 1594.09,-61.87"/>
<polygon fill="black" stroke="black" points="1596.97,-59.86 1587.8,-54.54 1591.66,-64.41 1596.97,-59.86"/>
</g>
<!-- 24 -->
<g id="node25" class="node">
<title>24</title>
<path fill="#f8dfcd" stroke="black" d="M1789,-53C1789,-53 1670.25,-53 1670.25,-53 1664.25,-53 1658.25,-47 1658.25,-41 1658.25,-41 1658.25,-12 1658.25,-12 1658.25,-6 1664.25,0 1670.25,0 1670.25,0 1789,0 1789,0 1795,0 1801,-6 1801,-12 1801,-12 1801,-41 1801,-41 1801,-47 1795,-53 1789,-53"/>
<text text-anchor="start" x="1666.25" y="-35.7" font-family="Helvetica,sans-Serif" font-size="14.00">squared_error = 0.25</text>
<text text-anchor="start" x="1692.5" y="-20.7" font-family="Helvetica,sans-Serif" font-size="14.00">samples = 2</text>
<text text-anchor="start" x="1692.5" y="-5.7" font-family="Helvetica,sans-Serif" font-size="14.00">value = 19.6</text>
</g>
<!-- 22&#45;&gt;24 -->
<g id="edge24" class="edge">
<title>22&#45;&gt;24</title>
<path fill="none" stroke="black" d="M1675.24,-88.68C1682.96,-79.99 1691.3,-70.62 1699.07,-61.87"/>
<polygon fill="black" stroke="black" points="1701.58,-64.32 1705.6,-54.53 1696.34,-59.67 1701.58,-64.32"/>
</g>
<!-- 26 -->
<g id="node27" class="node">
<title>26</title>
<path fill="#fcf1e9" stroke="black" d="M1957.75,-53C1957.75,-53 1831.5,-53 1831.5,-53 1825.5,-53 1819.5,-47 1819.5,-41 1819.5,-41 1819.5,-12 1819.5,-12 1819.5,-6 1825.5,0 1831.5,0 1831.5,0 1957.75,0 1957.75,0 1963.75,0 1969.75,-6 1969.75,-12 1969.75,-12 1969.75,-41 1969.75,-41 1969.75,-47 1963.75,-53 1957.75,-53"/>
<text text-anchor="start" x="1827.5" y="-35.7" font-family="Helvetica,sans-Serif" font-size="14.00">squared_error = 4.878</text>
<text text-anchor="start" x="1853.75" y="-20.7" font-family="Helvetica,sans-Serif" font-size="14.00">samples = 10</text>
<text text-anchor="start" x="1853.75" y="-5.7" font-family="Helvetica,sans-Serif" font-size="14.00">value = 13.72</text>
</g>
<!-- 25&#45;&gt;26 -->
<g id="edge26" class="edge">
<title>25&#45;&gt;26</title>
<path fill="none" stroke="black" d="M1894.62,-88.68C1894.62,-80.99 1894.62,-72.76 1894.62,-64.9"/>
<polygon fill="black" stroke="black" points="1898.13,-64.91 1894.63,-54.91 1891.13,-64.91 1898.13,-64.91"/>
</g>
<!-- 27 -->
<g id="node28" class="node">
<title>27</title>
<path fill="#ffffff" stroke="black" d="M2125.75,-53C2125.75,-53 1999.5,-53 1999.5,-53 1993.5,-53 1987.5,-47 1987.5,-41 1987.5,-41 1987.5,-12 1987.5,-12 1987.5,-6 1993.5,0 1999.5,0 1999.5,0 2125.75,0 2125.75,0 2131.75,0 2137.75,-6 2137.75,-12 2137.75,-12 2137.75,-41 2137.75,-41 2137.75,-47 2131.75,-53 2125.75,-53"/>
<text text-anchor="start" x="1995.5" y="-35.7" font-family="Helvetica,sans-Serif" font-size="14.00">squared_error = 4.781</text>
<text text-anchor="start" x="2021.75" y="-20.7" font-family="Helvetica,sans-Serif" font-size="14.00">samples = 21</text>
<text text-anchor="start" x="2025.5" y="-5.7" font-family="Helvetica,sans-Serif" font-size="14.00">value = 9.21</text>
</g>
<!-- 25&#45;&gt;27 -->
<g id="edge27" class="edge">
<title>25&#45;&gt;27</title>
<path fill="none" stroke="black" d="M1953.86,-88.68C1971.07,-79 1989.81,-68.46 2006.81,-58.9"/>
<polygon fill="black" stroke="black" points="2008.27,-62.09 2015.27,-54.14 2004.84,-55.99 2008.27,-62.09"/>
</g>
<!-- 29 -->
<g id="node30" class="node">
<title>29</title>
<path fill="#f0b88f" stroke="black" d="M2697.75,-365C2697.75,-365 2571.5,-365 2571.5,-365 2565.5,-365 2559.5,-359 2559.5,-353 2559.5,-353 2559.5,-309 2559.5,-309 2559.5,-303 2565.5,-297 2571.5,-297 2571.5,-297 2697.75,-297 2697.75,-297 2703.75,-297 2709.75,-303 2709.75,-309 2709.75,-309 2709.75,-353 2709.75,-353 2709.75,-359 2703.75,-365 2697.75,-365"/>
<text text-anchor="start" x="2599.38" y="-347.7" font-family="Helvetica,sans-Serif" font-size="14.00">nox ≤ 0.659</text>
<text text-anchor="start" x="2567.5" y="-332.7" font-family="Helvetica,sans-Serif" font-size="14.00">squared_error = 44.82</text>
<text text-anchor="start" x="2593.75" y="-317.7" font-family="Helvetica,sans-Serif" font-size="14.00">samples = 39</text>
<text text-anchor="start" x="2590" y="-302.7" font-family="Helvetica,sans-Serif" font-size="14.00">value = 32.256</text>
</g>
<!-- 28&#45;&gt;29 -->
<g id="edge29" class="edge">
<title>28&#45;&gt;29</title>
<path fill="none" stroke="black" d="M2634.62,-400.6C2634.62,-393.03 2634.62,-384.87 2634.62,-376.9"/>
<polygon fill="black" stroke="black" points="2638.13,-376.99 2634.63,-366.99 2631.13,-376.99 2638.13,-376.99"/>
</g>
<!-- 42 -->
<g id="node43" class="node">
<title>42</title>
<path fill="#e78b49" stroke="black" d="M3507.75,-365C3507.75,-365 3381.5,-365 3381.5,-365 3375.5,-365 3369.5,-359 3369.5,-353 3369.5,-353 3369.5,-309 3369.5,-309 3369.5,-303 3375.5,-297 3381.5,-297 3381.5,-297 3507.75,-297 3507.75,-297 3513.75,-297 3519.75,-303 3519.75,-309 3519.75,-309 3519.75,-353 3519.75,-353 3519.75,-359 3513.75,-365 3507.75,-365"/>
<text text-anchor="start" x="3405.25" y="-347.7" font-family="Helvetica,sans-Serif" font-size="14.00">ptratio ≤ 18.2</text>
<text text-anchor="start" x="3377.5" y="-332.7" font-family="Helvetica,sans-Serif" font-size="14.00">squared_error = 16.86</text>
<text text-anchor="start" x="3403.75" y="-317.7" font-family="Helvetica,sans-Serif" font-size="14.00">samples = 25</text>
<text text-anchor="start" x="3400" y="-302.7" font-family="Helvetica,sans-Serif" font-size="14.00">value = 46.656</text>
</g>
<!-- 28&#45;&gt;42 -->
<g id="edge42" class="edge">
<title>28&#45;&gt;42</title>
<path fill="none" stroke="black" d="M2713.77,-424.03C2866.25,-404.83 3199.66,-362.85 3357.92,-342.92"/>
<polygon fill="black" stroke="black" points="3358.03,-346.43 3367.51,-341.71 3357.15,-339.49 3358.03,-346.43"/>
</g>
<!-- 30 -->
<g id="node31" class="node">
<title>30</title>
<path fill="#efb388" stroke="black" d="M2615.5,-261C2615.5,-261 2481.75,-261 2481.75,-261 2475.75,-261 2469.75,-255 2469.75,-249 2469.75,-249 2469.75,-205 2469.75,-205 2469.75,-199 2475.75,-193 2481.75,-193 2481.75,-193 2615.5,-193 2615.5,-193 2621.5,-193 2627.5,-199 2627.5,-205 2627.5,-205 2627.5,-249 2627.5,-249 2627.5,-255 2621.5,-261 2615.5,-261"/>
<text text-anchor="start" x="2515.62" y="-243.7" font-family="Helvetica,sans-Serif" font-size="14.00">dis ≤ 1.904</text>
<text text-anchor="start" x="2477.75" y="-228.7" font-family="Helvetica,sans-Serif" font-size="14.00">squared_error = 18.995</text>
<text text-anchor="start" x="2507.75" y="-213.7" font-family="Helvetica,sans-Serif" font-size="14.00">samples = 36</text>
<text text-anchor="start" x="2504" y="-198.7" font-family="Helvetica,sans-Serif" font-size="14.00">value = 33.744</text>
</g>
<!-- 29&#45;&gt;30 -->
<g id="edge30" class="edge">
<title>29&#45;&gt;30</title>
<path fill="none" stroke="black" d="M2606.47,-296.6C2599.34,-288.15 2591.59,-278.96 2584.15,-270.13"/>
<polygon fill="black" stroke="black" points="2586.95,-268.02 2577.82,-262.63 2581.59,-272.53 2586.95,-268.02"/>
</g>
<!-- 37 -->
<g id="node38" class="node">
<title>37</title>
<path fill="#fcefe6" stroke="black" d="M2783.75,-261C2783.75,-261 2657.5,-261 2657.5,-261 2651.5,-261 2645.5,-255 2645.5,-249 2645.5,-249 2645.5,-205 2645.5,-205 2645.5,-199 2651.5,-193 2657.5,-193 2657.5,-193 2783.75,-193 2783.75,-193 2789.75,-193 2795.75,-199 2795.75,-205 2795.75,-205 2795.75,-249 2795.75,-249 2795.75,-255 2789.75,-261 2783.75,-261"/>
<text text-anchor="start" x="2688" y="-243.7" font-family="Helvetica,sans-Serif" font-size="14.00">rm ≤ 7.141</text>
<text text-anchor="start" x="2653.5" y="-228.7" font-family="Helvetica,sans-Serif" font-size="14.00">squared_error = 9.307</text>
<text text-anchor="start" x="2683.5" y="-213.7" font-family="Helvetica,sans-Serif" font-size="14.00">samples = 3</text>
<text text-anchor="start" x="2683.5" y="-198.7" font-family="Helvetica,sans-Serif" font-size="14.00">value = 14.4</text>
</g>
<!-- 29&#45;&gt;37 -->
<g id="edge37" class="edge">
<title>29&#45;&gt;37</title>
<path fill="none" stroke="black" d="M2662.78,-296.6C2669.91,-288.15 2677.66,-278.96 2685.1,-270.13"/>
<polygon fill="black" stroke="black" points="2687.66,-272.53 2691.43,-262.63 2682.3,-268.02 2687.66,-272.53"/>
</g>
<!-- 31 -->
<g id="node32" class="node">
<title>31</title>
<path fill="#e88e4e" stroke="black" d="M2441.5,-157C2441.5,-157 2307.75,-157 2307.75,-157 2301.75,-157 2295.75,-151 2295.75,-145 2295.75,-145 2295.75,-101 2295.75,-101 2295.75,-95 2301.75,-89 2307.75,-89 2307.75,-89 2441.5,-89 2441.5,-89 2447.5,-89 2453.5,-95 2453.5,-101 2453.5,-101 2453.5,-145 2453.5,-145 2453.5,-151 2447.5,-157 2441.5,-157"/>
<text text-anchor="start" x="2337.12" y="-139.7" font-family="Helvetica,sans-Serif" font-size="14.00">crim ≤ 3.881</text>
<text text-anchor="start" x="2303.75" y="-124.7" font-family="Helvetica,sans-Serif" font-size="14.00">squared_error = 18.923</text>
<text text-anchor="start" x="2337.5" y="-109.7" font-family="Helvetica,sans-Serif" font-size="14.00">samples = 2</text>
<text text-anchor="start" x="2333.75" y="-94.7" font-family="Helvetica,sans-Serif" font-size="14.00">value = 45.65</text>
</g>
<!-- 30&#45;&gt;31 -->
<g id="edge31" class="edge">
<title>30&#45;&gt;31</title>
<path fill="none" stroke="black" d="M2491.65,-192.6C2475.58,-183.18 2457.95,-172.84 2441.36,-163.12"/>
<polygon fill="black" stroke="black" points="2443.43,-160.28 2433.03,-158.24 2439.89,-166.32 2443.43,-160.28"/>
</g>
<!-- 34 -->
<g id="node35" class="node">
<title>34</title>
<path fill="#f0b58b" stroke="black" d="M2617.5,-157C2617.5,-157 2483.75,-157 2483.75,-157 2477.75,-157 2471.75,-151 2471.75,-145 2471.75,-145 2471.75,-101 2471.75,-101 2471.75,-95 2477.75,-89 2483.75,-89 2483.75,-89 2617.5,-89 2617.5,-89 2623.5,-89 2629.5,-95 2629.5,-101 2629.5,-101 2629.5,-145 2629.5,-145 2629.5,-151 2623.5,-157 2617.5,-157"/>
<text text-anchor="start" x="2515.38" y="-139.7" font-family="Helvetica,sans-Serif" font-size="14.00">nox ≤ 0.488</text>
<text text-anchor="start" x="2479.75" y="-124.7" font-family="Helvetica,sans-Serif" font-size="14.00">squared_error = 10.171</text>
<text text-anchor="start" x="2509.75" y="-109.7" font-family="Helvetica,sans-Serif" font-size="14.00">samples = 34</text>
<text text-anchor="start" x="2506" y="-94.7" font-family="Helvetica,sans-Serif" font-size="14.00">value = 33.044</text>
</g>
<!-- 30&#45;&gt;34 -->
<g id="edge34" class="edge">
<title>30&#45;&gt;34</title>
<path fill="none" stroke="black" d="M2549.28,-192.6C2549.43,-185.03 2549.59,-176.87 2549.74,-168.9"/>
<polygon fill="black" stroke="black" points="2553.24,-169.05 2549.94,-158.99 2546.24,-168.92 2553.24,-169.05"/>
</g>
<!-- 32 -->
<g id="node33" class="node">
<title>32</title>
<path fill="#eb9c63" stroke="black" d="M2279.25,-53C2279.25,-53 2168,-53 2168,-53 2162,-53 2156,-47 2156,-41 2156,-41 2156,-12 2156,-12 2156,-6 2162,0 2168,0 2168,0 2279.25,0 2279.25,0 2285.25,0 2291.25,-6 2291.25,-12 2291.25,-12 2291.25,-41 2291.25,-41 2291.25,-47 2285.25,-53 2279.25,-53"/>
<text text-anchor="start" x="2164" y="-35.7" font-family="Helvetica,sans-Serif" font-size="14.00">squared_error = 0.0</text>
<text text-anchor="start" x="2186.5" y="-20.7" font-family="Helvetica,sans-Serif" font-size="14.00">samples = 1</text>
<text text-anchor="start" x="2186.5" y="-5.7" font-family="Helvetica,sans-Serif" font-size="14.00">value = 41.3</text>
</g>
<!-- 31&#45;&gt;32 -->
<g id="edge32" class="edge">
<title>31&#45;&gt;32</title>
<path fill="none" stroke="black" d="M2321.39,-88.68C2306.2,-79.18 2289.7,-68.85 2274.65,-59.43"/>
<polygon fill="black" stroke="black" points="2276.62,-56.53 2266.28,-54.2 2272.9,-62.47 2276.62,-56.53"/>
</g>
<!-- 33 -->
<g id="node34" class="node">
<title>33</title>
<path fill="#e58139" stroke="black" d="M2432.25,-53C2432.25,-53 2321,-53 2321,-53 2315,-53 2309,-47 2309,-41 2309,-41 2309,-12 2309,-12 2309,-6 2315,0 2321,0 2321,0 2432.25,0 2432.25,0 2438.25,0 2444.25,-6 2444.25,-12 2444.25,-12 2444.25,-41 2444.25,-41 2444.25,-47 2438.25,-53 2432.25,-53"/>
<text text-anchor="start" x="2317" y="-35.7" font-family="Helvetica,sans-Serif" font-size="14.00">squared_error = 0.0</text>
<text text-anchor="start" x="2339.5" y="-20.7" font-family="Helvetica,sans-Serif" font-size="14.00">samples = 1</text>
<text text-anchor="start" x="2339.5" y="-5.7" font-family="Helvetica,sans-Serif" font-size="14.00">value = 50.0</text>
</g>
<!-- 31&#45;&gt;33 -->
<g id="edge33" class="edge">
<title>31&#45;&gt;33</title>
<path fill="none" stroke="black" d="M2375.33,-88.68C2375.49,-80.99 2375.67,-72.76 2375.83,-64.9"/>
<polygon fill="black" stroke="black" points="2379.33,-64.98 2376.04,-54.91 2372.33,-64.83 2379.33,-64.98"/>
</g>
<!-- 35 -->
<g id="node36" class="node">
<title>35</title>
<path fill="#efb285" stroke="black" d="M2600.75,-53C2600.75,-53 2474.5,-53 2474.5,-53 2468.5,-53 2462.5,-47 2462.5,-41 2462.5,-41 2462.5,-12 2462.5,-12 2462.5,-6 2468.5,0 2474.5,0 2474.5,0 2600.75,0 2600.75,0 2606.75,0 2612.75,-6 2612.75,-12 2612.75,-12 2612.75,-41 2612.75,-41 2612.75,-47 2606.75,-53 2600.75,-53"/>
<text text-anchor="start" x="2470.5" y="-35.7" font-family="Helvetica,sans-Serif" font-size="14.00">squared_error = 5.422</text>
<text text-anchor="start" x="2496.75" y="-20.7" font-family="Helvetica,sans-Serif" font-size="14.00">samples = 23</text>
<text text-anchor="start" x="2493" y="-5.7" font-family="Helvetica,sans-Serif" font-size="14.00">value = 34.257</text>
</g>
<!-- 34&#45;&gt;35 -->
<g id="edge35" class="edge">
<title>34&#45;&gt;35</title>
<path fill="none" stroke="black" d="M2546.04,-88.68C2544.97,-80.9 2543.82,-72.56 2542.73,-64.63"/>
<polygon fill="black" stroke="black" points="2546.22,-64.32 2541.39,-54.89 2539.29,-65.28 2546.22,-64.32"/>
</g>
<!-- 36 -->
<g id="node37" class="node">
<title>36</title>
<path fill="#f1bd98" stroke="black" d="M2776.5,-53C2776.5,-53 2642.75,-53 2642.75,-53 2636.75,-53 2630.75,-47 2630.75,-41 2630.75,-41 2630.75,-12 2630.75,-12 2630.75,-6 2636.75,0 2642.75,0 2642.75,0 2776.5,0 2776.5,0 2782.5,0 2788.5,-6 2788.5,-12 2788.5,-12 2788.5,-41 2788.5,-41 2788.5,-47 2782.5,-53 2776.5,-53"/>
<text text-anchor="start" x="2638.75" y="-35.7" font-family="Helvetica,sans-Serif" font-size="14.00">squared_error = 10.601</text>
<text text-anchor="start" x="2668.75" y="-20.7" font-family="Helvetica,sans-Serif" font-size="14.00">samples = 11</text>
<text text-anchor="start" x="2665" y="-5.7" font-family="Helvetica,sans-Serif" font-size="14.00">value = 30.509</text>
</g>
<!-- 34&#45;&gt;36 -->
<g id="edge36" class="edge">
<title>34&#45;&gt;36</title>
<path fill="none" stroke="black" d="M2606.68,-88.68C2622.82,-79.09 2640.38,-68.65 2656.35,-59.16"/>
<polygon fill="black" stroke="black" points="2657.95,-62.28 2664.76,-54.17 2654.37,-56.27 2657.95,-62.28"/>
</g>
<!-- 38 -->
<g id="node39" class="node">
<title>38</title>
<path fill="#fefbf9" stroke="black" d="M2774.25,-149.5C2774.25,-149.5 2663,-149.5 2663,-149.5 2657,-149.5 2651,-143.5 2651,-137.5 2651,-137.5 2651,-108.5 2651,-108.5 2651,-102.5 2657,-96.5 2663,-96.5 2663,-96.5 2774.25,-96.5 2774.25,-96.5 2780.25,-96.5 2786.25,-102.5 2786.25,-108.5 2786.25,-108.5 2786.25,-137.5 2786.25,-137.5 2786.25,-143.5 2780.25,-149.5 2774.25,-149.5"/>
<text text-anchor="start" x="2659" y="-132.2" font-family="Helvetica,sans-Serif" font-size="14.00">squared_error = 0.0</text>
<text text-anchor="start" x="2681.5" y="-117.2" font-family="Helvetica,sans-Serif" font-size="14.00">samples = 1</text>
<text text-anchor="start" x="2681.5" y="-102.2" font-family="Helvetica,sans-Serif" font-size="14.00">value = 10.4</text>
</g>
<!-- 37&#45;&gt;38 -->
<g id="edge38" class="edge">
<title>37&#45;&gt;38</title>
<path fill="none" stroke="black" d="M2719.97,-192.6C2719.77,-182.47 2719.55,-171.28 2719.35,-160.93"/>
<polygon fill="black" stroke="black" points="2722.85,-161.15 2719.16,-151.22 2715.86,-161.29 2722.85,-161.15"/>
</g>
<!-- 39 -->
<g id="node40" class="node">
<title>39</title>
<path fill="#fae9dc" stroke="black" d="M2935,-157C2935,-157 2816.25,-157 2816.25,-157 2810.25,-157 2804.25,-151 2804.25,-145 2804.25,-145 2804.25,-101 2804.25,-101 2804.25,-95 2810.25,-89 2816.25,-89 2816.25,-89 2935,-89 2935,-89 2941,-89 2947,-95 2947,-101 2947,-101 2947,-145 2947,-145 2947,-151 2941,-157 2935,-157"/>
<text text-anchor="start" x="2834.38" y="-139.7" font-family="Helvetica,sans-Serif" font-size="14.00">crim ≤ 13.929</text>
<text text-anchor="start" x="2812.25" y="-124.7" font-family="Helvetica,sans-Serif" font-size="14.00">squared_error = 1.96</text>
<text text-anchor="start" x="2838.5" y="-109.7" font-family="Helvetica,sans-Serif" font-size="14.00">samples = 2</text>
<text text-anchor="start" x="2838.5" y="-94.7" font-family="Helvetica,sans-Serif" font-size="14.00">value = 16.4</text>
</g>
<!-- 37&#45;&gt;39 -->
<g id="edge39" class="edge">
<title>37&#45;&gt;39</title>
<path fill="none" stroke="black" d="M2771.38,-192.6C2785.43,-183.36 2800.82,-173.23 2815.35,-163.66"/>
<polygon fill="black" stroke="black" points="2817.06,-166.73 2823.49,-158.31 2813.22,-160.88 2817.06,-166.73"/>
</g>
<!-- 40 -->
<g id="node41" class="node">
<title>40</title>
<path fill="#fae4d5" stroke="black" d="M2930.25,-53C2930.25,-53 2819,-53 2819,-53 2813,-53 2807,-47 2807,-41 2807,-41 2807,-12 2807,-12 2807,-6 2813,0 2819,0 2819,0 2930.25,0 2930.25,0 2936.25,0 2942.25,-6 2942.25,-12 2942.25,-12 2942.25,-41 2942.25,-41 2942.25,-47 2936.25,-53 2930.25,-53"/>
<text text-anchor="start" x="2815" y="-35.7" font-family="Helvetica,sans-Serif" font-size="14.00">squared_error = 0.0</text>
<text text-anchor="start" x="2837.5" y="-20.7" font-family="Helvetica,sans-Serif" font-size="14.00">samples = 1</text>
<text text-anchor="start" x="2837.5" y="-5.7" font-family="Helvetica,sans-Serif" font-size="14.00">value = 17.8</text>
</g>
<!-- 39&#45;&gt;40 -->
<g id="edge40" class="edge">
<title>39&#45;&gt;40</title>
<path fill="none" stroke="black" d="M2875.27,-88.68C2875.19,-80.99 2875.1,-72.76 2875.02,-64.9"/>
<polygon fill="black" stroke="black" points="2878.52,-64.87 2874.92,-54.91 2871.52,-64.94 2878.52,-64.87"/>
</g>
<!-- 41 -->
<g id="node42" class="node">
<title>41</title>
<path fill="#fbede3" stroke="black" d="M3083.25,-53C3083.25,-53 2972,-53 2972,-53 2966,-53 2960,-47 2960,-41 2960,-41 2960,-12 2960,-12 2960,-6 2966,0 2972,0 2972,0 3083.25,0 3083.25,0 3089.25,0 3095.25,-6 3095.25,-12 3095.25,-12 3095.25,-41 3095.25,-41 3095.25,-47 3089.25,-53 3083.25,-53"/>
<text text-anchor="start" x="2968" y="-35.7" font-family="Helvetica,sans-Serif" font-size="14.00">squared_error = 0.0</text>
<text text-anchor="start" x="2990.5" y="-20.7" font-family="Helvetica,sans-Serif" font-size="14.00">samples = 1</text>
<text text-anchor="start" x="2990.5" y="-5.7" font-family="Helvetica,sans-Serif" font-size="14.00">value = 15.0</text>
</g>
<!-- 39&#45;&gt;41 -->
<g id="edge41" class="edge">
<title>39&#45;&gt;41</title>
<path fill="none" stroke="black" d="M2929.21,-88.68C2944.5,-79.18 2961.11,-68.85 2976.26,-59.43"/>
<polygon fill="black" stroke="black" points="2978.05,-62.45 2984.69,-54.19 2974.35,-56.5 2978.05,-62.45"/>
</g>
<!-- 43 -->
<g id="node44" class="node">
<title>43</title>
<path fill="#e78946" stroke="black" d="M3507.75,-261C3507.75,-261 3381.5,-261 3381.5,-261 3375.5,-261 3369.5,-255 3369.5,-249 3369.5,-249 3369.5,-205 3369.5,-205 3369.5,-199 3375.5,-193 3381.5,-193 3381.5,-193 3507.75,-193 3507.75,-193 3513.75,-193 3519.75,-199 3519.75,-205 3519.75,-205 3519.75,-249 3519.75,-249 3519.75,-255 3513.75,-261 3507.75,-261"/>
<text text-anchor="start" x="3405.25" y="-243.7" font-family="Helvetica,sans-Serif" font-size="14.00">ptratio ≤ 14.8</text>
<text text-anchor="start" x="3377.5" y="-228.7" font-family="Helvetica,sans-Serif" font-size="14.00">squared_error = 11.53</text>
<text text-anchor="start" x="3403.75" y="-213.7" font-family="Helvetica,sans-Serif" font-size="14.00">samples = 23</text>
<text text-anchor="start" x="3400" y="-198.7" font-family="Helvetica,sans-Serif" font-size="14.00">value = 47.322</text>
</g>
<!-- 42&#45;&gt;43 -->
<g id="edge43" class="edge">
<title>42&#45;&gt;43</title>
<path fill="none" stroke="black" d="M3444.62,-296.6C3444.62,-289.03 3444.62,-280.87 3444.62,-272.9"/>
<polygon fill="black" stroke="black" points="3448.13,-272.99 3444.63,-262.99 3441.13,-272.99 3448.13,-272.99"/>
</g>
<!-- 50 -->
<g id="node51" class="node">
<title>50</title>
<path fill="#eca36e" stroke="black" d="M3756.75,-261C3756.75,-261 3630.5,-261 3630.5,-261 3624.5,-261 3618.5,-255 3618.5,-249 3618.5,-249 3618.5,-205 3618.5,-205 3618.5,-199 3624.5,-193 3630.5,-193 3630.5,-193 3756.75,-193 3756.75,-193 3762.75,-193 3768.75,-199 3768.75,-205 3768.75,-205 3768.75,-249 3768.75,-249 3768.75,-255 3762.75,-261 3756.75,-261"/>
<text text-anchor="start" x="3658.38" y="-243.7" font-family="Helvetica,sans-Serif" font-size="14.00">nox ≤ 0.447</text>
<text text-anchor="start" x="3626.5" y="-228.7" font-family="Helvetica,sans-Serif" font-size="14.00">squared_error = 14.44</text>
<text text-anchor="start" x="3656.5" y="-213.7" font-family="Helvetica,sans-Serif" font-size="14.00">samples = 2</text>
<text text-anchor="start" x="3656.5" y="-198.7" font-family="Helvetica,sans-Serif" font-size="14.00">value = 39.0</text>
</g>
<!-- 42&#45;&gt;50 -->
<g id="edge50" class="edge">
<title>42&#45;&gt;50</title>
<path fill="none" stroke="black" d="M3520.01,-299.12C3547.67,-287.79 3579.19,-274.88 3607.71,-263.19"/>
<polygon fill="black" stroke="black" points="3608.74,-266.55 3616.67,-259.52 3606.09,-260.08 3608.74,-266.55"/>
</g>
<!-- 44 -->
<g id="node45" class="node">
<title>44</title>
<path fill="#e6853f" stroke="black" d="M3427.75,-157C3427.75,-157 3301.5,-157 3301.5,-157 3295.5,-157 3289.5,-151 3289.5,-145 3289.5,-145 3289.5,-101 3289.5,-101 3289.5,-95 3295.5,-89 3301.5,-89 3301.5,-89 3427.75,-89 3427.75,-89 3433.75,-89 3439.75,-95 3439.75,-101 3439.75,-101 3439.75,-145 3439.75,-145 3439.75,-151 3433.75,-157 3427.75,-157"/>
<text text-anchor="start" x="3332" y="-139.7" font-family="Helvetica,sans-Serif" font-size="14.00">rm ≤ 7.661</text>
<text text-anchor="start" x="3297.5" y="-124.7" font-family="Helvetica,sans-Serif" font-size="14.00">squared_error = 5.662</text>
<text text-anchor="start" x="3323.75" y="-109.7" font-family="Helvetica,sans-Serif" font-size="14.00">samples = 13</text>
<text text-anchor="start" x="3320" y="-94.7" font-family="Helvetica,sans-Serif" font-size="14.00">value = 48.762</text>
</g>
<!-- 43&#45;&gt;44 -->
<g id="edge44" class="edge">
<title>43&#45;&gt;44</title>
<path fill="none" stroke="black" d="M3418.43,-192.6C3411.87,-184.24 3404.74,-175.15 3397.89,-166.41"/>
<polygon fill="black" stroke="black" points="3400.74,-164.37 3391.81,-158.66 3395.23,-168.69 3400.74,-164.37"/>
</g>
<!-- 47 -->
<g id="node48" class="node">
<title>47</title>
<path fill="#e88f4f" stroke="black" d="M3595.75,-157C3595.75,-157 3469.5,-157 3469.5,-157 3463.5,-157 3457.5,-151 3457.5,-145 3457.5,-145 3457.5,-101 3457.5,-101 3457.5,-95 3463.5,-89 3469.5,-89 3469.5,-89 3595.75,-89 3595.75,-89 3601.75,-89 3607.75,-95 3607.75,-101 3607.75,-101 3607.75,-145 3607.75,-145 3607.75,-151 3601.75,-157 3595.75,-157"/>
<text text-anchor="start" x="3497" y="-139.7" font-family="Helvetica,sans-Serif" font-size="14.00">age ≤ 84.75</text>
<text text-anchor="start" x="3465.5" y="-124.7" font-family="Helvetica,sans-Serif" font-size="14.00">squared_error = 12.96</text>
<text text-anchor="start" x="3491.75" y="-109.7" font-family="Helvetica,sans-Serif" font-size="14.00">samples = 10</text>
<text text-anchor="start" x="3491.75" y="-94.7" font-family="Helvetica,sans-Serif" font-size="14.00">value = 45.45</text>
</g>
<!-- 43&#45;&gt;47 -->
<g id="edge47" class="edge">
<title>43&#45;&gt;47</title>
<path fill="none" stroke="black" d="M3473.44,-192.6C3480.73,-184.15 3488.66,-174.96 3496.27,-166.13"/>
<polygon fill="black" stroke="black" points="3498.87,-168.48 3502.76,-158.62 3493.57,-163.9 3498.87,-168.48"/>
</g>
<!-- 45 -->
<g id="node46" class="node">
<title>45</title>
<path fill="#e88f4f" stroke="black" d="M3259.5,-53C3259.5,-53 3125.75,-53 3125.75,-53 3119.75,-53 3113.75,-47 3113.75,-41 3113.75,-41 3113.75,-12 3113.75,-12 3113.75,-6 3119.75,0 3125.75,0 3125.75,0 3259.5,0 3259.5,0 3265.5,0 3271.5,-6 3271.5,-12 3271.5,-12 3271.5,-41 3271.5,-41 3271.5,-47 3265.5,-53 3259.5,-53"/>
<text text-anchor="start" x="3121.75" y="-35.7" font-family="Helvetica,sans-Serif" font-size="14.00">squared_error = 10.002</text>
<text text-anchor="start" x="3155.5" y="-20.7" font-family="Helvetica,sans-Serif" font-size="14.00">samples = 3</text>
<text text-anchor="start" x="3148" y="-5.7" font-family="Helvetica,sans-Serif" font-size="14.00">value = 45.533</text>
</g>
<!-- 44&#45;&gt;45 -->
<g id="edge45" class="edge">
<title>44&#45;&gt;45</title>
<path fill="none" stroke="black" d="M3303.98,-88.68C3286.36,-79 3267.17,-68.46 3249.77,-58.9"/>
<polygon fill="black" stroke="black" points="3251.53,-55.87 3241.08,-54.12 3248.16,-62.01 3251.53,-55.87"/>
</g>
<!-- 46 -->
<g id="node47" class="node">
<title>46</title>
<path fill="#e5823a" stroke="black" d="M3427.75,-53C3427.75,-53 3301.5,-53 3301.5,-53 3295.5,-53 3289.5,-47 3289.5,-41 3289.5,-41 3289.5,-12 3289.5,-12 3289.5,-6 3295.5,0 3301.5,0 3301.5,0 3427.75,0 3427.75,0 3433.75,0 3439.75,-6 3439.75,-12 3439.75,-12 3439.75,-41 3439.75,-41 3439.75,-47 3433.75,-53 3427.75,-53"/>
<text text-anchor="start" x="3297.5" y="-35.7" font-family="Helvetica,sans-Serif" font-size="14.00">squared_error = 0.296</text>
<text text-anchor="start" x="3323.75" y="-20.7" font-family="Helvetica,sans-Serif" font-size="14.00">samples = 10</text>
<text text-anchor="start" x="3323.75" y="-5.7" font-family="Helvetica,sans-Serif" font-size="14.00">value = 49.73</text>
</g>
<!-- 44&#45;&gt;46 -->
<g id="edge46" class="edge">
<title>44&#45;&gt;46</title>
<path fill="none" stroke="black" d="M3364.62,-88.68C3364.62,-80.99 3364.62,-72.76 3364.62,-64.9"/>
<polygon fill="black" stroke="black" points="3368.13,-64.91 3364.63,-54.91 3361.13,-64.91 3368.13,-64.91"/>
</g>
<!-- 48 -->
<g id="node49" class="node">
<title>48</title>
<path fill="#e78c4b" stroke="black" d="M3595.75,-53C3595.75,-53 3469.5,-53 3469.5,-53 3463.5,-53 3457.5,-47 3457.5,-41 3457.5,-41 3457.5,-12 3457.5,-12 3457.5,-6 3463.5,0 3469.5,0 3469.5,0 3595.75,0 3595.75,0 3601.75,0 3607.75,-6 3607.75,-12 3607.75,-12 3607.75,-41 3607.75,-41 3607.75,-47 3601.75,-53 3595.75,-53"/>
<text text-anchor="start" x="3465.5" y="-35.7" font-family="Helvetica,sans-Serif" font-size="14.00">squared_error = 6.793</text>
<text text-anchor="start" x="3495.5" y="-20.7" font-family="Helvetica,sans-Serif" font-size="14.00">samples = 9</text>
<text text-anchor="start" x="3488" y="-5.7" font-family="Helvetica,sans-Serif" font-size="14.00">value = 46.322</text>
</g>
<!-- 47&#45;&gt;48 -->
<g id="edge48" class="edge">
<title>47&#45;&gt;48</title>
<path fill="none" stroke="black" d="M3532.62,-88.68C3532.62,-80.99 3532.62,-72.76 3532.62,-64.9"/>
<polygon fill="black" stroke="black" points="3536.13,-64.91 3532.63,-54.91 3529.13,-64.91 3536.13,-64.91"/>
</g>
<!-- 49 -->
<g id="node50" class="node">
<title>49</title>
<path fill="#eda775" stroke="black" d="M3749.25,-53C3749.25,-53 3638,-53 3638,-53 3632,-53 3626,-47 3626,-41 3626,-41 3626,-12 3626,-12 3626,-6 3632,0 3638,0 3638,0 3749.25,0 3749.25,0 3755.25,0 3761.25,-6 3761.25,-12 3761.25,-12 3761.25,-41 3761.25,-41 3761.25,-47 3755.25,-53 3749.25,-53"/>
<text text-anchor="start" x="3634" y="-35.7" font-family="Helvetica,sans-Serif" font-size="14.00">squared_error = 0.0</text>
<text text-anchor="start" x="3656.5" y="-20.7" font-family="Helvetica,sans-Serif" font-size="14.00">samples = 1</text>
<text text-anchor="start" x="3656.5" y="-5.7" font-family="Helvetica,sans-Serif" font-size="14.00">value = 37.6</text>
</g>
<!-- 47&#45;&gt;49 -->
<g id="edge49" class="edge">
<title>47&#45;&gt;49</title>
<path fill="none" stroke="black" d="M3589.39,-88.68C3605.73,-79.09 3623.51,-68.65 3639.68,-59.16"/>
<polygon fill="black" stroke="black" points="3641.35,-62.24 3648.2,-54.16 3637.81,-56.2 3641.35,-62.24"/>
</g>
<!-- 51 -->
<g id="node52" class="node">
<title>51</title>
<path fill="#ea975c" stroke="black" d="M3749.25,-149.5C3749.25,-149.5 3638,-149.5 3638,-149.5 3632,-149.5 3626,-143.5 3626,-137.5 3626,-137.5 3626,-108.5 3626,-108.5 3626,-102.5 3632,-96.5 3638,-96.5 3638,-96.5 3749.25,-96.5 3749.25,-96.5 3755.25,-96.5 3761.25,-102.5 3761.25,-108.5 3761.25,-108.5 3761.25,-137.5 3761.25,-137.5 3761.25,-143.5 3755.25,-149.5 3749.25,-149.5"/>
<text text-anchor="start" x="3634" y="-132.2" font-family="Helvetica,sans-Serif" font-size="14.00">squared_error = 0.0</text>
<text text-anchor="start" x="3656.5" y="-117.2" font-family="Helvetica,sans-Serif" font-size="14.00">samples = 1</text>
<text text-anchor="start" x="3656.5" y="-102.2" font-family="Helvetica,sans-Serif" font-size="14.00">value = 42.8</text>
</g>
<!-- 50&#45;&gt;51 -->
<g id="edge51" class="edge">
<title>50&#45;&gt;51</title>
<path fill="none" stroke="black" d="M3693.62,-192.6C3693.62,-182.47 3693.62,-171.28 3693.62,-160.93"/>
<polygon fill="black" stroke="black" points="3697.13,-161.22 3693.63,-151.22 3690.13,-161.22 3697.13,-161.22"/>
</g>
<!-- 52 -->
<g id="node53" class="node">
<title>52</title>
<path fill="#eeaf81" stroke="black" d="M3902.25,-149.5C3902.25,-149.5 3791,-149.5 3791,-149.5 3785,-149.5 3779,-143.5 3779,-137.5 3779,-137.5 3779,-108.5 3779,-108.5 3779,-102.5 3785,-96.5 3791,-96.5 3791,-96.5 3902.25,-96.5 3902.25,-96.5 3908.25,-96.5 3914.25,-102.5 3914.25,-108.5 3914.25,-108.5 3914.25,-137.5 3914.25,-137.5 3914.25,-143.5 3908.25,-149.5 3902.25,-149.5"/>
<text text-anchor="start" x="3787" y="-132.2" font-family="Helvetica,sans-Serif" font-size="14.00">squared_error = 0.0</text>
<text text-anchor="start" x="3809.5" y="-117.2" font-family="Helvetica,sans-Serif" font-size="14.00">samples = 1</text>
<text text-anchor="start" x="3809.5" y="-102.2" font-family="Helvetica,sans-Serif" font-size="14.00">value = 35.2</text>
</g>
<!-- 50&#45;&gt;52 -->
<g id="edge52" class="edge">
<title>50&#45;&gt;52</title>
<path fill="none" stroke="black" d="M3743.72,-192.6C3761.37,-180.84 3781.16,-167.65 3798.63,-156"/>
<polygon fill="black" stroke="black" points="3800.43,-159 3806.81,-150.55 3796.54,-153.18 3800.43,-159"/>
</g>
</g>
</svg>