<?xml version="1.0" encoding="utf-8" standalone="no"?>
<!DOCTYPE svg PUBLIC "-//W3C//DTD SVG 1.1//EN"
  "http://www.w3.org/Graphics/SVG/1.1/DTD/svg11.dtd">
<svg xmlns:xlink="http://www.w3.org/1999/xlink" width="539.503125pt" height="338.89625pt" viewBox="0 0 539.503125 338.89625" xmlns="http://www.w3.org/2000/svg" version="1.1">
 <metadata>
  <rdf:RDF xmlns:dc="http://purl.org/dc/elements/1.1/" xmlns:cc="http://creativecommons.org/ns#" xmlns:rdf="http://www.w3.org/1999/02/22-rdf-syntax-ns#">
   <cc:Work>
    <dc:type rdf:resource="http://purl.org/dc/dcmitype/StillImage"/>
    <dc:date>2024-02-21T09:35:34.988295</dc:date>
    <dc:format>image/svg+xml</dc:format>
    <dc:creator>
     <cc:Agent>
      <dc:title>Matplotlib v3.7.1, https://matplotlib.org/</dc:title>
     </cc:Agent>
    </dc:creator>
   </cc:Work>
  </rdf:RDF>
 </metadata>
 <defs>
  <style type="text/css">*{stroke-linejoin: round; stroke-linecap: butt}</style>
 </defs>
 <g id="figure_1">
  <g id="patch_1">
   <path d="M 0 338.89625 
L 539.503125 338.89625 
L 539.503125 0 
L 0 0 
z
" style="fill: #ffffff"/>
  </g>
  <g id="axes_1">
   <g id="patch_2">
    <path d="M 30.103125 299.518125 
L 532.303125 299.518125 
L 532.303125 22.318125 
L 30.103125 22.318125 
z
" style="fill: #ffffff"/>
   </g>
   <g id="patch_3">
    <path d="M 173.462036 299.518125 
L 175.191519 299.518125 
L 175.191519 298.996292 
L 173.462036 298.996292 
z
" clip-path="url(#p9732424319)" style="fill: #ff0000"/>
   </g>
   <g id="patch_4">
    <path d="M 175.191519 299.518125 
L 176.921002 299.518125 
L 176.921002 298.996292 
L 175.191519 298.996292 
z
" clip-path="url(#p9732424319)" style="fill: #ff0000"/>
   </g>
   <g id="patch_5">
    <path d="M 176.921002 299.518125 
L 178.650485 299.518125 
L 178.650485 299.518125 
L 176.921002 299.518125 
z
" clip-path="url(#p9732424319)" style="fill: #ff0000"/>
   </g>
   <g id="patch_6">
    <path d="M 178.650485 299.518125 
L 180.379968 299.518125 
L 180.379968 299.518125 
L 178.650485 299.518125 
z
" clip-path="url(#p9732424319)" style="fill: #ff0000"/>
   </g>
   <g id="patch_7">
    <path d="M 180.379968 299.518125 
L 182.109451 299.518125 
L 182.109451 299.518125 
L 180.379968 299.518125 
z
" clip-path="url(#p9732424319)" style="fill: #ff0000"/>
   </g>
   <g id="patch_8">
    <path d="M 182.109451 299.518125 
L 183.838934 299.518125 
L 183.838934 298.474459 
L 182.109451 298.474459 
z
" clip-path="url(#p9732424319)" style="fill: #ff0000"/>
   </g>
   <g id="patch_9">
    <path d="M 183.838934 299.518125 
L 185.568417 299.518125 
L 185.568417 298.474459 
L 183.838934 298.474459 
z
" clip-path="url(#p9732424319)" style="fill: #ff0000"/>
   </g>
   <g id="patch_10">
    <path d="M 185.568417 299.518125 
L 187.297899 299.518125 
L 187.297899 299.518125 
L 185.568417 299.518125 
z
" clip-path="url(#p9732424319)" style="fill: #ff0000"/>
   </g>
   <g id="patch_11">
    <path d="M 187.297899 299.518125 
L 189.027382 299.518125 
L 189.027382 296.387128 
L 187.297899 296.387128 
z
" clip-path="url(#p9732424319)" style="fill: #ff0000"/>
   </g>
   <g id="patch_12">
    <path d="M 189.027382 299.518125 
L 190.756865 299.518125 
L 190.756865 295.865295 
L 189.027382 295.865295 
z
" clip-path="url(#p9732424319)" style="fill: #ff0000"/>
   </g>
   <g id="patch_13">
    <path d="M 190.756865 299.518125 
L 192.486348 299.518125 
L 192.486348 293.777963 
L 190.756865 293.777963 
z
" clip-path="url(#p9732424319)" style="fill: #ff0000"/>
   </g>
   <g id="patch_14">
    <path d="M 192.486348 299.518125 
L 194.215831 299.518125 
L 194.215831 292.734298 
L 192.486348 292.734298 
z
" clip-path="url(#p9732424319)" style="fill: #ff0000"/>
   </g>
   <g id="patch_15">
    <path d="M 194.215831 299.518125 
L 195.945314 299.518125 
L 195.945314 292.734298 
L 194.215831 292.734298 
z
" clip-path="url(#p9732424319)" style="fill: #ff0000"/>
   </g>
   <g id="patch_16">
    <path d="M 195.945314 299.518125 
L 197.674797 299.518125 
L 197.674797 291.168799 
L 195.945314 291.168799 
z
" clip-path="url(#p9732424319)" style="fill: #ff0000"/>
   </g>
   <g id="patch_17">
    <path d="M 197.674797 299.518125 
L 199.40428 299.518125 
L 199.40428 284.906804 
L 197.674797 284.906804 
z
" clip-path="url(#p9732424319)" style="fill: #ff0000"/>
   </g>
   <g id="patch_18">
    <path d="M 199.40428 299.518125 
L 201.133762 299.518125 
L 201.133762 299.518125 
L 199.40428 299.518125 
z
" clip-path="url(#p9732424319)" style="fill: #ff0000"/>
   </g>
   <g id="patch_19">
    <path d="M 201.133762 299.518125 
L 202.863245 299.518125 
L 202.863245 284.906804 
L 201.133762 284.906804 
z
" clip-path="url(#p9732424319)" style="fill: #ff0000"/>
   </g>
   <g id="patch_20">
    <path d="M 202.863245 299.518125 
L 204.592728 299.518125 
L 204.592728 282.819473 
L 202.863245 282.819473 
z
" clip-path="url(#p9732424319)" style="fill: #ff0000"/>
   </g>
   <g id="patch_21">
    <path d="M 204.592728 299.518125 
L 206.322211 299.518125 
L 206.322211 274.470147 
L 204.592728 274.470147 
z
" clip-path="url(#p9732424319)" style="fill: #ff0000"/>
   </g>
   <g id="patch_22">
    <path d="M 206.322211 299.518125 
L 208.051694 299.518125 
L 208.051694 268.729985 
L 206.322211 268.729985 
z
" clip-path="url(#p9732424319)" style="fill: #ff0000"/>
   </g>
   <g id="patch_23">
    <path d="M 208.051694 299.518125 
L 209.781177 299.518125 
L 209.781177 266.12082 
L 208.051694 266.12082 
z
" clip-path="url(#p9732424319)" style="fill: #ff0000"/>
   </g>
   <g id="patch_24">
    <path d="M 209.781177 299.518125 
L 211.51066 299.518125 
L 211.51066 244.203839 
L 209.781177 244.203839 
z
" clip-path="url(#p9732424319)" style="fill: #ff0000"/>
   </g>
   <g id="patch_25">
    <path d="M 211.51066 299.518125 
L 213.240143 299.518125 
L 213.240143 238.98551 
L 211.51066 238.98551 
z
" clip-path="url(#p9732424319)" style="fill: #ff0000"/>
   </g>
   <g id="patch_26">
    <path d="M 213.240143 299.518125 
L 214.969625 299.518125 
L 214.969625 299.518125 
L 213.240143 299.518125 
z
" clip-path="url(#p9732424319)" style="fill: #ff0000"/>
   </g>
   <g id="patch_27">
    <path d="M 214.969625 299.518125 
L 216.699108 299.518125 
L 216.699108 233.245349 
L 214.969625 233.245349 
z
" clip-path="url(#p9732424319)" style="fill: #ff0000"/>
   </g>
   <g id="patch_28">
    <path d="M 216.699108 299.518125 
L 218.428591 299.518125 
L 218.428591 232.723516 
L 216.699108 232.723516 
z
" clip-path="url(#p9732424319)" style="fill: #ff0000"/>
   </g>
   <g id="patch_29">
    <path d="M 218.428591 299.518125 
L 220.158074 299.518125 
L 220.158074 195.151548 
L 218.428591 195.151548 
z
" clip-path="url(#p9732424319)" style="fill: #ff0000"/>
   </g>
   <g id="patch_30">
    <path d="M 220.158074 299.518125 
L 221.887557 299.518125 
L 221.887557 185.236723 
L 220.158074 185.236723 
z
" clip-path="url(#p9732424319)" style="fill: #ff0000"/>
   </g>
   <g id="patch_31">
    <path d="M 221.887557 299.518125 
L 223.61704 299.518125 
L 223.61704 163.319742 
L 221.887557 163.319742 
z
" clip-path="url(#p9732424319)" style="fill: #ff0000"/>
   </g>
   <g id="patch_32">
    <path d="M 223.61704 299.518125 
L 225.346523 299.518125 
L 225.346523 173.7564 
L 223.61704 173.7564 
z
" clip-path="url(#p9732424319)" style="fill: #ff0000"/>
   </g>
   <g id="patch_33">
    <path d="M 225.346523 299.518125 
L 227.076006 299.518125 
L 227.076006 150.27392 
L 225.346523 150.27392 
z
" clip-path="url(#p9732424319)" style="fill: #ff0000"/>
   </g>
   <g id="patch_34">
    <path d="M 227.076006 299.518125 
L 228.805488 299.518125 
L 228.805488 299.518125 
L 227.076006 299.518125 
z
" clip-path="url(#p9732424319)" style="fill: #ff0000"/>
   </g>
   <g id="patch_35">
    <path d="M 228.805488 299.518125 
L 230.534971 299.518125 
L 230.534971 137.228098 
L 228.805488 137.228098 
z
" clip-path="url(#p9732424319)" style="fill: #ff0000"/>
   </g>
   <g id="patch_36">
    <path d="M 230.534971 299.518125 
L 232.264454 299.518125 
L 232.264454 112.701952 
L 230.534971 112.701952 
z
" clip-path="url(#p9732424319)" style="fill: #ff0000"/>
   </g>
   <g id="patch_37">
    <path d="M 232.264454 299.518125 
L 233.993937 299.518125 
L 233.993937 89.741306 
L 232.264454 89.741306 
z
" clip-path="url(#p9732424319)" style="fill: #ff0000"/>
   </g>
   <g id="patch_38">
    <path d="M 233.993937 299.518125 
L 235.72342 299.518125 
L 235.72342 88.175807 
L 233.993937 88.175807 
z
" clip-path="url(#p9732424319)" style="fill: #ff0000"/>
   </g>
   <g id="patch_39">
    <path d="M 235.72342 299.518125 
L 237.452903 299.518125 
L 237.452903 76.695483 
L 235.72342 76.695483 
z
" clip-path="url(#p9732424319)" style="fill: #ff0000"/>
   </g>
   <g id="patch_40">
    <path d="M 237.452903 299.518125 
L 239.182386 299.518125 
L 239.182386 76.695483 
L 237.452903 76.695483 
z
" clip-path="url(#p9732424319)" style="fill: #ff0000"/>
   </g>
   <g id="patch_41">
    <path d="M 239.182386 299.518125 
L 240.911869 299.518125 
L 240.911869 62.605996 
L 239.182386 62.605996 
z
" clip-path="url(#p9732424319)" style="fill: #ff0000"/>
   </g>
   <g id="patch_42">
    <path d="M 240.911869 299.518125 
L 242.641351 299.518125 
L 242.641351 299.518125 
L 240.911869 299.518125 
z
" clip-path="url(#p9732424319)" style="fill: #ff0000"/>
   </g>
   <g id="patch_43">
    <path d="M 242.641351 299.518125 
L 244.370834 299.518125 
L 244.370834 70.955322 
L 242.641351 70.955322 
z
" clip-path="url(#p9732424319)" style="fill: #ff0000"/>
   </g>
   <g id="patch_44">
    <path d="M 244.370834 299.518125 
L 246.100317 299.518125 
L 246.100317 81.391979 
L 244.370834 81.391979 
z
" clip-path="url(#p9732424319)" style="fill: #ff0000"/>
   </g>
   <g id="patch_45">
    <path d="M 246.100317 299.518125 
L 247.8298 299.518125 
L 247.8298 78.782815 
L 246.100317 78.782815 
z
" clip-path="url(#p9732424319)" style="fill: #ff0000"/>
   </g>
   <g id="patch_46">
    <path d="M 247.8298 299.518125 
L 249.559283 299.518125 
L 249.559283 90.784971 
L 247.8298 90.784971 
z
" clip-path="url(#p9732424319)" style="fill: #ff0000"/>
   </g>
   <g id="patch_47">
    <path d="M 249.559283 299.518125 
L 251.288766 299.518125 
L 251.288766 96.525133 
L 249.559283 96.525133 
z
" clip-path="url(#p9732424319)" style="fill: #ff0000"/>
   </g>
   <g id="patch_48">
    <path d="M 251.288766 299.518125 
L 253.018249 299.518125 
L 253.018249 112.701952 
L 251.288766 112.701952 
z
" clip-path="url(#p9732424319)" style="fill: #ff0000"/>
   </g>
   <g id="patch_49">
    <path d="M 253.018249 299.518125 
L 254.747732 299.518125 
L 254.747732 116.876616 
L 253.018249 116.876616 
z
" clip-path="url(#p9732424319)" style="fill: #ff0000"/>
   </g>
   <g id="patch_50">
    <path d="M 254.747732 299.518125 
L 256.477214 299.518125 
L 256.477214 299.518125 
L 254.747732 299.518125 
z
" clip-path="url(#p9732424319)" style="fill: #ff0000"/>
   </g>
   <g id="patch_51">
    <path d="M 256.477214 299.518125 
L 258.206697 299.518125 
L 258.206697 125.225942 
L 256.477214 125.225942 
z
" clip-path="url(#p9732424319)" style="fill: #ff0000"/>
   </g>
   <g id="patch_52">
    <path d="M 258.206697 299.518125 
L 259.93618 299.518125 
L 259.93618 155.492249 
L 258.206697 155.492249 
z
" clip-path="url(#p9732424319)" style="fill: #ff0000"/>
   </g>
   <g id="patch_53">
    <path d="M 259.93618 299.518125 
L 261.665663 299.518125 
L 261.665663 168.538071 
L 259.93618 168.538071 
z
" clip-path="url(#p9732424319)" style="fill: #ff0000"/>
   </g>
   <g id="patch_54">
    <path d="M 261.665663 299.518125 
L 263.395146 299.518125 
L 263.395146 178.452896 
L 261.665663 178.452896 
z
" clip-path="url(#p9732424319)" style="fill: #ff0000"/>
   </g>
   <g id="patch_55">
    <path d="M 263.395146 299.518125 
L 265.124629 299.518125 
L 265.124629 183.149392 
L 263.395146 183.149392 
z
" clip-path="url(#p9732424319)" style="fill: #ff0000"/>
   </g>
   <g id="patch_56">
    <path d="M 265.124629 299.518125 
L 266.854112 299.518125 
L 266.854112 204.54454 
L 265.124629 204.54454 
z
" clip-path="url(#p9732424319)" style="fill: #ff0000"/>
   </g>
   <g id="patch_57">
    <path d="M 266.854112 299.518125 
L 268.583595 299.518125 
L 268.583595 208.719203 
L 266.854112 208.719203 
z
" clip-path="url(#p9732424319)" style="fill: #ff0000"/>
   </g>
   <g id="patch_58">
    <path d="M 268.583595 299.518125 
L 270.313077 299.518125 
L 270.313077 299.518125 
L 268.583595 299.518125 
z
" clip-path="url(#p9732424319)" style="fill: #ff0000"/>
   </g>
   <g id="patch_59">
    <path d="M 270.313077 299.518125 
L 272.04256 299.518125 
L 272.04256 221.243192 
L 270.313077 221.243192 
z
" clip-path="url(#p9732424319)" style="fill: #ff0000"/>
   </g>
   <g id="patch_60">
    <path d="M 272.04256 299.518125 
L 273.772043 299.518125 
L 273.772043 226.461521 
L 272.04256 226.461521 
z
" clip-path="url(#p9732424319)" style="fill: #ff0000"/>
   </g>
   <g id="patch_61">
    <path d="M 273.772043 299.518125 
L 275.501526 299.518125 
L 275.501526 257.771494 
L 273.772043 257.771494 
z
" clip-path="url(#p9732424319)" style="fill: #ff0000"/>
   </g>
   <g id="patch_62">
    <path d="M 275.501526 299.518125 
L 277.231009 299.518125 
L 277.231009 258.293327 
L 275.501526 258.293327 
z
" clip-path="url(#p9732424319)" style="fill: #ff0000"/>
   </g>
   <g id="patch_63">
    <path d="M 277.231009 299.518125 
L 278.960492 299.518125 
L 278.960492 266.12082 
L 277.231009 266.12082 
z
" clip-path="url(#p9732424319)" style="fill: #ff0000"/>
   </g>
   <g id="patch_64">
    <path d="M 278.960492 299.518125 
L 280.689975 299.518125 
L 280.689975 266.642653 
L 278.960492 266.642653 
z
" clip-path="url(#p9732424319)" style="fill: #ff0000"/>
   </g>
   <g id="patch_65">
    <path d="M 280.689975 299.518125 
L 282.419458 299.518125 
L 282.419458 280.210308 
L 280.689975 280.210308 
z
" clip-path="url(#p9732424319)" style="fill: #ff0000"/>
   </g>
   <g id="patch_66">
    <path d="M 282.419458 299.518125 
L 284.14894 299.518125 
L 284.14894 299.518125 
L 282.419458 299.518125 
z
" clip-path="url(#p9732424319)" style="fill: #ff0000"/>
   </g>
   <g id="patch_67">
    <path d="M 284.14894 299.518125 
L 285.878423 299.518125 
L 285.878423 281.775807 
L 284.14894 281.775807 
z
" clip-path="url(#p9732424319)" style="fill: #ff0000"/>
   </g>
   <g id="patch_68">
    <path d="M 285.878423 299.518125 
L 287.607906 299.518125 
L 287.607906 283.341306 
L 285.878423 283.341306 
z
" clip-path="url(#p9732424319)" style="fill: #ff0000"/>
   </g>
   <g id="patch_69">
    <path d="M 287.607906 299.518125 
L 289.337389 299.518125 
L 289.337389 288.559634 
L 287.607906 288.559634 
z
" clip-path="url(#p9732424319)" style="fill: #ff0000"/>
   </g>
   <g id="patch_70">
    <path d="M 289.337389 299.518125 
L 291.066872 299.518125 
L 291.066872 290.646966 
L 289.337389 290.646966 
z
" clip-path="url(#p9732424319)" style="fill: #ff0000"/>
   </g>
   <g id="patch_71">
    <path d="M 291.066872 299.518125 
L 292.796355 299.518125 
L 292.796355 296.908961 
L 291.066872 296.908961 
z
" clip-path="url(#p9732424319)" style="fill: #ff0000"/>
   </g>
   <g id="patch_72">
    <path d="M 292.796355 299.518125 
L 294.525838 299.518125 
L 294.525838 295.865295 
L 292.796355 295.865295 
z
" clip-path="url(#p9732424319)" style="fill: #ff0000"/>
   </g>
   <g id="patch_73">
    <path d="M 294.525838 299.518125 
L 296.255321 299.518125 
L 296.255321 295.343462 
L 294.525838 295.343462 
z
" clip-path="url(#p9732424319)" style="fill: #ff0000"/>
   </g>
   <g id="patch_74">
    <path d="M 296.255321 299.518125 
L 297.984803 299.518125 
L 297.984803 299.518125 
L 296.255321 299.518125 
z
" clip-path="url(#p9732424319)" style="fill: #ff0000"/>
   </g>
   <g id="patch_75">
    <path d="M 297.984803 299.518125 
L 299.714286 299.518125 
L 299.714286 298.474459 
L 297.984803 298.474459 
z
" clip-path="url(#p9732424319)" style="fill: #ff0000"/>
   </g>
   <g id="patch_76">
    <path d="M 299.714286 299.518125 
L 301.443769 299.518125 
L 301.443769 295.865295 
L 299.714286 295.865295 
z
" clip-path="url(#p9732424319)" style="fill: #ff0000"/>
   </g>
   <g id="patch_77">
    <path d="M 301.443769 299.518125 
L 303.173252 299.518125 
L 303.173252 297.430793 
L 301.443769 297.430793 
z
" clip-path="url(#p9732424319)" style="fill: #ff0000"/>
   </g>
   <g id="patch_78">
    <path d="M 303.173252 299.518125 
L 304.902735 299.518125 
L 304.902735 298.474459 
L 303.173252 298.474459 
z
" clip-path="url(#p9732424319)" style="fill: #ff0000"/>
   </g>
   <g id="patch_79">
    <path d="M 304.902735 299.518125 
L 306.632218 299.518125 
L 306.632218 299.518125 
L 304.902735 299.518125 
z
" clip-path="url(#p9732424319)" style="fill: #ff0000"/>
   </g>
   <g id="patch_80">
    <path d="M 306.632218 299.518125 
L 308.361701 299.518125 
L 308.361701 299.518125 
L 306.632218 299.518125 
z
" clip-path="url(#p9732424319)" style="fill: #ff0000"/>
   </g>
   <g id="patch_81">
    <path d="M 308.361701 299.518125 
L 310.091184 299.518125 
L 310.091184 298.996292 
L 308.361701 298.996292 
z
" clip-path="url(#p9732424319)" style="fill: #ff0000"/>
   </g>
   <g id="patch_82">
    <path d="M 310.091184 299.518125 
L 311.820666 299.518125 
L 311.820666 298.996292 
L 310.091184 298.996292 
z
" clip-path="url(#p9732424319)" style="fill: #ff0000"/>
   </g>
   <g id="patch_83">
    <path d="M 288.102044 299.518125 
L 290.869217 299.518125 
L 290.869217 298.865834 
L 288.102044 298.865834 
z
" clip-path="url(#p9732424319)" style="fill: #ffa500"/>
   </g>
   <g id="patch_84">
    <path d="M 290.869217 299.518125 
L 293.636389 299.518125 
L 293.636389 299.518125 
L 290.869217 299.518125 
z
" clip-path="url(#p9732424319)" style="fill: #ffa500"/>
   </g>
   <g id="patch_85">
    <path d="M 293.636389 299.518125 
L 296.403562 299.518125 
L 296.403562 299.518125 
L 293.636389 299.518125 
z
" clip-path="url(#p9732424319)" style="fill: #ffa500"/>
   </g>
   <g id="patch_86">
    <path d="M 296.403562 299.518125 
L 299.170735 299.518125 
L 299.170735 299.518125 
L 296.403562 299.518125 
z
" clip-path="url(#p9732424319)" style="fill: #ffa500"/>
   </g>
   <g id="patch_87">
    <path d="M 299.170735 299.518125 
L 301.937907 299.518125 
L 301.937907 299.191979 
L 299.170735 299.191979 
z
" clip-path="url(#p9732424319)" style="fill: #ffa500"/>
   </g>
   <g id="patch_88">
    <path d="M 301.937907 299.518125 
L 304.70508 299.518125 
L 304.70508 298.213543 
L 301.937907 298.213543 
z
" clip-path="url(#p9732424319)" style="fill: #ffa500"/>
   </g>
   <g id="patch_89">
    <path d="M 304.70508 299.518125 
L 307.472252 299.518125 
L 307.472252 299.191979 
L 304.70508 299.191979 
z
" clip-path="url(#p9732424319)" style="fill: #ffa500"/>
   </g>
   <g id="patch_90">
    <path d="M 307.472252 299.518125 
L 310.239425 299.518125 
L 310.239425 298.539688 
L 307.472252 298.539688 
z
" clip-path="url(#p9732424319)" style="fill: #ffa500"/>
   </g>
   <g id="patch_91">
    <path d="M 310.239425 299.518125 
L 313.006598 299.518125 
L 313.006598 298.865834 
L 310.239425 298.865834 
z
" clip-path="url(#p9732424319)" style="fill: #ffa500"/>
   </g>
   <g id="patch_92">
    <path d="M 313.006598 299.518125 
L 315.77377 299.518125 
L 315.77377 298.213543 
L 313.006598 298.213543 
z
" clip-path="url(#p9732424319)" style="fill: #ffa500"/>
   </g>
   <g id="patch_93">
    <path d="M 315.77377 299.518125 
L 318.540943 299.518125 
L 318.540943 299.191979 
L 315.77377 299.191979 
z
" clip-path="url(#p9732424319)" style="fill: #ffa500"/>
   </g>
   <g id="patch_94">
    <path d="M 318.540943 299.518125 
L 321.308115 299.518125 
L 321.308115 298.539688 
L 318.540943 298.539688 
z
" clip-path="url(#p9732424319)" style="fill: #ffa500"/>
   </g>
   <g id="patch_95">
    <path d="M 321.308115 299.518125 
L 324.075288 299.518125 
L 324.075288 296.582815 
L 321.308115 296.582815 
z
" clip-path="url(#p9732424319)" style="fill: #ffa500"/>
   </g>
   <g id="patch_96">
    <path d="M 324.075288 299.518125 
L 326.842461 299.518125 
L 326.842461 296.256669 
L 324.075288 296.256669 
z
" clip-path="url(#p9732424319)" style="fill: #ffa500"/>
   </g>
   <g id="patch_97">
    <path d="M 326.842461 299.518125 
L 329.609633 299.518125 
L 329.609633 296.256669 
L 326.842461 296.256669 
z
" clip-path="url(#p9732424319)" style="fill: #ffa500"/>
   </g>
   <g id="patch_98">
    <path d="M 329.609633 299.518125 
L 332.376806 299.518125 
L 332.376806 293.32136 
L 329.609633 293.32136 
z
" clip-path="url(#p9732424319)" style="fill: #ffa500"/>
   </g>
   <g id="patch_99">
    <path d="M 332.376806 299.518125 
L 335.143978 299.518125 
L 335.143978 292.669068 
L 332.376806 292.669068 
z
" clip-path="url(#p9732424319)" style="fill: #ffa500"/>
   </g>
   <g id="patch_100">
    <path d="M 335.143978 299.518125 
L 337.911151 299.518125 
L 337.911151 289.733758 
L 335.143978 289.733758 
z
" clip-path="url(#p9732424319)" style="fill: #ffa500"/>
   </g>
   <g id="patch_101">
    <path d="M 337.911151 299.518125 
L 340.678324 299.518125 
L 340.678324 293.647505 
L 337.911151 293.647505 
z
" clip-path="url(#p9732424319)" style="fill: #ffa500"/>
   </g>
   <g id="patch_102">
    <path d="M 340.678324 299.518125 
L 343.445496 299.518125 
L 343.445496 290.38605 
L 340.678324 290.38605 
z
" clip-path="url(#p9732424319)" style="fill: #ffa500"/>
   </g>
   <g id="patch_103">
    <path d="M 343.445496 299.518125 
L 346.212669 299.518125 
L 346.212669 274.731063 
L 343.445496 274.731063 
z
" clip-path="url(#p9732424319)" style="fill: #ffa500"/>
   </g>
   <g id="patch_104">
    <path d="M 346.212669 299.518125 
L 348.979841 299.518125 
L 348.979841 283.536993 
L 346.212669 283.536993 
z
" clip-path="url(#p9732424319)" style="fill: #ffa500"/>
   </g>
   <g id="patch_105">
    <path d="M 348.979841 299.518125 
L 351.747014 299.518125 
L 351.747014 262.011386 
L 348.979841 262.011386 
z
" clip-path="url(#p9732424319)" style="fill: #ffa500"/>
   </g>
   <g id="patch_106">
    <path d="M 351.747014 299.518125 
L 354.514187 299.518125 
L 354.514187 279.623246 
L 351.747014 279.623246 
z
" clip-path="url(#p9732424319)" style="fill: #ffa500"/>
   </g>
   <g id="patch_107">
    <path d="M 354.514187 299.518125 
L 357.281359 299.518125 
L 357.281359 275.7095 
L 354.514187 275.7095 
z
" clip-path="url(#p9732424319)" style="fill: #ffa500"/>
   </g>
   <g id="patch_108">
    <path d="M 357.281359 299.518125 
L 360.048532 299.518125 
L 360.048532 233.310578 
L 357.281359 233.310578 
z
" clip-path="url(#p9732424319)" style="fill: #ffa500"/>
   </g>
   <g id="patch_109">
    <path d="M 360.048532 299.518125 
L 362.815704 299.518125 
L 362.815704 258.749931 
L 360.048532 258.749931 
z
" clip-path="url(#p9732424319)" style="fill: #ffa500"/>
   </g>
   <g id="patch_110">
    <path d="M 362.815704 299.518125 
L 365.582877 299.518125 
L 365.582877 213.089554 
L 362.815704 213.089554 
z
" clip-path="url(#p9732424319)" style="fill: #ffa500"/>
   </g>
   <g id="patch_111">
    <path d="M 365.582877 299.518125 
L 368.35005 299.518125 
L 368.35005 249.617855 
L 365.582877 249.617855 
z
" clip-path="url(#p9732424319)" style="fill: #ffa500"/>
   </g>
   <g id="patch_112">
    <path d="M 368.35005 299.518125 
L 371.117222 299.518125 
L 371.117222 244.725672 
L 368.35005 244.725672 
z
" clip-path="url(#p9732424319)" style="fill: #ffa500"/>
   </g>
   <g id="patch_113">
    <path d="M 371.117222 299.518125 
L 373.884395 299.518125 
L 373.884395 177.865834 
L 371.117222 177.865834 
z
" clip-path="url(#p9732424319)" style="fill: #ffa500"/>
   </g>
   <g id="patch_114">
    <path d="M 373.884395 299.518125 
L 376.651567 299.518125 
L 376.651567 238.855052 
L 373.884395 238.855052 
z
" clip-path="url(#p9732424319)" style="fill: #ffa500"/>
   </g>
   <g id="patch_115">
    <path d="M 376.651567 299.518125 
L 379.41874 299.518125 
L 379.41874 166.124594 
L 376.651567 166.124594 
z
" clip-path="url(#p9732424319)" style="fill: #ffa500"/>
   </g>
   <g id="patch_116">
    <path d="M 379.41874 299.518125 
L 382.185913 299.518125 
L 382.185913 229.722977 
L 379.41874 229.722977 
z
" clip-path="url(#p9732424319)" style="fill: #ffa500"/>
   </g>
   <g id="patch_117">
    <path d="M 382.185913 299.518125 
L 384.953085 299.518125 
L 384.953085 219.612465 
L 382.185913 219.612465 
z
" clip-path="url(#p9732424319)" style="fill: #ffa500"/>
   </g>
   <g id="patch_118">
    <path d="M 384.953085 299.518125 
L 387.720258 299.518125 
L 387.720258 143.294405 
L 384.953085 143.294405 
z
" clip-path="url(#p9732424319)" style="fill: #ffa500"/>
   </g>
   <g id="patch_119">
    <path d="M 387.720258 299.518125 
L 390.48743 299.518125 
L 390.48743 221.243192 
L 387.720258 221.243192 
z
" clip-path="url(#p9732424319)" style="fill: #ffa500"/>
   </g>
   <g id="patch_120">
    <path d="M 390.48743 299.518125 
L 393.254603 299.518125 
L 393.254603 116.55047 
L 390.48743 116.55047 
z
" clip-path="url(#p9732424319)" style="fill: #ffa500"/>
   </g>
   <g id="patch_121">
    <path d="M 393.254603 299.518125 
L 396.021776 299.518125 
L 396.021776 213.415699 
L 393.254603 213.415699 
z
" clip-path="url(#p9732424319)" style="fill: #ffa500"/>
   </g>
   <g id="patch_122">
    <path d="M 396.021776 299.518125 
L 398.788948 299.518125 
L 398.788948 204.609769 
L 396.021776 204.609769 
z
" clip-path="url(#p9732424319)" style="fill: #ffa500"/>
   </g>
   <g id="patch_123">
    <path d="M 398.788948 299.518125 
L 401.556121 299.518125 
L 401.556121 118.181198 
L 398.788948 118.181198 
z
" clip-path="url(#p9732424319)" style="fill: #ffa500"/>
   </g>
   <g id="patch_124">
    <path d="M 401.556121 299.518125 
L 404.323293 299.518125 
L 404.323293 199.065295 
L 401.556121 199.065295 
z
" clip-path="url(#p9732424319)" style="fill: #ffa500"/>
   </g>
   <g id="patch_125">
    <path d="M 404.323293 299.518125 
L 407.090466 299.518125 
L 407.090466 118.181198 
L 404.323293 118.181198 
z
" clip-path="url(#p9732424319)" style="fill: #ffa500"/>
   </g>
   <g id="patch_126">
    <path d="M 407.090466 299.518125 
L 409.857639 299.518125 
L 409.857639 212.111117 
L 407.090466 212.111117 
z
" clip-path="url(#p9732424319)" style="fill: #ffa500"/>
   </g>
   <g id="patch_127">
    <path d="M 409.857639 299.518125 
L 412.624811 299.518125 
L 412.624811 210.154244 
L 409.857639 210.154244 
z
" clip-path="url(#p9732424319)" style="fill: #ffa500"/>
   </g>
   <g id="patch_128">
    <path d="M 412.624811 299.518125 
L 415.391984 299.518125 
L 415.391984 145.577424 
L 412.624811 145.577424 
z
" clip-path="url(#p9732424319)" style="fill: #ffa500"/>
   </g>
   <g id="patch_129">
    <path d="M 415.391984 299.518125 
L 418.159156 299.518125 
L 418.159156 224.504648 
L 415.391984 224.504648 
z
" clip-path="url(#p9732424319)" style="fill: #ffa500"/>
   </g>
   <g id="patch_130">
    <path d="M 418.159156 299.518125 
L 420.926329 299.518125 
L 420.926329 154.383354 
L 418.159156 154.383354 
z
" clip-path="url(#p9732424319)" style="fill: #ffa500"/>
   </g>
   <g id="patch_131">
    <path d="M 420.926329 299.518125 
L 423.693502 299.518125 
L 423.693502 244.725672 
L 420.926329 244.725672 
z
" clip-path="url(#p9732424319)" style="fill: #ffa500"/>
   </g>
   <g id="patch_132">
    <path d="M 423.693502 299.518125 
L 426.460674 299.518125 
L 426.460674 231.353705 
L 423.693502 231.353705 
z
" clip-path="url(#p9732424319)" style="fill: #ffa500"/>
   </g>
   <g id="patch_133">
    <path d="M 426.460674 299.518125 
L 429.227847 299.518125 
L 429.227847 186.345618 
L 426.460674 186.345618 
z
" clip-path="url(#p9732424319)" style="fill: #ffa500"/>
   </g>
   <g id="patch_134">
    <path d="M 429.227847 299.518125 
L 431.995019 299.518125 
L 431.995019 248.313273 
L 429.227847 248.313273 
z
" clip-path="url(#p9732424319)" style="fill: #ffa500"/>
   </g>
   <g id="patch_135">
    <path d="M 431.995019 299.518125 
L 434.762192 299.518125 
L 434.762192 207.218934 
L 431.995019 207.218934 
z
" clip-path="url(#p9732424319)" style="fill: #ffa500"/>
   </g>
   <g id="patch_136">
    <path d="M 434.762192 299.518125 
L 437.529365 299.518125 
L 437.529365 264.946696 
L 434.762192 264.946696 
z
" clip-path="url(#p9732424319)" style="fill: #ffa500"/>
   </g>
   <g id="patch_137">
    <path d="M 437.529365 299.518125 
L 440.296537 299.518125 
L 440.296537 268.534298 
L 437.529365 268.534298 
z
" clip-path="url(#p9732424319)" style="fill: #ffa500"/>
   </g>
   <g id="patch_138">
    <path d="M 440.296537 299.518125 
L 443.06371 299.518125 
L 443.06371 237.224324 
L 440.296537 237.224324 
z
" clip-path="url(#p9732424319)" style="fill: #ffa500"/>
   </g>
   <g id="patch_139">
    <path d="M 443.06371 299.518125 
L 445.830882 299.518125 
L 445.830882 274.404917 
L 443.06371 274.404917 
z
" clip-path="url(#p9732424319)" style="fill: #ffa500"/>
   </g>
   <g id="patch_140">
    <path d="M 445.830882 299.518125 
L 448.598055 299.518125 
L 448.598055 256.793058 
L 445.830882 256.793058 
z
" clip-path="url(#p9732424319)" style="fill: #ffa500"/>
   </g>
   <g id="patch_141">
    <path d="M 448.598055 299.518125 
L 451.365228 299.518125 
L 451.365228 277.666373 
L 448.598055 277.666373 
z
" clip-path="url(#p9732424319)" style="fill: #ffa500"/>
   </g>
   <g id="patch_142">
    <path d="M 451.365228 299.518125 
L 454.1324 299.518125 
L 454.1324 282.884702 
L 451.365228 282.884702 
z
" clip-path="url(#p9732424319)" style="fill: #ffa500"/>
   </g>
   <g id="patch_143">
    <path d="M 454.1324 299.518125 
L 456.899573 299.518125 
L 456.899573 276.361791 
L 454.1324 276.361791 
z
" clip-path="url(#p9732424319)" style="fill: #ffa500"/>
   </g>
   <g id="patch_144">
    <path d="M 456.899573 299.518125 
L 459.666745 299.518125 
L 459.666745 288.755322 
L 456.899573 288.755322 
z
" clip-path="url(#p9732424319)" style="fill: #ffa500"/>
   </g>
   <g id="patch_145">
    <path d="M 459.666745 299.518125 
L 462.433918 299.518125 
L 462.433918 282.558556 
L 459.666745 282.558556 
z
" clip-path="url(#p9732424319)" style="fill: #ffa500"/>
   </g>
   <g id="patch_146">
    <path d="M 462.433918 299.518125 
L 465.201091 299.518125 
L 465.201091 294.952087 
L 462.433918 294.952087 
z
" clip-path="url(#p9732424319)" style="fill: #ffa500"/>
   </g>
   <g id="patch_147">
    <path d="M 465.201091 299.518125 
L 467.968263 299.518125 
L 467.968263 291.690632 
L 465.201091 291.690632 
z
" clip-path="url(#p9732424319)" style="fill: #ffa500"/>
   </g>
   <g id="patch_148">
    <path d="M 467.968263 299.518125 
L 470.735436 299.518125 
L 470.735436 289.407613 
L 467.968263 289.407613 
z
" clip-path="url(#p9732424319)" style="fill: #ffa500"/>
   </g>
   <g id="patch_149">
    <path d="M 470.735436 299.518125 
L 473.502608 299.518125 
L 473.502608 295.278233 
L 470.735436 295.278233 
z
" clip-path="url(#p9732424319)" style="fill: #ffa500"/>
   </g>
   <g id="patch_150">
    <path d="M 473.502608 299.518125 
L 476.269781 299.518125 
L 476.269781 293.973651 
L 473.502608 293.973651 
z
" clip-path="url(#p9732424319)" style="fill: #ffa500"/>
   </g>
   <g id="patch_151">
    <path d="M 476.269781 299.518125 
L 479.036954 299.518125 
L 479.036954 297.561252 
L 476.269781 297.561252 
z
" clip-path="url(#p9732424319)" style="fill: #ffa500"/>
   </g>
   <g id="patch_152">
    <path d="M 479.036954 299.518125 
L 481.804126 299.518125 
L 481.804126 297.561252 
L 479.036954 297.561252 
z
" clip-path="url(#p9732424319)" style="fill: #ffa500"/>
   </g>
   <g id="patch_153">
    <path d="M 481.804126 299.518125 
L 484.571299 299.518125 
L 484.571299 296.908961 
L 481.804126 296.908961 
z
" clip-path="url(#p9732424319)" style="fill: #ffa500"/>
   </g>
   <g id="patch_154">
    <path d="M 484.571299 299.518125 
L 487.338471 299.518125 
L 487.338471 298.213543 
L 484.571299 298.213543 
z
" clip-path="url(#p9732424319)" style="fill: #ffa500"/>
   </g>
   <g id="patch_155">
    <path d="M 487.338471 299.518125 
L 490.105644 299.518125 
L 490.105644 297.887397 
L 487.338471 297.887397 
z
" clip-path="url(#p9732424319)" style="fill: #ffa500"/>
   </g>
   <g id="patch_156">
    <path d="M 490.105644 299.518125 
L 492.872817 299.518125 
L 492.872817 299.518125 
L 490.105644 299.518125 
z
" clip-path="url(#p9732424319)" style="fill: #ffa500"/>
   </g>
   <g id="patch_157">
    <path d="M 492.872817 299.518125 
L 495.639989 299.518125 
L 495.639989 298.539688 
L 492.872817 298.539688 
z
" clip-path="url(#p9732424319)" style="fill: #ffa500"/>
   </g>
   <g id="patch_158">
    <path d="M 495.639989 299.518125 
L 498.407162 299.518125 
L 498.407162 299.191979 
L 495.639989 299.191979 
z
" clip-path="url(#p9732424319)" style="fill: #ffa500"/>
   </g>
   <g id="patch_159">
    <path d="M 498.407162 299.518125 
L 501.174334 299.518125 
L 501.174334 299.191979 
L 498.407162 299.191979 
z
" clip-path="url(#p9732424319)" style="fill: #ffa500"/>
   </g>
   <g id="patch_160">
    <path d="M 501.174334 299.518125 
L 503.941507 299.518125 
L 503.941507 299.191979 
L 501.174334 299.191979 
z
" clip-path="url(#p9732424319)" style="fill: #ffa500"/>
   </g>
   <g id="patch_161">
    <path d="M 503.941507 299.518125 
L 506.70868 299.518125 
L 506.70868 299.191979 
L 503.941507 299.191979 
z
" clip-path="url(#p9732424319)" style="fill: #ffa500"/>
   </g>
   <g id="patch_162">
    <path d="M 506.70868 299.518125 
L 509.475852 299.518125 
L 509.475852 298.865834 
L 506.70868 298.865834 
z
" clip-path="url(#p9732424319)" style="fill: #ffa500"/>
   </g>
   <g id="patch_163">
    <path d="M 56.845477 299.518125 
L 58.476132 299.518125 
L 58.476132 298.964666 
L 56.845477 298.964666 
z
" clip-path="url(#p9732424319)" style="fill: #bf00bf"/>
   </g>
   <g id="patch_164">
    <path d="M 58.476132 299.518125 
L 60.106787 299.518125 
L 60.106787 298.411207 
L 58.476132 298.411207 
z
" clip-path="url(#p9732424319)" style="fill: #bf00bf"/>
   </g>
   <g id="patch_165">
    <path d="M 60.106787 299.518125 
L 61.737443 299.518125 
L 61.737443 297.857748 
L 60.106787 297.857748 
z
" clip-path="url(#p9732424319)" style="fill: #bf00bf"/>
   </g>
   <g id="patch_166">
    <path d="M 61.737443 299.518125 
L 63.368098 299.518125 
L 63.368098 295.643911 
L 61.737443 295.643911 
z
" clip-path="url(#p9732424319)" style="fill: #bf00bf"/>
   </g>
   <g id="patch_167">
    <path d="M 63.368098 299.518125 
L 64.998753 299.518125 
L 64.998753 292.876616 
L 63.368098 292.876616 
z
" clip-path="url(#p9732424319)" style="fill: #bf00bf"/>
   </g>
   <g id="patch_168">
    <path d="M 64.998753 299.518125 
L 66.629408 299.518125 
L 66.629408 299.518125 
L 64.998753 299.518125 
z
" clip-path="url(#p9732424319)" style="fill: #bf00bf"/>
   </g>
   <g id="patch_169">
    <path d="M 66.629408 299.518125 
L 68.260064 299.518125 
L 68.260064 289.555861 
L 66.629408 289.555861 
z
" clip-path="url(#p9732424319)" style="fill: #bf00bf"/>
   </g>
   <g id="patch_170">
    <path d="M 68.260064 299.518125 
L 69.890719 299.518125 
L 69.890719 278.486678 
L 68.260064 278.486678 
z
" clip-path="url(#p9732424319)" style="fill: #bf00bf"/>
   </g>
   <g id="patch_171">
    <path d="M 69.890719 299.518125 
L 71.521374 299.518125 
L 71.521374 270.184792 
L 69.890719 270.184792 
z
" clip-path="url(#p9732424319)" style="fill: #bf00bf"/>
   </g>
   <g id="patch_172">
    <path d="M 71.521374 299.518125 
L 73.15203 299.518125 
L 73.15203 262.436364 
L 71.521374 262.436364 
z
" clip-path="url(#p9732424319)" style="fill: #bf00bf"/>
   </g>
   <g id="patch_173">
    <path d="M 73.15203 299.518125 
L 74.782685 299.518125 
L 74.782685 248.046427 
L 73.15203 248.046427 
z
" clip-path="url(#p9732424319)" style="fill: #bf00bf"/>
   </g>
   <g id="patch_174">
    <path d="M 74.782685 299.518125 
L 76.41334 299.518125 
L 76.41334 299.518125 
L 74.782685 299.518125 
z
" clip-path="url(#p9732424319)" style="fill: #bf00bf"/>
   </g>
   <g id="patch_175">
    <path d="M 76.41334 299.518125 
L 78.043995 299.518125 
L 78.043995 233.65649 
L 76.41334 233.65649 
z
" clip-path="url(#p9732424319)" style="fill: #bf00bf"/>
   </g>
   <g id="patch_176">
    <path d="M 78.043995 299.518125 
L 79.674651 299.518125 
L 79.674651 206.536993 
L 78.043995 206.536993 
z
" clip-path="url(#p9732424319)" style="fill: #bf00bf"/>
   </g>
   <g id="patch_177">
    <path d="M 79.674651 299.518125 
L 81.305306 299.518125 
L 81.305306 192.147056 
L 79.674651 192.147056 
z
" clip-path="url(#p9732424319)" style="fill: #bf00bf"/>
   </g>
   <g id="patch_178">
    <path d="M 81.305306 299.518125 
L 82.935961 299.518125 
L 82.935961 162.813722 
L 81.305306 162.813722 
z
" clip-path="url(#p9732424319)" style="fill: #bf00bf"/>
   </g>
   <g id="patch_179">
    <path d="M 82.935961 299.518125 
L 84.566617 299.518125 
L 84.566617 139.568439 
L 82.935961 139.568439 
z
" clip-path="url(#p9732424319)" style="fill: #bf00bf"/>
   </g>
   <g id="patch_180">
    <path d="M 84.566617 299.518125 
L 86.197272 299.518125 
L 86.197272 299.518125 
L 84.566617 299.518125 
z
" clip-path="url(#p9732424319)" style="fill: #bf00bf"/>
   </g>
   <g id="patch_181">
    <path d="M 86.197272 299.518125 
L 87.827927 299.518125 
L 87.827927 113.555861 
L 86.197272 113.555861 
z
" clip-path="url(#p9732424319)" style="fill: #bf00bf"/>
   </g>
   <g id="patch_182">
    <path d="M 87.827927 299.518125 
L 89.458582 299.518125 
L 89.458582 110.235106 
L 87.827927 110.235106 
z
" clip-path="url(#p9732424319)" style="fill: #bf00bf"/>
   </g>
   <g id="patch_183">
    <path d="M 89.458582 299.518125 
L 91.089238 299.518125 
L 91.089238 85.329446 
L 89.458582 85.329446 
z
" clip-path="url(#p9732424319)" style="fill: #bf00bf"/>
   </g>
   <g id="patch_184">
    <path d="M 91.089238 299.518125 
L 92.719893 299.518125 
L 92.719893 89.757119 
L 91.089238 89.757119 
z
" clip-path="url(#p9732424319)" style="fill: #bf00bf"/>
   </g>
   <g id="patch_185">
    <path d="M 92.719893 299.518125 
L 94.350548 299.518125 
L 94.350548 299.518125 
L 92.719893 299.518125 
z
" clip-path="url(#p9732424319)" style="fill: #bf00bf"/>
   </g>
   <g id="patch_186">
    <path d="M 94.350548 299.518125 
L 95.981204 299.518125 
L 95.981204 65.404917 
L 94.350548 65.404917 
z
" clip-path="url(#p9732424319)" style="fill: #bf00bf"/>
   </g>
   <g id="patch_187">
    <path d="M 95.981204 299.518125 
L 97.611859 299.518125 
L 97.611859 54.335735 
L 95.981204 54.335735 
z
" clip-path="url(#p9732424319)" style="fill: #bf00bf"/>
   </g>
   <g id="patch_188">
    <path d="M 97.611859 299.518125 
L 99.242514 299.518125 
L 99.242514 43.820012 
L 97.611859 43.820012 
z
" clip-path="url(#p9732424319)" style="fill: #bf00bf"/>
   </g>
   <g id="patch_189">
    <path d="M 99.242514 299.518125 
L 100.873169 299.518125 
L 100.873169 35.518125 
L 99.242514 35.518125 
z
" clip-path="url(#p9732424319)" style="fill: #bf00bf"/>
   </g>
   <g id="patch_190">
    <path d="M 100.873169 299.518125 
L 102.503825 299.518125 
L 102.503825 72.046427 
L 100.873169 72.046427 
z
" clip-path="url(#p9732424319)" style="fill: #bf00bf"/>
   </g>
   <g id="patch_191">
    <path d="M 102.503825 299.518125 
L 104.13448 299.518125 
L 104.13448 299.518125 
L 102.503825 299.518125 
z
" clip-path="url(#p9732424319)" style="fill: #bf00bf"/>
   </g>
   <g id="patch_192">
    <path d="M 104.13448 299.518125 
L 105.765135 299.518125 
L 105.765135 51.01498 
L 104.13448 51.01498 
z
" clip-path="url(#p9732424319)" style="fill: #bf00bf"/>
   </g>
   <g id="patch_193">
    <path d="M 105.765135 299.518125 
L 107.395791 299.518125 
L 107.395791 46.033848 
L 105.765135 46.033848 
z
" clip-path="url(#p9732424319)" style="fill: #bf00bf"/>
   </g>
   <g id="patch_194">
    <path d="M 107.395791 299.518125 
L 109.026446 299.518125 
L 109.026446 61.530704 
L 107.395791 61.530704 
z
" clip-path="url(#p9732424319)" style="fill: #bf00bf"/>
   </g>
   <g id="patch_195">
    <path d="M 109.026446 299.518125 
L 110.657101 299.518125 
L 110.657101 66.511836 
L 109.026446 66.511836 
z
" clip-path="url(#p9732424319)" style="fill: #bf00bf"/>
   </g>
   <g id="patch_196">
    <path d="M 110.657101 299.518125 
L 112.287756 299.518125 
L 112.287756 80.348314 
L 110.657101 80.348314 
z
" clip-path="url(#p9732424319)" style="fill: #bf00bf"/>
   </g>
   <g id="patch_197">
    <path d="M 112.287756 299.518125 
L 113.918412 299.518125 
L 113.918412 299.518125 
L 112.287756 299.518125 
z
" clip-path="url(#p9732424319)" style="fill: #bf00bf"/>
   </g>
   <g id="patch_198">
    <path d="M 113.918412 299.518125 
L 115.549067 299.518125 
L 115.549067 101.37976 
L 113.918412 101.37976 
z
" clip-path="url(#p9732424319)" style="fill: #bf00bf"/>
   </g>
   <g id="patch_199">
    <path d="M 115.549067 299.518125 
L 117.179722 299.518125 
L 117.179722 137.354603 
L 115.549067 137.354603 
z
" clip-path="url(#p9732424319)" style="fill: #bf00bf"/>
   </g>
   <g id="patch_200">
    <path d="M 117.179722 299.518125 
L 118.810378 299.518125 
L 118.810378 136.801144 
L 117.179722 136.801144 
z
" clip-path="url(#p9732424319)" style="fill: #bf00bf"/>
   </g>
   <g id="patch_201">
    <path d="M 118.810378 299.518125 
L 120.441033 299.518125 
L 120.441033 169.455232 
L 118.810378 169.455232 
z
" clip-path="url(#p9732424319)" style="fill: #bf00bf"/>
   </g>
   <g id="patch_202">
    <path d="M 120.441033 299.518125 
L 122.071688 299.518125 
L 122.071688 299.518125 
L 120.441033 299.518125 
z
" clip-path="url(#p9732424319)" style="fill: #bf00bf"/>
   </g>
   <g id="patch_203">
    <path d="M 122.071688 299.518125 
L 123.702343 299.518125 
L 123.702343 173.329446 
L 122.071688 173.329446 
z
" clip-path="url(#p9732424319)" style="fill: #bf00bf"/>
   </g>
   <g id="patch_204">
    <path d="M 123.702343 299.518125 
L 125.332999 299.518125 
L 125.332999 179.417496 
L 123.702343 179.417496 
z
" clip-path="url(#p9732424319)" style="fill: #bf00bf"/>
   </g>
   <g id="patch_205">
    <path d="M 125.332999 299.518125 
L 126.963654 299.518125 
L 126.963654 188.272842 
L 125.332999 188.272842 
z
" clip-path="url(#p9732424319)" style="fill: #bf00bf"/>
   </g>
   <g id="patch_206">
    <path d="M 126.963654 299.518125 
L 128.594309 299.518125 
L 128.594309 204.323156 
L 126.963654 204.323156 
z
" clip-path="url(#p9732424319)" style="fill: #bf00bf"/>
   </g>
   <g id="patch_207">
    <path d="M 128.594309 299.518125 
L 130.224964 299.518125 
L 130.224964 233.103031 
L 128.594309 233.103031 
z
" clip-path="url(#p9732424319)" style="fill: #bf00bf"/>
   </g>
   <g id="patch_208">
    <path d="M 130.224964 299.518125 
L 131.85562 299.518125 
L 131.85562 299.518125 
L 130.224964 299.518125 
z
" clip-path="url(#p9732424319)" style="fill: #bf00bf"/>
   </g>
   <g id="patch_209">
    <path d="M 131.85562 299.518125 
L 133.486275 299.518125 
L 133.486275 221.480389 
L 131.85562 221.480389 
z
" clip-path="url(#p9732424319)" style="fill: #bf00bf"/>
   </g>
   <g id="patch_210">
    <path d="M 133.486275 299.518125 
L 135.11693 299.518125 
L 135.11693 242.511836 
L 133.486275 242.511836 
z
" clip-path="url(#p9732424319)" style="fill: #bf00bf"/>
   </g>
   <g id="patch_211">
    <path d="M 135.11693 299.518125 
L 136.747586 299.518125 
L 136.747586 255.794855 
L 135.11693 255.794855 
z
" clip-path="url(#p9732424319)" style="fill: #bf00bf"/>
   </g>
   <g id="patch_212">
    <path d="M 136.747586 299.518125 
L 138.378241 299.518125 
L 138.378241 257.455232 
L 136.747586 257.455232 
z
" clip-path="url(#p9732424319)" style="fill: #bf00bf"/>
   </g>
   <g id="patch_213">
    <path d="M 138.378241 299.518125 
L 140.008896 299.518125 
L 140.008896 266.310578 
L 138.378241 266.310578 
z
" clip-path="url(#p9732424319)" style="fill: #bf00bf"/>
   </g>
   <g id="patch_214">
    <path d="M 140.008896 299.518125 
L 141.639551 299.518125 
L 141.639551 299.518125 
L 140.008896 299.518125 
z
" clip-path="url(#p9732424319)" style="fill: #bf00bf"/>
   </g>
   <g id="patch_215">
    <path d="M 141.639551 299.518125 
L 143.270207 299.518125 
L 143.270207 270.184792 
L 141.639551 270.184792 
z
" clip-path="url(#p9732424319)" style="fill: #bf00bf"/>
   </g>
   <g id="patch_216">
    <path d="M 143.270207 299.518125 
L 144.900862 299.518125 
L 144.900862 276.272842 
L 143.270207 276.272842 
z
" clip-path="url(#p9732424319)" style="fill: #bf00bf"/>
   </g>
   <g id="patch_217">
    <path d="M 144.900862 299.518125 
L 146.531517 299.518125 
L 146.531517 272.952087 
L 144.900862 272.952087 
z
" clip-path="url(#p9732424319)" style="fill: #bf00bf"/>
   </g>
   <g id="patch_218">
    <path d="M 146.531517 299.518125 
L 148.162173 299.518125 
L 148.162173 282.914351 
L 146.531517 282.914351 
z
" clip-path="url(#p9732424319)" style="fill: #bf00bf"/>
   </g>
   <g id="patch_219">
    <path d="M 148.162173 299.518125 
L 149.792828 299.518125 
L 149.792828 284.02127 
L 148.162173 284.02127 
z
" clip-path="url(#p9732424319)" style="fill: #bf00bf"/>
   </g>
   <g id="patch_220">
    <path d="M 149.792828 299.518125 
L 151.423483 299.518125 
L 151.423483 299.518125 
L 149.792828 299.518125 
z
" clip-path="url(#p9732424319)" style="fill: #bf00bf"/>
   </g>
   <g id="patch_221">
    <path d="M 151.423483 299.518125 
L 153.054138 299.518125 
L 153.054138 291.216238 
L 151.423483 291.216238 
z
" clip-path="url(#p9732424319)" style="fill: #bf00bf"/>
   </g>
   <g id="patch_222">
    <path d="M 153.054138 299.518125 
L 154.684794 299.518125 
L 154.684794 291.216238 
L 153.054138 291.216238 
z
" clip-path="url(#p9732424319)" style="fill: #bf00bf"/>
   </g>
   <g id="patch_223">
    <path d="M 154.684794 299.518125 
L 156.315449 299.518125 
L 156.315449 293.430075 
L 154.684794 293.430075 
z
" clip-path="url(#p9732424319)" style="fill: #bf00bf"/>
   </g>
   <g id="patch_224">
    <path d="M 156.315449 299.518125 
L 157.946104 299.518125 
L 157.946104 291.769697 
L 156.315449 291.769697 
z
" clip-path="url(#p9732424319)" style="fill: #bf00bf"/>
   </g>
   <g id="patch_225">
    <path d="M 157.946104 299.518125 
L 159.57676 299.518125 
L 159.57676 299.518125 
L 157.946104 299.518125 
z
" clip-path="url(#p9732424319)" style="fill: #bf00bf"/>
   </g>
   <g id="patch_226">
    <path d="M 159.57676 299.518125 
L 161.207415 299.518125 
L 161.207415 296.19737 
L 159.57676 296.19737 
z
" clip-path="url(#p9732424319)" style="fill: #bf00bf"/>
   </g>
   <g id="patch_227">
    <path d="M 161.207415 299.518125 
L 162.83807 299.518125 
L 162.83807 291.769697 
L 161.207415 291.769697 
z
" clip-path="url(#p9732424319)" style="fill: #bf00bf"/>
   </g>
   <g id="patch_228">
    <path d="M 162.83807 299.518125 
L 164.468725 299.518125 
L 164.468725 296.19737 
L 162.83807 296.19737 
z
" clip-path="url(#p9732424319)" style="fill: #bf00bf"/>
   </g>
   <g id="patch_229">
    <path d="M 164.468725 299.518125 
L 166.099381 299.518125 
L 166.099381 295.643911 
L 164.468725 295.643911 
z
" clip-path="url(#p9732424319)" style="fill: #bf00bf"/>
   </g>
   <g id="patch_230">
    <path d="M 166.099381 299.518125 
L 167.730036 299.518125 
L 167.730036 298.411207 
L 166.099381 298.411207 
z
" clip-path="url(#p9732424319)" style="fill: #bf00bf"/>
   </g>
   <g id="patch_231">
    <path d="M 167.730036 299.518125 
L 169.360691 299.518125 
L 169.360691 299.518125 
L 167.730036 299.518125 
z
" clip-path="url(#p9732424319)" style="fill: #bf00bf"/>
   </g>
   <g id="patch_232">
    <path d="M 169.360691 299.518125 
L 170.991347 299.518125 
L 170.991347 298.964666 
L 169.360691 298.964666 
z
" clip-path="url(#p9732424319)" style="fill: #bf00bf"/>
   </g>
   <g id="patch_233">
    <path d="M 170.991347 299.518125 
L 172.622002 299.518125 
L 172.622002 299.518125 
L 170.991347 299.518125 
z
" clip-path="url(#p9732424319)" style="fill: #bf00bf"/>
   </g>
   <g id="patch_234">
    <path d="M 172.622002 299.518125 
L 174.252657 299.518125 
L 174.252657 298.964666 
L 172.622002 298.964666 
z
" clip-path="url(#p9732424319)" style="fill: #bf00bf"/>
   </g>
   <g id="patch_235">
    <path d="M 174.252657 299.518125 
L 175.883312 299.518125 
L 175.883312 298.411207 
L 174.252657 298.411207 
z
" clip-path="url(#p9732424319)" style="fill: #bf00bf"/>
   </g>
   <g id="patch_236">
    <path d="M 175.883312 299.518125 
L 177.513968 299.518125 
L 177.513968 299.518125 
L 175.883312 299.518125 
z
" clip-path="url(#p9732424319)" style="fill: #bf00bf"/>
   </g>
   <g id="patch_237">
    <path d="M 177.513968 299.518125 
L 179.144623 299.518125 
L 179.144623 299.518125 
L 177.513968 299.518125 
z
" clip-path="url(#p9732424319)" style="fill: #bf00bf"/>
   </g>
   <g id="patch_238">
    <path d="M 179.144623 299.518125 
L 180.775278 299.518125 
L 180.775278 298.964666 
L 179.144623 298.964666 
z
" clip-path="url(#p9732424319)" style="fill: #bf00bf"/>
   </g>
   <g id="patch_239">
    <path d="M 180.775278 299.518125 
L 182.405934 299.518125 
L 182.405934 299.518125 
L 180.775278 299.518125 
z
" clip-path="url(#p9732424319)" style="fill: #bf00bf"/>
   </g>
   <g id="patch_240">
    <path d="M 182.405934 299.518125 
L 184.036589 299.518125 
L 184.036589 298.964666 
L 182.405934 298.964666 
z
" clip-path="url(#p9732424319)" style="fill: #bf00bf"/>
   </g>
   <g id="patch_241">
    <path d="M 184.036589 299.518125 
L 185.667244 299.518125 
L 185.667244 299.518125 
L 184.036589 299.518125 
z
" clip-path="url(#p9732424319)" style="fill: #bf00bf"/>
   </g>
   <g id="patch_242">
    <path d="M 185.667244 299.518125 
L 187.297899 299.518125 
L 187.297899 298.964666 
L 185.667244 298.964666 
z
" clip-path="url(#p9732424319)" style="fill: #bf00bf"/>
   </g>
   <g id="matplotlib.axis_1">
    <g id="xtick_1">
     <g id="line2d_1">
      <path d="M 84.517203 299.518125 
L 84.517203 22.318125 
" clip-path="url(#p9732424319)" style="fill: none; stroke-dasharray: 0.8,1.32; stroke-dashoffset: 0; stroke: #b0b0b0; stroke-width: 0.8"/>
     </g>
     <g id="line2d_2">
      <defs>
       <path id="m0952594298" d="M 0 0 
L 0 3.5 
" style="stroke: #000000; stroke-width: 0.8"/>
      </defs>
      <g>
       <use xlink:href="#m0952594298" x="84.517203" y="299.518125" style="stroke: #000000; stroke-width: 0.8"/>
      </g>
     </g>
     <g id="text_1">
      <!-- 2 -->
      <g transform="translate(81.335953 314.116563) scale(0.1 -0.1)">
       <defs>
        <path id="DejaVuSans-32" d="M 1228 531 
L 3431 531 
L 3431 0 
L 469 0 
L 469 531 
Q 828 903 1448 1529 
Q 2069 2156 2228 2338 
Q 2531 2678 2651 2914 
Q 2772 3150 2772 3378 
Q 2772 3750 2511 3984 
Q 2250 4219 1831 4219 
Q 1534 4219 1204 4116 
Q 875 4013 500 3803 
L 500 4441 
Q 881 4594 1212 4672 
Q 1544 4750 1819 4750 
Q 2544 4750 2975 4387 
Q 3406 4025 3406 3419 
Q 3406 3131 3298 2873 
Q 3191 2616 2906 2266 
Q 2828 2175 2409 1742 
Q 1991 1309 1228 531 
z
" transform="scale(0.015625)"/>
       </defs>
       <use xlink:href="#DejaVuSans-32"/>
      </g>
     </g>
    </g>
    <g id="xtick_2">
     <g id="line2d_3">
      <path d="M 163.579277 299.518125 
L 163.579277 22.318125 
" clip-path="url(#p9732424319)" style="fill: none; stroke-dasharray: 0.8,1.32; stroke-dashoffset: 0; stroke: #b0b0b0; stroke-width: 0.8"/>
     </g>
     <g id="line2d_4">
      <g>
       <use xlink:href="#m0952594298" x="163.579277" y="299.518125" style="stroke: #000000; stroke-width: 0.8"/>
      </g>
     </g>
     <g id="text_2">
      <!-- 4 -->
      <g transform="translate(160.398027 314.116563) scale(0.1 -0.1)">
       <defs>
        <path id="DejaVuSans-34" d="M 2419 4116 
L 825 1625 
L 2419 1625 
L 2419 4116 
z
M 2253 4666 
L 3047 4666 
L 3047 1625 
L 3713 1625 
L 3713 1100 
L 3047 1100 
L 3047 0 
L 2419 0 
L 2419 1100 
L 313 1100 
L 313 1709 
L 2253 4666 
z
" transform="scale(0.015625)"/>
       </defs>
       <use xlink:href="#DejaVuSans-34"/>
      </g>
     </g>
    </g>
    <g id="xtick_3">
     <g id="line2d_5">
      <path d="M 242.641351 299.518125 
L 242.641351 22.318125 
" clip-path="url(#p9732424319)" style="fill: none; stroke-dasharray: 0.8,1.32; stroke-dashoffset: 0; stroke: #b0b0b0; stroke-width: 0.8"/>
     </g>
     <g id="line2d_6">
      <g>
       <use xlink:href="#m0952594298" x="242.641351" y="299.518125" style="stroke: #000000; stroke-width: 0.8"/>
      </g>
     </g>
     <g id="text_3">
      <!-- 6 -->
      <g transform="translate(239.460101 314.116563) scale(0.1 -0.1)">
       <defs>
        <path id="DejaVuSans-36" d="M 2113 2584 
Q 1688 2584 1439 2293 
Q 1191 2003 1191 1497 
Q 1191 994 1439 701 
Q 1688 409 2113 409 
Q 2538 409 2786 701 
Q 3034 994 3034 1497 
Q 3034 2003 2786 2293 
Q 2538 2584 2113 2584 
z
M 3366 4563 
L 3366 3988 
Q 3128 4100 2886 4159 
Q 2644 4219 2406 4219 
Q 1781 4219 1451 3797 
Q 1122 3375 1075 2522 
Q 1259 2794 1537 2939 
Q 1816 3084 2150 3084 
Q 2853 3084 3261 2657 
Q 3669 2231 3669 1497 
Q 3669 778 3244 343 
Q 2819 -91 2113 -91 
Q 1303 -91 875 529 
Q 447 1150 447 2328 
Q 447 3434 972 4092 
Q 1497 4750 2381 4750 
Q 2619 4750 2861 4703 
Q 3103 4656 3366 4563 
z
" transform="scale(0.015625)"/>
       </defs>
       <use xlink:href="#DejaVuSans-36"/>
      </g>
     </g>
    </g>
    <g id="xtick_4">
     <g id="line2d_7">
      <path d="M 321.703426 299.518125 
L 321.703426 22.318125 
" clip-path="url(#p9732424319)" style="fill: none; stroke-dasharray: 0.8,1.32; stroke-dashoffset: 0; stroke: #b0b0b0; stroke-width: 0.8"/>
     </g>
     <g id="line2d_8">
      <g>
       <use xlink:href="#m0952594298" x="321.703426" y="299.518125" style="stroke: #000000; stroke-width: 0.8"/>
      </g>
     </g>
     <g id="text_4">
      <!-- 8 -->
      <g transform="translate(318.522176 314.116563) scale(0.1 -0.1)">
       <defs>
        <path id="DejaVuSans-38" d="M 2034 2216 
Q 1584 2216 1326 1975 
Q 1069 1734 1069 1313 
Q 1069 891 1326 650 
Q 1584 409 2034 409 
Q 2484 409 2743 651 
Q 3003 894 3003 1313 
Q 3003 1734 2745 1975 
Q 2488 2216 2034 2216 
z
M 1403 2484 
Q 997 2584 770 2862 
Q 544 3141 544 3541 
Q 544 4100 942 4425 
Q 1341 4750 2034 4750 
Q 2731 4750 3128 4425 
Q 3525 4100 3525 3541 
Q 3525 3141 3298 2862 
Q 3072 2584 2669 2484 
Q 3125 2378 3379 2068 
Q 3634 1759 3634 1313 
Q 3634 634 3220 271 
Q 2806 -91 2034 -91 
Q 1263 -91 848 271 
Q 434 634 434 1313 
Q 434 1759 690 2068 
Q 947 2378 1403 2484 
z
M 1172 3481 
Q 1172 3119 1398 2916 
Q 1625 2713 2034 2713 
Q 2441 2713 2670 2916 
Q 2900 3119 2900 3481 
Q 2900 3844 2670 4047 
Q 2441 4250 2034 4250 
Q 1625 4250 1398 4047 
Q 1172 3844 1172 3481 
z
" transform="scale(0.015625)"/>
       </defs>
       <use xlink:href="#DejaVuSans-38"/>
      </g>
     </g>
    </g>
    <g id="xtick_5">
     <g id="line2d_9">
      <path d="M 400.7655 299.518125 
L 400.7655 22.318125 
" clip-path="url(#p9732424319)" style="fill: none; stroke-dasharray: 0.8,1.32; stroke-dashoffset: 0; stroke: #b0b0b0; stroke-width: 0.8"/>
     </g>
     <g id="line2d_10">
      <g>
       <use xlink:href="#m0952594298" x="400.7655" y="299.518125" style="stroke: #000000; stroke-width: 0.8"/>
      </g>
     </g>
     <g id="text_5">
      <!-- 10 -->
      <g transform="translate(394.403 314.116563) scale(0.1 -0.1)">
       <defs>
        <path id="DejaVuSans-31" d="M 794 531 
L 1825 531 
L 1825 4091 
L 703 3866 
L 703 4441 
L 1819 4666 
L 2450 4666 
L 2450 531 
L 3481 531 
L 3481 0 
L 794 0 
L 794 531 
z
" transform="scale(0.015625)"/>
        <path id="DejaVuSans-30" d="M 2034 4250 
Q 1547 4250 1301 3770 
Q 1056 3291 1056 2328 
Q 1056 1369 1301 889 
Q 1547 409 2034 409 
Q 2525 409 2770 889 
Q 3016 1369 3016 2328 
Q 3016 3291 2770 3770 
Q 2525 4250 2034 4250 
z
M 2034 4750 
Q 2819 4750 3233 4129 
Q 3647 3509 3647 2328 
Q 3647 1150 3233 529 
Q 2819 -91 2034 -91 
Q 1250 -91 836 529 
Q 422 1150 422 2328 
Q 422 3509 836 4129 
Q 1250 4750 2034 4750 
z
" transform="scale(0.015625)"/>
       </defs>
       <use xlink:href="#DejaVuSans-31"/>
       <use xlink:href="#DejaVuSans-30" x="63.623047"/>
      </g>
     </g>
    </g>
    <g id="xtick_6">
     <g id="line2d_11">
      <path d="M 479.827574 299.518125 
L 479.827574 22.318125 
" clip-path="url(#p9732424319)" style="fill: none; stroke-dasharray: 0.8,1.32; stroke-dashoffset: 0; stroke: #b0b0b0; stroke-width: 0.8"/>
     </g>
     <g id="line2d_12">
      <g>
       <use xlink:href="#m0952594298" x="479.827574" y="299.518125" style="stroke: #000000; stroke-width: 0.8"/>
      </g>
     </g>
     <g id="text_6">
      <!-- 12 -->
      <g transform="translate(473.465074 314.116563) scale(0.1 -0.1)">
       <use xlink:href="#DejaVuSans-31"/>
       <use xlink:href="#DejaVuSans-32" x="63.623047"/>
      </g>
     </g>
    </g>
    <g id="text_7">
     <!-- $\overline{X}_n$ -->
     <g transform="translate(275.353125 329.616563) scale(0.1 -0.1)">
      <defs>
       <path id="DejaVuSans-Oblique-58" d="M 878 4666 
L 1516 4666 
L 2316 2981 
L 3763 4666 
L 4500 4666 
L 2578 2438 
L 3738 0 
L 3103 0 
L 2163 1966 
L 459 0 
L -275 0 
L 1906 2509 
L 878 4666 
z
" transform="scale(0.015625)"/>
       <path id="DejaVuSans-Oblique-6e" d="M 3566 2113 
L 3156 0 
L 2578 0 
L 2988 2091 
Q 3016 2238 3031 2350 
Q 3047 2463 3047 2528 
Q 3047 2791 2881 2937 
Q 2716 3084 2419 3084 
Q 1956 3084 1622 2776 
Q 1288 2469 1184 1941 
L 800 0 
L 225 0 
L 903 3500 
L 1478 3500 
L 1363 2950 
Q 1603 3253 1940 3418 
Q 2278 3584 2650 3584 
Q 3113 3584 3367 3334 
Q 3622 3084 3622 2631 
Q 3622 2519 3608 2391 
Q 3594 2263 3566 2113 
z
" transform="scale(0.015625)"/>
      </defs>
      <use xlink:href="#DejaVuSans-Oblique-58" transform="translate(0 0.84375)"/>
      <use xlink:href="#DejaVuSans-Oblique-6e" transform="translate(69.462891 -16.0625) scale(0.7)"/>
      <path d="M 0 85.5 
L 0 91.75 
L 68.505859 91.75 
L 68.505859 85.5 
L 0 85.5 
z
"/>
     </g>
    </g>
   </g>
   <g id="matplotlib.axis_2">
    <g id="ytick_1">
     <g id="line2d_13">
      <path d="M 30.103125 299.518125 
L 532.303125 299.518125 
" clip-path="url(#p9732424319)" style="fill: none; stroke-dasharray: 0.8,1.32; stroke-dashoffset: 0; stroke: #b0b0b0; stroke-width: 0.8"/>
     </g>
     <g id="line2d_14">
      <defs>
       <path id="m33c17728c2" d="M 0 0 
L -3.5 0 
" style="stroke: #000000; stroke-width: 0.8"/>
      </defs>
      <g>
       <use xlink:href="#m33c17728c2" x="30.103125" y="299.518125" style="stroke: #000000; stroke-width: 0.8"/>
      </g>
     </g>
     <g id="text_8">
      <!-- 0.0 -->
      <g transform="translate(7.2 303.317344) scale(0.1 -0.1)">
       <defs>
        <path id="DejaVuSans-2e" d="M 684 794 
L 1344 794 
L 1344 0 
L 684 0 
L 684 794 
z
" transform="scale(0.015625)"/>
       </defs>
       <use xlink:href="#DejaVuSans-30"/>
       <use xlink:href="#DejaVuSans-2e" x="63.623047"/>
       <use xlink:href="#DejaVuSans-30" x="95.410156"/>
      </g>
     </g>
    </g>
    <g id="ytick_2">
     <g id="line2d_15">
      <path d="M 30.103125 253.857748 
L 532.303125 253.857748 
" clip-path="url(#p9732424319)" style="fill: none; stroke-dasharray: 0.8,1.32; stroke-dashoffset: 0; stroke: #b0b0b0; stroke-width: 0.8"/>
     </g>
     <g id="line2d_16">
      <g>
       <use xlink:href="#m33c17728c2" x="30.103125" y="253.857748" style="stroke: #000000; stroke-width: 0.8"/>
      </g>
     </g>
     <g id="text_9">
      <!-- 0.2 -->
      <g transform="translate(7.2 257.656966) scale(0.1 -0.1)">
       <use xlink:href="#DejaVuSans-30"/>
       <use xlink:href="#DejaVuSans-2e" x="63.623047"/>
       <use xlink:href="#DejaVuSans-32" x="95.410156"/>
      </g>
     </g>
    </g>
    <g id="ytick_3">
     <g id="line2d_17">
      <path d="M 30.103125 208.19737 
L 532.303125 208.19737 
" clip-path="url(#p9732424319)" style="fill: none; stroke-dasharray: 0.8,1.32; stroke-dashoffset: 0; stroke: #b0b0b0; stroke-width: 0.8"/>
     </g>
     <g id="line2d_18">
      <g>
       <use xlink:href="#m33c17728c2" x="30.103125" y="208.19737" style="stroke: #000000; stroke-width: 0.8"/>
      </g>
     </g>
     <g id="text_10">
      <!-- 0.4 -->
      <g transform="translate(7.2 211.996589) scale(0.1 -0.1)">
       <use xlink:href="#DejaVuSans-30"/>
       <use xlink:href="#DejaVuSans-2e" x="63.623047"/>
       <use xlink:href="#DejaVuSans-34" x="95.410156"/>
      </g>
     </g>
    </g>
    <g id="ytick_4">
     <g id="line2d_19">
      <path d="M 30.103125 162.536993 
L 532.303125 162.536993 
" clip-path="url(#p9732424319)" style="fill: none; stroke-dasharray: 0.8,1.32; stroke-dashoffset: 0; stroke: #b0b0b0; stroke-width: 0.8"/>
     </g>
     <g id="line2d_20">
      <g>
       <use xlink:href="#m33c17728c2" x="30.103125" y="162.536993" style="stroke: #000000; stroke-width: 0.8"/>
      </g>
     </g>
     <g id="text_11">
      <!-- 0.6 -->
      <g transform="translate(7.2 166.336212) scale(0.1 -0.1)">
       <use xlink:href="#DejaVuSans-30"/>
       <use xlink:href="#DejaVuSans-2e" x="63.623047"/>
       <use xlink:href="#DejaVuSans-36" x="95.410156"/>
      </g>
     </g>
    </g>
    <g id="ytick_5">
     <g id="line2d_21">
      <path d="M 30.103125 116.876616 
L 532.303125 116.876616 
" clip-path="url(#p9732424319)" style="fill: none; stroke-dasharray: 0.8,1.32; stroke-dashoffset: 0; stroke: #b0b0b0; stroke-width: 0.8"/>
     </g>
     <g id="line2d_22">
      <g>
       <use xlink:href="#m33c17728c2" x="30.103125" y="116.876616" style="stroke: #000000; stroke-width: 0.8"/>
      </g>
     </g>
     <g id="text_12">
      <!-- 0.8 -->
      <g transform="translate(7.2 120.675834) scale(0.1 -0.1)">
       <use xlink:href="#DejaVuSans-30"/>
       <use xlink:href="#DejaVuSans-2e" x="63.623047"/>
       <use xlink:href="#DejaVuSans-38" x="95.410156"/>
      </g>
     </g>
    </g>
    <g id="ytick_6">
     <g id="line2d_23">
      <path d="M 30.103125 71.216238 
L 532.303125 71.216238 
" clip-path="url(#p9732424319)" style="fill: none; stroke-dasharray: 0.8,1.32; stroke-dashoffset: 0; stroke: #b0b0b0; stroke-width: 0.8"/>
     </g>
     <g id="line2d_24">
      <g>
       <use xlink:href="#m33c17728c2" x="30.103125" y="71.216238" style="stroke: #000000; stroke-width: 0.8"/>
      </g>
     </g>
     <g id="text_13">
      <!-- 1.0 -->
      <g transform="translate(7.2 75.015457) scale(0.1 -0.1)">
       <use xlink:href="#DejaVuSans-31"/>
       <use xlink:href="#DejaVuSans-2e" x="63.623047"/>
       <use xlink:href="#DejaVuSans-30" x="95.410156"/>
      </g>
     </g>
    </g>
    <g id="ytick_7">
     <g id="line2d_25">
      <path d="M 30.103125 25.555861 
L 532.303125 25.555861 
" clip-path="url(#p9732424319)" style="fill: none; stroke-dasharray: 0.8,1.32; stroke-dashoffset: 0; stroke: #b0b0b0; stroke-width: 0.8"/>
     </g>
     <g id="line2d_26">
      <g>
       <use xlink:href="#m33c17728c2" x="30.103125" y="25.555861" style="stroke: #000000; stroke-width: 0.8"/>
      </g>
     </g>
     <g id="text_14">
      <!-- 1.2 -->
      <g transform="translate(7.2 29.35508) scale(0.1 -0.1)">
       <use xlink:href="#DejaVuSans-31"/>
       <use xlink:href="#DejaVuSans-2e" x="63.623047"/>
       <use xlink:href="#DejaVuSans-32" x="95.410156"/>
      </g>
     </g>
    </g>
   </g>
   <g id="line2d_27">
    <path d="M 188.29516 297.310198 
L 190.253582 296.482143 
L 192.103202 295.460529 
L 193.844021 294.237411 
L 195.476038 292.8143 
L 196.999255 291.203094 
L 198.522472 289.277309 
L 200.045688 286.994366 
L 201.568905 284.310397 
L 203.092121 281.181329 
L 204.724139 277.286078 
L 206.356157 272.781251 
L 207.988175 267.62354 
L 209.728993 261.363672 
L 211.578614 253.825775 
L 213.537035 244.840107 
L 215.604257 234.264132 
L 217.889082 221.372378 
L 220.609112 204.652329 
L 224.525954 178.969384 
L 229.204405 148.565846 
L 231.598031 134.469154 
L 233.447651 124.782831 
L 235.079669 117.349001 
L 236.494085 111.886882 
L 237.690898 108.051212 
L 238.778909 105.2335 
L 239.75812 103.268325 
L 240.62853 101.989933 
L 241.390138 101.240362 
L 242.042945 100.875259 
L 242.695752 100.767748 
L 243.348559 100.918247 
L 244.001366 101.326171 
L 244.654173 101.989933 
L 245.415782 103.08418 
L 246.286191 104.749328 
L 247.265402 107.137364 
L 248.353414 110.405586 
L 249.550227 114.708123 
L 250.964642 120.676138 
L 252.59666 128.622702 
L 254.44628 138.787597 
L 256.731105 152.642664 
L 260.103941 174.627182 
L 265.761603 211.493765 
L 268.481632 227.658973 
L 270.766457 239.966449 
L 272.83368 249.959056 
L 274.792101 258.371521 
L 276.641721 265.369554 
L 278.38254 271.13647 
L 280.123359 276.146311 
L 281.755377 280.199493 
L 283.387395 283.678843 
L 285.019412 286.636526 
L 286.65143 289.126601 
L 288.283448 291.203094 
L 289.915466 292.918433 
L 291.547483 294.322251 
L 293.288302 295.528022 
L 295.137922 296.534473 
L 296.987542 297.310198 
L 296.987542 297.310198 
" clip-path="url(#p9732424319)" style="fill: none; stroke-dasharray: 7.4,3.2; stroke-dashoffset: 0; stroke: #0000ff; stroke-width: 2"/>
   </g>
   <g id="line2d_28">
    <path d="M 316.907507 298.087225 
L 320.600952 297.409638 
L 323.790745 296.612281 
L 326.812655 295.627447 
L 329.498797 294.524299 
L 332.017055 293.260295 
L 334.535313 291.739744 
L 336.885687 290.058436 
L 339.236062 288.094764 
L 341.586436 285.820651 
L 343.768926 283.407745 
L 346.1193 280.462174 
L 348.469674 277.136843 
L 350.820049 273.416427 
L 353.170423 269.29203 
L 355.688681 264.423634 
L 358.374823 258.72993 
L 361.228849 252.146671 
L 364.418642 244.210353 
L 368.279971 233.956311 
L 374.827442 215.772933 
L 379.696074 202.564622 
L 382.885868 194.541843 
L 385.404126 188.765233 
L 387.586616 184.261496 
L 389.601223 180.587072 
L 391.447945 177.673299 
L 393.126784 175.433383 
L 394.637739 173.770699 
L 395.98081 172.585797 
L 397.323881 171.685189 
L 398.499068 171.135276 
L 399.674255 170.810694 
L 400.849442 170.713159 
L 402.024629 170.843189 
L 403.199816 171.200095 
L 404.375003 171.781988 
L 405.718074 172.718511 
L 407.061145 173.938418 
L 408.5721 175.639108 
L 410.083055 177.673299 
L 411.761894 180.303589 
L 413.608616 183.615271 
L 415.623223 187.681289 
L 417.973597 192.947002 
L 420.659739 199.531433 
L 424.017416 208.38405 
L 429.557584 223.738994 
L 435.433519 239.825651 
L 439.126964 249.288705 
L 442.316758 256.848691 
L 445.170784 263.047869 
L 447.856926 268.355401 
L 450.375184 272.852078 
L 452.893442 276.884347 
L 455.243816 280.237458 
L 457.59419 283.209531 
L 459.944564 285.820651 
L 462.294939 288.094764 
L 464.645313 290.058436 
L 466.995687 291.739744 
L 469.513945 293.260295 
L 472.032203 294.524299 
L 474.718345 295.627447 
L 477.572371 296.563874 
L 480.762164 297.373044 
L 484.287726 298.034827 
L 484.623493 298.087225 
L 484.623493 298.087225 
" clip-path="url(#p9732424319)" style="fill: none; stroke-dasharray: 7.4,3.2; stroke-dashoffset: 0; stroke: #a52a2a; stroke-width: 2"/>
   </g>
   <g id="line2d_29">
    <path d="M 52.930398 297.181474 
L 54.780932 296.305144 
L 56.528659 295.223969 
L 58.173578 293.929543 
L 59.71569 292.423463 
L 61.257802 290.584311 
L 62.697106 288.52077 
L 64.13641 286.075964 
L 65.575715 283.203413 
L 67.117826 279.598083 
L 68.659938 275.392628 
L 70.20205 270.535517 
L 71.846969 264.58606 
L 73.491889 257.802325 
L 75.239615 249.652661 
L 77.09015 239.962446 
L 79.146299 227.959383 
L 81.408063 213.391284 
L 84.183864 193.947939 
L 93.64215 126.133606 
L 95.492684 115.161799 
L 97.034796 107.214634 
L 98.371293 101.355745 
L 99.604982 96.88859 
L 100.633057 93.906605 
L 101.558324 91.826858 
L 102.380783 90.473936 
L 103.100436 89.680664 
L 103.71728 89.294276 
L 104.334125 89.180497 
L 104.848162 89.294276 
L 105.465007 89.680664 
L 106.081852 90.33816 
L 106.801504 91.444422 
L 107.623964 93.148693 
L 108.549231 95.612777 
L 109.577305 99.004464 
L 110.810995 103.933603 
L 112.147492 110.249556 
L 113.689603 118.65941 
L 115.540138 130.084424 
L 117.801902 145.536305 
L 121.297355 171.175112 
L 126.129305 206.361899 
L 128.699492 223.469547 
L 130.961256 237.080622 
L 133.017405 248.113022 
L 134.867939 256.894231 
L 136.615666 264.186873 
L 138.363393 270.535517 
L 140.008312 275.692725 
L 141.653231 280.112284 
L 143.195343 283.64174 
L 144.737455 286.634266 
L 146.279567 289.147248 
L 147.821678 291.237557 
L 149.36379 292.959995 
L 150.905902 294.366135 
L 152.550821 295.570846 
L 154.298548 296.573726 
L 155.635045 297.181474 
L 155.635045 297.181474 
" clip-path="url(#p9732424319)" style="fill: none; stroke-dasharray: 7.4,3.2; stroke-dashoffset: 0; stroke: #008000; stroke-width: 2"/>
   </g>
   <g id="patch_243">
    <path d="M 30.103125 299.518125 
L 30.103125 22.318125 
" style="fill: none; stroke: #000000; stroke-width: 0.8; stroke-linejoin: miter; stroke-linecap: square"/>
   </g>
   <g id="patch_244">
    <path d="M 532.303125 299.518125 
L 532.303125 22.318125 
" style="fill: none; stroke: #000000; stroke-width: 0.8; stroke-linejoin: miter; stroke-linecap: square"/>
   </g>
   <g id="patch_245">
    <path d="M 30.103125 299.518125 
L 532.303125 299.518125 
" style="fill: none; stroke: #000000; stroke-width: 0.8; stroke-linejoin: miter; stroke-linecap: square"/>
   </g>
   <g id="patch_246">
    <path d="M 30.103125 22.318125 
L 532.303125 22.318125 
" style="fill: none; stroke: #000000; stroke-width: 0.8; stroke-linejoin: miter; stroke-linecap: square"/>
   </g>
   <g id="text_15">
    <!-- Central limit theorem, $n=20$ -->
    <g transform="translate(194.203125 16.318125) scale(0.12 -0.12)">
     <defs>
      <path id="DejaVuSans-43" d="M 4122 4306 
L 4122 3641 
Q 3803 3938 3442 4084 
Q 3081 4231 2675 4231 
Q 1875 4231 1450 3742 
Q 1025 3253 1025 2328 
Q 1025 1406 1450 917 
Q 1875 428 2675 428 
Q 3081 428 3442 575 
Q 3803 722 4122 1019 
L 4122 359 
Q 3791 134 3420 21 
Q 3050 -91 2638 -91 
Q 1578 -91 968 557 
Q 359 1206 359 2328 
Q 359 3453 968 4101 
Q 1578 4750 2638 4750 
Q 3056 4750 3426 4639 
Q 3797 4528 4122 4306 
z
" transform="scale(0.015625)"/>
      <path id="DejaVuSans-65" d="M 3597 1894 
L 3597 1613 
L 953 1613 
Q 991 1019 1311 708 
Q 1631 397 2203 397 
Q 2534 397 2845 478 
Q 3156 559 3463 722 
L 3463 178 
Q 3153 47 2828 -22 
Q 2503 -91 2169 -91 
Q 1331 -91 842 396 
Q 353 884 353 1716 
Q 353 2575 817 3079 
Q 1281 3584 2069 3584 
Q 2775 3584 3186 3129 
Q 3597 2675 3597 1894 
z
M 3022 2063 
Q 3016 2534 2758 2815 
Q 2500 3097 2075 3097 
Q 1594 3097 1305 2825 
Q 1016 2553 972 2059 
L 3022 2063 
z
" transform="scale(0.015625)"/>
      <path id="DejaVuSans-6e" d="M 3513 2113 
L 3513 0 
L 2938 0 
L 2938 2094 
Q 2938 2591 2744 2837 
Q 2550 3084 2163 3084 
Q 1697 3084 1428 2787 
Q 1159 2491 1159 1978 
L 1159 0 
L 581 0 
L 581 3500 
L 1159 3500 
L 1159 2956 
Q 1366 3272 1645 3428 
Q 1925 3584 2291 3584 
Q 2894 3584 3203 3211 
Q 3513 2838 3513 2113 
z
" transform="scale(0.015625)"/>
      <path id="DejaVuSans-74" d="M 1172 4494 
L 1172 3500 
L 2356 3500 
L 2356 3053 
L 1172 3053 
L 1172 1153 
Q 1172 725 1289 603 
Q 1406 481 1766 481 
L 2356 481 
L 2356 0 
L 1766 0 
Q 1100 0 847 248 
Q 594 497 594 1153 
L 594 3053 
L 172 3053 
L 172 3500 
L 594 3500 
L 594 4494 
L 1172 4494 
z
" transform="scale(0.015625)"/>
      <path id="DejaVuSans-72" d="M 2631 2963 
Q 2534 3019 2420 3045 
Q 2306 3072 2169 3072 
Q 1681 3072 1420 2755 
Q 1159 2438 1159 1844 
L 1159 0 
L 581 0 
L 581 3500 
L 1159 3500 
L 1159 2956 
Q 1341 3275 1631 3429 
Q 1922 3584 2338 3584 
Q 2397 3584 2469 3576 
Q 2541 3569 2628 3553 
L 2631 2963 
z
" transform="scale(0.015625)"/>
      <path id="DejaVuSans-61" d="M 2194 1759 
Q 1497 1759 1228 1600 
Q 959 1441 959 1056 
Q 959 750 1161 570 
Q 1363 391 1709 391 
Q 2188 391 2477 730 
Q 2766 1069 2766 1631 
L 2766 1759 
L 2194 1759 
z
M 3341 1997 
L 3341 0 
L 2766 0 
L 2766 531 
Q 2569 213 2275 61 
Q 1981 -91 1556 -91 
Q 1019 -91 701 211 
Q 384 513 384 1019 
Q 384 1609 779 1909 
Q 1175 2209 1959 2209 
L 2766 2209 
L 2766 2266 
Q 2766 2663 2505 2880 
Q 2244 3097 1772 3097 
Q 1472 3097 1187 3025 
Q 903 2953 641 2809 
L 641 3341 
Q 956 3463 1253 3523 
Q 1550 3584 1831 3584 
Q 2591 3584 2966 3190 
Q 3341 2797 3341 1997 
z
" transform="scale(0.015625)"/>
      <path id="DejaVuSans-6c" d="M 603 4863 
L 1178 4863 
L 1178 0 
L 603 0 
L 603 4863 
z
" transform="scale(0.015625)"/>
      <path id="DejaVuSans-20" transform="scale(0.015625)"/>
      <path id="DejaVuSans-69" d="M 603 3500 
L 1178 3500 
L 1178 0 
L 603 0 
L 603 3500 
z
M 603 4863 
L 1178 4863 
L 1178 4134 
L 603 4134 
L 603 4863 
z
" transform="scale(0.015625)"/>
      <path id="DejaVuSans-6d" d="M 3328 2828 
Q 3544 3216 3844 3400 
Q 4144 3584 4550 3584 
Q 5097 3584 5394 3201 
Q 5691 2819 5691 2113 
L 5691 0 
L 5113 0 
L 5113 2094 
Q 5113 2597 4934 2840 
Q 4756 3084 4391 3084 
Q 3944 3084 3684 2787 
Q 3425 2491 3425 1978 
L 3425 0 
L 2847 0 
L 2847 2094 
Q 2847 2600 2669 2842 
Q 2491 3084 2119 3084 
Q 1678 3084 1418 2786 
Q 1159 2488 1159 1978 
L 1159 0 
L 581 0 
L 581 3500 
L 1159 3500 
L 1159 2956 
Q 1356 3278 1631 3431 
Q 1906 3584 2284 3584 
Q 2666 3584 2933 3390 
Q 3200 3197 3328 2828 
z
" transform="scale(0.015625)"/>
      <path id="DejaVuSans-68" d="M 3513 2113 
L 3513 0 
L 2938 0 
L 2938 2094 
Q 2938 2591 2744 2837 
Q 2550 3084 2163 3084 
Q 1697 3084 1428 2787 
Q 1159 2491 1159 1978 
L 1159 0 
L 581 0 
L 581 4863 
L 1159 4863 
L 1159 2956 
Q 1366 3272 1645 3428 
Q 1925 3584 2291 3584 
Q 2894 3584 3203 3211 
Q 3513 2838 3513 2113 
z
" transform="scale(0.015625)"/>
      <path id="DejaVuSans-6f" d="M 1959 3097 
Q 1497 3097 1228 2736 
Q 959 2375 959 1747 
Q 959 1119 1226 758 
Q 1494 397 1959 397 
Q 2419 397 2687 759 
Q 2956 1122 2956 1747 
Q 2956 2369 2687 2733 
Q 2419 3097 1959 3097 
z
M 1959 3584 
Q 2709 3584 3137 3096 
Q 3566 2609 3566 1747 
Q 3566 888 3137 398 
Q 2709 -91 1959 -91 
Q 1206 -91 779 398 
Q 353 888 353 1747 
Q 353 2609 779 3096 
Q 1206 3584 1959 3584 
z
" transform="scale(0.015625)"/>
      <path id="DejaVuSans-2c" d="M 750 794 
L 1409 794 
L 1409 256 
L 897 -744 
L 494 -744 
L 750 256 
L 750 794 
z
" transform="scale(0.015625)"/>
      <path id="DejaVuSans-3d" d="M 678 2906 
L 4684 2906 
L 4684 2381 
L 678 2381 
L 678 2906 
z
M 678 1631 
L 4684 1631 
L 4684 1100 
L 678 1100 
L 678 1631 
z
" transform="scale(0.015625)"/>
     </defs>
     <use xlink:href="#DejaVuSans-43" transform="translate(0 0.015625)"/>
     <use xlink:href="#DejaVuSans-65" transform="translate(69.824219 0.015625)"/>
     <use xlink:href="#DejaVuSans-6e" transform="translate(131.347656 0.015625)"/>
     <use xlink:href="#DejaVuSans-74" transform="translate(194.726562 0.015625)"/>
     <use xlink:href="#DejaVuSans-72" transform="translate(233.935547 0.015625)"/>
     <use xlink:href="#DejaVuSans-61" transform="translate(275.048828 0.015625)"/>
     <use xlink:href="#DejaVuSans-6c" transform="translate(336.328125 0.015625)"/>
     <use xlink:href="#DejaVuSans-20" transform="translate(364.111328 0.015625)"/>
     <use xlink:href="#DejaVuSans-6c" transform="translate(395.898438 0.015625)"/>
     <use xlink:href="#DejaVuSans-69" transform="translate(423.681641 0.015625)"/>
     <use xlink:href="#DejaVuSans-6d" transform="translate(451.464844 0.015625)"/>
     <use xlink:href="#DejaVuSans-69" transform="translate(548.876953 0.015625)"/>
     <use xlink:href="#DejaVuSans-74" transform="translate(576.660156 0.015625)"/>
     <use xlink:href="#DejaVuSans-20" transform="translate(615.869141 0.015625)"/>
     <use xlink:href="#DejaVuSans-74" transform="translate(647.65625 0.015625)"/>
     <use xlink:href="#DejaVuSans-68" transform="translate(686.865234 0.015625)"/>
     <use xlink:href="#DejaVuSans-65" transform="translate(750.244141 0.015625)"/>
     <use xlink:href="#DejaVuSans-6f" transform="translate(811.767578 0.015625)"/>
     <use xlink:href="#DejaVuSans-72" transform="translate(872.949219 0.015625)"/>
     <use xlink:href="#DejaVuSans-65" transform="translate(914.0625 0.015625)"/>
     <use xlink:href="#DejaVuSans-6d" transform="translate(975.585938 0.015625)"/>
     <use xlink:href="#DejaVuSans-2c" transform="translate(1072.998047 0.015625)"/>
     <use xlink:href="#DejaVuSans-20" transform="translate(1104.785156 0.015625)"/>
     <use xlink:href="#DejaVuSans-Oblique-6e" transform="translate(1136.572266 0.015625)"/>
     <use xlink:href="#DejaVuSans-3d" transform="translate(1219.433594 0.015625)"/>
     <use xlink:href="#DejaVuSans-32" transform="translate(1322.705078 0.015625)"/>
     <use xlink:href="#DejaVuSans-30" transform="translate(1386.328125 0.015625)"/>
    </g>
   </g>
   <g id="legend_1">
    <g id="patch_247">
     <path d="M 434.539062 74.3525 
L 525.303125 74.3525 
Q 527.303125 74.3525 527.303125 72.3525 
L 527.303125 29.318125 
Q 527.303125 27.318125 525.303125 27.318125 
L 434.539062 27.318125 
Q 432.539062 27.318125 432.539062 29.318125 
L 432.539062 72.3525 
Q 432.539062 74.3525 434.539062 74.3525 
z
" style="fill: #ffffff; opacity: 0.8; stroke: #cccccc; stroke-linejoin: miter"/>
    </g>
    <g id="patch_248">
     <path d="M 436.539062 38.916563 
L 456.539062 38.916563 
L 456.539062 31.916563 
L 436.539062 31.916563 
z
" style="fill: #ff0000"/>
    </g>
    <g id="text_16">
     <!-- Bin(20, 0.3) -->
     <g transform="translate(464.539062 38.916563) scale(0.1 -0.1)">
      <defs>
       <path id="DejaVuSans-42" d="M 1259 2228 
L 1259 519 
L 2272 519 
Q 2781 519 3026 730 
Q 3272 941 3272 1375 
Q 3272 1813 3026 2020 
Q 2781 2228 2272 2228 
L 1259 2228 
z
M 1259 4147 
L 1259 2741 
L 2194 2741 
Q 2656 2741 2882 2914 
Q 3109 3088 3109 3444 
Q 3109 3797 2882 3972 
Q 2656 4147 2194 4147 
L 1259 4147 
z
M 628 4666 
L 2241 4666 
Q 2963 4666 3353 4366 
Q 3744 4066 3744 3513 
Q 3744 3084 3544 2831 
Q 3344 2578 2956 2516 
Q 3422 2416 3680 2098 
Q 3938 1781 3938 1306 
Q 3938 681 3513 340 
Q 3088 0 2303 0 
L 628 0 
L 628 4666 
z
" transform="scale(0.015625)"/>
       <path id="DejaVuSans-28" d="M 1984 4856 
Q 1566 4138 1362 3434 
Q 1159 2731 1159 2009 
Q 1159 1288 1364 580 
Q 1569 -128 1984 -844 
L 1484 -844 
Q 1016 -109 783 600 
Q 550 1309 550 2009 
Q 550 2706 781 3412 
Q 1013 4119 1484 4856 
L 1984 4856 
z
" transform="scale(0.015625)"/>
       <path id="DejaVuSans-33" d="M 2597 2516 
Q 3050 2419 3304 2112 
Q 3559 1806 3559 1356 
Q 3559 666 3084 287 
Q 2609 -91 1734 -91 
Q 1441 -91 1130 -33 
Q 819 25 488 141 
L 488 750 
Q 750 597 1062 519 
Q 1375 441 1716 441 
Q 2309 441 2620 675 
Q 2931 909 2931 1356 
Q 2931 1769 2642 2001 
Q 2353 2234 1838 2234 
L 1294 2234 
L 1294 2753 
L 1863 2753 
Q 2328 2753 2575 2939 
Q 2822 3125 2822 3475 
Q 2822 3834 2567 4026 
Q 2313 4219 1838 4219 
Q 1578 4219 1281 4162 
Q 984 4106 628 3988 
L 628 4550 
Q 988 4650 1302 4700 
Q 1616 4750 1894 4750 
Q 2613 4750 3031 4423 
Q 3450 4097 3450 3541 
Q 3450 3153 3228 2886 
Q 3006 2619 2597 2516 
z
" transform="scale(0.015625)"/>
       <path id="DejaVuSans-29" d="M 513 4856 
L 1013 4856 
Q 1481 4119 1714 3412 
Q 1947 2706 1947 2009 
Q 1947 1309 1714 600 
Q 1481 -109 1013 -844 
L 513 -844 
Q 928 -128 1133 580 
Q 1338 1288 1338 2009 
Q 1338 2731 1133 3434 
Q 928 4138 513 4856 
z
" transform="scale(0.015625)"/>
      </defs>
      <use xlink:href="#DejaVuSans-42"/>
      <use xlink:href="#DejaVuSans-69" x="68.603516"/>
      <use xlink:href="#DejaVuSans-6e" x="96.386719"/>
      <use xlink:href="#DejaVuSans-28" x="159.765625"/>
      <use xlink:href="#DejaVuSans-32" x="198.779297"/>
      <use xlink:href="#DejaVuSans-30" x="262.402344"/>
      <use xlink:href="#DejaVuSans-2c" x="326.025391"/>
      <use xlink:href="#DejaVuSans-20" x="357.8125"/>
      <use xlink:href="#DejaVuSans-30" x="389.599609"/>
      <use xlink:href="#DejaVuSans-2e" x="453.222656"/>
      <use xlink:href="#DejaVuSans-33" x="485.009766"/>
      <use xlink:href="#DejaVuSans-29" x="548.632812"/>
     </g>
    </g>
    <g id="patch_249">
     <path d="M 436.539062 53.594688 
L 456.539062 53.594688 
L 456.539062 46.594688 
L 436.539062 46.594688 
z
" style="fill: #ffa500"/>
    </g>
    <g id="text_17">
     <!-- Pois(10) -->
     <g transform="translate(464.539062 53.594688) scale(0.1 -0.1)">
      <defs>
       <path id="DejaVuSans-50" d="M 1259 4147 
L 1259 2394 
L 2053 2394 
Q 2494 2394 2734 2622 
Q 2975 2850 2975 3272 
Q 2975 3691 2734 3919 
Q 2494 4147 2053 4147 
L 1259 4147 
z
M 628 4666 
L 2053 4666 
Q 2838 4666 3239 4311 
Q 3641 3956 3641 3272 
Q 3641 2581 3239 2228 
Q 2838 1875 2053 1875 
L 1259 1875 
L 1259 0 
L 628 0 
L 628 4666 
z
" transform="scale(0.015625)"/>
       <path id="DejaVuSans-73" d="M 2834 3397 
L 2834 2853 
Q 2591 2978 2328 3040 
Q 2066 3103 1784 3103 
Q 1356 3103 1142 2972 
Q 928 2841 928 2578 
Q 928 2378 1081 2264 
Q 1234 2150 1697 2047 
L 1894 2003 
Q 2506 1872 2764 1633 
Q 3022 1394 3022 966 
Q 3022 478 2636 193 
Q 2250 -91 1575 -91 
Q 1294 -91 989 -36 
Q 684 19 347 128 
L 347 722 
Q 666 556 975 473 
Q 1284 391 1588 391 
Q 1994 391 2212 530 
Q 2431 669 2431 922 
Q 2431 1156 2273 1281 
Q 2116 1406 1581 1522 
L 1381 1569 
Q 847 1681 609 1914 
Q 372 2147 372 2553 
Q 372 3047 722 3315 
Q 1072 3584 1716 3584 
Q 2034 3584 2315 3537 
Q 2597 3491 2834 3397 
z
" transform="scale(0.015625)"/>
      </defs>
      <use xlink:href="#DejaVuSans-50"/>
      <use xlink:href="#DejaVuSans-6f" x="56.677734"/>
      <use xlink:href="#DejaVuSans-69" x="117.859375"/>
      <use xlink:href="#DejaVuSans-73" x="145.642578"/>
      <use xlink:href="#DejaVuSans-28" x="197.742188"/>
      <use xlink:href="#DejaVuSans-31" x="236.755859"/>
      <use xlink:href="#DejaVuSans-30" x="300.378906"/>
      <use xlink:href="#DejaVuSans-29" x="364.001953"/>
     </g>
    </g>
    <g id="patch_250">
     <path d="M 436.539062 68.272813 
L 456.539062 68.272813 
L 456.539062 61.272813 
L 436.539062 61.272813 
z
" style="fill: #bf00bf"/>
    </g>
    <g id="text_18">
     <!-- Geom(0.4) -->
     <g transform="translate(464.539062 68.272813) scale(0.1 -0.1)">
      <defs>
       <path id="DejaVuSans-47" d="M 3809 666 
L 3809 1919 
L 2778 1919 
L 2778 2438 
L 4434 2438 
L 4434 434 
Q 4069 175 3628 42 
Q 3188 -91 2688 -91 
Q 1594 -91 976 548 
Q 359 1188 359 2328 
Q 359 3472 976 4111 
Q 1594 4750 2688 4750 
Q 3144 4750 3555 4637 
Q 3966 4525 4313 4306 
L 4313 3634 
Q 3963 3931 3569 4081 
Q 3175 4231 2741 4231 
Q 1884 4231 1454 3753 
Q 1025 3275 1025 2328 
Q 1025 1384 1454 906 
Q 1884 428 2741 428 
Q 3075 428 3337 486 
Q 3600 544 3809 666 
z
" transform="scale(0.015625)"/>
      </defs>
      <use xlink:href="#DejaVuSans-47"/>
      <use xlink:href="#DejaVuSans-65" x="77.490234"/>
      <use xlink:href="#DejaVuSans-6f" x="139.013672"/>
      <use xlink:href="#DejaVuSans-6d" x="200.195312"/>
      <use xlink:href="#DejaVuSans-28" x="297.607422"/>
      <use xlink:href="#DejaVuSans-30" x="336.621094"/>
      <use xlink:href="#DejaVuSans-2e" x="400.244141"/>
      <use xlink:href="#DejaVuSans-34" x="432.03125"/>
      <use xlink:href="#DejaVuSans-29" x="495.654297"/>
     </g>
    </g>
   </g>
  </g>
 </g>
 <defs>
  <clipPath id="p9732424319">
   <rect x="30.103125" y="22.318125" width="502.2" height="277.2"/>
  </clipPath>
 </defs>
</svg>