<?xml version="1.0" encoding="UTF-8" standalone="no"?>
<!DOCTYPE svg PUBLIC "-//W3C//DTD SVG 1.1//EN"
 "http://www.w3.org/Graphics/SVG/1.1/DTD/svg11.dtd">
<!-- Generated by graphviz version 11.0.0 (20240428.1522)
 -->
<!-- Title: Tree Pages: 1 -->
<svg width="805pt" height="671pt"
 viewBox="0.00 0.00 805.38 671.00" xmlns="http://www.w3.org/2000/svg" xmlns:xlink="http://www.w3.org/1999/xlink">
<g id="graph0" class="graph" transform="scale(1 1) rotate(0) translate(4 667)">
<title>Tree</title>
<polygon fill="white" stroke="none" points="-4,4 -4,-667 801.38,-667 801.38,4 -4,4"/>
<!-- 0 -->
<g id="node1" class="node">
<title>0</title>
<path fill="#ffffff" stroke="black" d="M482.88,-663C482.88,-663 375.38,-663 375.38,-663 369.38,-663 363.38,-657 363.38,-651 363.38,-651 363.38,-592 363.38,-592 363.38,-586 369.38,-580 375.38,-580 375.38,-580 482.88,-580 482.88,-580 488.88,-580 494.88,-586 494.88,-592 494.88,-592 494.88,-651 494.88,-651 494.88,-657 488.88,-663 482.88,-663"/>
<text text-anchor="start" x="371.75" y="-645.7" font-family="Helvetica,sans-Serif" font-size="14.00">petal_length ≤ 2.45</text>
<text text-anchor="start" x="393.88" y="-630.7" font-family="Helvetica,sans-Serif" font-size="14.00">gini = 0.667</text>
<text text-anchor="start" x="384.5" y="-615.7" font-family="Helvetica,sans-Serif" font-size="14.00">samples = 150</text>
<text text-anchor="start" x="371.38" y="-600.7" font-family="Helvetica,sans-Serif" font-size="14.00">value = [50, 50, 50]</text>
<text text-anchor="start" x="386" y="-585.7" font-family="Helvetica,sans-Serif" font-size="14.00">class = setosa</text>
</g>
<!-- 1 -->
<g id="node2" class="node">
<title>1</title>
<path fill="#e58139" stroke="black" d="M406.38,-536.5C406.38,-536.5 313.88,-536.5 313.88,-536.5 307.88,-536.5 301.88,-530.5 301.88,-524.5 301.88,-524.5 301.88,-480.5 301.88,-480.5 301.88,-474.5 307.88,-468.5 313.88,-468.5 313.88,-468.5 406.38,-468.5 406.38,-468.5 412.38,-468.5 418.38,-474.5 418.38,-480.5 418.38,-480.5 418.38,-524.5 418.38,-524.5 418.38,-530.5 412.38,-536.5 406.38,-536.5"/>
<text text-anchor="start" x="332.38" y="-519.2" font-family="Helvetica,sans-Serif" font-size="14.00">gini = 0.0</text>
<text text-anchor="start" x="319.25" y="-504.2" font-family="Helvetica,sans-Serif" font-size="14.00">samples = 50</text>
<text text-anchor="start" x="309.88" y="-489.2" font-family="Helvetica,sans-Serif" font-size="14.00">value = [50, 0, 0]</text>
<text text-anchor="start" x="317" y="-474.2" font-family="Helvetica,sans-Serif" font-size="14.00">class = setosa</text>
</g>
<!-- 0&#45;&gt;1 -->
<g id="edge1" class="edge">
<title>0&#45;&gt;1</title>
<path fill="none" stroke="black" d="M404.99,-579.58C398.68,-568.88 391.87,-557.32 385.5,-546.52"/>
<polygon fill="black" stroke="black" points="388.66,-545 380.57,-538.16 382.63,-548.56 388.66,-545"/>
<text text-anchor="middle" x="373.55" y="-555.27" font-family="Helvetica,sans-Serif" font-size="14.00">True</text>
</g>
<!-- 2 -->
<g id="node3" class="node">
<title>2</title>
<path fill="#ffffff" stroke="black" d="M549.88,-544C549.88,-544 448.38,-544 448.38,-544 442.38,-544 436.38,-538 436.38,-532 436.38,-532 436.38,-473 436.38,-473 436.38,-467 442.38,-461 448.38,-461 448.38,-461 549.88,-461 549.88,-461 555.88,-461 561.88,-467 561.88,-473 561.88,-473 561.88,-532 561.88,-532 561.88,-538 555.88,-544 549.88,-544"/>
<text text-anchor="start" x="444.38" y="-526.7" font-family="Helvetica,sans-Serif" font-size="14.00">petal_width ≤ 1.75</text>
<text text-anchor="start" x="471.38" y="-511.7" font-family="Helvetica,sans-Serif" font-size="14.00">gini = 0.5</text>
<text text-anchor="start" x="454.5" y="-496.7" font-family="Helvetica,sans-Serif" font-size="14.00">samples = 100</text>
<text text-anchor="start" x="445.12" y="-481.7" font-family="Helvetica,sans-Serif" font-size="14.00">value = [0, 50, 50]</text>
<text text-anchor="start" x="447" y="-466.7" font-family="Helvetica,sans-Serif" font-size="14.00">class = versicolor</text>
</g>
<!-- 0&#45;&gt;2 -->
<g id="edge2" class="edge">
<title>0&#45;&gt;2</title>
<path fill="none" stroke="black" d="M453.61,-579.58C458.54,-571.34 463.78,-562.58 468.88,-554.06"/>
<polygon fill="black" stroke="black" points="471.87,-555.88 474,-545.5 465.86,-552.28 471.87,-555.88"/>
<text text-anchor="middle" x="480.87" y="-562.65" font-family="Helvetica,sans-Serif" font-size="14.00">False</text>
</g>
<!-- 3 -->
<g id="node4" class="node">
<title>3</title>
<path fill="#4de88e" stroke="black" d="M448.5,-425C448.5,-425 341.75,-425 341.75,-425 335.75,-425 329.75,-419 329.75,-413 329.75,-413 329.75,-354 329.75,-354 329.75,-348 335.75,-342 341.75,-342 341.75,-342 448.5,-342 448.5,-342 454.5,-342 460.5,-348 460.5,-354 460.5,-354 460.5,-413 460.5,-413 460.5,-419 454.5,-425 448.5,-425"/>
<text text-anchor="start" x="337.75" y="-407.7" font-family="Helvetica,sans-Serif" font-size="14.00">petal_length ≤ 4.95</text>
<text text-anchor="start" x="359.88" y="-392.7" font-family="Helvetica,sans-Serif" font-size="14.00">gini = 0.168</text>
<text text-anchor="start" x="354.25" y="-377.7" font-family="Helvetica,sans-Serif" font-size="14.00">samples = 54</text>
<text text-anchor="start" x="344.88" y="-362.7" font-family="Helvetica,sans-Serif" font-size="14.00">value = [0, 49, 5]</text>
<text text-anchor="start" x="343" y="-347.7" font-family="Helvetica,sans-Serif" font-size="14.00">class = versicolor</text>
</g>
<!-- 2&#45;&gt;3 -->
<g id="edge3" class="edge">
<title>2&#45;&gt;3</title>
<path fill="none" stroke="black" d="M462.75,-460.58C455.03,-451.89 446.8,-442.63 438.83,-433.67"/>
<polygon fill="black" stroke="black" points="441.57,-431.48 432.31,-426.33 436.34,-436.13 441.57,-431.48"/>
</g>
<!-- 12 -->
<g id="node13" class="node">
<title>12</title>
<path fill="#843de6" stroke="black" d="M655.5,-425C655.5,-425 548.75,-425 548.75,-425 542.75,-425 536.75,-419 536.75,-413 536.75,-413 536.75,-354 536.75,-354 536.75,-348 542.75,-342 548.75,-342 548.75,-342 655.5,-342 655.5,-342 661.5,-342 667.5,-348 667.5,-354 667.5,-354 667.5,-413 667.5,-413 667.5,-419 661.5,-425 655.5,-425"/>
<text text-anchor="start" x="544.75" y="-407.7" font-family="Helvetica,sans-Serif" font-size="14.00">petal_length ≤ 4.85</text>
<text text-anchor="start" x="566.88" y="-392.7" font-family="Helvetica,sans-Serif" font-size="14.00">gini = 0.043</text>
<text text-anchor="start" x="561.25" y="-377.7" font-family="Helvetica,sans-Serif" font-size="14.00">samples = 46</text>
<text text-anchor="start" x="551.88" y="-362.7" font-family="Helvetica,sans-Serif" font-size="14.00">value = [0, 1, 45]</text>
<text text-anchor="start" x="554.12" y="-347.7" font-family="Helvetica,sans-Serif" font-size="14.00">class = virginica</text>
</g>
<!-- 2&#45;&gt;12 -->
<g id="edge12" class="edge">
<title>2&#45;&gt;12</title>
<path fill="none" stroke="black" d="M535.15,-460.58C542.8,-451.89 550.95,-442.63 558.84,-433.67"/>
<polygon fill="black" stroke="black" points="561.31,-436.15 565.29,-426.34 556.06,-431.53 561.31,-436.15"/>
</g>
<!-- 4 -->
<g id="node5" class="node">
<title>4</title>
<path fill="#3de684" stroke="black" d="M244.88,-306C244.88,-306 143.38,-306 143.38,-306 137.38,-306 131.38,-300 131.38,-294 131.38,-294 131.38,-235 131.38,-235 131.38,-229 137.38,-223 143.38,-223 143.38,-223 244.88,-223 244.88,-223 250.88,-223 256.88,-229 256.88,-235 256.88,-235 256.88,-294 256.88,-294 256.88,-300 250.88,-306 244.88,-306"/>
<text text-anchor="start" x="139.38" y="-288.7" font-family="Helvetica,sans-Serif" font-size="14.00">petal_width ≤ 1.65</text>
<text text-anchor="start" x="158.88" y="-273.7" font-family="Helvetica,sans-Serif" font-size="14.00">gini = 0.041</text>
<text text-anchor="start" x="153.25" y="-258.7" font-family="Helvetica,sans-Serif" font-size="14.00">samples = 48</text>
<text text-anchor="start" x="143.88" y="-243.7" font-family="Helvetica,sans-Serif" font-size="14.00">value = [0, 47, 1]</text>
<text text-anchor="start" x="142" y="-228.7" font-family="Helvetica,sans-Serif" font-size="14.00">class = versicolor</text>
</g>
<!-- 3&#45;&gt;4 -->
<g id="edge4" class="edge">
<title>3&#45;&gt;4</title>
<path fill="none" stroke="black" d="M329.31,-344.19C309.43,-332.62 287.5,-319.85 267.18,-308.02"/>
<polygon fill="black" stroke="black" points="269.06,-305.07 258.66,-303.07 265.54,-311.12 269.06,-305.07"/>
</g>
<!-- 7 -->
<g id="node8" class="node">
<title>7</title>
<path fill="#c09cf2" stroke="black" d="M445.88,-306C445.88,-306 344.38,-306 344.38,-306 338.38,-306 332.38,-300 332.38,-294 332.38,-294 332.38,-235 332.38,-235 332.38,-229 338.38,-223 344.38,-223 344.38,-223 445.88,-223 445.88,-223 451.88,-223 457.88,-229 457.88,-235 457.88,-235 457.88,-294 457.88,-294 457.88,-300 451.88,-306 445.88,-306"/>
<text text-anchor="start" x="340.38" y="-288.7" font-family="Helvetica,sans-Serif" font-size="14.00">petal_width ≤ 1.55</text>
<text text-anchor="start" x="359.88" y="-273.7" font-family="Helvetica,sans-Serif" font-size="14.00">gini = 0.444</text>
<text text-anchor="start" x="358" y="-258.7" font-family="Helvetica,sans-Serif" font-size="14.00">samples = 6</text>
<text text-anchor="start" x="348.62" y="-243.7" font-family="Helvetica,sans-Serif" font-size="14.00">value = [0, 2, 4]</text>
<text text-anchor="start" x="347.12" y="-228.7" font-family="Helvetica,sans-Serif" font-size="14.00">class = virginica</text>
</g>
<!-- 3&#45;&gt;7 -->
<g id="edge7" class="edge">
<title>3&#45;&gt;7</title>
<path fill="none" stroke="black" d="M395.12,-341.58C395.12,-333.79 395.12,-325.53 395.12,-317.45"/>
<polygon fill="black" stroke="black" points="398.63,-317.71 395.13,-307.71 391.63,-317.71 398.63,-317.71"/>
</g>
<!-- 5 -->
<g id="node6" class="node">
<title>5</title>
<path fill="#39e581" stroke="black" d="M108.25,-179.5C108.25,-179.5 12,-179.5 12,-179.5 6,-179.5 0,-173.5 0,-167.5 0,-167.5 0,-123.5 0,-123.5 0,-117.5 6,-111.5 12,-111.5 12,-111.5 108.25,-111.5 108.25,-111.5 114.25,-111.5 120.25,-117.5 120.25,-123.5 120.25,-123.5 120.25,-167.5 120.25,-167.5 120.25,-173.5 114.25,-179.5 108.25,-179.5"/>
<text text-anchor="start" x="32.38" y="-162.2" font-family="Helvetica,sans-Serif" font-size="14.00">gini = 0.0</text>
<text text-anchor="start" x="19.25" y="-147.2" font-family="Helvetica,sans-Serif" font-size="14.00">samples = 47</text>
<text text-anchor="start" x="9.88" y="-132.2" font-family="Helvetica,sans-Serif" font-size="14.00">value = [0, 47, 0]</text>
<text text-anchor="start" x="8" y="-117.2" font-family="Helvetica,sans-Serif" font-size="14.00">class = versicolor</text>
</g>
<!-- 4&#45;&gt;5 -->
<g id="edge5" class="edge">
<title>4&#45;&gt;5</title>
<path fill="none" stroke="black" d="M147.26,-222.58C134.13,-211.12 119.87,-198.67 106.76,-187.22"/>
<polygon fill="black" stroke="black" points="109.31,-184.8 99.47,-180.86 104.7,-190.07 109.31,-184.8"/>
</g>
<!-- 6 -->
<g id="node7" class="node">
<title>6</title>
<path fill="#8139e5" stroke="black" d="M238.12,-179.5C238.12,-179.5 150.12,-179.5 150.12,-179.5 144.12,-179.5 138.12,-173.5 138.12,-167.5 138.12,-167.5 138.12,-123.5 138.12,-123.5 138.12,-117.5 144.12,-111.5 150.12,-111.5 150.12,-111.5 238.12,-111.5 238.12,-111.5 244.12,-111.5 250.12,-117.5 250.12,-123.5 250.12,-123.5 250.12,-167.5 250.12,-167.5 250.12,-173.5 244.12,-179.5 238.12,-179.5"/>
<text text-anchor="start" x="166.38" y="-162.2" font-family="Helvetica,sans-Serif" font-size="14.00">gini = 0.0</text>
<text text-anchor="start" x="157" y="-147.2" font-family="Helvetica,sans-Serif" font-size="14.00">samples = 1</text>
<text text-anchor="start" x="147.62" y="-132.2" font-family="Helvetica,sans-Serif" font-size="14.00">value = [0, 0, 1]</text>
<text text-anchor="start" x="146.12" y="-117.2" font-family="Helvetica,sans-Serif" font-size="14.00">class = virginica</text>
</g>
<!-- 4&#45;&gt;6 -->
<g id="edge6" class="edge">
<title>4&#45;&gt;6</title>
<path fill="none" stroke="black" d="M194.12,-222.58C194.12,-212.43 194.12,-201.5 194.12,-191.18"/>
<polygon fill="black" stroke="black" points="197.63,-191.37 194.13,-181.37 190.63,-191.37 197.63,-191.37"/>
</g>
<!-- 8 -->
<g id="node9" class="node">
<title>8</title>
<path fill="#8139e5" stroke="black" d="M368.12,-179.5C368.12,-179.5 280.12,-179.5 280.12,-179.5 274.12,-179.5 268.12,-173.5 268.12,-167.5 268.12,-167.5 268.12,-123.5 268.12,-123.5 268.12,-117.5 274.12,-111.5 280.12,-111.5 280.12,-111.5 368.12,-111.5 368.12,-111.5 374.12,-111.5 380.12,-117.5 380.12,-123.5 380.12,-123.5 380.12,-167.5 380.12,-167.5 380.12,-173.5 374.12,-179.5 368.12,-179.5"/>
<text text-anchor="start" x="296.38" y="-162.2" font-family="Helvetica,sans-Serif" font-size="14.00">gini = 0.0</text>
<text text-anchor="start" x="287" y="-147.2" font-family="Helvetica,sans-Serif" font-size="14.00">samples = 3</text>
<text text-anchor="start" x="277.62" y="-132.2" font-family="Helvetica,sans-Serif" font-size="14.00">value = [0, 0, 3]</text>
<text text-anchor="start" x="276.12" y="-117.2" font-family="Helvetica,sans-Serif" font-size="14.00">class = virginica</text>
</g>
<!-- 7&#45;&gt;8 -->
<g id="edge8" class="edge">
<title>7&#45;&gt;8</title>
<path fill="none" stroke="black" d="M370.29,-222.58C363.8,-211.88 356.79,-200.32 350.23,-189.52"/>
<polygon fill="black" stroke="black" points="353.34,-187.89 345.16,-181.16 347.35,-191.52 353.34,-187.89"/>
</g>
<!-- 9 -->
<g id="node10" class="node">
<title>9</title>
<path fill="#9cf2c0" stroke="black" d="M516.5,-187C516.5,-187 409.75,-187 409.75,-187 403.75,-187 397.75,-181 397.75,-175 397.75,-175 397.75,-116 397.75,-116 397.75,-110 403.75,-104 409.75,-104 409.75,-104 516.5,-104 516.5,-104 522.5,-104 528.5,-110 528.5,-116 528.5,-116 528.5,-175 528.5,-175 528.5,-181 522.5,-187 516.5,-187"/>
<text text-anchor="start" x="405.75" y="-169.7" font-family="Helvetica,sans-Serif" font-size="14.00">petal_length ≤ 5.45</text>
<text text-anchor="start" x="427.88" y="-154.7" font-family="Helvetica,sans-Serif" font-size="14.00">gini = 0.444</text>
<text text-anchor="start" x="426" y="-139.7" font-family="Helvetica,sans-Serif" font-size="14.00">samples = 3</text>
<text text-anchor="start" x="416.62" y="-124.7" font-family="Helvetica,sans-Serif" font-size="14.00">value = [0, 2, 1]</text>
<text text-anchor="start" x="411" y="-109.7" font-family="Helvetica,sans-Serif" font-size="14.00">class = versicolor</text>
</g>
<!-- 7&#45;&gt;9 -->
<g id="edge9" class="edge">
<title>7&#45;&gt;9</title>
<path fill="none" stroke="black" d="M418.91,-222.58C423.7,-214.34 428.79,-205.58 433.74,-197.06"/>
<polygon fill="black" stroke="black" points="436.71,-198.91 438.71,-188.51 430.66,-195.4 436.71,-198.91"/>
</g>
<!-- 10 -->
<g id="node11" class="node">
<title>10</title>
<path fill="#39e581" stroke="black" d="M444.25,-68C444.25,-68 348,-68 348,-68 342,-68 336,-62 336,-56 336,-56 336,-12 336,-12 336,-6 342,0 348,0 348,0 444.25,0 444.25,0 450.25,0 456.25,-6 456.25,-12 456.25,-12 456.25,-56 456.25,-56 456.25,-62 450.25,-68 444.25,-68"/>
<text text-anchor="start" x="368.38" y="-50.7" font-family="Helvetica,sans-Serif" font-size="14.00">gini = 0.0</text>
<text text-anchor="start" x="359" y="-35.7" font-family="Helvetica,sans-Serif" font-size="14.00">samples = 2</text>
<text text-anchor="start" x="349.62" y="-20.7" font-family="Helvetica,sans-Serif" font-size="14.00">value = [0, 2, 0]</text>
<text text-anchor="start" x="344" y="-5.7" font-family="Helvetica,sans-Serif" font-size="14.00">class = versicolor</text>
</g>
<!-- 9&#45;&gt;10 -->
<g id="edge10" class="edge">
<title>9&#45;&gt;10</title>
<path fill="none" stroke="black" d="M438.18,-103.73C433.04,-95.34 427.62,-86.47 422.44,-78.01"/>
<polygon fill="black" stroke="black" points="425.49,-76.29 417.29,-69.59 419.52,-79.95 425.49,-76.29"/>
</g>
<!-- 11 -->
<g id="node12" class="node">
<title>11</title>
<path fill="#8139e5" stroke="black" d="M574.12,-68C574.12,-68 486.12,-68 486.12,-68 480.12,-68 474.12,-62 474.12,-56 474.12,-56 474.12,-12 474.12,-12 474.12,-6 480.12,0 486.12,0 486.12,0 574.12,0 574.12,0 580.12,0 586.12,-6 586.12,-12 586.12,-12 586.12,-56 586.12,-56 586.12,-62 580.12,-68 574.12,-68"/>
<text text-anchor="start" x="502.38" y="-50.7" font-family="Helvetica,sans-Serif" font-size="14.00">gini = 0.0</text>
<text text-anchor="start" x="493" y="-35.7" font-family="Helvetica,sans-Serif" font-size="14.00">samples = 1</text>
<text text-anchor="start" x="483.62" y="-20.7" font-family="Helvetica,sans-Serif" font-size="14.00">value = [0, 0, 1]</text>
<text text-anchor="start" x="482.12" y="-5.7" font-family="Helvetica,sans-Serif" font-size="14.00">class = virginica</text>
</g>
<!-- 9&#45;&gt;11 -->
<g id="edge11" class="edge">
<title>9&#45;&gt;11</title>
<path fill="none" stroke="black" d="M488.07,-103.73C493.21,-95.34 498.63,-86.47 503.81,-78.01"/>
<polygon fill="black" stroke="black" points="506.73,-79.95 508.96,-69.59 500.76,-76.29 506.73,-79.95"/>
</g>
<!-- 13 -->
<g id="node14" class="node">
<title>13</title>
<path fill="#c09cf2" stroke="black" d="M650.62,-306C650.62,-306 553.62,-306 553.62,-306 547.62,-306 541.62,-300 541.62,-294 541.62,-294 541.62,-235 541.62,-235 541.62,-229 547.62,-223 553.62,-223 553.62,-223 650.62,-223 650.62,-223 656.62,-223 662.62,-229 662.62,-235 662.62,-235 662.62,-294 662.62,-294 662.62,-300 656.62,-306 650.62,-306"/>
<text text-anchor="start" x="549.62" y="-288.7" font-family="Helvetica,sans-Serif" font-size="14.00">sepal_width ≤ 3.1</text>
<text text-anchor="start" x="566.88" y="-273.7" font-family="Helvetica,sans-Serif" font-size="14.00">gini = 0.444</text>
<text text-anchor="start" x="565" y="-258.7" font-family="Helvetica,sans-Serif" font-size="14.00">samples = 3</text>
<text text-anchor="start" x="555.62" y="-243.7" font-family="Helvetica,sans-Serif" font-size="14.00">value = [0, 1, 2]</text>
<text text-anchor="start" x="554.12" y="-228.7" font-family="Helvetica,sans-Serif" font-size="14.00">class = virginica</text>
</g>
<!-- 12&#45;&gt;13 -->
<g id="edge13" class="edge">
<title>12&#45;&gt;13</title>
<path fill="none" stroke="black" d="M602.12,-341.58C602.12,-333.79 602.12,-325.53 602.12,-317.45"/>
<polygon fill="black" stroke="black" points="605.63,-317.71 602.13,-307.71 598.63,-317.71 605.63,-317.71"/>
</g>
<!-- 16 -->
<g id="node17" class="node">
<title>16</title>
<path fill="#8139e5" stroke="black" d="M785.38,-298.5C785.38,-298.5 692.88,-298.5 692.88,-298.5 686.88,-298.5 680.88,-292.5 680.88,-286.5 680.88,-286.5 680.88,-242.5 680.88,-242.5 680.88,-236.5 686.88,-230.5 692.88,-230.5 692.88,-230.5 785.38,-230.5 785.38,-230.5 791.38,-230.5 797.38,-236.5 797.38,-242.5 797.38,-242.5 797.38,-286.5 797.38,-286.5 797.38,-292.5 791.38,-298.5 785.38,-298.5"/>
<text text-anchor="start" x="711.38" y="-281.2" font-family="Helvetica,sans-Serif" font-size="14.00">gini = 0.0</text>
<text text-anchor="start" x="698.25" y="-266.2" font-family="Helvetica,sans-Serif" font-size="14.00">samples = 43</text>
<text text-anchor="start" x="688.88" y="-251.2" font-family="Helvetica,sans-Serif" font-size="14.00">value = [0, 0, 43]</text>
<text text-anchor="start" x="691.12" y="-236.2" font-family="Helvetica,sans-Serif" font-size="14.00">class = virginica</text>
</g>
<!-- 12&#45;&gt;16 -->
<g id="edge16" class="edge">
<title>12&#45;&gt;16</title>
<path fill="none" stroke="black" d="M650.04,-341.58C663.46,-330.12 678.04,-317.67 691.45,-306.22"/>
<polygon fill="black" stroke="black" points="693.58,-309 698.91,-299.84 689.03,-303.68 693.58,-309"/>
</g>
<!-- 14 -->
<g id="node15" class="node">
<title>14</title>
<path fill="#8139e5" stroke="black" d="M646.12,-179.5C646.12,-179.5 558.12,-179.5 558.12,-179.5 552.12,-179.5 546.12,-173.5 546.12,-167.5 546.12,-167.5 546.12,-123.5 546.12,-123.5 546.12,-117.5 552.12,-111.5 558.12,-111.5 558.12,-111.5 646.12,-111.5 646.12,-111.5 652.12,-111.5 658.12,-117.5 658.12,-123.5 658.12,-123.5 658.12,-167.5 658.12,-167.5 658.12,-173.5 652.12,-179.5 646.12,-179.5"/>
<text text-anchor="start" x="574.38" y="-162.2" font-family="Helvetica,sans-Serif" font-size="14.00">gini = 0.0</text>
<text text-anchor="start" x="565" y="-147.2" font-family="Helvetica,sans-Serif" font-size="14.00">samples = 2</text>
<text text-anchor="start" x="555.62" y="-132.2" font-family="Helvetica,sans-Serif" font-size="14.00">value = [0, 0, 2]</text>
<text text-anchor="start" x="554.12" y="-117.2" font-family="Helvetica,sans-Serif" font-size="14.00">class = virginica</text>
</g>
<!-- 13&#45;&gt;14 -->
<g id="edge14" class="edge">
<title>13&#45;&gt;14</title>
<path fill="none" stroke="black" d="M602.12,-222.58C602.12,-212.43 602.12,-201.5 602.12,-191.18"/>
<polygon fill="black" stroke="black" points="605.63,-191.37 602.13,-181.37 598.63,-191.37 605.63,-191.37"/>
</g>
<!-- 15 -->
<g id="node16" class="node">
<title>15</title>
<path fill="#39e581" stroke="black" d="M784.25,-179.5C784.25,-179.5 688,-179.5 688,-179.5 682,-179.5 676,-173.5 676,-167.5 676,-167.5 676,-123.5 676,-123.5 676,-117.5 682,-111.5 688,-111.5 688,-111.5 784.25,-111.5 784.25,-111.5 790.25,-111.5 796.25,-117.5 796.25,-123.5 796.25,-123.5 796.25,-167.5 796.25,-167.5 796.25,-173.5 790.25,-179.5 784.25,-179.5"/>
<text text-anchor="start" x="708.38" y="-162.2" font-family="Helvetica,sans-Serif" font-size="14.00">gini = 0.0</text>
<text text-anchor="start" x="699" y="-147.2" font-family="Helvetica,sans-Serif" font-size="14.00">samples = 1</text>
<text text-anchor="start" x="689.62" y="-132.2" font-family="Helvetica,sans-Serif" font-size="14.00">value = [0, 1, 0]</text>
<text text-anchor="start" x="684" y="-117.2" font-family="Helvetica,sans-Serif" font-size="14.00">class = versicolor</text>
</g>
<!-- 13&#45;&gt;15 -->
<g id="edge15" class="edge">
<title>13&#45;&gt;15</title>
<path fill="none" stroke="black" d="M648.99,-222.58C662.12,-211.12 676.38,-198.67 689.49,-187.22"/>
<polygon fill="black" stroke="black" points="691.55,-190.07 696.78,-180.86 686.94,-184.8 691.55,-190.07"/>
</g>
</g>
</svg>